<svg xmlns="http://www.w3.org/2000/svg" width="119.98" height="20.01" viewBox="0 0 119.98 20.01"><defs><style>.\35 9ea5f11-229e-425e-98b8-e2d3989d9067,.a54a6ff1-22af-4958-b7a2-aef864ac609b{fill:#fff;}.\35 9ea5f11-229e-425e-98b8-e2d3989d9067{fill-rule:evenodd;}</style></defs><title>アセット 1</title><g id="4a0c444d-7830-4276-a567-5280b298dc7f" data-name="レイヤー 2"><g id="3ff64967-a3ee-4e15-82dc-b9547435b6d8" data-name="レイヤー 1"><path class="a54a6ff1-22af-4958-b7a2-aef864ac609b" d="M53.87,15l-1.22-2.5a9.06,9.06,0,0,1-5.82,1.9c-2.57,0-5.41-1.53-5.41-4.42s2.73-4.47,5.28-4.47A7.67,7.67,0,0,1,52,7.68l1.59-2.37c-2.29-1.69-4-2.6-6.89-2.6-4.29,0-8,2.83-8,7.33,0,4.65,4.06,7,8.29,7A10.66,10.66,0,0,0,53.87,15Z"/><path class="a54a6ff1-22af-4958-b7a2-aef864ac609b" d="M68.12,16.62V13.87H60.45V3.16H57.67V16.62Z"/><path class="a54a6ff1-22af-4958-b7a2-aef864ac609b" d="M86.53,9.76c0-4.65-4.06-7-8.29-7S70,5.29,70,9.84s4,7.23,8.24,7.23S86.53,14.34,86.53,9.76Zm-2.73,0c0,2.94-2.86,4.52-5.51,4.52s-5.59-1.38-5.59-4.42,2.86-4.42,5.56-4.42S83.8,6.77,83.8,9.79Z"/><path class="a54a6ff1-22af-4958-b7a2-aef864ac609b" d="M103.69,12.57c0-3.07-2.39-4.13-5.1-4.24-1.17-.05-2.34,0-3.51-.08-.81,0-2.39-.21-2.39-1.3,0-1.3,2-1.56,3-1.56a12.09,12.09,0,0,1,5.93,1.48l1.22-2.39a12.72,12.72,0,0,0-6.5-1.77c-2.7,0-6.32.75-6.32,4.13,0,2.81,2.44,4,4.91,4.13,1.35.05,2.68,0,4,.1.86.05,2,.26,2,1.35,0,1.56-2.21,1.92-3.38,1.92a11.12,11.12,0,0,1-7.2-2.08L89.12,14.7a10.8,10.8,0,0,0,7.57,2.39C99.65,17.09,103.69,16.31,103.69,12.57Z"/><path class="a54a6ff1-22af-4958-b7a2-aef864ac609b" d="M120,16.62v-2.7h-9.57V11h4.89V8.33h-4.89V5.86h9.26V3.16H107.76V16.62Z"/><path class="59ea5f11-229e-425e-98b8-e2d3989d9067" d="M19.59,17.57,12,10l7.57-7.57a1.43,1.43,0,0,0-2-2L10,8,2.44.42a1.43,1.43,0,0,0-2,2L8,10,.42,17.57a1.43,1.43,0,1,0,2,2L10,12l7.57,7.57a1.43,1.43,0,1,0,2-2Z"/></g></g></svg>