<svg xmlns="http://www.w3.org/2000/svg" width="1597.98" height="204.33" viewBox="0 0 1597.98 204.33"><defs><style>.\37 3a57f4c-0db4-46f7-8a24-66caf117eb04{fill:#1c264a;}</style></defs><title>アセット 2</title><g id="72267533-b7ef-4a5f-825d-affe59e3ace4" data-name="レイヤー 2"><g id="8df29460-b2ff-4c26-a589-2af771affd4a" data-name="レイヤー 1"><polygon class="73a57f4c-0db4-46f7-8a24-66caf117eb04" points="888.23 87.46 888.23 86.05 887.84 85.19 887.92 84.56 887.69 83.23 887.14 82.06 886.04 80.41 884.87 79.71 884.48 79.08 884.01 79.24 882.44 78.53 881.27 78.53 880.02 78.77 877.67 79.79 876.81 80.41 876.26 81.59 875.4 82.45 875.24 83.78 874.46 85.58 874.38 86.21 874.85 88.01 874.77 88.63 874.54 89.1 875.01 89.49 875.24 90.12 875.09 91.14 876.57 94.42 877.35 95.21 877.59 95.75 878.14 95.99 878.61 96.46 878.84 97.01 879.47 97.16 880.17 98.03 881.27 98.42 882.21 98.96 884.09 99.36 884.16 98.5 885.65 96.69 887.69 92.16 888.23 87.46"/><polygon class="73a57f4c-0db4-46f7-8a24-66caf117eb04" points="879.08 102.33 879 101.63 878.29 101.55 877.75 101.31 876.88 100.53 876.18 99.59 875.09 99.04 874.93 98.18 873.44 96.46 872.89 95.44 871.01 90.12 871.01 89.34 870.62 87.46 870.78 86.91 870.08 86.6 869.45 87.93 869.06 88.48 868.27 90.28 867.73 90.82 867.57 91.45 867.73 92.55 866.95 94.27 866.87 94.74 867.41 96.46 867.1 96.77 867.02 97.32 867.8 99.9 868.2 100.37 868.12 101.08 868.35 101.7 869.21 102.56 870.31 103.35 871.17 104.29 872.5 104.6 875.16 104.68 878.29 104.44 878.45 103.74 879.31 102.8 879.08 102.33"/><polygon class="73a57f4c-0db4-46f7-8a24-66caf117eb04" points="918.22 119.39 917.59 119.39 916.73 119.55 915.24 120.1 915.24 120.02 914.07 120.25 913.13 120.8 911.96 120.8 911.33 121.43 910 121.66 907.89 122.68 906.55 122.84 906.32 123.39 904.6 124.79 904.44 125.42 903.74 125.58 904.05 126.12 903.74 128.24 904.6 129.88 905.3 130.74 905.85 131.06 905.93 131.6 906.95 131.99 908.83 131.92 909.45 132.07 910.31 131.76 910.94 131.84 912.82 130.51 913.99 130.12 914.7 129.1 915.56 128.31 915.95 127.06 917.28 125.89 917.12 125.03 918.61 122.68 918.61 121.9 919.16 120.8 918.61 119.71 918.22 119.39"/><path class="73a57f4c-0db4-46f7-8a24-66caf117eb04" d="M977.15,90.66c0-5.41-11.88-9.41-13-14.47-1.19-5.23,7.75-14,5.48-18.69s-14.75-3.24-18-7.36,1-15.92-3.18-19.22-14.65,3.48-19.44,1.16-6-14.75-11.2-15.94c-5.06-1.15-11.59,9.51-17,9.51s-11.94-10.66-17-9.51c-5.23,1.19-6.49,13.66-11.2,15.93s-15.33-4.45-19.44-1.16S853.2,46,849.9,50.14s-15.72,2.57-18,7.36,6.66,13.47,5.48,18.69c-1.15,5.06-13,9.06-13,14.47s11.88,9.41,13,14.47c1.19,5.23-7.75,14-5.48,18.69s14.75,3.24,18,7.36-1,15.92,3.18,19.22,14.65-3.48,19.44-1.16,6,14.75,11.2,15.94c5.06,1.15,11.59-9.51,17-9.51s11.94,10.66,17,9.51c5.23-1.19,6.49-13.66,11.2-15.93s15.33,4.45,19.44,1.16-.13-15.08,3.18-19.22,15.72-2.57,18-7.36-6.66-13.47-5.48-18.69C965.27,100.08,977.15,96.07,977.15,90.66Zm-25.66,1.41-.31,1.17-.86,1.41-.39.31-1,2.27-1.41,2-.47.39-.16.7-1.72,2.43-.24.63-1,.16-1.64,3.05-.63.08-.47.31-.78.86-.7-.39.31.86-1.88,1.49-.7.94-2.19,1-.86.86-2.11,1.33-2.35.86-1.17.16.86.16-.24.63-.94.94-.23,1.33-1.25,3.6-.23,1.1-.31.63-.08.55-1.25,2-.78,1.64-.86.47-.16,1-.55.16-.39.39-.39,1-.7.31-.23.55-.86.78-.24.55L916.73,135l-.63.08-2.35.86-1.25.08-1.17.7-.55-.16-3.6.08-1.33-.63h-.7l-.39-.47-1.17-.55-.78-.16-1.72-1.49-.94-1.41-.16-1.41-.55-1-.24-1.25.47-1.17-.47-1,1-2.74.7-.31.7-1.17.94-.86,2.11-1.57h.94l.86-.86,3.21-1.1,1.1-.63h.7l.55-.23.47.08,2.74-1h1.25l1.1-.55h1.17l.31-.16.39-.47.55.16.86-.86.63-1.1.47-1.25.63-1.1-.16-.63.16-1.25-1-.47-.47.31-.24.55-1.17.39-2.5,1.72-1.25.39h-.7l-.7.55-1.33.16-.39.24-1-.24-3.44-.31-.7-.39-.63.08-.31-.7H906l-.55-.31-1.25-1.57-1.1-.7-.08-.7-.63-.86.08-.7-.39-1.17.16-.55-.16-2.5.08-.55.39-.47,0-.62-.36.47-.86.78-1.17.55-.47.47-.63.31-.78.08-1.1.7-3,.86-.63.31-.55-.16-1.64.31-.63-.16-1.33.63-.78.78-.24.47-1,.16-.16,1.17-1.1.47-1.17,1.25-1.25.39-.78.78-2.58.86-1,.55-.55-.16-2.43.31-1.17-.08-.47-.31-1.17.23-1.72-.23-.39-.55-1.1-.63-.7-.16-1-.78-.7-.23-.31-.55-1-.86-.16-1.49h-.86v-.7l-.31-.47-.55-.24H864l-.63.24-.23,1.49-.55.31-.08,1.17-.24.47-.08,1.25-1.88,1.25-.63.16-.86-.31-1.57.47h-1.17l-1.72-.31-.31-.47-.24-1.25.39-1.25.31-.47v-1.17l.55-1,.31-1.33.7-.86-.08-1.33.24-1.25,1-2.19.39-1.8-.08-.63.63-1,1.41-4.85.55-1,.08-1.41.39-1.33.86-1.49v-.78l.55-1.1V82l.86-1.64v-.63l.7-1V77.44l.7-3.05,1.17-1.88-.16-1,.31-.55.47-.31.16-1.33,1.1-4v-.63l.63-.31-.16-.63.08-.63.86-1.8-.08-.7.7-.86.08-1.33.31-.55.86-.78.63-.24h2l.31-.39,3.21.47.47.31.24.47.08.7-.47,2.19-.63,1.8-.16,1.25L876,64l-.31,1.17-.31.39.16.86-.86,1.17-.31,2.58-.86,2-.31.39.31.78-.86.39L873,75l.31.47.63.31L876,74.39l2.43-1.17.7.24.94-.78,2.35-.63,1.17.31,1.17-.47L886,72l2.58.86,1.25.24.78.86,1.1.47.94.7v.7l1.1.31.24.55,1.25,1.72.16.55v.78l1,2.74v1.41l.31,2.58-.08,1.17-.39,1,.31.63v.63l-.63,1.64.16.86L896,93l-1.41,2.74L894.34,97l-.31.47.16,1-.24.47-.47.23.55.24,1.17.08,2.27-.78,2.19-1.1.16-.7,2.58-2.58.55-1.17.78-.47.16-.7.48-.75.47-1,1-4.15.7-.55v-.86l.23-.63.39-.39-.31-.7.39-.47.31-1.33.31-.63.47-.31-.08-.63-.24-.39.39-.39.16-.55-.16-.7.47-.55.31-1.25.39-.47v-.7l.24-.63.94-1.25.63-.16h3.83l.63.39.86-.39.39.31.7,1.17.16.63-.08.63-.24.47-.55.39L917,77.67,916.65,79l-.94,1.49.08.63-.24.7.16.7-.16.63-.7,1.1V85l-.94,2.27-1,3.76-.39.55.08.78-.94,2.43-.55,2.58-.31.55L910.7,99l-.39,1.64v.63l1.41,2,.24.55,1.88,1.17.63-.16,1.1.31,2.5-.55,2.19-.94,4-3.37.55-.31v-.78l.55-.31.39-.47.94-1.8.47-.39-.16-1h.7l-.47-1.17.31-.7.63-.47-.08-1.25,1.72-5.32.31-.47.08-1.25,1.17-3.21.23-2,.47-.16.55.16-.47-1,.47-1.33.16-1.33.55-.7.16-.7,1.25-1.57,1.33.16,2.66-.31,1.72.16.86.55.55,1.17-1.49,3.13-.08,1.33-1.17,3.91v.7l-.7.94-.47,1.17-1.33,5.24-.55,1v.7l-.31,1.1v.7l-.7.24.08.55-.39,2.43-1.57,3.29-.16,2.19-.39.39v.78l-.24.55-.39.39.08.63-.39,1.8.08.78,1.41.23.47-.7.7-.08.47-.31.7-.16.24-.55.86-.86,1.88-1.41.39-.47.23-.63.55-.31,1.49-1.88,1-.7.24-.63.7-1.1,1.33-1.33.31-1.41.7-.86L946,95l.39-1,1.33-2.11.31-1.33.47-.39.63-.23,1.33.08,1.1.7Z"/><path class="73a57f4c-0db4-46f7-8a24-66caf117eb04" d="M1020.74,121a18.94,18.94,0,0,0,5.77,6.77,24.92,24.92,0,0,0,8.44,3.85,39.92,39.92,0,0,0,10,1.25,52,52,0,0,0,7.52-.59A26.11,26.11,0,0,0,1060,130a16.4,16.4,0,0,0,5.85-4.6,11.54,11.54,0,0,0,2.34-7.44,10.48,10.48,0,0,0-3.09-7.86,24.56,24.56,0,0,0-8.11-5,81,81,0,0,0-11.37-3.51q-6.36-1.5-12.88-3.34a113.74,113.74,0,0,1-13-4.1,44.68,44.68,0,0,1-11.37-6.27,29.51,29.51,0,0,1-8.11-9.61,29.17,29.17,0,0,1-3.09-14,31.26,31.26,0,0,1,3.93-16,35.58,35.58,0,0,1,10.28-11.29,44.84,44.84,0,0,1,14.38-6.69,61.25,61.25,0,0,1,16.05-2.17,76,76,0,0,1,18,2.09,44.92,44.92,0,0,1,15.3,6.77,34.29,34.29,0,0,1,10.62,12q3.93,7.27,3.93,17.64h-25.42A21.16,21.16,0,0,0,1062,57.8a14.79,14.79,0,0,0-5.1-5.52,21.61,21.61,0,0,0-7.27-2.84,44.83,44.83,0,0,0-8.95-.84,30.87,30.87,0,0,0-6.35.67,17,17,0,0,0-5.77,2.34,14.48,14.48,0,0,0-4.26,4.18,11.22,11.22,0,0,0-1.67,6.35,10.71,10.71,0,0,0,1.34,5.69q1.34,2.17,5.27,4a67,67,0,0,0,10.87,3.68q6.94,1.84,18.14,4.68,3.34.67,9.28,2.42a44.53,44.53,0,0,1,11.79,5.6,35.66,35.66,0,0,1,10.12,10.28q4.26,6.44,4.26,16.47a36.5,36.5,0,0,1-3.18,15.22,33.06,33.06,0,0,1-9.45,12.12,45.39,45.39,0,0,1-15.55,7.94,73.56,73.56,0,0,1-21.49,2.84,75.5,75.5,0,0,1-19.15-2.42,48.1,48.1,0,0,1-16.39-7.61,37.53,37.53,0,0,1-11.29-13.21q-4.18-8-4-19.06h25.42A21.88,21.88,0,0,0,1020.74,121Z"/><path class="73a57f4c-0db4-46f7-8a24-66caf117eb04" d="M1118.06,66.42a59.67,59.67,0,0,1,11.54-20,52.77,52.77,0,0,1,18.48-13.38,65.36,65.36,0,0,1,49.41,0,53,53,0,0,1,18.39,13.38,59.65,59.65,0,0,1,11.54,20,74.61,74.61,0,0,1,4,24.83,72.11,72.11,0,0,1-4,24.33,58.09,58.09,0,0,1-11.54,19.65,53,53,0,0,1-18.39,13.13,66.43,66.43,0,0,1-49.41,0,52.82,52.82,0,0,1-18.48-13.13,58.1,58.1,0,0,1-11.54-19.65,72.11,72.11,0,0,1-4-24.33A74.61,74.61,0,0,1,1118.06,66.42Zm24,39.46a39.48,39.48,0,0,0,5.6,12.79,28.67,28.67,0,0,0,10,9.11,34.75,34.75,0,0,0,30.1,0,28.71,28.71,0,0,0,10-9.11,39.52,39.52,0,0,0,5.6-12.79,60.78,60.78,0,0,0,1.76-14.63A65.36,65.36,0,0,0,1203.43,76a40.32,40.32,0,0,0-5.6-13.13,28.45,28.45,0,0,0-10-9.2,34.75,34.75,0,0,0-30.1,0,28.41,28.41,0,0,0-10,9.2,40.28,40.28,0,0,0-5.6,13.13,65.36,65.36,0,0,0-1.76,15.22A60.78,60.78,0,0,0,1142.06,105.88Z"/><path class="73a57f4c-0db4-46f7-8a24-66caf117eb04" d="M1282.1,31l49.83,80.1h.33V31h24.58V150.44H1330.6l-49.66-79.93h-.33v79.93H1256V31Z"/><path class="73a57f4c-0db4-46f7-8a24-66caf117eb04" d="M1475.91,31V53.12h-63V78.71h57.86v20.4h-57.86v29.26h64.38v22.07h-90.63V31Z"/><path class="73a57f4c-0db4-46f7-8a24-66caf117eb04" d="M1525.07,121a18.94,18.94,0,0,0,5.77,6.77,24.92,24.92,0,0,0,8.44,3.85,39.92,39.92,0,0,0,10,1.25,52,52,0,0,0,7.52-.59,26.11,26.11,0,0,0,7.52-2.26,16.4,16.4,0,0,0,5.85-4.6,11.54,11.54,0,0,0,2.34-7.44,10.48,10.48,0,0,0-3.09-7.86,24.56,24.56,0,0,0-8.11-5,81,81,0,0,0-11.37-3.51q-6.36-1.5-12.88-3.34a113.74,113.74,0,0,1-13-4.1,44.68,44.68,0,0,1-11.37-6.27,29.51,29.51,0,0,1-8.11-9.61,29.17,29.17,0,0,1-3.09-14,31.26,31.26,0,0,1,3.93-16,35.58,35.58,0,0,1,10.28-11.29,44.84,44.84,0,0,1,14.38-6.69,61.25,61.25,0,0,1,16.05-2.17,76,76,0,0,1,18,2.09,44.92,44.92,0,0,1,15.3,6.77A34.29,34.29,0,0,1,1590,49Q1594,56.3,1594,66.67h-25.42a21.16,21.16,0,0,0-2.26-8.86,14.79,14.79,0,0,0-5.1-5.52,21.61,21.61,0,0,0-7.27-2.84,44.83,44.83,0,0,0-8.95-.84,30.87,30.87,0,0,0-6.35.67,17,17,0,0,0-5.77,2.34,14.48,14.48,0,0,0-4.26,4.18,11.22,11.22,0,0,0-1.67,6.35,10.71,10.71,0,0,0,1.34,5.69q1.34,2.17,5.27,4a67,67,0,0,0,10.87,3.68q6.94,1.84,18.14,4.68,3.34.67,9.28,2.42a44.53,44.53,0,0,1,11.79,5.6,35.66,35.66,0,0,1,10.12,10.28Q1598,105,1598,115a36.5,36.5,0,0,1-3.18,15.22,33.06,33.06,0,0,1-9.45,12.12,45.39,45.39,0,0,1-15.55,7.94,73.56,73.56,0,0,1-21.49,2.84,75.5,75.5,0,0,1-19.15-2.42,48.1,48.1,0,0,1-16.39-7.61,37.53,37.53,0,0,1-11.29-13.21q-4.18-8-4-19.06h25.42A21.88,21.88,0,0,0,1525.07,121Z"/><polygon class="73a57f4c-0db4-46f7-8a24-66caf117eb04" points="527.28 21.29 527.85 24.52 530.89 27.74 532.41 30.39 534.5 30.2 534.88 31.34 537.15 32.47 545.12 33.6 547.58 32.85 548.91 33.22 556.11 27.72 558 25.25 558 23.74 559.33 19.56 558.95 17.86 559.7 16.15 558.94 15.01 559.32 13.31 558.37 11.98 557.23 8.95 554.2 4.97 551.35 4.59 550.78 3.45 544.33 0.99 542.44 0.99 539.4 1.57 532.01 4.99 528.03 11.05 526.9 14.09 527.28 15.8 527.28 21.29"/><path class="73a57f4c-0db4-46f7-8a24-66caf117eb04" d="M801.32,86.51l-4.74-.94-2.46,2.66-3.6,6.64-2.27,5.5-1.52.95-.19,1.89-1.13.76-2.46,3.79-.38,1.71-1.33.57-1.51,2.09-1.33.38-4,6.07-4.35,3.8-.76,1.52-2.08,2.28-7.39,5.7-1.71-.38-1.33-.76-.76-1.33,1.32-2.85v-3.79l3-7.21.19-3,.95-1.14.75-3.6,1-1.14.95-2.84.19-3.41,1.52-2.09.76-2.47-.19-3.22,1.14-.95.57-1.14.76-4.17.75-1.14-.57-.95.19-1.52,1.13-.95.76-1.33.95-3L771.36,74l2.46-1.33V69.47l1.33-2.66,2.27-9.48,1.33-2.47.95-.76.38-3.22L778,49.18l1.33.38,1.14-.38-.76-1.52-.95-.38h-1.52l-4.17,1-3.22,2.46-5.87,1.71-1.71,2.28-3.41.57-2.46,1.52-2.84,1-2.46,1.33-3.23-1.14-1.14-3-4.93-5.68L735.31,45l-2.09.38-2.08-1.71-8-1.13H720l-3,.57-2.65.95-1.71-.38L709,45.43l-.94.95-1.71-.19L704,47.9l-7.58,4.17-1.7,2.47-4.36,4L689.82,60,687,61.56l-.38,3-3.41,1.9-1.14,2.84-3,3.42-.38,1.71-1.51,2.66.19,1.52L676.18,80l-2.84,7.2.76,2.09L672,90.58v1.71L670.88,97l-.12,1.87-1.21,2.31-3.41,4.93-1.9,1.9-.38,1.9-3.22,5.5-2.08.76-.76,1.33-3.41,2.85-.95,1.33-6.44,1.9-3.79-2.84-.76-1.33.19-3.41,1.14-5.12-.19-3,1.89-3.41.95-2.65.94-6.26L649.45,94l.76-.95-.76-2.47L651,88.51l3-12.7.38-3-1-1.71.95-2.65-.76-7.59-3.42-9.09L647.33,50V48.7l-1.52-.57-2.66-1.7-2.09-2.08-2.08.38-2.47-1.51-3.22-.38L632,43.4,628.74,43l-4.55.76-5.12,2.09-1.9-.38-5.49,4.56-2.84,1.14-.76,2.27-4,1.33-3.22.57-2.66-1.7-1.71.57-1.33-2.09h-1.71l-1.9-1.33h-1.71l-3.23-2.65L584,47l-3.22-.76-2.08,2.28-.76,1.33-.19,1.71.57,1.71-1.33.19-.76.76v1.52l.38.95-2.46,5.12-.76,3-.19,2.65-1.52,2.09-.57,2.84-.76,1.14V75.3l-2.46,8.53v1.33l-.95,1-1.14,2.46.25,1.35-.06.17-3.6,4.74-.95,2.84v1.71l-2.65,2.09-.57,1.9-.95,1-.38,1.71-2.08,2.28-3.41,5.5-2.65,1.9-.57,1.52-1.71.76-2.08,2.47-3.22,1.71h-1.52l-4.74,1.14h-1.71l-3.6-2.46-2.47-7,1.14-.76.95-2.65-.19-1.52.76-1.33-.19-1.89,1.14-.95.76-1.52v-3L534,95.24l.57-2.85-.38-1.71,2.27-3.79,1.13-3,.75-6.07,1.7-2.46.57-4.55,1.14-2.46-.19-1.52L543.62,63l.95-2.84-.19-1.71,1.33-2.28.19-3-.57-1.33,1.52-.57.95-1.14L547,48.58l.76-1.71-1.14-.95-3-1.32-3.22.19-1.33.76L536.59,44l-1.71.57-3-.38-1.52.57-2.84-.57-.95.95-2.84-.76-1.14.76-1.71,2.28-1.33.57v1.71l-2.27,7.2-.19,2.85.38,1.51-1.14,1.14L512.91,70l.19,1.33-.38,1.7L511,75.34V77l-2.27,7,.18,2.9-.64.92-.3.36-.09.2-2.38,3.4-1.13,3-1.51,2.66-.19,1.71-2.27,2.09-1.7,2.46-2.65,5.88-3.41,2.85-3.79,4.55-1.51,2.66-5.12,2.85-3,1.14-1.52-.95-3.22-1.14-.19-1.51-.95-2.47,1.51-5.88,2.08-6.07,1.33-2.65V99.64l3.41-10.81v-3l.76-1.33.56-4.17L481.24,71l-1.14-2.47-4-4.93-1.9-1.71-2.65-1.33-1.71-2.09-1.71-.19L465.87,57l-1.33.19-2.47-2.46-2.84-.57-3.6-1.9h-1.71l-.57-1.33L453,49.41l.19-2.65L455,38.22v-3l-.38-1.52-2.47-.95-.57-1.14-1.9-2.08-1.33-.76-4.17-.94-3,.19-8.53,1.9-3.6,4.17-3.22,5.12-.95,3-.38,3,.95,3-.19,1.52,1.14,1.13.57,3,3.61,5.5.57,1.51-3,6.45v1.71l-1.52,1.71L425.5,77.3l-.76.95-1.52.57.38,2.84-1.33.95-1.51,2.66-.38,1.33.1,1.5-3.71,6.09-1.89,2.09v2.47l-2.09,1.71-.57,1.33-1.71,2.08-1.52.38-.57,1.52-2.08,2.46-2.46,1.71-3.79,4-1.33.57L398,116l-2.27,1.9-5.69,2.85-1.33-.38-3.41,1.9L379.64,124l-6.07.19-2.84.95h-3.22l-1.9-.57-1.52-1.33h-1.71l-1.71-1.52-2.47-.37-1.71-1.71-2.46-.95-1.33-2.28-1.14-.57.38-1.71-1.33-1.33-.76-1.52.76-2.46,2.46-1.52,8.15-1.71,1.14-.57.57.95.95.38,8.72-1,6.07-2.66,3-.95L387,99.32l2.09-1.71h1.33l.95-.38.57-1.52.95-1.14,2.84-1.71,1.89-2.09.19-1.52,2.09-.38.57-1.33,1.14-.76,1.89-4.17,2.08-5.88.57-3.23L405,71.06l1.14-2.47-.57-2.65-.19-3.41-2.66-4-1.14-3.22-1.33-.75-3-3.22-2.47-1.51-1.9-.19-.76-1.13-3.42-2.65-1.9.38-.95-.95L380,44.15,377.49,43h-5.31l-2.46,1.14-2.84-.38-6.45.57-3,.76-2.46,1.33h-2.27l-3.79,2.28-1.14.19-.57,1.33-.95.76-4,1.9L335.41,58l-4,5.12-2.27,2.28v2.08l-1.14,1-3.41,4.36v1.33l-1.33,2.28-.19,1.89-1.14.76-.57,1.14-.38,3-2.27,5.88L318.56,92l.38,1.51-.57,1.33-.22,1.58-.35.13-.38,1.71L315,101.46l-.38,1.71-2.09,1.52-1.33,2.47v1.71l-.95.38H308.9l-.76,1.33-1.89,2.09-6.63,5.88L297,120.24l-5.88,2.85h-7.58l-1.33-.57-.76-1.13-2.09.38-.19-1.7-1.33-1.14.38-1.33-1.33-2.46.38-5.12L281,95.6l1.7-4,2.84-8.72-.38-2.09,2.27-4.17.56-4.93,2.09-1.33L289,67.54,294.84,66l3-.38,3,.57,1.33-.57,3-.19,1.33-.76.76.95,1.33.57,4.93-.38,1.7-.95,1.89-3.6,1.7-6.45.19-3,1.71-2.09v-3.6l-2.47-1.7-2.65,1.14-1.14-.76L311.7,44l-2.84,1.14-1.33-.57-5.88-.18L300.32,44l-1.14-.95L299,40.42l-.57-1.33,5.68-16.31-.38-2.08.76-.95.95-2.65L305,13.87l-1.33-.19-2.84-.19-2.65,1.14-.76,1.14L295,14.64l-3.79,1.71-8.72,2.28L277,20.72l-.38,1.52-1.71,2.28-.38,3.22L273.2,30.2l-.57,2.66.19,1.7-2.08,4.93V41.2l-1.33.76-.95,1.14L267,44l-1.33.38-5.69.38-1.33,1.14-1.52.57-.95,3v3l-.95.76-1.33,2.28-1.32,7.77.38.57,2.65,1.33,5.69,1.89L258.82,78l-.57,6.07-2.08,3.41L255,90.12l-.13.53-1,2.13L253.33,96l-1.14.57L249.92,99l-1.32,4.55-2.08,2.28-7,9.67L237,117.25v1.52l-.38.95-4.55,1.9v1.33l-1.71-.38-1.14.95-1.33.38-2.47-1.33L223,120.67l-1.33-2.46v-1.33l.57-1.71-.95-.95v-1.14l.95.76.57-.95,1.33-4.55,1.32-2.84V103.8L227,98.49,226.78,97l1.71-1.33V94.13l.38-1.14V91.47l1.33-2.84,1.7-6.45.76-1.33-.57-1.71.95-.95,1.14-2.85.95-1.14-.57-1.71,2.27-5.5-.19-1.51,1.14-1.14.94-4.93,2.08-4.37-.38-1.51,1.14-2.47.19-1.33-2.09-2.46-4.74,1.33-1.14,1.14h-2.08l-2.27,1.71L226,53.36l-3,.57-1.7,1.52-2.28.19-3.79,2.47-1.71.38L212,58.3l-1.14-.57-4.36-4.17-1.71-3L203.24,50l-4.17-3.6-2.46.19-1-1.52-1.52-1.13-1.52.19-4.36-.38-2.47-1.33-2.47,1.14-3.22-.19-2.85.38-1.52-.19-1.33.95L168.92,46l-4,2.28-2.84,1.14-1.51,2.09h-1.33l-4.36,4-3.79,4.55-2.46,1.52-1.89,2.28-3,4.93-1.89,2.09-.38,1.52-1.33,2.28-.19,1.71-1.71,2.08-1.7,7.78-1.71,1.71V90.4l-1.14,2.47-1,4.43-8.07,10.94L120.79,113l-1.52.76-3.41,3.42-2.08.76L113,120l-2.46.95-2.27,1.9-2.84,1.33-.76,1.33L90.28,132H87.44L82.32,134l-1.9-.75-4.36.57-5.69.19-2.09-1.13-1.52.76-1.33-.76L55,130.65l-2.47-2.28H51l-2.47-.57v-1.71l-2.66-1.89-4.55-4.55-4.94-8.34-.19-1.71-1.52-2.46v-2.46l-2.47-.76,1.71-1.33-2.09-14-.76-2.85,1.14-2.09-.38-2.84,1.32-4.55.37-4.93,1.14-2.85.95-1.33-.38-2.09,1.51-2.66.38-2.84.95-1,2.08-5.12,1.89-2.09,2.65-5.5,9.47-10.24L57,33.76l2.46-2.28,2.84-.76,3.79-2.66h1.71l2.46-1.52,8.34-2.09,2.46-1.71.95.95,1.52.38,3.22-.57,5.88,1.7h1.71l3,3,4.74,3.22-.38,2.84H99.69l-.38,1.52-2.46,2.85-.38,1.52L95,40.56l-.95.76-1.7,9.86,3.61,8.15,1.71,2.46,2.09,1.89,1.52.19,4.17,1.89,5.12.18,2.84-.57,3.22-1.33h1.7l4.55-3.6.57-1.33L127,55l.19-1.71,1.14-2.09-.19-2.27,1.7-2.66-.38-2.09.76-3.6-1.14-3.41.38-3.22-.19-1.52-1.71-3.79L127,25.94l-2.47-3.22-.76-3.22-2.65-1.33-1.33-2.46-.19-1.33-1.71-.57-3.61-3-1.71-.57-.95-2.28L109.15,7l-.76-1.14-2.84-.38L100.62,3.4H98.91L96.25,1.88l-4.74-.75L85.64.94,78.24,0,75.4.38l-2.66.95L70.66.76l-3,.57-7,2.28L54.16,4.95,52.46,6.66l-1.9.19L47.72,8l-6.25,4.18-1.71.38-6.25,6.07L31,19.37,30.29,22l-2.84,1.33-2.27,1.9-5.68,7-.38,2.46L18,35.5l-2.65,3.42-2.84,5.31-1.7,2.47L11,48.4,8.69,50.86v1.52l-.95,2.28L7.94,56,6.8,57.12,5.1,60l-.57,1.71.76,1.71L4.15,64.52l-2.08,8,.38,1.71L.94,78.55l1.14,1.52L.75,82.72.56,84.05,1.7,86.52l-.95.76L0,93.15l1,1.33L1.33,96,.76,98.46l1.52,9.67-.19,1.52,3.23,9.48.57,3,3.23,4.93.38,1.71,1.71,1.14.76,1.71L13.3,133l1.33,2.84,1.9,2.28,4.36,4,4,4.36,2.84.95,7,4.36,2.65,1.14,3.22.76h1.71l7.4,2.65,3,.57h3l1.33-.38.57,1.52,1.52-.57h6.07l2.65-.38,1.33-.57,2.09,1.14,1.51-.57,3-.19,2.47-1.14,2.09.38,6.07-1.33,2.84-1.14L92,151.48l4.55-.57,1.14-1.14,4.17-1.71,9.86-6.07.76-1.33,3-2.85,5.31-3.61,2.27-2.09,2.65-4,2.46-1.52.57-1.33,4.55-5.65,1.15,3V124l1.71,2.28.38,1.7,1.33,2.84,2.09,2.08,3.61,4.74,1.52.38,5.12,2.65,3,.95h1.9l1.71,1.71H168l2.84-1.33,1.52.19,3.41-.57,2.65-2.09,1.52-.19,4-1.9,4.55-3.42,1.52-.57,1.14-1.71h1.71l2.84-.95.57,3,5.12,4.92,2.28,1.71,1.52.19,4,2.27,1.52.38,6.07-.38,1.33.38,2.08-1.14,2.84.76,4.74-2.66,1.52.19,4.93-3.41,1.71-.38,3.79-3.23,2.84-1.71.76-.95.38-1.52,5.68-5.12,1.12-1.46,0,.51,1,3,1.52,2.27.38,2.84,1.71,1.71.38,1.52,5.5,4.36,5.5,2.84,6.26,1.7h6.82l4.93-1.33H286l1.71.76,1.33-.76,3-.95,4-2.47h1.71l2.08-2.46H301l2.46-.95,2.27-2.28,1.52-2.08,1.71-.76,1.14-1.33h1.33l1.89-2.28,6.5-8.85,1.66,2.21,2.66,5.69,3.23,4.93L330,132l.19,1.33.76,1.14,1.52.19,1.14.76,1.52,1.89,2.47.76.76.95,1.9.19,3.6,1.89,6.07,1.13,2.46.95,2.09-.76.95.76,2.84.95,3-.19,1.14-.76.38,1.14,1.14.57,2.65-.95,6.63-.38,3.22-.57,6.26-1.9h2.47l6.63-3,1.52-.19,2.46-3h2.47l2.08-2.09,9.47-7.59,4.17-4.55,1.7-2.66,1.33-.76,3-3.6,3.6-5.12v-2.09l2.08-1.9,4.55-7.59.95-3.81L432,91.7l1.7-5.5,2.46-3.79V80.33l.95-1.14,1.14-3L439,75l.19-1.9.57-1.52,3.41-4.93,3,.75,5.12,2.84,4.55,3.41L455.45,75l1.33,2.46-1.7,4.74-.19,1.52.57,1.51-1.14,1.14-.57,1.52.19,1.14-.76,2.47L450.73,97l.19,3.22-1.7,2.47-.57,3.41-1.51,5.5.19,3.6L446,117.48l1.14,3.41-.38,1.33.19,4.36,2.47,8.72,3.42,2.46.57,1.33,4.74,2.46,2.84.95,1.9-.19,2.46.57h4.55l7-1.9,2.65-1.52,3-.57,9.67-5.69,1.32-2.84,1.33-.76,5.31-5.69.77-.59v.59l2.47,9.1,2.46.75v2.85l.95.57h1.52l1.9,2.28,4,2.08,6.64,1.7,1.33-.57,1.14.19,1.33.75,3-1.14,3,.38,12.13-3.8,2.84-3,2.46-1.52,1.52-.38,1.7-2.46,2-1.88-.14,3.2-1.9,1.9V140l3.6,1.51,4.93-.19,1.33.57,2.65-.57,10.05.37,3-.76,1.14-.95v-1.52l2.08-3.6-.38-1.89,2.08-3.41v-1.33l1.33-3,.38-1.9-.95-2.46,3-3.8v-1.33l1.89-5.69-.19-1.9.95-.76L589,106l-.38-3,1.71-1.71,1.7-5.69V93.87l1.7-4L596.16,81l1.52-2.28L596.53,76l2.84.19,2.46-3,.38-1.52,1.14-1.14L608.1,69l2.46-2.09,2.84-1.14,1.14,1.13,1.52-.57h1.33l5.88,2.27.38,1.9,2.66,1.89-.38,2.85L625,77.72l1.14,1.71-1.89,3.23.19,1.51L623.47,87l-1.71,2.28v1.89l-1.7,4,.76,2.84-1.71,1.9.19,1.51-.95.95-.95,2.85-.76,1.14.38,2.46-.76,1.33-.76,2.85-.38,3.22-.57,1.33.57,1.33-.56,4.17.19,1.89,1.9,2.08-.76,2.27v1.52l2.09.38-.19,1.71,1.14,2.65,3,3.41.57,1.33,2.84.57,5.31,2.08,2.65.38,4.36-.19,1.71.38,5.69-2.28,3.41-.19,2.65-1.71,1.9-.38,7.2-6.07,2.84-1.71,1.7-2.47,4-4.17,1.89-2.47.57-1.33.8-.23.16.61-.19,1.71,5.51,10,2.85,2.08.76,1.51,1.52.38,1.14.76,1.9,2.08,2.09.19,2.46,1.89,2.47-.38,2.28,1.33,8,.37,1.33.38,6.83-1.9,2.85-.19,2.27-1.71h1.71l.19-1.14.76-.76h1.33l2.27-1.71h1.33l-.57.95,1.71,2.28-1.33,4.36.57,1.51-1,.95-1.13,2.66-.76-.57L720,148l-4.55,3-1.14-.38-4.17.19-.95.95h-2.46l-3.8,1.71h-2.65l-2.46,1.33-5.88,1.9-2.08,1.71-1.33-.38-3.79,2.47-1.52.38-.76,1.14-1.33.95-1.51.38-.76,1.71-1.52.76-5.11,9.1-.95,3.22.77,11,1.33,2.84,3.23,2.84,3.41,4.55,5.69,2.27,3.41.57.76,1.14,1.33.57,2.08-.19,1.52.57,2.84-.57,6.26.19,2.85-.38,2.46-1.33h1.52l4.74-1.9,2.46-1.9h1.71l2.08-2.47,4.93-3.23,4.17-4.18,7.39-9.11v-2.08l3.6-4.93,1.52-2.84-.19-2.09,1.51-2.47,3-9.48,1.13-.95.57-2.09,5.31-3.42,1.33-.19,1.33-1.71,1.71-.19,1.33-.57,1.89-1.9,1.14-.57,1.71-.19,4.74-4.36,1.52-.57,2.08-2.28,4.92-3.61,3-3.42L782,128l7.39-7.59,3-5.5,3.41-3,.38-1.71,2.46-3.61-.38-1.33,5.11-8.53-.19-2.47,1.33-.38.76-.95-1.52-4.55ZM764.16,79.9l-.76.57V79.33Zm-1.52-8.53,1.14.19L763,73.08l-1.14-.38-.38-1.14ZM540.78,62.62l1.14.76h-1.14Zm-7.4-4,.19,1.52L532.05,60l-.57-1.89Zm-2.08,7.78,1.14-.57,1.14.38-.76,1.14-1.71.19ZM389.65,71.64l-.76.57-.95-.57Zm-2.86-17.82h.76v.76h-.76ZM385.1,69.17h1.14l-1.14,1.14ZM302,52.17l-.57.95-.57-.57Zm-4.94-14,.38.76-1.14.19-1.14-.57ZM227.52,67l1,1.33-1.71.38ZM101,36l.38-1.33.76.76Zm20.1-.77h1.33V36h-1.33Zm-4.36,5.31-.57,1.71-.76-1.33Zm-2.27,8.34h.95V50h-.95ZM112,39.23h.57v1.33H112ZM98,7h.95v.95H98Zm1.33,8.72v1.14L98,16.1ZM86.78,9.09l.95.38-.57.95H86.4ZM74.45,7.4,73.7,8.73,72.75,8Zm-6.63,7.21.76.76L68,16.5l-.95.38-.19-1.14-.19-1.33ZM56.64,22.77l-.38,1.71H54.94l.57-1.14Zm-2.09-3.22.76,1.14-1.14-.19-.76-.95ZM51.7,11.21l1.14.38-1.9.38Zm-6.82,8.92,3,.19-.76,2.09-1.33-.76-1.14-.19Zm-3,5.12.95.76-.95.57Zm-.18,9.86-.95.57-.95-.95Zm-3.23-9.48h.95v.95h-.95Zm-.94,5.31,1.89-.38-.57,1.33-1.52.76ZM31.82,41.75l.57-.95h.38Zm2.85,3.79-.76-1.71,1.33.38Zm.56-5.88h-.57l-.19-1.14h1.14Zm-3-3.41,1.33-.57.38-1.33h.95l-.19,1.52-.76,1.33H31.44ZM30.69,50.47l-.57,3-.76-.76L29,51.23l.38-1.14Zm-1.32,9.86L28,59.95l.76-.76ZM26.88,36.82h1.33l-1.33.76Zm0,3.41,1.71-.57L29,41h1.14l-.38,3.22H28.22l-.76-1.51-1.33-.95Zm-1.32,4.17h.57v.76h-.57Zm.76,2.84,1.14-.76L29,46.3l-.76,1.14-2.65.95Zm-.75,14.6V60.33l.95.57L26.9,62Zm.22,43.61V106h-.57v-.57ZM25,52.37l1.52-.57-.38,2.84-1.71-.76Zm-2.23,57.26h.95v.95h-.95ZM19.12,46.69l1.14-.76-.38,2.85-1.14-1Zm2.09,8.72L19.88,55l.38-1.14Zm-2.08,10L18,64.32l.19-1.71h.95l.38,1.51Zm1.71,11,.38,1.33h-.95l-.76-1.14Zm-3.41,8h-.95v-.76Zm-1-25.22v-.76H17v.76Zm.77,18.58.19-1.52,1.14.57.19,1.33-.57,1ZM17,55l1.52.95-1.14.38Zm-.57-8.15.95.76h-.95Zm2.09,3.22-.95.76L16.28,51l-.57-.95ZM17.06,85.75v1.71l-.95.76-.38-1.71ZM15,95l.76-.76,3.41-.38.95.76.38,1.51-.19.95L19,96.93,20.29,96l-1.14-.19-.95.76-1.71-.38-1.9.19ZM14,61.29l.38-.38L14,62ZM10.79,71.53l1.33.38.76.76L13.26,74l-1.33-.57-1.14-.95Zm2.47,6.26H12.12V77ZM7.21,94.85l-1.33.38.38-1.33,1.33-.38Zm3.6-5.31L8.72,87.27,8,84l1.71.76.76,1.33L10,87.46h2.08l1.14,2.84-1.33-.19ZM16.12,103l-1.14.57-1-2.09,1.33-1.33-2.84-1.32.76-1.33,1.14-.95,1.14,1.13.57,3.41,1.14-.57h.95l-1.7,1.33ZM19,107.17l1.33.38-.57,1.14-1.52.19Zm1.33,7.21L19,114.19l.57-1,1.52-.19Zm.74-29-1.33-.19L19.52,84h1.89Zm-.58-15.17-.57-1.14,1.33.38.76,1Zm1.88-25.41-.95-.57-.19-1.14h1.14Zm3.66,77-1.14.95-1.33.19-.38-1.52-.38-1.71,2.09,1.52,1.71-1.14ZM26.56,110l1.14-1.14,1.33.76-1.14.95ZM29,131.62l.38-1.71,1.33,1.33Zm3.23,6.25-.76-.57,1.14-.38Zm-1-17.44-1.52-.38,1.14-.76,1.71.38Zm1.9,10.43.76-.95.57.76Zm3.22.76.38-1.33.95.38ZM57.49,146h-.76v-.76h.76Zm82.24-35.13.44-.78.35.58Zm2.12,8.52h-.76v-.95H142Zm-.76-5.12.38-.38,1,1.71Zm3,10.43h-1.33v-1.33l1.71.38Zm.75-9.48h-.76l.38-.95h.76Zm.75-4.55h-.76v-.57h.76Zm1.71,7.77-1.14-1,.19-1.52,1.14.95Zm1.13-19.34h-.76v-.57h.76Zm3.79-6.64h-.76V91.9h.76Zm-1.71-6.64.38-.95,1.33.57ZM190,56.42h.76v.76H190ZM190,61h.76l.38,1.14h-1.52ZM189,65.15l.76.57L189.6,67l-.95-.57Zm-6.45-10.24,2.84.76.38,1.14-4.17-1.13ZM180.87,60l1.33-.38,1.52.38-.95,1.33-1.9-.38ZM178.4,54v1.52l-1.71-.75Zm-9.66,9.11.95.38-.19,1.14-1.14.19Zm-3.21,13.65.76,1.52h-1.14ZM159.64,71l1.33.57-1.33.95Zm-2.09-5.87.95.76h-.95Zm-4.14,44.18,1.33-.38-1.14,1.33Zm1.33,2.84.38-.38.95,1.71Zm2.86,15.17-1.14.19.57-1.14h1.14ZM158.89,75l1.14.38-.76.76-1.14-.38Zm1,38.87.38,1.71-1.71-1.71Zm.77,8.34-.38,1.52-.57-1.52Zm1.14,4.17-1.14.38-.57-.57.57-1.33,1.52.19Zm.37-8.72.19-.57.76.19Zm5.51,14.78h-1.33l.57-1.14.76.38Zm4.55.38v-1.14l.76.57Zm23.5-9.12h-.76V123h.76Zm-.38-2.85-.57-1.13,1.33-.95Zm3.41-1.71-.95-.38.38-1.71.76.76Zm1.9.95.95-1,1.71,2.65ZM199.87,108v-1.52l1.14.76Zm1.33,7.2h1.9l-.57,1.14-.95.38Zm.73-32.42-.56,5.88.19,1.71-.76,1.52L200,94.71,199.1,96l.19,1.33-.76,2.47-4,7-1.32,3.22-1.52.76-2.08,2.66-1.14.38-2.65,3.23-4.17,1.33-1.71.95-6.45.57-3-.38L168,118.44,165.17,115l-3.42-5.69.38-1.33-.38-4.93.57-1.52-.95-2.09.95-1.33.19-1.33-.38-2.47.57-.76,1.14.38,1.7-6.26,1.32-2.85,1.71-2.28,1.14-.95.57-1.52,1.7-2.46,4.55-4.18.95-1.33,1.71-.38,1.14-.76,1.71-1.9h1.52l6.26.38,5.5,1.51,2.46,1.14L198.7,75l1.71,2.66.38,1.51,2.47,2.08Zm19.72-1.91-2.65.38.76-1.52,1.52-.19,1.33.76Zm-4.74-4.74h1.52l.57,1.71-1.33-.57Zm.2,8.53-.19,1.14-.57-1.71Zm6.45,4.74-.95-1.14,1.14-.19ZM220.69,60l1.14-.38-.95.95v.76l-.95.38-.19-1.52Zm1.9,3.79-.38,1.33-.95-.95ZM219,72.71l3.22-.95-.76-1.71.38.76,1.52.76v1.7l-2.84-.37-2.46.76Zm-3.6-2.46,1.33.38.57,1.52h-1.14l-1.71-.57Zm3.06,32.42V104l-1.14-1.33Zm-1.52-4.93.38-1.14h.76v1.14Zm-.19-1.33-2.09-1.14h-1.52l.57-1.33.76-.76,1.33.76L218.06,96Zm-6.05,17.83-1.33-.76.38-1.52,1.14-.38,1.14.57.38,1.71Zm1.52,5.88-.19,1.7-1.71,2.09-.95-.95.38-1.33.95-1.14Zm-.6-39.82,1.14.95-2.65.38-1.14-.38.95-1.33Zm-1.33-1.52.38-.95h.76v.95ZM209.9,83l1.71.38,1.14.75.76,1.14-.95.95H211l-1.14-.76-.57-1.13Zm1.9,8.91-1.52-.38.95-.76Zm0,6.26v1.33h-2.09V98.12ZM211,104l-1.33.19-.57-.95.57-1Zm.76,5.31v-.76h.57v.76Zm0-3.79h1.71l1.33.95h-1.71Zm2.47,7.2.95.76-.95.76Zm-1.15-11.19.76-.76,1.33-.19v1.33Zm1.31-23.7-.19.95-.95-.95Zm-3-14,.76.95-.76-.19Zm0,5.5,1.71,1.14-1.71.38Zm.76,4-.57,2.66-.95.76-.76-1.33.76-1.52Zm-1.91-12.51.57.95L210.64,63l-1.14-.76L208.93,61Zm-1.7,8h.76v.57h-.76Zm-.75,9.1.76.76-.76.95Zm1.9,9.1-.57.95-1.33-.38Zm-3.24-21.42h1.14V67l-1.14.57Zm-.37,7,1.14.57v1.52l-1.14-.76Zm-.73,38.11.95.76-.19,1.14-.95-.57Zm-1.7,7.4h.76v.76h-.76Zm1.52,8.72-1.14-.19v-1.14h1.14Zm1.32-4.55-1.14-.19-.57-.76h.95l.38-.76h.76Zm.75-6.26-1.52-.38.76-1.33,1.71.95Zm1.33,2.84L209,118l.76,1.13Zm.76,5.5.76.57-.76.57Zm1.71,3.79-1.33-.19.76-1.14.57-.95,1.33-.38.38,2.09Zm4.36,1.14-1.9-1.33,1.33-1.14.95.38Zm.56-11.95-.38,1.52-.38-.76-1.52-.76-.76-1.14.19-1.52,2.09,2.46,1.7-2.47.76.95Zm.94-7.59.38-1.33.76-.76.38,1.14Zm1.52,9.67v-.57H219l.38.57ZM219,107.6l.57-.95.95.19Zm.75-14-1.9-1.33-1.52.19-.57-1.33.19-1.33,1.14.95,1.9.38-.19-1.33-.76-1-1.14-.57-1.7,1.14-.38-1.33,1.33-1,1.9-.19,2.66,3.79.19,1.51Zm58-21.47-1.71-.38.76-1.71,1.33.76Zm-.39-10.81,1.51-.76v1.9l1.33.57-1.14.95-3.41,1.14.95-1.33,1.52-1.14Zm4.55,8-1.33-.38V67.54l1.14-.57.95-.57Zm1.52-4.17V63.75l.76.95.19,1.51Zm3.79-.38-1.14-.95h1.14Zm4.54-9.48h1.33l-.76,1.14Zm1.71,3.6-.95-1.13h.95Zm0-13.65-.95-.76,1.14.38.57.95Zm.75-7h-.76v-.76h.76Zm-.76-6.07h-.57v-.57h.57Zm-1.14-3,.95.57-.19,1.14-1.33-.38-.76-.95ZM288.56,34l1.14.38V37l-1.14-1.14Zm1.14,4.93-1.33,1.33L288,39.1Zm-.37,14.22v1.14l-1.14-.19-.57-1.51Zm-6.26-10h.76v.57h-.76Zm1.71,4.17-.38.95h-.57v-.95Zm-1.51,3,.57-1L284.4,51l-1.71.38Zm.76,3.6.76,2.47h1.71l.38,1.33L289,61.47,288,62.61l-.76-.76V60.52l-.76-1.13-3-3.22-.76-2.65Zm-1.32,3.79-1.33.38-1.14-.76-2.47.38.19-1.14,1.71-.19,2.09.37Zm-2.28-8-1.9-2.84,1.71-.38,1.71,3.22Zm-.2-11.56,1.33-.76v1.52l-1.14.57-1.14-.38Zm-2.08,4.17,1.14-.38,1.33.57.76.95-1.71.19-1.52.76.19-1.33Zm-3.41,5.31h1.33l.57,1.33,1.52.38-.76,1.33L274.73,49Zm0,11.57h.95l.38,3-2.84.38Zm-2.47-9.48,1.71.38-.76,1.33.76,1.33h-1.14l-.95-.95-.38-1.51Zm-.93,25.6.95,1-2.09-.38Zm-1.15-10.62v1.14l-1.33-.38-.57-1.14ZM267.91,56l1.33.95L269,58.45l-1.14-.95Zm-4.16,24.08h1.14l-.19,1.52-1.33.38Zm-.92,35.84H261.7v-1.14h1.14Zm1.33,6.63h-.76v-.76h.76Zm2.09,4.93v-1.14l.76.57Zm-.4-27.87-.38-.95,1.71.38ZM267,86.51l-.38-1.14.76.76Zm1,15.17,1.33.19-.19,1.33-1.52-.57Zm2.29,26.73-1.52.76.57-1.52,1.9-.57Zm-.38-2.09.38-1.71.57.95Zm.37-17.82-.57-1.52.95-.57.57,1.14Zm2.26-24.65-.76.95-1.14.38-.95-.57-.38-1.14.57-1.52,1.52-.19,1.14.19Zm-1.33-4.36.38-1.33.95-.38.38,1.33Zm2.5,46.83h-.76v-.76h.76Zm1.09-59.53,1.52.19,3-.76-1.14.95v1.71l-.95.38L274,68.31Zm.23,60.86-.19-1.14.57-1.14.95.57.19,1.52Zm3.6.38h-.76v-.57h.76Zm3.79,0h-3l.76-.76,1.33-.57,1.33.38Zm14.79-2.66-.38-1.14.76.76Zm46.23-49,1.52-.38-.38,2.27-1.14-.57Zm-.18,15,.95,1.33h-.95Zm1.33,4.17h-.95l.57-1.14Zm-3.22,1.71,1.52,1.14-1.14,1.33-.76-1.14Zm-1.33-8,.76.95H340Zm-1.7,3.6.38-1.14.95.57-.38,1.14Zm.38,3.6-1.52-.57V94.43l1.33.57Zm-.39-11.75V83.24l1.33,1.13Zm-.38-1.89-.76-1.71,1.14-.19.95.57Zm-.57-6.63,1.33-.57-.76.57v1.89l-.95-.76Zm-.75,9.48,1.71.76-.57,1.14-1.52.19Zm-2.91,6.63.44-.56,1.52.19.95-1.33L337,92l-1.89,2.47-1.58-1.23Zm1.39-9.09.76.95-1.14.95Zm0,2.08-.38,1.9-.95-.76Zm-6.47,18.59.31-.37.3.37Zm1.94,5.69-.38-1.14-.38-1.33.38-1.14h1.14l.38,2.85ZM331.6,98l1.19-1.45L333,95.3l1.07.27-.75,3.79L331.65,99Zm.44,6.7.76-1.14,1.89-2.46.76,1.13V105l-1.71.38Zm2.28,6.45-1.33-.19.19-1.52.95-1.14,1.33-.38.38,1.14v1.52Zm1.14,5.5v-1.14l.76.57Zm1.88-16.88-1.52-.38,1.14-.95,1.71-.38.76,1.51,3.79,3-.76,1.33-1.14,1-1.52.38-2.65-.75-.95-1.14.76-1.52,1.33-1Zm1.34,24.08-1.14-.95-.38-1.71h1.52Zm.37-8-.38-1.14h.57Zm.18-7-.19-1.33.95-.76,1.33.38-.57,1.14Zm1.14,8,.57-1.14.19-1.52h.95l.38,2.47Zm2.27-10,.57-1.14,1.71.76-.95,1.14-1.52.57Zm.76,4.74-.57-3h.95l.57,1.51-.57,2.47Zm1.14,9.86,1.33.38-.19,2.09-1.33-.57Zm1.33,5.31h-.57v-.95h.95ZM380,52.12l.95,1.33-1.71.38ZM350.21,63.7l.95.76-1.33,1.33Zm.57,6.45V69l.57,1.14.95.57-.76.95-1.33.38-.38-1.33ZM349.1,105.6h-.95v-.95h.95Zm-1-12.13,1.13-4.36-.19-3,2.27-4L355,77l8.15-8.73,7.77-.76,3,.19,1.52.57,1.14-.38h1.52l.57,1.71,2.66,4.17-.57,1.71.19,3.22L380.37,80l-3.22,2.85L376,85.68l-1.52.57-.76,1.33-1.14.95-3.41.57-2.46,1.33L366,91.75l-2.08-.38-1.14.76-4.17,1-1.14.76-1.33-.38Zm4.2,39.43-1.33-.38.19-1.33h1.14ZM441.6,51.69l-1.33-.19.95-1h1.33Zm1.51-3.6.76-1.33.19.95Zm4.55-1.33-.38-1.14,1.52-.38Zm6.68,67.87.76-1.14.38,1.14ZM472,83.14l.19,1.71-1.71-.38Zm.19,4.74L472,90.16l-.95-.95-.19-1.33ZM468.73,76.7l.38-.19-.38,1Zm-.94,12.7,1.33-.19.76,1.13-2.84.38Zm-6.44,10.81,1.14.38-.38,1.71h-1.33ZM459.46,108l1.52-.38v-2.47l1.71-.38,1.14.75-2.27,2.09-.57,1.33v1.52l-1.33.19-.76-1.33Zm4.36,5.12-.38,1.33-1.14.38-1.33-.19.76-1.33Zm-5.88-1.7,1.71-.38-.95.95-1.52.19-.76-1.14Zm1.34,17.44-1.14-.76-1-1.33-.38-1.71,1.89.38,1.71,2.84Zm3.79-6.64-2.65,1.9-.76-1.51,1.14-.38,1.52-.76,1.33-.19.95.95Zm1.71-2.09-.57-.57,1.14-.38Zm2.66,12.32h-1.89l-.19-1.33.95-.76,1.33.38Zm-.57-6.63-1.33-.38.76-1.71,1.52.38.57,1.33Zm.94-8.91-1.89.57-.38-.76.57-1.33.95-2.47,1.14,1.33.57,1.71Zm-.2-13.46-1.52-.19L465,102.3l3.79.76Zm.94-7.58L467.6,97,467,98.5l-1.14-1.14L465.52,96V93.58L467,95.28l.95-1.71.95,1.13Zm5.14,33.75-2.46-.76v-1.52l-.38-1.14-1.71-1.89.95-.38,1.52-.19.76,2.85,1.33.19Zm3.41-5.31h-.57v-.57h.57Zm1.15,11.94h-.76l.38-.95h.76Zm42.06-58.62v1.33l-1-1.33Zm-2.82,35.84H516l.76-1.71.57.38Zm-6.44,9.29v-1.33l.95.76.19,1.33Zm2.45-14.22-.57-.95.95-1.14.38,1.7Zm1.9,7.39,2.09.95-.76,1.52-2.09-1.51Zm1,19.91,1.14-1.14.38,1.14Zm6.06-15.74-.76-1.14.38-1.71,1,1.33Zm.18-15.36-.95,2.46h-2.85l-.76-2.46,1.52.38,3.79-.76Zm.35-36.6-.57-.57.95-.38Zm1.51-8.91H525l-.95.57Zm0,14V71.73l.95.76Zm1,51.76.38-1.14,1.14.76Zm0-60.86,1.52-.76.57.95-.57,1.14Zm61.44,3.75-.57,1.33L584.77,69l-.38-1.51Zm-5.3,4.55.76.57-.76.57Zm-3.79-2.08h2.09l-2.46,2.09-.19-.95Zm0,18.58.38.95L577,89.73l-.27-1.13Zm-1.7,9.1h-1.14l.76-1.52Zm-1.53-12.32.38,1.14h-.76Zm-5.86,27.69-1-1.22.07-.11h1Zm1.32-3.79h.76l-1.14.76Zm1.52,7h-.76v-.76h.76Zm-.76-4v-1.33l.95.76Zm2.11-9.52.83-.83-.29.68Zm2.83,19.75v-.76l.95.76Zm-.38-8.34.76-1.52.57,1.71Zm-.76-6.63.38-1.52,1.14.75Zm3-6.64-1.33.57-1.33-.95-.61.49.23-.68-.1-1.09.67.34,1.52.19,1.52-.38Zm1.15,22.94-.57-1h1.33Zm.55-31.29-.19,1.9-1.52-.19-.36-.36.08-1.39.47.24.76-1.33.95-1.14.57.95Zm1,13.84h.57v1.14h-.95Zm2.09,5.88-1.52-.38.38-1.71,1.14.57Zm.56-9.67-1.14-.57-.57-1.13,2.09.57Zm1.51-6.45-2.85-2.27h1.52l1.33.75Zm1.12-22.94-.19.95-.95-.38.19-1.14,1.52-2.28,1.14.76-.57,1.33Zm1.33,8.72v-.76l.95.76ZM589,84.39l-1.14-1.14,1.9-.57Zm1.7-13.27-.38-1.51H592Zm2.66,12.7L592,84l1.14-1.71,1.14.38Zm2.07-20.1-1.14.76v-.76l1.33-1.14Zm27.49-5.9-.76.95-.38-2.09h1.14Zm22.38,9.08H646v.57h-.76Zm.57,2.85.76.95.76-1.33V67.85l.57.19-.19,1.33.38.95v1.33L646.4,72l-1.9-3Zm-2.64,13.46-.76-3.79h1.14l1,4.55Zm-.58-18.39,1.33-.38L643.17,66l-1.33-.19Zm-2.85-9.48,1.33.57v1.52l-1.52-.57Zm-2.46,5.88.57.76v1.33l-.95-.76Zm.58,21.43-.38,1.14h-1.14l-.57-1.13Zm-3.05-24.08.95,1.33-.57.57-1.33-.57-.57-1.51Zm1.37,57.26,1.33.38-.76.57Zm.38,5.88h-1.14v-.57Zm.36-24.84-1.14-.38,1.71-.95Zm-.94,8,.57.57v3l-1.33.76h-1.52l.95-2.65L634.1,105Zm-2.28-1.52,1.14-1.52.19,1.14Zm-.19-2.46-1.14.95-.95-.57-.19-1.14,1.71-.38,1.52-.38.38,1.52Zm-.76-4.93-.76-.76h1.71Zm.17-22.75L632.75,72l1.33-.38Zm0-4.55-1.33-.38.38-1.71,1.14.57ZM630.65,65l.57-1.33,1.52-.38-.38,2.09ZM632,60.28l1,1.33L631.6,62Zm-2.09-3.6,1.33,2.84-1.14-.75-1.33-2.09Zm-2.46,10.81h.76v.76h-.76Zm.41,36.78h.57l-.19,1.14h-.76Zm-2.45,20.67-1.52-.75,1.52-.38Zm0-6.26.57-.95.76.95Zm1.32-4.17V113l-1.71.38.57-.95.76-1.14,3.23,2.46-1.14.95Zm2.85,7.2,2.09-.19-.95,4.55-.76.95v-4.17Zm1.14,6.83-.38-1.14,1.33.19.38,1.14Zm2.08-10.24-.19,1.33-1.33.76-.38-.76,1.52-1.71-.76-.76-.38,1.52-1.33-1.52,1.33-.57-.95-.38.38-1.14,2.47,2.08,2.65,1.14-1.71.76Zm3.42,8.34h-.76v-.57h.76Zm.38,1.9,1.14.19.19,1.14Zm.16-38.3-.95-.95-.57-1.71V85.68l-1.14-.38,1.52-.19.76,1,1.14,2.84.76.95Zm1.89-13.65.38-1.52,2.08-1.52.76-1.14,1.52.19.95,1.33-1.14.38L642,73.92l-1.52,2.46Zm2.46,1.13L642.42,79h-1.33Zm.76,6.64.57,1.33h-.95Zm47.23,11.34,1.89-.57-.57,1.33-1,.76-1.33-.38Zm2.47,14.41h-.95l.38-1.33ZM687,111.62h-.57v-1.14ZM686.8,86.4l.57,1.33L685,87.25l-.08-.09-.25-.15,1-1.36Zm-3.59,20.1.95-.57-.19,1.52Zm1.72,14.6H684V120h.95Zm1.71,9.48h-.57v-1.14l.95.38Zm1.13-10.81-1.71.19.38-1.33,1.7-.38Zm1.69-19-.19,1.14-1.14.19Zm-.75,13.65,1.14.57h-1.14Zm1.14,5.12.94-1.14,1.52.19-.95,1.14Zm2.47,4.93-1.14-.57V122.8l1.33.57Zm23.17,47-2.65,3.6-3,5.69-2.09,1.71-1.33,2.28-8.15,3.42-5.12.38-3.41-2.08-1.52-.38-.76-2.85-.38-6.63,1.33-.95,1.89-2.85L701.84,167l1.71.57L706,166.4l5.5-1.33h3.23l1.14,1.14-.76,4ZM759.22,66.82l.94.19-.38.76h-.57Zm.19,6.64-.95,1.33-.38-1.14Zm-2.46,2.66,1.33.57,1,1.33-1.14.19-1.14-.57-.76,1-1.33-.38,1.33-.76Zm-4.74-6.25,1.33-.57,1.71.19v2.46l-3.41-.57Zm-2.44,36.41-1.9-.38.38-1.33,1,.57Zm-.75,9.48h-2.09l.57-1.71.38-2.84L749,112l-.38,1.33Zm-2.28-6.25-.19-1.52,1.14.57.57,1.33Zm.37-12.33-1.33-.75,1.13-.57,1.33.38.76.95Zm1.9,3.6-1.71.95.38-1.71Zm-2.46,2.66-.76.95-.57-.95Zm1.13-11.19L749,93.75l-1.33.38Zm-.39-9.1-.76,1.52-1.33-.38.76-1.14Zm-2.1-13.27v1.52l-1.33-.76Zm-1.3,30.91,1.33-.38-.75,1.71-1.33-.38Zm.2,14.22.76.76-1.13,1.33.95,1,.57,1.51-1.71-.57-.38-1.9h-2.47l.38-1.71,1.7.19Zm.39,12.13-.76.57v-1.14ZM742.38,119l-1.33.95.19-1.33ZM741,109.5l.94.57-1.7.38Zm-4.92,23.33-1.89.19-2.65.95.19-1.71,1.14-1.14,1.14.76v-1.71h1.71l1.33.95Zm.57,8.91-1.33-.38.76-.76Zm-3-15.17.94,1.14-.76.57h-1.71l.38-1.14ZM732.9,122l.38-1.33,1.33.38-.38.95Zm-.57,2.47H731.2v-1.33l1.71.57Zm-.38,3.79V129h-.76v-.76Zm4.73-13.65,2.09-.19-.95,1.33,1.33,1.14L738,119.74l-.94.95h-1.33l1.52-3,.38-1.52ZM738.2,112l1.33-1.52.76,1.52Zm-.41-48.73.38-.38L737.79,64Zm-4.93-4.55.76,1.13-1.14-.38Zm-4.17,4.55h.76l-1.14.76Zm-4.18-8,.38,2.09L723.75,57l-.38-1.14Zm.58,6.63v.95l-.95.76V61.92Zm-5.69-.76h1.52l-1.14,1.14-1.52-.76Zm-6.45-8.72.76.95h-.76Zm.76,10.81-.94.19-.57-1ZM710.1,57h-.76l-.19-.38ZM696.83,62.5l1,.38-1.33.76Zm-3,4.17,1.33-.57-.38,1.71-1.52.38Zm1,28.44-1.52,1.14-.19-1.51Zm-1.68,33.94.19-1.33,1.52.95Zm1.32-10.81v-.76l1.14.76Zm2.85,0-.76-.76,1.33-1.33.38,1.71ZM698,74.07l-1.14-.57,1.71-.38Zm4.41,63.14-1.33.19.38-.95,1.33-.38Zm8.52-13.09-.38-1,1.33-.38ZM724.37,116l-2.27,1.9h-1.71l-3.22,1.71-1.52-.19-3,.57L710,119l-1.52.19-1.33-1.13-1.9-.57-2.28-3.41-2.27-1.7.19-1.71-.76-1.14.38-1.52-.76-1.7.38-3-.38-1.14.57-1.33.57-3,.19-3.6,4-9.11,1.9-2.66,1.14-3,1.33-.95L716,71.59l1.7-.38,4.36-1.71,5.87-1.14,1.52.38,1.33-.19,1.9,2.08L735.33,72l.38,1.33,2.09,1.52,1.14,2.65.57,4.36v5.88l.38,3.22-1.7,4.36.38,1.52-2.84,5.69-1.7,2.46-1.13,1-.19,1.71-3,3.41-.57,1.33-2.47.95-.76,2.08Zm5.13,8.15-1.52.76v-1.33Zm-1.52-8v-.76l.76,1.14Zm.39,13.65v.95h-.95v-.95Zm-2.08-1.33-.38-1.14,1.33.19.38,1.14Zm1.33,6.82h-1l-.38-1.33Zm.38,4.55,1,.76.19,1.33-1.52-.76Zm.75-12.14.95-.38.38.95Zm1.34,17.82.76.95-.38,1.14-.95-.76Zm.38-3.6.38-1.33L732,141Zm-4.92,8.16.57-1.33-.57-2.85,1.51-.38.57,1.14-.76,2.84Zm2.09,5.87,1.52,1.14.57,1.71-2.08.38-.38-1.52Zm1.71,11-1.33.19-.38-1.33,1.14-.38.95.38Zm-.19-4v-1.71l2.09,1.71Zm3-19.53v1.33l-.95-.57Zm-.56,5.88.76-1.52.57-1.52.95.95.19,1.71Zm1.13-9.29-1.14-.75-.38-1.52,1.52.38,1.14-.38.76-.95,1.14,3-1.51.38Zm1.91,21.61.38-.95,1.14.19Zm.75-7-.19-.95,1.33-.38Zm0-11.19h1.14l.38,1.14.95.57-.95.38Zm3.24,14-.95-.57.19-1.33.76.57Zm-1.15-20.1h1l.38,1.14Zm.75-7.77.38-1.33,1.33-.19-.19,1.52-1,1Zm2.86,21.8-1.14-1.33h1.33Zm1.7-10.81-1.13,1.14h-1.33l-.76,1,.19-1.52,1.33-1.33-.76-.95v-1.71l.76-1.14.94-.38.76,1.14-.95,2.84Zm-2.09-8.91-1.52-.57,1.9-1.52.57-1.33-1-1.71-1.89.19-1.33-.76-.76-1.51,1.14-.57,3-3.22H742l1.14.95-.76,1.33-1.33.76-.38,1.52,1-1.14,1.14.75,1,5.69Zm3,14.22-.57-1.52,2.08,1.14Zm1.51-7.4.76.19.57,1.14Zm2.84-3.6-.94.95-1.33.57v-1.33l.57-1.52.95-1.14,1.33-.57Zm2.27-4.17-1.71-.95,1.71-.38Zm.76-5.12-.38-.76-2.47.38-.57-1.51-1.33.19-.19-3.22L749,122l1.71-.38.38,1.14Zm-1-6.63-1.51.57-.76-1.71,1.33-.57,1.13-.76.76,1.14Zm.95-4.55h-.76v-.76h.76ZM750,111l-1.33-.95.76-.95,1.14-.57,1.33.19-.57,1.71Zm1.92,23.7v-.76l.94.76Zm-.42-47.4-.38-1.71,1.7,1.51Zm1.32-9.1,1.52.38-.95.76Zm1.53,9.86.38-1.14.57-.95.57,1.33Zm1.34,21-.76-1.14h1.52Z"/></g></g></svg>