<svg xmlns="http://www.w3.org/2000/svg" width="410.906" height="32.656" viewBox="0 0 410.906 32.656">
  <metadata><?xpacket begin="﻿" id="W5M0MpCehiHzreSzNTczkc9d"?>
<x:xmpmeta xmlns:x="adobe:ns:meta/" x:xmptk="Adobe XMP Core 5.6-c138 79.159824, 2016/09/14-01:09:01        ">
   <rdf:RDF xmlns:rdf="http://www.w3.org/1999/02/22-rdf-syntax-ns#">
      <rdf:Description rdf:about=""/>
   </rdf:RDF>
</x:xmpmeta>
                                                                                                    
                                                                                                    
                                                                                                    
                                                                                                    
                                                                                                    
                                                                                                    
                                                                                                    
                                                                                                    
                                                                                                    
                                                                                                    
                                                                                                    
                                                                                                    
                                                                                                    
                                                                                                    
                                                                                                    
                                                                                                    
                                                                                                    
                                                                                                    
                                                                                                    
                                                                                                    
                           
<?xpacket end="w"?></metadata>
<defs>
    <style>
      .cls-1 {
        fill: #1c264a;
        fill-rule: evenodd;
      }
    </style>
  </defs>
  <path id="お電話でのご注文_ご相談" data-name="お電話でのご注文・ご相談" class="cls-1" d="M17.366,11.574l1.224-.238c0.918-.17,2.141-0.374,2.685-0.476,1.02-.2,1.292-0.272,3.025-0.748L23.892,6.917a43.764,43.764,0,0,1-4.555,1.054l-1.971.34c0-.476-0.034-1.292-0.034-1.631V5.761c0-.544.034-1.19,0.034-1.7a0.819,0.819,0,0,0,.476-0.612,0.559,0.559,0,0,0-.612-0.408l-3.467-.136c0.1,1.122.2,3.365,0.2,4.928V8.481c-1.054.068-1.6,0.1-2.175,0.1-1.02,0-2.651-.068-4.181-0.17v3.365c0.884,0.034,1.53.034,1.971,0.034,0.714,0,3.127-.034,4.453-0.068,0.034,1.054.068,2.821,0.136,5.336A16.641,16.641,0,0,0,10.5,19.017a8.9,8.9,0,0,0-4.079,7.172c0,3.433,2.209,5.438,5.914,5.438,2.481,0,3.841-.714,4.589-2.379,0.544-1.156.612-2.413,0.612-8.769V19.221a13.593,13.593,0,0,1,4.826-.816c4.215,0,6.7,1.835,6.7,4.928,0,2.991-2.107,4.385-7.41,4.86a12.76,12.76,0,0,1,1.292,3.5,24.962,24.962,0,0,0,3.671-.816C30.588,29.622,32.7,27.073,32.7,23.4c0-4.86-3.841-7.953-9.789-7.953a23.929,23.929,0,0,0-5.438.714ZM14.171,22.212c-0.034,2.107,0,3.569-.034,3.909-0.1,1.666-.646,2.345-1.869,2.345-1.428,0-2.243-.918-2.243-2.515,0-2.277,1.326-4.045,4.181-5.574Zm12.576-13.9a30.033,30.033,0,0,1,6.7,6.356l2.617-2.379A27.588,27.588,0,0,0,28.888,5.9ZM55.514,27.548v1.258c0,1.937.51,2.889,1.666,3.263,0.918,0.272,1.7.306,5.982,0.306,9.721,0,9.891-.1,10.163-6.288a12.832,12.832,0,0,1-3.229-.986c-0.034,2.821-.1,3.127-0.442,3.5-0.476.51-1.971,0.748-4.589,0.748a37.757,37.757,0,0,1-5.676-.2c-0.442-.17-0.544-0.34-0.544-1.258v-0.34h6.39v0.816h3.3c-0.068-.782-0.1-1.937-0.1-3.535V20.207c0-1.088.034-2.413,0.1-3.025-1.19.034-2.243,0.068-3.739,0.068H49.6c-1.5,0-2.549-.034-3.739-0.068,0.068,0.612.1,1.937,0.1,3.025v6.322c0,1.7-.034,2.821-0.1,3.637h3.3V27.548h6.356Zm0-6.356H49.158V19.969h6.356v1.224Zm3.331,0V19.969h6.39v1.224h-6.39Zm-3.331,2.413v1.224H49.158V23.606h6.356Zm3.331,0h6.39v1.224h-6.39V23.606ZM58.777,5.592h5.778c1.564,0,3.977.034,5.438,0.1V2.7c-1.462.068-3.875,0.1-5.438,0.1H49.872c-1.767,0-3.977-.034-5.4-0.1V5.693c1.428-.068,3.637-0.1,5.4-0.1h5.71V6.679H48.988c-2.311,0-5-.068-6.73-0.136,0.034,1.224.068,1.835,0.068,2.583V9.772c0,0.85-.034,1.869-0.1,2.957h3.3v-3.5H55.582v2.345c0,2.311-.034,3.739-0.068,4.962h3.365c-0.068-1.054-.1-2.821-0.1-4.962V9.228H68.837v3.5h3.3c-0.068-1.088-.1-2.107-0.1-2.957V9.126c0-.748.034-1.36,0.068-2.583-1.734.068-4.419,0.136-6.73,0.136H58.777V5.592Zm-4.385,8.259c-0.476,0-1.292.034-2.039,0.034H47.22c-0.34,0-1.19.034-2.005-.034v2.243c0.646-.034,1.631-0.034,2.005-0.034h5.132c0.442,0,1.5.068,2.039,0.034V13.851Zm14.819,0c-0.612.034-1.666,0.034-2.039,0.034H62.04c-0.544,0-1.563-.034-2.039-0.034v2.243c0.714-.034,1.6-0.034,2.039-0.034h5.132c0.408,0,1.563.034,2.039,0.034V13.851Zm-14.819-3.4c-0.51.034-1.394,0.034-2.039,0.034H48.818c-0.646,0-1.529,0-2.039-.034v2.277c0.51-.034,1.393-0.068,2.039-0.068h3.535c0.646,0,1.529.034,2.039,0.068V10.452Zm13.188,0c-0.51.034-1.394,0.034-2.039,0.034h-3.5c-0.646,0-1.529,0-2.039-.034v2.277c0.51-.034,1.394-0.068,2.039-0.068h3.5c0.646,0,1.529.034,2.039,0.068V10.452ZM102.4,19.7V14.8h3.908c1.122,0,3.025.034,4.079,0.068V11.608c-1.02.034-2.753,0.068-4.079,0.068H102.4v-5.2a44.192,44.192,0,0,0,4.894-1.8c0.782-.034.986-0.1,0.986-0.408a0.686,0.686,0,0,0-.306-0.408L105.8,1.785c-3.262,1.665-7,2.617-13.8,3.569a8.571,8.571,0,0,1,.952,2.957C95.531,7.937,97.5,7.6,99.134,7.257v4.419H95.293c-1.292,0-3.025-.034-4.045-0.068v3.263c1.02-.034,2.923-0.068,4.045-0.068h3.841V19.7h-3.3c-1.156,0-1.971,0-2.889-.034,0.068,1.054.1,3.365,0.1,5.4v1.7c0,2.651-.034,4.622-0.1,5.982h3.263v-1.6h9.177v1.326h3.263c-0.068-1.292-.1-3.263-0.1-5.982V25.067c0-4.079.034-4.317,0.1-5.4-0.918.034-1.734,0.034-2.89,0.034H102.4Zm2.991,8.4H96.211v-5.3h9.177v5.3ZM83.023,31.321H86.9v1.088h3.2c-0.068-.782-0.1-1.937-0.1-3.535V24.659c0-1.054.034-2.379,0.1-2.991-0.748.034-1.462,0.068-2.447,0.068h-5.37c-0.986,0-1.7-.034-2.481-0.068,0.068,0.612.1,1.937,0.1,2.991v4.419c0,1.665-.034,2.821-0.1,3.6h3.229v-1.36ZM86.9,28.6H83.023V24.421H86.9V28.6ZM91.044,7.6c-0.748.034-1.971,0.068-2.719,0.068H81.493c-0.748,0-1.971-.034-2.719-0.068v3.229c0.714-.034,1.8-0.068,2.719-0.068h6.832c0.918,0,2.005.034,2.719,0.068V7.6Zm-1.462,9.347c-0.51.034-1.394,0.034-2.039,0.034H82.275c-0.646,0-1.529,0-2.039-.034V20.1c0.51-.034,1.394-0.034,2.039-0.034h5.268c0.646,0,1.529,0,2.039.034V16.944Zm0-4.69c-0.51.034-1.394,0.034-2.039,0.034H82.275c-0.646,0-1.529,0-2.039-.034v3.161c0.51-.034,1.394-0.034,2.039-0.034h5.268c0.646,0,1.529,0,2.039.034V12.253Zm0-6.118V2.974c-0.51.034-1.394,0.068-2.039,0.068H82.275c-0.646,0-1.529-.034-2.039-0.068V6.135L82.275,6.1h5.268Zm50.01,6.56a19.78,19.78,0,0,1,4.112,3.535l1.666-1.869a21.769,21.769,0,0,0-4.283-3.4Zm-2.652,2.957a19.558,19.558,0,0,1,4.079,3.5l1.7-1.869a21.8,21.8,0,0,0-4.283-3.4Zm-20.359-4.724c1.5-.374,5.234-0.884,17.64-2.345-5.812,3.637-8.293,7.274-8.293,12.134a9.567,9.567,0,0,0,4.113,8.259c2.345,1.666,4.962,2.481,10.094,3.093a10.927,10.927,0,0,1,1.19-3.7,35.523,35.523,0,0,1-6.288-1.156c-3.705-1.224-5.336-3.229-5.336-6.7a8.5,8.5,0,0,1,.985-4.215,15.209,15.209,0,0,1,5.269-5.54c2.651-1.8,4.622-2.889,5.472-2.991,0.986-.136,1.054-0.136,1.054-0.476a0.732,0.732,0,0,0-.238-0.51L140.51,4.538c-1.121.578-2.209,0.816-5.268,1.122-5.642.544-14.853,1.088-18.728,1.088H116.14ZM167.1,8.786a12.743,12.743,0,0,1,4.181.646c4.044,1.326,6.254,4.283,6.254,8.4a8.132,8.132,0,0,1-3.739,7.138,20.47,20.47,0,0,1-6.016,2.447,11.506,11.506,0,0,1,1.665,3.365c3.943-1.36,5.235-1.937,7.138-3.365A10.816,10.816,0,0,0,181.206,18a11.043,11.043,0,0,0-4.52-9.449A16.435,16.435,0,0,0,167.2,5.761a15.471,15.471,0,0,0-11.114,4.453,14.19,14.19,0,0,0-4.283,10.095c0,4.962,2.413,8.4,5.914,8.4,2.651,0,4.724-2.005,6.764-6.458a70.325,70.325,0,0,0,3.773-12.2,0.46,0.46,0,0,0,.373-0.374c0-.17-0.067-0.238-0.373-0.374Zm-2.345.17a12.059,12.059,0,0,1-.408,2.651,58.432,58.432,0,0,1-2.719,8.4c-1.564,3.5-2.855,5.234-3.977,5.234-1.36,0-2.447-2.141-2.447-4.894C155.205,15.04,159.691,9.7,164.756,8.956Zm46.576-6.628a19.962,19.962,0,0,1,4.113,3.535l1.7-1.869A21.883,21.883,0,0,0,212.827.6ZM191.788,9.5c4.147,0.17,6.05.238,8.4,0.238,3.194,0,5.064-.068,8.4-0.272l-0.238-3.637a64.837,64.837,0,0,1-7.784.408c-2.719,0-3.365-.034-8.633-0.238ZM190.8,19.153c-1.53,2.005-1.972,3.127-1.972,4.928a5.833,5.833,0,0,0,2.413,4.826c2.176,1.462,5.643,2.107,11.115,2.107a57.134,57.134,0,0,0,9.347-.646c-0.034-.578-0.034-0.816-0.034-1.224,0-.85.034-1.8,0.1-2.923a37.746,37.746,0,0,1-9.449,1.088c-3.671,0-6.492-.408-8.09-1.156a2.805,2.805,0,0,1-1.7-2.617,3.919,3.919,0,0,1,.986-2.651ZM208.681,5.286a19.741,19.741,0,0,1,4.112,3.5l1.7-1.835a21.912,21.912,0,0,0-4.317-3.4Zm31.724,24.268h-6.322c-1.53,0-3.467-.034-4.759-0.1v3.3c1.394-.068,3.3-0.1,4.759-0.1h14.785c1.292,0,3.467.068,4.724,0.1v-3.3c-1.155.068-3.365,0.1-4.724,0.1h-5.132V21.226h4.588c1.122,0,3.025.034,4.079,0.068V18c-1.02.068-2.753,0.1-4.079,0.1h-4.588V11.2h5.336c1.122,0,3.025.034,4.079,0.1V8c-1.02.034-2.788,0.068-4.079,0.068H241.73l2.481-1.7a21.469,21.469,0,0,0-4.588-4.928l-2.345,1.9a24.9,24.9,0,0,1,3.84,4.724h-5.574c-1.291,0-3.059-.034-4.044-0.068v3.3c1.019-.068,2.923-0.1,4.044-0.1h4.861v6.9h-3.569c-1.326,0-3.059-.034-4.079-0.1v3.3c1.054-.034,2.957-0.068,4.079-0.068h3.569v8.327ZM224.566,4.266a24.158,24.158,0,0,1,3.7,4.419l2.753-2.073a27.38,27.38,0,0,0-4.079-4.283Zm-2.515,7.749a28.145,28.145,0,0,1,3.874,4.487l2.686-2.141a29.086,29.086,0,0,0-4.283-4.419Zm5.676,5.336a73,73,0,0,1-5.778,13.256l2.413,2.005a0.829,0.829,0,0,0,.51.306,0.4,0.4,0,0,0,.272-0.476V32.2l0.441-.952c0.748-1.631.986-1.9,1.394-2.821,1.19-2.719,2.243-5.438,3.535-9.177Zm55.992-6.9c2.073,0,4.962.068,6.764,0.136v-3.4c-1.734.1-4.623,0.136-6.764,0.136h-6.73V3.178a1.036,1.036,0,0,0,.68-0.68c0-.2-0.238-0.306-0.646-0.34l-3.5-.238c0,0.544.034,1.631,0.034,2.175V7.325h-6.832c-1.937,0-5.03-.068-6.763-0.136v3.4c1.835-.068,4.894-0.136,6.763-0.136h0.068a47.585,47.585,0,0,0,1.6,5.268,25.593,25.593,0,0,0,4.69,7.716,3.6,3.6,0,0,1-.408.34c-3.331,2.651-7,4.079-13.731,5.37a13.757,13.757,0,0,1,1.427,3.4,52.309,52.309,0,0,0,7.818-2.311,23.449,23.449,0,0,0,7.341-4.453c2.991,2.413,6.764,4.147,13.664,6.39a19.547,19.547,0,0,1,1.971-3.161c-6.118-1.9-8.225-2.719-11.046-4.249a19.027,19.027,0,0,1-2.209-1.461,22.891,22.891,0,0,0,2.413-3.671,31,31,0,0,0,3.127-9.177h0.272Zm-3.637,0a32.987,32.987,0,0,1-.986,3.467,21.393,21.393,0,0,1-3.637,7.1,21.712,21.712,0,0,1-2.413-3.3,28.2,28.2,0,0,1-2.957-7.274h9.993Zm21.122,5.13a3.091,3.091,0,1,0,3.091,3.091A3.082,3.082,0,0,0,301.2,15.582ZM336.962,2.329a19.936,19.936,0,0,1,4.113,3.535l1.7-1.869A21.908,21.908,0,0,0,338.458.6ZM317.419,9.5c4.146,0.17,6.05.238,8.4,0.238,3.195,0,5.064-.068,8.395-0.272l-0.238-3.637a64.821,64.821,0,0,1-7.783.408c-2.719,0-3.365-.034-8.633-0.238Zm-0.986,9.653c-1.53,2.005-1.971,3.127-1.971,4.928a5.83,5.83,0,0,0,2.413,4.826c2.175,1.462,5.642,2.107,11.114,2.107a57.134,57.134,0,0,0,9.347-.646c-0.034-.578-0.034-0.816-0.034-1.224,0-.85.034-1.8,0.1-2.923a37.746,37.746,0,0,1-9.449,1.088c-3.671,0-6.492-.408-8.089-1.156a2.8,2.8,0,0,1-1.7-2.617,3.919,3.919,0,0,1,.986-2.651ZM334.311,5.286a19.745,19.745,0,0,1,4.113,3.5l1.7-1.835a21.908,21.908,0,0,0-4.316-3.4Zm21.459,6.56h1.9c0.917,0,2,.034,2.719.068V8.685c-0.748.034-1.971,0.068-2.719,0.068h-1.9c0.034-4.555.034-4.724,0.068-5.71A1,1,0,0,0,356.45,2.4c0-.2-0.2-0.306-0.51-0.34l-3.569-.272c0.1,0.85.17,3.195,0.2,6.968h-2.209c-0.748,0-1.971-.034-2.719-0.068v3.229c0.714-.034,1.8-0.068,2.719-0.068h1.7a34.752,34.752,0,0,1-5,12.338,16.466,16.466,0,0,1,1.972,3.331,31,31,0,0,0,2.889-5.574c0.272-.612.441-1.122,0.645-1.666V23.3c0,4.384-.068,7.715-0.17,9.925h3.535c-0.1-2.175-.17-5.472-0.17-9.925V19.187a24.49,24.49,0,0,1,2.516,2.821l1.937-3.025a28.51,28.51,0,0,0-4.453-3.637v-3.5Zm9.517,18.762h9.041v1.6h3.365c-0.068-1.258-.1-3.263-0.1-5.948V9.16c0-3.3,0-4.249.1-5.4a18.462,18.462,0,0,1-2,.068H363.962a17.856,17.856,0,0,1-2.006-.068c0.034,1.088.1,3.365,0.1,5.4v17.47c0,2.651-.034,4.622-0.1,5.982h3.331V30.607Zm0-19V6.951h9.041v4.657h-9.041Zm0,3.127h9.041v4.894h-9.041V14.735Zm0,8.021h9.041V27.48h-9.041V22.756Zm50.418-1.5c0.476,0,.646-0.1.646-0.476a0.376,0.376,0,0,0-.17-0.34L413.7,18.371a41.494,41.494,0,0,1-4.963,3.875,13.577,13.577,0,0,1-.51-1.36c0.1-1.02.238-2.447,0.408-4.656a0.72,0.72,0,0,0,.68-0.51,0.677,0.677,0,0,0-.68-0.442l-3.161-.374c-0.238,4.623-.306,5.472-0.679,7.206a9.576,9.576,0,0,1-3.569,5.812c-1.292,1.054-2.074,1.427-4.895,2.413a10.555,10.555,0,0,1,1.428,2.923,15.756,15.756,0,0,0,4.792-2.277,11.616,11.616,0,0,0,4.555-5.744,17.14,17.14,0,0,0,7.919,7.817A12.39,12.39,0,0,1,417,30.336a16.281,16.281,0,0,1-5.948-4.283c-0.374-.442-0.714-0.884-1.054-1.36a56.048,56.048,0,0,0,5.438-3.433h0.272ZM415.671,7.393c0.476,0,.612-0.1.612-0.476a0.406,0.406,0,0,0-.17-0.306L413.632,4.5a41.794,41.794,0,0,1-5.1,3.977c-0.17-.306-0.306-0.612-0.441-0.918,0.1-.986.2-2.277,0.305-4.113,0.646-.272.782-0.374,0.782-0.612,0-.272-0.2-0.374-0.68-0.442l-3.4-.476c-0.034,3.943-.1,4.962-0.408,6.356a8.284,8.284,0,0,1-3.4,5.642c-1.156.816-2.278,1.258-5.1,1.971a13.583,13.583,0,0,1,1.326,2.821c3.161-.85,4.453-1.36,5.846-2.311a9.375,9.375,0,0,0,3.773-4.758,13.547,13.547,0,0,0,2.277,2.855A16.358,16.358,0,0,0,415.5,18.3a16.685,16.685,0,0,1,1.8-2.753c-3.161-1.292-4.555-2.107-6.152-3.637a11.118,11.118,0,0,1-1.088-1.122c1.665-.952,2.345-1.394,5.3-3.4h0.306ZM389.262,30.132h3.772v1.36h3.195c-0.068-.782-0.1-1.937-0.1-3.535v-3.3c0-1.054.068-2.379,0.1-2.991-0.747.034-1.461,0.068-2.447,0.068h-5.268c-0.986,0-1.7-.034-2.481-0.068,0.068,0.612.1,1.937,0.1,2.991v4.419c0,1.665-.034,2.821-0.1,3.6h3.229V30.132Zm3.772-2.719h-3.772V24.421h3.772v2.991Zm6.934-8.939a11.321,11.321,0,0,1-2.821,6.492,7.037,7.037,0,0,1,2.515,2.073c1.836-2.277,2.21-3.093,3.161-6.73,0.408-.136.51-0.238,0.51-0.442a0.39,0.39,0,0,0-.34-0.374ZM397.181,7.6c-0.748.034-1.971,0.068-2.685,0.068h-6.764c-0.748,0-1.971-.034-2.719-0.068v3.229c0.714-.034,1.8-0.068,2.719-0.068H394.5c0.918,0,1.971.034,2.685,0.068V7.6Zm-1.461,9.347c-0.51.034-1.36,0.034-2.04,0.034h-5.166c-0.646,0-1.53,0-2.039-.034V20.1c0.509-.034,1.393-0.034,2.039-0.034h5.166c0.68,0,1.53,0,2.04.034V16.944Zm0-4.69c-0.51.034-1.36,0.034-2.04,0.034h-5.166c-0.646,0-1.53,0-2.039-.034v3.161c0.509-.034,1.393-0.034,2.039-0.034h5.166c0.68,0,1.53,0,2.04.034V12.253Zm0-6.118V2.974c-0.51.034-1.36,0.068-2.04,0.068h-5.166c-0.646,0-1.53-.034-2.039-0.068V6.135l2.039-.034h5.166Zm4.622-1.529a11.792,11.792,0,0,1-2.821,6.492,7.355,7.355,0,0,1,2.515,2.073c1.836-2.277,2.209-3.093,3.161-6.73,0.408-.136.51-0.238,0.51-0.442a0.39,0.39,0,0,0-.34-0.374Z" transform="translate(-6.406 -0.594)"/>
</svg>
