<svg xmlns="http://www.w3.org/2000/svg" width="428.844" height="32.656" viewBox="0 0 428.844 32.656">
  <metadata><?xpacket begin="﻿" id="W5M0MpCehiHzreSzNTczkc9d"?>
<x:xmpmeta xmlns:x="adobe:ns:meta/" x:xmptk="Adobe XMP Core 5.6-c138 79.159824, 2016/09/14-01:09:01        ">
   <rdf:RDF xmlns:rdf="http://www.w3.org/1999/02/22-rdf-syntax-ns#">
      <rdf:Description rdf:about=""/>
   </rdf:RDF>
</x:xmpmeta>
                                                                                                    
                                                                                                    
                                                                                                    
                                                                                                    
                                                                                                    
                                                                                                    
                                                                                                    
                                                                                                    
                                                                                                    
                                                                                                    
                                                                                                    
                                                                                                    
                                                                                                    
                                                                                                    
                                                                                                    
                                                                                                    
                                                                                                    
                                                                                                    
                                                                                                    
                                                                                                    
                           
<?xpacket end="w"?></metadata>
<defs>
    <style>
      .cls-1 {
        fill: #1c264a;
        fill-rule: evenodd;
      }
    </style>
  </defs>
  <path id="WEBからのご注文_ご相談" data-name="WEBからのご注文・ご相談" class="cls-1" d="M29.552,30.152l-6.1-22.44H23.381L17.21,30.152h-3.7L6.663,3.448h3.628l5.236,22.216H15.6L21.586,3.448h3.852l5.909,22.216h0.075L36.845,3.448H40.4l-7.143,26.7h-3.7Zm35.642-26.7V6.44H50.309v8.49H64.184v2.992H50.309V27.16h15v2.992H46.756V3.448H65.194ZM84.006,14.93a7.006,7.006,0,0,0,4.357-1.066,3.856,3.856,0,0,0,1.328-3.2,4.714,4.714,0,0,0-.449-2.244,3.193,3.193,0,0,0-1.234-1.272,4.861,4.861,0,0,0-1.814-.58,17.393,17.393,0,0,0-2.188-.131H76.9v8.49h7.106ZM83.034,3.448q0.86,0,1.851.019t1.963,0.112a15.068,15.068,0,0,1,1.814.281,4.59,4.59,0,0,1,1.44.561A6.966,6.966,0,0,1,92.328,6.59a6.032,6.032,0,0,1,.916,3.4,6.515,6.515,0,0,1-1.028,3.684,6.062,6.062,0,0,1-2.936,2.3v0.075A6.15,6.15,0,0,1,93.057,18.3a6.717,6.717,0,0,1,1.309,4.189,7.971,7.971,0,0,1-.524,2.842,7.128,7.128,0,0,1-1.552,2.45,7.755,7.755,0,0,1-2.543,1.72,8.746,8.746,0,0,1-3.5.655h-12.9V3.448h9.687ZM85.8,27.16a5.107,5.107,0,0,0,3.684-1.272,4.638,4.638,0,0,0,1.328-3.516,4.369,4.369,0,0,0-.486-2.169,3.776,3.776,0,0,0-1.29-1.365,5.415,5.415,0,0,0-1.851-.711,11.258,11.258,0,0,0-2.169-.206H76.9V27.16h8.9ZM110.665,2.689a44.455,44.455,0,0,1-1.427,7.07c-1.938.2-5.065,0.476-7.818,0.68l0.714,3.7c1.122-.17,1.156-0.2,2.141-0.374,1.87-.34,1.938-0.306,4.249-0.646a46.968,46.968,0,0,1-1.972,5.812A45.645,45.645,0,0,1,101.42,29a10.608,10.608,0,0,1,3.025,1.869,55.867,55.867,0,0,0,5.472-11.318c0.85-2.277,1.87-5.336,2.278-6.832a19.38,19.38,0,0,1,3.025-.17c2.277,0,2.719.714,2.719,4.657,0,0.85-.068,1.937-0.17,3.093-0.272,2.923-.68,4.69-1.428,5.948a2.87,2.87,0,0,1-2.753,1.326,15.832,15.832,0,0,1-2.923-.306,17.349,17.349,0,0,1,.306,3.7c0.578,0.068,1.835.136,2.821,0.136,2.549,0,4.385-.85,5.438-2.515,1.462-2.311,2.142-6.39,2.142-12.644,0-3.3-.612-4.758-2.38-5.744a7.5,7.5,0,0,0-3.772-.782c-0.782,0-1.938.034-2.516,0.068,0.646-2.345.782-2.923,1.258-5.132,0.578-.306.68-0.408,0.68-0.646a0.491,0.491,0,0,0-.51-0.442Zm10.027,5.744a27.677,27.677,0,0,1,8.157,9.211l2.957-2.413c-3.161-4.487-5.166-6.56-8.8-9.075Zm19.759-1.7c-0.136,1.665-.238,2.413-0.544,4.453a63.6,63.6,0,0,0-1.02,10.129c0,0.34.068,0.918,0.068,1.5v0.544l3.195,0.068A14.451,14.451,0,0,1,153.1,17.576c3.263,0,5.336,1.7,5.336,4.385,0,4.215-4.554,6.628-12.474,6.628-0.51,0-1.359-.034-2.413-0.068a20.171,20.171,0,0,1,.544,3.773c7.511-.136,10.468-0.646,13.765-2.515a8.589,8.589,0,0,0,4.351-7.919,6.811,6.811,0,0,0-1.394-4.487c-1.461-1.835-4.214-2.923-7.409-2.923a14.818,14.818,0,0,0-7.818,2.243,12.856,12.856,0,0,0-3.263,2.379,54.083,54.083,0,0,1,1.6-10.3,0.815,0.815,0,0,0,.816-0.578,0.55,0.55,0,0,0-.544-0.51Zm3.127-1.869a30.418,30.418,0,0,1,10.129,3.807l1.767-3.229a33.029,33.029,0,0,0-10.571-3.7Zm41.716,3.773a12.731,12.731,0,0,1,4.18.646c4.045,1.326,6.254,4.283,6.254,8.4a8.131,8.131,0,0,1-3.738,7.138,20.47,20.47,0,0,1-6.016,2.447,11.531,11.531,0,0,1,1.665,3.365c3.943-1.36,5.234-1.937,7.138-3.365a10.815,10.815,0,0,0,4.622-9.415,11.043,11.043,0,0,0-4.52-9.449A16.435,16.435,0,0,0,185.4,5.612a15.473,15.473,0,0,0-11.115,4.453A14.193,14.193,0,0,0,170,20.159c0,4.962,2.413,8.4,5.914,8.4,2.651,0,4.724-2.005,6.764-6.458a70.244,70.244,0,0,0,3.772-12.2,0.461,0.461,0,0,0,.374-0.374c0-.17-0.068-0.238-0.374-0.374Zm-2.345.17a12.059,12.059,0,0,1-.408,2.651,58.432,58.432,0,0,1-2.719,8.4c-1.564,3.5-2.855,5.234-3.977,5.234-1.36,0-2.447-2.141-2.447-4.894C173.4,14.891,177.884,9.554,182.949,8.807Zm46.576-6.628a19.931,19.931,0,0,1,4.112,3.535l1.7-1.869a21.912,21.912,0,0,0-4.317-3.4ZM209.981,9.351c4.147,0.17,6.05.238,8.4,0.238,3.195,0,5.065-.068,8.4-0.272L226.534,5.68a64.837,64.837,0,0,1-7.784.408c-2.719,0-3.365-.034-8.633-0.238ZM209,19c-1.529,2.005-1.971,3.127-1.971,4.928a5.833,5.833,0,0,0,2.413,4.826c2.176,1.462,5.642,2.107,11.115,2.107a57.141,57.141,0,0,0,9.347-.646c-0.034-.578-0.034-0.816-0.034-1.224,0-.85.034-1.8,0.1-2.923a37.746,37.746,0,0,1-9.449,1.088c-3.671,0-6.492-.408-8.09-1.156a2.805,2.805,0,0,1-1.7-2.617,3.918,3.918,0,0,1,.986-2.651ZM226.874,5.136a19.741,19.741,0,0,1,4.112,3.5l1.7-1.835a21.912,21.912,0,0,0-4.317-3.4ZM258.6,29.4h-6.322c-1.53,0-3.467-.034-4.759-0.1v3.3c1.394-.068,3.3-0.1,4.759-0.1h14.785c1.291,0,3.467.068,4.724,0.1V29.3c-1.155.068-3.365,0.1-4.724,0.1h-5.133V21.077h4.589c1.122,0,3.025.034,4.079,0.068v-3.3c-1.02.068-2.753,0.1-4.079,0.1h-4.589v-6.9h5.337c1.121,0,3.025.034,4.078,0.1v-3.3c-1.019.034-2.787,0.068-4.078,0.068h-7.342l2.481-1.7A21.469,21.469,0,0,0,257.816,1.3l-2.345,1.9a24.9,24.9,0,0,1,3.84,4.724h-5.574c-1.291,0-3.059-.034-4.045-0.068v3.3c1.02-.068,2.923-0.1,4.045-0.1H258.6v6.9h-3.569c-1.326,0-3.059-.034-4.079-0.1v3.3c1.054-.034,2.957-0.068,4.079-0.068H258.6V29.4ZM242.759,4.116a24.11,24.11,0,0,1,3.7,4.419l2.754-2.073a27.426,27.426,0,0,0-4.079-4.283Zm-2.515,7.749a28.149,28.149,0,0,1,3.874,4.487l2.685-2.141a29.035,29.035,0,0,0-4.282-4.419ZM245.92,17.2a72.993,72.993,0,0,1-5.778,13.256l2.413,2.005a0.829,0.829,0,0,0,.51.306,0.4,0.4,0,0,0,.272-0.476V32.055l0.441-.952c0.748-1.631.986-1.9,1.394-2.821,1.19-2.719,2.243-5.438,3.535-9.177Zm55.992-6.9c2.073,0,4.962.068,6.763,0.136v-3.4c-1.733.1-4.622,0.136-6.763,0.136h-6.73V3.029a1.036,1.036,0,0,0,.68-0.68c0-.2-0.238-0.306-0.646-0.34l-3.5-.238c0,0.544.034,1.631,0.034,2.175V7.175h-6.832c-1.937,0-5.03-.068-6.764-0.136v3.4c1.836-.068,4.895-0.136,6.764-0.136h0.068a47.579,47.579,0,0,0,1.6,5.268,25.591,25.591,0,0,0,4.69,7.716,3.6,3.6,0,0,1-.408.34c-3.331,2.651-7,4.079-13.731,5.37a13.832,13.832,0,0,1,1.427,3.4,52.344,52.344,0,0,0,7.818-2.311,23.449,23.449,0,0,0,7.341-4.453c2.991,2.413,6.764,4.147,13.664,6.39a19.555,19.555,0,0,1,1.971-3.161c-6.118-1.9-8.225-2.719-11.046-4.249A19.027,19.027,0,0,1,296.1,23.15a22.9,22.9,0,0,0,2.413-3.671A31,31,0,0,0,301.64,10.3h0.272Zm-3.637,0a32.987,32.987,0,0,1-.986,3.467,21.411,21.411,0,0,1-3.637,7.1,21.712,21.712,0,0,1-2.413-3.3,28.169,28.169,0,0,1-2.957-7.274h9.993Zm21.122,5.13a3.091,3.091,0,1,0,3.09,3.091A3.082,3.082,0,0,0,319.4,15.433ZM355.155,2.179a19.936,19.936,0,0,1,4.113,3.535l1.7-1.869a21.908,21.908,0,0,0-4.316-3.4ZM335.611,9.351c4.147,0.17,6.051.238,8.4,0.238,3.195,0,5.064-.068,8.395-0.272L352.164,5.68a64.821,64.821,0,0,1-7.783.408c-2.719,0-3.365-.034-8.634-0.238ZM334.626,19c-1.53,2.005-1.972,3.127-1.972,4.928a5.831,5.831,0,0,0,2.414,4.826c2.175,1.462,5.642,2.107,11.114,2.107a57.133,57.133,0,0,0,9.347-.646C355.5,29.642,355.5,29.4,355.5,29c0-.85.034-1.8,0.1-2.923a37.746,37.746,0,0,1-9.449,1.088c-3.671,0-6.492-.408-8.089-1.156a2.8,2.8,0,0,1-1.7-2.617,3.918,3.918,0,0,1,.986-2.651ZM352.5,5.136a19.771,19.771,0,0,1,4.113,3.5l1.7-1.835A21.908,21.908,0,0,0,354,3.4Zm21.459,6.56h1.9c0.917,0,2,.034,2.719.068V8.535c-0.748.034-1.972,0.068-2.719,0.068h-1.9c0.034-4.555.034-4.724,0.068-5.71a1,1,0,0,0,.612-0.646c0-.2-0.2-0.306-0.51-0.34l-3.569-.272c0.1,0.85.17,3.195,0.2,6.968h-2.209c-0.748,0-1.971-.034-2.719-0.068v3.229c0.714-.034,1.8-0.068,2.719-0.068h1.7a34.733,34.733,0,0,1-5,12.338,16.427,16.427,0,0,1,1.971,3.331,30.865,30.865,0,0,0,2.889-5.574c0.272-.612.442-1.122,0.646-1.665V23.15c0,4.385-.068,7.716-0.17,9.925h3.535c-0.1-2.175-.17-5.472-0.17-9.925V19.037a24.387,24.387,0,0,1,2.515,2.821l1.938-3.025a28.5,28.5,0,0,0-4.453-3.637V11.7Zm9.517,18.762h9.041v1.6h3.365c-0.068-1.258-.1-3.263-0.1-5.948V9.011c0-3.3,0-4.249.1-5.4a18.459,18.459,0,0,1-2.005.068H382.155a17.853,17.853,0,0,1-2.006-.068c0.034,1.088.1,3.365,0.1,5.4v17.47c0,2.651-.034,4.622-0.1,5.982h3.331V30.458Zm0-19V6.8h9.041v4.657H383.48Zm0,3.127h9.041v4.894H383.48V14.585Zm0,8.021h9.041v4.724H383.48V22.606Zm50.418-1.5c0.476,0,.646-0.1.646-0.476a0.376,0.376,0,0,0-.17-0.34l-2.481-2.073A41.494,41.494,0,0,1,426.93,22.1a13.585,13.585,0,0,1-.51-1.36c0.1-1.02.238-2.447,0.408-4.656a0.72,0.72,0,0,0,.68-0.51,0.677,0.677,0,0,0-.68-0.442l-3.161-.374c-0.238,4.623-.306,5.472-0.68,7.206a9.57,9.57,0,0,1-3.568,5.812c-1.292,1.054-2.074,1.427-4.895,2.413a10.555,10.555,0,0,1,1.428,2.923,15.756,15.756,0,0,0,4.792-2.277,11.622,11.622,0,0,0,4.555-5.744,17.135,17.135,0,0,0,7.919,7.817,12.392,12.392,0,0,1,1.972-2.719,16.285,16.285,0,0,1-5.949-4.283c-0.373-.442-0.713-0.884-1.053-1.36a56.048,56.048,0,0,0,5.438-3.433H433.9ZM433.864,7.243c0.476,0,.612-0.1.612-0.476a0.406,0.406,0,0,0-.17-0.306l-2.481-2.107a41.8,41.8,0,0,1-5.1,3.977c-0.17-.306-0.306-0.612-0.442-0.918,0.1-.986.2-2.277,0.306-4.113,0.646-.272.782-0.374,0.782-0.612,0-.272-0.2-0.374-0.68-0.442l-3.4-.476c-0.034,3.943-.1,4.962-0.407,6.356a8.284,8.284,0,0,1-3.4,5.642c-1.156.816-2.278,1.258-5.1,1.971a13.581,13.581,0,0,1,1.326,2.821c3.161-.85,4.452-1.36,5.846-2.311a9.375,9.375,0,0,0,3.773-4.758,13.549,13.549,0,0,0,2.277,2.855,16.35,16.35,0,0,0,6.084,3.807,16.76,16.76,0,0,1,1.8-2.753c-3.161-1.292-4.554-2.107-6.152-3.637a11.213,11.213,0,0,1-1.087-1.122c1.665-.952,2.345-1.394,5.3-3.4h0.306ZM407.455,29.982h3.772v1.36h3.2c-0.068-.782-0.1-1.937-0.1-3.535v-3.3c0-1.054.068-2.379,0.1-2.991-0.747.034-1.461,0.068-2.447,0.068h-5.268c-0.986,0-1.7-.034-2.481-0.068,0.068,0.612.1,1.937,0.1,2.991v4.419c0,1.665-.034,2.821-0.1,3.6h3.229V29.982Zm3.772-2.719h-3.772V24.272h3.772v2.991Zm6.934-8.939a11.328,11.328,0,0,1-2.821,6.492,7.046,7.046,0,0,1,2.515,2.073c1.836-2.277,2.209-3.093,3.161-6.73,0.408-.136.51-0.238,0.51-0.442a0.39,0.39,0,0,0-.34-0.374ZM415.374,7.447c-0.748.034-1.971,0.068-2.685,0.068h-6.764c-0.748,0-1.971-.034-2.719-0.068v3.229c0.714-.034,1.8-0.068,2.719-0.068h6.764c0.918,0,1.971.034,2.685,0.068V7.447Zm-1.462,9.347c-0.509.034-1.359,0.034-2.039,0.034h-5.166c-0.646,0-1.53,0-2.04-.034v3.161c0.51-.034,1.394-0.034,2.04-0.034h5.166c0.68,0,1.53,0,2.039.034V16.794Zm0-4.69c-0.509.034-1.359,0.034-2.039,0.034h-5.166c-0.646,0-1.53,0-2.04-.034v3.161c0.51-.034,1.394-0.034,2.04-0.034h5.166c0.68,0,1.53,0,2.039.034V12.1Zm0-6.118V2.825c-0.509.034-1.359,0.068-2.039,0.068h-5.166c-0.646,0-1.53-.034-2.04-0.068V5.986l2.04-.034h5.166Zm4.623-1.529a11.792,11.792,0,0,1-2.821,6.492,7.365,7.365,0,0,1,2.515,2.073c1.835-2.277,2.209-3.093,3.161-6.73,0.408-.136.51-0.238,0.51-0.442a0.39,0.39,0,0,0-.34-0.374Z" transform="translate(-6.656 -0.438)"/>
</svg>
