<svg xmlns="http://www.w3.org/2000/svg" width="232.46" height="42.67" viewBox="0 0 232.46 42.67"><defs><style>.\33 3127e45-f0fa-480e-a967-b9e4c3f1e4ce{fill:#1c264a;}</style></defs><title>アセット 4</title><g id="c2f860d6-a05c-4a78-a2c7-40f1bfec1be1" data-name="レイヤー 2"><g id="4978b013-f713-4fb4-aaa8-fdb3f8802f00" data-name="レイヤー 1"><path class="33127e45-f0fa-480e-a967-b9e4c3f1e4ce" d="M178.82,27.86a15.5,15.5,0,0,0-3.52.46l-.07-3,.79-.15,1.74-.31c.66-.13.84-.18,2-.48l-.26-2.07a28.35,28.35,0,0,1-2.95.68l-1.28.22c0-.31,0-.84,0-1.06v-.59c0-.35,0-.77,0-1.1.22-.15.31-.26.31-.4s-.18-.26-.4-.26l-2.24-.09c.07.73.13,2.18.13,3.19v.42c-.68,0-1,.07-1.41.07-.66,0-1.72,0-2.71-.11v2.18c.57,0,1,0,1.28,0l2.88,0c0,.68,0,1.83.09,3.46a10.78,10.78,0,0,0-2.38,1.25,5.77,5.77,0,0,0-2.64,4.64c0,2.22,1.43,3.52,3.83,3.52,1.61,0,2.49-.46,3-1.54.35-.75.4-1.56.4-5.68V30.3a8.8,8.8,0,0,1,3.13-.53c2.73,0,4.34,1.19,4.34,3.19s-1.36,2.84-4.8,3.15a8.26,8.26,0,0,1,.84,2.27,16.17,16.17,0,0,0,2.38-.53c2.58-.81,3.94-2.47,3.94-4.84C185.16,29.86,182.67,27.86,178.82,27.86Zm-5.66,4.38c0,1.36,0,2.31,0,2.53-.07,1.08-.42,1.52-1.21,1.52s-1.45-.59-1.45-1.63c0-1.47.86-2.62,2.71-3.61Z"/><path class="33127e45-f0fa-480e-a967-b9e4c3f1e4ce" d="M182.7,21.67l-1.39,1.56a19.45,19.45,0,0,1,4.34,4.12l1.69-1.54A17.87,17.87,0,0,0,182.7,21.67Z"/><path class="33127e45-f0fa-480e-a967-b9e4c3f1e4ce" d="M192.44,26.4a.38.38,0,0,0,.29-.18l.18-.22c4.67-.22,9.42-.53,14.39-.95.48.46,1,1,1.72,1.72l1.61-1.52a25.76,25.76,0,0,0-5.81-4.62l-1.21,1.43a17.21,17.21,0,0,1,2,1.41c-2.64.11-5.26.24-7.9.31,1.85-2.16,2.6-3.08,3.08-3.74.44-.07.55-.13.55-.29s-.11-.24-.29-.31l-2.07-.79a30,30,0,0,1-3.72,5.19l-3.59.07.51,2.18C192.17,26.29,192.28,26.4,192.44,26.4Z"/><path class="33127e45-f0fa-480e-a967-b9e4c3f1e4ce" d="M205,29.44c0-2,0-2,0-2.35.31-.18.42-.31.42-.44s-.15-.2-.37-.22l-2.33-.15c.07.55.09,1.5.09,3.17h-3.41c0-2,0-2,0-2.38.31-.2.42-.31.42-.44s-.13-.2-.37-.22l-2.27-.15c0,.55.07,1.61.07,3.19h-1.8c-1.25,0-3.24,0-4.38-.09v2.2c1.19-.07,3.17-.09,4.38-.09h1.78a5.16,5.16,0,0,1-1.65,3.61c-1.08,1-2.33,1.58-5,2.33a8.4,8.4,0,0,1,1.06,2,13.75,13.75,0,0,0,5.17-2.46,7.05,7.05,0,0,0,2.55-5.48h3.43v4c0,1.78,0,3-.07,3.85h2.31c0-.79-.07-2.2-.07-3.85v-4h1.5c1.34,0,3.21,0,4.38.09v-2.2c-1.12,0-3,.09-4.38.09Z"/><path class="33127e45-f0fa-480e-a967-b9e4c3f1e4ce" d="M232.4,30.45c0-1.67,0-2.8.07-3.5-.55,0-1.14,0-1.87,0h-5.33V22.4c0-1.19,0-1.91,0-2.49.31-.2.42-.31.42-.44s-.13-.2-.37-.22L223,19.1c0,.64.07,1.56.07,3.3V27h-4.75c-.9,0-2,0-2.64,0v2.13c.73,0,1.89-.07,2.64-.07h11.89v2.44H219c-.86,0-2,0-2.64,0v2.11c.68,0,1.91,0,2.64,0h11.18v2.71h-12c-.86,0-2,0-2.64,0v2.13c.66,0,1.91-.07,2.64-.07h12v.9h2.24c0-.81-.07-2.11-.07-3.85Z"/><path class="33127e45-f0fa-480e-a967-b9e4c3f1e4ce" d="M231.45,21.58c.42-.09.51-.13.51-.29s-.07-.18-.24-.24l-2.07-.92a24.63,24.63,0,0,1-3,5.66l1.72,1A34.46,34.46,0,0,0,231.45,21.58Z"/><path class="33127e45-f0fa-480e-a967-b9e4c3f1e4ce" d="M221.57,25.41a20.39,20.39,0,0,0-3.65-5l-1.5,1.14a29,29,0,0,1,3.28,5Z"/><polygon class="33127e45-f0fa-480e-a967-b9e4c3f1e4ce" points="19.86 16.36 20.11 16.36 19.91 16.06 19.86 16.36"/><polygon class="33127e45-f0fa-480e-a967-b9e4c3f1e4ce" points="15.71 17.26 15.41 17.26 15.36 17.71 15.61 18.11 15.71 17.26"/><polygon class="33127e45-f0fa-480e-a967-b9e4c3f1e4ce" points="18.36 8.65 18.81 7.85 18.36 7.8 17.91 7.95 18.01 8.35 17.61 8.95 18.06 8.95 18.36 8.65"/><path class="33127e45-f0fa-480e-a967-b9e4c3f1e4ce" d="M38.77,8.3l-.45-.65-.2-.8-.55-.2,0-.4-.6-.9L35.72,4.3,35.52,4l-.45-.1-.45-.6-.85-.1-.45-.55-.65-.35L31.11,1.7l-.3-.2-.45.05-.4-.1L28.91.85l-.6.1L27.06.55,25.41.35l-.4.1-.35-.2L24.16.2l-.65.15L23.16,0l-.4.1L21.51,0,20,.2,18.16.1l-.35.35L17.26.1l-1.5.65L15.36.6H15L13.91,1l-.9.1-.75.2L12,1.5l-.35-.1-.45.1L10.4,2,8.75,2.5l-1.4.8L6.15,4.35l-.55.2L5.45,5h-.4l-.45.75-.4.15-.6.45L2.5,8,2,8.5v.55l-.3.15-.5.5-.2.85-.75,2.1L.3,13.71l-.2.7L0,16.56l.25.7-.1.4.05.4-.1.4,1.75,4.1,0,.5.2.25.65.4.2.4.5.25H3.8l.25-.1,1.1-1.05.65-.3.3-.55h.35l.85-.65,0-.55.4-.1.55-.45-.4-1.85-.55-.4.2-.9-.2-.3-.2-1.65-.25-.8L7.2,14l-.1-.55,1.1-3.15L8.5,10,9.65,8.5l.3-.2.3-.9.45.15L11,7.3l.75-.2.55-.6.4-.25.45-.1.45,0,.35-.35.4-.15h.4l.7.5-.15.85L14.71,8.3l0,.85-.3.25-.15.65v.75l-.2.65.1.35-.45.7-.3.25.1.55-.25.25L13,14.76l-.25.3.1.3-.1.35-.45.55v.45l-.4,2,0,.3-.4.35-.15.85-.9,2.05,0,1-.45.75-.15,1-.6,1.35v1l-.7,1.2L8.3,30l-1,2.6.2.65L7,33.51l.05.5-.15.8-.8,1.9,0,.85.4.2.25.3,1.25.05,1.6-.1.65-.15.65.35L11.8,38l1.65,1,.45.6h.6l.2.3,1.3.85.25.25,1.25.25.65.3.3.25h.9l.55.5.85,0,2.3.45,1,0,.25-.2.65-.25,1,.15,1.45-.25,1.55-.4h.55l.75-.25,1.6-.85,2-1.2.55-.7.5-.2.25-.55,1-.85.2-.65,0-.75.65-.35-.1-.55.35-.2.2-.35.3-1.3.2-.35-.05-.4.1-1.55-.15-.75.35-.75-1-2.8L37,25.51l-.45-.5-.3-.15-.35-.75L35,22.86l-.6-.5-.7-.4-.05-.4-.25-.25-.1-.35,1-.9,1-.6L37,17.91l.1-.65,1-.9.1-.8.65-1,.25-.7,0-.75.15-.55V11l.1-.4-.45-1.4Zm-36,4,.2.3-.3.25Zm.1,4.7-.65.45-.45-.3L2,17l1.1-.25Zm.1-1.1v-.2l.3.1ZM3.4,9.25,3.5,9l.25.45-.15.1Zm.5,1.35H3.6l.15-.25Zm.55,7.9-1,0,.25-.3.5-.15.2.3.35.05Zm-.4-2.05-.1.25h-.2v-.25Zm-.2-1.2v-.2l.3.2Zm.65.65H4.3v-.2h.2Zm.1,1v.2H4.4v-.2Zm0-2.85-.15.3-.35.15,0-.3-.3-.15,0-.4h.3v.4l.6-.35L4.9,14Zm.7,2.4-.3.1.1-.5.3.1Zm-.15-3.1-.4.15.15-.35.5,0ZM5.35,11l-.15-.35.05-.4.35.45ZM5.8,7.55,5.5,7.3,5.7,7l.2.25Zm3-3,.1.3h-.2Zm0,2.7V7l.2.2.1.3ZM9.3,5.65,9.2,5.3l.1-.4.25.25,0,.3Zm1.1-2.6h-.15v-.2h.15Zm.65.1V3h.2l.25.2Zm.75,1.3v-.3l.2.15Zm.8-.2-.35.35-.1-.45.3,0,.2-.2Zm.65-.2L12.81,4l.25-.15h.4Zm1,.4-.15-.3h.35Zm0-1.85.35-.2.3.75-.4-.2Zm1.05,2-.15.25-.35.1-.1-.35.1-.9.55.5Zm-5.1,25.76.1-.2.15.25Zm.75-1.85.15-.5.15.25Zm.55,7.65-.2-.1.25-.1Zm-.1-1.85L11.2,34l.15-.4.25.2Zm0-1.55-.45,0,.3-.25.35-.1Zm.05-3.6.2-.2.15.25ZM35.82,28l.3.1-.15.35-.35.05Zm-.65,2.8v.3l-.25.1-.1-.4Zm.25-23.51.2-.05-.35.15-.2-.4Zm-.55,6.8.3-.1,0,.3-.3,0Zm0,1.1h.35v.4l-.15.25-.3.1.05-.35ZM34.61,11l.1.3-.25.35-.4.15.1-.3.3-.2Zm-.55,4.05h.2v.2h-.2Zm-.3-1.75.15-.3h.35l-.1.4Zm.45,1-.15-.25h.35Zm-.6-10.15.2.15-.2.15Zm.25,3.45.4,0L34,7.9l-.4-.05Zm-.5.65.3.1.1.35-.65-.3ZM32.86,7l.3.05,0,.3h-.35Zm-.1,7.55.3.1.05.35-.45.45h-.4l-.15-.15.4,0Zm-.45,12.76v-.4h.35l.25.35.3.2h.4l0,.5-.5.55-.2-.3-.05-.45-.15-.35Zm.35,4.25-.1.25h-.15l.1-.25Zm.4-5.4-.4.2h-.45l-.35-.2.25-.3.3-.3.15-.4.15.2-.1.35.15.3.45-.2ZM32.21,31v.2H32V31Zm-.9-13.56v-.35l.35.35Zm.15.45-.35.3-.1-.45Zm-.1-1.85.3-.3.45.2-.2.5Zm.35,1.45.6.15-.35.2-.5-.1Zm.75,5.9,0,.3-.25-.2.15-.35Zm0-6.05v-.2h.15v.2Zm.35,1-.2.05v-.15h.2Zm-.65-6.4v-.45l.3.25Zm.3-3.6-.1.4-.4-.2Zm-.75-2h.2v.2h-.2Zm-.45-1.9.25.2-.1.35-.25-.25Zm-1,.55v.35l-.1-.25L30,4.9Zm-4.7-2.25-.1.4-.25.2L25.16,3Zm-.2,1.7V4.8h-.15V4.45ZM24.11,2.7h.35l-.35.35Zm-.65,2,.35-.1-.3-.05.2-.25.3,0-.25.45-.4.1ZM23,6.1l.15-.35.3-.3.75-.4.25-.25.3.15.55.5,1,.05.75.25,2.8,1.55,1.3,1.75.45-.2-.15,1.5.2,1.15.15.3L31.26,13v.4l.1.3-1.2,1.7-.35.25.1.75-.3-.2-.65.2-.15.35-1.45.55-.7.4-.85,0-1.55.3-.6-.25-1.7,0-.75-.1L21,17.56l-.45.1-.15-.45-.9-1.3.45-.1.15-.45-.05-.5.5-.15.25-1.25.3-.75v-.8l.25-.25L22,9.8l.25-.3V9.1l.35-1.6V7l.45-.35Zm6.7,14.11.35.1.1.3-.55.1Zm-.15-.45h-.4l.15-.3.35-.15.35.1-.15.25Zm.7,1.1-.15.25-.3,0ZM29,19.31l-.25.1-.35-.35-.1-.4,0-.45h.3Zm-2.75-.75-.25.1-.1-.3Zm-7.55.25-1.2-.7.65-.15h.45l.45.15.2-.3.7.2-.6.45-.2.4Zm.35.7,0,.3-.25.15v-.45Zm-2.2,3.1-.2,1.15-.2.35h-.7l-.3-.25-.45.05.3-.3h.85l.3-.35-.15-.35,0-.45-.25-.3.3-.25.4.05.3.2-.3.1-.05-.2-.3.3Zm-.85,2-.1.4-.15-.4Zm-.25,2.3-.15.35-.25.1,0-.35Zm.05-4.6h-.4l-.4.65-.4-.1-.25-.2.75-.15,0-.4.3-.35.35.1Zm.1.55-.15.3-.3-.2-.1-.35.35,0ZM17.06,19l-.55,0-.65.3-.15-.3.15-.35.45.1,1.2-.3Zm.1,1.1-.3.05-.25-.25.35-.2Zm-1.3,1.55.1-.35.15.2ZM17,21.46l.25,0v.2Zm0-.75-.75.45,0-.4.2-.25.35-.15.35,0,.25.25,0,.4Zm.2-.85,0-.35,0-.4.25.25.5.05v.65l.65.1-.3.25-.45.1-.3-.55Zm-1.35-6.3.3.15,0,.35-.55-.1-.2-1,.45-.1.2-.35.65.1-.4.65h-.65Zm-.05.85-.25.2-.3-.2-.1-.35.2-.1Zm-.15-3.6.1-.4.15-.35.2.25-.1.4Zm.6-2.35.2.25h-.35ZM15.86,7.1l-.1-.25.1-.3.3.25ZM17.06,9V8.5l.2-.45.4,0,.25-.3V7.4l-.65.15-.2-.15.25-.6,0-.35.45.15.55.65.35.25,0-.45-.4-.6.25-.2.4-.05.25.4.4.25.35-.1,0-.75.55.35-.1.35-.55.4L19.36,7,18.91,7l.4.55-.5-.05.1.3,0,.85-.25.75-.45-.35-.3.2L17,9.4l.4.75-.3-.2-.45-.05.15-.4,0-.25ZM17,5.75l.3-.2.2.35-.35.1Zm3.35-.3-.75-.3.25-.2.7-.25.35.2Zm.55.65-.35.1V5.75Zm-1,2.05.3-.3.05.2Zm.2,3.1-.1.3h-.15l0-.3Zm-.35-3.7.3-.3.35-.3.1.35Zm-1.6,7.2.2-.45.45.4v.45Zm.55,1.05-.3-.15,0-.3.2.1Zm-.55-3.45-.35.15-.2.3-.35.15-.1-.4-.2-.25.4-.1.35-.1.2-.3.2.25Zm0-1.2.1-.35,0-.25.3.1.1.8Zm0,1.8-.35.25-.1-.2Zm1,3.1v.3l-.3-.3Zm-.4-3.85V12h.2v.2l.4.15Zm.4-1.3.05-.35h.15l.15.2v.35Zm.2.6-.2.15v-.3Zm-.45-1.35L19,9.9l.1.45Zm.25,3.25h.45l-.1.35-.35.1Zm.2-3.9V9.05l.3.15.15.3Zm-2.6,1.05.45-.1.1.65-.45.05-.3.3-.25-.25.35-.2ZM16.51,6l-.25-.25.25-.1Zm.3,9.25h.35l-.35.15Zm.25-.9L17,14l.35-.05.3.05-.25.55Zm.45.15h.3l0,.45.4.75,0,.2-.4-.15-.25-.35.1-.4Zm2,5.25V19l.3-.15.2-.2.35-.1-.3.75Zm.4.3,0,.25-.35.1ZM21.41,7.3l.2-.2L21.86,7l-.15.25Zm.3.1v1l-.4-.9Zm-.6-1,.3-.35.35-.1Zm1.55-3.3-.25.1V2.7l.3.05Zm-.5-1,.35.05-.35.2Zm0,1.65h.35l.1,1-.45-.1.15-.35.05-.25Zm-.4,1.3.1.35.4.2.15.45-.25-.25-.75-.3V5Zm-1.1-1.6.35.3.3.45.1.35-.3-.15-.3-.25-.15-.35Zm-.15-.8-.35.05-.25.3-.35.2.1-.5.25-.35.35.1Zm-1.35-.9.35-.15.4.1.1.4L19.41,2l-.4.15Zm.15.5v.4L19,2.3Zm-.1,1.6.15.25-.35.1-.2-.35Zm-.4.8.5.1v.3l-.4.45.3-.2.45.55L19,5.8l-.7-.35.25-.3L18.76,5ZM16.16,1.65v.4L15.71,2Zm-.45,2.8.25-.1.2.25L17,3.85l.8-1.35,0-.4.15-.35h.25l0,.4.25.65v.45l-.3.25-.8.4-.3.25.35.2.45-.1.4-.3-.15.5.55.15-.45.55-.6.4-.45-.4-.35.3h-.4l.25-.4.4-.15L17,4.35l-.3.25-.45.7-.5.05-.1-.4Zm-.1,4.3.1.4.05-.1.3.1.1.35-.35,0-.2-.3,0-.1L15.21,9Zm-.85,2.9.35.1.1.45-.4,0-.25-.35Zm.35,2.75v.35l-.25-.15Zm-1,1,.2.3h-.2Zm0,1.15.4,0,.45.5.35-.65.55.55.15-.4-.2-.2-.35-.15-.8-.1.2-.25.65.15.2-.25-.2-.3.05-.3.25-.25.35.1-.4.65.4.1.25-.4.4.55.1.4-.3.05-.2.15.25.2.4.05-.15.3.35.1.35-.2.3.1.25.25v.4l-.4-.2h-.35l-.35.15-.25.3-.35-.2-.05-.25-.2.2.15.3-.3.3-.3,0-.7-.15-.85,0,.25-.3.4-.15.25-.3L14,16.81Zm-.75,3.25.6-.55,1.15-.5.3.2-.3.25.2.45H16v1l-.4,0-.7-.35v-.45l-.2-.1-.45.65.3.35-.35.25-.4-.15-.55-.65Zm-.65,1.9.1-.3h.3l.1.3Zm.2,3.05-.4-.1-.15-.3V24h.35Zm.6-2.45.35.2.2.25-.05.35-.55-.5-.25.1-.1-.45Zm-.2-4-.1.4-.3-.2Zm-.75-.05h.15l-.25.15Zm0,.25.1.35.45,0-.3.65-.25-.4-.35-.2-.2-.35Zm-.1,14.06-.25-.2.25-.2Zm-.1-4-.35.05,0-.35.4-.1Zm.1-1.6h.45l-.1.35-.3,0Zm.6,4.45-.4.05v.3l-.05-.35.25-.25.35-.15Zm.3-5.55-.4,0-.25-.15.2-.35.3-.2L14,25v.45h-.55l-.1.15.3.3Zm.35,6.2-.15-.3h.35Zm.4-4-.45-.1v-.35l.2-.2.55.4Zm.1-1.4-.2-.25.1-.3.2.15.1.35Zm.1-2.55h-.65l.3-.3.7-.35v.75Zm.35,1.05.1-.4.35.2v.4l-.35.2ZM15.86,38l-.15-.45.35,0,.1.3Zm5.4,1.45-.3.1.15-.4.4.05Zm1.05.4.1-.55.2.3Zm3.05,1-.2-.25.15-.3.1.2Zm.5-.45.15-.2.1.35Zm.9-1v-.15l.3.15Zm.2-2.55v-.3l.2.15Zm2.2-.5.1-.25.1.25Zm.65.55-.35-.15,0-.45.4,0,.25.15.1.35Zm.2-3.2.1-.3.25.5Zm.3-5.3v1.3l-.15.85-.25.3.1.55-.75,1-.85,1.45-1.05.65-1.15,1.1-.9.1-.4.15-.25.3-3.25.3-.3.15-.6-.35-.4.15L18.91,36l-.45.1-.75-.55-.9-.2-.4-.2-1.35-1-.1-.5.05-.85.35-1.4,0-.7-.1-.4.75-.4L16,29l.55-1.4.1-.85.3-.2.15-.35.1-.9.35-.65-.15-.55.3-.25.15-.4-.2-.35.25-.25.1-.3-.15-.4,1.2-.8.65-.25h.4l.45.15.2.15.25.2.4-.15.8.15,1.1.5h.4l.35-.2.55.25.45,0,.7.25.4-.1,1.15.65,1.25,1,.15.45,1.05,1.2.3.65.2,1.15.25.7Zm0-8.25.2-.35.45,0,0,.4-.3.15Zm.65,15.21v.2h-.2v-.2ZM31,37.22l.15.35-.45-.15Zm.3,1.6L31,39v-.25l.3-.2Zm-.1-2.25.05-.35.25.35Zm.5-11.3v.3l-.2-.45Zm-.1,12.61.1-.35.25.2Zm1.2-5-.2.65-.45-.1-.4-.25,0-.4.3.2.35-.05.25-.2v-.4l.3.15.1.3Zm.3-1.35-.4-.75.4-.1v.45l.15.3Zm-.4-1.8v-.6L33,29l.4,0-.1.25h.35l.1-.25.25.2.15,1.1-.25-.15,0-.35-.35,0-.2-.25-.1-.35Zm.65,4.1.3-.15.15.3Zm.4-1.45-.4,0,.2-.35L34,32Zm.25-1,.1-.2h.2Zm-.6-6.2.25.4h.3l.25.25L34,26l-.4-.25-.25-.4-.2-.1Zm-.05-6.35h-.25v-.3h.25ZM32.91,11l-.05-.45.35.15.1.45Zm.85,7.65h-.15v-.2h.15Zm.15-1.8-.2-.4.35.1.2.2.05.35Zm.9,1-.4.15.15-.3.15-.35.25.1Zm.2-1.35L35,16.26l.4.3Zm.3-4.4-.25-.3v-.45h.3l0,.45.2.2Zm.4-1.65h-.35l-.1-.35-.1-.3.1-.3h.25l.25.65Zm.1,3.05V13l.2-.35.25.1Zm.75-1.85-.2-.2.1-.3.2.2Z"/><polygon class="33127e45-f0fa-480e-a967-b9e4c3f1e4ce" points="104.65 14.21 104.65 14.61 104.95 14.61 104.65 14.21"/><polygon class="33127e45-f0fa-480e-a967-b9e4c3f1e4ce" points="102.8 14.11 103.2 13.96 103.45 13.71 103.45 13.41 103.2 13.56 102.9 13.71 102.8 14.11"/><polygon class="33127e45-f0fa-480e-a967-b9e4c3f1e4ce" points="101.15 17.91 101.25 18.36 101.7 18.36 101.75 17.96 101.55 17.71 101.15 17.91"/><path class="33127e45-f0fa-480e-a967-b9e4c3f1e4ce" d="M147.16,25.36l-.1-1.15-1.25-.6-.85-.05-1.05,1.2-.45,1.2-.35.2-1.85,1.7-.75.4-.05.4-.2.15-1.85,0,.15-.4-.05-.8.65-.4.6-4.6-.25-1.15-.1-1.55-.35-.35-.1-.45-.55-1.1v-.4l-.35-.1-.2-.25-.5-1.2-.45-.65-.7-.3-1.15-.9-.1,0-.15-.35h-.45l-.2-.3-.3-.2-.8-.15-.2-.3-.35-.2L131,12.46l-.6-.35-.65.2-.4-.15-2.1,0-.35-.1-.35.2h-.85l-.45.3-1.5.25-.35.4-.45.25-.3-.2-.4.1-.85.6-.35.15h-.5l-2.7,2.3-.45.65-.55.2-.1.55-.55.5-1,1.25-1.35,2.7-.45,1.45-.5,2.48-.2.07-.1.45-.65.85-.1.45-.55.4-.2.3-.15.8-.55.1-.75.9L107.9,32l-.7.45-1.5.75-1.65.1-.75-.25-.2-.3-.55.1,0-.4-.35-.25-.1-.65-.45-1.1.25-.2.15-.35.25-1.65.3-.4v-.55l.35-.7.15-.9.25-.8.25-.35.05-.85.15-.4.25-.3v-.4l-.1-.25.45-.65.5-1.6-.3-.45.65-.2-.15-.9,1.5-.4.8-.1.8.15.35-.15.85,0,.3-.2.55.4,1.3-.1.45-.25.35-.55.55-1.7.1-1.2.5-.55v-1l-.65-.45-.75.3-.7-.3-.7.05-.35.15-.85-.25-.8.15-.35-.2-.45-.1L107.7,12l.05-1.25,1.05-3,.2-1.6.4-.6.1-.35-.1-.85-.35-.05-.75,0-.4.1-.55.5-.65-.3L106,5l-2.45.7L102,6.2l-.1.4-.45.6,0,.45-.55,1.4-.05.35.1.45-.35.6-.2.7v.45l-1.05.75-.35.1H97.8l-.7.25-.45.6-.15.4,0,.9-.45.5-.25.7-.15,1.8.7.35,1.55.4-.5,2.5-.45,1.5.2.55-.3.2-.25.7-.3.3v.19l-.23.5,0,0v0l0,.08-.15,1-.65.55-.2.35.2.45h-.5l-1.4,2.4-1,1.25-1.15,1.05-.15.45-.3.3-.75.25-.65.4-.7.1-.35-.15-.5-.6-.35-.2-.1-.75.1-.9.45-.45.2-1.2.7-2.1v-.5l-.1-.35.5-.2,0-.3,0-.35.35-.35-.1-.35.15-.65.35-.65.25-.75v-.45l.45-.65-.05-.4.2-2.5,0-.7-.35-.55.1-.3,0-.4-.3-.85-.05-.5-.4-.25-.25-.4v-.45l-1.1-1.1-.85-.2-.5-.55-1.7-.25h-.8l-.75.25-.45-.2-.7.35-.4-.05-1.3.65-.3.25h-.4l-.3.15-1,.8-.35.15L78,13.91l-.1-.35.15-.35-.6-.4-.7-.2-1.6-.1-1.6.2-.25-.15H72.15l-.75.1-.2.3-.35.25-.15.8-.35.65,0,.3.1.35-.25.25-.4,1.05-.35.45v.55l-.2.3.1.45-.45.7-.1.4.15.45-.45.6L68,22.16l-.2.35.4.35-.4.25-.25.35.12.44-.1.18-.17.08-.35.55L67,25l-.57,1h-.3v.65l-.35.15-.5,1-.3.2-.4.1-.15.4-.55.65-1.25,1.1-.2.35-.45.1-.35.65-.65.45-1.4.65-.35-.1-.9.5-1.55.45-1.65,0-.7.25-1.3-.15-.4-.35H52.3l-.45-.4-.65-.1-.75-.55L50.1,32l-.35-.65h-.4l-.25-.2.25-.1.2-.25-.5-.65.1-.7.25-.3.4-.2h.75l1-.45.35.05.35-.15.4.25.2-.25.35.35,2.05-.4.65-.25.25-.25.8-.1,1.15-.6.8-.25.25-.7.3-.2v.45l.5-.1.2-.4,0-.4.4,0,1.1-.7-.15-.4,0-.35.25.15.3-.05,1.1-1.6.55-1.75.1-.8-.3-.4.3-.8-.2-.45v-.85L62.91,16l-.25-.75-.35-.2-.8-.85-.65-.4-.5,0-.5-.55-.6-.45-.35.05-1.05-.4-.35,0-.4.1-.3-.25-.7-.2h-.85l-1.9.45-.3-.15h-.4l-.6.35-.55-.2-.85.45H49.8l-.65.4-.7.25-.3.55-.75.3-1.25.85-.5.55L45.3,16l-.55.5-.65,1-.55.5v.55l-.75.85-.4.65,0,.35-.3.2v.75l-.55.35v.45l-.65,1.8-.15.7.15.75-.15.35-.1.7.15,2.35v1.4l.3.8v.75l.45.6.7,1.5.85,1.3.7.4,0,.35.2.3h.45l.2.3,1.05.65.25.25.75.1.55.4,1.65.35.75.25.55-.2.25.2.75.25.8-.05.3-.2.1.3.3.15,1.15-.3,3.15-.4.65-.3,1.65-.4,1.35-.7.45-.55h.55l1.2-1.05.7-.35.25-.35.47-.39-.08.74L63.45,37v.45l.2.3.3.2.7.25.85.1.9-.1,1.6-.45.35.45h.85l.75-.2.55-.45.15-.3.1-.9.6-1,.25-.75-.1-.55.1-.45.5-.75.25-.65.1-.7.15-.3v-.55l-.1-.4.55-.45.85-3.05,1-3,0-.4-.2-.35.25-.2v-.45l.35-.1.15-.25-.2-.3-.4-.15-.25-.3.5,0,.35-.15.25-.35.45-.05.3-.25.35-.65.4-.05.35-.6h.55l.6-.5,1.15-.4.8-.05.8.15.7.3.75.8.1.35,0,.9.15.3-.3.5.4.15-.85,1.8-.5,1.6-.35.7.1.6-.2.35v.5l-.45.45.15.35-.05.3-.35.3-.45,1.9-.15,2.25.15.8,0,.75.5.45.05.85.35.75.45.65,1.25.9h.4l.3.3.3.15.9-.05.4.15.5-.25.35.2.45.05.4-.1.6-.45.4.15.8-.15,1-.65.8-.15.35-.2,1.5-1.4,1.05-.55.45-.65.1-.45,1.09-.87v.07l.4,1.15.25.3.1.75.45.45.1.4,1.45,1.15,1.45.75,1.7.45h1.75l1.3-.35h.4l.45.2L106,38l1.05-.65h.45l.55-.65h.3l.65-.25.35-.3.65-.85.35-.1.35-.45h.4l.5-.6,1.86-2.53,0,.13.3.55v.35l.35.2.4.65.3.75.4.65.35.25.4.1,1,1.15.65.4.35-.1.35.1.8.85.65.25,2.5.65.35-.1,2.3.1,1.65-.15.4,0,1.55-.55.3-.25.45,0,1.6-.5.65-.4.5-.55.4-.1.9-.55.4-.1.2-.35,1.1-1.1,1.65-.75.45.05.85-.1.8-.25.85,0,.55-.55.45.15.5-.5.3-.15.4,0,2.05-1.7.35-.1.65-1.2.65-.45.1-.55,1.1-1.05.1-.35-.4-.25.45-.15ZM110.4,13.11l.25.35-.3-.1Zm-1.6.75h.2V14h-.2ZM43,26.46l-.15-.15.25-.1Zm.3,1.6v-.25l.2.25Zm5.8.4-.25.05.25-.25Zm.6-.8-.25.25h-.35l.5-.6h.25Zm.6.8H50.2v-.2h.15ZM51,28l-.15-.15.25-.1Zm3,0L54,27.51l.3.15.1.3Zm-.4-2.45.35-.2v.25Zm1,1.45,0-.4-.3,0,0-.4.5-.15.15.75Zm0-2.1.2-.2.35.1.2.25-.25.25-.35-.1Zm.75,1-.25-.1v-.2l.05-.05.3.05Zm.4.35.15-.3.25-.25h.3l.1.4Zm.75-1.5-.4.2.05-.4.5-.2Zm.7.2-.35-.15-.1-.4.45.15.3.25Zm1,1.4-.3-.2-.15-.35h.65l.05.3Zm.2-3.6-.2-.35h.3Zm-.35-.8v-.35l.3-.35.5-.05-.2.3Zm0-2h.25l.1.35-.3,0Zm1,3.75-.1-.35.2.1Zm.1-.7v-.4l.25.2ZM59.21,22h-.5l.2-.4.5,0Zm.7-1-.35-.25-.4-.1.1-.35.25-.2L59,20l-.3-.3.3-.2h.35l0,.3h.3l.1-.45.35.2Zm1.25,2.6-.3-.15.05-.3.25.1ZM62,22l-.1-.45.3.4Zm-.25-3.65.35.05-.05.35-.3,0ZM61,16h.15v.2H61ZM61.36,17l-.3-.05,0-.25ZM61,19.56h.45l-.15.3L61,20Zm.25.8.4,0-.1.45-.45.55-.4-.1v-.5l-.15-.45.15-.3Zm-.65-1.7-.45.65-.35-.15-.65-.25.1-.4.5-.65.3,0-.2.3-.35.15.4.2.25-.3.55,0Zm0-2.5v.35l-.3-.15Zm-.75,0,.35,0-.35.2-.3-.2Zm-.5,1.2-.25.15.1-.4Zm-.45-1.05v-.2l.3.2Zm.1-1.6.1.3-.4,0-.25-.15-.1-.35Zm-.45,2.6.2.4v.45l-.3-.3-.1-.45Zm0,1.35.2.15-.2.35-.35.2-.35-.15-.3-.3-.35,0v-.25l.2-.3L58,19l.25-.35Zm-.5-3.3-.25,0-.05-.3Zm-.3,1.4.1.45-.35-.1-.2-.25-.3-.1.1-.45.25.15,0,.4ZM57,14.41l0,.35-.2-.35Zm0,.75.35.2.1.45-.45-.2-.2-.35Zm-1-1.4.2.1-.1.2-.2-.1Zm.15,1.35.4-.05.1.55-.3-.2-1.1.5.2-.35v-.35l-.2-.35.35-.15ZM54.8,17l.2-.5.45-.15h.45l-.1.25h-.45Zm.35,1.1L54.8,18l.2-.3Zm.2-4.35.15.4-.4.25,0-.4Zm-1.1,1.4.3.1-.3.45-.1-.25Zm-.05.9.25.2.25-.55.4.1-.15.45-.5.65-.75.2.45-.6-.2-.25-.5-.55.05-.4.45.1Zm-2.15.75.7-.35-.25.15-.2.4.1.45h.35l.4.2.2-.25.35,0-.1.45-.4,0-.7.35-.2-.3-.1-.45-.35.55-.3-.15-.15-.3.3-.1.25.2.15-.35Zm1.3-1.75.15-.25.3,0-.15.3Zm.4-1.45.15.25-.4-.2Zm-1.35-.85.1.25h-.45Zm-.55,1.35.3.25,0,.5.4.05.25-.2.1-.85h.45l.1.65-.4.15-.45.55-.15,1.15-.55-.1L52.1,16l0-.75-.4-.1,0-.35Zm-.2,2h.2v.2h-.2Zm-.25-.25.15.25h-.3l-.15-.35Zm0,3.4-.05-.45.4-.2-.1.65.7-.4.8-.25.1-.55.9-.1-.65.45,1.65.15.75,0-.3-.6-.05-.4.65.55.9-.35.3.15-.15.4-.7.35.25.85.3.3.4.15,0,.3.2.15-.3.2-.15.3.1.7-.65.65.2.6v.4l-.5-.15-.2.35-1,.65-1.65.35-.25.25V25l-.5-.25-.3.2-1.15.25-.3.2-.3-.1-1.3.05-.8.15,0-.4.1-.4.25-.25L48.75,24l.15-.8.75-1.3.15-.65.3-.1.65-.85.35-.2-.15-.6.55-.1-.25-.1-.3.1.1-.2Zm-.9-.05.35.15-.2.25H50.3l-.1-.35-.4-.2.3-.35.85-.35,0,.45h-.4l-.3.1Zm0,1-.25.1v-.15Zm-.55-.9v.35l-.8.1-.3-.3-.35-.8.25-.25L49,19l.2.3.4-.3Zm-.1,1.65h-.7l-.2-.4-.1-.5h.3l.55.5Zm-1.55-3.05.3-.1.25.4Zm.2,3.15.15.2-.3.25-.35.1.25-.25Zm1.9-6.3.5,0,.15.45L50.5,15l-.5-.3Zm-1.55.75-.1.25-.15-.15Zm-.65,1.1H48l-.05,0Zm-.2.1.4.2.25.3h.85v-.5l.1-.45.2-.25.4.6.4.1-.35-.25.3-.25.35.35-.15.35.25.75-.4-.2-.65.9v.3l-.65.35.1-.45L50.1,17l-.75.15-.1.65-.3-.25-.7-.3L47.9,17Zm.2,1.6,0,.3-.3,0-.1-.35Zm0,1.3-.25-.15L47.8,19h.25Zm-.7,1.25.15-.45H48l-.1.45-.25.3h-.35Zm-.2,4,.25.35h-.25Zm-.5,1.55.3.45-.35.1-.1-.45Zm-.35-1.85v-.25l.3.25Zm.45-4.25H46.7v-.15h.15Zm-.25-1.9-.4-.3.5-.1ZM46,23v-.4l.35.3Zm.1,3.1-.4-.15v-.4l.35.15Zm0-1.25.3.25-.3.2ZM46,17l.35.1-.35.35Zm0,1.9.35.1-.05.3-.2.2-.2-.25Zm-.1,1.75.35,0-.3.2-.05.35L45.6,21Zm0,1.3.3.1-.1.45-.3-.15-.2-.3Zm-.7,1.5.4-.2.3.1.1.3L45.4,24l-.3-.1-.35-.45Zm-1.25,6.1-.1-.3-.1-.35.1-.3h.3l.1.75Zm0-4.55.8.1.15-.25.4.05.4-.5.3-.2-.55,1.05-.3.3-.45-.35-.45.35.25.2.4.1-.1,1-.55-.1.05-.45Zm.4,3.25.2-.3.5-.65.2.3v.75l-.45.1Zm.25,1.65,0-.4.25-.3.35-.1.1.3v.4l-.4.15Zm.65,1.5v-.3l.2.15Zm.85,1.9-.3-.25-.1-.45h.4Zm.1-2.1-.1-.3h.15Zm0-2,.35-.9-.55.1-.55-.55.15-.4.3-.25-.35-.4-.2.3H45l.2-.35.85-.3.25.35.65.5.3.35-.5.65,0,.45-.35.5Zm1.4-.65.15.3-.55.2.1-.6ZM46.5,31.46l.15-.3,0-.4H47l.1.65Zm.9-1.15-.1-.25-.15-.8h.3Zm.2,2.35.35.1-.05.55-.35-.15Zm.35,1.4H47.8v-.25h.25Zm-.15-8.3-.4.1v-.35l.35-.1.3.1Zm.25-1.65.15-.3h.25Zm.8,5.2-.3-.15.2-.15.25.1Zm.8,6.4-.35-.1,0-.35h.3Zm16.95-1.4v-.15l.3.15Zm2.22-5.93,0,0,0,.06Zm.83,5.78.1-.2.1.25Zm1.1-15.71v-.4H71Zm.65-1.2-.2-.2,0-.35.15.2Zm3.7-2.6.2.25-.1.3L75.05,15Zm.1,3.5-.1.3-.25-.2,0-.25Zm-.3-.9v.35l-.25-.35Zm-1.85-2.6-.05.4-.15-.25Zm0,1.65.4-.2.25.3h-.5l-.4.2Zm-1,8.25h-.2v-.2h.2Zm-.1-2.4.1-.4.25.3Zm.2.65v-.2h.35Zm.45-4.1h.55l-.25.55-.25-.15Zm.55,4-.25-.2.25-.2ZM73,21.21l.1-.3.15-.25.15.35Zm.55-1.1H73.1l-.2-.35.9.1Zm0-1.1v-.2h.15V19Zm.6-1-.3.25-.45.1-.85-.15-.3-.2.1-.5.25.2.1.35.4-.1.25-.25.3.2.6-.3Zm0-1,.15-.25.15.25Zm.6,2.1-.15.05-.1-.35.1-.3.35.25Zm.5.1-.2-.35.35.05.2.25Zm1.55-6.35.15.25-.15.2Zm-.25,2.75-.25.25-.15-.25Zm-.65-1.2h.2v.3h-.3Zm.4,2.6-.2-.25.3,0,.25.4Zm.35-2.3-.1-.3.35.2Zm.25,2,.2-.3.25.1.1.3Zm.25-.6-.25-.25.45-.15.4-.2-.1.55Zm.6,1.6.1-.25.15.25Zm.45-2.3-.1-.3.25.15.15.25Zm.8,1.65-.45.2.05-.35,0-.3H79Zm1.6-2.4V15l-.3-.2Zm0,2.3-.5-.1L80,16.41l.75.2Zm1.3,12.31h-.2v-.2h.2Zm.45-1.1-.25-.1,0-.45.4-.1Zm3.7-3.6.2-.2h.7V25l-.55.1.05-.4Zm-.3,2.75-.35.1-.15-.4-.4-.25.35-.2L85,26.41l.3-.1.15-.3h.25l.1.45h-.55Zm-2.1-4.15.35-.55-.45-.2.15-.3.4,0,.15.7.4.7h-.45Zm.2,5.45h-.3v-.2Zm0-8.85.4-.1.1.35v1.15l.15.25-.25.25-.4-.05.2-.7-.25-.25.2-.25v-.35Zm.75,6.35-.1-.25.25-.35.4-.15Zm1.1-2-.7.4-.4,0,.15-.3,0-.3-.1-.35.4.2H86Zm.85-4.85.65-.4.45-.15v.65l-.45-.1-.25.35-.75.5-.4-.05-.25-.3h.8l-.15-.35-.7-.1-.15-.3-.35.1-.3-.15-.1-.3.35,0,.75-.1.3.15-.2.35Zm-.3-3v-.2h.2v.2Zm.1,1.55h.3l.75.35-.5.65-.35-.15Zm-1,3.1-.4.15-.2-.5.9.1Zm.15,1-.4.2.2-.4Zm.45-.1.35.65-.45.45-.2-.9Zm-1-2.2.2.35L85,20l-.3-.25,0-.4ZM86.71,23l-.15-.35h.3l.05-.35h.3l.05.3.3.15-.55.45Zm1.35,2h-.2v-.25l.25,0Zm.05-3.2-.35.25-.2-.55h-.4l-.2.25-.3.1v-.35l.2-.4.05-.35.35.1.3,0,.2-.25.25.3.15.45Zm1.6-3.05H90v.25h-.25Zm-.2,1.1.2.25h-.2ZM89.26,22l.05-.1.3.1v.2l-.1.1-.25-.1Zm-.6-1.65V20l.5.3Zm0-1-.4-.15.3-.2.35-.1Zm-.6-2,.5,0-.3.45.25.15-.05.4-.45-.4h-.4l.15-.35Zm-1.1-1,.1-.35.45.15.2.3-.35.35-.3-.15-.65.1.2-.35Zm-.7-1.2.25.2h-.25Zm-.75-.75.25,0V15h-.25Zm-1,1.7.4.15.3.3h.25l.1.55.7-.2-.25.65.2.15-.3.2-.55.1,0-.35-.1-.4L85.06,17l-.55.05-.4-.2-.15-.3.1-.25Zm-.35-1.1-.15.35.15.45L84,16l-.15-.35-.1-.55Zm-2.2-1v.3l-.4-.2ZM82.2,18l-.1.3-.3-.2-.1-.3.15-.3.25.15h.4Zm.45-2.3.5.65-.3.2H82.6l.1-.4Zm.45,2.9L83.05,18l.55.25v-.45l-.7-.45-.15-.4.4,0,.25-.2.25.3-.05.5.2.4.3.05.25.3L83.6,19l-.35-.15Zm.2,10.75.1-.45.3.1v.5l-.55.15Zm.1,1.5-.35.2v-.25l.35-.2Zm.1,2.85v-.25l.35.2Zm.3-1.75v-.25l.15.25Zm-.1-1,.25-.15.2.25Zm.45-5.7-.3-.3v-.35h.4l.2.45Zm1.2,10.4-.2-.25.4,0Zm0-2.15.1-.35.1.45Zm0-2.45-.1-.4.05-.35.25.1.25.35,0,.5Zm1,1.55,0-.35.25.1Zm0-.65.1-.45.2.25Zm0-2.85-.35-.3-.3-.1-1,.5-.1-.35.35-.25.75-.4.3-.3.3.2-.3.35.2.2.25-.45.25.25Zm.55-2.85-.4-.1L86,25.56l.35.35.55-.25ZM86.91,35v-.45l.35.25Zm.1-6.55.45-.1-.2.45Zm1.1,6.1H88v-.2h.15ZM101.8,23.46l.1-.45.3.15Zm.3-3.75-.3,0-.1-.2.2-.1h.35Zm.7-1.5-.15.35-.45-.1-.4.1-.25.25-.3-.2-.8-.15-.2-.25.35-.55-.1-.4,1.6.1-.4.35.45,0,.4-.1.25.25ZM100.15,23l-.3.25L99.4,23l0-.35.4-.6v.3l-.15.35Zm0-1.8-.3.2.15-.55.4-.05.35.05-.15.3Zm.3,1.4.3-.1v.3h-.45Zm0,.65.3.3h-.3Zm.45,2.9.15.25-.35.05-.15-.35Zm-.05-6.65-.45.15.1-.45.25-.4.3.35Zm.55-2.5v-.2l.1-.1Zm2.05,3,.05-.4.2.4Zm2.05-3.5-.25.35-.25-.2.1-1.3.3-.1.35,0,.15.25-.35.3.2.25.35.1Zm1.45-.1-.55-.4-.1-.35h.3l.35.35Zm1.1-2.5v.3l-.4.15,0-.2Zm-.45,1.1-.25.35.3.65h-.35l-.35-.9.25,0Zm-1.3-6.2.45.55v.3l-.65-.45Zm-.1,5.55v.3l.85-.3-.25.35,0,.3-.45.1-.25-.4-.4-.25.2-.1Zm-.3-.75-.55-.35.3-.4.35.3ZM104.8,10.4l.35-.1.45.1-.75.6-.25-.2Zm-1.25.9.2-.4.4.15.15.3-.3.45-.45-.2Zm.65,1,.2.2-.25.35h-.5l.2.4-.2.25.45.3-.15.85-.8.1-.25,0-.15-.35h-.4l0-.35.35-.1-.1-.2.15-.35-.2-.2,0-.35.45-.1.1.45.4-.25Zm-1.45,3-.25-.1-.05-.35.1.2.1-.2Zm-.55-1.8.05-.3.2.25v.2Zm.55-3.15.3,0,0,.4h-.45Zm-.4,1.5.1-.3.65.15L103,12l-.25.2-.4,0Zm-.35.5h.25l-.1.4-.2,0Zm-1.15,1,.4-.25-.1.7-.35.15-.2-.2Zm-.9,1.35.5.5.15.3.55-.1.4.2.35-.3-.4-.15-.2-.3v-.45l.15-.45.45.25,0,.75.15.25.35.1-.1,1.3.4-.25.25.15.1.3.45.2,1-.4-.25-.3-.15-.4h-.35l-.25.45-.6-.3.15-.35-.15-.2.2-.3.4-.15v.45l.35.25.35-.35.1-.4.2-.05,0-.4.35-.55,0-.45.55-.15,0,.9.15.3-.55.7-.45.2.35,1-.35.55-.4.1.2.55-.65.35-.65-.55.3-.3-.4-.45-.25.2h-.35l-.3-.2.1-.55-.4.1-.55.35-.25-.8-.6-.5-.35-.15Zm-.15,1.2.35-.1.65.65-.25.35-.4.2-.2-.1v-.4l-.15-.25Zm0,1.35.3.15.1.3-.45.1Zm-.15,1,.25.1-.1.35-.35-.2Zm-.55,1,.45.3-.4.35-.25-.35ZM97.61,23.6l-.05,0v-.06Zm0,7.66-.35.05v-.5l.45.1Zm.55,1.15H98v-.3h.3Zm.55,2v-.15l.1-.1Zm.4-2.55,0-.2.2.3Zm-.1-3.7-.2-.1.2-.35.35.1Zm.7-3.5H99.4l-.1-.35V24l.2-.25.45.55Zm.3,8.4.3.35H100Zm.1,1.75.25-.15.35.1.15.3Zm.8-.65-.25.1v-.45l.35,0Zm.1-11.81v-.3l.2.15Zm.1-2.7h.45v.45l-.3-.15Zm.4,1.5h.15v.15h-.15Zm.1,3.05.15-.2.25.15-.05.4h-.4ZM137,20.71l-.2.25-.15-.25Zm-.45.55.75.65-.1.35-.3-.1-.45.2v-.45l-.65-.35Zm.25,5.15.3.2-.2.35-.35.2,0,.35-.5.4-.15-.45-.25-.3.55-.25-.15-.4,0-.35.2-.35-1.4-.3-.35-.2-.25-.45-.45.35v-.45l.35-.35-.15-.3.05-.35.75.6.2.3.1-.25-.25-.35-.05-.5,1.3.2.2.7,0,.4-.35-.25.2-.4-.75-.25.1.9.25.25.75.3.2-.35.35-.2.1.4V26l-.45.1Zm-2.2-4.3-.2-.25-.05-.3.3-.1h.7l.35.75.3.25-.35.25-.5,0-1.3.65.15-.4.25-.25.1-.4.35.15.45,0V22Zm1.65.75,0-.4.25.2h.3l.15.15-.3.65-.25.3.1-.55Zm-.65-2.35.3.4h-.35Zm-.6-3,.35.1-.35.2Zm0,1.3,0,.35-.2-.2Zm-.55-1.65h.2v.2h-.2Zm-.65-1,.4.1.1.4-.2.15-.35-.25Zm.2,1.6.45.35-.35.15-.35-.15Zm0,1.45-.1.4-.25-.4Zm-.9,5.65-.25-.25-.15-.5.35-.1.4.1Zm.25.9-.45.3,0-.35.15-.5.2.25Zm-.25-10,.2.3-.15.55-.25-.2Zm.25,5.4-.2.15v-.3Zm-.3-4.25.2.35-.55-.1ZM133,22l.35.05,0,.35-.3.1-.3-.35Zm-.45,1.65.35,0-.35.3Zm-1.25-6.9.35,0,.35.15-.25.25-.3.1-.3-.15Zm1,2.25-.1.35-.35.1-.1-.3.25-.25Zm-1.55-3.1.35,0-.2.45-.35-.15Zm-.65.7.1.45-.2.4-.15-.45-.3-.4.25-.3Zm-.85-2.2h.3l.1.4-.2.3-.25-.3Zm-.55,1.75.2.15-.4.1Zm-1.55-1.05.4,0,.25.35-.35.1-.3-.1Zm.45,1.5v.2h-.2v-.2Zm-1.5-.85h.3l-.3.3Zm-.35,1.2-.3.1-.15-.35Zm-2.1,1-.3-.15-.2-.3Zm-2,.5.35-.1.3.25-.15.3-.7-.05Zm-.4-1.55-.35.3v-.35Zm-.45-.7.2.25h-.35Zm-1.55,3.25.4-.1.25.15-.35,0-.4.25Zm-.1,6h.35l.3-.1-.15.4h-.3Zm.2,4.45V30h-.2v-.2Zm-1.4-7.4.35-.15.15.4-.1.4-.4.1Zm.25,5.7-.15-.35.1-.35-.3-.25-.25.2-.45,0-.3-.2.3-.2.45.1,0-.25-.35-.3.15-.25.3-.1.15.4.45.25.15.25.1,1.15Zm.15,1.25-.2-.2.15-.1Zm-3-.66h.09l-.09.14ZM117,24.76l.2-.45.2.45Zm.55.5.1.25-.45.1v-.4Zm.5-1.6-.35.15-.2-.4Zm-1-1.55.3.15v.4l-.2.1-.2-.3Zm-.65,1.05L117,23l.05.2-.65.45-.25-.2Zm-2,8.35-.3-.15.15-.3.45.25Zm1.4-.85-.35.1-.1-.25.1-.3h.35Zm1,4.15-.1,0,.25,0Zm-.05-2.35-.5.05-.1-.35.3,0,.35-.1.35.25Zm-.35-1.25v-.15l.1-.1Zm.85,1.3.1-.35.15.35Zm.05-2.75v.3l.15.45-.3,0-.35-.25-.3.2-.55-.85h-.65l.1-.25.2-.1.7.35.35-.2L117,29l.6.4Zm-.1-1.1-.4.25-.2-.45.4-.1.25-.25.25.15Zm.85,3.65,0-.35.25-.1.1.3-.2.25Zm.2,2.7v-.2l.3.2Zm0-3.35-.35-.1-.2-.35h.75l.1.3Zm0-1.15-.35-.1-.1-.4.25-.15.4-.1.1.45Zm.65-9-.3-.25-.35-.8h.3v.4l.25.25h.4Zm.4,9.05V31l-.3-.35Zm.35,3.1-.3-.35.5-.1Zm-.1-1.75-.2.4-.25-.2.1-1.1.65.65Zm.4-12.46.45-.45.15.15-.15.35-.55.3Zm.6,2.7-.45-.1.1-.35.3-.15,0,.3Zm-.05,13.26h-.2v-.15h.2Zm.35-2.2.35.1.2.2-.35.15Zm.45,1.55.05-.25.35-.1Zm.65-1.65-.35-.1.1-.3.35,0Zm.75.55v-.35l.25-.2.1.3Zm4.1.7-.25.15,0-.35.25-.1Zm.9.45-.3,0,.05-.3.3-.05Zm.85-8.85-.55.55L127.35,28l-.2.9.15.3v1.1l.2.75-.15.3-.25.2-.05.4-.8.4-.85.25H125l-1.15-.25-.7,0-.35.1-1.4-1.3-.65-.45-.4-1.6-.25-1.65,0-.8.25-.8-.1-.4.35-1.1v-.45l.3-.3v-.35l.3-.15.15-.3v-.4l.9-1.25.6-.5v-.4l.35-.25-.25-.45.25.05.3.25,1.05-1,.15-.35.8-.1.3.2.75-.6.45-.05h.85l1.15.35,1.35.75,1.25,1-.2.35.65.75,0,.4.1,1,.15.4-.2.7-.1.8-.85.55-.9.1-.25.15-.2.3Zm1.55,4.4-.25.15-.15-.25Zm-1,1.1.1-.3.1.3Zm.65,1.5v-.35l-.1-.4h.2l.25.25Zm1.6-2.6.45.1-1,.65-.2-.4,0-.2-.2-.35.2-.15.35-.05Zm-.1-.9.1-.35.35-.15,0,.45-.15.3Zm-1.05.15-.1-.35h.4Zm.25,2,.4.1-.25.25-.4-.1Zm.3,2.2h-.25v-.25h.25Zm-.15-.9-.1-.55.35.1.1.35Zm1,.85-.35,0v-.35h.45Zm-.45-1.35.45.2-.3.15Zm.85,1.05-.15-.3.5.1v.3Zm.5.9h-.15v-.25h.25Zm.5-.8v-.2l.25.2Zm-.4-1.05-.15-.35-.5.1.2-.65-.3.1-.15.3-.3.15-.1-.4.1-.45h.4l.15-.15.25.1.05.35.35,0,.4.15,0,.4.25.3,0,.3Zm2.3-.5-.3-.2-.35.15-.15-.25-.45.05-.65-.35-.4-.65-.75-.35.15-.35.35-.1.2.3.6.35-.1-.4-.2-.3,0-.35.35.45.25.05.3.25.25-.2h.4l-.2-.65.4-.45-.2-.4v-.4l-.35,0,.15.3-.45.1.4.35,0,.35-.3.3h-.4l.2-.35-.8-.25-.4-.25,0-.25-.55-.35-.8.45-.5-.3-.1.4,0,.25-.55.2.3-.85-.15-.45.45-.3.2.6.4-.05.15-.7-.65-.2.05-.4.15-.25h.45l.15.45,0,.4.15.3.4,0,0-.5.45-1.05.8.35.1-.45h.85l-.1.35.4-.1.15-.35.25.2v.45l.35,0,.2-.2.4-.05-.1.5h-.55l.3.8,0,.4h-.45l.1.45H136l-.3.25-.45,0-.2.15,1.2,1.2-.15.3-.55-.65-.25.2-.15.35-.55-.1.1.55.85-.15.05.3.2.3-.75.1.25.4,0,.35Zm.6.35-.2-.3.45.1Zm.7-1.05-.25-.2.1-.35h.25l.1.35Zm0-1.75.3-.25.15.25Zm1.1.7,0-.4.3.2.15.35Zm-.35-1.65-.1.3-.15-.3.2-.35.35-.25h.4l.2.45Z"/><polygon class="33127e45-f0fa-480e-a967-b9e4c3f1e4ce" points="133 28.21 132.85 27.81 133.31 27.81 133.31 27.01 132.91 27.01 132.5 27.16 132.4 27.61 132.46 28.01 132.6 28.31 133.5 28.81 133.35 28.41 133 28.21"/><polygon class="33127e45-f0fa-480e-a967-b9e4c3f1e4ce" points="135.36 27.26 134.96 27.11 134.56 27.16 134.35 27.56 135.06 27.61 135.36 27.26"/><polygon class="33127e45-f0fa-480e-a967-b9e4c3f1e4ce" points="134.25 30.51 133.85 30.41 133.71 30.61 133.41 30.66 134.25 31.06 134.5 31.41 134.91 31.16 134.31 30.86 134.25 30.51"/></g></g></svg>