<svg xmlns="http://www.w3.org/2000/svg" width="439" height="54" viewBox="0 0 439 54">
  <metadata><?xpacket begin="﻿" id="W5M0MpCehiHzreSzNTczkc9d"?>
<x:xmpmeta xmlns:x="adobe:ns:meta/" x:xmptk="Adobe XMP Core 5.6-c140 79.160451, 2017/05/06-01:08:21        ">
   <rdf:RDF xmlns:rdf="http://www.w3.org/1999/02/22-rdf-syntax-ns#">
      <rdf:Description rdf:about=""/>
   </rdf:RDF>
</x:xmpmeta>
                                                                                                    
                                                                                                    
                                                                                                    
                                                                                                    
                                                                                                    
                                                                                                    
                                                                                                    
                                                                                                    
                                                                                                    
                                                                                                    
                                                                                                    
                                                                                                    
                                                                                                    
                                                                                                    
                                                                                                    
                                                                                                    
                                                                                                    
                                                                                                    
                                                                                                    
                                                                                                    
                           
<?xpacket end="w"?></metadata>
<defs>
    <style>
      .cls-1 {
        fill: #fff;
        fill-rule: evenodd;
      }
    </style>
  </defs>
  <path id="Catering" class="cls-1" d="M568.293,1436.49l-4.985-5.38c-5.607,5.59-10.66,8.28-18.759,8.28-11.63,0-22.152-6.9-22.152-19.39,0-11.67,9.207-19.47,20.56-19.47,7.407,0,13.36,3.17,18.9,7.8l5.607-4.77c-6.784-6.55-15.368-10.56-24.921-10.56-15.437,0-27.551,11.25-27.551,26.86,0,16.5,13.153,27.13,29.074,27.13C553.548,1446.99,562.062,1443.81,568.293,1436.49Zm62.935,9.26-23.121-51.44H599.8l-23.467,51.44H584.5l7.684-16.78h23.19l7.407,16.78h8.445Zm-19.244-24.37H595.647l8.168-17.95Zm64.072-19.61v-7.53H632.1v7.53h18.413v43.98h7.338v-43.98h18.206Zm58.389,43.98v-7.53H698.172v-15.46h17.582v-7.46H698.172v-13.46H733.13v-7.6h-42.5v51.51h43.819Zm61.468-36.32c0-9.8-6.853-15.19-16.267-15.19h-30.6v51.51h7.545v-21.34h19.244l10.384,21.34h8.514l-10.729-21.61C791.483,1422.34,795.913,1417.23,795.913,1409.43Zm-7.476-.41c0,5.45-3.669,7.87-8.791,7.87H756.594V1401.7h23.052C784.561,1401.7,788.437,1403.63,788.437,1409.02Zm30.837,36.73v-51.51h-7.407v51.51h7.407Zm65.986,0v-51.51h-7.614v39.35l-31.082-39.35h-7.338v51.51h7.407v-39.22l31.151,39.22h7.476Zm68.73-14.43v-13.74H930.177v7.45h16.406v5.8c0,4.42-5.884,7.05-9.484,7.94a24.293,24.293,0,0,1-5.953.69c-11.561,0-21.39-7.31-21.39-19.46s9.968-19.47,21.528-19.47c6.992,0,11.63,2.14,16.337,7.25l5.192-5.32c-6.161-6.14-12.391-9.39-21.944-9.39-15.506,0-28.451,10.98-28.451,26.86s12.737,27.06,28.313,27.06a34.3,34.3,0,0,0,9.206-1.18C946.652,1443.95,953.99,1439.05,953.99,1431.32Z" transform="translate(-515 -1393)"/>
</svg>
