<svg xmlns="http://www.w3.org/2000/svg" viewBox="0 0 376.4 188.85"><defs><style>.cls-1{fill:#1c264a;}</style></defs><title>アセット 1</title><g id="レイヤー_2" data-name="レイヤー 2"><g id="レイヤー_1-2" data-name="レイヤー 1"><path class="cls-1" d="M60.49,170.49c-.6,0-1.25,0-2,0H47.17c-1,0-2.16,0-2.88,0V173c.79,0,2.06,0,2.88,0H57.78v10.17H47c-.94,0-2.16,0-2.88-.07v2.54c.72,0,2.09-.07,2.88-.07H57.78v1.13h2.71c0-.91-.07-2.3-.07-4.22V174.3C60.42,172.58,60.44,171.26,60.49,170.49Z"/><path class="cls-1" d="M69.57,176.44c-1.1,0-2.53,0-3.43-.07V179c.91,0,2.33-.07,3.43-.07h11c1,0,2.53,0,3.46.07v-2.62c-.93,0-2.46.07-3.46.07Z"/><path class="cls-1" d="M91.72,174.35c-1.22,0-2.81,0-3.82-.07v2.47c1,0,2.59-.07,3.82-.07h5.33A13,13,0,0,1,96,181.12c-1,2.06-2.52,3.17-6.67,4.75a6.14,6.14,0,0,1,1.51,2.35c.62-.24.91-.36,1.58-.67,3.24-1.58,5-3,6-5.11a16.69,16.69,0,0,0,1.32-5.76h4c1.1,0,2.78,0,3.82.07v-2.47c-1,0-2.71.07-3.82.07Z"/><path class="cls-1" d="M103.39,169.46a14,14,0,0,1,2.9,2.5l1.2-1.32a15.47,15.47,0,0,0-3-2.4Z"/><path class="cls-1" d="M100.24,170.87c.79,0,2.16,0,2.88,0v-2.5c-.72,0-1.94,0-2.88,0H93.67c-.91,0-2.14,0-2.86,0v2.5c.72,0,2.06,0,2.86,0Z"/><path class="cls-1" d="M105.26,167.39a13.94,13.94,0,0,1,2.9,2.47l1.2-1.3a15.65,15.65,0,0,0-3-2.42Z"/><path class="cls-1" d="M126.5,172.29l-2.21-1.06a15.16,15.16,0,0,1-3,4.2,32.8,32.8,0,0,1-8.3,6.41,6.87,6.87,0,0,1,1.56,2,37.36,37.36,0,0,0,4.82-3.36c.26-.22.94-.79,1.34-1.18v5.64a28,28,0,0,1-.12,3.53h2.54c0-.79,0-2.33,0-3.53v-4.06c0-1.27,0-1.66,0-2.64.22-.17.31-.29.31-.46s-.14-.34-.43-.36l-.34,0a18.94,18.94,0,0,0,1.82-2.06c1.15-1.49,1.75-2.26,1.78-2.3.38-.07.5-.19.5-.38A.39.39,0,0,0,126.5,172.29Z"/><path class="cls-1" d="M144.76,179.73a24.08,24.08,0,0,1,6.58,4.06l1.54-2a24.66,24.66,0,0,0-7-3.91Z"/><path class="cls-1" d="M144,178.94l-.7-.07a18.45,18.45,0,0,0,5.4-5.81c.43-.1.55-.19.55-.41s0-.14-.22-.31l-1.75-1.61-.43.36-4.85.12c-1.56,0-3.07,0-3.91,0s-1.32,0-3.19,0l.22,2.62c1-.07,3.29-.17,7-.31l3.72-.14c-3.07,3.6-6.72,5.76-13.56,8a5.62,5.62,0,0,1,1.13,2.38,41.66,41.66,0,0,0,8-3.67c0,.67,0,1.46,0,2.33v2.86c0,.89,0,2.86,0,3.5H144c0-.62,0-2,0-3.5v-5.66c.34-.19.46-.31.46-.46S144.33,179,144,178.94Z"/><path class="cls-1" d="M142.91,171.06l1.94-1.46a17.82,17.82,0,0,0-3.41-3.29l-1.66,1.32A20.45,20.45,0,0,1,142.91,171.06Z"/><path class="cls-1" d="M160.22,176.44c-1.1,0-2.53,0-3.43-.07V179c.91,0,2.33-.07,3.43-.07h11c1,0,2.53,0,3.46.07v-2.62c-.93,0-2.46.07-3.46.07Z"/><path class="cls-1" d="M184.95,175v-2.11c0-3.14,0-4.3,0-4.8.31-.19.41-.31.41-.46s-.12-.22-.36-.24l-2.83-.17c.1.58.12,2.52.12,5.66v9.69c0,2.38,0,4.37-.14,5.62H185c0-1.18-.1-3.07-.1-5.62v-6.65a25.56,25.56,0,0,1,7.37,4.82l1.75-2.3a33.84,33.84,0,0,0-8.3-4.9Z"/><path class="cls-1" d="M205.44,172.31a30.42,30.42,0,0,0,1.46-3.91c.5-.17.58-.22.58-.38s-.12-.26-.34-.31l-2.59-.62a17.55,17.55,0,0,1-1.61,4.58,20.77,20.77,0,0,1-4.49,6,6.68,6.68,0,0,1,1.7,2,23.1,23.1,0,0,0,4-4.87h6a19.1,19.1,0,0,1-.38,3.12,9.42,9.42,0,0,1-3.67,6.07,19.74,19.74,0,0,1-4.46,2.42,7.58,7.58,0,0,1,1.54,2.21c3.7-1.78,5-2.64,6.43-4.27,2.06-2.38,2.83-4.7,3.14-9.55H216c1,0,2.47,0,3.36.07v-2.57c-.89,0-2.38.07-3.36.07Z"/><path class="cls-1" d="M226.71,176.44c-1.1,0-2.53,0-3.43-.07V179c.91,0,2.33-.07,3.43-.07h11c1,0,2.53,0,3.46.07v-2.62c-.93,0-2.46.07-3.46.07Z"/><path class="cls-1" d="M260.77,170.54l-.36.43h-6.48c.31-.65.46-1,1.08-2.62.43-.17.5-.22.5-.38s-.07-.22-.31-.31l-2.42-.84a19.5,19.5,0,0,1-7.68,10.68,6.1,6.1,0,0,1,1.8,1.94,25.61,25.61,0,0,0,5.81-6.17h6.82a16.64,16.64,0,0,1-2.76,6.12,5.59,5.59,0,0,1-.72-.67,19.94,19.94,0,0,0-4.22-2.9l-1.49,1.92a22.75,22.75,0,0,1,4.73,3.79c-1.44,1.73-4.22,3.48-8,5.09a6.27,6.27,0,0,1,1.54,2.23c4.54-2.09,7.2-4,9.31-6.55,1.9-2.33,3.12-4.9,4.27-9.17.36-.17.53-.34.53-.53s0-.12-.26-.36Z"/><path class="cls-1" d="M270.11,180.28h2.66c0-.86,0-1.9,0-3.5V172c0-.89,0-1.51,0-2.74.31-.22.46-.34.46-.48s-.17-.22-.43-.24l-2.66-.14c0,.65.07,1.68.07,3.6v4.8C270.18,178.36,270.15,179.46,270.11,180.28Z"/><path class="cls-1" d="M281.79,167.9l-2.9-.24a17,17,0,0,1,.19,3.65v4.85c0,3.82-.48,5.5-2,7.15a12.25,12.25,0,0,1-5.26,3,6.94,6.94,0,0,1,1.49,2.35c4-1.66,6.31-3.53,7.37-6,.77-1.73,1-3.41,1-6.84V171.3c0-1.39,0-1.78,0-2.54.38-.22.5-.36.5-.55S282,167.92,281.79,167.9Z"/><path class="cls-1" d="M305.29,170.85a35.44,35.44,0,0,1-2.33,3.91,25.9,25.9,0,0,1-5.18,5.33,35.7,35.7,0,0,1-8,4.51l1.56,2.35a.62.62,0,0,0,.41.29c.17,0,.26-.14.36-.48a38.6,38.6,0,0,0,8.28-5.38,27.18,27.18,0,0,0,6.67-8.52A8.49,8.49,0,0,1,305.29,170.85Z"/><path class="cls-1" d="M293.51,175l2-2.11a21,21,0,0,0-5.28-4.15l-1.61,2A21.48,21.48,0,0,1,293.51,175Z"/><path class="cls-1" d="M329.22,166l-1.06,1.22a14,14,0,0,1,2.88,2.5l1.2-1.32A15.37,15.37,0,0,0,329.22,166Z"/><path class="cls-1" d="M326.55,170.63l-.34.36h-6.38a11,11,0,0,0,.58-1.3l.53-1.3c.46-.17.53-.24.53-.41s-.1-.24-.34-.31l-2.4-.79a19.14,19.14,0,0,1-1.87,4.37,21.58,21.58,0,0,1-5.18,6.22,7.34,7.34,0,0,1,1.9,1.8,25.72,25.72,0,0,0,5.16-6h6.74a16,16,0,0,1-3.43,7.3c-2,2.42-4.1,3.86-8.13,5.57a5.7,5.7,0,0,1,1.46,2.35c1.49-.7,2.09-1,3-1.49a19.77,19.77,0,0,0,6.29-5.45,20.77,20.77,0,0,0,3.48-8.54c.36-.14.48-.26.48-.43s0-.17-.22-.34Z"/><path class="cls-1" d="M326.29,169.26a14.46,14.46,0,0,1,2.88,2.47l1.2-1.3a16.31,16.31,0,0,0-3-2.42Z"/><polygon class="cls-1" points="4.62 28.71 4.69 29.05 5.11 28.57 4.62 28.71"/><polygon class="cls-1" points="79.29 36.65 78.73 36.44 78.18 36.51 77.91 37.06 78.87 37.13 79.29 36.65"/><polygon class="cls-1" points="76.04 37.96 75.84 37.41 76.46 37.41 76.46 36.3 75.91 36.3 75.35 36.51 75.21 37.13 75.28 37.68 75.49 38.1 76.73 38.79 76.53 38.23 76.04 37.96"/><polygon class="cls-1" points="77.77 41.13 77.22 40.99 77.01 41.27 76.59 41.34 77.77 41.89 78.11 42.38 78.67 42.03 77.84 41.62 77.77 41.13"/><polygon class="cls-1" points="116.89 38.92 116.75 38.37 116.13 38.58 115.1 38.23 115.37 38.65 115.79 38.99 116.75 39.41 116.89 38.92"/><polygon class="cls-1" points="117.37 36.99 117.1 36.99 117.03 37.34 117.23 37.34 117.37 36.99"/><polygon class="cls-1" points="120.69 33.54 120.69 34.02 121.86 34.16 121.86 33.13 121.38 33.47 120.69 33.54"/><polygon class="cls-1" points="117.1 39.55 116.89 39.89 116.75 40.3 117.65 40.92 117.79 40.23 118.13 39.75 117.58 39.75 117.1 39.55"/><polygon class="cls-1" points="119.44 40.58 119.79 40.58 119.79 39.27 119.17 39.41 119.44 40.58"/><polygon class="cls-1" points="116.27 43.76 116.27 43.34 115.58 43.34 115.92 43.76 116.27 43.76"/><polygon class="cls-1" points="122.89 33.27 122.62 32.92 122.2 32.78 122.14 33.27 122.48 33.68 122.89 33.27"/><polygon class="cls-1" points="119.79 38.99 120.06 39.13 119.79 38.79 119.79 38.99"/><polygon class="cls-1" points="120.27 38.16 120.41 37.89 119.79 38.1 120.27 38.16"/><polygon class="cls-1" points="118.82 38.85 118.89 38.37 118.41 38.23 118.27 38.79 118.55 39.13 118.82 38.85"/><polygon class="cls-1" points="121.24 32.64 121.1 32.37 120.41 32.37 120.75 32.85 121.24 32.64"/><polygon class="cls-1" points="118.27 39.75 118.27 40.58 119.03 40.79 118.89 39.55 118.27 39.75"/><polygon class="cls-1" points="121.24 32.02 121.72 32.37 122 31.95 121.24 31.13 121.44 30.78 121.44 30.23 120.82 30.3 120.27 30.57 120.06 30.92 120.2 31.4 119.44 31.61 119.65 32.02 121.24 32.02"/><polygon class="cls-1" points="119.79 32.51 119.17 32.51 119.44 32.99 119.93 33.13 119.79 32.51"/><polygon class="cls-1" points="120.34 33.68 119.79 33.82 120.06 34.16 120.34 33.68"/><polygon class="cls-1" points="119.17 37.48 118.55 37.34 118.48 37.82 118.89 37.89 119.17 37.48"/><polygon class="cls-1" points="121.03 35.96 120.55 35.61 120.34 36.23 120 36.78 119.93 37.34 120.48 37.13 121.44 37.13 121.03 35.96"/><polygon class="cls-1" points="191.82 32.99 191.48 32.58 191.06 32.85 190.86 33.4 191.82 33.4 191.82 32.99"/><path class="cls-1" d="M215.35,8.28l.21,1,.48.35,1,1.52.76-.07.14.48.35.28,2.28.28.55-.21.48.28.83-.28.48.14,1.93-1.31.48-.07.21-.62.83-.76L226.74,7l-.14-.55.41-.28-.28-.62V5L226,4.35l.14-1L225.56,3l-.69-.14.35-.69-.48-.28-.69.07.14.9-.9-.14.55-.76V1.38l-.14-.21L222.53.76,220.87.55l-1.59.28-.9.41-.83.69-.55.14-.48.35-.76.9-.07.9L215,5.45l.28.76Zm4.76,2.14-.48-.14.14-.48h.62l.14.41Zm-.76-3.8.62-.28-.14.28Zm1,2.28V8.28l.35.14Zm2.28,2.28h-.28V11h.28Zm-.48-.62.14-1.1.35.07-.07.62.21.41Zm.62-1.24.14-.55.21.35Zm2.83-1.66-.41.48-.35-.35-.48.28-.21.48-.62-.14-.14-.62.55-.28.34-.55.83.62Zm-1.73-2.55.07-.41.62-.21.35.48-.62.14.41,1-.55.14-.55-.14-.41-.28Zm-1.31,2.07L222,6.9l-.35-.41.14-.48,1,.41.28.35.14.62Zm.48-3.59-.28.48-.14-.48ZM221.28,4.9l.28-.28.55-.07.48.14.35.41L222.18,5l-.9.41Zm-.14,2.21.28.48V8l.55.62.07.55L221.35,9l-.48-.41.41-.35-.35-.34-.28-.41V6.9Zm-.48-5.45h-.28l-.14-.14ZM219,4.35h.35l.28.62.62-.28.62.14-.35.55-.41.35-.62.28-.21-.62-.35-.48ZM218.87,6l-.35.21-.21-.35Zm-1.66,1.1.14-.14-.14.41Zm-1.45-1H216v.21h-.28Z"/><polygon class="cls-1" points="323.75 18.63 323.75 19.19 324.16 19.19 323.75 18.63"/><polygon class="cls-1" points="321.19 18.5 321.75 18.29 322.09 17.94 322.09 17.53 321.75 17.74 321.33 17.94 321.19 18.5"/><polygon class="cls-1" points="318.92 23.74 319.05 24.36 319.67 24.36 319.74 23.81 319.47 23.46 318.92 23.74"/><path class="cls-1" d="M375.92,32.16l-1-.41-.41-.35-.62.21h-.41l-.62-.21-2,3.59h-.41v.9l-.48.21-.69,1.38-.41.28-.55.14-.21.55-.76.9-1.73,1.52-.28.48-.62.14-.48.9-.9.62-1.93.9-.48-.14-1.24.69-2.14.62-2.28.07-1,.35-1.79-.21-.55-.48h-.62l-.62-.55-.9-.14-1-.76-.48-.21-.48-.9h-.55l-.35-.28.35-.14.28-.35-.69-.9.14-1,.35-.41.55-.28h1l1.31-.62.48.07.48-.21.55.35.28-.35.48.48,2.83-.55.9-.35.35-.35,1.1-.14,1.59-.83,1.1-.34.35-1,.41-.28v.62l.69-.14.28-.55.07-.55.55-.07,1.52-1-.21-.55.07-.48.34.21.41-.07,1.52-2.21.76-2.42.14-1.1-.41-.55.41-1.1-.28-.62V23.12l-1-2-.34-1-.48-.28L364,18.63l-.9-.55-.69-.07-.69-.76-.83-.62-.48.07-1.45-.55-.48-.07-.55.14-.41-.35-1-.28h-1.17l-2.62.62-.41-.21h-.55l-.83.48-.76-.28-1.17.62h-1.17l-.9.55-1,.35-.41.76-1,.41-1.73,1.17-.69.76-.48.21-.76.69-.9,1.31-.76.69v.76l-1,1.17-.55.9-.07.48-.41.28v1l-.76.48v.62l-.9,2.48-.21,1,.21,1-.21.48-.09.64-.32.12-.14.62-.9,1.17-.14.62-.76.55-.28.41-.21,1.1-.76.14-1,1.24-2.42,2.14-1,.62-2.07,1-2.28.14-1-.35-.28-.41-.76.14.07-.55-.48-.35-.14-.9-.62-1.52.35-.28.21-.48.34-2.28.41-.55v-.76l.48-1,.21-1.24.35-1.1.35-.48.07-1.17.21-.55.35-.41v-.55l-.14-.35.62-.9.69-2.21-.41-.62.9-.28-.21-1.24,2.07-.55,1.1-.14,1.1.21.48-.21,1.17-.07.41-.28.76.55,1.79-.14.62-.35.48-.76.76-2.35.14-1.66.69-.76V16.84l-.9-.62-1,.41-1-.41-1,.07-.48.21-1.17-.35-1.1.21-.48-.28-.62-.14L328,15.6l.07-1.73,1.45-4.07.28-2.21.55-.83.14-.48-.14-1.17L329.82,5l-1-.07-.55.14-.76.69-.9-.41-1,.48-3.38,1-2.14.76-.14.55-.62.83-.07.62-.76,1.93-.07.48.14.62-.48.83-.28,1V15l-1.45,1-.48.14h-1.59l-1,.34-.62.83-.21.55-.07,1.24-.62.69-.35,1-.21,2.48,1,.48,2.14.55-.69,3.45L313,29.88l.28.76-.41.28-.34,1-.41.41v.25l-.2.16-.13.54h0v.05l-.12.5-.76,1.38-.35,1.1L309.19,38l-1,2.07L307,41.2l-1.24,1.73-.55.14-.28.41-.83.69-1.45.55-1.1.21-1.17-.83-.28-.41V41.75l.55-2.07-.14-.48,1.17-1.52-.07-1.1-.21-.83.62-.14,1.38-4.69-.21-.62.62-.76.14-.48-.14-.55.41-.28.07-.48.28-.28-.28-.76.69-.35v-.62l1.1-3.38.48-1,.28-1-.07-1,.48-1.59V17l-.41-.41-1-.35-3,.07-1.1-.21-.41.21-1-.07-.48.35-.69.28-1.1-.35-.83,1.31L297,19l-.41.28-.35,1,.41.48.07.41-.48-.14-.28-.28-.14-.48-.9-.62-2.35-2.21-1-.62-1.1-.41-1.31-.21-1.1-.55-.9.28-.41-.28-.55-.07-1.66.41-1-.07.14.76-.48-.62h-.62l-.83.48-1.17.21-1.59.55-.76.9-1,.48-.62.69-.41.28-.55.14-1,1.38-.83.76-1,.62-.48,1-1.93,2.83-.41,1-.21,1.1-.62.48V30.3l-.69.48-.14,1.1L267.79,34l-.14.9v.57l-.06.05-.28.48.24.53,0,.09h-.62L265,39.89l-1.31,1.73-1.59,1.45-.21.62-.41.41-1,.35-.9.55-1,.14-.48-.21-.69-.83-.48-.28-.14-1,.14-1.24.62-.62.28-1.66,1-2.9v-.69l-.14-.48.69-.28-.07-.41-.07-.48.48-.48-.14-.48.21-.9.48-.9.35-1v-.62l.62-.9-.07-.55.28-3.45-.07-1-.48-.76.14-.41-.07-.55-.41-1.17-.07-.69-.55-.35-.35-.55v-.62L258,17.12l-1.17-.28-.69-.76-2.35-.34h-1.1l-1,.34L251,15.8l-1,.48-.55-.07-1.79.9-.41.35h-.55l-.41.21L245,18.77l-.48.21-.62-.76-.14-.48.21-.48-.83-.55-1-.28L240,16.29l-2.21.28-.35-.21h-1.59l-1,.14-.28.41-.48.35-.21,1.1-.48.9-.07.41.14.48-.35.35-.55,1.45-.48.62v.76l-.28.41.14.62-.62,1-.14.55.21.62-.62.83-.62,2.28-.28.48.55.48-.55.35-.34.48.13.47-.08.36-.26.13-.48.76,0,.3-.87,1.22-.35,1v.62l-.62.28L226.25,38l-1.86,2.62-.48.9-.55.28-.62,1-.62.28-.76.9-.69.21-.48.41-.55-.07-1,.48h-1.1l-.55-.14-1.17-1-.41-1.45.28-2.62.41-.48-.14-.69.41-.35.21-.55-.14-.55.07-.55,1-1.79.14-1.66L219,30l.21-1-.07-.55.35-.41.55-1.66V24.57l.41-.35.69-1.45.35-.35-.14-.9.48-.9.07-.62-.21-1,.55-.21.35-.41-.28-.55.28-.62-.35-.35-.41-.28-1.59-.21-1.1.21-.62-.41-.62.21-1.1-.14-.55.21-1-.21-.35.34-1-.28-.41.28-.62.83-.48.21v.62l-.9,2.69v1l.21.48-.41.28-.48.9-.34,1.1-.48.9v.48l-.35,1.1-.35.35-.14,1.17-.69,2.14-.06,1-.14.07,0,.31-.18.25-.32.75-.22.15-.14.55-1.52,2.83-.14.55-.41.35-1.38,1.79V40l-.9.55-.21.55-.62.9-1.66,1.59-2,1.1-1.1.21-.76-.62-.41-.07-.41-1.66.28-.48-.35-1,.35-.28.41-.9-.14-1.1.9-1,.21-1.1.41-1.17.07-.55-.21-.48.41-.21.28-.41v-.69l.62-1.59-.07-.62.41-.9-.48-1.17.9.41v-.69l.62-1.45v-.69l.35-.35.21-.55V24.36l.55-1,.14-.55-.07-.62,2-5.45v-1l.55-.76-.14-.55.76-1.52.62-3,.55-.48.07-1,.9-2.07-.48-.48.62-.14.14-.69-.28-1-.76-.69-.48.07L202.31,3l-2.21.28L198,3.31l-.76.55-.28.55V5l-.28.41-.07,1-1.17,3-.21,1.1.07.55-.35.21-.14.41.07.69-.48,1.1v.62l-.76,1.38-.69,2.62-.41.83.14.62-.35.55-.83.41-.9-.35-.62-1h-.76V18.5l-.62-.83-1.52-.55-.83-.55-.21-.48-1,.07-1-.14-.14.48-.62-.76-.55-.14-1.66.21-1-.21-.55.28-2.14.62-1,.48h-.9l-.83.76L171,20.15l-.14,1.31-.62-.28-.62.9-.55.28-2.9,4.35.07.76-.41.35L165,29.12l-1.38,4.42.21.69-.35.35-.41,1,0,.63-.28.06-.55,1.45-.41.35-.14.55-1.1,1.59-.07.62-1,.55L158,43.06l-.48.28-.07.55-.21.34-.55-.14-1.38.9-.48-.21-1.17.21-.21-.35-.48.14-.28.41-.41.21v-.55l.48-.35.28-.55-.28-.55V42.24l-.21-.55.35-.41.07-.55-.21-1.17-.41-.07-.21-.48,1,.14-.41-.62.9-.14.14-.55-.14-1.24.76.14-.07-.55-.28-.55.55-.35.35-.55-.14-.76.35-.48.41-1.73.28-.48-.28-.28.28-.48.21-1.31-.21-.41.07-1.1-.35-.76.14-.41L155,24.85l-.9-.76-.28-.62-1.24-.62-.21-.48-.55-.69-.76.28-.14-.62h-.76l-.76-.69-.9-.55-3-1.17h-.9l.28-.55-.07-1.1-.21-.55.48-.28.48-1,.35-1.17.35-.41-.28-.41-.35-1-.48-.83-.55-.14-1.93-1.1-.62-.14-.35.28-.41.14-.41-.28H139l-1.38,1.1-.69.14-1.86,3.11.14.62L135,17l.21,1.17,1.93,3.52-.41,1-.35,1.73-.62,1V26l-.28,1-.55.83-.35.28-.21,1.24L133,31.88l.28.48-.35.14h-.55l-.21.62-1,1.31-.48,1.17-.48.21-.69.69-.62.07-1,1.31-.76.21.14.69-1.17-.21-.35-.35-.07-1.17-.21-.48.48-.21.21-.41-.83-.34.41-.35.69-1.38.21-1,.14-3.52-.41-.9-.21-1.1.21-.9-1.17-2.55-.07-.69-.41-.28-.62-1-.76-.14.35-.62-1.24-1.1-.62-1-.55-.14-1-1-1-.35-1.79-.9-1.1-.21-1-.41-1.24-.21-1,.14-.41-.28h-.41l-.41-.21-.41.14-1.1.07-.9-.35-1,.21-.35.41-.62-.28-1.79.41-2.14.76-1.79,1.17-.62-.14-4.07,2.76-.48,1-.41.35-.55.21-.35.76-.48.28-.69.69-1.24,1.66v.69l-.62.83-.07.69-.76.48L90,33.68l-.09,1.54-2.45,2.25-1,.55-.07.55-.28.21-2.55-.07.21-.55-.07-1.1.9-.55.83-6.35L85,28.57l-.14-2.14-.48-.48-.14-.62-.76-1.52v-.55L83,23.12l-.28-.35L82,21.12l-.62-.9-1-.41-1.59-1.24-.14.07-.21-.48h-.62l-.28-.41-.41-.28-1.1-.21-.28-.41-.48-.28-2.14-.34-.83-.48-.9.28-.55-.21L68,15.74l-.48-.14-.48.28H65.9l-.62.41-2.07.35-.48.55-.62.35-.41-.28-.55.14L60,18.22l-.48.21h-.69L55.06,21.6l-.62.9-.76.28-.14.76-.76.69-1.31,1.73-1.86,3.73-.62,2-.69,3.45,0,.06-4.49,5.95-.55.28L42,42.65l-.62.14-.69.9L38,45.55l-.35.41-1,.41-.35.35-.62-.07-.35.35-2.14.76-.41.28H31.61L30,48.66l-4.49.14-.76-.41-.14.55-.35.35-.55-.9h-.48l-.62-.21h-.76l-.9-.48-1.17-.28-.48-.28L19,46.72l-.48.07-.9-.28-.14-.76-1.24-.69L16,44.58l-1-1-.07-.48-.83-.76-.41-1.17L13,40.93l.14-.9-.69-1.38L11.8,35.2l-.48-.9.28-.41.14-.62-.21-.55-.07-1.24.14-1.17-.07-.48-.28-.48.41-.21.21-.48.21-2.35.28-1,.55-.83-.14-.76.9-2.21L14,21l.28-1.31,1-1.17,1-1.86,1.17-1,.83-1.38-.41-.07-.35-.34.62-.14.62.14,2.69-2.28H22l1.93-1.38h.55l1.1-.76,1-.21.35-.34.41.21L27.81,9l.62.07.35-.41.48-.07,1.17.21.41-.62,1.79.76,1,.28h.62l.35.48,1,.62.21.55,1.17.48.35.41-.76.35-.62,1-.76.76v.62l-.62.21-.41.35-.07.69-.48,1.1.14.62-.21,1.17,1.31,3,.55.83.76.69.62.07,1.45.69L40.1,24l1-.21,1.17-.48h.62l1.79-1.38.14-.69,1.24-1.38.14-.9.35-.48-.07-.69.41-.41.21-.55-.07-1.1.21-1.1-.48-.9.21-.55V12l-.41-1.1L46,10.08l.07-.62-.9-1.17L45,7.11l-1-.41-.35-.35-.21-.48.07-.48-.48-.21L41.48,3.86l-.55-.14-.41-.83-.9-.35-.21-.41-.62-.07-1.86-.76-1-.07L35.13.76,33.54.35H31.88l-.55.14L30.92.28l-1-.21L28.64,0,27.4.14l-1,.35L25.6.28,24,.62l-3.17,1-1.24.21-.76.76-1.1.14-1,.55-.83.69-.55.21L13.6,5.31,12.08,6.76,11.25,7l-.14.76-1.38.9L8.21,10.15,7,12l-.41,1.1-.48.28-.76.76-1,2L3.8,17l.14.62L3,18.77l-.21,1.59-1,1.24-.21,1,.14.48-.41.41-.07.9-.41.76L1,25.6l-.41.62V28l-.34.55.21.76-.28,1v.48l.21.55L0,33l.07,1.1.35,1L.14,36l.28,1.1.41,3.31.69,1.93.07.62.48.9-.14.48.28.48.69.76.28,1.17.55.35,1.1,1.31v.69L8.9,53.28l1,.41,2.76,1.66,1,.35L15,55.9l3.17,1,2.28.14.69.41,1-.21,2.21-.07.55-.14.9.28.55-.28h1.1l.9-.41.9.14,2.21-.55.83-.35,1-.76,1.66-.21.41-.41,2.07-1,2.83-1.73L42,50.24l2.69-2.14,1-1.45.9-.55.55-1,1.38-1.66.21-.55.4-.15v0l.41.76V44l.48.28.55.9.41,1,.55.9.48.35.55.14,1.38,1.59.9.55.48-.14.48.14,1.1,1.17.9.35,3.45.9.48-.14,3.17.14L67.14,52l.55.07,2.14-.76.41-.35.62-.07,2.21-.69.9-.55.69-.76.55-.14L76.46,48l.55-.14.28-.48,1.52-1.52,2.28-1,.62.07,1.17-.14,1.1-.35,1.17-.07.76-.76.62.21.69-.69.41-.21.55.07,2.06-1.71.48,2,.83,1.24.35,1.1,4.21,4.14.62-.07.76.76,1,.55,1.1.07.41.41,1,.21h1.1l1.86.55,4-.28,1,.14,2.55-.83.55.07.41-.35,2.14-.9.35-.35h.41l.35-.48.48-.14.34-.35.48-.21.62-.07,2.9-2.69,1.93-1,.62.14,1.73-.55.55.07.41-.41,1.17-.41.48-.35.76.14,1.17-1,.62-.07.35-.48.69-.28,3.45-3.17v-.76l.9-.55,1.31-2.28.69-.76.14-.9.69-.76.35-1.24-.41-.28,1-1.1.55-1,.48-2.14-.41-.07-.28-.28h.76l.69-.9,1.1-.62,1.1-.07.41.28.28-.35,1,1.38,1,.62-.14.55.62.83.14.55-.41.9.48.83.07.55h-.55l-.48.28.35.14.28.34-.28.48-.62.21.28.76-.48.28v1.24l-.41.35-.9,2.69-.28.41.07.62-.55,2.21.28.55-.55.34-.14,1,.14,1.1-.21.48.28.41-.07,1.38.55.76.07,1.24.76,1.45,2.48,2.14.76-.14.76.55,1.17-.07,1-.21.9.28,2.21-.69,1.24-.14.35-.35.48-.21,1.1-.21.41-.28,1.45-1.59,1.38-.69.41-.35.69-.9.62-.28.76-1.24,1.15-1.22v0l.76,2.07,1,1.79.9.35.14.62,1.24,1,.34.62,2.9,1.17,1.24-.07.9.48.55.07L176,52l1.1.07.9-.76.69.35.35-.35,1.93-.62.69-.76L184,48.59l.69-.76H186l.48.14.48,1v.48l.28.48.69.69,1.93.9,2.21.62.62-.28,1.17.41,1.38-.35.55.07,2-1,1-.35h.41l1.17-1.1.9-.62,1.1-.41.55-.9.55-.14.55-.83.21-.55,1-.62.26-.36.14,1.19.69,2.14.9.28v1l.35.21h.55l.69.83,1.45.76,2.42.62.48-.21.41.07.48.28,1-.41,1.17.14,2.69-.83,2-.9,1.52-1.31.62-.14.69-.9.83-.76.08,0-1,2.87v.62l.28.41.41.28,1,.35,1.17.14,1.24-.14,2.21-.62.48.62h1.17l1-.28.76-.62.21-.41.14-1.24.83-1.38.34-1-.14-.76.14-.62.69-1,.35-.9.14-1,.21-.41v-.76l-.14-.55.76-.62L238.26,36l1.38-4.07-.07-.55-.28-.48.35-.28V30l.48-.14.21-.35-.28-.41-.55-.21-.35-.41.69.07.48-.21.35-.48.62-.07.41-.34.48-.9.55-.07.48-.83H244l.83-.69,1.59-.55,1.1-.07,1.1.21,1,.41,1,1.1.14.48.07,1.24.21.41-.41.69.55.21L250,31.54l-.69,2.21-.48,1,.14.83-.28.48v.69l-.62.62.21.48-.07.41-.48.41-.62,2.62-.21,3.11.21,1.1-.07,1,.69.62.07,1.17.48,1,.62.9,1.73,1.24h.55l.41.41.41.21,1.24-.07.55.21.69-.35.48.28.62.07.55-.14.83-.62.55.21,1.1-.21,1.31-.9,1.1-.21.48-.28,2.07-1.93,1.45-.76.62-.9.14-.62,1.73-1.38.36-.52.25,1,.41.83.21,1L270.82,49l.35.76,2.07,1.38,1,.34,4.28.83h1.1l.55-.28.55-.07.69.14.76-.55.9.14,1.79-1,.28-.41,2-.9,2.69-1.79L291,48.79v.48l.69.76,3,2.07.9-.55.21.41.41.21L297,52l1.52.28,1-.07,1-.35.83-.55,1-.35H303l.83-.34,1.24-1.1,1-.55.48-.14.21-.76,1-.48L309.12,46l.9-.62.14-.55.2-.23v.23l.55,1.59.35.41.14,1,.62.62.14.55,2,1.59,2,1,2.35.62h2.42l1.79-.48h.55l.62.28,1.66-.62,1.45-.9h.62l.76-.9h.41l.9-.35.48-.41.9-1.17.48-.14.48-.62h.55l.69-.83,2.48-3.38.62.82,1,2.07,1.17,1.79,1,.55.07.48.28.41h.62l.28.41,1.45.9.35.35,1,.14.76.55,2.28.48,1,.35.76-.28.35.28,1,.35,1.1-.07.41-.28.14.41.41.21,1.59-.41,4.35-.55.9-.41,2.28-.55,1.86-1,.62-.76h.76l1.66-1.45,1-.48.35-.48,2.62-2.21.9-1.52.48-.28,1.1-1.31,1.31-1.86v-.76l.76-.69L376,35.2l.14-1.24.28-.41Zm-44.23-15,.35.48-.41-.14Zm-2.21,1h.28v.21h-.28ZM219.08,22.5h.28v.21h-.28ZM36.85,17.74h-.28v-.28h.28Zm8-3.24.34.14-.48.41Zm-5.94-.76-.07-.62h.41l.07.48.41.28-.48.14Zm1.31-1.52L39.41,12l.07-.62L39.27,11l.48-.62.76,1.1Zm.28,2.21-.28.76-.35-.35-.07-.48.21-.48Zm-1,.9.55.07-.55.28Zm.41,1.24v-.48l.41.14.07.48ZM42.17,19l.28-.35.14.35Zm.76-6.63-.48-.14.48-.21Zm.21-2.48.35.34-.76-.14Zm-.69-.55v.21l-.35-.21ZM42,11.11l.55-.14.28.48-1.1.14Zm0,2.21.48.35-.28.14-.48-.07Zm-.35,3.59.28.55-.21.14-.35-.28L41.06,17Zm-.41-1.38.07.55-.35.21-.28-.35-.14-.55.28-.07Zm-.41-5.59.14.62-.34-.14-.21-.35Zm-1-1.31L40,8.9l-.55-.14Zm-.21-3.8-.35.07-.14-.41ZM38.1,9l.28-.35.35.14-.21.48-.41.28Zm.48,3.17.41.07-.21.48h-.55l-.14-.48ZM37.2,7V6.49l.41.14-.14.55-.41.21Zm-.62,1,.14-.21.14-.14Zm-.35-2.55L36.3,5l.35.35.28,1L36.16,6Zm-1.79.83-.55.21L34,6V5.38l.35.14.28.34Zm-.35-2.55.48-.21.35.41h-.48l.14.62.62-.07-.35.35h-1l-.21-.55ZM32.64,7.87l.28.21-.28.21Zm-.41-2.48.14.35h-.28Zm-.35,1.1.41.35-.55.28ZM31.61,6l-.48-.07L31,5.45l.48.07ZM31.4,3.24l-.07.48L31,3.52,30.85,3Zm-2.83.55.62.69-.9-.41Zm-.14,1.45.35.14-.48.35ZM26.78,2.83l.35.21.14.55-.55-.21ZM25.54,4.21l.21-.41.14.41-.55.35ZM25.33,8l-.55.14L24.5,7.8,25,7.66Zm-.76-1.38.28.21L24.57,7Zm-.07-3-.41.48-.14-.35ZM22.84,8.76l.07-.34.14.34Zm.62-3.66v.48l-1,.28.14-.48.35-.21Zm-.62-.76-.14.48L22.29,5l-.14-.48ZM21,10.15l-.28-.48.48.14.28.28Zm.21-1.66-.35-.07-.14-.55.76.28ZM20.5,6.9l.41.21H20.5Zm-.76-.55.41-.14-.28.28.28.14-.41.14Zm-.9.83L19.26,7l-.41.48ZM17.6,9.45l.55.21.48.41-1,.48-.07-.48Zm-3,5.73-.21-.35.35-.21Zm.41-1.1L14.56,14l-.14-.41.14-.62.76.69Zm.62-1v-.28l.14-.07Zm.55-2.21.21-.48.48.21.28.35-.55.83-.41.28.14-.35-1,.14v-.62l.34-.55Zm-1.1-2.48h.69V8.9l-1,.14-.14-.48Zm-.69,3.17.21.48h-.35ZM14,15.8h.55l-.55.28Zm-.28,28.78.28.62-.28-.14ZM12.63,44l.35.62-.62-.14ZM11.59,17V16.7H12ZM11,14.63l.41-.21.48.07.34.35.14.55Zm.76-.48.14-.62.76.48Zm1.24.69-.48.21.21-.48.41-.14L13,14l-.35-.28.35-.34.55.76Zm.69-1.73-1-.34-.14-.55.28-.14h.48l.41.55Zm-1.17-1.66L12.7,11l.41-.21-.21-1.17.48-.21-.28.62.62.35-.21.34-.41.07.14.76-1,.28Zm-.76.14.14.48.34.41.14.62-.48-.76-.55-.28-.07-.76Zm-.9.41.41.07-.28.69-.41-.28Zm-.41-.83-.35.55-.14-.62Zm-.48,3.93.48.14.41-.21-.14.62-1-.14-.21-.35ZM9.8,41.55h.28v.21H9.8Zm-.34-.35.21-.41.28.62ZM10,38.79H9.46l-.28-.41.9.07ZM9.18,40.1l-.55-.21-.35-.41L8.63,39l.48.14.28.41Zm.9,4.62-.21.41-.41.21L9,45.07l-.35-.28-.14-.48.55.07ZM6.76,34.65l-.55-.14L6,34.09l.28-.48.35.34.28.48.41.35H7.8v.35l-.41.9-.62-.21.14-.55Zm-3-3,.48-.14.62.28-.28-.48L3.8,30.5l-.48-1,.48.21.28.41.41.28V30l-.21-.55-.35-.41.28-.76,1.52-.21.55.07-.35.35-.21.55.41.28.34-.48.14-.69.69.14.48.76.62-.14-.48-.76.28-.55L8,27l-.76.41-.48-.62-.55.28L5.59,27l.35-.62.35-.48.48.28.62-.07.69.83.9.41.62.07L9.46,28l-.55-.28L8.7,28l.28.35.07.48-.14.55-1,.28.28.48.35.28h.9l-.14.62-.48-.14-1.59.14-.07-.62L7,30.09,7,29.54l-1.52,1L5.25,31l.48.62-.62.76.55.07.62.28.83-.9v.9l.9-.07.28.48v.48l-.62-.21-2.21-.28-.34.62-.62-.21H3.93l.21-.48.34-.35Zm.07.76-.35.41-.28-.41Zm-.48-5,.41-.14.21,1H3.31l.28-.48Zm3-3v.21L5.87,25,6,24.36Zm-.21-1.45.41.21-.07.35Zm4.28-1.1-.21.48-.35.21-1.1.28-.07-.55v-.55l.55.28Zm-1.1-4.07.55-.21.55-.14.28.35-.76.07v.69L9.66,19l-.28-.21ZM10,24.09l-.41.28-.14-.55.41-.07Zm-1-.14-.21.48.21.48.41.41L9,25.88l-.55-.28L8,25.74l-.07-.28.62-.21-.07-.48-.21-.34H7.8l.14-.48Zm-1.1-.28-.55-.35-.28-.62.48-.14.55.14Zm1.52,5.87L9.32,30l-.41-.14v-.28L9,29.4ZM6.49,31l-.14.35H6.14V31Zm-.62,5.59L6,37l-.41.21Zm.48,1.86v.28L6,38.51ZM7.8,36.3l-.28.48-.62.28L7,36.58l.14-.41Zm-.14,1.52,1.1-1.1,1,.21.07.55L9.59,38l-1.31-.62L8,38.58H7l-.14-.76Zm2.14-4.9-.62-.07v-.76l.69.14.48.41Zm.28-10h.48v.55Zm-.41-1.79.35-.28.55-.07.28.35Zm0-8.28-.35.41-.14-.41ZM8.56,18.5l.41.14.21.35H8.56Zm.14,2.14L8.42,21,8,21.26l-.07-.62.62-.28Zm-.83-3,.28.48-.21.48-.41-.35-.14-.55Zm.41,1.73L8,20H7.25l.14-.48-.48-.41Zm-1.45.69.55.21-.62.07-.28-.62Zm-.48,1.38-.14.48-.35.41-.41-.21.28-.55L6,21.12Zm-.62-3.11-.35.28-.55-.14L5.25,18Zm-.9-1.45v.41l-.35-.14Zm-.21,7.87.48-.41.48.21L5.45,25l.55.21L5,25.6l-.55-.14ZM3.8,26.36l.83.14-.14,1L3.8,27.4,4,27Zm-.55-.55.48.83L3,26.5l-.14-.41-.07-.48Zm-.55.83.35.62L2.42,27Zm-.76,2.14h.21v.28H1.93Zm-.21,4.28-.21-.55.55-.07.48.21-.28.41Zm.83,1.24.14-.48L3,33.61l.35.14.07.55Zm1.17,3.38-.41-.14v-.48h.41Zm.07-2.42-.55.07L3,34.92l.48-.14.62-.07.41-.35.28,1.1.35.35-.35.35-.41-.07-.41-.35Zm.28,8.42v-.35l.55-.14L4.49,44Zm.9.9-.34-.21L5,44.31Zm-.48-3.66.21-.55.41.41Zm.76-2.69-.55-.14.55-.28Zm.21,9.52-.07-.14.35.14Zm1-7.25L6,41v-.48l.62-1.38.48-.07.28.28v.55H6.9l-.14.35.48.28-.35.14Zm.9.83.55-.14.55.14.41.35.14.62-.41-.07-1-.48H7Zm1.1,2.35-.07.62L7.25,44.1l.21-.48.48-1,.41.41ZM7.11,46h.41l.41.28.07.48-.55-.28Zm.69,1.66L7.94,47l.21.62ZM7.11,45.2l.34-.41.55.07.14.62ZM8.42,46l.48.41-.62.14Zm.83,2.83-.69-.41,1.24.28Zm.41-2.55.28-.62.48.14.14.48-.41.14Zm1.17,3.93-.41.28-.07-.55.48-.35Zm0-6.21-.41-.41h.41Zm-.14-1.52-.76.76H9.46l.69-.76.55-.07.41.21.28-.41.07-.48L12,42l-.41.55-.48.35Zm1.66,3.45-.07.55-.28.35-.41.21V46Zm.14,6.83v-.21l.14-.14Zm0-3.66-.9-.62V47.9L12,48l.21.28.41-.28.28-.41-.28-.48.48-.14L13,48.17Zm2.14,3.45-.48-.28-1,.14.21-.62.55-.07.28-.21.41-.14-.21.55.69.21Zm0-2.35v.41h-.28L14.29,50Zm-.21-1.1v-.55h.35l.14.69Zm1.1,5.31h-.21v-.21h.21Zm.41-5.73v-.35h.28l.35.35-.48.55Zm.9,2.69-.55-.41.55-.07Zm.34-3.11-.34.28-.62-.76-.14-.21-1.1.28-1.24-.21.55-1.1.35.28.21.41.55.07.55-.76.28.48v.76h1.1Zm.76,6.69h-.21v-.28h.21Zm.76-3.86h-.35l.14-.35h.21Zm-.35-1.86-.14-.69.41.21.21.35Zm6,.83.14-.21h.21Zm2.55,3.24.21-.48.28.48ZM81.56,27.61l-.28.35-.21-.35Zm-.62.76,1,.9-.14.48-.41-.14-.62.28v-.62l-.9-.48Zm.34,7.11.41.28-.28.48-.48.28L81,37l-.69.55-.21-.62-.35-.41.76-.35-.21-.55-.07-.48.28-.48-1.93-.41L78.11,34l-.35-.62-.62.48V33.2l.48-.48-.21-.41.07-.48,1,.83.28.41.14-.35-.35-.48-.07-.69,1.79.28.28,1-.07.55L80,33l.28-.55-1-.35.14,1.24.34.35,1,.41.28-.48.48-.28.14.55v1l-.62.14Zm-3-5.94L78,29.19l-.07-.41.41-.14h1l.48,1,.41.35-.48.35L79,30.3l-1.79.9.21-.55.34-.34.14-.55.48.21L79,30V29.4Zm2.28,1L80.46,30l.34.28h.41l.21.21-.41.9-.35.41.14-.76Zm-.9-3.24.41.55h-.48Zm-.83-4.07.48.14-.48.28Zm.07,1.79-.07.48-.28-.28Zm-.76-2.28h.28v.28h-.28Zm-.9-1.31.55.14.14.55-.28.21L77.15,22Zm.28,2.21.62.48-.48.21-.48-.21Zm0,2-.14.55L77,25.67Zm-1.24,7.8-.35-.34-.21-.69.48-.14.55.14Zm.35,1.24-.62.41.07-.48.21-.69.28.35ZM76.25,21l.28.41-.21.76L76,21.88Zm.35,7.45-.28.21v-.41Zm-.41-5.87.28.48-.76-.14ZM76,29.33l.48.07-.07.48L76,30l-.41-.48Zm-.62,2.28.48.07-.48.41Zm-1.73-9.52.48-.07.48.21-.35.35-.41.14-.41-.21Zm1.31,3.11-.14.48-.48.14-.14-.41.35-.35ZM72.8,20.91l.48.07L73,21.6l-.48-.21Zm-.9,1,.14.62-.28.55-.21-.62-.41-.55.34-.41Zm-1.17-3h.41l.14.55-.28.41-.35-.41ZM70,21.26l.28.21-.55.14Zm-2.14-1.45.55-.07.35.48-.48.14-.41-.14Zm.62,2.07v.28h-.28v-.28ZM66.38,20.7h.41l-.41.41Zm-.48,1.66-.41.14L65.28,22ZM63,23.67l-.41-.21-.28-.41Zm-2.69.69.48-.14.41.35L61,25l-1-.07Zm-.55-2.14-.48.41v-.48Zm-.62-1,.28.35h-.48ZM57,25.74l.55-.14.35.21-.48.07-.55.35ZM56.86,34h.48l.41-.14-.21.55h-.41Zm.28,6.14v.28h-.28V40.1ZM55.2,29.88l.48-.21.21.55-.14.55-.55.14Zm.34,7.87-.21-.48.14-.48-.41-.35-.34.28-.62.07-.41-.28.41-.28.62.14L54.65,36l-.48-.41.21-.35.41-.14.21.55.62.35.21.35L56,38Zm.21,1.73-.28-.28.21-.14ZM54,33.2l.28-.62.28.62Zm.76.69.14.35-.62.14v-.55Zm.69-2.21-.48.21-.28-.55Zm-1.31-2.14.41.21v.55l-.28.14L54,30ZM53.27,31l.69-.21.07.28-.9.62-.35-.28ZM50.58,42.51l-.41-.21.21-.41.62.34ZM51.24,39l.38-.38v0l.12,0-.28.41Zm1.27,2.38-.48.14-.14-.35.14-.41h.48Zm1.31,5.73L53.68,47l.35.07Zm-.07-3.24-.69.07-.14-.48.41-.07.48-.14.48.35Zm-.48-1.73v-.21l.14-.14Zm1.17,1.79.14-.48.21.48Zm.07-3.8v.41l.21.62-.41-.07-.48-.35-.41.28-.76-1.17h-.9l.14-.34.28-.14,1,.48.48-.28.35-.48.83.55Zm-.14-1.52-.55.34-.28-.62.55-.14.35-.35.35.21Zm1.17,5,.07-.48L56,43l.14.41-.28.34Zm.28,3.73v-.28l.41.28Zm0-4.62-.48-.14-.28-.48h1l.14.41Zm0-1.59L55.34,41l-.14-.55.34-.21.55-.14.14.62Zm.9-12.35-.41-.35-.48-1.1h.41v.55l.35.35h.55Zm.55,12.49v.48l-.41-.48Zm.48,4.28-.41-.48.69-.14Zm-.14-2.42-.28.55L57,43.41l.14-1.52.9.9Zm.55-17.18.62-.62.21.21-.21.48-.76.41ZM59,29.68l-.62-.14.14-.48.41-.21-.07.41ZM58.93,48h-.28v-.21h.28Zm.48-3,.48.14.28.28-.48.21ZM60,47.07l.07-.35.48-.14Zm.9-2.28-.48-.14.14-.41.48-.07Zm1,.76v-.48l.35-.28.14.41Zm5.66,1-.34.21.07-.48.35-.14Zm1.24.62-.41.07.07-.41.41-.07ZM70,34.92l-.76.76-1,2L68,38.92l.21.41v1.52l.28,1-.21.41-.35.28-.07.55-1.1.55L65.55,44H65l-1.59-.35-1-.07-.48.14L60,42l-.9-.62-.55-2.21-.35-2.28.07-1.1.35-1.1-.14-.55L59,32.57V32l.41-.41v-.48l.41-.21.21-.41v-.55l1.24-1.73.83-.69v-.55l.48-.35-.35-.62.35.07.41.35,1.45-1.31.21-.48,1.1-.14.41.28,1-.83.62-.07H69l1.59.48,1.86,1,1.73,1.38-.28.48.9,1-.07.55.14,1.31.21.55-.28,1-.14,1.1-1.17.76-1.24.14-.35.21-.28.41ZM72.18,41l-.35.21-.21-.35Zm-1.31,1.52L71,42.1l.14.41Zm.9,2.07V44.1l-.14-.55h.28l.35.35ZM74,41l.62.14-1.31.9L73,41.48l.07-.28-.28-.48.28-.21.48-.07Zm-.14-1.24.14-.48.48-.21-.07.62-.21.41ZM72.38,40l-.14-.48h.55Zm.35,2.69.55.14-.35.35L72.38,43Zm.41,3H72.8v-.35h.35Zm-.21-1.24-.14-.76.48.14.14.48Zm1.38,1.17-.48.07V45.2h.62Zm-.62-1.86.62.28-.41.21Zm1.17,1.45-.21-.41.69.14v.41Zm.69,1.24h-.21V46.1h.35Zm.69-1.1v-.28l.35.28Zm-.55-1.45-.21-.48-.69.14.28-.9-.41.14-.21.41-.41.21-.14-.55.14-.62h.55L74.8,42l.35.14.07.48.48-.07.55.21-.07.55.35.41.07.41Zm3.17-.69-.41-.28-.48.21-.21-.35-.62.07-.9-.48-.55-.9-1-.48.21-.48.48-.14.28.41.83.48-.14-.55L76,40.3l.07-.48.48.62.35.07.41.35.35-.28h.55l-.28-.9.55-.62-.28-.55V38l-.48.07.21.41-.62.14.55.48-.07.48-.41.41h-.55l.28-.48L76,39.13l-.55-.35.07-.35L74.8,38l-1.1.62L73,38.16l-.14.55.07.35-.76.28.41-1.17-.21-.62.62-.41.28.83.55-.07.21-1-.9-.28.07-.55.21-.35H74l.21.62-.07.55.21.41.55.07-.07-.69.62-1.45,1.1.48.14-.62h1.17l-.14.48.55-.14.21-.48.35.28v.62l.48-.07.28-.28.55-.07-.14.69h-.76l.41,1.1-.07.55H79l.14.62h1l-.41.35-.62-.07-.28.21,1.66,1.66-.21.41-.76-.9-.35.28-.21.48-.76-.14.14.76,1.17-.21.07.41.28.41-1,.14.35.55.07.48Zm.83.48-.28-.41.62.14Zm1-1.45L80.32,42l.14-.48h.34l.14.48Zm0-2.42.41-.34.21.34Zm1.52,1-.07-.55.41.28.21.48Zm-.48-2.28-.14.41-.21-.41.28-.48.48-.35h.55l.28.62Zm12.55-8,.21.35L94,31l-.21-.35ZM93.15,39l-.35-.14v-.35l.19-.13h.15Zm31.19-9.52.28.48v.55l-.9-.55-1.1-.14.35-.55.41-.21ZM123.1,28.3l-.21.48-.62.07-.55-.14.28-.35ZM122,27.05l.07-.55.28.55Zm.9-1.52.35.48v.62l-.35-.41Zm.07,1.24.41.21v.55l-.55-.21Zm-.35-1.38-.28.62-1,.48-.14-.48-.35-.35-.14-.55.48-.07h.41Zm-2.28,1.93-.21.41-.48-.14-.48.07.28-.48.55.07.83-.34Zm.48,1.38-.28-.14V28.3Zm-3.17.35v-.48l.55-.07.21-.55.48.21.14.69-1.1.48Zm.28,1.31h-.41l-.14-.41Zm1-3.86v-.35l.28.21Zm.76-.48.48-.07.41.21-.48.28Zm.14-3.59.69.55,1,.35h.62l-.35.35h-.41l-1-.41-.48-.07Zm-.62-3.31h.28v.28h-.28Zm-.28,2.69.28.48.35,1.24.41.35.28.48h-.41l-.48-.28-.07-.69-.48-1Zm-1.1.62.76,1.45-.48-.21-.34-.35-.14-.48Zm-.28,1.93h.62l.9.48-.14.69-.55-.21-.55.07-.35-.41Zm.07,2.48.35-1.1.62.28-.21.69.35,1.1-.9-.21-.55.07-.14-.62Zm-1.59-4-.14-.28v-.48l.48-.41.28-.62.35.34-.07.55-.62.28.21.48v.41l-1.1-.14Zm-1.79-2.07.28-.9h.35l-.21.69v.9l-.41-.14Zm.62,1.17.41.48-.62-.07-.41-.28Zm-1.1-2.69h.35v.41h-.35Zm-1.17.14.28.62.41.21.55.07-.48.41.28.62-.62.35-.14-.69-.69-1.59Zm1.38,3.93-.14.55-.28-.21-.07-.48Zm-1.38-.9-.28-.07v-.28Zm-.28-3.93-.21.35-.28-.35ZM110,21.81l.41.55-.28.21-.28-.35Zm-1-3.59.28.14-.14.28-.28-.14Zm-.21,2.55.48.14-.48.14Zm-4.28-.9.21.41-.55-.41Zm-.83-1.52.35.55h-.62Zm-1.31,4.76-.21.62-.21-.28-.07-.48Zm-.76,1.24-.34.07-.14-.41Zm-.76.9.41.28h-.41Zm-.9-.41h.28v.41h-.41Zm.21,7.32-.07.48-.35-.14V32l.21-.41Zm-.41-6.63.07.35h-.21Zm-.9-2.35H99v.28h-.21Zm-.55,20,.14.28-.48.14-.28-.41Zm-.35,4.35v-.48l.35.28Zm.21-1.38.21-.48.76-.48.62-.07-.55.76Zm1.66.76-.62-.14v-.48l.62-.14.41.21Zm1.93,0-.28-.41h.41Zm.48.62.28-.14.41.55h-.48Zm.83,2.07-.14-.35.35-.21Zm.83-4.49.14-.62.28,1Zm1,3.31L104,48l.48-.35.41-.62.41.14-.21.62.35.48ZM105.3,46l-.14-.48h.34Zm2.42-.62.14-.55.21.28Zm-1-1.59-.41.28-.41-.28-1.52.07-1.45-.76-.62-.07-2.14-3.31h-.76l.21-.48.41-.28-.48-1.24.35-.62-.14-.55.62-3.17-.07-.48.48-.76-.28-1,.76-.69.28-.48.14-.62,1.17-1,1.86-2.55.76-.07-.07-.83h.48l1-.28,1.31-.07,1-.48,1.1-.07,1,.28.69-.14.83.41.69.14.48.83.55-.07.21.55.41.41.21.69.9.28-.48.76.35.55.21,1.73.21.48.41.41-.55.14.62,1-.21.28h-.55l-.55.62-.07.55-.69-.14-2.21.28-.76.62-.9.48-.62.76-.07.62-.76,1.31.07.69-.28,1.1.34,1,.41,2.28-1,.21v.62l-.21.41-.41.28L108.4,44l.21-.35ZM117,33.26v.28h-.28v-.28Zm-.55,2.55.21.41h-.41Zm-.48-.35-.14-.41h.62v.55Zm-2.28,1L113.3,36l-.14-.55.55-.41.21.35Zm.21,2.48-.35.48-.14.48-.35-.34.07-.48.28-.41Zm-2,1.52-.14-.41.48-.14Zm.07,1.31-.62.21.28-.62Zm-1.24.48v-.41L111,42Zm.14,1.24-.14.41h-.28v-.41Zm-1.79,1.79v.28h-.28v-.28ZM108.61,48l-.07-.48.41-.14.14.48Zm.55-1.38-.07-.41h.62l-.35.76Zm1,4h-.28v-.21h.28Zm-.62-1.73.14-.41.21-.41h.41Zm1-1.66H110l.28-.55.62.28Zm.35-1,.28-.62.41.21.28.34.07,1.24Zm.76-1.45.62-.21v.21Zm.41,3-.41.07.07-.41.41-.14Zm.62-1.73-.48-.14-.14-.48.62.14Zm2.14-.48-.62.21.28-.55.62-.21Zm2.69-1.66-.14-.69.48.07.14.35Zm1.24-.28h-.21v-.28h.21ZM121,40h.62l.14.62-.9.14-.14-.48-.35.28.48.48-.21.41-.41.21-.41-.48-.48.48.28.62-1.1.35-1.24.07-.21-.9.35-.14h.55l-.48-.41-.69-.28-.14-.41-.35-.28-.41.14-.62-.9-.35.48-1.17.28.14.55.62.9.21.55.41-.07.41.28.07.48.55-.21.41.14.55.83-.41.07-.35.28.28.62-.76.14-.28-.62-.48-.48-.55.28-.62.07-1.1-.14-.9-.9v-.83l.76.07-.14-1,.48.28.35.48.14.55-.07.55.48.55.55-.34.62.07-.28-.41-.55-.07-.55-.28.48-.76-.48-.55-.55-.21.28-1.17.9-.14.62-1.38-.35-1,.62-.21.76,1,.41-.35h.48l-.14-.48-.41-.28.28-.41.76-.48.48.28.28.35.41-.21.21-.28-.62-.76L117.79,34l.9-.14-.14.62.62.83.48.21.28-.41-.35-.48-.55-.41.28-.76-.55-.35-.48-.14-.14-1.17.76.14.28-.14-.41-.76-.07-.48.55.21.55-.21.41-.41-.62-.14-.28-.48.07-.41.35-.21h.62l.07.69.35.21,1.45-.41-.14.62-.35.41,1.17.9-.34.21-.21-.21-.28.21.55.9.55.21.28.41-.07.48-.69.9-.55.28-.55.07.07,1.17-.21.48.55.35v1.45l-.28.48-.48-.14-.07,1-.35.28Zm-4.21,1.79-.41.14-.28-.35-.07-.55h.62l-.07.41Zm6.35-1.38-.41-.35-.69-.76-.14-.34h1l.28,1Zm1.1-6.07-.69.76-.76.55v.76l.48.55.35-.55.41-.07-.69,1.38-.69.14-.14-.55-.07-2-.21-.55.55.14,1-1,.48-.14Zm0-3.31-.21-.35.55.14Zm.55,7.18-.14-.55.55-.21Zm5.8.48-.21-.35.55.14ZM138.08,30h-.55l.28-.21h.48Zm.83-5.31-.28-.28.14-.48.55.14Zm1.24-1.24-.21-.28.48.07Zm-.07-1.93.07-.69.14-.35.28.48.14.76Zm2.69-3.86-.41.55-.14-.55Zm.07,1.93-.35.35.28-.48Zm-.62,1,.62.14-.07.48-.48-.28-.41.14ZM141.46,18h.41l.07.62h-.48Zm1,5.73-.41.48-.48-.14-.28-1,.41-.21.48-.21.48.41.28.48Zm1.38-3,.14-.35.28.35Zm1.45,2.62.07-.41.35.21.07.41Zm-1.45,18.91-.28-.14v-.48l.41.21Zm8.83-5v-.21l.07-.14Zm.69-2.14-.48.14.28-.55h.48ZM153.19,34l-.41.21-.21-.41Zm-1.38-6.63-.41.55-.14-.55Zm-.69,7.32-1.24-.48-.28.35-.41-.41-.21-.62.62-.07.41.35.55-.28.21-.62h.62L151,34ZM149.46,39l-.9-.07-.76,1-.62-.21-.35-.55.62-.07,1-.41.21-.35.28-.41.62.62Zm.14,1.52v.55l-.55.07-.21.69-.62-.14.35-1,.14-1.17.41-.07Zm-2-6.35-.28.48L147,34.3Zm-.14-2.9.35-.41.76-.62.07.41-.28,1.1L148,31.4Zm-.14,4.14.9.07-.41.48-.21.62-.35-.35-.41-1Zm.83,2.48-.34.21v-.48ZM148.08,34l-.48-.48.41-.41.55-.21.55.21-.83.48Zm2-2.07.07-.48.21.69Zm.28-2.76-.48.55-.14-.41Zm-1-4.69h.21v.28h-.21Zm.48,3L150,28l-.41.21-.21-.48Zm-.35,3.38.21-1h.55l.35.28.28.9-.76-.76-.14.48.35.28-.35.28-.14.48-.62-.48ZM148.36,29l.21-.48.55-.21L149,30l-.62-.35Zm-.28-.83-.48-.48v-.62l.41.28.14.48Zm-1.73-7.45.21-.28.28.48-.69.14Zm.07,3.45L147,24h1.1v.69l-.35.28-.28-.62-.9.62-.48-.48Zm-.14,2.28.55-.14v.35Zm.69,10.7.21-.28.21.21-.07.41h-.62l-.28-.34Zm-.9-3.31-.14.41h-.41l-.14-.41Zm-.83,11.94-.34-.21.14-.41.35.14ZM145,43l.14-.55.07.55Zm0-2.35-.28.41-.34.14v-.48l.48-.41.14-.62.35.28.14.48Zm.62-1.66-.41-.35V38l.41.48Zm.14,5.87v-.35l.28.35Zm.62-1-.62-.21.41-.48.62-.14.28.83.07.69Zm.62-.76.21-.48-.41-.48v-.69l.28.55.83.83.14.07Zm1.31,6.07-.41-.21.55-.28.35.41Zm0-1.79-.48-.21-.28-.41.21-.41.34-.14.69,1.1ZM149,45h-.41v-.35H149Zm1.52,1.79h-.28v-.28h.28Zm.14-.9-.48.14-.07-.62-.48-.28-.34-.48.62-.14.9.9Zm0-1.66h-1l-.34-.76-.69.28-.35-.9.76.21.41-.28.35-.55.55.21.14.48.48.07ZM150,38l-.14-.48h.48l.14.62Zm.48,1.17-.14.55-.35-.55Zm.14,1.52v-.21l.41.21Zm0-.62v-.48l.62.14Zm.48-1.24-.48.14-.14-.28.35-.21.41-.07Zm-.55-1.86-1.1-.48-.35.41-.14.62-.41-.21-.21-.41.21-.62.76-.21.9-.69.41.41.62.21-.07.9.35.28Zm.48-8.07.48.07h.41l.62-.21-.41,1-.48.21Zm.83,1.93.55.28-.55.07ZM152,49.62v-.55l.35.28Zm44.91-15-.21-.62.41.07.07.41Zm-.14-2.69-.21-.41V31l.34.41.55.28Zm-.9-2.21-.35.35-.62,1.52-.34-.35-.55.07.14-.48.48-.21.28-.35-.41-.48.35-.35.48-.21.35-.35.35.41.55-.28h.48l-.21.48-.41.28Zm.55.55-.14.76-.41-.21.07-.55ZM193.76,37v-.28l.41.28Zm.48,3.11.28.48-.48.07-.28-.62Zm-.62-9.66-.48.07-.14-.62-.76.69-.48-.07,1-1-1-.62.21-.28.28-.21.48.28.14.62.28-.41h.48l.28,1.24Zm-.48,2.14h.28v.21h-.28Zm-.48-.83-.14-.35.41-.07.21.41Zm-3.59-5-.62.14-.14.41-.76-.14v-.48h.69l.55-.21Zm-.28-3V23.4l.41-.14.07.28Zm.41,3.86h.48l-.07.41-.41.21-.07.41-.07-.55Zm1.38-1h-.28l-.14-.28.55-.14Zm.76,1.24-.28.41-.48.14v-.76Zm-1,1.31-.21.69-.41.07.14-.55.14-.62Zm-.9-3.73v-.35l.28.21Zm.28,5.94.62-.14.55.21-.14.35-1.38.14-.14-.21Zm.9-.69H190l-.14-.41.41-.14,1,.14Zm.55-1.66.35-.41.21.55-.48.35Zm-.28-2.07.21-.48h.41l.48.21.55-.07-.41,1.1ZM193,28.43h.28l-.41.28Zm-.14-2.28.41-.62.41.28.35.35.41-.48.35.14.07.41-.55.55-1-.34Zm.55,1.52.48-.28,1.17-.48-.07.69-.21.48-.55-.14-.35-.35Zm1.86-.21.48-.07.41.07-.21.41h-.48Zm2.42-4.62.41-1.24.9.21-.21.55-.41.41Zm.9,2.21-.35-.48L198.1,24h.55l.48-.14Zm.76-3.59-.41-.28-.48-.9.28-.48.9.35Zm1.31-1.79-.62.14.07-.41.14-.35.41.14Zm-.76-2.14v-.69l.48.28-.14.55Zm.76.14V17l.48.28Zm.62,3.38-.48-.35h.62Zm.48-3.8.14-.48.28.48Zm-.07-4.35.07-.48.28.28Zm.07-3.73.41.28-.48.21-.41-.07ZM201,14.35l.41.21v.62l-.48-.14-.28-.35Zm-.76,1.1.41-.14.14.35-.28.35-.48-.35-.14-.35Zm-.62-4.55.35.34-.21.41-.28-.28Zm-1.24-5.52.21.41h-.35Zm.14,8.42.35.55-.28.21-.55-.21-.41-.35-.28-.48Zm-1.38-1.31.48-.07-.21.41-.48.07Zm-.21,3.86.55-.14-.41-.76h.48l.83-.76.07.62.9-.14-.28.48-.55.21-.14.62.41.41.55,1.1.41.41-.28.62-.14-.41-1.1-.14-.41-.41-.62-.21-.28-.48h.69l.21-.41-.21-.48-.55.21-.48-.07ZM195.07,18l.35-.28.55-.07.07-.41h.55V18Zm1.38,1.1-.14.55-.35-.35.07-.55ZM196,9.87l.21.21-.07.55-.35-.35Zm-.62,5.45.41.28-.41.41v1l-.48-.28Zm-.62,0h-.28l-.14-.14Zm-.48,2.21.35.14-.28.76h-.62l-.14-.55Zm.21,1.52v.28h-.21V19Zm-1,1.17.35-.21.21-.48.48.41.48-.28.28-1,.21.28-.07.48.28.35.14.48-.14.48-.55-.55-.48.21-.28.35-1.24-.07-.28-.48Zm-2.14,1.73.41-.21.62-.07.28-.48,2.14.41-.14-.41.07-.07,1,.62,1-.76.55-.28-.48-.62.14-.41.07-1,1.17.41.28.48-.41-.14-.35.14v.55l.35.76-.62.21.21.41-.14.41-.35.35.14-.76-.35.35v.55l.21.55.62.69-.35.14.35.14-.48.62v-.76l-.69.14L196,23.6l.28-.48.07-.48-1.66.62-.48.48,1,.28.62-.14.62,1,.9.76-.34.21-.41-.21-.41.76h-.9l.28-1h.76l-.41-.21-1-.21-.35-.35-.28.41-.62.07.07-1-.35-.35-.62-.14-.48.9.14.62-.28.41V23.46l.41.07.21-.55.9.41,1-.76.55-.28-.07-.55-1.45.9-.62-.07-1-.41V23l-.48.41-.48-.55Zm-.41,2.9.55.07.14.41.76.48-.41.28-.9-.07v-.48l.28-.28-.48-.14-.41.9-.41-.35.35-.9-.21-.48Zm-1.1-2.48.48.14-.21,1.24-.34-.41.14-.35Zm-.48-2.83h.21v.28h-.21Zm-.28,2.07.41.14.21.35-.48.14-.48-.21-.21-.41ZM188.51,24l-.35-.14V23.6l.35-.14Zm-.21-4.69v.35l-.41-.35Zm-.41,6.49-.14.35-.48-.14-.14-.48.48.07Zm-.62-6.49-.35.07-.14-.48Zm0,4.14-.28-.35h.41l-.21.62h-.41Zm-1.93-.35,1.17.14-1.73.55-.34-.21.34-.28Zm.55,1.17-.41.48-.14-.41Zm-1.17-3.11-.55-.35-.07-.55.28.28.48.14ZM184,18.36l.48-.21-.28.62h-.48Zm.07,4.07.21.41-.48.28-.69.14v-.55l.41-.14.21-.35Zm-1.45.55.21.41.41.21-.28.55-.41-.35-.62-.28-.34.07-.48-.21.07-.41.55.14Zm-.9-.76v-.48l.35.48Zm1-2.42-.28-.41h.62Zm.62.76-.35.21-.21-.35Zm.14.9v.62l-.35-.28-.55-.07.14-.55Zm-1.59-3h1.17l.28.62-.62-.14h-1Zm-.21,2.42.28.62-.41-.21Zm-.28-1.17.07.48-.35.28-.55-.83-.07-.41Zm-1.79.14.41.41-.14.62-.41-.48Zm.9,2.83-.35.62-.41-.35-.35-1.1Zm-1,2.28-.48.21v-.35Zm-1.1-3.59h.76l-.21,1,.07.55-.62-.14.14-.48Zm-.9-1.38.28.48-.69-.28Zm-.62,1,.55.21-.21.62-.35-.21Zm0,2.28.14.62-1.17-.28-.41-.35v-.55l.55-.21v.9Zm0,3.17v.28h-.28v-.28Zm-.69.21-.62,1.59-.35-.41v-.62l.48-.21.14-.69Zm-.69-5.38.21.48-.62-.28Zm-1,3.38.14-.14.41.14v.28l-.14.14h-.28l-.14-.14Zm-.14,1.24.55-.07v.62h-.62Zm0,2.69.41.14-.62.28Zm.07,1.52.35-.14.41.07-.21.41-1.45-.21.21-.48h.41Zm-.9-9.11h.21v.21h-.21Zm-.14,2.76.21.48-.34.55-.07-.48Zm-.28,1.79h.55l-.35.28h-.48Zm.28,6.76-.28.35-.28-.21Zm-1.17-4.62-.34.41-.41-.41.55-.21Zm.14,1.93v.48l-.48-.28.21-.48ZM170.43,41l.14-.41.55.28-.28.41-.48.21Zm-.76-2.83.21-.41.34-.14.07.62.28.41-.21.41Zm.9-2.28-.35.35h-.41l.41-.48.55-.28.41.41Zm-1-5.25h.62l.21.35-.55.14ZM171,34.85l-.28-.55.48-.07.14.35Zm-.55-6.42.14-.62.41.41Zm.41,4.9.14-.69.41.07.07.48Zm.76,6.21h.28l-.41.28Zm-1.1-13.66.48.28.35-.41.55.07-.48.21-.69.55-.48.21-.48-.34-.21-.62Zm-1,1.59v.21l-.35-.21Zm-.76.48.62.62.28.55-.55-.28-.35-.41Zm.55,7.52v.41l-.41-.28ZM169,40.24l.48-.07-.21.41-.34.14Zm-1.59,2.62-.48-.41.62-.07Zm1.38-1.66v.41l-.34-.41Zm-.21,3.73h.28l.07.48-.35-.14Zm.62,1.86-.41-.35.28-.55.28.35ZM169,42.44l-.07-.62.62.28.41.48-.55.14Zm1,2.35.35-.48.48-.28.55.21-.28.35Zm1.79,1.45-.55-.21.62-.14.55.14Zm.48-2.62-.34-.41.48-.35Zm.28-12.35h-.41l.14-.35h.28Zm.76,15.18H173V46l.41.14Zm0-3.73-.41-.14.28-.35.41.14Zm1,1.93H174v-.28h.28Zm1.38,1.79-.41.35-.35-1.24.48-.07.28.41Zm.14-1h-.28v-.48h.28Zm1.93,3.17.35-.48.07.35Zm7.8-3.66-.35-.41.69.14ZM187,36.51v1.1l-.83.62L185,40.1l-.55.21-.07.9-.69.14-.35.41L180,43.62l-3.59-.28-1.66-2-1-1.93.07-.55-.21-1.59.07-.48.35-.41-.48-.76.48-.35.62-1.73-.14-.48.76-1.38v-1l1.24-1,1.31-1.73.41-1.1.55.07.48-.14L180,26l.83-.41.62.07.41-.41v-.62l.48-.28.48.9.69-.14.76-.83.07.41-.34.35,2.9,1.1.48,1L188,28l.35.14.07.69.28.48.55.34-.28.35-.48.07-.07.76.21.48-.28.48.34.83,1.31-.14v.48l-.55.28H190l.62-.83.55-.35,1.31.9.48.14.07.55-.21.34.35.35.41.9-.48-.35-.62.14-.14-.76h-.28l-.34.76-.76.07-.48.28-.83.76h-.62l-.41-.21v-.41l.69.28,1.24-1.1.14-.69-.55-.14h-1l-.62-.14-.07-.9-.55.28.48.83.14.55-1,.41.14,1-.41.21Zm1.45,2,.62-.21.48-.28.28.28-.62.62Zm.07,2.83-.48.14-.48-.14.14-.41.62.14Zm1-4-.28.55-.21-.41.07-.48.62-.76.62.14.41.35.41-.21.21-.9h.48L192,36h.55l-.28.48-.41.35-.62.83-.41-.28-.83.28-.14-.62Zm-.55-2.28.14-.76.41.35.21.41Zm-.07,7.73-.55.14-1-.35.28-.21,1.24-.07.41.14Zm0-1.93-.21-.55v-.76h.41l.35,1.38Zm1-2.07.41-.21.21-.41h.48l.28.21-.14.62.07.48.48.34-.28.76-1-1.45Zm1.93,1.93v.48l-.55-.48Zm-1.52,1,.34-.9.35.41.14.55-.07.28-1,.14Zm.21,5.45-.35-.48.07-.69.41.21Zm1.38-2.42-.48.21-.07.55.34.14-.21.14-.55-.14-.28-.41.62-.21.28-.48.62-.21Zm.48-6.69-.48.07.14-.41.69.14Zm.35-1-.07-.41.55-.76.14.48-.21.48Zm.07,10.08v-.41l.41.41Zm.14-6.35V40.3l.48.28Zm1.17,5.8-.41.14-.14-.62H194l.35.14Zm.07-3.86-.21-.21.41-.14Zm.69,3.52-.41-.62.55.07Zm.14-9.66h-.62l.07-.69h.55Zm.48.34h-.35l.07-.34h.28Zm-.14-1.79.14.69h-.28l-.83-.9.14-.69.35-.48-.21-.48h-.41v-.55l-.07-.41-.35-.21v-.28l.41.28.62.14.48-.55.41.34.14.48,1,.35.14.48-1.1-.35-.41-.28-.14-.35h-.48l.9,1.66-.21.41-.55.21Zm.28,1.52.76.28-.28.14v.41l-.41-.28Zm14.21,2.42h-.07l0,0Zm.14,1.38-.44-.95.13-.23h.18l.28.9.35.28Zm1.38-.48-.41-.14-.14-.41.69-.14Zm.14-2.69-.35-.14-.06-.12.07-.25.47.09Zm.62,3.31-.41-.41.69-.14Zm.21-13-.28-.48h.83Zm4.07-.9-.41-.07L216,26l.28.28Zm1.24-1.73-.48.07-.14-.41.28-.35.48.14Zm.14-1.52-.62.28v-.55l-.14-.41-.69-.07.28-.41.9-.35-.07.62.55.28Zm1.24-2.35-.34.41-.28-.62Zm-.9-1.79.35.35-.14.35-.41-.14Zm-1,.69-.28.28-.41.07.14-.48Zm-.9-.76.14-.41.21.62ZM216,18.15l.35.28-.35.07Zm.48,3,.48-.35h.69l-.69.62-1,.35-.28-.48Zm-.76.9-.14.55-.34-.28ZM215,19.32l.14.35h-.48Zm-.76,1,.41.21.21.48-.21.21-.55-.35Zm.07,3.93h1.1l.62.28v.62h-.55l-.07-.62-.48.28v.55l-.21.48-.28-.41-.62-.83-.07-.55Zm-.69,3.59.21-.14.41,1h-.41v-.48Zm.14-4.56.07.48-.28.07-.48-.21ZM213,26.71l.55.21-.69.41ZM213,29l.76.48-.48.14Zm.55,13.32H214l-.07.48Zm.48,5.45.14-.35.41.48Zm.28-14.15h-.62l.14-.62.55-.76.62.83Zm.83-4.14-.28-.48.48-.28.41-.48.55.48-.48.35-.07.28Zm13,16.91v-.21l.41.21Zm4.21-.21.14-.28.14.35Zm1.52-21.67v-.55h.41Zm.9-1.66-.28-.28.07-.48.21.28Zm5.11-3.59.28.35-.14.41-.21-.35Zm.14,4.83-.14.41-.35-.28.07-.35Zm-.41-1.24v.48l-.35-.48Zm-2.55-3.59-.07.55-.21-.35Zm0,2.28.55-.28.35.41h-.69l-.55.28ZM235.7,32.92h-.28v-.28h.28Zm-.14-3.31.14-.55.34.41Zm.28.9v-.28h.48Zm.62-5.66h.76l-.35.76-.35-.21Zm.76,5.52-.35-.28.35-.28ZM237,28.3l.14-.41.21-.35.21.48Zm.76-1.52h-.62l-.28-.48,1.24.14Zm0-1.52V25H238v.28Zm.83-1.38-.41.35-.62.14-1.17-.21-.41-.28.14-.69.35.28.14.48.55-.14.35-.34.41.28.83-.41Zm-.07-1.31.21-.35.21.35Zm.83,2.9-.21.07-.14-.48.14-.41.48.35Zm.69.14-.28-.48.48.07.28.35Zm2.14-8.76.21.35-.21.28Zm-.35,3.8-.35.35-.21-.35Zm-.9-1.66h.28v.41h-.41Zm.55,3.59-.28-.35.41.07.35.55Zm.48-3.17-.14-.41.48.28Zm.35,2.69.28-.41.35.14.14.41Zm.35-.83-.35-.35.62-.21.55-.28-.14.76Zm.83,2.21.14-.35.21.35Zm.62-3.17-.14-.41.35.21.21.34Zm1.1,2.28-.62.28.07-.48.07-.41h.55Zm2.21-3.31v.41l-.41-.28Zm0,3.17-.69-.14-.07-.62,1,.28Zm1.79,17H249v-.28h.28Zm.62-1.52-.35-.14.07-.62.55-.14Zm5.11-5,.28-.28h1v.9l-.76.14.07-.55Zm-.41,3.8-.48.14-.21-.55L253.3,36l.48-.28-.21-.21.41-.14.21-.41h.34l.14.62h-.76ZM251.65,31l.48-.76-.62-.28.21-.41.55-.07.21,1,.55,1h-.62Zm.28,7.52h-.41v-.28ZM252,26.29l.55-.14.14.48v1.59l.21.35-.35.35-.55-.07.28-1-.35-.35.28-.35v-.48Zm1,8.76-.14-.35.35-.48.55-.21Zm1.52-2.76-1,.55-.55-.07.21-.41.07-.41-.14-.48.55.28H255Zm1.17-6.69.9-.55.62-.21v.9l-.62-.14-.35.48-1,.69-.55-.07-.35-.41h1.1l-.21-.48-1-.14-.21-.41-.48.14-.41-.21-.14-.41.48-.07,1-.14.41.21-.28.48Zm-.41-4.14v-.28h.28v.28Zm.14,2.14h.41l1,.48-.69.9-.48-.21Zm-1.31,4.28-.55.21-.28-.69,1.24.14Zm.21,1.31-.55.28.28-.55Zm.62-.14.48.9-.62.62-.28-1.24Zm-1.31-3,.28.48-.41.14-.41-.35-.07-.55Zm2.28,4.69-.21-.48h.41l.07-.48h.41l.07.41.41.21-.76.62Zm1.86,2.69h-.28v-.35l.35.07Zm.07-4.42-.48.35-.28-.76h-.55l-.28.35-.41.14v-.48l.28-.55.07-.48.48.14.41.07.28-.34.35.41.21.62Zm2.21-4.21h.34v.35h-.34Zm-.28,1.52.28.35h-.28Zm-.35,3,.07-.14.41.14v.28l-.14.14-.35-.14Zm-.83-2.28v-.41l.69.41Zm-.07-1.31-.55-.21.41-.28.48-.14Zm-.83-2.69.69.07-.41.62.35.21-.07.55-.62-.55h-.55l.21-.48Zm-1.52-1.38.14-.48.62.21.28.41-.48.48-.41-.21-.9.14.28-.48Zm-1-1.66.35.28h-.35Zm-1-1,.34-.07v.76h-.34Zm-1.31,2.35.55.21.41.41h.35l.14.76,1-.28-.35.9.28.21-.41.28-.76.14.07-.48-.14-.55-.35-.48-.76.07-.55-.28-.21-.41.14-.35Zm-.48-1.52-.21.48.21.62-.28.14-.21-.48-.14-.76Zm-3-1.31v.41l-.55-.28Zm.34,5.31-.14.41-.41-.28-.14-.41.21-.41.35.21h.55Zm.62-3.17.69.9-.41.28h-.34l.14-.55Zm.62,4-.07-.76.76.35V23.6l-1-.62-.21-.55.55-.07.35-.28.35.41-.07.69.28.55.41.07.35.41-1,1-.48-.21Zm.28,14.84.14-.62.41.14v.69l-.76.21Zm.14,2.07-.48.28v-.35l.48-.28Zm.14,3.93v-.35l.48.28Zm.41-2.42v-.35l.21.35Zm-.14-1.38.35-.21.28.35Zm.62-7.87L252,33.4v-.48h.55l.28.62Zm1.66,14.35-.28-.35.55.07Zm0-3,.14-.48.14.62ZM254,41.82l-.14-.55.07-.48.35.14.35.48.07.69ZM255.3,44l-.07-.48.35.14Zm0-.9.14-.62.28.34Zm-.07-3.93-.48-.41-.41-.14-1.31.69-.14-.48.48-.35,1-.55.41-.41.41.28-.41.48.28.28.34-.62.35.35ZM256,35.2l-.55-.14L255,34.3l.48.48.76-.35Zm.21,12.08v-.62l.48.35Zm.14-9,.62-.14-.28.62Zm1.52,8.42h-.21v-.28h.21Zm42.23-15.46-.76.14-.14-.69-.35-.48-1.38.48.21.35v.48l-.35.07-.55-.35v-.48l.28-.41.41-.14.35.28.14-.41-.14-.48-.62.28v-.69l.62-.21-.07-.55-.55-.14.62-.21v-.35l.55-.41-.41-.55h.28l.34.28v1l.28.35-.35.48.07.41.35.28h.69l-.21.41.21.48.48.21Zm-4.21,7.25h-.48l-.14-.34.28-.14H296Zm.14,3.17-.35,1-.28-.35.14-.48Zm-1.24-7.73v-.28H295v.28Zm.14,3.8h-.28l-.14-.14Zm2.28-9.18-.35.21-.41-.21-1,.14-1,.35.28-.48.48-.28v-.76l.55-.14.76-.76.28.28.07.41-.48.28-.28.48Zm-.41,4.07-.35-.14.21-.41.69-.07v.62Zm.55,2.83-.55-.14.41-.41Zm-2.21-5.59.55-.41.48-.41.41.55-.69.28-.07,1.1h-.41l.35.35.55.21-.28,1-.41-.35-.21-.55-.62.14-.07-.48.69-.62.28-.41Zm1.59,3.45-.35,1.31-.55.21.21-.55Zm-1.93-1.17.9.83.14.69-.41-.35-.28-.55h-.55l-.35-.28Zm.28,3.17.48.28-.62.07Zm.62.9v-.55l.41.14.07.41Zm.62,3.31.35.41-.07.62-.48-.48Zm.69,2.28h.48l-.28.48-.41.28-.14-.35Zm.21-3.17v-.41l.35.14-.07.28Zm.28-4.83-.14-.41h1.1v.41Zm.76-2.07.07-.41.14-.35.35.35-.07.55Zm.9,1.45.34.34h-.9Zm.21-.9.28-.55.21.48-.21.55Zm.55-4.62v.55l-.55.35v-1Zm-.55-.76.14-.35h.28v.35Zm1.93,2.35-.48.21-.14-.76,1.1-.41Zm-.76-4.07.35-.07v.28Zm1.66,1.45-.55-.35.14-.55.41.28Zm.9-2.48.48,1-.48-.28-.35-.41-.21-.55Zm-.62-4,.35.41-.48.35-.14-.41ZM302,21.6l.28.41-.62.14ZM299,21l.28.21.07.69.41.41.55.28H301l.41-.28.35.28v.55h-.55l-.35.48-.48-.14-.14-.76-.62.28-.14-.55-.28.21-.48.07.21-.41-.28-.76-.07-.62Zm-1,1.1-.55.07-.28-.14-.07-.48Zm-1.73,2-1-.48.28-.76h.55l.69-.28.41,1.31.55-.07.35-.35-.41-.35-.14-.55.48.28h.41l.14,1.1.9-.48-.07.55-.69.35.76.76v.48l-.48-.21-1.17-1.17-.9.55.35.48,1,.9-.55.21-.35-.48-.9.14-.14.48-.62-.07.28-.48-.07-.48-.83-1.31-.07-.41,1.17,1,.41-.14Zm-1.79,1.38.48-.35.48.41-.48,1.1-.83-.62Zm.35,2.07-.14.41-.48-.21-.14-.55Zm-.14,7.18-.28.48-.35-.48Zm-1.17-6.56V28h.28v.21Zm.28,4.62-.14.35h-.28l.14-.35Zm-.48-7.38v-.41l.48.14ZM293,20.08l-.28.55-.21-.55Zm-.41,1.45.48.28.14,1,.21.48h-.55l-.35-.41-.07-.62Zm-.21,2.28.41.41-.41.35Zm.48,2.28v.48l-.41-.07-.07-.41Zm-.62,17.46.48-.14-.07.48.21.55-.48.28-.14-.69Zm-.14-1.31.62-.34-.14.48ZM292.7,40l-.35-.21.14-.41.35.21Zm-1.86-17.81.34.21-.34.28h-.28Zm-2.07-3,1.31.69-.14.48-1.52-.48Zm0,3.73-.28-.14V22.5Zm-.14-1.66.14-.48.35-.28.41.21-.35.41Zm.9,2.28-.35.35-.48-.07-.21-.41Zm-.28-.62.14-.34.41-.21v.55Zm-1.1,1.52h.28v.28h-.28Zm-.76-5.87.21.48h-.48Zm-.14,1.66v.41l-.41-.41Zm-1.52,2.42h.21v.28h-.21Zm-.41-3.31.28.35-.14.41-.34-.62Zm-1.66,1.79.48.34-.48.28Zm-.21,1.38h.21v.28h-.21Zm-1-1.93.48.21.21.48-.55-.21-.48.07-.28-.62Zm-.62,4.9.35-.41.21-.21.21.07v.69Zm.69,1-.41-.14-.14-.41.35.21Zm-.14-4.76-.14.55-.28-.55ZM282,23.19l.55-.14-.41.41-.48.07Zm-1.66-1,.41.35-.55.28Zm-.48,2.14.48.14-.21.34-.41.07Zm.76,2.42-.21.48-.41.28.14-.35.07-.41Zm-1.45-1.1h.55l-.35.41-.69.07v-.41Zm-.62-1.93.28-.41.28.55Zm.28-1.52.28.35h-.48l-.28-.21Zm-1.17,1.38h.41l-.14.41h-.28ZM277,30l-.35-.14-.14-.35Zm-.21,10.08-.21.55-.48.21-.35-.28v-.76l.14-.34.34.41Zm-.14,3.45V44l-.28-.48ZM276,36.92h-.21v-.28H276Zm-.07-3-.28.41-.28-.41Zm-.55-7v.55l-.35-.35-.14-.55ZM275.1,37.2l.14.48-.41-.21-.07-.55Zm.14,6.07-.07.62-.41-.07v-.69Zm-.62-4.42h-.48v-.69Zm-.14-4.76h-.21v-.21h.21Zm-.69-8,.55-.14-.21.48-.55.14Zm-1.95,5.56v-.1l.28.28v.06Zm.36,11.56.41-.41.41.35.07.69h-1Zm-.07-1.45.07-.48.41.21.07.55Zm.69-10,.28.34-.62-.14ZM272.06,29h.28v.28h-.28Zm-.48,1h.35l-.48.9-.28-.62Zm-1,10.84-.21-.35.62.21Zm.83-1.38-.55-.24.13-.44.63.19.55-.14-.28.9Zm.62,5.87v-.28l.28.41Zm1.1,0-.21-.28.55.14Zm.21-2.55-.28-.62.41.07Zm.76.76-.41.14v-.55l.41.14Zm-.55-1.79-.21-.48.48-.14.41.28.48.07-.14.69Zm1.66,6.35-.62.14-.28-.55.14-.69,1.17.76Zm0-1.38-.21-.48-.35-.41.07-.48.35.28.55.83Zm.41-3.45-.07-.34.41-.14Zm0-1v-.41l.41-.41.48.07-.28.55Zm.9,1.93H277l-.07.55-.55.35-.07-.41Zm.62,2.42-.55-.28-.21-.62.48-.28.41-.35.62.14Zm.41-1.79v-.48h.35Zm1.86,2.07L279,47l-.07-.48-.35-.83.62.28.41.48Zm9.18-5.59L286,42.86l-.83.69-.28-.14-2.62.41-.62-.14-1,.48.28-.76-.9-.55-1.31-1.59-.48.14-.41.34h-.35l.35-.48.55-.41-.28-.76.21-.9L278,36.85l.07-1.1.41-.62V33.89l.41-.9.07-.55.9-.9-.14-.62.41-.21.07-.55.48-.28.69-.9.14-.62.76-.21v-1l1.17-.28,1-.48-.34-.76.62.07,1.1-.14,1.38-.48,1,.07.55.21.48-.35.83.21.07.62.69.62.9.41v.55l.76,1.86.07,1.59-.14,1.1.07,1.1.21.55-1.1,2,.14.69-.35.41-.69,1.38-.62.83-.41.28-.14.76-.9.62Zm.9,5,.14-.69.28.41Zm.14-1.52-.28-.28.69.14Zm.14-1.93-.28-.28.62.14Zm1.24,2-.48-.21.48-.21.55.07.35.62-.21.41-.41-.28Zm1.66,1.93h-.9l-.35-.62.35-.07.41.07.28-.62.48.07Zm.83-5.25.21.41-.48-.07-.14-.35Zm0,6.69-.28-.28.35-.07.28.28Zm-.14-1,.41-.14.21.35ZM294,36.51h.76l-.14.55-.62-.14Zm.55,2.69.41-.35.55-.14.14.21-.21.48-1,.41-.28-.21Zm-.21,1.38.41-.28,1-.07-.41.48-.62.28Zm2.42,6.35-.62.21-.21-.55-.83-1.17-.07-1,.28-.14.07.48.76,1.79h.76Zm0-3.66.14-.21.28.07-.14.28Zm.28,2.21.07-.76.35-.41.14.48-.14.55.21.48Zm.9-8.07-.14-.62.35.28Zm.28,5.87.21-.21.35.21.21.41Zm1.1,1.52.14-.48.35.21.21.41ZM319.81,31.4l.14-.62.41.21Zm.41-5.18-.41.07-.14-.28.28-.14h.48Zm1-2.07-.21.48-.62-.14-.55.14-.35.35-.41-.28-1.1-.21-.28-.35.48-.76-.14-.55,2.21.14-.55.48.62-.07.55-.14.35.35Zm-3.66,6.63-.41.34-.62-.34.07-.48.55-.83v.41l-.21.48Zm-.07-2.48-.41.28.21-.76.55-.07.48.07-.21.41Zm.41,1.93.41-.14v.41h-.62Zm0,.9.41.41h-.41Zm.62,4,.21.34-.48.07-.21-.48Zm-.07-9.18-.62.21.14-.62.35-.55.41.48Zm.76-3.45v-.28l.14-.14ZM322,26.57l.07-.55.28.55Zm2.83-4.83-.35.48-.35-.28.14-1.79.41-.14.48.07.21.34-.48.41.28.35.48.14Zm2-.14-.76-.55-.14-.48h.41l.48.48Zm1.52-3.45v.41l-.55.21-.07-.28Zm-.62,1.52-.35.48.41.9h-.48l-.48-1.24.35-.07ZM326,11.11l.62.76v.41l-.9-.62Zm-.14,7.66v.41l1.17-.41-.35.48-.07.41-.62.14-.34-.55-.55-.35.28-.14Zm-.41-1-.76-.48.41-.55.48.41ZM324,13.39l.48-.14.62.14-1,.83-.35-.28Zm-1.73,1.24.28-.55.55.21.21.41-.41.62-.62-.28Zm.9,1.31.28.28-.35.48h-.69l.28.55-.28.34L323,18l-.21,1.17-1.1.14-.35-.07-.21-.48h-.55l.07-.48.48-.14-.14-.28.21-.48-.28-.28-.07-.48.62-.14.14.62.55-.34Zm-2,4.07-.35-.14-.07-.48.14.28.14-.28Zm-.76-2.48.07-.41.28.35v.28Zm.76-4.35.41-.07.07.55H321Zm-.55,2.07.14-.41.9.21-.14.48-.35.28-.55.07Zm-.48.69h.35l-.14.55-.28-.07Zm-1.59,1.38.55-.35-.14,1-.48.21-.28-.28Zm-1.24,1.86.69.69.21.41.76-.14.55.28L320,20l-.55-.21-.28-.41v-.62l.21-.62.62.35-.07,1,.21.35.48.14-.14,1.79.55-.35.35.21.14.41.62.28,1.31-.55-.35-.41-.21-.55h-.48l-.35.62-.83-.41.21-.48-.21-.28.28-.41.55-.21v.62l.48.35.48-.48.14-.55.28-.07.07-.55.48-.76-.07-.62.76-.21-.07,1.24.21.41L324,20l-.62.28.48,1.31-.48.76-.55.14.28.76-.9.48-.9-.76.41-.41-.55-.62-.35.28h-.48l-.41-.28.14-.76-.55.14-.76.48-.35-1.1L317.6,20l-.48-.21Zm-.21,1.66.48-.14.9.9-.35.48-.55.28-.28-.14v-.55l-.21-.35Zm.07,1.86.41.21.14.41-.62.14ZM316.91,24l.34.14-.14.48-.48-.28Zm-.76,1.38.62.41-.55.48-.34-.48Zm-2.07,16.77-.48.07v-.69l.62.14Zm.76,1.59h-.28v-.41H315Zm.76,2.76v-.21l.14-.14Zm.55-3.52.07-.28.28.41ZM316,37.89l-.28-.14.28-.48.48.14Zm1-4.83h-.48l-.14-.48v-.48l.28-.34.62.76Zm.41,11.59.41.48h-.41Zm.14,2.42.35-.21.48.14.21.41Zm1.1-.9-.35.14v-.62l.48.07Zm.14-16.29v-.41l.28.21Zm.14-3.73h.62v.62l-.41-.21Zm.55,2.07h.21v.21h-.21Zm.14,4.21.21-.28.35.21-.07.55h-.55Zm27.32,5.87-.35.07.35-.35Zm.83-1.1-.35.35h-.48l.69-.83H348Zm.83,1.1h-.21V38h.21Zm.9-.69-.21-.21.35-.14Zm4.14,0-.07-.62.41.21.14.41Zm-.55-3.38.48-.28v.35Zm1.38,2-.07-.55-.41.07.07-.55.69-.21.21,1Zm0-2.9.28-.28.48.14.28.35-.35.35-.48-.14Zm1,1.38-.35-.14V34.3l.07-.07.41.07Zm.55.48.21-.41.35-.35H357l.14.55Zm1-2.07-.55.28.07-.55.69-.28Zm1,.28-.48-.21-.14-.55.62.21.41.35Zm1.38,1.93-.41-.28-.21-.48h.9l.07.41Zm.28-5-.28-.48h.41Zm-.48-1.1v-.48l.41-.48.69-.07-.28.41Zm0-2.69h.34l.14.48-.41-.07Zm1.38,5.18-.14-.48.28.14Zm.14-1v-.55l.34.28Zm.07-1.45h-.69l.28-.55.69.07Zm1-1.38-.48-.35-.55-.14.14-.48.35-.28-.69-.14-.41-.41.41-.28H361l.07.41h.41l.14-.62.48.28Zm1.73,3.59-.41-.21.07-.41.35.14Zm1.17-2.21-.14-.62.41.55Zm-.35-5,.48.07-.07.48-.41.07Zm-1-3.24h.21v.28h-.21Zm.48,1.45-.41-.07-.07-.34ZM363.29,26h.62l-.21.41-.41.14Zm.35,1.1.55.07-.14.62-.62.76-.55-.14v-.69l-.21-.62.21-.41Zm-.9-2.35-.62.9-.48-.21-.9-.35.14-.55.69-.9.41.07-.28.41-.48.21.55.28.35-.41.76-.07Zm-.07-3.45v.48l-.41-.21Zm-1,.07.48.07-.48.28-.41-.28Zm-.69,1.66-.35.21.14-.55Zm-.62-1.45v-.28l.41.28Zm.14-2.21.14.41-.55-.07-.34-.21-.14-.48ZM359.83,23l.28.55v.62l-.41-.41-.14-.62Zm.07,1.86.28.21-.28.48-.48.28-.48-.21-.41-.41-.48.07v-.34l.28-.41.76.76.35-.48Zm-.69-4.55-.35.07-.07-.41Zm-.41,1.93.14.62-.48-.14-.28-.35-.41-.14.14-.62.35.21.07.55Zm-1-3.31-.07.48-.28-.48Zm-.07,1,.48.28.14.62-.62-.28-.28-.48ZM356.38,18l.28.14-.14.28-.28-.14Zm.21,1.86.55-.07.14.76-.41-.28-1.52.69.28-.48V20l-.28-.48.48-.21Zm-1.86,2.62.28-.69.62-.21h.62l-.14.34h-.62Zm.48,1.52-.48-.14.28-.41Zm.28-6,.21.55-.55.35-.07-.55ZM354,19.95l.41.14-.41.62-.14-.35Zm-.07,1.24.34.28.35-.76.55.14-.21.62-.69.9-1,.28.62-.83-.28-.35-.69-.76.07-.55.62.14Zm-3,1,1-.48-.35.21-.28.55.14.62h.48l.55.28.28-.34.48-.07-.14.62-.55-.07-1,.48-.28-.41-.14-.62-.48.76-.41-.21-.21-.41.41-.14.35.28.21-.48Zm1.79-2.42.21-.35.41.07-.21.41Zm.55-2,.21.35-.55-.28Zm-1.86-1.17.14.35h-.62Zm-.76,1.86.41.35.07.69.55.07.35-.28.14-1.17h.62l.14.9-.55.21-.62.76-.21,1.59-.76-.14.21-.34.07-1-.55-.14-.07-.48Zm-.28,2.69h.28v.28h-.28Zm-.34-.35.21.35h-.41l-.21-.48Zm0,4.69-.07-.62.55-.28-.14.9,1-.55,1.1-.35.14-.76,1.24-.14-.9.62,2.28.21,1-.07-.41-.83-.07-.55.9.76,1.24-.48.41.21-.21.55-1,.48.35,1.17.41.41.55.21-.07.41.28.21-.41.28-.21.41.14,1-.9.9.28.83V31l-.69-.21-.28.48-1.38.9-2.28.48-.35.34v.55l-.69-.35-.41.28-1.59.35-.41.28-.41-.14-1.79.07-1.1.21-.07-.55.14-.55.35-.35-.21-.62.21-1.1,1-1.79.21-.9.41-.14.9-1.17.48-.28-.21-.83.76-.14-.35-.14-.41.14.14-.28Zm-1.24-.07.48.21L349,26h-.48l-.14-.48-.55-.28.41-.48,1.17-.48.07.62h-.55l-.41.14Zm-.07,1.31-.35.14v-.21ZM348,25.54V26l-1.1.14-.41-.41-.48-1.1.35-.35.35,1,.28.41.55-.41Zm-.14,2.28h-1l-.28-.55-.14-.69h.41l.76.69Zm-2.14-4.21.41-.14.35.55ZM346,28l.21.28-.41.35-.48.14.35-.35Zm2.62-8.7.69.07.21.62-.69-.21-.69-.41Zm-2.14,1-.14.35-.21-.21Zm-.9,1.52h-.28l-.07-.07Zm-.28.14.55.28.35.41h1.17v-.69l.14-.62.28-.35.55.83.55.14-.48-.34.41-.35.48.48-.21.48.35,1-.55-.28-.9,1.24v.41l-.9.48.14-.62,1-2-1,.21-.14.9-.41-.35-1-.41-.48-.35Zm.28,2.21-.07.41-.41.07-.14-.48Zm0,1.79-.34-.21-.14-.48h.35Zm-1,1.73.21-.62h.48l-.14.62-.35.41h-.48Zm-.28,5.52.35.48h-.35Zm-.69,2.14L344,36l-.48.14-.14-.62Zm-.48-2.55v-.35l.41.35Zm.62-5.87h-.21v-.21h.21Zm-.35-2.62-.55-.41.69-.14Zm-2.68,9.38h.06l.21-.35.55.07.55-.69.41-.28-.76,1.45-.41.41-.62-.48-.08.07Zm1.37.63.48.21.07.55-.55-.21Zm.41-3.52v-.55l.48.41Zm.14,2.55.41.35-.41.28Zm-.14-10.84.48.14-.48.48Zm0,2.62.48.14-.07.41-.28.28-.28-.35Zm-.14,2.42.48.07-.41.28-.07.48L342,28Zm0,1.79.41.14-.14.62-.41-.21-.28-.41Zm-1,2.07.55-.28.41.14.14.41-.76.48-.41-.14-.48-.62Zm-2.48,6.35v-.07l.1-.15.17.22Zm.76,2.07-.14-.41-.14-.48.14-.41H340l.14,1Zm.48-4.44.15-.18v-.62l0-.08.1.08.55.14-.14,1.38L340.1,36Zm.07,2.65.28-.41.69-.9.28.41v1l-.62.14Zm.35,2.28.07-.55.35-.41.48-.14.14.41v.55l-.55.21Zm.9,2.07V42l.28.21ZM342.65,45l-.41-.35L342.1,44h.55Zm.14-2.9-.14-.41h.21Zm0-2.69.48-1.24-.76.14-.76-.76L342,37l.41-.34-.48-.55-.28.41h-.41l.28-.48,1.17-.41.35.48.9.69.41.48-.69.9.07.62-.48.69Zm1.93-.9.21.41-.76.28.14-.83Zm-1.45,3.93.21-.41.07-.55h.35l.14.9Zm1.24-1.59-.14-.35-.21-1.1h.41Zm.28,3.24.48.14-.07.76-.48-.21Zm.48,1.93h-.21v-.35h.35Zm-.21-11.46-.55.14v-.48l.48-.14.41.14Zm.35-2.28.21-.41H346Zm1.1,7.18-.41-.21.28-.21.35.14Zm1.1,8.83-.48-.14.07-.48h.41Z"/><polygon class="cls-1" points="46.3 96.71 46.37 97.06 46.78 96.57 46.3 96.71"/><polygon class="cls-1" points="141.1 91.74 141.24 92.36 141.86 92.36 141.93 91.81 141.66 91.47 141.1 91.74"/><polygon class="cls-1" points="143.38 86.5 143.93 86.29 144.28 85.94 144.28 85.53 143.93 85.74 143.52 85.94 143.38 86.5"/><polygon class="cls-1" points="145.94 86.63 145.94 87.19 146.35 87.19 145.94 86.63"/><polygon class="cls-1" points="209.07 114.65 208.79 114.65 208.66 114.93 209.07 114.65"/><path class="cls-1" d="M242.05,69.38l-.14-.21-1.17-.41-1.66-.21-1.59.28-.9.41-.83.69-.55.14-.48.35-.76.9-.07.9-.69,1.24.28.76.07,2.07.21,1,.48.35,1,1.52.76-.07.14.48.34.28,2.28.28.55-.21.48.28.83-.28.48.14,1.93-1.31.48-.07.21-.62.83-.76L245,75l-.14-.55.41-.28-.28-.62V73l-.76-.62.14-1-.55-.35-.69-.14.35-.69-.48-.28-.69.07.14.9-.9-.14.55-.76Zm-7.8,5H234v-.21h.28Zm1.17,1v-.28l.14-.14Zm5.87-3.8-.28.48-.14-.48ZM239.5,72.9l.28-.28.55-.07.48.14.35.41L240.4,73l-.9.41Zm-.62-3.24h-.28l-.14-.14Zm-2.14,4.55-.21-.35.55.14Zm.41-1.31.07-.55h.35l.28.62.62-.28.62.14-.35.55-.41.35-.62.28-.21-.62Zm1,1.45-.14.28h-.48Zm.14,4.07-.48-.14.14-.48h.62l.14.41Zm.28-1.52v-.62l.35.14Zm1,.14-.48-.41.41-.35-.34-.35-.28-.41V74.9l.48.21.28.48V76l.55.62.07.55Zm1.31,2.14h-.28V79h.28Zm-.48-.62.14-1.1.34.07-.07.62.21.41Zm.62-1.24.14-.55.21.35Zm-.21-2.14-.62-.28-.35-.41L240,74l1,.41.28.35.14.62Zm3,.48-.41.48-.35-.35-.48.28-.21.48-.62-.14-.14-.62.55-.28.35-.55.83.62Zm-1.73-2.55.07-.41.62-.21.35.48-.62.14.41,1-.55.14-.55-.14-.41-.28Z"/><polygon class="cls-1" points="311.67 117.21 311.88 117.62 311.81 116.86 311.67 117.21"/><path class="cls-1" d="M333.34,100.16l-.41-.62-1.24-.07-.9.48-.48,1-.07.62-.76.41-1,2.14L327,106.51l-1.31,1.79-.07.69-.28.41-1,.41-.28.55-.76.9-.21.62-.83.76L320.44,114l-1.66,1.52-.62.07-.76.48.14.9-.69.14-.21-3,.34-.35.21-.48.21-1.1-.62.07-.14.41-.41.21.28-1.31.35.21.55.07.69-1.31.35-1,.21-1.73.76-1,.07-1,1-2.62.07-1,.41-.28v-.69l.14-.48-.07-.48.55-.48.21-1.17.83-2.14v-.76l.35-.55,1.17-4v-1.1l.35-.41.41-1,.14-1.31.35-.41.14-.55-.07-.55-.55-1-.41-.28h-7.66l-1.38,1.17V86l-.41,1.66-.28.41-.41.28-.9.14-.55-.28-.48-1-.76-.76-2.9-1.59-.83-.69-.62.07-1-.35-1,.14-.48-.41-4.35.62-.55.48-.55.07-.48.35h-.69L296,86.91l-.55-.14L294,88.36l-.83.62-.48.21-2.83,3.31-.34,1-.55.9-.14.48-.41.28-.48.9-.62,2.14-1,1.93-.14.55-.07,1.86-.35.48-.14.55,0,.18-.09.16.2.45,0,.17h-.64l-1.93,3.31-1.31,1.73-1.59,1.45-.21.62-.41.41-1,.35-.9.55-1,.14-.48-.21-.69-.83-.48-.28-.14-1,.14-1.24.62-.62.28-1.66,1-2.9v-.69l-.14-.48.69-.28-.07-.41-.07-.48.48-.48-.14-.48.21-.9.48-.9.35-1v-.62l.62-.9-.07-.55.28-3.45-.07-1L279,91l.14-.41-.07-.55-.41-1.17-.07-.69-.55-.35-.35-.55v-.62l-1.52-1.52L275,84.84l-.69-.76L272,83.74h-1.1l-1,.34-.62-.28-1,.48-.55-.07-1.79.9-.41.35H265l-.41.21-1.31,1.1-.48.21-.62-.76-.14-.48.21-.48-.83-.55-1-.28-2.21-.14-2.21.28-.35-.21h-1.59l-1,.14-.28.41-.48.35-.21,1.1-.48.9-.07.41.14.48-.35.35-.55,1.45-.48.62v.76l-.28.41.14.62-.62,1-.14.55.21.62-.62.83-.62,2.28-.28.48.55.48-.55.35-.35.48.13.47-.08.36-.26.13-.48.76,0,.3-.87,1.22-.35,1v.62l-.62.28-.69,1.45-1.86,2.62-.48.9-.55.28-.62,1-.62.28-.76.9-.69.21-.48.41-.55-.07-1,.48h-1.1l-.55-.14-1.17-1-.41-1.45.28-2.62.41-.48-.14-.69.41-.35.21-.55-.14-.55.07-.55,1-1.79.14-1.66L237.22,98l.21-1-.07-.55.35-.41.55-1.66V92.57l.41-.35.69-1.45.35-.35-.14-.9.48-.9.07-.62-.21-1,.55-.21.35-.41-.28-.55.28-.62-.35-.35-.41-.28-1.59-.21-1.1.21-.62-.41-.62.21-1.1-.14-.55.21-1-.21-.35.34-1-.28-.41.28-.62.83-.48.21v.62l-.9,2.69v1l.21.48-.41.28-.48.9-.35,1.1-.48.9v.48l-.35,1.1-.35.35-.14,1.17-.69,2.14-.07,1.1-.35.48-.23.54-.11.15-1.31,2.48-.07.62-.83.76-.62.9L222,108l-1.24,1-.69.83-1.1,1.79-1,.55-.41.41-.62.07-1,.48-.28-.21-.48-.07.14.9-.41-.28-.21-.41.14-.48-.76-.21.07-.48-.35-1,.55-2.14.76-2.21.48-1v-1.24l1.24-3.93v-1.1l.28-.41.14-.55-.07-1.66-.35-2.14-.41-1.17-.55-.9L214.52,91l-1-.28-1-1.31-.55.07-.83-.55h-.55l-.9-.9-.9.14-.28-.48-.55-.35-.62-.14-.62.07-.41-1.45.83-3.73V81l-.14-.62-.41-.21L206.1,80l-.62-.9-1-.55-1-.28-1.17-.07L199,79l-1.31,1.52-1.17,1.86-.35,1.1-.14,1.1.35,1.1-.07.55.62.76v.55l.21.48,1.17,1.73.14.55-1.1,2.35v.62l-.55.62-.41,2.35-.28.35-.55.21.14,1-.48.35-.55,1-.14.48,0,.6L193,103h-.41v.9l-.48.21-.69,1.38-.41.28-.55.14-.21.55-.76.9-1.73,1.52-.28.48-.62.14-.48.9-.9.62-1.93.9-.48-.14-1.24.69-2.14.62-2.28.07-1,.35-1.79-.21-.55-.48h-.62l-.62-.55-.9-.14-1-.76-.48-.21-.48-.9h-.55L169,110l.35-.14.28-.35-.69-.9.14-1,.34-.41.55-.28h1l1.31-.62.48.07.48-.21.55.35.28-.35.48.48,2.83-.55.9-.35.34-.35,1.1-.14,1.59-.83,1.1-.34.35-1,.41-.28v.62l.69-.14.28-.55.07-.55.55-.07,1.52-1-.21-.55.07-.48.35.21.41-.07,1.52-2.21.76-2.42.14-1.1L189,94l.41-1.1-.28-.62V91.12l-1-2-.35-1-.48-.28-1.1-1.17-.9-.55-.69-.07-.69-.76-.83-.62-.48.07-1.45-.55-.48-.07-.55.14-.41-.35-1-.28h-1.17l-2.62.62L174.5,84h-.55l-.83.48-.76-.28-1.17.62H170l-.9.55-1,.35-.41.76-1,.41L165,88.08l-.69.76-.48.21-.76.69-.9,1.31-.76.69v.76l-1,1.17-.55.9-.07.48-.41.28v1l-.76.48v.62l-.9,2.48-.21,1,.21,1-.21.48-.09.64-.32.12-.14.62L156,105l-.14.62-.76.55-.28.41-.21,1.1-.76.14-1,1.24-2.42,2.14-1,.62-2.07,1-2.28.14-1-.35-.28-.41-.76.14.07-.55-.48-.35-.14-.9-.62-1.52.35-.28.21-.48.35-2.28.41-.55v-.76l.48-1,.21-1.24.35-1.1.34-.48.07-1.17.21-.55.35-.41v-.55l-.14-.35.62-.9.69-2.21-.41-.62.9-.28-.21-1.24,2.07-.55,1.1-.14,1.1.21.48-.21,1.17-.07.41-.28.76.55,1.79-.14.62-.35.48-.76.76-2.35.14-1.66.69-.76V84.84l-.9-.62-1,.41-1-.41-1,.07-.48.21-1.17-.35-1.1.21-.48-.28-.62-.14-.35-.35.07-1.73,1.45-4.07.28-2.21.55-.83.14-.48-.14-1.17L152,73,151,73l-.55.14-.76.69-.9-.41-1,.48-3.38,1-2.14.76-.14.55-.62.83-.07.62-.76,1.93-.07.48.14.62-.48.83-.28,1V83l-1.45,1-.48.14h-1.59l-1,.34-.62.83-.21.55-.07,1.24-.62.69-.35,1-.21,2.48,1,.48,2.14.55-.69,3.45-.62,2.07.28.76-.41.28-.35,1-.41.41v.25l-.2.16-.13.54h0v.05l-.12.5-.76,1.38-.34,1.1L131.38,106l-1,2.07-1.17,1.1-1.24,1.73-.55.14-.28.41-.83.69-1.45.55-1.1.21-1.17-.83-.28-.41v-1.93l.55-2.07-.14-.48,1.17-1.52-.07-1.1-.21-.83.62-.14,1.38-4.69-.21-.62.62-.76.14-.48L126,96.5l.41-.28.07-.48.28-.28-.28-.76.69-.34v-.62l1.1-3.38.48-1,.28-1-.07-1,.48-1.59V85l-.41-.41-1-.35-3,.07-1.1-.21-.41.21-1-.07-.48.35-.69.28-1.1-.35-.83,1.31L119.24,87l-.41.28-.35,1,.41.48.07.41-.48-.14-.28-.28-.14-.48-.9-.62-2.35-2.21-1-.62-1.1-.41-1.31-.21-1.1-.55-.9.28-.41-.28-.55-.07-1.66.41-1-.07.14.76-.48-.62h-.62l-.83.48-1.17.21-1.59.55-.76.9-1,.48-.62.69-.41.28-.55.14-1,1.38-.83.76-1,.62-.48,1L92.74,94.5l-.41,1-.21,1.1-.62.48V98.3l-.69.48-.14,1.1L90,102l-.14.9v.54l-4.34,5.74-.55.28-1.24,1.24-.62.14-.69.9-2.76,1.86-.34.41-1,.41-.35.35-.62-.07L77,115l-2.14.76-.41.28H73.28l-1.66.62-4.49.14-.76-.41-.14.55-.35.35-.55-.9h-.48l-.62-.21h-.76l-.9-.48-1.17-.28-.48-.28-.28-.41-.48.07-.9-.28-.14-.76-1.24-.69-.21-.48-1-1-.07-.48-.83-.76-.41-1.17-.69-.21.14-.9-.69-1.38-.62-3.45-.48-.9.28-.41.14-.62-.21-.55-.07-1.24.14-1.17-.07-.48-.28-.48.41-.21.21-.48.21-2.35.28-1,.55-.83-.14-.76.9-2.21.35-.41L56,87.74l1-1.17,1-1.86,1.17-1,.83-1.38-.41-.07-.35-.34.62-.14.62.14,2.69-2.28h.62l1.93-1.38h.55l1.1-.76,1-.21.35-.35.41.21.48-.14.62.07.34-.41.48-.07,1.17.21.41-.62,1.79.76,1,.28H76l.35.48,1,.62.21.55,1.17.48.35.41-.76.35-.62,1-.76.76v.62l-.62.21-.41.35-.07.69-.48,1.1.14.62-.21,1.17,1.31,3,.55.83.76.69.62.07,1.45.69,1.86.07,1-.21L84,91.33h.62l1.79-1.38.14-.69,1.24-1.38.14-.9.35-.48-.07-.69.41-.41.21-.55-.07-1.1.21-1.1-.48-.9.21-.55V80l-.41-1.1-.55-.83.07-.62-.9-1.17-.21-1.17-1-.41-.35-.35-.21-.48.07-.48-.48-.21-1.59-1.31-.55-.14-.41-.83-.9-.35-.21-.41-.62-.07-1.86-.76-1-.07-.83-.48-1.59-.41H73.56l-.55.14-.41-.21-1-.21L70.32,68l-1.24.14-1,.35-.76-.21-1.59.34-3.17,1-1.24.21-.76.76-1.1.14-1,.55-.83.69-.55.21-1.79,1.17-1.52,1.45-.83.28-.14.76-1.38.9-1.52,1.45L48.72,80l-.41,1.1-.48.28-.76.76-1,2-.62.83.14.62-.9,1.17-.21,1.59-1,1.24-.21,1,.14.48-.41.41-.07.9-.41.76.14.48-.41.62V96l-.34.55.21.76-.28,1v.48l.21.55L41.68,101l.07,1.1.35,1-.28.9.28,1.1.41,3.31.69,1.93.07.62.48.9-.14.48.28.48.69.76.28,1.17.55.35,1.1,1.31v.69l4.07,4.21,1,.41,2.76,1.66,1,.35,1.31.21,3.17,1,2.28.14.69.41,1-.21,2.21-.07.55-.14.9.28.55-.28h1.1l.9-.41.9.14,2.21-.55.83-.35,1-.76,1.66-.21.41-.41,2.07-1L82,119.83l1.59-1.59,2.69-2.14,1-1.45.9-.55.55-1L90,111.65l.34,1.35.41.83.21,1L93,117l.34.76,2.07,1.38,1,.34,4.28.83h1.1l.55-.28.55-.07.69.14.76-.55.9.14,1.79-1,.28-.41,2-.9,2.69-1.79,1.24,1.17v.48l.69.76,3,2.07.9-.55.21.41.41.21.76-.21,1.52.28,1-.07,1-.35.83-.55,1-.35h.55l.83-.34,1.24-1.1,1-.55.48-.14.21-.76,1-.48,1.38-1.59.9-.62.14-.55.2-.23v.23l.55,1.59.35.41.14,1,.62.62.14.55,2,1.59,2,1,2.35.62h2.42l1.79-.48h.55l.62.28,1.66-.62,1.45-.9h.62l.76-.9H151l.9-.35.48-.41.9-1.17.48-.14.48-.62h.55l.69-.83,2.48-3.38.62.82,1,2.07,1.17,1.79,1,.55.07.48.28.41h.62l.28.41,1.45.9.35.35,1,.14.76.55,2.28.48,1,.35.76-.28.35.28,1,.35,1.1-.07.41-.28.14.41.41.21,1.59-.41,4.35-.55.9-.41,2.28-.55,1.86-1,.62-.76h.76l1.66-1.45,1-.48.34-.48,2.62-2.21.9-1.52.48-.28,1.1-1.31,1.31-1.86v-.76l.76-.69,1.66-2.76.11-1,.5-.88.76-2.07.55-.9.14-1,.35-.48.28-1,.41-.48.28-1.31,1-1.24.14-.48,1,.21.35.21,1,.21.35.41.9.69,1.59.69-.48.62.28.48v.55L207.14,98l-.07.55.21.55-.48,1-.69,2.07-.48,1v1.38l-.62.9.14.55-.41,1,.14.55-.41.35-.14.41V110l-.48.83.41,1.24-.14.48.07,1.59.9,3.17,1.24.9.21.48,1.79,1,1,.28.62-.07.55.21.48-.21.28-.41.14.62,1.79-.21.48.07,2.42-1.1,1.1-.21,3.52-2.07.35-.9.48-.28.76-.69,1.38-1.59.18-.13.16,1.37.69,2.14.9.28v1l.35.21h.55l.69.83,1.45.76,2.42.62.48-.21.41.07.48.28,1-.41,1.17.14,2.69-.83,2-.9,1.52-1.31.62-.14.69-.9.83-.76.08,0-1,2.87v.62l.28.41.41.28,1,.35,1.17.14,1.24-.14,2.21-.62.48.62H250l1-.28.76-.62.21-.41.14-1.24.83-1.38.35-1-.14-.76.14-.62.69-1,.35-.9.14-1,.21-.41v-.76l-.14-.55.76-.62,1.17-4.21,1.38-4.07-.07-.55-.28-.48.35-.28V98l.48-.14.21-.35-.28-.41-.55-.21-.35-.41.69.07.48-.21.35-.48.62-.07.41-.34.48-.9.55-.07.48-.83h.76l.83-.69,1.59-.55,1.1-.07,1.1.21,1,.41,1,1.1.14.48.07,1.24.21.41-.41.69.55.21-1.17,2.48-.69,2.21-.48,1,.14.83-.28.48v.69l-.62.62.21.48-.07.41-.48.41-.62,2.62-.21,3.11.21,1.1-.07,1,.69.62.07,1.17.48,1,.62.9,1.73,1.24h.55l.41.41.41.21,1.24-.07.55.21.69-.35.48.28.62.07.55-.14.83-.62.55.21,1.1-.21,1.31-.9,1.1-.21.48-.28,2.07-1.93,1.45-.76.62-.9.14-.62,1.73-1.38.27-.39.28.39.9,2.07-.14.48,1,1.31,1.52,1.45,1.66,1.31.69.07.55.21.83.55.55.21.69-.48.48.62h2.9l1.73-.41.48.28.41-.41,1.66-.76.69-.9.69.55.14-.62.48-.35.62-.07-.35.28.55.07.28.28-.21,1.17h.76l.14.35-.48.28-.41.76.21.55-.62.21-1.1,1.31-.76-.28-5.45,1.31-2.07.76-.9.48-.69-.28-.62.62h-.62l-.69.62-.55.07-3,2.14-.14.55-.28.41-.83.41-1,3.73-.34,2.28.41.62.55,1.73,2,2.62.9.55,1,.35,2.07.48,1.1.55h1.79l.76-.28,1,.14,1.38-.41h.48l1.17-.28,2.14-.9,2-1.31.9-.76,1-.55,1-1.38,1.52-1.52.28-.62.48-.41.07-.55.55-.62-.07-.62.62-.14.14-.55,1.38-2.83.28-1v-.55l.76-1.45.76-2.35.55.07.83-.55.62-.83h.55l.48-.21,1.31-1.17.62-.07,1.1-1.1h.55l2.35-1.73.21-.55,1-.55,1.66-1.59.62-1,1.24-.76L328,113l1.31-1.52.14-.62.62-.83.41-.28V109l.83-.76,1.38-2.48.69-.9v-.76l.69-.76.48-2.42-.76-.62ZM237.29,90.5h.28v.21h-.28Zm-22.91,11.66-.14.48-.21-.48Zm-.48,2.55.28.35-.41.28Zm-60-19.6.34.48-.41-.14Zm-2.21,1h.28v.21h-.28Zm-73.13-.41h-.28v-.28h.28Zm8-3.24.34.14L86.4,83Zm-5.94-.76-.07-.62h.41l.07.48.41.28-.48.14Zm1.31-1.52L81.08,80l.07-.62L80.94,79l.48-.62.76,1.1Zm.28,2.21-.28.76-.35-.34-.07-.48.21-.48Zm-1,.9.55.07-.55.28Zm.41,1.24v-.48l.41.14.07.48ZM83.84,87l.28-.35.14.35Zm.76-6.63-.48-.14L84.6,80Zm.21-2.48.35.34-.76-.14Zm-.69-.55v.21l-.35-.21Zm-.48,1.79.55-.14.28.48-1.1.14Zm0,2.21.48.34-.28.14-.48-.07Zm-.35,3.59.28.55-.21.14L83,85.32,82.74,85Zm-.41-1.38.07.55-.35.21-.28-.35-.14-.55.28-.07Zm-.41-5.59.14.62-.35-.14L82,78.08Zm-1-1.31.21.28-.55-.14Zm-.21-3.8-.35.07-.14-.41ZM79.77,77l.28-.35.35.14-.21.48-.41.28Zm.48,3.17.41.07-.21.48h-.55l-.14-.48ZM78.87,75v-.48l.41.14-.14.55-.41.21Zm-.62,1,.14-.21.14-.14Zm-.35-2.55L78,73l.35.35.28,1L77.84,74Zm-1.79.83-.55.21L75.7,74v-.62l.35.14.28.34Zm-.35-2.55.48-.21.35.41h-.48l.14.62.62-.07-.35.35h-1l-.21-.55Zm-1.45,4.14.28.21-.28.21Zm-.41-2.48.14.35h-.28Zm-.35,1.1.41.34-.55.28ZM73.28,74l-.48-.07-.14-.48.48.07Zm-.21-2.76-.07.48-.35-.21L72.53,71Zm-2.83.55.62.69-.9-.41Zm-.14,1.45.34.14-.48.35Zm-1.66-2.42.35.21.14.55-.55-.21Zm-1.24,1.38.21-.41.14.41-.55.35ZM67,76l-.55.14-.28-.35.48-.14Zm-.76-1.38.28.21-.28.21Zm-.07-3-.41.48-.14-.35Zm-1.66,5.18.07-.35.14.35Zm.62-3.66v.48l-1,.28.14-.48.35-.21Zm-.62-.76-.14.48L64,73l-.14-.48Zm-1.79,5.8-.28-.48.48.14.28.28Zm.21-1.66-.35-.07-.14-.55.76.28Zm-.76-1.59.41.21h-.41Zm-.76-.55.41-.14-.28.28.28.14-.41.14Zm-.9.83.41-.14-.41.48Zm-1.24,2.28.55.21.48.41-1,.48-.07-.48Zm-3,5.73-.21-.34.34-.21Zm.41-1.1L56.24,82l-.14-.41.14-.62.76.69Zm.62-1v-.28l.14-.07Zm.55-2.21.21-.48.48.21.28.35-.55.83-.41.28.14-.35-1,.14v-.62l.35-.55Zm-1.1-2.48h.69v.48l-1,.14-.14-.48Zm-.69,3.17.21.48H56Zm-.41,4.21h.55l-.55.28Zm-.28,28.78.28.62-.28-.14Zm-1.1-.62.35.62-.62-.14ZM53.27,85V84.7h.41Zm-.62-2.42.41-.21.48.07.35.35.14.55Zm.76-.48.14-.62.76.48Zm1.24.69-.48.21.21-.48.41-.14L54.65,82l-.35-.28.35-.35.55.76Zm.69-1.73-1-.35-.14-.55.28-.14h.48l.41.55Zm-1.17-1.66.21-.41.41-.21-.21-1.17.48-.21-.28.62.62.35-.21.35-.41.07.14.76-1,.28Zm-.76.14.14.48.35.41.14.62-.48-.76L53,80.08l-.07-.76Zm-.9.41.41.07-.28.69-.41-.28Zm-.41-.83-.35.55-.14-.62Zm-.48,3.93.48.14.41-.21-.14.62-1-.14-.21-.35Zm-.14,26.43h.28v.21h-.28Zm-.34-.35.21-.41.28.62Zm.55-2.42h-.55l-.28-.41.9.07Zm-.83,1.31-.55-.21-.35-.41.35-.48.48.14.28.41Zm.9,4.62-.21.41-.41.21-.41-.28-.35-.28-.14-.48.55.07Zm-3.31-10.08-.55-.14-.21-.41.28-.48.35.34.28.48.41.35h.48v.35l-.41.9-.62-.21.14-.55Zm-3-3,.48-.14.62.28-.28-.48-.76-.76-.48-1,.48.21.28.41.41.28V98L46,97.47l-.35-.41.28-.76,1.52-.21.55.07-.35.35-.21.55.41.28.35-.48.14-.69.69.14.48.76.62-.14-.48-.76.28-.55L49.68,95l-.76.41-.48-.62-.55.28L47.27,95l.34-.62.35-.48.48.28.62-.07.69.83.9.41.62.07-.14.62-.55-.28-.21.28.28.35.07.48-.14.55-1,.28.28.48.35.28h.9l-.14.62-.48-.14-1.59.14-.07-.62-.21-.35.07-.55-1.52,1-.28.41.48.62-.62.76.55.07.62.28.83-.9v.9l.9-.07.28.48v.48l-.62-.21-2.21-.28-.34.62-.62-.21h-.55l.21-.48.35-.34Zm.07.76-.35.41-.28-.41Zm-.48-5,.41-.14.21,1H45l.28-.48Zm3-3v.21l-.48.41.14-.62Zm-.21-1.45.41.21-.07.35Zm4.28-1.1-.21.48-.35.21-1.1.28-.07-.55v-.55l.55.28ZM51,85.74l.55-.21.55-.14.28.35-.76.07v.69l-.28.48-.28-.21Zm.69,6.35-.41.28-.14-.55.41-.07Zm-1-.14-.21.48.21.48.41.41-.41.55-.55-.28-.48.14-.07-.28.62-.21-.07-.48L50,92.43h-.48l.14-.48Zm-1.1-.28-.55-.35-.28-.62.48-.14.55.14Zm1.52,5.87L51,98l-.41-.14v-.28l.14-.14Zm-3,1.45-.14.35h-.21V99Zm-.62,5.59.14.41-.41.21Zm.48,1.86v.28l-.35-.21Zm1.45-2.14-.28.48-.62.28.07-.48.14-.41Zm-.14,1.52,1.1-1.1,1,.21.07.55-.28.48L50,105.34l-.28,1.24h-1l-.14-.76Zm2.14-4.9-.62-.07v-.76l.69.14.48.41Zm.28-10h.48v.55Zm-.41-1.79.35-.28.55-.07.28.35Zm0-8.28-.35.41-.14-.41Zm-1.1,5.66.41.14.21.35h-.62Zm.14,2.14L50.1,89l-.41.21-.07-.62.62-.28Zm-.83-3,.28.48-.21.48-.41-.35-.14-.55ZM50,87.39l-.28.62h-.76l.14-.48-.48-.41Zm-1.45.69.55.21-.62.07-.28-.62ZM48,89.46l-.14.48-.35.41-.41-.21.28-.55.28-.48Zm-.62-3.11-.35.28-.55-.14.41-.48Zm-.9-1.45v.41l-.35-.14Zm-.21,7.87.48-.41.48.21-.14.41.55.21-1,.41-.55-.14Zm-.83,1.59.83.14-.14,1-.69-.14.21-.41Zm-.55-.55.48.83-.69-.14-.14-.41-.07-.48Zm-.55.83.35.62L44.09,95Zm-.76,2.14h.21v.28h-.21Zm-.21,4.28-.21-.55.55-.07.48.21-.28.41Zm.83,1.24.14-.48.35-.21.35.14.07.55Zm1.17,3.38-.41-.14v-.48h.41Zm.07-2.42-.55.07-.28-.41.48-.14.62-.07.41-.35.28,1.1.35.35-.35.35-.41-.07-.41-.35Zm.28,8.42v-.35l.55-.14-.14.76Zm.9.9-.34-.21.34-.07Zm-.48-3.66.21-.55.41.41Zm.76-2.69-.55-.14.55-.28Zm.21,9.52-.07-.14.35.14Zm1-7.25-.48.48v-.48l.62-1.38.48-.07.28.28v.55h-.48l-.14.35.48.28-.35.14Zm.9.83.55-.14.55.14.41.35.14.62-.41-.07-1-.48h-.55Zm1.1,2.35-.07.62-1.17-.21.21-.48.48-1,.41.41ZM48.78,114h.41l.41.28.07.48-.55-.28Zm.69,1.66.14-.62.21.62Zm-.69-2.42.34-.41.55.07.14.62Zm1.31.76.48.41-.62.14Zm.83,2.83-.69-.41,1.24.28Zm.41-2.55.28-.62.48.14.14.48-.41.14Zm1.17,3.93-.41.28L52,117.9l.48-.35Zm0-6.21-.41-.41h.41Zm-.14-1.52-.76.76h-.48l.69-.76.55-.07.41.21.28-.41.07-.48.55.35-.41.55-.48.35ZM54,113.89l-.07.55-.28.35-.41.21v-1Zm.14,6.83v-.21l.14-.14Zm0-3.66-.9-.62v-.55l.41.14.21.28.41-.28.28-.41-.28-.48.48-.14-.14,1.17Zm2.14,3.45-.48-.28-1,.14.21-.62.55-.07.28-.21.41-.14-.21.55.69.21Zm0-2.35v.41H56L56,118Zm-.21-1.1v-.55h.34l.14.69Zm1.1,5.31H57v-.21h.21Zm.41-5.73v-.35h.28l.35.35-.48.55Zm.9,2.69-.55-.41.55-.07Zm.35-3.11-.35.28-.62-.76-.14-.21-1.1.28-1.24-.21.55-1.1.35.28.21.41.55.07.55-.76.28.48v.76H59Zm.76,6.69h-.21v-.28h.21Zm.76-3.86H60l.14-.35h.21ZM60,117.21l-.14-.69.41.21.21.35Zm6,.83.14-.21h.21Zm2.55,3.24.21-.48.28.48Zm53.68-22.08-.76.14-.14-.69-.35-.48-1.38.48.21.35v.48l-.35.07-.55-.35v-.48l.28-.41.41-.14.35.28.14-.41-.14-.48-.62.28v-.69l.62-.21-.07-.55-.55-.14L120,96v-.35l.55-.41-.41-.55h.28l.35.28v1l.28.35-.34.48.07.41.35.28h.69l-.21.41.21.48.48.21Zm-4.21,7.25h-.48l-.14-.34.28-.14h.48Zm.14,3.17-.35,1-.28-.35.14-.48ZM117,101.89v-.28h.28v.28Zm.14,3.8h-.28l-.14-.14Zm2.28-9.18-.35.21-.41-.21-1,.14-1,.35.28-.48.48-.28v-.76l.55-.14.76-.76.28.28.07.41-.48.28-.28.48Zm-.41,4.07-.35-.14.21-.41.69-.07v.62Zm.55,2.83-.55-.14.41-.41Zm-2.21-5.59.55-.41.48-.41.41.55-.69.28-.07,1.1h-.41l.35.35.55.21-.28,1-.41-.35-.21-.55-.62.14-.07-.48.69-.62.28-.41Zm1.59,3.45-.35,1.31-.55.21.21-.55ZM117,100.09l.9.83.14.69-.41-.35-.28-.55h-.55l-.35-.28Zm.28,3.17.48.28-.62.07Zm.62.9v-.55l.41.14.07.41Zm.62,3.31.35.41-.07.62-.48-.48Zm.69,2.28h.48l-.28.48-.41.28-.14-.35Zm.21-3.17v-.41l.35.14-.07.28Zm.28-4.83-.14-.41h1.1v.41Zm.76-2.07.07-.41.14-.35.35.35-.07.55Zm.9,1.45.35.34h-.9Zm.21-.9.28-.55.21.48-.21.55Zm.55-4.62v.55l-.55.35v-1Zm-.55-.76.14-.35h.28v.35Zm1.93,2.35-.48.21-.14-.76,1.1-.41Zm-.76-4.07.35-.07v.28Zm1.66,1.45-.55-.35.14-.55.41.28Zm.9-2.48.48,1-.48-.28-.35-.41-.21-.55Zm-.62-4,.35.41-.48.35-.14-.41Zm-.41,1.52.28.41-.62.14Zm-3-.55.28.21.07.69.41.41.55.28h.62l.41-.28.34.28v.55h-.55l-.35.48-.48-.14-.14-.76-.62.28-.14-.55-.28.21-.48.07.21-.41-.28-.76-.07-.62Zm-1,1.1-.55.07-.28-.14-.07-.48Zm-1.73,2-1-.48.28-.76h.55l.69-.28.41,1.31.55-.07.35-.34-.41-.35-.14-.55.48.28h.41l.14,1.1.9-.48-.07.55-.69.35.76.76v.48l-.48-.21-1.17-1.17-.9.55.34.48,1,.9-.55.21-.35-.48-.9.14-.14.48L118,94.5l.28-.48-.07-.48-.83-1.31-.07-.41,1.17,1,.41-.14Zm-1.79,1.38.48-.35.48.41-.48,1.1-.83-.62Zm.34,2.07L117,96l-.48-.21-.14-.55Zm-.14,7.18-.28.48-.35-.48Zm-1.17-6.56V96h.28v.21Zm.28,4.62-.14.35h-.28l.14-.35Zm-.48-7.38v-.41l.48.14Zm-.41-5.38-.28.55-.21-.55Zm-.41,1.45.48.28.14,1,.21.48H115l-.35-.41-.07-.62Zm-.21,2.28.41.41-.41.35Zm.48,2.28v.48l-.41-.07-.07-.41Zm-.62,17.46.48-.14-.07.48.21.55-.48.28-.14-.69Zm-.14-1.31.62-.34-.14.48Zm.62-2.28-.35-.21.14-.41.35.21ZM113,90.15l.35.21-.35.28h-.28Zm-2.07-3,1.31.69-.14.48-1.52-.48Zm0,3.73-.28-.14V90.5Zm-.14-1.66.14-.48.35-.28.41.21-.34.41Zm.9,2.28-.34.34-.48-.07-.21-.41Zm-.28-.62.14-.34.41-.21v.55Zm-1.1,1.52h.28v.28h-.28Zm-.76-5.87.21.48h-.48Zm-.14,1.66v.41l-.41-.41Zm-1.52,2.42h.21v.28h-.21Zm-.41-3.31.28.35-.14.41-.35-.62Zm-1.66,1.79.48.35-.48.28Zm-.21,1.38h.21v.28h-.21Zm-1-1.93.48.21.21.48-.55-.21-.48.07-.28-.62Zm-.62,4.9.35-.41.21-.21.21.07v.69Zm.69,1-.41-.14-.14-.41.34.21Zm-.14-4.76-.14.55-.28-.55Zm-.41,1.45.55-.14-.41.41-.48.07Zm-1.66-1,.41.35-.55.28Zm-.48,2.14.48.14-.21.34-.41.07Zm.76,2.42-.21.48-.41.28.14-.35.07-.41Zm-1.45-1.1h.55l-.35.41-.69.07v-.41Zm-.62-1.93.28-.41.28.55Zm.28-1.52.28.35h-.48l-.28-.21Zm-1.17,1.38h.41l-.14.41h-.28ZM99.22,98l-.34-.14-.14-.35ZM99,108.1l-.21.55-.48.21-.35-.28v-.76l.14-.35.35.41Zm-.14,3.45V112l-.28-.48Zm-.69-6.63H98v-.28h.21Zm-.07-3-.28.41-.28-.41Zm-.55-7v.55l-.35-.35-.14-.55Zm-.28,10.28.14.48-.41-.21-.07-.55Zm.14,6.07-.07.62-.41-.07v-.69Zm-.62-4.42h-.48v-.69Zm-.14-4.76h-.21v-.21h.21Zm-.69-8,.55-.14-.21.48-.55.14Zm-2,5.65,0-.19.28.28v0Zm.79,9.74.07.55-.55-.28.07-.48Zm-.41,1.73.41-.41.41.35.07.69h-1ZM95,99.75l.28.34-.62-.14ZM94.25,97h.28v.28h-.28Zm-.48,1h.35l-.48.9-.28-.62Zm-1,10.84-.21-.35.62.21Zm.83-1.38-.78-.34,0-.15.22-.22.73.22.55-.14-.28.9Zm.62,5.87v-.28l.28.41Zm1.1,0-.21-.28.55.14Zm.21-2.55-.28-.62.41.07Zm.76.76-.41.14v-.55l.41.14Zm-.55-1.79-.21-.48.48-.14.41.28.48.07-.14.69Zm1.66,6.35-.62.14-.28-.55.14-.69,1.17.76Zm0-1.38-.21-.48-.34-.41.07-.48.35.28.55.83Zm.41-3.45-.07-.34.41-.14Zm0-1v-.41l.41-.41.48.07-.28.55Zm.9,1.93h.48l-.07.55-.55.35-.07-.41Zm.62,2.42-.55-.28-.21-.62.48-.28.41-.35.62.14Zm.41-1.79v-.48h.35Zm1.86,2.07-.48.14-.07-.48-.35-.83.62.28.41.48Zm9.18-5.59-2.62,1.59-.83.69-.28-.14-2.62.41-.62-.14-1,.48.28-.76-.9-.55-1.31-1.59-.48.14-.41.34h-.35l.35-.48.55-.41-.28-.76.21-.9-.28-2.35.07-1.1.41-.62v-1.24l.41-.9.07-.55.9-.9-.14-.62.41-.21.07-.55.48-.28.69-.9.14-.62.76-.21v-1l1.17-.28,1-.48-.35-.76.62.07,1.1-.14,1.38-.48,1,.07.55.21.48-.35.83.21.07.62.69.62.9.41v.55l.76,1.86.07,1.59-.14,1.1.07,1.1.21.55-1.1,2,.14.69-.35.41-.69,1.38-.62.83-.41.28-.14.76-.9.62Zm.9,5,.14-.69.28.41Zm.14-1.52-.28-.28.69.14Zm.14-1.93-.28-.28.62.14Zm1.24,2-.48-.21.48-.21.55.07.35.62-.21.41-.41-.28Zm1.66,1.93H114l-.35-.62L114,114l.41.07.28-.62.48.07Zm.83-5.25.21.41-.48-.07-.14-.35Zm0,6.69-.28-.28.35-.07.28.28Zm-.14-1L116,115l.21.35Zm.62-10.63H117l-.14.55-.62-.14Zm.55,2.69.41-.35.55-.14.14.21-.21.48-1,.41-.28-.21Zm-.21,1.38.41-.28,1-.07-.41.48L117,109Zm2.42,6.35-.62.21-.21-.55-.83-1.17-.07-1,.28-.14.07.48.76,1.79h.76Zm0-3.66.14-.21.28.07-.14.28Zm.28,2.21.07-.76.35-.41.14.48-.14.55.21.48Zm.9-8.07-.14-.62.35.28Zm.28,5.87.21-.21.35.21.21.41Zm1.1,1.52.14-.48.35.21.21.41ZM142,99.4l.14-.62.41.21Zm.41-5.18-.41.07-.14-.28.28-.14h.48Zm1-2.07-.21.48-.62-.14-.55.14-.35.35-.41-.28-1.1-.21-.28-.35.48-.76-.14-.55,2.21.14-.55.48.62-.07.55-.14.35.35Zm-3.66,6.63-.41.35-.62-.35.07-.48.55-.83v.41l-.21.48Zm-.07-2.48-.41.28.21-.76.55-.07.48.07-.21.41Zm.41,1.93.41-.14v.41h-.62Zm0,.9.41.41h-.41Zm.62,4,.21.35-.48.07-.21-.48Zm-.07-9.18-.62.21.14-.62.35-.55.41.48Zm.76-3.45v-.28l.14-.14Zm2.83,4.07.07-.55.28.55ZM147,89.74l-.35.48-.35-.28.14-1.79.41-.14.48.07.21.34-.48.41.28.35.48.14Zm2-.14-.76-.55-.14-.48h.41L149,89Zm1.52-3.45v.41l-.55.21-.07-.28Zm-.62,1.52-.35.48.41.9h-.48L149,87.81l.34-.07Zm-1.79-8.56.62.76v.41l-.9-.62ZM148,86.77v.41l1.17-.41-.35.48-.07.41-.62.14-.35-.55-.55-.35.28-.14Zm-.41-1-.76-.48.41-.55.48.41Zm-1.45-4.35.48-.14.62.14-1,.83-.35-.28Zm-1.73,1.24.28-.55.55.21.21.41-.41.62-.62-.28Zm.9,1.31.28.28-.35.48h-.69l.28.55-.28.35.62.41L145,87.19l-1.1.14-.35-.07-.21-.48h-.55l.07-.48.48-.14-.14-.28.21-.48-.28-.28-.07-.48.62-.14.14.62.55-.35Zm-2,4.07-.35-.14-.07-.48.14.28.14-.28Zm-.76-2.48.07-.41.28.35v.28Zm.76-4.35.41-.07.07.55h-.62Zm-.55,2.07.14-.41.9.21-.14.48-.35.28-.55.07Zm-.48.69h.35l-.14.55-.28-.07Zm-1.59,1.38.55-.35-.14,1-.48.21-.28-.28Zm-1.24,1.86.69.69.21.41.76-.14.55.28.48-.41-.55-.21-.28-.41v-.62l.21-.62.62.35-.07,1,.21.35.48.14-.14,1.79.55-.35.35.21.14.41.62.28,1.31-.55-.35-.41-.21-.55h-.48l-.34.62-.83-.41.21-.48-.21-.28.28-.41.55-.21v.62l.48.35.48-.48.14-.55.28-.07.07-.55.48-.76-.07-.62.76-.21-.07,1.24L147,87l-.76,1-.62.28.48,1.31-.48.76-.55.14.28.76-.9.48-.9-.76.41-.41-.55-.62-.35.28h-.48l-.41-.28.14-.76-.55.14-.76.48-.35-1.1-.83-.69-.48-.21Zm-.21,1.66.48-.14.9.9-.35.48-.55.28-.28-.14v-.55l-.21-.35Zm.07,1.86.41.21.14.41-.62.14ZM139.1,92l.35.14-.14.48-.48-.28Zm-.76,1.38.62.41-.55.48-.35-.48Zm-2.07,16.77-.48.07v-.69l.62.14Zm.76,1.59h-.28v-.41h.41Zm.76,2.76v-.21l.14-.14Zm.55-3.52.07-.28.28.41Zm-.14-5.11-.28-.14.28-.48.48.14Zm1-4.83h-.48l-.14-.48v-.48l.28-.34.62.76Zm.41,11.59.41.48h-.41Zm.14,2.42.35-.21.48.14.21.41Zm1.1-.9-.35.14v-.62l.48.07ZM141,97.88v-.41l.28.21Zm.14-3.73h.62v.62l-.41-.21Zm.55,2.07h.21v.21h-.21Zm.14,4.21.21-.28.35.21-.07.55h-.55Zm27.32,5.87-.35.07.35-.35Zm.83-1.1-.35.35h-.48l.69-.83h.35Zm.83,1.1h-.21V106h.21Zm.9-.69-.21-.21.35-.14Zm4.14,0-.07-.62.41.21.14.41Zm-.55-3.38.48-.28v.35Zm1.38,2-.07-.55-.41.07.07-.55.69-.21.21,1Zm0-2.9.28-.28.48.14.28.34-.34.35-.48-.14Zm1,1.38-.34-.14v-.28l.07-.07.41.07Zm.55.48.21-.41.35-.35h.41l.14.55Zm1-2.07-.55.28.07-.55.69-.28Zm1,.28-.48-.21-.14-.55.62.21.41.35Zm1.38,1.93-.41-.28-.21-.48h.9l.07.41Zm.28-5-.28-.48H182Zm-.48-1.1v-.48l.41-.48.69-.07-.28.41Zm0-2.69h.35l.14.48-.41-.07Zm1.38,5.18-.14-.48.28.14Zm.14-1v-.55l.35.28Zm.07-1.45h-.69l.28-.55.69.07ZM184,96l-.48-.35-.55-.14.14-.48.35-.28-.69-.14-.41-.41.41-.28h.48l.07.41h.41l.14-.62.48.28Zm1.73,3.59-.41-.21.07-.41.35.14Zm1.17-2.21-.14-.62.41.55Zm-.34-5,.48.07-.07.48-.41.07Zm-1-3.24h.21v.28h-.21ZM186,90.5l-.41-.07-.07-.35ZM185.48,94h.62l-.21.41-.41.14Zm.35,1.1.55.07-.14.62-.62.76-.55-.14v-.69l-.21-.62.21-.41Zm-.9-2.35-.62.9-.48-.21-.9-.35.14-.55.69-.9.41.07-.28.41-.48.21.55.28.35-.41.76-.07Zm-.07-3.45v.48l-.41-.21Zm-1,.07.48.07-.48.28-.41-.28Zm-.69,1.66-.35.21.14-.55Zm-.62-1.45v-.28l.41.28Zm.14-2.21.14.41-.55-.07-.35-.21-.14-.48ZM182,91l.28.55v.62l-.41-.41-.14-.62Zm.07,1.86.28.21-.28.48-.48.28-.48-.21-.41-.41-.48.07v-.34l.28-.41.76.76.35-.48Zm-.69-4.55-.35.07-.07-.41ZM181,90.22l.14.62-.48-.14-.28-.35-.41-.14.14-.62.35.21.07.55Zm-1-3.31-.07.48-.28-.48Zm-.07,1,.48.28.14.62-.62-.28-.28-.48ZM178.57,86l.28.14-.14.28-.28-.14Zm.21,1.86.55-.07.14.76-.41-.28-1.52.69.28-.48V88l-.28-.48.48-.21Zm-1.86,2.62.28-.69.62-.21h.62l-.14.35h-.62ZM177.4,92l-.48-.14.28-.41Zm.28-6,.21.55-.55.35-.07-.55Zm-1.52,1.93.41.14-.41.62-.14-.35Zm-.07,1.24.35.28.35-.76.55.14-.21.62-.69.9-1,.28.62-.83-.28-.35-.69-.76.07-.55.62.14Zm-3,1,1-.48-.35.21-.28.55.14.62h.48l.55.28.28-.34.48-.07-.14.62-.55-.07-1,.48-.28-.41-.14-.62-.48.76-.41-.21-.21-.41.41-.14.35.28.21-.48Zm1.79-2.42.21-.35.41.07-.21.41Zm.55-2,.21.35-.55-.28Zm-1.86-1.17.14.35h-.62Zm-.76,1.86.41.35.07.69.55.07.35-.28.14-1.17H175l.14.9-.55.21-.62.76-.21,1.59-.76-.14.21-.35.07-1-.55-.14-.07-.48Zm-.28,2.69h.28v.28h-.28Zm-.35-.35.21.35H172l-.21-.48Zm0,4.69-.07-.62.55-.28-.14.9,1-.55,1.1-.35.14-.76,1.24-.14-.9.62,2.28.21,1-.07-.41-.83-.07-.55.9.76,1.24-.48.41.21-.21.55-1,.48.34,1.17.41.41.55.21-.07.41.28.21-.41.28-.21.41.14,1-.9.9.28.83V99l-.69-.21-.28.48-1.38.9-2.28.48-.35.35v.55l-.69-.34-.41.28-1.59.35-.41.28-.41-.14-1.79.07-1.1.21-.07-.55.14-.55.35-.35-.21-.62.21-1.1,1-1.79.21-.9.41-.14.9-1.17.48-.28-.21-.83.76-.14-.34-.14-.41.14.14-.28ZM171,93.47l.48.21-.28.35h-.48l-.14-.48-.55-.28.41-.48,1.17-.48.07.62h-.55l-.41.14Zm-.07,1.31-.35.14v-.21Zm-.76-1.24V94l-1.1.14-.41-.41-.48-1.1.34-.35.35,1,.28.41.55-.41ZM170,95.81h-1l-.28-.55-.14-.69H169l.76.69Zm-2.14-4.21.41-.14.35.55Zm.28,4.35.21.28-.41.35-.48.14.35-.34Zm2.62-8.7.69.07.21.62-.69-.21-.69-.41Zm-2.14,1-.14.35-.21-.21Zm-.9,1.52h-.28l-.07-.07Zm-.28.14.55.28.35.41h1.17v-.69l.14-.62.28-.35.55.83.55.14-.48-.35.41-.35.48.48-.21.48.35,1-.55-.28-.9,1.24v.41l-.9.48.14-.62,1-2-1,.21-.14.9-.41-.35-1-.41-.48-.35Zm.28,2.21-.07.41-.41.07-.14-.48Zm0,1.79-.35-.21-.14-.48h.34Zm-1,1.73.21-.62h.48l-.14.62-.35.41h-.48Zm-.28,5.52.35.48h-.35Zm-.69,2.14.41.62-.48.14-.14-.62Zm-.48-2.55v-.35l.41.35Zm.62-5.87h-.21v-.21h.21Zm-.35-2.62-.55-.41.69-.14Zm-2.68,9.38H163l.21-.35.55.07.55-.69.41-.28-.76,1.45-.41.41-.62-.48-.09.07Zm1.37.63.48.21.07.55-.55-.21Zm.41-3.52v-.55l.48.41Zm.14,2.55.41.35-.41.28ZM164.7,90.5l.48.14-.48.48Zm0,2.62.48.14-.07.41-.28.28-.28-.35Zm-.14,2.42.48.07-.41.28-.07.48-.35-.35Zm0,1.79.41.14-.14.62-.41-.21-.28-.41Zm-1,2.07.55-.28.41.14.14.41-.76.48-.41-.14L163,99.4Zm-2.48,6.35v-.07l.1-.15.17.22Zm.76,2.07-.14-.41-.14-.48.14-.41h.41l.14,1Zm.48-4.44.15-.18v-.62l0-.08.1.08.55.14-.14,1.38-.76-.14Zm.07,2.65.28-.41.69-.9.28.41v1l-.62.14Zm.35,2.28.07-.55.34-.41.48-.14.14.41v.55l-.55.21Zm.9,2.07V110l.28.21Zm1.17,2.62-.41-.35-.14-.62h.55Zm.14-2.9-.14-.41H165Zm0-2.69.48-1.24-.76.14-.76-.76.21-.55.41-.35-.48-.55-.28.41h-.41l.28-.48,1.17-.41.35.48.9.69.41.48-.69.9.07.62-.48.69Zm1.93-.9.21.41-.76.28.14-.83Zm-1.45,3.93.21-.41.07-.55h.35l.14.9Zm1.24-1.59-.14-.35-.21-1.1h.41Zm.28,3.24.48.14-.07.76-.48-.21Zm.48,1.93h-.21v-.35h.34Zm-.21-11.46-.55.14v-.48l.48-.14.41.14Zm.34-2.28.21-.41h.35Zm1.1,7.18-.41-.21.28-.21.35.14Zm1.1,8.83-.48-.14.07-.48h.41Zm30.43-32.09-.14-.76.48.14.14.35Zm2.07,2.62-.55.07-.34-.41.62-.14h.55Zm.62-1.79.34-.28.41.07-.28.48-.62.28Zm.28,2.83.14-.48.21.62Zm.21-.76v-.76l.55.28ZM204,88.5v-.21l.35.14Zm.28,4,.07-.69.55.28Zm.62-2.83-.55-.14.55-.48Zm-.28-4.21-.35.28-.07-.55.28-.62h.41Zm.48,2.28-.07-.62h.35Zm7.45,11.11.35-.35.62-.14-.41,1.45.28.41-.07.48-.41.21.07-.76-.41-.41.28-.48Zm-.14,13-.55-.14h-1.38l.21-.35.41-.14-.14-.9.48-.21.28-.28-.55-.28-.21-.62.48.07.28.28.28-.48.48.21.28.41-.28.48-.76.83Zm.48-9.18-.9.35-.48,1-.48-.34-.21-.48-.21-1.1-.28-.48.28-.14.9,1.38.14-.48.34-.41.55-.14-.07.55Zm-1.1,2.69.48.28-.48.21h-.62l-.62-.28-.35-.48Zm-.14,1.17-.28.21-.28-.35Zm-.76,1.24-.14.28-.41-.28.14-.48Zm-.41,1.45-.14.48-.76.48-.28-.21.14-.48.76-.55Zm1.66-5.66.41-.21.83.76-.48.07Zm-.41-2.83.41-.48.62.55-.35.35-.48.14-.55-.14Zm-.48-1.86-.14.41-.48.07-.14-.62ZM210,95.26l.28.41-.28-.14Zm0,9.8-.41.21-.41-.07.21-.48.28-.41Zm-.76-5.18.21.35h-.41ZM207,107.41l.28.48h-.62Zm.48,1.66-.07-.55h1.66l-.48-.28-.07-.41.14-1h.41l.48-.9.83.48.07.55-.62.07-.55.83.55.28-.21.41-.41.21-.55-.14-.69.76-.55.14.35.28-.41.14-.48-.14Zm.07,2.76h-.41l.14-.48h.28Zm1.86,3.11-.9.21-.35-.48-.55-1.17.83.35.48.07-.28.48.9.14Zm.9-2.28-.55.14-.35.55-.41-.14-.21-.48.41-.21,1-.28.41.21.28.41Zm3.11,1.24.48.35v1l-1-.14-.28.55-1.24-.41.35.48.14.69-.9-.21-.48.07.14-.55.48-.21-.21-.41v-.48l.55.07.69.35.48.07.34-.28.07-.41-.14-.55-.48-.41-1.17.55-.21-.48.21-.55.62.14.28-.34.07-.48.41-.21-.07,1h1l.35.35-.55-.14Zm2.14,3.8h-.28l.14-.35h.28ZM228,107.13l-.29,0,.12-.11Zm.14,1.38-.55-1.17H228l.28.9.35.28Zm1.38-.48-.41-.14-.14-.41.69-.14Zm.14-2.69-.35-.14-.21-.41.69.14Zm.62,3.31-.41-.41.69-.14Zm.21-13-.28-.48H231Zm4.07-.9-.41-.07.14-.69.28.28Zm1.24-1.73-.48.07-.14-.41.28-.35.48.14Zm.14-1.52-.62.28v-.55l-.14-.41-.69-.07.28-.41.9-.34-.07.62.55.28Zm1.24-2.35-.35.41-.28-.62Zm-.9-1.79.35.35-.14.35-.41-.14Zm-1,.69-.28.28-.41.07.14-.48Zm-.9-.76.14-.41.21.62Zm-.14-1.17.35.28-.35.07Zm.48,3,.48-.35h.69l-.69.62-1,.35-.28-.48Zm-.76.9-.14.55-.35-.28Zm-.76-2.76.14.35h-.48Zm-.76,1,.41.21.21.48-.21.21-.55-.35Zm.07,3.93h1.1l.62.28v.62h-.55l-.07-.62-.48.28v.55l-.21.48-.28-.41-.62-.83L232,92Zm-.69,3.59.21-.14.41,1H232v-.48Zm.14-4.55.07.48-.28.07-.48-.21Zm-.76,3.45.55.21-.69.41Zm0,2.28.76.48-.48.14Zm.55,13.32h.48l-.07.48Zm.48,5.45.14-.35.41.48Zm.28-14.15h-.62L232,101l.55-.76.62.83Zm.83-4.14-.28-.48.48-.28.41-.48.55.48-.48.35-.07.28Zm13,16.91v-.21l.41.21Zm4.21-.21.14-.28.14.35Zm1.52-21.67v-.55h.41Zm.9-1.66-.28-.28.07-.48.21.28Zm5.11-3.59.28.35-.14.41-.21-.34Zm.14,4.83-.14.41-.35-.28.07-.35Zm-.41-1.24v.48l-.35-.48Zm-2.55-3.59-.07.55-.21-.35Zm0,2.28.55-.28.35.41h-.69l-.55.28Zm-1.38,11.39h-.28v-.28h.28Zm-.14-3.31.14-.55.35.41Zm.28.9v-.28h.48Zm.62-5.66h.76l-.35.76-.34-.21Zm.76,5.52-.35-.28.35-.28Zm-.21-2.07.14-.41.21-.35.21.48Zm.76-1.52h-.62l-.28-.48,1.24.14Zm0-1.52V93h.21v.28Zm.83-1.38-.41.35-.62.14-1.17-.21-.41-.28.14-.69.35.28.14.48.55-.14.35-.35.41.28.83-.41Zm-.07-1.31.21-.35.21.35Zm.83,2.9-.21.07-.14-.48.14-.41.48.35Zm.69.14-.28-.48.48.07.28.35Zm2.14-8.76.21.35-.21.28Zm-.35,3.8-.35.35-.21-.35Zm-.9-1.66h.28v.41H259Zm.55,3.59-.28-.35.41.07.35.55Zm.48-3.17-.14-.41.48.28Zm.35,2.69.28-.41.35.14.14.41Zm.35-.83-.35-.35.62-.21.55-.28-.14.76Zm.83,2.21.14-.35.21.35Zm.62-3.17-.14-.41.35.21.21.34Zm1.1,2.28-.62.28.07-.48.07-.41h.55Zm2.21-3.31v.41l-.41-.28Zm0,3.17-.69-.14-.07-.62,1,.28Zm1.79,17h-.28v-.28h.28Zm.62-1.52-.35-.14.07-.62.55-.14Zm5.11-5,.28-.28h1v.9l-.76.14.07-.55Zm-.41,3.8-.48.14-.21-.55-.55-.35.48-.28-.21-.21.41-.14.21-.41h.35l.14.62h-.76ZM269.86,99l.48-.76-.62-.28.21-.41.55-.07.21,1,.55,1h-.62Zm.28,7.52h-.41v-.28Zm.07-12.22.55-.14.14.48v1.59l.21.35-.35.35-.55-.07.28-1-.35-.35.28-.35v-.48Zm1,8.76-.14-.34.35-.48L272,102Zm1.52-2.76-1,.55-.55-.07.21-.41.07-.41-.14-.48.55.28h1.24Zm1.17-6.69.9-.55.62-.21v.9l-.62-.14-.35.48-1,.69-.55-.07-.35-.41h1.1l-.21-.48-1-.14-.21-.41-.48.14-.41-.21-.14-.41.48-.07,1-.14.41.21-.28.48Zm-.41-4.14v-.28h.28v.28Zm.14,2.14h.41l1,.48-.69.9-.48-.21Zm-1.31,4.28-.55.21-.28-.69,1.24.14Zm.21,1.31-.55.28.28-.55Zm.62-.14.48.9-.62.62-.28-1.24Zm-1.31-3,.28.48-.41.14-.41-.35-.07-.55Zm2.28,4.69-.21-.48h.41l.07-.48h.41l.07.41.41.21-.76.62ZM276,101.4h-.28v-.35l.35.07Zm.07-4.42-.48.35-.28-.76h-.55l-.28.35-.41.14v-.48l.28-.55.07-.48.48.14.41.07.28-.34.35.41.21.62Zm2.21-4.21h.35v.35h-.35ZM278,94.29l.28.35H278Zm-.35,3,.07-.14.41.14v.28l-.14.14-.35-.14Zm-.83-2.28v-.41l.69.41Zm-.07-1.31-.55-.21.41-.28.48-.14Zm-.83-2.69.69.07-.41.62.35.21-.07.55-.62-.55h-.55l.21-.48Zm-1.52-1.38.14-.48.62.21.28.41-.48.48-.41-.21-.9.14.28-.48Zm-1-1.66.35.28h-.35Zm-1-1,.35-.07v.76h-.35Zm-1.31,2.35.55.21.41.41h.35l.14.76,1-.28-.34.9.28.21-.41.28-.76.14.07-.48-.14-.55-.35-.48-.76.07-.55-.28-.21-.41.14-.35Zm-.48-1.52-.21.48.21.62-.28.14-.21-.48-.14-.76Zm-3-1.31v.41l-.55-.28Zm.35,5.31-.14.41-.41-.28-.14-.41.21-.41.34.21h.55Zm.62-3.17.69.9-.41.28h-.35l.14-.55Zm.62,4-.07-.76.76.35V91.6l-1-.62-.21-.55.55-.07.35-.28.35.41-.07.69.28.55.41.07.35.41-1,1-.48-.21Zm.28,14.84.14-.62.41.14v.69l-.76.21Zm.14,2.07-.48.28v-.35l.48-.28Zm.14,3.93v-.35l.48.28Zm.41-2.42v-.35l.21.35Zm-.14-1.38.35-.21.28.35Zm.62-7.87-.41-.41v-.48h.55l.28.62Zm1.66,14.35-.28-.35.55.07Zm0-3,.14-.48.14.62Zm-.07-3.38-.14-.55.07-.48.35.14.35.48.07.69Zm1.31,2.14-.07-.48.35.14Zm0-.9.14-.62.28.34Zm-.07-3.93-.48-.41-.41-.14-1.31.69-.14-.48.48-.35,1-.55.41-.41.41.28-.41.48.28.28.35-.62.34.35Zm.76-3.93-.55-.14-.48-.76.48.48.76-.35Zm.21,12.08v-.62l.48.35Zm.14-9,.62-.14-.28.62Zm1.52,8.42h-.21v-.28h.21Zm25.25,10.63h.41l-.41.48Zm-3.66,12.08v-.28l.35.28Zm3.66-6.63-.28,1.17-1.17,1.73-.21.55-2.76,2.28-1.1.14-.35.28-1.66-.07-1.38-.55-.9-.9-.28-.55v-1.17l.41-1,.76-.83,1.86-1.31,1.86-1.1,1.1-.14.9-.62.62.21.34-.28.62-.21,1.73-.14.28.48.35,1.79Zm1.45,5.38.07-.41.14.41Zm13.46-24.71h-.35l-.14.48-.55-.14.21-.55.41-.35.55-.14Zm-2.21-.48,1-1.31.76.14V110l-.69.83-.62.21-.21.35-.41.14Zm-.55-.83-.14-.48.34-.14.14.62Zm.48-3.31v-1.1l-.41-.28L314,105l.55-.14.48.28-.41.76.28.28.35-.35-.07-.55.76.14-.28.55-.76.69v1.1l-.14.55-.48-.14.07-1.1Zm-.76-3.38.48-.07-.14-.9.69-.07.48.9v.48l-.35-.55-.55.14.14.55.41.14-.55.48-.35-.35-.14-.41-.69-.14-.34-.48Zm-1-5.8V97.4h.28v.21Zm.76-2.42.14-.48.41.48Zm3.86-1.66v.41h-.55Zm-.55-1.38h.55v.76l-.48-.21Zm.07,3.52.48.07-.14.48H316Zm-.55,4-.14-.55.76-.07-.14.48Zm.35,1.86-.62-.34H316Zm-.62-7,.14-.48.28.48Zm.41,5.59-.41.35-.48-.35-.62-.14-.28-.21.14-.35.21-.35.62.21.35.48Zm-.69,1.17-.07.41-.41.48v-.55Zm1,6.63h-.69l-.14-.41.62-.14.55.28Zm2.14.34H318l.14-.34h.28Zm.14-5.94-.28.41-.48-.07.34-.41.41-.35.62.28-.28.28Zm-.41-5.8v.55h-.48l-.14-.28Zm-.62-3.66V92.5l.28.21Zm1.52,6.42.14.48h-.69l-.48-.14.14-.62Zm.41,4.42h-.41v-.41h.41Zm-.55-11.32V92l.28.21Zm-.21-2.76.21.28-.48-.07Zm-.41,5.52h-.28v-.35h.41Zm-.28-2.9-.62-.28.28-.48.28.28Zm-.21-1.93.07.48-.28-.28-.35-.21Zm-.55,7.11.28.41-.28-.14Zm.14,6.56.41.35-.14.69-.28.48-.55-.14-1.17-.83-.21-.48.48.21.55-.21.76.69Zm-.62-1.66V102H317l-.14.41Zm.34-5-.14.35-.62-.48Zm-.21-6.63-.35.48h-.69l-.14-.62Zm-1,1.79.21.48-.55-.07-.48-.41V92Zm-1-1.79.28.07-.14.28-.28-.14Zm.35,2.48.14.55-.41-.14-.21-.41Zm-.35,1.79.14.55.48.21-.28.55h-.62l.21-.48-.28-.48Zm-.41,2.9-.28,1-.48.14-.07-.48.41-.9.35-.28Zm-1.17-5.11.35-.28.21-.41h.55l-.35.48-.48.35-.21.55-.55-.48Zm-1.38,2.21.69.14-.28.41-.48-.14Zm-.07,7.32H312v.21h-.21Zm-.28,3h.62l.07.69.28.41.07.9,1.1-.21.28,1,.41.28.48.07v.76l-.62-.21-.55.21-.28-.83-.41-.28-.69-.14-.07-.62L311.4,106l.48.14v-.48Zm.48,3.45.9,2,.76.62-.14.55h.62l.35.21.21.41-.62.14-.41-.55-.14.28-1-.76-.28-.48v-.76l-.76-.69-.28.9h-.62l-.62-1.38.9.28-.07-.55-.07-.62.55.28Zm-1.86-1.66.48.07.28.28v.55l-.62-.28Zm-2.69-17.6-.28.48-.35-.35Zm-3.24-1.24,1.17-.28.48.14.21.48-.62-.14-1.59.14Zm1.45,1.24v.28h-.28V89.6Zm-2.48-.21.55.21.14.62.41.41L304,91l-.41.07-.48-.21.14-.69-.14-.55-.48-.14Zm-1,1.45.28.41-.28-.14Zm-1.66-1.17.62-.83.76-.62.14.41-.14.48-.83.07v1l-.41.21-.28-.14Zm1.17,3.11h-.41v-.34Zm-1.31-1.52h.69l-.28.28-.41.07Zm-.62-3.17-.35.34-.28-.34Zm-.48,1.73.35-.21-.21,1-.28-.35Zm.35,1-.07.48-.28.35-.21-.48Zm-1.73-1.93.62-.14-.07.62-.48.28-.21-.14Zm-.41,1.38.48.14-.07.41-.41.07ZM297,91.4l.48.14.07.48.35-.35.28-.41.48.35.14.48-.14.55-.34.48-.41.28.62,1-.07.55-.41-.35-.21-.48-.28-.28.21-.35.07-.55-.9-.9Zm-.83,6.21-.14-.48.35-.28.28.62Zm.35.62-.28.14V98Zm0-7.87.28.41-.41.07L296,90.5Zm.41,3-.14.62-.62-.14.21-.55.41-.34Zm-.55,1.24.14.48-.48.41-.07-.55ZM295,92.22l.55-.07-.21.55-.55-.07Zm-.55,6.14-.69.28-.21-.48V97.4l.76.48Zm.35,3-.28.35-.48.14.21-.55Zm-.9,6,.14.48-.41-.14-.35-.28-.14-.48Zm-.76-1.45.48.41-.35.07Zm.48-13h.41l-.14.34h-.28Zm-.9,3h.55l.28.34h-1.17Zm-.62,6.35.28-.14v.48l-.28-.14Zm-.76,1.86.41.28.21.41-.48-.14-.41-.21-.21-.41Zm.07-6.69.21.48-.41-.07-.21-.35Zm-2.35,12.42v-.76l.62.14-.21.48Zm.76,1.86-.14-.55.35.28.21.48Zm.76-1.31h.28v.21h-.28Zm.55,2.14h-.28v-.28h.28Zm-.28-6.21.55.28.07.48-.35-.35Zm.83,7.59-.21-.35.41-.14.21.41Zm.35-1.59-.14-.55.48.48Zm.48-1.17-.48-.35-.28-.55.55.14.35.35Zm.14-5.59h-.41l-.07-.55.07-.35.41.41Zm.62,10H293v-.21h.28Zm.76,1-.28-.48h.55l.14.48Zm-.28-3.11-1,.21-.07-.55.14-.48.55.07,1.1.21Zm.76-.69-.07-.48.07-.41.9.28.41-.28.35.48-.41.41Zm1.79.21.28-.35.21.48-.62.28Zm.28,3.24-.34-.21-.14-1,.41-.07.41.07Zm0-1.79v-.28l.35.28Zm1,2.14-.28-.76.55.21.35.41Zm.55-3.24.07-.41.62.14-.69,1.24-.41.28-.28-.28.28-.35.48-.14Zm.9,2.21-.41.14-.41-.14v-.35l.34-.14h.55Zm.35,1-.07-.21.14-.41.21.28Zm-.21-2.28.07-.48.41.21.07.55Zm1,3.73-.35-.14.35-.35Zm.28-4.9.48.07.35.48.21.62L301,114Zm1.31,4.07h-.41l.21-.69-.07-1,.48.21.76.62.14.48Zm.35-2.42.62-.07-.48.48Zm.07-3-1.17.35-3.59-1.59-.14-.62-.76-.9v-1.24l-.41-.41.14-.41v-3.24l.62-1.31-.21-.48.21-.48.69-1,.14-.48-.14-.48.9-1.66.76-.28.21-.55.69-1,.21-.55.69-.14,2.21-1.45,1.1-.41,1-.21h1.17l.55.14.41-.35.35.14-.14.48.35.28,1,.35.14.48,1,1.24.21.48.21,1.52.35.48-.21.48-.07,1.1-.28.48.14,1.1-.28.48-.48,1.73-.48,1-.41.41.41.76-.69.14-.07.55-.21.41-1.52,1.38-.83,1.45-.62.07-.83.55.14.69-.35-.41Zm7.11-2.48-.69.14.14-.76,1,.28Zm.21.76-.35-.28.21-.21Zm-1.79,1.17-.62.14-.14-.48v-1h.41l.07.48.21.34Zm-3.38.76v.48l-.41-.21Zm-.69,4.21-.14-.9.28-.14.76.62-.35.35Zm1.31,1.38-.55-.28.76-.76-.48-.76.41-.21.21-.41-.28-.21-.48-.07-.07-.69.21-.55.41.28.69.76.28.48-.21.55v1Zm0,5.38.48-.14.62-.69.21.55-.07.41-.28.35-.48.14-.41-.14-.35.28Zm.9,1.59.14-.48.28.14.07.48Zm.83,2.55.41.21.28.41v.55l-1.31-.35.21-.62Zm-.69.14-.48.21-.21-.41h.55Zm-2.07.14.48.14-.07.48-.35-.14Zm.48,4.35-.35-.14.28-.62.41.28.21.48Zm.28-7,.48-.07.28.55v.55l-.48-.41Zm.41,3.73.21-.41.55-.07-.34.48Zm.76,1-.28-.28.41-.28.48.35.14.34-.62.35Zm.21,2.28.28-.41h.35l.28.41Zm.76-2.28h.55l.14.76Zm1.66-2.07-.62-.28.21-.35.41-.14.14.41Zm.69-2V125l.35.41Zm.62-.76-.76-.14.21-.48.28-.41V123l.28.07.07.48-.14.48Zm1.17-5-.55-.41-.55.07-.35-.21-.35.41.14.69.35.41h.48l.14.55.76-.41.28.76.48-.14.69-.48-.14-1,.62-.21.28.21-.41.76v.55l-.35.14-.14.35h.62l-.07.55.21.48-.62.28H312l-.35.83-.9-.07.35-.41v-.62l.48.21.41-.07-.48-1.17-1.17.41h-.48l.35-.69-.76-.9-.41.21-.21.35v1l-.48.14-.62-.07.35.9.76.28-.14,1-.48,1-.83.62-.55.21.28-.48.48.07-.14-1.38.62-.14-.14-.41-1.1.14v-.76h.76l-.14-.41.14-.48h-.9v-1l.48.21.62-1,.41.21.35-.07-.28-.35-.83-.41-.41.41-.62.21-.28-.21.21-1.1-.55-.21.14-1.17.28-.41.48-.21-.14,1,.55.35-.07.55,1.31-.62v-1.1l-.28-.28v.9l-.35.21-.28-.35.34-.28-.62-.76.14-.76.41.14.76-.14.34-.55.55-.35-.83-.76-.14.28.07.48-1,.35-.69.62-.55.21.14-.55-.14-.48.9-.28-.28-.41-1-.35.35-.62-.48-.9-.41-.28.28-.48.41.14v.76l.48-.14,1.24-.76.14.76.48.28.35.48.48.28v-.48l-.76-.69-.28-.41.35-.55.48-.21.55.14-.07.55-.28.35.21.41.41.21-.07.41.41.28.55.07v.62l.28,1-.69-.14-.14-.55-.28-.41-.48-.21v.9l.55.21.62.83,1.24-.76h.55l-.28.48.14.55.41.35.07-.55.55-.83-.55.35-.21-.35v-1l-.62.14-.41.28-.62-.41.62-.48-.76-.14-.69-1.17.14-.48-.35-.48V111h1.38l.07.48-.21.41h.62l.28-.48.76,1.66.48-.21.41.14.28.41-.14.48.07,1,.35,1-.55.21-.62.83.48.76-.69.83-.14.55Zm.62.62-.55.14-.35-.55Zm2.28-1,.14-.62.35.48Zm.9,1.38-.35-.28-.07-.62,1.17.28Zm.55-2.69.07.69-.41-.28-.62-.14.41-.9-.41-.21h-.55l-.35-.41H314l.48.14v-.41l.69.69.48.21Zm-.55-2.14v-.35h.35l-.07.35Zm.76-2h-.55l-.48.21.07-.41.21-.34.62.21.62-.07Zm2.28,4.07-.21-.28.21-.28Z"/><polygon class="cls-1" points="307.46 114.58 307.95 114.86 308.36 114.45 307.81 114.31 307.46 114.58"/><polygon class="cls-1" points="307.74 113.14 307.19 113.48 307.05 113.89 307.81 113.69 307.74 113.14"/><polygon class="cls-1" points="311.54 113.55 312.02 113.41 311.54 113.14 311.54 113.55"/><polygon class="cls-1" points="310.91 117.9 310.78 118.52 311.33 118.79 311.81 118.66 311.47 118.17 310.91 117.9"/><polygon class="cls-1" points="311.54 112.38 311.4 113.07 311.81 112.79 311.54 112.38"/><polygon class="cls-1" points="307.95 119.69 308.22 119.48 307.95 119.28 307.95 119.69"/><polygon class="cls-1" points="310.02 118.79 310.36 119 310.5 118.38 309.88 118.38 310.02 118.79"/><polygon class="cls-1" points="310.91 116.86 310.5 116.86 310.36 117.48 311.05 117.62 310.91 116.86"/><polygon class="cls-1" points="309.33 116.52 308.84 116.59 308.98 117.14 309.26 117.48 309.74 117.21 309.88 116.59 309.33 116.52"/></g></g></svg>