<svg xmlns="http://www.w3.org/2000/svg" width="292.91" height="193.26" viewBox="0 0 292.91 193.26"><defs><style>.\36 ae1f6ca-6f2a-4a40-bef8-1cc01b35b03e{fill:#1c264a;}</style></defs><title>アセット 2</title><g id="8812c13b-7506-46a3-9d8a-268921425e2c" data-name="レイヤー 2"><g id="02dea33f-b9e1-4640-89de-82a7b903fdd0" data-name="レイヤー 1"><path class="6ae1f6ca-6f2a-4a40-bef8-1cc01b35b03e" d="M18.55,177.3l-2.62-1.22A20.56,20.56,0,0,1,14,180.49a24.58,24.58,0,0,1-4.85,6.31,7.82,7.82,0,0,1,2.23,2c3.14-3.26,4.58-5.57,6.89-10.87.38-.12.5-.19.5-.36A.34.34,0,0,0,18.55,177.3Z"/><path class="6ae1f6ca-6f2a-4a40-bef8-1cc01b35b03e" d="M28.08,177.23l1.2-1.32a16.2,16.2,0,0,0-3-2.4l-1.06,1.22A14.73,14.73,0,0,1,28.08,177.23Z"/><path class="6ae1f6ca-6f2a-4a40-bef8-1cc01b35b03e" d="M24.91,176l-2,1.51a32.53,32.53,0,0,1,3.82,5.23,29.22,29.22,0,0,1,2.62,5.35L32,186.64a29.86,29.86,0,0,0-2.54-5A27.88,27.88,0,0,0,24.91,176Z"/><path class="6ae1f6ca-6f2a-4a40-bef8-1cc01b35b03e" d="M30,175.14l1.2-1.3a17.46,17.46,0,0,0-3-2.42L27,172.67A13.94,13.94,0,0,1,30,175.14Z"/><path class="6ae1f6ca-6f2a-4a40-bef8-1cc01b35b03e" d="M38.74,180.85c-1.1,0-2.53,0-3.43-.07v2.62c.91,0,2.33-.07,3.43-.07h11c1,0,2.53,0,3.46.07v-2.62c-.93,0-2.46.07-3.46.07Z"/><path class="6ae1f6ca-6f2a-4a40-bef8-1cc01b35b03e" d="M64.52,176.18c-.89,0-1.15.19-2.83,2A39.13,39.13,0,0,1,56.63,183l1.63,2.18a.58.58,0,0,0,.41.22c.14,0,.24-.17.31-.55.6-.67,1.06-1.2,1.37-1.54l1.49-1.61c.55-.65,1.68-1.87,1.87-2.11a1.83,1.83,0,0,1,1-.67c.34,0,.67.19,1.85,1.13S70,182.89,71,183.66c1.25,1,2.06,1.63,6.1,4.7a7,7,0,0,1,1.61-2.54c-2.18-1.42-4.94-3.36-7.42-5.23C65.55,176.25,65.46,176.18,64.52,176.18Z"/><path class="6ae1f6ca-6f2a-4a40-bef8-1cc01b35b03e" d="M73.88,178l1.2-1.3a15.55,15.55,0,0,0-3-2.42L71,175.5A13.83,13.83,0,0,1,73.88,178Z"/><path class="6ae1f6ca-6f2a-4a40-bef8-1cc01b35b03e" d="M75.9,175.79l1.2-1.32a16.1,16.1,0,0,0-3-2.4L73,173.3A14.61,14.61,0,0,1,75.9,175.79Z"/><path class="6ae1f6ca-6f2a-4a40-bef8-1cc01b35b03e" d="M97.3,181.74l-4.54.65-.55-4.2,3.7-.46c1.2-.14,1.54-.19,3.34-.36L99,174.86c-.62.12-1.92.29-3.31.48l-3.84.5-.1-.72c-.24-1.82-.38-2.69-.43-3.22.29-.22.38-.36.38-.48s-.12-.24-.41-.24l-2.66.1c.14.58.48,2.52.7,4.3l.07.6-3.17.43c-.67.1-2.74.31-3.48.36l.38,2.57c1.1-.19,2.57-.46,3.31-.55l3.36-.46.58,4.2-4.37.53c-1.61.19-2.52.31-3.41.36l.34,2.5c1-.17,1.9-.29,3.34-.48l4.42-.6.36,2.57c.41,3,.53,4,.6,4.87l2.59-.24c-.22-1.18-.46-2.71-.74-4.85l-.36-2.69,4.39-.58c.72-.1,2.47-.26,3.34-.34l-.26-2.52C99.73,181.41,98.36,181.6,97.3,181.74Z"/><path class="6ae1f6ca-6f2a-4a40-bef8-1cc01b35b03e" d="M118.18,187.41l.34-5.3c.1-1.54.17-2.11.31-3.29-.74,0-2.38.07-3.48.07h-5.21c-.82,0-1.46,0-2.06-.07v2.35c.77,0,1.27,0,2.06,0h6l-.46,6.26H108.8c-1.08,0-2.14,0-3.22-.07v2.35c1.08,0,2.14,0,3.22,0h10.77c1,0,2.23,0,3.22,0v-2.35c-1.3,0-2.23.07-3.22.07Z"/><path class="6ae1f6ca-6f2a-4a40-bef8-1cc01b35b03e" d="M130.55,180.85c-1.1,0-2.53,0-3.43-.07v2.62c.91,0,2.33-.07,3.43-.07h11c1,0,2.53,0,3.46.07v-2.62c-.93,0-2.46.07-3.46.07Z"/><path class="6ae1f6ca-6f2a-4a40-bef8-1cc01b35b03e" d="M155.42,176.73a30.43,30.43,0,0,0,1.46-3.91c.5-.17.58-.22.58-.38s-.12-.26-.34-.31l-2.59-.62a17.55,17.55,0,0,1-1.61,4.58,20.76,20.76,0,0,1-4.49,6,6.68,6.68,0,0,1,1.7,2,23.1,23.1,0,0,0,4-4.87h6a19.1,19.1,0,0,1-.38,3.12,9.42,9.42,0,0,1-3.67,6.07,19.74,19.74,0,0,1-4.46,2.42,7.58,7.58,0,0,1,1.54,2.21c3.7-1.78,5-2.64,6.43-4.27,2.06-2.38,2.83-4.7,3.14-9.55H166c1,0,2.47,0,3.36.07v-2.57c-.89,0-2.38.07-3.36.07Z"/><path class="6ae1f6ca-6f2a-4a40-bef8-1cc01b35b03e" d="M176.68,180.85c-1.1,0-2.53,0-3.43-.07v2.62c.91,0,2.33-.07,3.43-.07h11c1,0,2.53,0,3.46.07v-2.62c-.93,0-2.46.07-3.46.07Z"/><path class="6ae1f6ca-6f2a-4a40-bef8-1cc01b35b03e" d="M210.74,175l-.36.43H203.9c.31-.65.46-1,1.08-2.62.43-.17.5-.22.5-.38s-.07-.22-.31-.31l-2.42-.84a19.49,19.49,0,0,1-7.68,10.68,6.1,6.1,0,0,1,1.8,1.94,25.61,25.61,0,0,0,5.81-6.17h6.82a16.64,16.64,0,0,1-2.76,6.12,5.6,5.6,0,0,1-.72-.67,19.93,19.93,0,0,0-4.22-2.9l-1.49,1.92a22.75,22.75,0,0,1,4.73,3.79c-1.44,1.73-4.22,3.48-8,5.09a6.27,6.27,0,0,1,1.54,2.23c4.54-2.09,7.2-4,9.31-6.55,1.9-2.33,3.12-4.9,4.27-9.17.36-.17.53-.34.53-.53s0-.12-.26-.36Z"/><path class="6ae1f6ca-6f2a-4a40-bef8-1cc01b35b03e" d="M231.77,172.31l-2.9-.24a17,17,0,0,1,.19,3.65v4.85c0,3.82-.48,5.5-2,7.15a12.24,12.24,0,0,1-5.26,3,6.94,6.94,0,0,1,1.49,2.35c4-1.66,6.31-3.53,7.37-6,.77-1.73,1-3.41,1-6.84v-4.61c0-1.39,0-1.78,0-2.54.38-.22.5-.36.5-.55S232,172.34,231.77,172.31Z"/><path class="6ae1f6ca-6f2a-4a40-bef8-1cc01b35b03e" d="M220.08,184.69h2.66c0-.86,0-1.9,0-3.5v-4.8c0-.89,0-1.51,0-2.74.31-.22.46-.34.46-.48s-.17-.22-.43-.24l-2.66-.14c0,.65.07,1.68.07,3.6v4.8C220.15,182.77,220.13,183.88,220.08,184.69Z"/><path class="6ae1f6ca-6f2a-4a40-bef8-1cc01b35b03e" d="M255.26,175.26a35.49,35.49,0,0,1-2.33,3.91,25.91,25.91,0,0,1-5.18,5.33,35.69,35.69,0,0,1-8,4.51l1.56,2.35a.62.62,0,0,0,.41.29c.17,0,.26-.14.36-.48a38.6,38.6,0,0,0,8.28-5.38,27.18,27.18,0,0,0,6.67-8.52A8.49,8.49,0,0,1,255.26,175.26Z"/><path class="6ae1f6ca-6f2a-4a40-bef8-1cc01b35b03e" d="M243.48,179.44l2-2.11a21,21,0,0,0-5.28-4.15l-1.61,2A21.48,21.48,0,0,1,243.48,179.44Z"/><path class="6ae1f6ca-6f2a-4a40-bef8-1cc01b35b03e" d="M279.19,170.37l-1.06,1.22a14,14,0,0,1,2.88,2.5l1.2-1.32A15.37,15.37,0,0,0,279.19,170.37Z"/><path class="6ae1f6ca-6f2a-4a40-bef8-1cc01b35b03e" d="M276.26,173.68a14.46,14.46,0,0,1,2.88,2.47l1.2-1.3a16.3,16.3,0,0,0-3-2.42Z"/><path class="6ae1f6ca-6f2a-4a40-bef8-1cc01b35b03e" d="M276.53,175l-.34.36h-6.38a11.06,11.06,0,0,0,.58-1.3l.53-1.3c.46-.17.53-.24.53-.41s-.1-.24-.34-.31l-2.4-.79a19.13,19.13,0,0,1-1.87,4.37,21.57,21.57,0,0,1-5.18,6.22,7.34,7.34,0,0,1,1.9,1.8,25.72,25.72,0,0,0,5.16-6h6.74A16,16,0,0,1,272,185c-2,2.42-4.1,3.86-8.13,5.57a5.7,5.7,0,0,1,1.46,2.35c1.49-.7,2.09-1,3-1.49a19.77,19.77,0,0,0,6.29-5.45,20.77,20.77,0,0,0,3.48-8.54c.36-.14.48-.26.48-.43s0-.17-.22-.34Z"/><polygon class="6ae1f6ca-6f2a-4a40-bef8-1cc01b35b03e" points="74.63 25.26 74.21 25.26 74.14 25.88 74.49 26.43 74.63 25.26"/><polygon class="6ae1f6ca-6f2a-4a40-bef8-1cc01b35b03e" points="78.28 13.39 78.91 12.29 78.28 12.22 77.66 12.42 77.8 12.97 77.25 13.8 77.87 13.8 78.28 13.39"/><polygon class="6ae1f6ca-6f2a-4a40-bef8-1cc01b35b03e" points="80.36 24.02 80.7 24.02 80.42 23.6 80.36 24.02"/><path class="6ae1f6ca-6f2a-4a40-bef8-1cc01b35b03e" d="M54.16,25.81l.07.55-.14.55,2.42,5.66.07.69.28.35.9.55.28.55.69.35h.48l.35-.14,1.52-1.45.9-.41.41-.76h.48L64,31.4l.07-.76.55-.14.76-.62-.55-2.55-.76-.55.28-1.24-.28-.41-.28-2.28-.35-1.1.41-1-.14-.76,1.52-4.35.41-.34,1.59-2.07.41-.28.41-1.24.62.21.35-.35,1-.28.76-.83.55-.35L72,9.94l.62.07.48-.48.55-.21h.55l1,.69L75,11.18l-.76,1.73.07,1.17-.41.35-.21.9v1l-.28.9.14.48-.62,1-.41.35.14.76-.35.35-.48,1.66-.35.41.14.41-.14.48-.62.76v.62l-.55,2.69.07.41-.55.48-.21,1.17-1.24,2.83-.07,1.31-.62,1-.21,1.31-.83,1.86v1.31l-1,1.66-.28,2.28L64.1,46.45l.28.9-.76.35.07.69-.21,1.1-1.1,2.62.07,1.17.55.28.35.41,1.73.07,2.21-.14.9-.21.9.48,1.17-.35,2.28,1.31.62.83H74l.28.41L76,57.56l.35.35,1.73.34.9.41.41.35h1.24l.76.69,1.17-.07,3.17.62,1.31.07.34-.28.9-.35,1.38.21,2-.35L93.85,59h.76l1-.35,2.21-1.17,2.69-1.66.76-1,.69-.28.35-.76,1.31-1.17.28-.9.07-1,.9-.48-.14-.76.48-.28.28-.48.41-1.79.28-.48-.07-.55.14-2.14-.21-1,.48-1-1.31-3.86L105,36.65l-.62-.69-.41-.21-.48-1L102.27,33l-.83-.69-1-.55-.07-.55-.35-.35-.14-.48,1.38-1.24,1.38-.83L105,26.16l.14-.9L106.55,24l.14-1.1.9-1.38.35-1-.07-1,.21-.76V16.56l.14-.55-.62-1.93-.14-1.17-.62-.9-.28-1.1-.76-.28-.07-.55-.83-1.24-1.66-1.45L103,6.9l-.62-.14-.62-.83-1.17-.14L99.92,5,99,4.55,96.88,3.8l-.41-.28-.62.07-.55-.14-1.45-.83L93,2.76l-1.73-.55L89,1.93l-.55.14L88,1.79l-.69-.07-.9.21-.48-.48-.55.14-1.73-.14-2.14.28L79,1.59l-.48.48-.76-.48-2.07.9-.55-.21h-.48l-1.52.48L71.9,2.9l-1,.28-.35.35L70,3.38l-.62.14-1.1.62L66,4.9,64.1,6,62.45,7.45l-.76.28-.21.62h-.55l-.62,1-.55.21-.83.62-1.52,2.21-.69.76v.76l-.41.21-.69.69L55.34,16l-1,2.9.07,1.45-.28,1-.14,3,.35,1ZM68,43.27,68.1,43l.21.35Zm1-2.55.21-.69.21.34Zm.76,10.56-.28-.14.35-.14Zm-.14-2.55-.21-.35.21-.55.35.28Zm.07-2.14-.62.07.41-.34.48-.14Zm.07-5,.28-.28.21.35ZM103.37,40l.41.14-.21.48-.48.07Zm-.9,3.86v.41l-.34.14-.14-.55ZM74.32,17.53l.48.14.14.62-.55-.07L74,17.74ZM76,19.26l.28-.48.9.14-.55.9h-.9l.21.35.41.21.07.48-.76-.14-.28-1.31Zm-.35-2.9.14-.55.21-.48.28.35-.14.55Zm.83-3.24.28.35h-.48Zm-.62-1.86-.14-.34.14-.41.41.35Zm1.66,2.62v-.69l.28-.62.55.07.35-.41v-.55l-.9.21-.28-.21.35-.83.07-.48.62.21.76.9.48.35-.07-.62-.55-.83.35-.28L80,10l.35.55.55.35.48-.14-.07-1,.76.48L82,10.7l-.76.55L80.67,11l-.62.07.55.76-.69-.07.14.41.07,1.17-.35,1-.62-.48-.41.28-1.38.21.55,1-.41-.28-.62-.07.21-.55.07-.35Zm-.14-4.49.41-.28.28.48-.48.14ZM82,9l-1-.41.35-.28,1-.34.48.28Zm.76.9-.48.14V9.39ZM81.42,12.7l.41-.41.07.28ZM81.7,17l-.14.41h-.21l.07-.41Zm-.48-5.11.41-.41.48-.41.14.48ZM80.8,28.71v-1l.41-.21.28-.28.48-.14-.41,1Zm.55.41-.07.35-.48.14Zm-.76-2.21-.28.55-.62-.07-1.66-1,.9-.21h.62l.62.21.28-.41,1,.28Zm-.41,1.45-.07.41-.35.21v-.62Zm-3,4.28-.28,1.59-.28.48h-1l-.41-.35-.62.07L75,34h1.17l.41-.48-.21-.48.07-.62L76.11,32l.41-.34.55.07.41.28-.41.14L77,31.88l-.41.41ZM76,35.34l-.14.55-.21-.55Zm-.35,3.17-.21.48-.35.14.07-.48Zm.07-6.35h-.55l-.55.9L74,32.92l-.35-.28,1-.21.07-.55.41-.48.48.14Zm.14.76-.21.41-.41-.28-.14-.48.48-.07Zm1.66-5.31-.76.07-.9.41-.21-.41.21-.48.62.14,1.66-.41Zm.14,1.52-.41.07-.34-.35.48-.28Zm-1.79,2.14.14-.48.21.28Zm1.59-.21.35-.07v.28Zm.07-1-1,.62-.07-.55.28-.35.48-.21.48.07L78,30l.07.55Zm.28-1.17-.07-.48.07-.55.35.34.69.07v.9l.9.14-.41.35-.62.14L78.25,29Zm-.28-7.59-.14-.55.48-.07.41.07-.34.76Zm.14,1.24-.48.21V22.5Zm2.69-6,.07-.48h.21l.21.28v.48Zm.28.83-.28.21v-.41ZM80,15.46l.21-.35.14.62ZM80,18v.28l.55.21-.83-.21V18Zm-.14,3.73v.62l-.9-.55.28-.62Zm.41,1.86V24l-.41-.41Zm-.55-.35-.41-.21.07-.41.28.14Zm-1.24-3.59-.14-.28.62-.07Zm.41-2.83.14-.48.07-.35.41.14.14,1.1ZM79,18.5l-.48.21-.28.41-.48.21-.14-.55-.28-.35.55-.14.48-.14.28-.41.28.34Zm-.9,3h.41l-.07.62.55,1-.07.28-.55-.21L78,22.71l.14-.55Zm2.21-.9v-.62h.62l-.14.48Zm.28-6v-.62l.41.21.21.41ZM77,16l.62-.14.14.9-.62.07-.41.41-.34-.35.48-.28Zm-.28-6.28-.34-.35.34-.14Zm-.9,11.59-.34.28-.41-.28-.14-.48.28-.14Zm-1,0v.48l-.35-.21Zm-1.38,1.38.28.41h-.28Zm0,1.59.55.07.62.69.48-.9.76.76.21-.55-.28-.28-.48-.21-1.1-.14.28-.35.9.21.28-.35-.28-.41.07-.41.35-.34.48.14-.55.9.55.14.35-.55.55.76.14.55-.41.07-.28.21.35.28.55.07-.21.41.48.14.48-.28.41.14.35.35v.55l-.55-.28H78l-.48.21-.35.41L76.66,26l-.07-.35-.28.28.21.41-.41.41-.41.07-1-.21-1.17-.07.34-.41.55-.21.35-.41-1.52-.9Zm-1,4.49.83-.76,1.59-.69.41.28L74.8,28l.28.62H76v1.31l-.55.07-1-.48v-.62l-.28-.14-.62.9.41.48-.48.35-.55-.21-.76-.9Zm-.9,2.62.14-.41H72l.14.41Zm.28,4.21-.55-.14L71,35.06v-.48h.48Zm.83-3.38.48.28.28.35-.07.48-.76-.69-.35.14L72,32.16Zm-.28-5.45-.14.55-.41-.28Zm-1-.07h.21l-.34.21Zm0,.35.14.48.62-.07-.41.9-.35-.55-.48-.28-.28-.48Zm-.14,19.39-.35-.28.35-.28ZM71,41l-.48.07.07-.48.55-.14Zm.14-2.21h.62l-.14.48-.41-.07ZM72,44.93l-.55.07v.41l-.07-.48.35-.35.48-.21Zm.41-7.66-.55-.07L71.49,37l.28-.48.41-.28,1.1-.35v.62h-.76l-.14.21.41.41Zm.48,8.56-.21-.41h.48Zm.55-5.52-.62-.14v-.48l.28-.28.76.55Zm.14-1.93L73.28,38l.14-.41.28.21.14.48Zm.14-3.52h-.9l.41-.41,1-.48v1Zm.48,1.45.14-.55.48.28v.55l-.48.28Zm1.66,17.53-.21-.62.48.07.14.41Zm7.45,2-.41.14.21-.55.55.07Zm1.45.55.14-.76.28.41Zm4.21,1.38-.28-.35.21-.41.14.28Zm.69-.62.21-.28.14.48Zm1.24-1.31v-.21l.41.21Zm.28-3.52V51.9l.28.21Zm3-.69.14-.35.14.35Zm.9.76-.48-.21.07-.62.55.07.35.21.14.48ZM95.37,48l.14-.41.35.69Zm.41-7.32v1.79l-.21,1.17-.35.41.14.76-1,1.31-1.17,2-1.45.9-1.59,1.52-1.24.14-.55.21-.35.41-4.49.41-.41.21-.83-.48-.55.21L80,51.14l-.62.14-1-.76-1.24-.28L76.59,50l-1.86-1.38-.14-.69.07-1.17.48-1.93.07-1-.14-.55,1-.55L76,41.48l.76-1.93.14-1.17.41-.28.21-.48.14-1.24.48-.9-.21-.76.41-.35.21-.55-.28-.48.35-.35.14-.41L78.53,32l1.66-1.1.9-.35h.55l.62.21.28.21.35.28.55-.21,1.1.21L86,32h.55l.48-.28.76.34.62-.07,1,.35.55-.14,1.59.9,1.73,1.38.21.62L95,36.72l.41.9.28,1.59.35,1ZM89.64,26.78l.48.28-.35.14Zm3.31.41.07-.62h.41l.48,1.52-.35.14-.48-.48ZM94.81,30l.14-.69.48.14.14.41Zm.9.21-.21.35-.41.07Zm-.55-1.66-.41.14h-.55l.21-.41.48-.21.48.14Zm.55.69.28-.48.62-.07-.07.55-.41.21Zm.9,21v.28h-.28v-.28Zm.07,2.55.21.48-.62-.21Zm1.86-13.73v-.55H99l.35.48.41.28h.55l-.07.69-.69.76-.28-.41-.07-.62L99,39.2ZM99,44.93l-.14.35h-.21l.14-.35Zm.55-7.45-.55.28H98.4l-.48-.28.35-.41.41-.41.21-.55.21.28-.14.48.21.41.62-.28ZM98.4,44.24v.28h-.28v-.28Zm.76-17.53-.28.07v-.21h.28Zm-.28-1.31h-.21v-.28h.21Zm-.14,8.35-.07.41-.35-.28.21-.48Zm-.69-7.66-.69-.14.35-.35.83.21ZM98,24.15l-.76-.55.41-.41.62.28Zm-.35,1.38h-.48v-.48Zm-.28.62-.48.41-.14-.62ZM97.09,55l-.34.21v-.35l.41-.28ZM97,51.9l.07-.48.35.48Zm.69-15.6v.41l-.28-.62ZM97.5,53.69l.14-.48.35.28Zm1.66-6.9-.28.9-.62-.14-.55-.34.07-.55.41.28.48-.07.35-.28V46l.41.21.14.41Zm.41-1.86-.55-1,.55-.14v.62l.21.41ZM99,42.44v-.83l.48-.21.55.07-.14.34h.48l.14-.34.35.28.21,1.52-.35-.21-.07-.48-.48-.07-.28-.35-.14-.48Zm.9,5.66.41-.21.21.41Zm.55-2-.55.07.28-.48.62-.14Zm.35-1.31.14-.28h.28ZM100,36.23l.35.55h.41l.35.35-.28.14-.55-.35-.35-.55-.28-.14Zm-.07-8.76h-.35v-.41h.35Zm.62-.28h-.21v-.28h.21Zm.21-2.48-.28-.55.48.14.28.28.07.48Zm.41-3.52-.21-.35h.48Zm.07,1v.28H101v-.28Zm-.14-2.28-.55-.14.21-.41h.48Zm.9,6.14-.55.21.21-.41.21-.48.35.14Zm.28-1.86-.07-.35.55.41Zm2-7.38.28.28-.14.41-.28-.28Zm-.9,2.55.28-.48L104,19l-.62,1Zm-.07-3.93-.07.41h-.48l-.14-.48-.14-.41.14-.41H103Zm-.48-4,.28-.07-.48.21-.28-.55Zm-.48,5.66h.41l.07.62.28.28-.41.14-.35-.41Zm-.28,3.73.41-.14-.07.41-.41.07ZM102,22.36h.48v.55l-.21.35-.41.14.07-.48Zm-.28-5.73.14.41-.35.48-.55.21.14-.41.41-.28Zm-1.38-9.45.28.21-.28.21Zm.35,4.76.55.07-.35.35-.55-.07Zm-.69.9.41.14.14.48-.9-.41ZM99.3,11l.41.07.07.41H99.3Zm.48,5.18.14.62-.55-.21L99.3,16Zm-.62,5.24.41.14.07.48-.62.62h-.55l-.21-.21.55-.07Zm-.9-3.59v-.62l.41.34Zm.41-5-.14.55L98,13.18Zm-1-2.69h.28v.28h-.28ZM97,7.59l.35.28-.14.48L96.88,8Zm-1.31.76v.48l-.14-.35-.21-.28ZM89.22,5.25l-.14.55-.35.28-.07-.48Zm-.28,2.35v.48h-.21V7.59ZM87.22,5.18h.48l-.48.48Zm-.9,2.76.48-.14-.41-.07.28-.35.41.07-.35.62-.55.14ZM85.7,9.87l.21-.48L86.32,9l1-.55.35-.35.41.21.76.69L90.19,9l1,.35,3.86,2.14,1.79,2.42.62-.28-.21,2.07.28,1.59.21.41-.69,1.59v.55l.14.41-1.66,2.35-.48.35.14,1-.41-.28-.9.28-.21.48-2,.76-1,.55-1.17.07-2.14.41-.83-.34L84.25,26l-1-.14-.35-.21-.62.14L82,25.19,80.8,23.4l.62-.14.21-.62-.07-.69.69-.21L82.6,20,83,19v-1.1l.35-.35,1-2.55.35-.41V14l.48-2.21v-.69l.62-.48Zm-2.21,1.66.28-.28.35-.21-.21.35Zm.41.14V13l-.55-1.24Zm-.83-1.31.41-.48L84,9.73ZM85.22,5.8l-.35.14V5.18l.41.07Zm-.69-1.38.48.07-.48.28Zm0,2.28H85l.14,1.38-.62-.14.21-.48.07-.35ZM84,8.49l.14.48.55.28.21.62-.35-.35-1-.41V8.35ZM82.46,6.28l.48.41.41.62.14.48-.41-.21-.41-.35-.21-.48Zm-.21-1.1-.48.07-.35.41-.48.28.14-.69.35-.48.48.14ZM80.39,3.93l.48-.21.55.14.14.55-.83-.21-.55.21Zm.21.69v.55l-.41-.55Zm-.14,2.21.21.35-.48.14-.28-.48Zm-.55,1.1.69.14v.41L80,9.11l.41-.28.62.76-1-.14-1-.48.35-.41.35-.21ZM76.25,3.73v.55l-.62-.14Zm-.62,3.86L76,7.45l.28.34,1.17-1,1.1-1.86-.07-.55.21-.48H79l.07.55.35.9v.62L79,6.28l-1.1.55-.41.35.48.28.62-.14.55-.41-.21.69.76.21-.62.76-.83.55-.62-.55L77.15,9h-.55l.35-.55.55-.21-.14-.76-.41.34-.62,1-.69.07-.14-.55Zm0,6.49.07-.14.41.14.14.48-.48.07-.28-.41.07-.14-.62-.28.55-.28Zm-.55-6.9L75,7.73l-.21.35-.48.14-.14-.48.14-1.24ZM74,4.76l.41,1-.55-.28L73.56,5Zm-.21,2.42-.28.41-.21-.41ZM72,6.69h.55L72.25,7l-.62-.14Zm-.83.41.28-.28-.07.48-.48.48-.14-.62Zm-.9.07.28.21-.28.21Zm-1-1.66h.28l.35.28h-.62Zm-1.1-.14h.21v.28H68.1ZM66.79,8.21l.34.35.07.41-.41.28-.14-.48Zm-.35,3.59L66,11.53v-.41l.28.28ZM66,7.8l.14.41H65.9ZM60.1,27l-1.31-.07.35-.41.69-.21.28.41.48.07Zm-.55-2.83-.14.35h-.28v-.35Zm-.28-1.66v-.28l.41.28Zm.9.9h-.28v-.28h.28Zm.14,1.38v.28H60v-.28Zm.9-.62-.41.14.14-.69.41.14ZM61.82,11l.28.35-.14.48-.41-.35ZM61.2,15.6l.48.62-.34.41-.21-.48Zm-.55,4,.69-.07-.35.35-.55.21Zm-.28.76.34.35-.48.14-.21.41-.48.21L59.48,21l-.41-.21.07-.55h.41v.55Zm-1.45-4.28.21-.34.21.34Zm-.14-2.28.35.62-.21.14-.28-.35Zm-1,4.62.28.41-.41.35Zm.69,4.83L58,23.4v-.28Zm-1.73,1.59,1.52-.35-.35.41-.9.62-.62-.41Z"/><polygon class="6ae1f6ca-6f2a-4a40-bef8-1cc01b35b03e" points="142.52 24.02 142.87 24.02 142.59 23.6 142.52 24.02"/><polygon class="6ae1f6ca-6f2a-4a40-bef8-1cc01b35b03e" points="140.45 13.39 141.07 12.29 140.45 12.22 139.83 12.42 139.97 12.97 139.42 13.8 140.04 13.8 140.45 13.39"/><polygon class="6ae1f6ca-6f2a-4a40-bef8-1cc01b35b03e" points="136.79 25.26 136.38 25.26 136.31 25.88 136.66 26.43 136.79 25.26"/><path class="6ae1f6ca-6f2a-4a40-bef8-1cc01b35b03e" d="M115.33,25.81l.07.55-.14.55,2.42,5.66.07.69.28.35.9.55.28.55.69.35h.48l.35-.14,1.52-1.45.9-.41.41-.76H124l1.17-.9.07-.76.55-.14.76-.62L126,27.33l-.76-.55.28-1.24-.28-.41L125,22.84l-.35-1.1.41-1-.14-.76,1.52-4.35.41-.34,1.59-2.07.41-.28.41-1.24.62.21.35-.35,1-.28.76-.83.55-.35.62-.14.62.07.48-.48.55-.21h.55l1,.69-.21,1.17-.76,1.73.07,1.17-.41.35-.21.9v1l-.28.9.14.48-.62,1-.41.35.14.76-.34.35L133,21.81l-.34.41.14.41-.14.48-.62.76v.62l-.55,2.69.07.41-.55.48-.21,1.17-1.24,2.83-.07,1.31-.62,1-.21,1.31-.83,1.86v1.31l-1,1.66-.28,2.28-1.31,3.59.28.9-.76.35.07.69-.21,1.1-1.1,2.62.07,1.17.55.28.35.41,1.73.07,2.21-.14.9-.21.9.48,1.17-.35,2.28,1.31.62.83h.83l.28.41,1.79,1.17.35.35,1.73.34.9.41.41.35h1.24l.76.69,1.17-.07,3.17.62,1.31.07.35-.28.9-.35,1.38.21,2-.35L155,59h.76l1-.35L159,57.49l2.69-1.66.76-1,.69-.28.35-.76,1.31-1.17.28-.9.07-1,.9-.48-.14-.76.48-.28.28-.48.41-1.79.28-.48-.07-.55.14-2.14-.21-1,.48-1-1.31-3.86-.21-1.17-.62-.69-.41-.21-.48-1L163.43,33l-.83-.69-1-.55-.07-.55-.34-.35-.14-.48,1.38-1.24,1.38-.83,2.35-2.14.14-.9L167.71,24l.14-1.1.9-1.38.35-1-.07-1,.21-.76V16.56l.14-.55-.62-1.93-.14-1.17L168,12l-.28-1.1-.76-.28-.07-.55-.83-1.24L164.4,7.38l-.28-.48-.62-.14-.62-.83-1.17-.14L161.09,5l-.9-.48-2.14-.76-.41-.28-.62.07-.55-.14L155,2.62l-.83.14-1.73-.55-2.28-.28-.55.14-.48-.28-.69-.07-.9.21-.48-.48-.55.14-1.73-.14-2.14.28-2.48-.14-.48.48-.76-.48-2.07.9-.55-.21h-.48l-1.52.48-1.24.14-1,.28-.34.35-.48-.14-.62.14-1.1.62-2.28.76L125.27,6l-1.66,1.45-.76.28-.21.62h-.55l-.62,1-.55.21-.83.62-1.52,2.21-.69.76v.76l-.41.21-.69.69L116.51,16l-1,2.9.07,1.45-.28,1-.14,3,.35,1Zm13.8,17.46.14-.28.21.35Zm1-2.55.21-.69.21.34Zm.76,10.56-.28-.14L131,51Zm-.14-2.55-.21-.35.21-.55.35.28Zm.07-2.14-.62.07.41-.34.48-.14Zm.07-5,.28-.28.21.35ZM164.54,40l.41.14-.21.48-.48.07Zm-.9,3.86v.41l-.35.14-.14-.55ZM135.48,17.53l.48.14.14.62-.55-.07-.35-.48Zm1.66,1.73.28-.48.9.14-.55.9h-.9l.21.35.41.21.07.48-.76-.14-.28-1.31Zm-.35-2.9.14-.55.21-.48.28.35-.14.55Zm.83-3.24.28.35h-.48ZM137,11.25l-.14-.34.14-.41.41.35Zm1.66,2.62v-.69l.28-.62.55.07.34-.41v-.55l-.9.21-.28-.21.35-.83.07-.48.62.21.76.9.48.35-.07-.62-.55-.83.35-.28.55-.07.35.55.55.35.48-.14-.07-1,.76.48-.14.48-.76.55-.55-.21-.62.07.55.76-.69-.07.14.41.07,1.17-.35,1-.62-.48-.41.28-1.38.21.55,1-.41-.28-.62-.07.21-.55.07-.35Zm-.14-4.49.41-.28.28.48-.48.14ZM143.14,9l-1-.41.35-.28,1-.34.48.28Zm.76.9-.48.14V9.39Zm-1.31,2.83.41-.41.07.28Zm.28,4.28-.14.41h-.21l.07-.41Zm-.48-5.11.41-.41.48-.41.14.48ZM142,28.71v-1l.41-.21.28-.28.48-.14-.41,1Zm.55.41-.07.35-.48.14Zm-.76-2.21-.28.55-.62-.07-1.66-1,.9-.21h.62l.62.21.28-.41,1,.28Zm-.41,1.45-.07.41-.35.21v-.62Zm-3,4.28L138,34.23l-.28.48h-1l-.41-.35-.62.07.41-.41h1.17l.41-.48-.21-.48.07-.62-.35-.41.41-.34.55.07.41.28-.41.14-.07-.28-.41.41Zm-1.17,2.69-.14.55-.21-.55Zm-.35,3.17-.21.48-.35.14.07-.48Zm.07-6.35h-.55l-.55.9-.55-.14-.35-.28,1-.21.07-.55.41-.48.48.14Zm.14.76-.21.41-.41-.28-.14-.48.48-.07Zm1.66-5.31-.76.07-.9.41-.21-.41.21-.48.62.14,1.66-.41Zm.14,1.52-.41.07-.34-.35.48-.28ZM137,31.26l.14-.48.21.28Zm1.59-.21.35-.07v.28Zm.07-1-1,.62-.07-.55.28-.35.48-.21.48.07.35.35.07.55Zm.28-1.17-.07-.48.07-.55.34.34.69.07v.9l.9.14-.41.35-.62.14-.41-.76Zm-.28-7.59-.14-.55.48-.07.41.07-.35.76Zm.14,1.24-.48.21V22.5Zm2.69-6,.07-.48h.21l.21.28v.48Zm.28.83-.28.21v-.41Zm-.62-1.86.21-.35.14.62Zm.07,2.55v.28l.55.21-.83-.21V18Zm-.14,3.73v.62l-.9-.55.28-.62Zm.41,1.86V24l-.41-.41Zm-.55-.35-.41-.21.07-.41.28.14Zm-1.24-3.59-.14-.28.62-.07Zm.41-2.83.14-.48.07-.35.41.14.14,1.1Zm.07,1.66-.48.21-.28.41-.48.21-.14-.55-.28-.35.55-.14.48-.14.28-.41.28.34Zm-.9,3h.41l-.07.62.55,1-.07.28-.55-.21-.35-.48.14-.55Zm2.21-.9v-.62h.62l-.14.48Zm.28-6v-.62l.41.21.21.41ZM138.18,16l.62-.14.14.9-.62.07-.41.41-.34-.35.48-.28Zm-.28-6.28-.34-.35.34-.14ZM137,21.33l-.35.28-.41-.28-.14-.48.28-.14Zm-1,0v.48l-.34-.21Zm-1.38,1.38.28.41h-.28Zm0,1.59.55.07.62.69.48-.9.76.76.21-.55-.28-.28-.48-.21-1.1-.14.28-.35.9.21.28-.35-.28-.41.07-.41.35-.34.48.14-.55.9.55.14.35-.55.55.76.14.55-.41.07-.28.21.35.28.55.07-.21.41.48.14.48-.28.41.14.35.35v.55l-.55-.28h-.48l-.48.21-.35.41-.48-.28-.07-.35-.28.28.21.41-.41.41-.41.07-1-.21-1.17-.07.35-.41.55-.21.34-.41-1.52-.9Zm-1,4.49.83-.76,1.59-.69.41.28L136,28l.28.62h.9v1.31l-.55.07-1-.48v-.62l-.28-.14-.62.9.41.48-.48.35-.55-.21-.76-.9Zm-.9,2.62.14-.41h.41l.14.41Zm.28,4.21-.55-.14-.21-.41v-.48h.48Zm.83-3.38.48.28.28.35-.07.48-.76-.69-.35.14-.14-.62Zm-.28-5.45-.14.55-.41-.28Zm-1-.07h.21l-.35.21Zm0,.35.14.48.62-.07-.41.9-.35-.55-.48-.28-.28-.48Zm-.14,19.39-.34-.28.34-.28ZM132.17,41l-.48.07.07-.48.55-.14Zm.14-2.21h.62l-.14.48-.41-.07Zm.83,6.14-.55.07v.41l-.07-.48.35-.35.48-.21Zm.41-7.66L133,37.2l-.34-.21.28-.48.41-.28,1.1-.35v.62h-.76l-.14.21.41.41Zm.48,8.56-.21-.41h.48Zm.55-5.52-.62-.14v-.48l.28-.28L135,40Zm.14-1.93-.28-.34.14-.41.28.21.14.48Zm.14-3.52H134l.41-.41,1-.48v1Zm.48,1.45.14-.55L136,36v.55l-.48.28ZM137,53.83l-.21-.62.48.07.14.41Zm7.45,2L144,56l.21-.55.55.07Zm1.45.55.14-.76.28.41Zm4.21,1.38-.28-.35L150,57l.14.28Zm.69-.62.21-.28.14.48ZM152,55.83v-.21l.41.21Zm.28-3.52V51.9l.28.21Zm3-.69.14-.35.14.35Zm.9.76-.48-.21.07-.62.55.07.34.21.14.48Zm.28-4.42.14-.41.35.69Zm.41-7.32v1.79l-.21,1.17-.34.41.14.76-1,1.31-1.17,2-1.45.9-1.59,1.52-1.24.14-.55.21-.34.41-4.49.41-.41.21-.83-.48-.55.21-1.66-.48-.62.14-1-.76-1.24-.28-.55-.28-1.86-1.38-.14-.69.07-1.17.48-1.93.07-1-.14-.55,1-.55-.14-1.24.76-1.93.14-1.17.41-.28.21-.48.14-1.24.48-.9-.21-.76.41-.35.21-.55-.28-.48.35-.35.14-.41-.21-.55,1.66-1.1.9-.35h.55l.62.21.28.21.35.28.55-.21,1.1.21,1.52.69h.55l.48-.28L149,32l.62-.07,1,.35.55-.14,1.59.9,1.73,1.38.21.62,1.45,1.66.41.9.28,1.59.35,1Zm-6.14-13.87.48.28-.35.14Zm3.31.41.07-.62h.41l.48,1.52-.34.14-.48-.48ZM156,30l.14-.69.48.14.14.41Zm.9.21-.21.35-.41.07Zm-.55-1.66-.41.14h-.55l.21-.41.48-.21.48.14Zm.55.69.28-.48.62-.07-.07.55-.41.21Zm.9,21v.28h-.28v-.28Zm.07,2.55.21.48-.62-.21Zm1.86-13.73v-.55h.48l.34.48.41.28h.55l-.07.69-.69.76-.28-.41-.07-.62-.21-.48Zm.48,5.87-.14.35h-.21l.14-.35Zm.55-7.45-.55.28h-.62l-.48-.28.34-.41.41-.41.21-.55.21.28-.14.48.21.41L161,37Zm-1.17,6.76v.28h-.28v-.28Zm.76-17.53-.28.07v-.21h.28Zm-.28-1.31h-.21v-.28h.21Zm-.14,8.35-.07.41-.35-.28.21-.48Zm-.69-7.66-.69-.14.35-.35.83.21Zm-.07-1.93-.76-.55.41-.41.62.28Zm-.35,1.38h-.48v-.48Zm-.28.62-.48.41-.14-.62ZM158.26,55l-.34.21v-.35l.41-.28Zm-.14-3.11.07-.48.35.48Zm.69-15.6v.41l-.28-.62Zm-.14,17.39.14-.48.35.28Zm1.66-6.9-.28.9-.62-.14-.55-.34.07-.55.41.28.48-.07.35-.28V46l.41.21.14.41Zm.41-1.86-.55-1,.55-.14v.62l.21.41Zm-.55-2.48v-.83l.48-.21.55.07-.14.34h.48l.14-.34.34.28.21,1.52-.35-.21-.07-.48-.48-.07-.28-.35-.14-.48Zm.9,5.66.41-.21.21.41Zm.55-2-.55.07.28-.48.62-.14Zm.35-1.31.14-.28h.28Zm-.83-8.56.35.55h.41l.35.35-.28.14-.55-.35-.35-.55-.28-.14Zm-.07-8.76h-.34v-.41h.34Zm.62-.28h-.21v-.28h.21Zm.21-2.48-.28-.55.48.14.28.28.07.48Zm.41-3.52-.21-.35h.48Zm.07,1v.28h-.28v-.28Zm-.14-2.28-.55-.14.21-.41h.48Zm.9,6.14-.55.21.21-.41.21-.48.34.14Zm.28-1.86-.07-.35.55.41Zm2-7.38.28.28-.14.41-.28-.28Zm-.9,2.55.28-.48.35.14-.62,1Zm-.07-3.93-.07.41h-.48l-.14-.48-.14-.41.14-.41h.35Zm-.48-4,.28-.07-.48.21L163.5,11Zm-.48,5.66h.41l.07.62.28.28-.41.14-.35-.41Zm-.28,3.73.41-.14-.07.41-.41.07Zm-.07,1.52h.48v.55l-.21.35-.41.14.07-.48Zm-.28-5.73L163,17l-.35.48-.55.21.14-.41.41-.28ZM161.5,7.18l.28.21-.28.21Zm.34,4.76.55.07-.35.35-.55-.07Zm-.69.9.41.14.14.48-.9-.41ZM160.47,11l.41.07.07.41h-.48Zm.48,5.18.14.62-.55-.21-.07-.62Zm-.62,5.24.41.14.07.48-.62.62h-.55l-.21-.21.55-.07Zm-.9-3.59v-.62l.41.34Zm.41-5-.14.55-.55-.28Zm-1-2.69h.28v.28h-.28Zm-.62-2.62.35.28-.14.48L158.05,8Zm-1.31.76v.48l-.14-.35-.21-.28Zm-6.49-3.11-.14.55-.35.28-.07-.48Zm-.28,2.35v.48h-.21V7.59Zm-1.73-2.42h.48l-.48.48Zm-.9,2.76L148,7.8l-.41-.07.28-.35.41.07-.35.62-.55.14Zm-.62,1.93.21-.48.41-.41,1-.55.35-.35.41.21L150,9l1.31.07,1,.35,3.86,2.14,1.79,2.42.62-.28-.21,2.07.28,1.59.21.41-.69,1.59v.55l.14.41-1.66,2.35-.48.35.14,1-.41-.28-.9.28-.21.48-2,.76-1,.55-1.17.07-2.14.41-.83-.34-2.35.07-1-.14-.35-.21-.62.14-.21-.62L142,23.4l.62-.14.21-.62-.07-.69.69-.21.35-1.73.41-1v-1.1l.35-.35,1-2.55.35-.41V14l.48-2.21v-.69l.62-.48Zm-2.21,1.66.28-.28.35-.21-.21.35Zm.41.14V13l-.55-1.24Zm-.83-1.31.41-.48.48-.14Zm2.14-4.55-.34.14V5.18l.41.07Zm-.69-1.38.48.07-.48.28Zm0,2.28h.48l.14,1.38-.62-.14.21-.48.07-.35Zm-.55,1.79.14.48.55.28.21.62-.34-.35-1-.41V8.35Zm-1.52-2.21.48.41.41.62.14.48-.41-.21-.41-.35-.21-.48Zm-.21-1.1-.48.07-.34.41-.48.28.14-.69.35-.48.48.14Zm-1.86-1.24.48-.21.55.14.14.55-.83-.21-.55.21Zm.21.69v.55l-.41-.55Zm-.14,2.21.21.35-.48.14-.28-.48Zm-.55,1.1.69.14v.41l-.55.62.41-.28.62.76-1-.14-1-.48.35-.41.34-.21Zm-3.66-4.21v.55l-.62-.14Zm-.62,3.86.35-.14.28.34,1.17-1,1.1-1.86-.07-.55.21-.48h.35l.07.55.35.9v.62l-.41.35-1.1.55-.41.35.48.28.62-.14.55-.41-.21.69.76.21-.62.76-.83.55-.62-.55-.48.41h-.55l.35-.55.55-.21-.14-.76-.41.34-.62,1-.69.07-.14-.55Zm0,6.49.07-.14.41.14.14.48-.48.07-.28-.41.07-.14-.62-.28.55-.28Zm-.55-6.9-.07.55-.21.35-.48.14-.14-.48.14-1.24Zm-1-2.42.41,1-.55-.28L134.72,5ZM135,7.18l-.28.41-.21-.41Zm-1.86-.48h.55l-.28.35-.62-.14Zm-.83.41.28-.28-.07.48L132,7.8l-.14-.62Zm-.9.07.28.21-.28.21Zm-1-1.66h.28l.34.28h-.62Zm-1.1-.14h.21v.28h-.21ZM128,8.21l.35.35.07.41-.41.28-.14-.48Zm-.34,3.59-.41-.28v-.41l.28.28Zm-.41-4,.14.41h-.28ZM121.27,27,120,26.92l.35-.41.69-.21.28.41.48.07Zm-.55-2.83-.14.35h-.28v-.35Zm-.28-1.66v-.28l.41.28Zm.9.9h-.28v-.28h.28Zm.14,1.38v.28h-.28v-.28Zm.9-.62-.41.14.14-.69.41.14ZM123,11l.28.35-.14.48-.41-.35Zm-.62,4.55.48.62-.34.41-.21-.48Zm-.55,4,.69-.07-.35.35-.55.21Zm-.28.76.34.35-.48.14-.21.41-.48.21-.07-.41-.41-.21.07-.55h.41v.55Zm-1.45-4.28.21-.34.21.34ZM120,13.8l.35.62-.21.14-.28-.35Zm-1,4.62.28.41-.41.35Zm.69,4.83-.41.14v-.28Zm-1.73,1.59,1.52-.35-.35.41-.9.62-.62-.41Z"/><polygon class="6ae1f6ca-6f2a-4a40-bef8-1cc01b35b03e" points="190.54 14.77 190.2 15.25 190.61 15.11 190.54 14.77"/><polygon class="6ae1f6ca-6f2a-4a40-bef8-1cc01b35b03e" points="187.78 20.91 187.58 20.36 187.23 20.36 187.78 20.91"/><rect class="6ae1f6ca-6f2a-4a40-bef8-1cc01b35b03e" x="190.2" y="15.8" width="0.21" height="0.21"/><polygon class="6ae1f6ca-6f2a-4a40-bef8-1cc01b35b03e" points="191.3 21.88 191.3 21.53 190.96 21.53 191.3 21.88"/><path class="6ae1f6ca-6f2a-4a40-bef8-1cc01b35b03e" d="M175.91,37.82l-.14.9.69,2.21.21,1.24.55.83.41,1,.07.62.76.62.21.62.62,1,1.45,1.66.62,1,2.28,1.45,1.45,1.52.62.14,2,.83h1.17l.41.55.48.35,1-.14,1.52.62L194,55l3.31-.21.48.28.55.07,1-.28,1-.07.41.41.76.07.34.55,1,.62L203,57l2.76,2.55.55,1,1.38.76.14.48.62.28.28.48.76.28.41.76,1,.41.62.07,1,1.45.48.14.76.62,1.93.62.48.62.48.28,2.07.48.76.69,1.24.14.55-.07,1,.76.55.07,1.59.76,1-.21,3.11.83.9-.28h1l.48-.28.76.41.41-.28.9.14,3.45-.62,2.14-.76,2.14-1.45.62-.07.48-.28,1.45-1.52-.21-1.52L241.89,64l-.28-1.17L241,62l-.76-.62-.41-.9-.69-.9-.48-.35-1-.28-1.86.76-.28.48-.55-.07-.48.14-1.38.83-2.21.41-1,.07-2.48.69-.07-.48-.41-.14-1.86.21-1.1-.48-.55.76-.21-.9-.69-.21-.48-.34-1.17-.07-3.66-1.59-.62-.07-.21-.41-.83-.41-.28-.41-.62-.07-.76-.83-.9-.69-1-.55-.9-.69-.76-.83-.41-1.1-.34-.55.62-.9,1.31-.07.28-.48.07-.41.55.14,3.11-2.28.69-.83.62-.14.69-1.1,1.38-1,.48-1.38,1.38-1.31.83-.62-.14-1,1.17-.62.07-.69.48-1.1.83-.76-.14-.76.9-.76.28-1.1,1.38-4V30l.48-.76v-.83l.41-.48L227,26.5l.41-.62-.07-2.21.21-2.28-.41-.76.14-.55V18.43l-.62-2.14-.76-1.93.35-.62-.35-.21-.21-1-.41-.9-.83-1.24-.14-.76-.62-.76L223,7.59l-1-.76L221.39,6l-.14-.55h-.62l-.41-.21V4.42l-.55-.07-.55-.76-1-.41-1.31-.9-1.1-.35-.55-.69L209.94,0l-.76.28-.48-.21L207,0,204.9.35h-1l-.41.28-2.21.62-.41.28H200l-4.62,3-.28.55L192.34,8l-.76-.35-1.93,1.1-.83.69-.28.48-1.1.48-1.31,1-1,.48-.55,1-.62.14-1.38,1.73-.9.69-.14.55-.28.41-.76.55-.14.76-.69.76-1,2-.62.83v1l-1,1-.07,1-.41.9-.21,1,.07.62-.48.76.14.76-.62,1v2.35l-.21,3.38.35,1.73Zm60.25,26.92.41.21h-.41Zm-1.38,1.1.14.55h-.41Zm-3,.28-.14-.41h.69Zm-.48-1.31.35.28h-.35Zm-1.17,1.45-.21.48-.28-.48Zm-.69-.48-.21.48-.21-.55Zm-3.17,2-.35-.41h.69Zm-.35-2.28.28.28v.55l-.14.41-.41-.35-.07-.69Zm-1.79-.28.35.34.07.55-.34-.28-.55-.76Zm-.34-2.07-.14.55-.35-.28Zm-1.31,2.14.14-.48H223l-.14.48-.28.35h-.48Zm-1.52.07h.41v.35H221Zm-1.38-.55-.34.21-.14-.41Zm-4.07-5.45v.41l-.48-.14Zm-.14,3.73.14.28-.48.07Zm-1.24-1.79h-.28l-.14-.14Zm-1.79-.76-.41.48-.14-.35Zm-1.1-1.93.34.14-.21.28-.41-.14ZM181.64,43.41l-.48-.35v-.62l.48.07.41-.35-.28-.41-1-.48-.55.69-.48.21.21-.48.41-.28-.14-.35.41-1.1.28.34-.28.55.14.28,1-.21,1,.21v1.52l-.62.28Zm-2.07-3.52h.55l-.28.35Zm2.07.07.28-.41h.48l.28.41-.55.21Zm.76,6,.14-.62.14.41Zm.41-2.55-.14-.35.41-.14.21.35Zm2.07,3.31-.55-.14.07-.48-.21-.35.28-.41.21-.48.55.34-.28.41-.41.21.76.55Zm.69-2.28-.28.28-.35-.14-.28-.41-.07-.48.14-1-.21-.48.41.48.14.55-.14.62.14.28,1.1-.35.55.35-.21.35-.07.48.62.35.55-.07.14.55-1.17-.14-.48-.28.21-.41ZM184.4,32.37l-.21-.41-1,.28h-.62l-.14-.55h-.48l-.28.41-.76-.76h-.48l-.35-.35-.14-.48.21-.48,1,.69v.48h.48l.76-.9.28,1.17.55.07.41-.21.48.28h.62l.41.14-.21.62Zm.28.76-.21.62h-.62l-.41-.28.48-.14.41-.21.21-.41Zm-4.35.07L181,33l-.21.62-.55.41-.41-.41Zm-.21-.62.14-1.1.34.28-.07.55Zm3.17-4.42-.21-.69-.41-.48.14-.48,1,.21.14,1.45Zm.48,2.28-.14.55-.48-.07.14-.62Zm-.9-1.79-1,.41-.14,1.1-.41-.34-.14-.62.41-.28.76-.55Zm-.62-2.14-.34.76-.55-.28-.14.76-.35-.28-.14-.48.41-.21.21-.41h1.17Zm-1.24,2-.48-.21-.21-.41.41.07ZM185,27.26l.48.35-.35.35h-.48l-.28.35-.28-.69.41-.14Zm-.07-3.45-.41.14.07-.41v-.48l.34.28Zm0,5.31-.21.69-.14-.41-.35-.21.48-.55Zm.35,8.35.21-.41.14.48Zm.76,4.14-.14.55-.28-.55Zm.48,6.76.28-.21.14.48Zm.62-1.38-.48-.14v-.62h.48Zm.41,1.24-.28-.35.48-.07.28.35Zm.28.69.34-.21.28.41Zm1.52.9.21-.55.28.55Zm2.14-.07-.28-.35h.55Zm2.14-.62h-.21v-.21h.21Zm.41-2.55-.62-.35-.55.14L191.16,46l-.07-.62-.28-.41-1.17-1-.21-.55-.9-.21-.07-.62-.21-.48-.41-.35V41.2L187.16,40l-.07-.55-.48-.28.14-1.1-.28-.35-.28-1L186,34.65l-.9.14.14-.62.62-.14-.28-.69.48-1.52.14-1.24-.76.28-.21-.69.35-.21.55.07.21-1.45-.14-1.31.69-.14-.14-.69.07-.55.41-.41-.21-.41.28-.41.35-.07-.41-.35.41-.35.48-.21.14.41.76.62-.14.48L189,27.4l.62.21-.35.41-.14,1.17.9,2.48-.14.83.34.83.41,2.28.21.41.41.28v.48l.55,1.45.21,1.1.41,1,.76.62.07,1.24,1.31,2.14.41,1.86Zm-8.42-16.77v-.28l.14-.14Zm5.11-6,.62.14-.14.55.14.48-.76-.28.21-.48Zm2.21-.83-.14-.41h.62v.62Zm.48,1.24-.55.35.14-.48Zm-.41,2-.35.41-.55.21-.35-.9-.76-.07-.28-.55.41-.14.21.41.62-.35.55-.07Zm-.62,4.62.14-.28.14.35Zm.07,2.14-.21.62-.14-.48v-.62Zm-1.79-5.8.34-.34.21.41-.55.28h-.69l.21-.35Zm1.1.35-.21.41-.55.21.21-.62Zm-1.38-.9-.41.21-.28-.35.41-.48.48.21Zm-.76-2.69.48.14-.55.48-.21-.35Zm-.41-1.66h.62l-.35.35Zm.9-2.07h-1l.28-.35.35-.14.14-.48.41.07Zm-.62.76.35.41-.14.28-1-.14L189,21Zm5,21.53-.14.28H194v-.35ZM194,22v-.48l.62-.14-.14.55Zm.48,6.76-.07-.48.35-.28.34.41Zm.62-7.94-.07-.48.76.14-.07.55-.48.21Zm.41,31.75v-.21l.14-.14Zm.41-1.24v-.41l.35.41Zm.62-1.1-.34.35-.55.14-.14-.55L196,50l.48-.28-.07-.55h.41v.55l.21.62Zm-.34-2.35.48.14-.55.48-.21-.34ZM195.93,16l.48-.28.62.21-.48.14Zm1.24,33.06-.35-.14.21-.41-.14-.14.34.14Zm-.28-1,.34-.14.21.28Zm1.1-2.55-.55.62v-.69l.28-.55.35.07Zm.21,2.42.35-.28,1-.21.48-.28.14.62-1,.41h-.41Zm.14-1.52.41.14-.07.35Zm.62-.55.21-.41.55-.07.28.9h-.62Zm.62,7-.48-.14v-.48l.48-.14.14.41ZM200,50l-.41-.48-.14.62L199,50.1l-.28-.28.41-.41.48-.21.28-.69.69-.07.07,1.59Zm4.07-.14-1-.48.48-.35.41-.41.41.07.21.35Zm.62,1.66H205l-.41.28Zm-1.38-3.73-.55.07.14,1-.48-.07-.28-.35-.28.35.14,1-.55-.14-.35-.35.21-.55-.21-.48.76-.48v-.48l.48.14,1-.34.62-.07Zm-.41,1.86-.62.34.21-.34.28-.28Zm-1.66-2.07-.48-.48.55-.07Zm1,5.45v-.21l.35.48Zm-.69-1.52-.14-.55-.34-.28-.14-.55,1,.55.55.14.55-.28.48.48Zm2.28,1.17-.14-.28-.35-.07-.14-.55.48-.14.21.48Zm1.52,1.38-.34-.48-.55-.07-.07-.41L205,53l.21.48.69.14Zm.76-1.1-.48-.41-.48.14-.41-.14-.35.14-.28-.35.14-.41.55.35.55.14.07-.41.41-.35.28-.48-.9-.14.28-.76h.62l.28.62.62-.21.14-.55.34.28.21.48Zm-.62-3.93.55.07-.07.55-.21.34-.62-.21.14-.35Zm-.07-.41.21-.48.48.34-.48.41Zm3,.28H208l.07-.48.07-.41.28.35Zm-.07-1.52-.41.21.07-.48.48-.14Zm1.24-.55-.48-.48.48-.14.28.48ZM209,44.45V44.1l.48.07Zm1.1,3v-.55l.55.41Zm1-3.73-.21-.34v-.41l.48.35Zm1,3.8-.41.14-.07-.62.76.14Zm.9-2.28-.48.28v-.55l.41-.41.69-.21Zm.14-4.35.14-.21h.21Zm.9,3.11.14-.48.48-.21.14.69Zm1.66-.41h-.28v-.28h.28Zm-.28-3.8.14-.41.14.41Zm1,.9.34-.69.28.55Zm.14-26.78-.28-.62.76.48ZM217.32,36l.41-.41.62-.21-.07.62.14.76-.41-.21-.21-.41Zm1.1-11v.48l-.35-.48Zm-.35-1.93v-.41l.28.21Zm.21,15.18-.28-.35-.41-.21v-.62l.41.28.14.41.41-.07.14.76ZM218.7,33l-.35-.62.07-.55.69,1Zm1-10.08h-.28l-.14-.14Zm-.14-1.24.14-.55.28.55Zm-.07,3,.55-.35.48.41h.69l-.34.41-.41-.28-.48.28-.48.21-.41-.14Zm1.38-10.84.21.34-.48-.14ZM220.77,11h-.28v-.55h.28Zm.14,4.21-.35.48H220l.21-.62Zm.34,6.63v-.55l.41.62Zm.62,5.18.28.62-.41.14-.48-.21V27Zm-.62-5.87-.62-.35.14-.35.14-.41h.48l-.21.55Zm-1.1,7.8.07-.41.41.28-.14.41Zm.21,1-.48.35.14-.62Zm-.21-3.86-.28-.35h.55l.21.48ZM219,20.22l-.62-.07.28-.48.55-.07Zm-.21,11.32-.28-.48.28-.48.34.41.14.62Zm1,7.18V38.3l.28.21Zm.34-.14V38.3l.14-.07Zm.9-1.45-.34.35-.48-.35-.41-.35-.55-.21.14-.48.41-.21.21.14v.62l.69.28.48-.35Zm.9-2.35.14-.28h.28Zm-.28-2.28-.41-.34-.55.07-.55-.28-.28-.48.07-.62.41.21.21.35.48.21.41-.55.9.28Zm.07-2.69h.35V30Zm.07-1.17.07-.41,1-.07-.34.41Zm.28-10.28.76.48-.41.07ZM223,31.13l-.35.35-.07-.62.34-.28V30l.41.07Zm1.31.35v-.41l.28.76Zm-.07-3.11v-.21h.21v.21Zm1.24-4.49v.41l-.41-.07ZM225,21.67h-.28v-.28H225Zm-.41-10.08.28.48h-.55Zm-.48,11.94h-.28l-.14-.07Zm0,2.42.48.14-.34.41-.55-.28Zm-.55,1.45-.34-.41h.34ZM222.77,15h.41l-.28.76-.28-.35Zm-.21,2.76-.41-.21.41-.14ZM222,14.49v-.21l.28.34ZM222.15,9v.35l-.48-.07Zm-.41,8.56-.28.28-.48.07-.07-.35.41-.28Zm-1.52-7.8.48-.14h.69l-.41.55h-.76Zm0,1.52.55-.14-.76.55Zm-.48,1,.62.14-.14.55-.69.76-1.1.41-.62.07.55.9.48.14.62-.07-.62.69-1.38-.28.35-1.93.48-.14.9-.41.35-.35Zm-2.14.48v-.35h.35l-.14.35Zm.35-2.55V9.66h.62l.14.28-.28.28Zm1-2h.28v.28H219Zm-.62-2.69.35.28h-.35Zm-.28,3.17.14-.14-.14.41Zm-.14.28h-.28V8.76h.28Zm-.14-1.17v.55L217.32,8Zm-.07,3,.48-.07-.28.48-.48.28-.14-.28Zm-.55,1.38.28.41-.55-.21-.62.21v-.48Zm-1.66-1.86.76.14-.21.41-.55.07Zm-.14.76-.21.55-.55.14.21-.55Zm-.48-.69-.48-.21-.55.14.28-.41.55-.14.41.21ZM215,9.32l-.48.14-.41-.14.21-.41h.41Zm-1-5.24.48.14-.48.48Zm-.28.83.55.07-.35.28-.48.07ZM213,4.35l.41.07-.55.28ZM213,9.73l.21.48-.55-.14-.21-.41Zm-.69-.83.07-.55.55-.21-.14.62Zm-.48-3.38.28-.35.48.14-.07.55-.62.62L211.8,6Zm.35,4-.28.41-.21-.28ZM211,7.11l.41.55H211Zm-.9-2.9-.48.48-.07-.55Zm-.21,1.66L209.66,7,209,6.9,209,6.35l.21-.62Zm-1.45-3.45.55.28-.62.07Zm.07,2.83.35.35-.55.07L208,5.11Zm-.41,1h.28v.41H208Zm-1.31-1.66.41-.62.48.28.14.48h-.62l.14.48-.41.9.41.28h-.55l-.34-.48.62-.9Zm-3,1.93.55.14-.21.35h-.48Zm-.07,1,.21.62-.62-.07-.14-.55ZM203.17,6l.28.35h-.55Zm-1.1-.35.48.07-.28.41-.41-.07Zm.14,2.48-.07.62-1-.48.07-.34.07-.41.62.21Zm-.76-1.59-.21-.35.55.28Zm-.62-.69.55.14-.41.14-.62-.07Zm.07,6.35.35-.41.9-.48.76-.62.28-.48,1.59-.55,2.14-.28,2.14.14.48.21.55-.07.69.69.9.55.55.14.28.41.35.28h.41l.07.62.35.41.83.62-.14.55.07.55.62.83.48.21-.14.9.28.41.28,1.52.48,1-.07,1.24.55,1.45-.34.28.14.55-.14.62-.28.48.14,1.73-.07,1-.41.9v1.52l-.41.62.14.48-.55.83-.41,1.1-.21,1.24-.35,1-.69.62.41,1-.48-.14-.21.55-.9,1.24-.35,1-.48.14-1.52,2.21-.14.55-.62.28-.41.35-.76,1-.55.21-2.76,1.93-.48-.14-1,.14-.21-.55-.69-.9-.48-.35.07-.76-.76-1.38-.62-.76V40l-.28-.48-.48-.28.14-.62-.9-1.24L197.72,32l-.14-1.1-.35-.83-.21-1-.21-3.31-.41-1,.41-.28V20.77l.21-.41.41-.21-.14-.83.41-.9.35-1.66.41-.9.35-.35-.14-.62,1.45-1.66V12.7l-.48.07-.28-.28h.55Zm-3.24-.41.14-.48.34.41.21.62-.41-.14ZM200,7.73l-.14.55-.48-.41Zm-.9,1.59L199,8.9l.41.14Zm-.28-2.21.41.28-.28.21-.41-.21Zm-.35,2.69.21.55-.21.48-.21-.41-.21-1Zm-.69-2.07-.21.55-.14-.62Zm-1.86,1.59.76.41.48-.07-.35.41-.55.07-.41-.35Zm.21,4.55.28.48H197l.35.14V15l-.69.07-.48-.34-1,.41-.07-.55.21-.48.41-.28Zm-.48-1.24-.48.48v-.62Zm-.55-.9-.28.41-.48.28h-.48l-.41-.21-.21-.48,1,.21.28-.41.62-.35Zm-.83-1.45.41-.21.41.14.14.48-1.1.14ZM193,11.46v-.28l.41.28Zm-.21-1.38.48.14L193,11l-.48-.21Zm-1.17,2.42.14.35v.55l-.62-.21L191,12.7Zm-2.28-.62.35.21h-.35Zm-1.45,0-.34.48-.07-.35Zm-2.28,4.21.55-.14-.21.55-.48.21Zm-1.38,2.83.55-.14,1.52-.07.34-.35.55.28.55.07,1-.35.69-.76v-.9l-.28-.41V16l.76-.35-.28-.35-.48-.14-.14.76-.76-.14-.55.9-.48.21v-.76l.41-.14v-.48l-.41-.41-.14-1.24.48.14,1-.14v.62l.48.28.48-.07.48-.28.21-.41-.48-.14-.35.28-.55-.28.62-.21.41-.41-.48-.55.48-.14.28-.21.28.9.48.28-.28.62.55-.07.48-.28.62-.9.14-.55,1.17.9,1,.21.55-.07-.83.62-1.59-.55-.62.14.35.41h.55v.48h-1v.62l.21.41.35.28,1.24.14-.28-.48-.41-.35.21-.48.9.62.62-.07-.48,1L194,16l-.28.55.21.41.48.21-.28.62.48.14.28.28-1.1-.14-.41.07-.28.55.62-.21.41.07.14.76H193.1l.14.48.48.76.14,1.1-.55-.41-.48-1-.48-.41-.07.35.35.28-.76.76.28.9.34.28-.21.62.21.55v.62l-1.38-1v-.55l-.83-1.24.41-.48.62-.14-.21-.62.35-.55-.28-.48-.55-.28-.69-.14-.48-.35-.41.76h-.76l.35.48-.41-.14-.21-.34-.21.41.48,1-.14.41-.48.07.21.28-.34.28h-.62l-.41-.76.21-.41.07-.62.76-.41-.34-.35-.41-.14-.41.21-.28.41L186,20l-.69-.07-.9-.55-.62-.14Zm2.28-1.73,1.31.14.34.76-1-.28-.41.14-.21-.35Zm-2.69,2.28-.07.48.21.41-.41-.21-.21-.41Zm-.41,1.38.07-.35h.48V21l1.93.28-.21.55v.41l.34.41h-.62l-.9-.35-.41-1.17-.28.21-.48.07Zm-.21,1.31.41-.14.14.55-.14,1.24-.76-.14.34-.41.14-.55Zm-.34-1.38-.55.48-.21-.48Zm-.76,1.79.48.07-.48.28Zm.35.9v.34l-.35-.34Zm-.21,1.17,1.45-.55-.41,1,.34.41,1.1-.62-.41.55-.07.48-.48.07-.35-.14-.55.07-.28-.76-1.17.35-.07-.55.21-.48Zm-1-1.73h.34l-.14.62-.34-.07Zm.21.76-.34.55-.28-.28ZM180.26,25l.48.14-.28.55-.62-.07ZM180,29.19l-.28.76-.28-.48Zm-.14,7.25-.14-1.31.9.69.55.21-.62.69.07.48,1.66-.76v-.62l.41-.41-.41-1-.48.21-.28.35.35.28.21.48-.41.21-.62-.76-.55-.21.28-.41,1.31-.76-.14-.62.21-.41.41-.35.62.48L183,34l-.21.41.34.28.48.14-.28.55-.55.21.07.62.62.07.41.21-.07.55-.41.21.07.55.55.83.9-.14-.21.62-.55.28.14.69-.07.55-.35,1V42l-.48.14-.07-.9.21-.48-.41-.41.28-.41.14-.9-.28-.48-.21.55-.41.35-.69-.41-1.1-.35v-.48l.28-.28.34.48.48-.35.28-.55h.41l.62-.9-1-.07.14.62-.35.21-.41-.07-.62.14-.48.28-.41.07-.28.35-.48.14.28-.48.48-.34-.34-.41-.55-.14.14-.41Zm-.9-6h.28v.41h-.41Zm-.21,1.17.21.21-.35.14Zm-.41.35.35.35-.35.28Zm-.62,3,.28.35.48.28-.35.14-.41-.35Zm-1.17-3-.35.48-.28-.48Z"/><polygon class="6ae1f6ca-6f2a-4a40-bef8-1cc01b35b03e" points="191.85 16.43 191.72 17.18 192.34 17.05 191.85 16.43"/><polygon class="6ae1f6ca-6f2a-4a40-bef8-1cc01b35b03e" points="191.1 18.08 191.16 18.84 191.65 18.63 191.92 18.22 192.41 18.22 192.61 17.94 192.2 17.88 191.1 18.08"/><polygon class="6ae1f6ca-6f2a-4a40-bef8-1cc01b35b03e" points="190.75 17.18 191.3 17.32 191.1 16.63 190.68 16.15 190.61 16.77 190.75 17.18"/><polygon class="6ae1f6ca-6f2a-4a40-bef8-1cc01b35b03e" points="4.62 101.63 4.69 101.97 5.11 101.49 4.62 101.63"/><polygon class="6ae1f6ca-6f2a-4a40-bef8-1cc01b35b03e" points="104.26 91.55 104.26 92.1 104.67 92.1 104.26 91.55"/><polygon class="6ae1f6ca-6f2a-4a40-bef8-1cc01b35b03e" points="101.71 91.41 102.26 91.2 102.6 90.86 102.6 90.44 102.26 90.65 101.84 90.86 101.71 91.41"/><polygon class="6ae1f6ca-6f2a-4a40-bef8-1cc01b35b03e" points="99.43 96.66 99.57 97.28 100.19 97.28 100.26 96.72 99.98 96.38 99.43 96.66"/><polygon class="6ae1f6ca-6f2a-4a40-bef8-1cc01b35b03e" points="167.39 119.57 167.12 119.57 166.98 119.84 167.39 119.57"/><path class="6ae1f6ca-6f2a-4a40-bef8-1cc01b35b03e" d="M203.27,78.51v-.62l-.76-.62.14-1-.55-.35-.69-.14.35-.69-.48-.28-.69.07.14.9-.9-.14.55-.76V74.3l-.14-.21-1.17-.41-1.66-.21-1.59.28-.9.41-.83.69-.55.14-.48.35-.76.9-.07.9-.69,1.24.28.76.07,2.07.21,1,.48.35,1,1.52.76-.07.14.48.34.28,2.28.28.55-.21.48.28.83-.28.48.14,1.93-1.31.48-.07.21-.62.83-.76.35-2.28-.14-.55.41-.28Zm-10.7.76h-.28v-.21h.28Zm1.17,1V80l.14-.14Zm5.87-3.8-.28.48-.14-.48Zm-1.79,1.31.28-.28.55-.07.48.14.35.41-.76-.07-.9.41Zm-.62-3.24h-.28l-.14-.14Zm-2.14,4.55-.21-.35.55.14Zm.41-1.31.07-.55h.34l.28.62.62-.28.62.14-.35.55-.41.35-.62.28-.21-.62Zm1,1.45-.14.28h-.48Zm.14,4.07-.48-.14.14-.48h.62l.14.41Zm.28-1.52V81.2l.34.14Zm1,.14-.48-.41.41-.35-.34-.35-.28-.41v-.62l.48.21.28.48v.41l.55.62.07.55Zm1.31,2.14h-.28v-.21h.28Zm-.48-.62.14-1.1.34.07-.07.62.21.41Zm.62-1.24.14-.55.21.35Zm-.21-2.14-.62-.28-.34-.41.14-.48,1,.41.28.35.14.62ZM200.45,78l.07-.41.62-.21.35.48-.62.14.41,1-.55.14-.55-.14-.41-.28Zm1.31,3-.35-.35-.48.28-.21.48-.62-.14-.14-.62.55-.28.35-.55.83.62.48.07Z"/><polygon class="6ae1f6ca-6f2a-4a40-bef8-1cc01b35b03e" points="269.86 117.29 269.72 117.98 270.14 117.71 269.86 117.29"/><path class="6ae1f6ca-6f2a-4a40-bef8-1cc01b35b03e" d="M292.15,105.21l-.48-.14-.41-.62-1.24-.07-.9.48-.48,1-.07.62-.76.41-1,2.14-1.52,2.42L284,113.22l-.07.69-.28.41-1,.41-.28.55-.76.9-.21.62-.83.76-1.86,1.38-1.66,1.52-.62.07-.76.48.14.9-.69.14-.21-3,.34-.35.21-.48.21-1.1-.62.07-.14.41-.41.21.28-1.31.34.21.55.07.69-1.31.34-1,.21-1.73.76-1,.07-1,1-2.62.07-1,.41-.28V106l.14-.48-.07-.48.55-.48.21-1.17.83-2.14v-.76l.34-.55,1.17-4v-1.1l.34-.41.41-1,.14-1.31.35-.41.14-.55-.07-.55-.55-1-.41-.28h-7.66l-1.38,1.17v.48l-.41,1.66-.28.41-.41.28-.9.14-.55-.28-.48-1-.76-.76-2.9-1.59-.83-.69-.62.07-1-.35-1,.14-.48-.41-4.35.62-.55.48-.55.07-.48.35h-.69l-2.14,1.79-.55-.14-1.45,1.59-.83.62-.48.21-2.83,3.31-.35,1-.55.9-.14.48-.41.28-.48.9-.62,2.14-1,1.93-.14.55-.07,1.86L244,108l-.14.55,0,.18-.09.16.2.45,0,.17h-.64l-1.93,3.31-1.31,1.73L238.61,116l-.21.62L238,117l-1,.35-.9.55-1,.14-.48-.21-.69-.83-.48-.28-.14-1,.14-1.24.62-.62.28-1.66,1-2.9v-.69l-.14-.48.69-.28-.07-.41-.07-.48.48-.48-.14-.48.21-.9.48-.9.35-1v-.62l.62-.9-.07-.55.28-3.45-.07-1-.48-.76.14-.41-.07-.55L237,93.76l-.07-.69-.55-.35-.35-.55v-.62L234.53,90l-1.17-.28-.69-.76-2.35-.34h-1.1l-1,.34-.62-.28-1,.48-.55-.07-1.79.9-.41.35h-.55l-.41.21-1.31,1.1-.48.21-.62-.76-.14-.48.21-.48-.83-.55-1-.28-2.21-.14-2.21.28-.35-.21h-1.59l-1,.14-.28.41-.48.35-.21,1.1-.48.9-.07.41.14.48-.35.35-.55,1.45-.48.62v.76l-.28.41.14.62-.62,1-.14.55.21.62-.62.83-.62,2.28-.28.48.55.48-.55.35-.34.48.13.47-.08.36-.26.13-.48.76,0,.3-.87,1.22-.35,1v.62l-.62.28-.69,1.45-1.86,2.62-.48.9-.55.28-.62,1-.62.28-.76.9-.69.21-.48.41-.55-.07-1,.48h-1.1l-.55-.14-1.17-1-.41-1.45.28-2.62.41-.48-.14-.69.41-.35.21-.55L193,110l.07-.55,1-1.79.14-1.66,1.38-3.11.21-1-.07-.55.35-.41.55-1.66V97.48l.41-.35.69-1.45.35-.35-.14-.9.48-.9.07-.62-.21-1,.55-.21.34-.41-.28-.55.28-.62-.34-.35-.41-.28-1.59-.21-1.1.21-.62-.41-.62.21-1.1-.14-.55.21-1-.21-.35.34-1-.28-.41.28-.62.83-.48.21v.62l-.9,2.69v1l.21.48-.41.28-.48.9-.34,1.1-.48.9V99l-.35,1.1-.34.35-.14,1.17-.69,2.14-.07,1.1-.34.48-.23.54-.11.15-1.31,2.48-.07.62-.83.76-.62.9-1,2.14-1.24,1-.69.83-1.1,1.79-1,.55-.41.41-.62.07-1,.48-.28-.21-.48-.07.14.9-.41-.28L173,118l.14-.48-.76-.21.07-.48-.35-1,.55-2.14.76-2.21.48-1v-1.24l1.24-3.93v-1.1l.28-.41.14-.55-.07-1.66-.35-2.14-.41-1.17-.55-.9-1.31-1.52-1-.28-1-1.31-.55.07-.83-.55h-.55l-.9-.9-.9.14-.28-.48-.55-.35-.62-.14-.62.07-.41-1.45.83-3.73v-1.1l-.14-.62-.41-.21-.48-.14-.62-.9-1-.55-1-.28-1.17-.07-3.31.76L156,85.41l-1.17,1.86-.34,1.1-.14,1.1.35,1.1-.07.55.62.76v.55l.21.48,1.17,1.73.14.55-1.1,2.35v.62l-.55.62-.41,2.35-.28.35-.55.21.14,1-.48.35-.55,1-.14.48,0,.6-1.55,2.78h-.41v.9l-.48.21-.69,1.38-.41.28-.55.14-.21.55-.76.9-1.73,1.52-.28.48-.62.14-.48.9-.9.62-1.93.9-.48-.14-1.24.69L138,118l-2.28.07-1,.35-1.79-.21-.55-.48h-.62l-.62-.55-.9-.14-1-.76-.48-.21-.48-.9h-.55l-.35-.28.35-.14.28-.35-.69-.9.14-1,.34-.41.55-.28h1l1.31-.62.48.07.48-.21.55.35.28-.35.48.48,2.83-.55.9-.35.34-.35,1.1-.14,1.59-.83,1.1-.34.35-1,.41-.28v.62l.69-.14.28-.55.07-.55.55-.07,1.52-1-.21-.55.07-.48.35.21.41-.07,1.52-2.21.76-2.42.14-1.1-.41-.55.41-1.1-.28-.62V96l-1-2-.35-1-.48-.28-1.1-1.17-.9-.55-.69-.07-.69-.76-.83-.62-.48.07-1.45-.55L139,89l-.55.14-.41-.35-1-.28h-1.17l-2.62.62-.41-.21h-.55l-.83.48-.76-.28-1.17.62h-1.17l-.9.55-1,.35-.41.76-1,.41L123.3,93l-.69.76-.48.21-.76.69-.9,1.31-.76.69v.76l-1,1.17-.55.9-.07.48-.41.28v1l-.76.48v.62l-.9,2.48-.21,1,.21,1-.21.48-.09.64-.32.12-.14.62-.9,1.17-.14.62-.76.55-.28.41-.21,1.1-.76.14-1,1.24-2.42,2.14-1,.62-2.07,1-2.28.14-1-.35-.28-.41-.76.14.07-.55-.48-.35-.14-.9-.62-1.52.35-.28.21-.48.35-2.28.41-.55v-.76l.48-1,.21-1.24.35-1.1.35-.48.07-1.17.21-.55.35-.41v-.55l-.14-.35.62-.9.69-2.21-.41-.62.9-.28L105,97.55,107,97l1.1-.14,1.1.21.48-.21,1.17-.07.41-.28.76.55,1.79-.14.62-.35.48-.76.76-2.35.14-1.66.69-.76V89.76l-.9-.62-1,.41-1-.41-1,.07-.48.21L111,89.06l-1.1.21-.48-.28-.62-.14-.35-.35.07-1.73L110,82.72l.28-2.21.55-.83.14-.48L110.82,78l-.48-.07-1-.07-.55.14-.76.69-.9-.41-1,.48-3.38,1-2.14.76-.14.55-.62.83-.07.62L99,84.44l-.07.48.14.62-.48.83-.28,1V88l-1.45,1-.48.14H94.8l-1,.34-.62.83-.21.55-.07,1.24-.62.69-.35,1-.21,2.48,1,.48,2.14.55-.69,3.45-.62,2.07.28.76-.41.28-.35,1-.41.41v.25l-.2.16-.13.54h0v.05l-.12.5-.76,1.38-.35,1.1-1.38,1.73-1,2.07-1.17,1.1-1.24,1.73-.55.14-.28.41-.83.69-1.45.55-1.1.21L80.87,117l-.28-.41v-1.93l.55-2.07-.14-.48,1.17-1.52-.07-1.1-.21-.83.62-.14,1.38-4.69-.21-.62.62-.76.14-.48-.14-.55.41-.28.07-.48.28-.28-.28-.76.69-.34v-.62l1.1-3.38.48-1,.28-1-.07-1,.48-1.59V90l-.41-.41-1-.35-3,.07-1.1-.21-.41.21-1-.07-.48.35-.69.28-1.1-.35-.83,1.31L77.56,92l-.41.28-.35,1,.41.48.07.41L76.8,94l-.28-.28-.14-.48-.9-.62-2.35-2.21-1-.62-1.1-.41-1.31-.21-1.1-.55-.9.28-.41-.28-.55-.07L65.14,89l-1-.07.14.76-.48-.62h-.62l-.83.48-1.17.21-1.59.55-.76.9-1,.48-.62.69-.41.28-.55.14-1,1.38-.83.76-1,.62-.48,1-1.93,2.83-.41,1-.21,1.1-.62.48v1.17l-.69.48L49,104.8l-.69,2.07-.14.9v.54L43.82,114l-.55.28L42,115.57l-.62.14-.69.9L38,118.46l-.34.41-1,.41-.35.35-.62-.07-.35.35-2.14.76-.41.28H31.61l-1.66.62-4.49.14-.76-.41-.14.55-.35.35-.55-.9h-.48l-.62-.21h-.76l-.9-.48-1.17-.28-.48-.28-.28-.41-.48.07-.9-.28-.14-.76L16.22,118,16,117.5l-1-1-.07-.48-.83-.76L13.66,114l-.69-.21.14-.9-.69-1.38-.62-3.45-.48-.9.28-.41.14-.62-.21-.55-.07-1.24.14-1.17-.07-.48-.28-.48.41-.21.21-.48.21-2.35.28-1,.55-.83-.14-.76.9-2.21L14,94l.28-1.31,1-1.17,1-1.86,1.17-1,.83-1.38-.41-.07-.35-.35.62-.14.62.14,2.69-2.28H22l1.93-1.38h.55l1.1-.76,1-.21.35-.35.41.21.48-.14.62.07.34-.41.48-.07,1.17.21.41-.62,1.79.76,1,.28h.62l.35.48,1,.62.21.55,1.17.48.35.41-.76.35L36,86l-.76.76v.62l-.62.21-.41.34-.07.69-.48,1.1.14.62-.21,1.17,1.31,3,.55.83.76.69.62.07,1.45.69,1.86.07,1-.21,1.17-.48h.62l1.79-1.38.14-.69,1.24-1.38.14-.9.35-.48-.07-.69.41-.41.21-.55-.07-1.1.21-1.1-.48-.9L47,86.1V84.92l-.41-1.1L46,83l.07-.62-.9-1.17L45,80l-1-.41-.35-.35-.21-.48.07-.48-.48-.21-1.59-1.31-.55-.14-.41-.83-.9-.35-.21-.41L38.79,75l-1.86-.76-1-.07-.83-.48-1.59-.41H31.88l-.55.14-.41-.21-1-.21-1.24-.07-1.24.14-1,.35-.76-.21L24,73.54l-3.17,1-1.24.21-.76.76-1.1.14-1,.55-.83.69-.55.21L13.6,78.23l-1.52,1.45-.83.28-.14.76-1.38.9L8.21,83.06,7,84.92,6.63,86l-.48.28-.76.76-1,2-.62.83.14.62L3,91.69l-.21,1.59-1,1.24-.21,1,.14.48-.41.41-.07.9L.9,98l.14.48-.41.62v1.79l-.35.55.21.76-.28,1v.48l.21.55L0,105.9.07,107l.35,1-.28.9L.41,110l.41,3.31.69,1.93.07.62.48.9-.14.48.28.48.69.76.28,1.17.55.35,1.1,1.31V122l4.07,4.21,1,.41,2.76,1.66,1,.35,1.31.21,3.17,1,2.28.14.69.41,1-.21,2.21-.07L25,130l.9.28.55-.28h1.1l.9-.41.9.14,2.21-.55.83-.35,1-.76,1.66-.21.41-.41,2.07-1,2.83-1.73L42,123.16,44.65,121l1-1.45.9-.55.55-1,1.24-1.49.34,1.35.41.83.21,1,2.07,2.14.35.76,2.07,1.38,1,.34,4.28.83h1.1l.55-.28.55-.07.69.14.76-.55.9.14,1.79-1,.28-.41,2-.9,2.69-1.79,1.24,1.17v.48l.69.76,3,2.07.9-.55.21.41.41.21.76-.21,1.52.28,1-.07,1-.35.83-.55,1-.35h.55l.83-.34,1.24-1.1,1-.55.48-.14.21-.76,1-.48,1.38-1.59.9-.62.14-.55.2-.23v.23l.55,1.59.34.41.14,1,.62.62.14.55,2,1.59,2,1,2.35.62h2.42l1.79-.48h.55l.62.28,1.66-.62,1.45-.9h.62l.76-.9h.41l.9-.35.48-.41.9-1.17.48-.14.48-.62h.55l.69-.83,2.48-3.38.62.82,1,2.07,1.17,1.79,1,.55.07.48.28.41H121l.28.41,1.45.9.35.35,1,.14.76.55,2.28.48,1,.35.76-.28.34.28,1,.35,1.1-.07.41-.28.14.41.41.21,1.59-.41,4.35-.55.9-.41,2.28-.55,1.86-1,.62-.76h.76l1.66-1.45,1-.48.34-.48,2.62-2.21.9-1.52.48-.28,1.1-1.31,1.31-1.86v-.76l.76-.69,1.66-2.76.11-1,.5-.88.76-2.07.55-.9.14-1,.35-.48.28-1,.41-.48.28-1.31,1-1.24.14-.48,1,.21.35.21,1,.21.35.41.9.69,1.59.69-.48.62.28.48v.55l-.55,1.59-.07.55.21.55-.48,1-.69,2.07-.48,1v1.38l-.62.9.14.55-.41,1,.14.55-.41.35-.14.41v1.66l-.48.83.41,1.24-.14.48.07,1.59.9,3.17,1.24.9.21.48,1.79,1,1,.28.62-.07.55.21.48-.21.28-.41.14.62,1.79-.21.48.07,2.42-1.1,1.1-.21L179,121.5l.35-.9.48-.28.76-.69,1.38-1.59.18-.13.16,1.37.69,2.14.9.28v1l.34.21h.55l.69.83,1.45.76,2.42.62.48-.21.41.07.48.28,1-.41,1.17.14,2.69-.83,2-.9,1.52-1.31.62-.14.69-.9.83-.76.08,0-1,2.87v.62l.28.41.41.28,1,.35,1.17.14,1.24-.14,2.21-.62.48.62h1.17l1-.28.76-.62.21-.41.14-1.24.83-1.38.35-1-.14-.76.14-.62.69-1,.34-.9.14-1L213,115v-.76l-.14-.55.76-.62,1.17-4.21,1.38-4.07-.07-.55-.28-.48.35-.28v-.62l.48-.14.21-.35-.28-.41-.55-.21-.35-.41.69.07.48-.21.35-.48.62-.07.41-.34.48-.9.55-.07.48-.83h.76l.83-.69,1.59-.55,1.1-.07,1.1.21,1,.41,1,1.1.14.48.07,1.24.21.41-.41.69.55.21-1.17,2.48-.69,2.21-.48,1,.14.83-.28.48v.69l-.62.62.21.48-.07.41-.48.41-.62,2.62-.21,3.11.21,1.1-.07,1,.69.62.07,1.17.48,1,.62.9,1.73,1.24h.55l.41.41.41.21,1.24-.07.55.21.69-.35.48.28.62.07.55-.14.83-.62.55.21,1.1-.21,1.31-.9,1.1-.21.48-.28,2.07-1.93,1.45-.76.62-.9.14-.62,1.73-1.38.27-.39.28.39.9,2.07-.14.48,1,1.31,1.52,1.45,1.66,1.31.69.07.55.21.83.55.55.21.69-.48.48.62h2.9l1.73-.41.48.28.41-.41,1.66-.76.69-.9.69.55L262,123l.48-.35.62-.07-.35.28.55.07.28.28-.21,1.17h.76l.14.35-.48.28-.41.76.21.55-.62.21-1.1,1.31-.76-.28-5.45,1.31-2.07.76-.9.48-.69-.28-.62.62h-.62l-.69.62-.55.07-3,2.14-.14.55-.28.41-.83.41-1,3.73-.34,2.28.41.62.55,1.73,2,2.62.9.55,1,.35,2.07.48,1.1.55h1.79l.76-.28,1,.14L257,147h.48l1.17-.28,2.14-.9,2-1.31.9-.76,1-.55,1-1.38,1.52-1.52.28-.62.48-.41.07-.55.55-.62-.07-.62.62-.14.14-.55,1.38-2.83.28-1v-.55l.76-1.45.76-2.35.55.07.83-.55.62-.83H275l.48-.21,1.31-1.17.62-.07,1.1-1.1H279l2.35-1.73.21-.55,1-.55,1.66-1.59.62-1,1.24-.76.21-.55,1.31-1.52.14-.62.62-.83.41-.28v-.76l.83-.76,1.38-2.48.69-.9V109l.69-.76.48-2.42Zm-96.54-9.8h.28v.21h-.28Zm-22.91,11.66-.14.48-.21-.48Zm-.48,2.55.28.35-.41.28ZM112.2,90l.34.48-.41-.14Zm-2.21,1h.28v.21H110Zm-73.13-.41h-.28v-.28h.28Zm8-3.24.35.14-.48.41Zm-5.94-.76L38.85,86h.41l.07.48.41.28-.48.14Zm1.31-1.52-.83-.21.07-.62-.21-.41.48-.62.76,1.1Zm.28,2.21-.28.76-.35-.35-.07-.48.21-.48Zm-1,.9.55.07-.55.28Zm.41,1.24V89l.41.14.07.48Zm2.28,2.42.28-.35.14.35Zm.76-6.63-.48-.14.48-.21Zm.21-2.48.35.34L42.72,83Zm-.69-.55v.21l-.35-.21ZM42,84l.55-.14.28.48-1.1.14Zm0,2.21.48.34-.28.14-.48-.07Zm-.35,3.59.28.55-.21.14-.35-.28-.28-.35Zm-.41-1.38.07.55-.35.21-.28-.35-.14-.55.28-.07Zm-.41-5.59.14.62-.34-.14L40.37,83Zm-1-1.31.21.28-.55-.14Zm-.21-3.8-.35.07-.14-.41ZM38.1,81.89l.28-.35.35.14-.21.48-.41.28Zm.48,3.17.41.07-.21.48h-.55l-.14-.48ZM37.2,79.89V79.4l.41.14-.14.55-.41.21Zm-.62,1,.14-.21.14-.14Zm-.34-2.55.07-.48.35.35.28,1-.76-.34Zm-1.79.83-.55.21.14-.48V78.3l.35.14.28.34Zm-.35-2.55.48-.21.35.41h-.48l.14.62.62-.07-.35.35h-1l-.21-.55Zm-1.45,4.14.28.21-.28.21Zm-.41-2.48.14.35h-.28Zm-.35,1.1.41.34-.55.28Zm-.28-.48-.48-.07L31,78.37l.48.07Zm-.21-2.76-.07.48L31,76.44,30.85,76Zm-2.83.55.62.69L28.3,77Zm-.14,1.45.34.14-.48.35Zm-1.66-2.42.35.21.14.55-.55-.21Zm-1.24,1.38.21-.41.14.41-.55.35Zm-.21,3.8-.55.14-.28-.35.48-.14Zm-.76-1.38.28.21-.28.21Zm-.07-3-.41.48-.14-.35Zm-1.66,5.18.07-.35.14.35ZM23.46,78v.48l-1,.28.14-.48.34-.21Zm-.62-.76-.14.48-.41.14-.14-.48ZM21,83.06l-.28-.48.48.14.28.28Zm.21-1.66-.35-.07-.14-.55.76.28Zm-.76-1.59.41.21H20.5Zm-.76-.55.41-.14-.28.28.28.14-.41.14Zm-.9.83.41-.14-.41.48ZM17.6,82.37l.55.21.48.41-1,.48L17.53,83Zm-3,5.73-.21-.35.35-.21ZM15,87l-.48-.07-.14-.41.14-.62.76.69Zm.62-1v-.28l.14-.07Zm.55-2.21.21-.48.48.21.28.35-.55.83-.41.28.14-.35-1,.14v-.62l.35-.55Zm-1.1-2.48h.69v.48l-1,.14-.14-.48Zm-.69,3.17.21.48h-.35ZM14,88.72h.55L14,89Zm-.28,28.78.28.62-.28-.14Zm-1.1-.62.35.62-.62-.14ZM11.59,90v-.34H12ZM11,87.55l.41-.21.48.07.35.35.14.55Zm.76-.48.14-.62.76.48Zm1.24.69-.48.21.21-.48.41-.14L13,86.93l-.35-.28L13,86.3l.55.76ZM13.66,86l-1-.35-.14-.55.28-.14h.48l.41.55Zm-1.17-1.66L12.7,84l.41-.21-.21-1.17.48-.21-.28.62.62.35-.21.35-.41.07.14.76-1,.28Zm-.76.14.14.48.35.41.14.62-.48-.76L11.32,85l-.07-.76Zm-.9.41.41.07-.28.69-.41-.28Zm-.41-.83-.35.55L9.94,84ZM9.94,88l.48.14.41-.21-.14.62-1-.14-.21-.34ZM9.8,114.46h.28v.21H9.8Zm-.35-.35.21-.41.28.62ZM10,111.7H9.45l-.28-.41.9.07ZM9.18,113l-.55-.21-.35-.41.35-.48.48.14.28.41Zm.9,4.62-.21.41-.41.21L9,118l-.35-.28-.14-.48.55.07ZM6.76,107.56l-.55-.14L6,107l.28-.48.35.34.28.48.41.35H7.8V108l-.41.9-.62-.21.14-.55Zm-3-3,.48-.14.62.28-.28-.48-.76-.76-.48-1,.48.21.28.41.41.28v-.41l-.21-.55L3.93,102l.28-.76L5.73,101l.55.07-.35.35-.21.55.41.28.35-.48.14-.69.69.14.48.76.62-.14-.48-.76.28-.55L8,99.9l-.76.41-.48-.62-.55.28-.62-.07.35-.62.35-.48.48.28L7.38,99l.69.83.9.41.62.07-.14.62-.55-.28-.21.28.28.35.07.48-.14.55-1,.28.28.48.35.28h.9l-.14.62-.48-.14L7.25,104l-.07-.62L7,103l.07-.55-1.52,1-.28.41.48.62-.62.76.55.07.62.28.83-.9v.9l.9-.07.28.48v.48l-.62-.21L5.45,106l-.35.62-.62-.21H3.93l.21-.48.35-.34Zm.07.76-.35.41-.28-.41Zm-.48-5,.41-.14.21,1H3.31l.28-.48Zm3-3v.21l-.48.41L6,97.28Zm-.21-1.45.41.21-.07.35Zm4.28-1.1-.21.48-.35.21-1.1.28-.07-.55v-.55l.55.28Zm-1.1-4.07.55-.21.55-.14.28.35-.76.07v.69l-.28.48-.28-.21ZM10,97l-.41.28-.14-.55.41-.07Zm-1-.14-.21.48.21.48.41.41L9,98.8l-.55-.28L8,98.66l-.07-.28.62-.21-.07-.48-.21-.34H7.8l.14-.48Zm-1.1-.28-.55-.35-.28-.62.48-.14.55.14Zm1.52,5.87-.14.41-.41-.14v-.28l.14-.14Zm-3,1.45-.14.35H6.14v-.35Zm-.62,5.59.14.41-.41.21Zm.48,1.86v.28L6,111.43Zm1.45-2.14-.28.48L6.9,110l.07-.48.14-.41Zm-.14,1.52,1.1-1.1,1,.21.07.55-.28.48-1.31-.62L8,111.49H7l-.14-.76Zm2.14-4.9-.62-.07V105l.69.14.48.41Zm.28-10h.48v.55ZM9.66,94l.35-.28.55-.07.28.35Zm0-8.28-.35.41-.14-.41Zm-1.1,5.66.41.14.21.35H8.56Zm.14,2.14L8.42,94,8,94.17l-.07-.62.62-.28Zm-.83-3,.28.48-.21.48-.41-.35-.14-.55Zm.41,1.73L8,92.93H7.25l.14-.48L6.9,92ZM6.83,93l.55.21-.62.07-.28-.62Zm-.48,1.38-.14.48-.35.41-.41-.21.28-.55L6,94Zm-.62-3.11-.35.28-.55-.14.41-.48Zm-.9-1.45v.41l-.35-.14Zm-.21,7.87.48-.41.48.21-.14.41.55.21-1,.41-.55-.14ZM3.8,99.28l.83.14-.14,1-.69-.14L4,99.9Zm-.55-.55.48.83L3,99.42,2.9,99l-.07-.48Zm-.55.83.34.62-.62-.28Zm-.76,2.14h.21V102H1.93ZM1.73,106l-.21-.55.55-.07.48.21-.28.41Zm.83,1.24.14-.48.34-.21.35.14.07.55Zm1.17,3.38-.41-.14V110h.41Zm.07-2.42-.55.07L3,107.84l.48-.14.62-.07.41-.35.28,1.1.35.35-.35.35L4.35,109l-.41-.35Zm.28,8.42v-.35l.55-.14-.14.76Zm.9.9-.35-.21.35-.07Zm-.48-3.66.21-.55.41.41Zm.76-2.69L4.69,111l.55-.28Zm.21,9.52-.07-.14.35.14Zm1-7.25-.48.48v-.48L6.63,112l.48-.07.28.28v.55H6.9l-.14.35.48.28-.35.14Zm.9.83.55-.14.55.14.41.35.14.62-.41-.07-1-.48H7Zm1.1,2.35-.07.62L7.25,117l.21-.48.48-1,.41.41Zm-1.38,2.28h.41l.41.28.07.48-.55-.28Zm.69,1.66.14-.62.21.62Zm-.69-2.42.35-.41.55.07.14.62Zm1.31.76.48.41-.62.14Zm.83,2.83-.69-.41,1.24.28Zm.41-2.55.28-.62.48.14.14.48-.41.14Zm1.17,3.93-.41.28-.07-.55.48-.35Zm0-6.21-.41-.41h.41Zm-.14-1.52-.76.76H9.45l.69-.76.55-.07.41.21.28-.41.07-.48.55.35-.41.55-.48.35Zm1.66,3.45-.07.55-.28.35-.41.21v-1Zm.14,6.83v-.21l.14-.14Zm0-3.66-.9-.62v-.55l.41.14.21.28.41-.28.28-.41-.28-.48.48-.14L13,121.09Zm2.14,3.45-.48-.28-1,.14.21-.62.55-.07.28-.21.41-.14-.21.55L15,125Zm0-2.35v.41h-.28l-.07-.55Zm-.21-1.1v-.55h.35l.14.69Zm1.1,5.31h-.21v-.21h.21Zm.41-5.73v-.35h.28l.35.35-.48.55Zm.9,2.69-.55-.41.55-.07Zm.34-3.11-.34.28-.62-.76-.14-.21-1.1.28-1.24-.21.55-1.1.35.28.21.41.55.07.55-.76.28.48v.76h1.1Zm.76,6.69h-.21v-.28h.21ZM18.7,124h-.35l.14-.35h.21Zm-.35-1.86-.14-.69.41.21.21.35Zm6,.83.14-.21h.21Zm2.55,3.24.21-.48.28.48ZM80.6,104.11l-.76.14-.14-.69-.35-.48-1.38.48.21.35v.48l-.35.07-.55-.35v-.48l.28-.41.41-.14.35.28.14-.41-.14-.48-.62.28V102l.62-.21-.07-.55-.55-.14.62-.21v-.35l.55-.41-.41-.55h.28l.35.28v1l.28.35-.34.48.07.41.35.28h.69l-.21.41.21.48.48.21Zm-4.21,7.25H75.9l-.14-.35.28-.14h.48Zm.14,3.17-.35,1-.28-.35.14-.48Zm-1.24-7.73v-.28h.28v.28Zm.14,3.8h-.28l-.14-.14Zm2.28-9.18-.35.21-.41-.21-1,.14-1,.35.28-.48.48-.28v-.76l.55-.14.76-.76.28.28.07.41-.48.28-.28.48Zm-.41,4.07-.35-.14.21-.41.69-.07v.62Zm.55,2.83-.55-.14.41-.41Zm-2.21-5.59.55-.41.48-.41.41.55-.69.28-.07,1.1H75.9l.35.35.55.21-.28,1-.41-.35-.21-.55-.62.14-.07-.48.69-.62.28-.41Zm1.59,3.45-.35,1.31-.55.21.21-.55ZM75.28,105l.9.83.14.69-.41-.35-.28-.55h-.55l-.35-.28Zm.28,3.17.48.28-.62.07Zm.62.9v-.55l.41.14.07.41Zm.62,3.31.35.41-.07.62-.48-.48Zm.69,2.28H78l-.28.48-.41.28-.14-.35Zm.21-3.17v-.41l.35.14-.07.28Zm.28-4.83-.14-.41h1.1v.41Zm.76-2.07.07-.41.14-.35.35.35-.07.55Zm.9,1.45.35.34h-.9Zm.21-.9.28-.55.21.48-.21.55Zm.55-4.62v.55l-.55.35v-1Zm-.55-.76.14-.35h.28v.35Zm1.93,2.35-.48.21-.14-.76,1.1-.41ZM81,98l.35-.07v.28Zm1.66,1.45-.55-.35.14-.55.41.28Zm.9-2.48L84,98l-.48-.28-.35-.41L83,96.73Zm-.62-4,.35.41-.48.35-.14-.41Zm-.41,1.52.28.41-.62.14Zm-3-.55.28.21.07.69.41.41.55.28h.62l.41-.28.35.28v.55H81.7l-.34.48-.48-.14-.14-.76-.62.28L80,95.41l-.28.21-.48.07.21-.41-.28-.76-.07-.62Zm-1,1.1-.55.07L77.77,95l-.07-.48Zm-1.73,2-1-.48.28-.76h.55l.69-.28.41,1.31.55-.07.35-.34-.41-.35-.14-.55.48.28h.41l.14,1.1.9-.48L80,97l-.69.35.76.76v.48l-.48-.21-1.17-1.17-.9.55.35.48,1,.9-.55.21L78,98.86l-.9.14-.14.48-.62-.07.28-.48-.07-.48-.83-1.31-.07-.41,1.17,1,.41-.14Zm-1.79,1.38.48-.35.48.41-.48,1.1L74.73,99Zm.35,2.07-.14.41-.48-.21-.14-.55Zm-.14,7.18-.28.48-.35-.48Zm-1.17-6.56v-.21h.28v.21Zm.28,4.62-.14.35H74l.14-.35Zm-.48-7.38V98l.48.14ZM73.49,93l-.28.55L73,93Zm-.41,1.45.48.28.14,1,.21.48h-.55L73,95.76l-.07-.62Zm-.21,2.28.41.41-.41.35ZM73.35,99v.48l-.41-.07L72.87,99Zm-.62,17.46.48-.14-.07.48.21.55-.48.28-.14-.69Zm-.14-1.31.62-.34-.14.48Zm.62-2.28-.35-.21.14-.41.35.21ZM71.35,95.07l.35.21-.35.28h-.28Zm-2.07-3,1.31.69-.14.48-1.52-.48Zm0,3.73L69,95.69v-.28Zm-.14-1.66.14-.48.35-.28.41.21-.34.41Zm.9,2.28-.34.34-.48-.07L69,96.31Zm-.28-.62.14-.34.41-.21v.55Zm-1.1,1.52h.28v.28h-.28Zm-.76-5.87.21.48h-.48Zm-.14,1.66v.41l-.41-.41Zm-1.52,2.42h.21v.28h-.21Zm-.41-3.31.28.35L66,93l-.35-.62ZM64.17,94l.48.35-.48.28ZM64,95.41h.21v.28H64Zm-1-1.93.48.21.21.48L63.14,94l-.48.07-.28-.62Zm-.62,4.9.35-.41.21-.21.21.07v.69Zm.69,1-.41-.14-.14-.41.35.21Zm-.14-4.76-.14.55-.28-.55Zm-.41,1.45.55-.14-.41.41-.48.07Zm-1.66-1,.41.35-.55.28Zm-.48,2.14.48.14-.21.34-.41.07Zm.76,2.42-.21.48-.41.28.14-.35.07-.41Zm-1.45-1.1h.55l-.35.41L59.2,99v-.41Zm-.62-1.93.28-.41.28.55Zm.28-1.52.28.35h-.48l-.28-.21Zm-1.17,1.38h.41l-.14.41h-.28Zm-.62,6.49-.35-.14-.14-.35ZM57.34,113l-.21.55-.48.21-.35-.28v-.76l.14-.35.35.41Zm-.14,3.45v.48l-.28-.48Zm-.69-6.63H56.3v-.28h.21Zm-.07-3-.28.41-.28-.41Zm-.55-7v.55l-.35-.35-.14-.55Zm-.28,10.28.14.48-.41-.21-.07-.55Zm.14,6.07-.07.62-.41-.07V116Zm-.62-4.42h-.48v-.69ZM55,107h-.21v-.21H55Zm-.69-8,.55-.14-.21.48-.55.14Zm-2,5.65,0-.19.28.28v0Zm.79,9.74.07.55-.55-.28.07-.48Zm-.41,1.73.41-.41.41.35.07.69h-1Zm.62-11.46.28.34-.62-.14Zm-.76-2.76h.28v.28h-.28Zm-.48,1h.35l-.48.9-.28-.62Zm-1,10.84-.21-.35.62.21Zm.83-1.38-.78-.34,0-.15.22-.22.73.22.55-.14-.28.9Zm.62,5.87V118l.28.41Zm1.1,0-.21-.28.55.14Zm.21-2.55-.28-.62.41.07Zm.76.76-.41.14V116l.41.14Zm-.55-1.79-.21-.48.48-.14.41.28.48.07-.14.69ZM55.75,121l-.62.14-.28-.55.14-.69,1.17.76Zm0-1.38-.21-.48-.35-.41.07-.48.34.28.55.83Zm.41-3.45-.07-.34.41-.14Zm0-1v-.41l.41-.41.48.07-.28.55Zm.9,1.93h.48l-.07.55-.55.35-.07-.41Zm.62,2.42-.55-.28-.21-.62.48-.28.41-.35.62.14Zm.41-1.79v-.48h.34ZM60,119.78l-.48.14-.07-.48-.35-.83.62.28.41.48Zm9.18-5.59-2.62,1.59-.83.69-.28-.14-2.62.41-.62-.14-1,.48.28-.76-.9-.55-1.31-1.59-.48.14-.41.34H58l.35-.48.55-.41-.28-.76.21-.9-.28-2.35.07-1.1L59,108V106.8l.41-.9.07-.55.9-.9-.14-.62.41-.21.07-.55.48-.28.69-.9.14-.62.76-.21v-1L64,99.76l1-.48-.35-.76.62.07,1.1-.14L67.69,98l1,.07.55.21.48-.35.83.21.07.62.69.62.9.41v.55l.76,1.86.07,1.59-.14,1.1L73,106l.21.55-1.1,2,.14.69-.35.41L71.21,111l-.62.83-.41.28-.14.76-.9.62Zm.9,5,.14-.69.28.41Zm.14-1.52-.28-.28.69.14Zm.14-1.93-.28-.28.62.14Zm1.24,2-.48-.21.48-.21.55.07.35.62-.21.41-.41-.28Zm1.66,1.93h-.9L72,119l.35-.07.41.07.28-.62.48.07Zm.83-5.25.21.41-.48-.07-.14-.35Zm0,6.69-.28-.28.35-.07.28.28Zm-.14-1,.41-.14.21.35Zm.62-10.63h.76l-.14.55-.62-.14Zm.55,2.69.41-.35.55-.14.14.21-.21.48-1,.41-.28-.21Zm-.21,1.38.41-.28,1-.07-.41.48-.62.28Zm2.42,6.35-.62.21-.21-.55-.83-1.17-.07-1,.28-.14.07.48.76,1.79h.76Zm0-3.66.14-.21.28.07-.14.28Zm.28,2.21.07-.76.35-.41.14.48-.14.55.21.48Zm.9-8.07-.14-.62.35.28Zm.28,5.87.21-.21.35.21.21.41Zm1.1,1.52.14-.48.34.21.21.41Zm20.49-13.39.14-.62.41.21Zm.41-5.18-.41.07-.14-.28.28-.14h.48Zm1-2.07-.21.48-.62-.14-.55.14-.35.35-.41-.28-1.1-.21-.28-.35.48-.76-.14-.55,2.21.14-.55.48.62-.07.55-.14.35.35ZM98,103.7l-.41.35L97,103.7l.07-.48.55-.83v.41l-.21.48ZM98,101.21l-.41.28.21-.76.55-.07.48.07-.21.41Zm.41,1.93.41-.14v.41h-.62Zm0,.9.41.41h-.41Zm.62,4,.21.35-.48.07-.21-.48Zm-.07-9.18-.62.21.14-.62.35-.55.41.48Zm.76-3.45v-.28l.14-.14Zm2.83,4.07.07-.55.28.55Zm2.83-4.83-.35.48-.35-.28.14-1.79.41-.14.48.07.21.34-.48.41.28.35.48.14Zm2-.14-.76-.55-.14-.48h.41l.48.48Zm1.52-3.45v.41l-.55.21-.07-.28Zm-.62,1.52-.35.48.41.9h-.48l-.48-1.24.34-.07ZM106.47,84l.62.76v.41l-.9-.62Zm-.14,7.66v.41l1.17-.41-.35.48-.07.41-.62.14-.35-.55-.55-.35.28-.14Zm-.41-1-.76-.48.41-.55.48.41Zm-1.45-4.35.48-.14.62.14-1,.83-.35-.28Zm-1.73,1.24L103,87l.55.21.21.41-.41.62-.62-.28Zm.9,1.31.28.28-.35.48h-.69l.28.55-.28.35.62.41-.21,1.17-1.1.14-.35-.07-.21-.48h-.55l.07-.48.48-.14-.14-.28.21-.48-.28-.28-.07-.48.62-.14.14.62.55-.35Zm-2,4.07-.35-.14-.07-.48.14.28.14-.28Zm-.76-2.48.07-.41.28.35v.28Zm.76-4.35.41-.07.07.55h-.62Zm-.55,2.07.14-.41.9.21-.14.48-.35.28-.55.07Zm-.48.69h.35l-.14.55-.28-.07ZM99,90.24l.55-.35-.14,1-.48.21-.28-.28ZM97.77,92.1l.69.69.21.41.76-.14.55.28.48-.41-.55-.21-.28-.41v-.62l.21-.62.62.35-.07,1,.21.35.48.14-.14,1.79.55-.35.34.21L102,95l.62.28,1.31-.55-.35-.41-.21-.55h-.48l-.35.62-.83-.41.21-.48-.21-.28.28-.41.55-.21v.62l.48.35.48-.48.14-.55.28-.07.07-.55.48-.76-.07-.62.76-.21-.07,1.24.21.41-.76,1-.62.28.48,1.31-.48.76-.55.14.28.76-.9.48-.9-.76.41-.41-.55-.62-.35.28h-.48l-.41-.28.14-.76-.55.14-.76.48-.35-1.1-.83-.69-.48-.21Zm-.21,1.66.48-.14.9.9L98.6,95l-.55.28-.28-.14v-.55l-.21-.35Zm.07,1.86.41.21.14.41-.62.14Zm-.21,1.31.35.14-.14.48-.48-.28Zm-.76,1.38.62.41-.55.48-.35-.48ZM94.6,115.08l-.48.07v-.69l.62.14Zm.76,1.59h-.28v-.41h.41Zm.76,2.76v-.21l.14-.14Zm.55-3.52.07-.28L97,116Zm-.14-5.11-.28-.14.28-.48.48.14Zm1-4.83H97l-.14-.48V105l.28-.34.62.76Zm.41,11.59.41.48h-.41ZM98,120l.35-.21.48.14.21.41Zm1.1-.9-.35.14v-.62l.48.07Zm.14-16.29v-.41l.28.21Zm.14-3.73h.62v.62l-.41-.21Zm.55,2.07h.21v.21H100Zm.14,4.21.21-.28.35.21-.07.55h-.55Zm27.32,5.87-.35.07.35-.35Zm.83-1.1-.34.35h-.48l.69-.83h.35Zm.83,1.1h-.21v-.28h.21Zm.9-.69-.21-.21.35-.14Zm4.14,0-.07-.62.41.21.14.41Zm-.55-3.38.48-.28v.35Zm1.38,2-.07-.55-.41.07.07-.55.69-.21.21,1Zm0-2.9.28-.28.48.14.28.34-.34.35-.48-.14Zm1,1.38-.34-.14v-.28l.07-.07.41.07Zm.55.48.21-.41.35-.35h.41l.14.55Zm1-2.07-.55.28.07-.55.69-.28Zm1,.28-.48-.21-.14-.55.62.21.41.35Zm1.38,1.93-.41-.28-.21-.48h.9l.07.41Zm.28-5-.28-.48h.41Zm-.48-1.1v-.48l.41-.48.69-.07-.28.41Zm0-2.69h.34l.14.48-.41-.07Zm1.38,5.18-.14-.48.28.14Zm.14-1v-.55l.34.28Zm.07-1.45h-.69l.28-.55.69.07Zm1-1.38-.48-.35-.55-.14.14-.48.35-.28-.69-.14-.41-.41.41-.28h.48l.07.41H142l.14-.62.48.28Zm1.73,3.59-.41-.21.07-.41.35.14Zm1.17-2.21-.14-.62.41.55Zm-.34-5,.48.07-.07.48-.41.07Zm-1-3.24H144v.28h-.21Zm.48,1.45-.41-.07L143.8,95Zm-.48,3.52h.62l-.21.41-.41.14Zm.34,1.1.55.07-.14.62-.62.76-.55-.14v-.69l-.21-.62.21-.41Zm-.9-2.35-.62.9-.48-.21-.9-.35.14-.55.69-.9.41.07-.28.41-.48.21.55.28.35-.41.76-.07Zm-.07-3.45v.48l-.41-.21Zm-1,.07.48.07-.48.28-.41-.28ZM141.45,96l-.35.21.14-.55Zm-.62-1.45v-.28l.41.28Zm.14-2.21.14.41-.55-.07-.35-.21-.14-.48Zm-.62,3.59.28.55v.62l-.41-.41-.14-.62Zm.07,1.86.28.21-.28.48-.48.28-.48-.21-.41-.41-.48.07v-.34l.28-.41.76.76.34-.48Zm-.69-4.55-.35.07-.07-.41Zm-.41,1.93.14.62-.48-.14-.28-.35-.41-.14.14-.62.34.21.07.55Zm-1-3.31-.07.48-.28-.48Zm-.07,1,.48.28.14.62-.62-.28-.28-.48Zm-1.31-1.93.28.14-.14.28-.28-.14Zm.21,1.86.55-.07.14.76-.41-.28-1.52.69.28-.48v-.48l-.28-.48.48-.21Zm-1.86,2.62.28-.69.62-.21h.62l-.14.35H136Zm.48,1.52-.48-.14.28-.41Zm.28-6,.21.55-.55.35-.07-.55Zm-1.52,1.93.41.14-.41.62-.14-.35Zm-.07,1.24.35.28.34-.76.55.14-.21.62-.69.9-1,.28.62-.83-.28-.35-.69-.76.07-.55.62.14Zm-3,1,1-.48-.35.21-.28.55.14.62h.48l.55.28.28-.34.48-.07-.14.62-.55-.07-1,.48-.28-.41-.14-.62-.48.76-.41-.21-.21-.41.41-.14.35.28.21-.48Zm1.79-2.42.21-.35.41.07-.21.41Zm.55-2,.21.35-.55-.28Zm-1.86-1.17.14.35h-.62Zm-.76,1.86.41.35.07.69.55.07.35-.28.14-1.17h.62l.14.9-.55.21-.62.76-.21,1.59-.76-.14.21-.35.07-1-.55-.14-.07-.48Zm-.28,2.69h.28v.28h-.28Zm-.35-.35.21.35h-.41l-.21-.48Zm0,4.69-.07-.62.55-.28-.14.9,1-.55,1.1-.35.14-.76,1.24-.14-.9.62,2.28.21,1-.07-.41-.83-.07-.55.9.76,1.24-.48.41.21-.21.55-1,.48.34,1.17.41.41.55.21-.07.41.28.21-.41.28-.21.41.14,1-.9.9.28.83v.55l-.69-.21-.28.48-1.38.9-2.28.48-.35.35v.55l-.69-.34-.41.28-1.59.35L130,107l-.41-.14-1.79.07-1.1.21-.07-.55.14-.55.35-.35-.21-.62.21-1.1,1-1.79.21-.9.41-.14.9-1.17.48-.28-.21-.83.76-.14-.34-.14-.41.14.14-.28Zm-1.24-.07.48.21-.28.35H129l-.14-.48-.55-.28.41-.48,1.17-.48.07.62h-.55L129,98Zm-.07,1.31-.34.14v-.21Zm-.76-1.24v.48l-1.1.14-.41-.41-.48-1.1.34-.35.35,1,.28.41.55-.41Zm-.14,2.28h-1l-.28-.55-.14-.69h.41l.76.69Zm-2.14-4.21.41-.14.35.55Zm.28,4.35.21.28-.41.35-.48.14.34-.34Zm2.62-8.7.69.07.21.62-.69-.21-.69-.41Zm-2.14,1-.14.35-.21-.21Zm-.9,1.52h-.28l-.07-.07Zm-.28.14.55.28.35.41h1.17v-.69l.14-.62.28-.35.55.83.55.14-.48-.35.41-.35.48.48-.21.48.35,1-.55-.28-.9,1.24v.41l-.9.48.14-.62,1-2-1,.21-.14.9-.41-.35-1-.41-.48-.35Zm.28,2.21-.07.41-.41.07-.14-.48Zm0,1.79-.35-.21-.14-.48h.34Zm-1,1.73.21-.62h.48l-.14.62-.35.41h-.48Zm-.28,5.52.35.48h-.35Zm-.69,2.14.41.62-.48.14-.14-.62Zm-.48-2.55v-.35l.41.35Zm.62-5.87h-.21v-.21h.21Zm-.35-2.62-.55-.41.69-.14Zm-2.68,9.38h.06l.21-.35.55.07.55-.69.41-.28-.76,1.45-.41.41-.62-.48-.08.07Zm1.37.63.48.21.07.55-.55-.21Zm.41-3.52v-.55l.48.41Zm.14,2.55.41.35-.41.28ZM123,95.41l.48.14L123,96ZM123,98l.48.14-.07.41-.28.28-.28-.35Zm-.14,2.42.48.07-.41.28-.07.48-.34-.35Zm0,1.79.41.14-.14.62-.41-.21-.28-.41Zm-1,2.07.55-.28.41.14.14.41-.76.48-.41-.14-.48-.62Zm-2.48,6.35v-.07l.1-.15.17.22Zm.76,2.07-.14-.41-.14-.48.14-.41h.41l.14,1Zm.48-4.44.15-.18v-.62l0-.08.1.08.55.14-.14,1.38-.76-.14Zm.07,2.65.28-.41.69-.9.28.41v1l-.62.14Zm.35,2.28.07-.55.35-.41.48-.14.14.41v.55l-.55.21Zm.9,2.07v-.41l.28.21Zm1.17,2.62-.41-.35-.14-.62h.55Zm.14-2.9-.14-.41h.21Zm0-2.69.48-1.24-.76.14-.76-.76.21-.55.41-.35-.48-.55-.28.41h-.41l.28-.48,1.17-.41.35.48.9.69.41.48-.69.9.07.62-.48.69Zm1.93-.9.21.41-.76.28.14-.83Zm-1.45,3.93.21-.41.07-.55h.34l.14.9Zm1.24-1.59-.14-.35-.21-1.1h.41Zm.28,3.24.48.14-.07.76-.48-.21Zm.48,1.93h-.21v-.35h.34Zm-.21-11.46-.55.14v-.48l.48-.14.41.14Zm.34-2.28.21-.41h.35Zm1.1,7.18-.41-.21.28-.21.35.14Zm1.1,8.83-.48-.14.07-.48h.41Zm30.43-32.09-.14-.76.48.14.14.35Zm2.07,2.62-.55.07-.34-.41.62-.14h.55Zm.62-1.79.34-.28.41.07-.28.48-.62.28Zm.28,2.83.14-.48.21.62Zm.21-.76v-.76l.55.28Zm.55,1.38v-.21l.35.14Zm.28,4,.07-.69.55.28Zm.62-2.83-.55-.14.55-.48Zm-.28-4.21-.34.28-.07-.55.28-.62h.41Zm.48,2.28-.07-.62h.35Zm7.45,11.11.35-.35.62-.14-.41,1.45.28.41-.07.48-.41.21.07-.76-.41-.41.28-.48Zm-.14,13-.55-.14h-1.38l.21-.35.41-.14-.14-.9.48-.21.28-.28-.55-.28-.21-.62.48.07.28.28.28-.48.48.21.28.41-.28.48-.76.83Zm.48-9.18-.9.35-.48,1-.48-.34-.21-.48-.21-1.1-.28-.48.28-.14.9,1.38.14-.48.34-.41.55-.14-.07.55Zm-1.1,2.69.48.28-.48.21h-.62l-.62-.28-.34-.48Zm-.14,1.17-.28.21-.28-.35Zm-.76,1.24-.14.28-.41-.28.14-.48Zm-.41,1.45-.14.48-.76.48-.28-.21.14-.48.76-.55Zm1.66-5.66.41-.21.83.76-.48.07Zm-.41-2.83.41-.48.62.55-.35.35-.48.14-.55-.14Zm-.48-1.86-.14.41-.48.07-.14-.62Zm-1.17-3.59.28.41-.28-.14Zm0,9.8-.41.21-.41-.07.21-.48.28-.41Zm-.76-5.18.21.35h-.41Zm-2.28,7.52.28.48H165Zm.48,1.66-.07-.55h1.66l-.48-.28-.07-.41.14-1h.41l.48-.9.83.48.07.55-.62.07-.55.83.55.28-.21.41-.41.21-.55-.14-.69.76-.55.14.35.28-.41.14-.48-.14Zm.07,2.76h-.41l.14-.48h.28Zm1.86,3.11-.9.21-.35-.48-.55-1.17.83.35.48.07-.28.48.9.14Zm.9-2.28-.55.14-.35.55-.41-.14-.21-.48.41-.21,1-.28.41.21.28.41Zm3.11,1.24.48.35v1l-1-.14-.28.55-1.24-.41.35.48.14.69-.9-.21-.48.07.14-.55.48-.21-.21-.41v-.48l.55.07.69.35.48.07.34-.28.07-.41-.14-.55-.48-.41-1.17.55-.21-.48.21-.55.62.14.28-.34.07-.48.41-.21-.07,1h1l.34.35-.55-.14Zm2.14,3.8h-.28l.14-.35H174ZM186.3,112l-.29,0,.12-.11Zm.14,1.38-.55-1.17h.41l.28.9.35.28Zm1.38-.48-.41-.14-.14-.41.69-.14Zm.14-2.69-.35-.14-.21-.41.69.14Zm.62,3.31-.41-.41.69-.14Zm.21-13-.28-.48h.83Zm4.07-.9-.41-.07.14-.69.28.28ZM194.1,98l-.48.07-.14-.41.28-.35.48.14Zm.14-1.52-.62.28v-.55l-.14-.41-.69-.07.28-.41.9-.34-.07.62.55.28Zm1.24-2.35-.35.41-.28-.62Zm-.9-1.79.34.35-.14.35-.41-.14Zm-1,.69-.28.28-.41.07.14-.48Zm-.9-.76.14-.41.21.62Zm-.14-1.17.34.28-.34.07Zm.48,3,.48-.35h.69l-.69.62-1,.35-.28-.48Zm-.76.9-.14.55-.35-.28Zm-.76-2.76.14.35h-.48Zm-.76,1,.41.21.21.48-.21.21-.55-.35Zm.07,3.93H192l.62.28V98H192l-.07-.62-.48.28v.55l-.21.48-.28-.41-.62-.83-.07-.55Zm-.69,3.59.21-.14.41,1h-.41v-.48Zm.14-4.55.07.48-.28.07-.48-.21Zm-.76,3.45.55.21-.69.41Zm0,2.28.76.48-.48.14Zm.55,13.32h.48l-.07.48Zm.48,5.45.14-.35.41.48Zm.28-14.15h-.62l.14-.62.55-.76.62.83Zm.83-4.14-.28-.48.48-.28.41-.48.55.48-.48.35-.07.28Zm13,16.91v-.21l.41.21Zm4.21-.21.14-.28.14.35Zm1.52-21.67v-.55h.41Zm.9-1.66-.28-.28.07-.48.21.28Zm5.11-3.59.28.35-.14.41-.21-.34Zm.14,4.83-.14.41-.35-.28.07-.35Zm-.41-1.24v.48l-.35-.48Zm-2.55-3.59-.07.55-.21-.35Zm0,2.28.55-.28.35.41h-.69l-.55.28Zm-1.38,11.39H212v-.28h.28Zm-.14-3.31.14-.55.35.41Zm.28.9v-.28h.48Zm.62-5.66h.76l-.35.76-.34-.21Zm.76,5.52-.35-.28.35-.28Zm-.21-2.07.14-.41.21-.35.21.48Zm.76-1.52h-.62l-.28-.48,1.24.14Zm0-1.52V97.9h.21v.28Zm.83-1.38-.41.35-.62.14-1.17-.21-.41-.28.14-.69.35.28.14.48.55-.14.35-.35.41.28.83-.41Zm-.07-1.31.21-.35.21.35Zm.83,2.9-.21.07-.14-.48.14-.41.48.35Zm.69.14-.28-.48.48.07.28.35Zm2.14-8.76.21.35-.21.28Zm-.34,3.8-.35.35-.21-.35Zm-.9-1.66h.28v.41h-.41Zm.55,3.59-.28-.35.41.07.34.55Zm.48-3.17-.14-.41.48.28Zm.35,2.69.28-.41.35.14.14.41Zm.34-.83-.34-.35.62-.21.55-.28-.14.76Zm.83,2.21.14-.35.21.35Zm.62-3.17-.14-.41.35.21.21.34Zm1.1,2.28-.62.28.07-.48.07-.41h.55ZM224,92.17v.41l-.41-.28Zm0,3.17-.69-.14-.07-.62,1,.28Zm1.79,17h-.28V112h.28Zm.62-1.52-.35-.14.07-.62.55-.14Zm5.11-5,.28-.28h1v.9l-.76.14L232,106Zm-.41,3.8-.48.14-.21-.55-.55-.35.48-.28-.21-.21.41-.14.21-.41h.35l.14.62h-.76Zm-2.9-5.73.48-.76-.62-.28.21-.41.55-.07.21,1,.55,1h-.62Zm.28,7.52H228v-.28Zm.07-12.22.55-.14.14.48v1.59l.21.35-.34.35-.55-.07.28-1-.35-.35.28-.35v-.48Zm1,8.76-.14-.35.34-.48.55-.21Zm1.52-2.76-1,.55-.55-.07.21-.41.07-.41-.14-.48.55.28h1.24Zm1.17-6.69.9-.55.62-.21v.9l-.62-.14-.35.48-1,.69-.55-.07-.35-.41H232l-.21-.48-1-.14-.21-.41-.48.14-.41-.21-.14-.41.48-.07,1-.14.41.21-.28.48Zm-.41-4.14V94.1h.28v.28Zm.14,2.14h.41l1,.48-.69.9-.48-.21Zm-1.31,4.28-.55.21-.28-.69,1.24.14Zm.21,1.31-.55.28.28-.55Zm.62-.14.48.9-.62.62-.28-1.24Zm-1.31-3,.28.48-.41.14-.41-.35-.07-.55Zm2.28,4.69-.21-.48h.41l.07-.48h.41l.07.41.41.21-.76.62Zm1.86,2.69h-.28V106l.34.07Zm.07-4.42-.48.35-.28-.76h-.55l-.28.35-.41.14v-.48l.28-.55.07-.48.48.14.41.07.28-.34.34.41.21.62Zm2.21-4.21h.35V98h-.35Zm-.28,1.52.28.35h-.28Zm-.35,3,.07-.14.41.14v.28l-.14.14-.35-.14Zm-.83-2.28v-.41l.69.41Zm-.07-1.31-.55-.21.41-.28.48-.14ZM234.26,96l.69.07-.41.62.35.21-.07.55-.62-.55h-.55l.21-.48Zm-1.52-1.38.14-.48.62.21.28.41-.48.48-.41-.21-.9.14.28-.48Zm-1-1.66.35.28h-.35Zm-1-1,.35-.07v.76h-.35Zm-1.31,2.35.55.21.41.41h.35l.14.76,1-.28-.35.9.28.21-.41.28-.76.14.07-.48-.14-.55-.35-.48-.76.07-.55-.28-.21-.41.14-.35Zm-.48-1.52-.21.48.21.62-.28.14-.21-.48-.14-.76Zm-3-1.31v.41l-.55-.28Zm.35,5.31-.14.41-.41-.28-.14-.41.21-.41.34.21h.55Zm.62-3.17.69.9-.41.28h-.35l.14-.55Zm.62,4-.07-.76.76.35v-.62l-1-.62-.21-.55.55-.07.35-.28.35.41-.07.69.28.55.41.07.35.41-1,1L227.7,98Zm.28,14.84.14-.62.41.14v.69l-.76.21Zm.14,2.07-.48.28v-.35l.48-.28Zm.14,3.93v-.35l.48.28Zm.41-2.42v-.35l.21.35Zm-.14-1.38.35-.21.28.35Zm.62-7.87-.41-.41v-.48h.55l.28.62Zm1.66,14.35-.28-.35.55.07Zm0-3,.14-.48.14.62Zm-.07-3.38-.14-.55.07-.48.35.14.35.48.07.69Zm1.31,2.14-.07-.48.35.14Zm0-.9.14-.62.28.34Zm-.07-3.93-.48-.41-.41-.14-1.31.69-.14-.48.48-.34,1-.55.41-.41.41.28-.41.48.28.28.35-.62.34.35Zm.76-3.93L232,108l-.48-.76.48.48.76-.35Zm.21,12.08v-.62l.48.35Zm.14-9,.62-.14-.28.62Zm1.52,8.42h-.21v-.28h.21Zm25.25,10.63h.41l-.41.48ZM256,142.27V142l.35.28Zm3.66-6.63-.28,1.17-1.17,1.73-.21.55-2.76,2.28-1.1.14-.35.28-1.66-.07-1.38-.55-.9-.9-.28-.55v-1.17l.41-1,.76-.83,1.86-1.31,1.86-1.1,1.1-.14.9-.62.62.21.34-.28.62-.21,1.73-.14.28.48.35,1.79Zm1.45,5.38.07-.41.14.41Zm13.46-24.71h-.34l-.14.48-.55-.14.21-.55.41-.35.55-.14Zm-2.21-.48,1-1.31.76.14v.21l-.69.83-.62.21-.21.35-.41.14Zm-.55-.83-.14-.48.34-.14.14.62Zm.48-3.31v-1.1l-.41-.28.41-.41.55-.14.48.28-.41.76.28.28.34-.35-.07-.55.76.14-.28.55-.76.69v1.1l-.14.55-.48-.14.07-1.1Zm-.76-3.38.48-.07-.14-.9.69-.07.48.9v.48l-.35-.55-.55.14.14.55.41.14-.55.48-.35-.35-.14-.41-.69-.14-.34-.48Zm-1-5.8v-.21h.28v.21Zm.76-2.42.14-.48.41.48Zm3.86-1.66v.41h-.55Zm-.55-1.38h.55v.76l-.48-.21Zm.07,3.52.48.07-.14.48h-.62Zm-.55,4-.14-.55.76-.07-.14.48Zm.35,1.86-.62-.34h.48Zm-.62-7,.14-.48.28.48Zm.41,5.59-.41.35-.48-.35-.62-.14-.28-.21.14-.35.21-.35.62.21.35.48Zm-.69,1.17-.07.41-.41.48v-.55Zm1,6.63h-.69l-.14-.41.62-.14.55.28Zm2.14.34h-.28l.14-.34h.28Zm.14-5.94-.28.41-.48-.07.34-.41.41-.35.62.28-.28.28Zm-.41-5.8V102h-.48l-.14-.28Zm-.62-3.66v-.41l.28.21Zm1.52,6.42.14.48h-.69l-.48-.14.14-.62Zm.41,4.42h-.41v-.41h.41Zm-.55-11.32v-.41l.28.21Zm-.21-2.76.21.28-.48-.07Zm-.41,5.52h-.28v-.35h.41Zm-.28-2.9-.62-.28.28-.48.28.28ZM276,95.28l.07.48-.28-.28-.35-.21Zm-.55,7.11.28.41-.28-.14Zm.14,6.56.41.35-.14.69-.28.48-.55-.14-1.17-.83-.21-.48.48.21.55-.21.76.69Zm-.62-1.66v-.41h.34l-.14.41Zm.34-5-.14.35-.62-.48Zm-.21-6.63-.35.48h-.69l-.14-.62Zm-1,1.79.21.48-.55-.07-.48-.41v-.55Zm-1-1.79.28.07-.14.28L273,95.9Zm.34,2.48.14.55-.41-.14-.21-.41Zm-.34,1.79.14.55.48.21-.28.55h-.62l.21-.48-.28-.48Zm-.41,2.9-.28,1L272,104l-.07-.48.41-.9.35-.28Zm-1.17-5.11.34-.28.21-.41h.55l-.35.48-.48.35-.21.55L271.1,98ZM270.2,100l.69.14-.28.41-.48-.14Zm-.07,7.32h.21v.21h-.21Zm-.28,3h.62l.07.69.28.41.07.9,1.1-.21.28,1,.41.28.48.07v.76l-.62-.21-.55.21-.28-.83-.41-.28-.69-.14-.07-.62-.83-1.45.48.14v-.48Zm.48,3.45.9,2,.76.62-.14.55h.62l.35.21.21.41-.62.14-.41-.55-.14.28-1-.76-.28-.48v-.76l-.76-.69-.28.9H269l-.62-1.38.9.28-.07-.55-.07-.62.55.28Zm-1.86-1.66.48.07.28.28V113l-.62-.28Zm-2.69-17.6-.28.48-.35-.35Zm-3.24-1.24,1.17-.28.48.14.21.48-.62-.14-1.59.14ZM264,94.52v.28h-.28v-.28Zm-2.48-.21.55.21.14.62.41.41-.28.35-.41.07-.48-.21.14-.69-.14-.55-.48-.14Zm-1,1.45.28.41-.28-.14Zm-1.66-1.17.62-.83.76-.62.14.41-.14.48-.83.07v1l-.41.21-.28-.14Zm1.17,3.11h-.41v-.34Zm-1.31-1.52h.69l-.28.28-.41.07ZM258.13,93l-.35.34-.28-.34Zm-.48,1.73.35-.21-.21,1-.28-.35Zm.35,1-.07.48-.28.35-.21-.48Zm-1.73-1.93.62-.14-.07.62-.48.28-.21-.14Zm-.41,1.38.48.14-.07.41-.41.07Zm-.55,1.17.48.14.07.48.35-.35.28-.41.48.35.14.48-.14.55-.34.48-.41.28.62,1-.07.55-.41-.35-.21-.48-.28-.28.21-.35.07-.55-.9-.9Zm-.83,6.21-.14-.48.35-.28.28.62Zm.35.62-.28.14v-.35Zm0-7.87.28.41-.41.07-.35-.35Zm.41,3-.14.62-.62-.14.21-.55.41-.34Zm-.55,1.24.14.48-.48.41-.07-.55Zm-1.31-2.35.55-.07-.21.55-.55-.07Zm-.55,6.14-.69.28-.21-.48v-.76l.76.48Zm.35,3-.28.35-.48.14.21-.55Zm-.9,6,.14.48-.41-.14-.35-.28-.14-.48Zm-.76-1.45.48.41-.35.07Zm.48-13h.41l-.14.34H252Zm-.9,3h.55l.28.34h-1.17Zm-.62,6.35.28-.14v.48l-.28-.14Zm-.76,1.86.41.28.21.41-.48-.14-.41-.21-.21-.41Zm.07-6.69.21.48-.41-.07-.21-.35Zm-2.35,12.42V114l.62.14-.21.48Zm.76,1.86-.14-.55.35.28.21.48Zm.76-1.31h.28v.21h-.28Zm.55,2.14h-.28v-.28h.28Zm-.28-6.21.55.28.07.48-.35-.35Zm.83,7.59-.21-.35.41-.14.21.41Zm.35-1.59-.14-.55.48.48Zm.48-1.17-.48-.35-.28-.55.55.14.35.35Zm.14-5.59h-.41l-.07-.55.07-.35.41.41Zm.62,10h-.28v-.21h.28Zm.76,1-.28-.48h.55l.14.48Zm-.28-3.11-1,.21-.07-.55.14-.48.55.07,1.1.21Zm.76-.69-.07-.48.07-.41.9.28.41-.28.34.48-.41.41Zm1.79.21.28-.35.21.48-.62.28Zm.28,3.24-.34-.21-.14-1,.41-.07.41.07Zm0-1.79v-.28l.35.28Zm1,2.14-.28-.76.55.21.35.41Zm.55-3.24.07-.41.62.14-.69,1.24-.41.28-.28-.28.28-.35.48-.14Zm.9,2.21-.41.14-.41-.14v-.35L257,120h.55Zm.34,1-.07-.21.14-.41.21.28Zm-.21-2.28.07-.48.41.21.07.55Zm1,3.73-.35-.14.35-.35Zm.28-4.9.48.07.35.48.21.62-.55-.28Zm1.31,4.07h-.41l.21-.69-.07-1,.48.21.76.62.14.48Zm.35-2.42.62-.07-.48.48Zm.07-3-1.17.35-3.59-1.59-.14-.62L255,114v-1.24l-.41-.41.14-.41v-3.24l.62-1.31-.21-.48.21-.48.69-1,.14-.48-.14-.48.9-1.66.76-.28.21-.55.69-1,.21-.55.69-.14,2.21-1.45,1.1-.41,1-.21H265l.55.14.41-.35.35.14-.14.48.34.28,1,.35.14.48,1,1.24.21.48.21,1.52.35.48-.21.48-.07,1.1-.28.48.14,1.1-.28.48-.48,1.73-.48,1-.41.41.41.76-.69.14-.07.55-.21.41-1.52,1.38-.83,1.45-.62.07-.83.55.14.69-.35-.41Zm7.11-2.48-.69.14.14-.76,1,.28Zm.21.76-.35-.28.21-.21Zm-1.79,1.17-.62.14-.14-.48v-1h.41l.07.48.21.34Zm-3.38.76v.48l-.41-.21Zm-.69,4.21-.14-.9.28-.14.76.62-.35.35Zm1.31,1.38-.55-.28.76-.76-.48-.76.41-.21.21-.41-.28-.21-.48-.07-.07-.69.21-.55.41.28.69.76.28.48-.21.55v1Zm0,5.38.48-.14.62-.69.21.55-.07.41-.28.35-.48.14-.41-.14-.35.28Zm.9,1.59.14-.48.28.14.07.48Zm.83,2.55.41.21.28.41v.55l-1.31-.35.21-.62Zm-.69.14-.48.21-.21-.41h.55Zm-2.07.14.48.14-.07.48-.35-.14Zm.48,4.35-.35-.14.28-.62.41.28.21.48Zm.28-7,.48-.07.28.55v.55l-.48-.41Zm.41,3.73.21-.41.55-.07-.34.48Zm.76,1-.28-.28.41-.28.48.35.14.34-.62.35Zm.21,2.28.28-.41h.35l.28.41Zm.76-2.28h.55l.14.76Zm1.66-2.07-.62-.28.21-.34.41-.14.14.41Zm.69-2v-.41l.35.41Zm.62-.76-.76-.14.21-.48.28-.41v-.62l.28.07.07.48-.14.48Zm1.17-5-.55-.41-.55.07-.34-.21-.35.41.14.69.34.41h.48l.14.55.76-.41.28.76.48-.14.69-.48-.14-1,.62-.21.28.21-.41.76v.55l-.35.14-.14.35h.62l-.07.55.21.48-.62.28h-.55l-.35.83-.9-.07.35-.41v-.62l.48.21.41-.07-.48-1.17-1.17.41h-.48l.35-.69-.76-.9-.41.21-.21.35v1l-.48.14-.62-.07.35.9.76.28-.14,1-.48,1-.83.62-.55.21.28-.48.48.07-.14-1.38.62-.14-.14-.41-1.1.14v-.76h.76l-.14-.41.14-.48H265v-1l.48.21.62-1,.41.21.35-.07-.28-.35-.83-.41-.41.41-.62.21-.28-.21.21-1.1-.55-.21.14-1.17.28-.41.48-.21-.14,1,.55.35-.07.55,1.31-.62v-1.1l-.28-.28v.9l-.35.21-.28-.35.34-.28-.62-.76.14-.76.41.14.76-.14.34-.55.55-.35-.83-.76-.14.28.07.48-1,.35-.69.62-.55.21.14-.55-.14-.48.9-.28-.28-.41-1-.35.35-.62-.48-.9-.41-.28.28-.48.41.14v.76l.48-.14,1.24-.76.14.76.48.28.35.48.48.28v-.48l-.76-.69-.28-.41.35-.55.48-.21.55.14-.07.55-.28.35.21.41.41.21-.07.41.41.28.55.07v.62l.28,1-.69-.14-.14-.55-.28-.41-.48-.21v.9l.55.21.62.83,1.24-.76h.55l-.28.48.14.55.41.35.07-.55.55-.83-.55.35-.21-.35v-1l-.62.14-.41.28-.62-.41.62-.48-.76-.14-.69-1.17.14-.48-.35-.48v-.55h1.38l.07.48-.21.41h.62l.28-.48.76,1.66.48-.21.41.14.28.41-.14.48.07,1,.35,1-.55.21-.62.83.48.76-.69.83-.14.55Zm.62.62-.55.14-.35-.55Zm2.28-1,.14-.62.35.48Zm.9,1.38-.35-.28-.07-.62,1.17.28Zm.55-2.69.07.69-.41-.28-.62-.14.41-.9-.41-.21h-.55l-.35-.41h.41l.48.14v-.41l.69.69.48.21Zm-.55-2.14v-.35h.34l-.07.35Zm.76-2h-.55l-.48.21.07-.41.21-.34.62.21.62-.07Zm2.28,4.07-.21-.28.21-.28Z"/><polygon class="6ae1f6ca-6f2a-4a40-bef8-1cc01b35b03e" points="269.24 121.78 268.82 121.78 268.69 122.4 269.38 122.54 269.24 121.78"/><polygon class="6ae1f6ca-6f2a-4a40-bef8-1cc01b35b03e" points="269.86 118.47 270.34 118.33 269.86 118.05 269.86 118.47"/><polygon class="6ae1f6ca-6f2a-4a40-bef8-1cc01b35b03e" points="268.34 123.71 268.69 123.92 268.82 123.3 268.2 123.3 268.34 123.71"/><polygon class="6ae1f6ca-6f2a-4a40-bef8-1cc01b35b03e" points="267.65 121.43 267.17 121.5 267.31 122.05 267.58 122.4 268.06 122.12 268.2 121.5 267.65 121.43"/><polygon class="6ae1f6ca-6f2a-4a40-bef8-1cc01b35b03e" points="266.06 118.05 265.51 118.4 265.37 118.81 266.13 118.6 266.06 118.05"/><polygon class="6ae1f6ca-6f2a-4a40-bef8-1cc01b35b03e" points="269.24 122.81 269.1 123.43 269.65 123.71 270.14 123.57 269.79 123.09 269.24 122.81"/><polygon class="6ae1f6ca-6f2a-4a40-bef8-1cc01b35b03e" points="265.79 119.5 266.27 119.78 266.69 119.36 266.13 119.22 265.79 119.5"/><polygon class="6ae1f6ca-6f2a-4a40-bef8-1cc01b35b03e" points="270 122.12 270.2 122.54 270.14 121.78 270 122.12"/><polygon class="6ae1f6ca-6f2a-4a40-bef8-1cc01b35b03e" points="266.27 124.61 266.55 124.4 266.27 124.19 266.27 124.61"/></g></g></svg>