<svg xmlns="http://www.w3.org/2000/svg" width="262.79" height="115.66" viewBox="0 0 262.79 115.66"><defs><style>.\32 1ae5951-1183-4d39-9284-cc4634cb8033{fill:#1c264a;}</style></defs><title>アセット 1</title><g id="e91298b0-e994-4c46-b0f5-619c8fb4444a" data-name="レイヤー 2"><g id="878be8b5-5f24-4734-a5a0-7d3e70f0b82e" data-name="レイヤー 1"><path class="21ae5951-1183-4d39-9284-cc4634cb8033" d="M68.23,93.82a14.08,14.08,0,0,1,2.9,2.5L72.33,95a15.47,15.47,0,0,0-3-2.4Z"/><path class="21ae5951-1183-4d39-9284-cc4634cb8033" d="M66.35,95.91a14,14,0,0,1,2.9,2.47l1.2-1.3a15.47,15.47,0,0,0-3-2.4Z"/><path class="21ae5951-1183-4d39-9284-cc4634cb8033" d="M66.28,98.86l-.17-2.57a45.78,45.78,0,0,1-5.5.29c-1.92,0-2.38,0-6.1-.17l-.1,2.47c2.93.12,4.27.17,5.93.17C62.61,99.05,63.93,99,66.28,98.86Z"/><path class="21ae5951-1183-4d39-9284-cc4634cb8033" d="M61.87,111.46a14.87,14.87,0,0,1-5.71-.82A2,2,0,0,1,55,108.8a2.77,2.77,0,0,1,.7-1.87l-1.92-1.22a5.06,5.06,0,0,0-1.39,3.48,4.12,4.12,0,0,0,1.7,3.41c1.54,1,4,1.49,7.85,1.49a40.35,40.35,0,0,0,6.6-.46c0-.41,0-.58,0-.86,0-.6,0-1.27.07-2.06A26.66,26.66,0,0,1,61.87,111.46Z"/><path class="21ae5951-1183-4d39-9284-cc4634cb8033" d="M78.79,104.43a51.5,51.5,0,0,1-4.08,9.36l1.7,1.42c.19.17.26.22.36.22s.19-.14.19-.34v-.17l.31-.67c.53-1.15.7-1.34,1-2,.84-1.92,1.58-3.84,2.5-6.48Z"/><path class="21ae5951-1183-4d39-9284-cc4634cb8033" d="M77.51,103.83l1.9-1.51a20.52,20.52,0,0,0-3-3.12l-1.61,1.46A19.87,19.87,0,0,1,77.51,103.83Z"/><path class="21ae5951-1183-4d39-9284-cc4634cb8033" d="M90.09,113v-5.88h3.24c.79,0,2.14,0,2.88,0v-2.33c-.72,0-1.94.07-2.88.07H90.09v-4.87h3.77c.79,0,2.14,0,2.88.07V97.83c-.72,0-2,0-2.88,0H88.67l1.75-1.2a15.16,15.16,0,0,0-3.24-3.48l-1.66,1.34a17.58,17.58,0,0,1,2.71,3.34H84.31c-.91,0-2.16,0-2.86,0v2.33c.72,0,2.06-.07,2.86-.07h3.43V105H85.22c-.94,0-2.16,0-2.88-.07v2.33c.74,0,2.09,0,2.88,0h2.52V113H83.27c-1.08,0-2.45,0-3.36-.07v2.33c1,0,2.33-.07,3.36-.07H93.71c.91,0,2.45,0,3.34.07V113c-.82,0-2.38.07-3.34.07Z"/><path class="21ae5951-1183-4d39-9284-cc4634cb8033" d="M79.17,98.31l1.94-1.46a19.34,19.34,0,0,0-2.88-3l-1.68,1.37A17,17,0,0,1,79.17,98.31Z"/><path class="21ae5951-1183-4d39-9284-cc4634cb8033" d="M113,108.63a16.12,16.12,0,0,0,1.7-2.59,21.87,21.87,0,0,0,2.21-6.48h.19c1.46,0,3.5,0,4.78.1v-2.4c-1.22.07-3.26.1-4.78.1h-4.75V94.42c.34-.19.48-.34.48-.48s-.17-.22-.46-.24l-2.47-.17c0,.38,0,1.15,0,1.54v2.28h-4.82c-1.37,0-3.55,0-4.78-.1v2.4c1.3,0,3.46-.1,4.78-.1h0a33.59,33.59,0,0,0,1.13,3.72,18.08,18.08,0,0,0,3.31,5.45,2.56,2.56,0,0,1-.29.24c-2.35,1.87-4.94,2.88-9.7,3.79a9.75,9.75,0,0,1,1,2.4,36.94,36.94,0,0,0,5.52-1.63,16.56,16.56,0,0,0,5.18-3.14c2.11,1.7,4.78,2.93,9.65,4.51a13.77,13.77,0,0,1,1.39-2.23,38,38,0,0,1-7.8-3A13.49,13.49,0,0,1,113,108.63ZM111.28,107a15.29,15.29,0,0,1-1.7-2.33,19.9,19.9,0,0,1-2.09-5.14h7.06a23.32,23.32,0,0,1-.7,2.45A15.12,15.12,0,0,1,111.28,107Z"/><circle class="21ae5951-1183-4d39-9284-cc4634cb8033" cx="131.01" cy="104.45" r="2.42"/><path class="21ae5951-1183-4d39-9284-cc4634cb8033" d="M156,98.86l-.17-2.57a45.78,45.78,0,0,1-5.5.29c-1.92,0-2.38,0-6.1-.17l-.1,2.47c2.93.12,4.27.17,5.93.17C152.37,99.05,153.69,99,156,98.86Z"/><path class="21ae5951-1183-4d39-9284-cc4634cb8033" d="M156.11,95.91a14,14,0,0,1,2.9,2.47l1.2-1.3a15.47,15.47,0,0,0-3-2.4Z"/><path class="21ae5951-1183-4d39-9284-cc4634cb8033" d="M158,93.82a14.08,14.08,0,0,1,2.9,2.5l1.2-1.32a15.47,15.47,0,0,0-3-2.4Z"/><path class="21ae5951-1183-4d39-9284-cc4634cb8033" d="M151.63,111.46a14.87,14.87,0,0,1-5.71-.82,2,2,0,0,1-1.2-1.85,2.77,2.77,0,0,1,.7-1.87l-1.92-1.22a5.06,5.06,0,0,0-1.39,3.48,4.12,4.12,0,0,0,1.7,3.41c1.54,1,4,1.49,7.85,1.49a40.35,40.35,0,0,0,6.6-.46c0-.41,0-.58,0-.86,0-.6,0-1.27.07-2.06A26.66,26.66,0,0,1,151.63,111.46Z"/><path class="21ae5951-1183-4d39-9284-cc4634cb8033" d="M185.73,94.83a13,13,0,0,1-1.42,0H176a12.61,12.61,0,0,1-1.42,0c0,.77.07,2.38.07,3.82V111c0,1.87,0,3.26-.07,4.22H177v-1.42h6.38v1.13h2.38c0-.89-.07-2.3-.07-4.2V98.65C185.66,96.32,185.66,95.64,185.73,94.83Zm-2.38,16.75H177v-3.34h6.38Zm0-5.54H177v-3.46h6.38Zm0-5.66H177V97.08h6.38Z"/><path class="21ae5951-1183-4d39-9284-cc4634cb8033" d="M170.25,98.36c0-3.22,0-3.34,0-4,.31-.19.43-.34.43-.46s-.14-.22-.36-.24l-2.52-.19c.07.6.12,2.26.14,4.92h-1.56c-.53,0-1.39,0-1.92,0v2.28c.5,0,1.27,0,1.92,0h1.2a24.53,24.53,0,0,1-3.53,8.71,11.64,11.64,0,0,1,1.39,2.35,21.85,21.85,0,0,0,2-3.94c.19-.43.31-.79.46-1.18v2.14c0,3.1,0,5.45-.12,7h2.5c-.07-1.54-.12-3.86-.12-7v-2.9a17.3,17.3,0,0,1,1.78,2l1.37-2.14a20.13,20.13,0,0,0-3.14-2.57v-2.47h1.34c.65,0,1.42,0,1.92,0V98.31c-.53,0-1.39,0-1.92,0Z"/><path class="21ae5951-1183-4d39-9284-cc4634cb8033" d="M195.81,96.48l1.44,0V94.28c-.36,0-1,0-1.44,0h-3.65c-.46,0-1.08,0-1.44,0v2.23l1.44,0Z"/><path class="21ae5951-1183-4d39-9284-cc4634cb8033" d="M200.3,101.48a9.56,9.56,0,0,0,2.23-4.75c.29-.1.36-.17.36-.31s-.07-.22-.24-.26l-2.14-.72a8.32,8.32,0,0,1-2,4.58A5.19,5.19,0,0,1,200.3,101.48Z"/><path class="21ae5951-1183-4d39-9284-cc4634cb8033" d="M200.25,105.22a8,8,0,0,1-2,4.58,5,5,0,0,1,1.78,1.46,9.56,9.56,0,0,0,2.23-4.75c.29-.1.36-.17.36-.31s-.07-.22-.24-.26Z"/><path class="21ae5951-1183-4d39-9284-cc4634cb8033" d="M201.19,102a9.77,9.77,0,0,1-3.6,1.39,9.59,9.59,0,0,1,.94,2,12.14,12.14,0,0,0,4.13-1.63,6.62,6.62,0,0,0,2.66-3.36,9.57,9.57,0,0,0,1.61,2,11.55,11.55,0,0,0,4.3,2.69,11.78,11.78,0,0,1,1.27-1.94,12,12,0,0,1-4.34-2.57,7.86,7.86,0,0,1-.77-.79c1.18-.67,1.66-1,3.74-2.4h.22c.34,0,.43-.07.43-.34,0-.1,0-.14-.12-.22l-1.75-1.49a29.5,29.5,0,0,1-3.6,2.81c-.12-.22-.22-.43-.31-.65.07-.7.14-1.61.22-2.9.46-.19.55-.26.55-.43s-.14-.26-.48-.31l-2.4-.34a20.1,20.1,0,0,1-.29,4.49A5.85,5.85,0,0,1,201.19,102Z"/><path class="21ae5951-1183-4d39-9284-cc4634cb8033" d="M197.61,107.48c-.53,0-1,0-1.73,0h-3.72c-.7,0-1.2,0-1.75,0,0,.43.07,1.37.07,2.11v3.12c0,1.18,0,2-.07,2.54h2.28v-1.8h2.66v1h2.26c0-.55-.07-1.37-.07-2.5v-2.33C197.54,108.85,197.59,107.91,197.61,107.48Zm-2.26,4.06h-2.66v-2.11h2.66Z"/><path class="21ae5951-1183-4d39-9284-cc4634cb8033" d="M208.07,110.57c-.26-.31-.5-.62-.74-1a39.55,39.55,0,0,0,3.84-2.42h.19c.34,0,.46-.07.46-.34a.27.27,0,0,0-.12-.24l-1.75-1.46a29.3,29.3,0,0,1-3.5,2.74,9.58,9.58,0,0,1-.36-1c.07-.72.17-1.73.29-3.29.34-.1.48-.22.48-.36s-.22-.29-.48-.31l-2.23-.26a27.72,27.72,0,0,1-.48,5.09,6.76,6.76,0,0,1-2.52,4.1,9.29,9.29,0,0,1-3.46,1.7,7.46,7.46,0,0,1,1,2.06,11.13,11.13,0,0,0,3.38-1.61,8.2,8.2,0,0,0,3.22-4.06,12.1,12.1,0,0,0,5.59,5.52,8.75,8.75,0,0,1,1.39-1.92A11.5,11.5,0,0,1,208.07,110.57Z"/><path class="21ae5951-1183-4d39-9284-cc4634cb8033" d="M197.25,100.83c-.36,0-1,0-1.44,0h-3.65c-.46,0-1.08,0-1.44,0v2.23c.36,0,1,0,1.44,0h3.65c.48,0,1.08,0,1.44,0Z"/><path class="21ae5951-1183-4d39-9284-cc4634cb8033" d="M196.39,99.77c.65,0,1.39,0,1.9,0V97.54c-.53,0-1.39,0-1.9,0h-4.78c-.53,0-1.39,0-1.92,0v2.28c.5,0,1.27,0,1.92,0Z"/><path class="21ae5951-1183-4d39-9284-cc4634cb8033" d="M192.16,104.17c-.46,0-1.08,0-1.44,0v2.23c.36,0,1,0,1.44,0h3.65c.48,0,1.08,0,1.44,0v-2.23c-.36,0-1,0-1.44,0Z"/><path class="21ae5951-1183-4d39-9284-cc4634cb8033" d="M262.79,47.16l-.36-.72-.9-.9-1.17-.45-1.26.27-.63.45-.09.54.27.45-1.17,1.62.09.72-1.44,1.35-.63,1.17-.09.63-.54.45-2.34,3.6-.54.45v1l-1.53,1.17-.63,1.17L248,61.46l-.36.63L246,63.17l-2.61,1.08-.54-.45-1.35-.63-.54-.45-.27-.81L240,62l-.36-.27.36-1.26.27-3.06-.81-.18,1.71-1.62V54.36l1.08-2.79-.09-.81,1.08-2,.09-.72-.18-.72.72-1.08.45-1.35-.18-1.44.54-1.17.27-4.14-.36-.45-.81-2.52-1.35-1v-.72l-2.07-1.62-1.26-.72-.81-.09-.45-.81h-1.53l-.09-.63-.36-.45h-.81l-1.17-.36-.54.27-1.08-1-1.35-.9-.54-.63V24.84l1-1,.27-1.44-.27-1.53-.36-.63-.63-.45-1.53-.36-.36-.36-.63.18-1-.54-.72.09-1.26.45h-.72l-.45.54-1.35.9-.63,1.71-.54.18-.36.72-.09.72.27,1-.18.9.36.63v.81l.45.45.9,2,.36,1.44-.36.54-.27,1.44.09.63-.81.72v.72l-.72.9v.9l-.54,1.53-.45.54V40.5l-.54.54-.45,1.26-.63.54L217.71,45l-.63,1v.16l0,0-.27.63v.81l-.63.27-1,1-.36.72v1.53l-1.35.54-.27.72L210.6,55.8l-.27.81-.72.18-.54.36-.9,1.62h-.81l-.36.54-1.08.9-.9.09L202.95,62l-1.26.72-1.44.36h-.72l-.63.45-.72.18h-1.44l-1.53.72-.81-.18-.81.36-1.44-.36-.72.18L190,63.8l-1.35.09-.63-.36-1.44-.45L185.49,62l-1.35-.9-.36-.72-.9-1.08-1.08-.9-.81-4,.09-1.62.63.18,1.89-.63,2.34.36,1.17-.45,4.14-.09,1.17-.81,1.35.09,1.17-.45.45-.45,1.17.27,5.31-2.43.36-1.17H203l.54-.27,1.17-1.08.63-.36.27-.63.09-.81,1.08-.81.72-.18.72-2.25.81-1.08.45-5.67-.45-.54-1-2.88-.45-.54-.72-.36-1.17-2.16-1,.18-1-1-1.26-.81-1.44-.45-1.62-.09L199,25l-1.53-.45-1.53.09-.54.36L194,24.84,189.9,25l-2.07.9-.72-.09L182,28.71l-1.17,1L180,30.87l-.81.27-.63.45-.9,1.08L176.85,34l-.9,1.08-.63.45-3.06,6.39-.45,1.53.36.72L171,45.27l.36,1.53-.53,1.53-.2.09-.27.72-1,1.62-.09.81-1.62,2.25-.54,1.35-3.15,4-.72,1.26-.63.36-.9.9-.63.36v.72l-.27.45h-.72l-2,.63-1.53.27-.9-.09L154,62.45l-.36-.63-.27-2,.45-1-.18-.81.72-.81.18-1.71.81-2.16-.18-.81.45-.54.9-3.33.63-1.17-.18-1,.72-1.17,1.44-5,.36-.54-.18-.9.81-1.08.27-1.26.09-1.44.45-.63,1.53-4.23V29.16l.81-2.16V25.83l.9-2.07.45-.45-.18-1,.72-1,.27-1.62,1-2.61.72-2.79V13.5l.63-1.17.45-1.35.45-3.15-.54-.18L166,7.2,162.9,7l-1.35.27-1,.72-.27.54h-.81l-.72,2-.27,1.26-.81,1.89.18,1.17L156.78,16l-.18,1.62-.81,2.25v1.44l-.45.72-.63,2.25-.54,1.26.18.72-.81,1.35-.54,2.7-.54,1.35-.45.45-.63.09-.72-.27-.72-1.26-2.79-3.06-.81-.18-.81-1.17-.72-.09-2-1.08-2.16-.27-.81.27-.45-.36-1.53-.27-.54.36-2.16-.09-1.53.27-1.53.81-.36.45-.81-.09-1.35.63-1,1.17-.72-.09-.63.18-1.08.81-.63.27-.18.72-1,.81-1.17.63-.45.54-.18.72-1.17.9-.63,1.44-.63.18-.36.36v1l-1.08.81-.45.54L117.63,40l-.81.81v.81l-.54.81-1,2.7-.18,1.44-.63,1.17.17.55-.43,1-.09.12,0,.05-.39.94L112.4,53l-.9,1.17-.18,1.17L109,57.68l-.27.72-.81,1.17-1,1-2.25,1.8-1,1h-.81l-1.44.54-.72.45-.54-.27-2.07-1.8L97.55,61l.09-1.53.27-.81-.54-1.17.81.18L98,56.15l1.17-1.44.18-1.53.36-1.08.18-1.44.9-1.89.09-.9.81-1-.18-.72.27-1.35.54-1.35.27-1.44V40.68l-1.08-5.4-4-3.87-5.13-2.34-2.7-.63-1.53-1.35V25.65l1.08-1.53L89,23.49,89.27,22l-.72-1.62L88,19.89l-2-.81-1.26-.27-.54.63-.45-.36L83.06,19l-1.44.63-1.08.9-2,2.07L78.2,25.2l.36,1.35.9,1.44v.81l.27.63.9,1.17-.18.54.45.36.18.45-1.53,2.52.18.81-2,4.59L76.94,41l-.09.9-.72,1v.63l-1,.63L75,45.27,73.43,46.8l-1.8,2.34-2,2.07-1.17.54-.81,1L66.14,53l-.54,1-1.26.63L62.27,55l-.81.54-2.79.36L58,54.36l.63-.54,1.08-1.08v-.9L61.1,50.4l.36-.63.36-1.71.54-.27.54-1.35.45-.54-.18-1.17.45-.36.72-1-.09-.81.27-1.17.63-1.17L65,38.79l.9-2.07.27-1.62V33.57l.36-1.17V29.52l.27-.54-.54-4.41-.09-3L65.69,21l-.18-1.62-.72-1.08L64.61,17l-.81-2.16v-.9l-1-1-.09-.63-.63-1.17L60.47,8.91l-.18-.72L56.6,4.95l-.9-1.08H55l-.9-.63-.72-.09-.81-1-.63-.27H50.49l-.54-.54L48.51.72,47.34.9,46.08.27,44,.18,42.39.36,41.76,0,39.6.27,38.88,0,37.53.45,34.38.9l-.27.81L31.86,2l-4,2.79-1.35.54-.54,1.17-.81.9H24.3l-.9,1L21.24,9.9l-1.44.45-1.08.9-3.6,2.43v.72l-.18.45-.81-.18-3.24,2.7L10,18.54,9.36,19.8l-.63.27L6,23.13l-.18.72L3.33,28.62l-.81,2.79-.45.36-.27.63-.09,1.35.18.72L.72,36.72l.18.81L.36,38.88l.45,1.35-.45.45L.27,43.56,0,44.73l.36,1.35V47l.27,1.44L1,49,.9,50.58l.27,1.53L3,55.71l.36,1.35,1.26,1.89.09.9,1.53,1.53L7.83,63.8l.81.27,1,1,.81.27.54,1h.81l.45.54,1.17.9,4,1.89,1.62.09,1.17.36,1,.54,4.32.54,1.35-.09.72-.27,1.44.36H30.6l2.34-.72.45.36h.81l1.08-.36.81.18,2.16-1L40.59,69l1.8-1.17.72-.18.81.18,1-1.17.72-.18L48.15,65l3.33-2.34.18-.81L54,61.64l.81.18L56,61.37h.63l2.61-.63,1.53-.18.9.09,1.8-1h.72l1.17-.81L67.4,58l2.34-1.62,1.35-.63.54-.81.81-.18,2.16-3,.81-.18,2.16-3.69.63-.36,1.26-1.62.63-1.35,1-1.44.18-1.17,1-1.71.18-1.44,1-1.08,1.17-3.33v-.81l2.34.18,2.43.81,1.35.72,1,.9.81,1.08.63,1.26.18,2-.81,4.41-.81,1-.18,1.53-.72,2.7-.09,1.26-1.08,2.25L89,56.42,88.91,58l-.36.54-.27,1.53.09,1.53.54,1.17-.27.81v.63l1,2.61.09.81,1.53,1.44,1.35.72,3,1,1-.54.63.27,2.7.09.63-.63,2.34-.72,5.94-4,1.26-1.71,1.08-.81.63-1.26.81-1.08,1.08-.81.47-.91v.1l.81,2.25v.72l.45.45.72,2.16.81,1.17,1.08,1,.81,1.26,2.52,1.44,1.08.9h.9l.63-.18,1.8.72,1.71.27,2.16-.36h2.25l.36-.45.72.27,1.89-.9,2.88-.72.72-1.17.81-.09,1.44-1.26.36-.63,1.8-.63,1.53-.09.18.72.45.45.54.18.18.63-.18.54,1.71,1.44,2.43,1.71,3.42.36,1.26-.36.81.36,1.8-.9,1.53-.27.45-.54h.72l1-1.08.63-.36,1-1,1.35-.36.81-1.53.9-.18,1.53-2.07.63-.36.18-.81,1.08-.9.36-1.17.63-.45.81-1.17.43-1.21.12.94.54,1.17-.18.81.81,1.35.54,1.53,1.08.9.63,1.35,2.16,1.71.81.18.63,1.17.45.36.72.27h.81l.36.63.63.36h1.53l.45.45.63.27,4.41,1,1.35-.36,1.35.45,1.26-.45,3.87-.27,2.79-.63,5-1.8.27-.63.54-.36,1.44-.45,3.69-3.15.63-.18,1.35-1.71,1-.45,1.89-2.52.09-.81,1.71-1.17.36-1.53.81-.27.18-.72,2.07-3.33.36-1.44.45-.45.26-1.42.55-.29.09-.72.63-1.17.27-1.44.45-.54,1.17-2.7,1.53-4.32.72-1.26-.18-.54.18-.63,2.88-.45,1.26.45V32.49l.81.72-.18,1,.45.36,2.7,1,.45.45.27.72.54-.18.45.18-.36.45-.09.54.54,2.07v.72l-.36.54L234.36,46l-.36.63.18,1-.45.54-1.17,4-.36.54.36,1.35-.63.45-.36.72.27.81-1,1.44.18.81-.36,4,.54,1.44-.18.81.09.72.45,1.17L233,68.57l2.43,1.35,1.26.45,1.44-.18.72.27,2.25.09,2.07-.63,1.17-.72.63.18L247.32,68l.36-.45h.81l.27-.63,1.35-.54.9-1.62,1.26-.9,1.89-2.34,1.17-1,.27-1.26,1.53-1.17L256.94,57l.63-.27.9-1.08.9-1.89.54-.45V51.84h.81l.54-2.16.9-1.17-.09-.9Zm-21.42.18.27.45-.45-.18Zm-35.82-8.19-.36-.45H206Zm1.62-2.52-.36.54-.63.18-.54-.36.09-.63.45.63Zm-2-2.34.18-1.26.45.36.09.63-.36.63L205,35Zm-3.42-.18-.54-.27.81-.18ZM204,38.43l-.54-.09-.27-.54h1Zm-.09-8.19.54.45.18.72-.81-.45-.36-.72Zm.27,2.43.27.54v.63l-1,.72-.81-.09.36-.63.45-.36-.36-.36-.27-.45Zm-3-2.52.72.36.27.81.45.54-.63.45-.45-.09L201.15,31Zm-41.58-3.06v-.45l.36.45Zm.81.54v-.36l.63.36Zm0-13,.54.45h-.9Zm-.81,6.3.45.18-.09.63-.54-.18Zm-.54-3.78h.36v.27h-.36Zm.54,5.58-.36.54-.18-.54ZM158.94,28h.54v1l-.54-.27ZM157.5,39.42l-.63-.09-.36-.45.36-.54.09-.54.63,1.08Zm.45-3h-.27v-.36h.27Zm.36-6.84-.45.54-.18-.72Zm-.81,4.68.63.18-.18.63-.63.18Zm-.36,1.17v.63l-.36.36-.36-.45.09-.9Zm-.63-4.68v.63l-.45-.27ZM64.79,34.92v.63l-.45-.63Zm-6,12.42L58,47.25l.36-.54.72-.18ZM57,19.17l.27-.45.45-.45.18.72Zm.9,12.42h.45v.81l-.45-.18Zm-.72,6,.45-.27.63.27.09.81-1.17-.18Zm2.43-2.34-.27-.63v-.72l1.17.63-.36,1.17Zm.09-4,.63.27.18.63-.63-.18Zm.63,7.83v-.81l.9.36Zm.18-2.61L60,35.91l.72.18.45.54Zm.63-1.71.09-1.35.45.18L62,35.1l-.54.18Zm.45,6.39-.27-.54.72.18Zm-.27-1.71.72-.36.18.81Zm2.16-2.7-.54-.27-.36-.54.09-.63,1.17.45ZM61.82,15.48l.36.54-.36-.18ZM62,22.77l.27.72-1.08.18.27-.54ZM60.56,21l-.27-.63.72.09.18.54Zm-.27-5.67.18.54h-.36Zm0,1.53.54.63.36.81-.63-.36-.9-1.26Zm-.63,5.67.27.45.09.72-.63-.45ZM59,12.69h.27l-.18.45h-.27Zm-.18,11.79-.18.81.54.27.63-.09.27-.54,1.35.54.18-.81.72-.27,1.08-.9.54.45.18.72-.54-.27-.27-.45-.54,1.35.54.18-.27.63-.63.72L63,29l-.81.27v1.26l.45,1.26-1.35-.18.09-.72.45-.45-.63-.27-1.08.45L60.2,30l1.08-1L62,27.63l-.54-.54-.27-.63-.54-.54-.45.36-.36,1.17H58.49l.63-.81-.18-.54.09-.45-.72-.09-.45-.45.27-.45Zm2,3.51.63.09-.36.36ZM57.32,16.11l.54.36-.72.18ZM56.51,14v-.9l.45.54-.36.9-.63.09Zm.18,1.62V16h-.36v-.36ZM52.65,8l.54.36h-.54ZM47.7,6.21h.54v.45H47.7Zm-1-3.69v.63l-.54-.63Zm-1.35.54v.27l-.45-.27Zm-11,1.62.54-.18V5h-.54ZM28.26,8.55,28.08,9l-.36-.36Zm-2.16.63h.81l-.45.45-.9.18ZM24.93,12.6l.54.18v.72l-.54-.09L24.48,13Zm0,3.06.27.45-.27.54-.45-.18Zm-.45,24.57h-.36L23.94,40ZM22.32,13.5l.81.36h.81v1.26l-.81-.36-.72-.09-.18-.45Zm1.44,3.69h-.63l-.36-.54h.72Zm-3.15,6.3.54-.36.18.54.45.45-.54.18-.81-.18Zm-.45-.27-.36-1.08.72-.09L21,21.6ZM21,18.63l.63-.18-.54,1-.63.18.18-.54Zm-.72-5.85.27.54L20,13.5l-.36-1Zm-1.53,2.61.54-.45.54.09-.54.27-.09.54-.54.27Zm.18,8,.36.54-.63-.09-.36-.36Zm-1.26-.72L17.28,22l.72.18.27.63Zm1.44-2.52v-.54l.36.27Zm-.81-2.88.45.27.09.63h-.72Zm-.72,2.34.54-1.35.72.18L18.27,20H16.92Zm-2.79,1.89h.36v.27h-.36ZM13,21.15l.72.63H13ZM13.14,27l-.54.45v-1Zm-1-4.68.45.18v.63l-.54-.27Zm-.36,3.15h.36v.36h-.36ZM8.46,34.11l.27.63-.36.54.09-.36L8,34.56ZM8.28,47.79l.36.63-.54-.18-.45-.36Zm-3.42-14,.45.72H4.86ZM2.7,50.85l.18-.63.27.63Zm.63-9.45-.54-.18-.09-.63.72.27ZM4,46.08H3.69v-.72H4Zm.27-7.83L5,38.07v.54ZM5.67,50.58l-.45-.36h.45Zm0-2.16L5,48.06l.81-.18ZM6,30.6l-.72-.27v-.72l.9.18Zm.63,18.81H6.3V49h.36Zm.54,4H6.84V53H7.2ZM6.66,35.28v-.36l.54.36ZM8.64,52l-.18.45-.63.09L7.56,52l-.27-.45Zm-.81,3.69.18.45-.54.18Zm.09,2-.27-.81.72.27.27.54Zm.45-2.52.09-.27h.36ZM9.45,34.92l-.09-.45.81-.18Zm1,22.23-.27-.63.63.36Zm.72-.45L11,56.15l.63-.09.18.81ZM13,61.46l-.54-.18-.27-.63h.54l.63.36Zm-1-2.61.36-.45.45.09-.27.54Zm3.15,4.32v-.63l.45.27Zm7.83,4L22.41,67l.45-.18.54.36Zm7.56.9-.45-.45H31Zm5.76-1.44h-.36v-.36h.36Zm2.52-6-.09.81h-.9l-.45.36-.45.72-.63-.27h-.81L34.11,63l-.36.54-3.51.09-1,.72-.36-.45-1,.27-.81-.54-.9.18L24,63.17h-.72l-.63-.36-2.79-.54-.54-.45-.27-.63L18.36,61l-1.08-.63-.63-.18-.27-.72-.45-.54L14.76,58l-.09-.9-1.35-1.53-1.26-2.43L11,50.58l.09-.72-.9-2.61.27-.72L9.9,44.46V43.29l.54-.54-.36-1.44L10.26,40l.54-2.07V36.36L11.07,35l.54-.54-.81-.36,1-1,.81-3h.54v-.72l1.53-2.52.09-1.44L16,25.11l.45-.36.81.18.36.63.9.9.27.63-1.17.36.45,1.62-.18,1.44.36,3.06,1,2.52-.09.81.45,1.35.72,1.26L20.79,41l1.08,1.89.45,1.44,1.62,2.25,1,.9.18.9.36.54,1,.81.27.63.63.36.45.54.27.72,1.44.81.36.72L31,53.37l.81,1.26,1.17,1,1.35.63.63.09.9,1.08,1.26.63h.81l.36.63,1.17.81Zm-4.23-6.3.18-.63.54.18Zm8.28,4.95V59h.09Zm1.71,2.07-.09-.72.45-.63.63.45Zm2,1-.36-.72.54.18Zm1.53-1.53-.72-.27-1-1.08.81-.18.36.54.72.18Zm.63-1.35h-.63l-.36-.63.36-.45.45-.54.27.72Zm3-2.43L51,56.87l.63-.36Zm1.53-5.85.27-.81.63-.09.63.45.27.63-.54.18ZM53.82,54h.36v.54h-.54Zm-.09,4,.45-.36v.63Zm.81,1.17-.36-.54.81.18Zm.81-2.7L55,56.15l.18-.27.54.18Zm.18-8.46.63-.18v.54Zm.27,5.49-.09-.72.72.45.09.72Zm.72-21.24-.18,1.35-.9,3.24.09.72-.63,1.17-.18,3.42-1.17.54-.27,1.44-.63,1.89v.81l-1.17.9-.81,1.35-.18,1.53-1.62,1.17-.09.72-1.26,1.26-.18.72-.63.18-.36.45H43.83L43,55l.18-.45-3.06-1.35-1.44-.36L38.52,52l-.45-.54L36.9,51l-.54-.81-1.8-1-.36-.81-1.62-.9.18-.81-.45-.54-.72-.27L31,44.55,28.71,41l-.63-1.35-.36-1.62L27,36.9l-.45-3.15-.63-1.35.18-.72L25.47,29v-.72l.27-.81.18-1.53-.36-3,.36-.54,1-2.7.18-1.53.9-1,.09-.9,1-.63.27-.72.9-1.17,2.07-2,.9-1.08,1.44-.36,1.26-.54.81-1,.81.36L39,8.55l.72.27H43l4.32,1.44.54.45.81-.18.18.63.36.45,1.17.54.27.72,2.16,2,.18.9.63.36-.09.72.72,1,.09.81.36.45.63.27L55.17,21l1,4.32.72.54-.27.54-.45,2.16.18.72.36.54L56,30.6Zm.81,20.25-.63-.18.18-.54h.45Zm.36-11.16.27.81-.45-.27ZM83.24,22.95l-.18-.18.54.18Zm1.89,6.66.09-.63.63.18.09.81Zm12.6,34h-.54v-.27ZM97.91,50l-.45-.45.45-.54.18.54ZM98,47.79l-.63.09.27-.54.54.09Zm-.45-3.24.18-.63.45.63Zm1.8-.36-.63-.45v-.63l.72.36Zm-.63-3.42,1.26.63.36.54H98.72l-.09-.72Zm-1.53-5,.45.36.09.63-.54-.09Zm-.63,4.77.27-.72.72.27.45.36-.45,1,.45.45.18.72-1,.18.18-1-.81-.36Zm-.72,21h.36l-.45.36Zm-.27-7.29L95,53.91l.36-.45.45.09ZM96,49.86,95.3,49h-.72l.09-1.35.9.27.45.54.09-.36L96,47.52l.72.18.27.54-.09.72-.36.63Zm.36-6,.36.54-.54-.09-.36-.36Zm-1,2.43h.36v.27h-.36Zm-.18-9.81-.54-.54h.54Zm-.54-2,.18.45H94.4Zm.27,10.44-.36.45-.18-1Zm-.36,6.48.54.36-.09.72-.63.36-.09-.9Zm-1-3.15-.27.45-.27-.27Zm-.36,4.5h.63l-.27.63L92.87,53Zm-.45,2.61.54-.27.36-.45.18-.72,1,1.08.72.36-.54,1-.27-.63-.54-.54-.81.18.18.72-1.53-.72Zm2.07,2.16v.72l-1.26.45.18-.9.09-.72.63.09Zm-2.61,2.16.45.36-.81.18Zm.27,5.49h-.45V64.7h.45Zm-.36-2.61-.63-.18.36-.63.63-1.08.54,1.17Zm1.53,4h-.27v-.36h.27ZM93.23,63l.45-.09.18.45Zm.45-2.52.45-.72.72.09L94,61.19Zm1.26,4-.72.09.54-.63.81-.09ZM96,67.85l-.45-.27v-.72l.18-.54.45.18Zm.18-2.25L95.84,65l.81.09.81.9Zm1-.9.45-.27.27.54Zm15.93-6h-.27v-.36h.27Zm2.17-.63v-.72l.45.36Zm1.8-.18-.18-.63h.54l.18,1Zm2-5.13h-.45V52.2h.45Zm.72,8.64.45-.09.18.54Zm35.73-18.81h-.72l.36-.45.36.09Zm-.9-1.8v-.36H155v.36Zm-.09-2.16-.18-.72.81-.09.54.63Zm.81-1.71v-.45l.45.45Zm-.18-4.77h.36v.27h-.36Zm.36,3.06-.18.81-.72-.09.36-.54.18-.81Zm-1.35-6h.36v.27h-.36Zm.45,1.44-.36.36-.27-.54Zm-.72,1.35.63-.36-.18.9.63,1.26h-.72l-.54-.54-.36-.81Zm-.72,1.8.27.54-.27.45-.36-.81Zm-1.71-.63.54.18-.09.63-.45.18Zm.18,3.78-.27,1.17-.45-.45.09-.72Zm-1.8-2.61h1.35l-.9,2.16-.63-.72.36-.54Zm0,13.5-.54.09.36-.45Zm-1.17-10.35.36-.54.27.72Zm.09-6.39.54.27-.36.27-.63-.27Zm-.9,3.06v.36l-.45-.36Zm-3.33-1.71h.36l-.18.54h-.36ZM141,28.08l.72.36.45.54-.54.45-.63-.54Zm-.27,2.25.45.63-.18.36-.72-.27-.27-.63ZM139,27l-.18.36-.36-.27Zm-.81.81,1.26.63.18.72-.72-.09-1.08-.63Zm1.62,3.33-.45.36L139,31Zm-1.8,0,.45.18-.36.45-.54-.09-.27-.54ZM135,30l1.26-.18-.18.81-2.16.72-.09-.72.45-.36Zm-1.62-.63.81-.18v.63h-1.26Zm-1.8,1.26.72-.09.27,1.44,1.17.63-.36.54-.9-.81h-.9l.18-.81Zm-.36,3.51.09.45-.54.18Zm-.81-4.41.36.45v.27l-.63-.27-.27-.72Zm-1.17.45h.36v.45l-.36.18Zm.36,1.8-.63.18L128.79,31Zm-1.17,1.62.18-.09-.18.45ZM127.26,30l.36.45-.36-.18Zm.36,5.76.45-.63-.36-.81,1.08.81-.54.54-.18.81-1.26-.54-.09-.81Zm-1.35,2.07v.27l-.45-.27Zm-2,3.42h.45v.63l-.45.27Zm-.9,1.71.54.45h-.54Zm-2,11v.45l-.45-.45Zm.36,7.29-.54-.18.18-.63.72-.18Zm.18-4.5-.36-.36.54-.27Zm1-11.88-1.35.54-.18-.45.18-.54.54.18,1.17-.27Zm.36,18,.81-.18-.27.54-.45.36Zm.9,2.07-.45.27.18-.63Zm-.18,4-.27-.54.72.18Zm.45-7.83v-.63h.45Zm2.34,5.22-1.08.63-.54-.27L125.1,66l.63.27.72-.09-.18-.54-.18-.45.81.36Zm1.44.09L127.08,66l.45-.36.72-.09Zm1.17-.18h-.36v-.45h.54Zm16.47-8.28-.9-.18.36-.54.54.09Zm.63,1.8h-.36v-.27h.36Zm.45,2.88L146.7,62h.63Zm.72-16.2-.63,2.07-.54,1.17.18.81L145.35,53l-3.15,5-1.71,1.17-.9,1-.36.63-.81.18-1.44.63L135.18,63l-1-.36-.63.18-2-.27-1.17.09-3.51-1.26-.72-1L124.83,58l-.54-1.62.18-.45-.36-.72L124,52.38l-.27-.63.81-1.53-.27-1.35.36-.63,1.53-4.32,1.53-2.52V40.23l1.17-.18-.09-1,.63-.09.54-.36,1.8-2.16,1.26-.63.36-.54.9-.09.54-.36.36-.54.72.09,2.07-.72.72-.09.54.18,1.17-.18,1.35.36h.81l.45.54.54.45,1.35.36V36l1.08.45v.63l.45.45.72,1.17.36,1.35.18,1.53Zm1.8,14.94-.63,1.26-.81-.09-.18-.63,1-.18-.18-.81.18-1.35.81,1Zm.36-2.79-.54-.45.72-.18ZM150,43.38l.18-.18.45.18-.18.54-.45-.18ZM151.2,61l-.54-.54h.54Zm.18-1.53-.36.36-.63-.45.36-.63.72.09Zm.81-17.37-.54-.27-.18-.63.9-.27Zm.9-4.86.81-.18.27.72-.72.18-.63-.09-.36-.63ZM153,39.87l-.36-.63.36-.45.54.45L154,40Zm28.08,10.62-.09-.72h.45Zm1.71-.18v-.54h.45Zm2.34,1-.45-.27.45-.09Zm14.94-22.5.45.81-.63-.18Zm-.36,2.07.45.72-.63.18ZM198.9,28l.36.63h-.54Zm-7.29,1.53-.18.81-.63-.09-.18-.54Zm-2.52,3.69.54-.18v.63h-.54ZM185.49,31l.81.09-.45.63h-.72Zm-3.06,1.89.72.18-.36.36-.54.09Zm1,1.35-.18.72-.63.27.27-.72ZM183.24,41l.36-1.35,4.86-4.86.81-.09,1.08-.72.72-.18.18-1.17.72.45.45-.63L193,33l2.43-.18.63.36,1-.36,1.17.72.81.09,1.8,3.33-.09,2.07-.27.81-1,1v.81l-1.08,1.08-.18.72h-.81l-1.08,1-1.8,1-.36.54H193l-1.35,1-2.25.27-3,.72-2.88.18-1.26-.36-.63-.36-.18-.72.09-1.35.27-.63.18-1.44Zm-3.06-4.86.45-.63.45-.27.72.36-.54.45v1.44l-1.44-.72Zm-2.25,2.16h.36v.36h-.36ZM176.67,40l.63-.63,1,1.17.18.81-1.17.36v-.72l-.9-.9-.27-.72Zm-.9,1.71-.18.45-.27-.27Zm-.27,1.8.27.54-.63.27Zm-.9,10.35-.09-.18.45.18ZM175.77,49l-.17,0,.28-.53.07.05Zm.27-2.61-.27-.81.81.54.18.63Zm.72,9.18v-.36l.36.36Zm0-4.14.18-.81.9.27-.36,1Zm1.08,6.66-.36-.9.63.18Zm1-9-.45-.36.09-.45.45.27Zm.63,16.29h-.36v-.36h.36Zm.36-17.28-.54-.72.81-.09Zm.45-6.12-.27-.9.45.36Zm-.45-2.16-.81.27h-.72l.36-.54.81-.9.63-.18.9,1.62-.36.36Zm1.62,7.74-.09.45-.36.45L180.9,48Zm18.45,17.82.36-.54.18.54Zm25.65-36.54h-.45l.09-.54h.36Zm1.08-3.6.72.09-.27.63-.81-.27Zm.27,4.14.18-.54.45.27.18.54Zm2,.27h-.36v-.54H229Zm10.62,21.42.36-.63.45.81ZM240.21,37l.45.18-.18.81-.54-.45Zm-1.71,0h.36v.36h-.36Zm-.09,3.42-.54.45V40Zm-1,5.13.27-.54.63.36-.36.54-.81.27Zm-.09-2.25V43h.36v.27ZM236.79,35l.63-.36H238l-.27.72-.54.27h-.72Zm.09,13.86.63.27.36.63v.54l-.63-.09-.27-.45-.63-.27Zm1.44,4.59h-.45V53.1Zm-.63-.54-.54.18-.18-.45.36-.54Zm-2.16-4.77h.36v.45h-.54Zm.45,4.77-.09.54h-.36v-.54Zm-1.44,4.86-.36.27-.36-.45Zm-.09,5.58-.63-.09.27-.54h.63ZM234.36,55l.18-.9.36.45Zm.81,2.43.54.18-.18.36h-.36Zm.18,4.5.18-1,.45.63Zm.63-2.34-.27-.45.18-.72.27.54Zm.36-4.5-.81.18.27-.54.18-.27.63-.18.9.81-.63.18Zm.9,11.7-.54-.18.27-.45.54.09Zm.63-2.7.18-.18.18.09Zm.63-7.47-.36-.36-.81.18.45-.36.72-.09Zm-.81-1.8.63-.36.36.63Zm1.17-1.89-.72-.27.72-.18Zm.36-7.11-.54-.45h.54Zm-.54-1.44-.54.09.09-.63,1.26-.81.27-.72.45-.45.27.63v.81l-1.17.54.27.54.45.27-.72.18Z"/></g></g></svg>