<svg xmlns="http://www.w3.org/2000/svg" width="331.55" height="190.64" viewBox="0 0 331.55 190.64"><defs><style>.\38 7b2bf35-1d2c-4a5d-adf4-3c69074cf228{fill:#1c264a;}</style></defs><title>アセット 1</title><g id="c44f4911-9270-4d94-a74a-e2d3258112aa" data-name="レイヤー 2"><g id="e97a005f-ad5e-45bb-b056-27f6760016c1" data-name="レイヤー 1"><path class="87b2bf35-1d2c-4a5d-adf4-3c69074cf228" d="M43.84,171.11a14.58,14.58,0,0,1,2.9,2.47l1.2-1.3a16.2,16.2,0,0,0-3-2.4Z"/><path class="87b2bf35-1d2c-4a5d-adf4-3c69074cf228" d="M45.71,169a13.25,13.25,0,0,1,2.9,2.47l1.2-1.32a15.47,15.47,0,0,0-3-2.4Z"/><path class="87b2bf35-1d2c-4a5d-adf4-3c69074cf228" d="M44.15,179.12l-4.54.65-.55-4.2,2.59-.29c1.75-.19,1.75-.22,3.34-.36l-.24-2.5c-.7.12-1,.17-3.31.46l-2.74.34-.1-.74c-.24-1.94-.38-2.66-.43-3.19.29-.22.38-.36.38-.48s-.12-.24-.41-.24l-2.66.1c.14.58.48,2.54.7,4.3l.07.6-3.17.43c-.67.1-2.74.31-3.48.36l.38,2.5c.89-.14,1.82-.29,3.31-.48l3.36-.46.58,4.2-4.37.53c-1.61.19-2.52.31-3.41.36l.34,2.5c1-.17,2.14-.31,3.34-.48l4.42-.6.36,2.57c.31,2.16.53,4,.6,4.87l2.59-.24c-.22-1.18-.46-2.71-.74-4.85L40,182.07l4.39-.58c.72-.1,2.47-.26,3.34-.34l-.26-2.52C46.57,178.78,45.37,179,44.15,179.12Z"/><path class="87b2bf35-1d2c-4a5d-adf4-3c69074cf228" d="M68.82,176.55l-.34.41-7.25,1.1c-.36-2.71-.43-3.36-.5-4.22.22-.22.31-.34.31-.5a.43.43,0,0,0-.48-.41l-2.5.14a48.34,48.34,0,0,1,.86,5.3c-1.37.24-3.89.55-5.16.65l.5,2.54a36.51,36.51,0,0,1,3.6-.72l1.39-.22.5,4.27c.26,2.33.53,4.1.65,5.74l2.54-.29c-.07-.43-.12-.58-.14-.74-.17-.94-.26-1.7-.72-5l-.6-4.37,6.07-1a12.82,12.82,0,0,1-3.65,4.13,4.73,4.73,0,0,1,1.8,1.78,13.94,13.94,0,0,0,2.18-2.26,13.12,13.12,0,0,0,2.33-4c.31-.12.43-.24.43-.43s0-.19-.22-.36Z"/><path class="87b2bf35-1d2c-4a5d-adf4-3c69074cf228" d="M90.54,175v-2.18c0-1.42,0-1.78,0-2.54.38-.22.5-.36.5-.55s-.14-.29-.41-.31l-2.83-.24a26,26,0,0,1,.14,3.65V175H82v-1.82c0-.79,0-2.52,0-2.71.34-.22.48-.34.48-.48s-.14-.22-.43-.24l-2.64-.17c0,.67,0,1.7,0,3.6V175H78.16c-1.22,0-2.81,0-3.82-.07v2.5c1,0,2.59-.07,3.82-.07H79.5v2.45c0,1.58,0,2.69,0,3.53h2.64q-.07-1-.07-3.53v-2.45h6v.55c0,4.25-.58,6-2.62,7.75a13.71,13.71,0,0,1-4.68,2.5,4,4,0,0,1,1.51,2.3c4-1.66,6.26-3.5,7.34-6,.74-1.7,1-3.41,1-6.84v-.31H92.1l3.82,0v-2.47c-.77.07-1.8.1-3.82.1Z"/><path class="87b2bf35-1d2c-4a5d-adf4-3c69074cf228" d="M92.94,169.43a14.73,14.73,0,0,1,2.9,2.5L97,170.6a15.37,15.37,0,0,0-3-2.4Z"/><path class="87b2bf35-1d2c-4a5d-adf4-3c69074cf228" d="M94.09,174.34l1.2-1.3a15.65,15.65,0,0,0-3-2.42l-1.06,1.25A13.94,13.94,0,0,1,94.09,174.34Z"/><path class="87b2bf35-1d2c-4a5d-adf4-3c69074cf228" d="M114.13,169.69l-2.9-.24a17,17,0,0,1,.19,3.65v4.85c0,3.82-.48,5.5-2,7.15a12.24,12.24,0,0,1-5.26,3,6.94,6.94,0,0,1,1.49,2.35c4-1.66,6.31-3.53,7.37-6,.77-1.73,1-3.41,1-6.84V173.1c0-1.39,0-1.78,0-2.54.38-.22.5-.36.5-.55S114.37,169.71,114.13,169.69Z"/><path class="87b2bf35-1d2c-4a5d-adf4-3c69074cf228" d="M102.45,182.07h2.66c0-.86,0-1.9,0-3.5v-4.8c0-.89,0-1.51,0-2.74.31-.22.46-.34.46-.48s-.17-.22-.43-.24l-2.66-.14c0,.65.07,1.68.07,3.6v4.8C102.52,180.15,102.49,181.26,102.45,182.07Z"/><path class="87b2bf35-1d2c-4a5d-adf4-3c69074cf228" d="M125.85,176.82l2-2.11a21,21,0,0,0-5.28-4.15l-1.61,2A21.48,21.48,0,0,1,125.85,176.82Z"/><path class="87b2bf35-1d2c-4a5d-adf4-3c69074cf228" d="M137.63,172.64a35.46,35.46,0,0,1-2.33,3.91,25.9,25.9,0,0,1-5.18,5.33,35.7,35.7,0,0,1-8,4.51l1.56,2.35a.62.62,0,0,0,.41.29c.17,0,.26-.14.36-.48a38.6,38.6,0,0,0,8.28-5.38,27.18,27.18,0,0,0,6.67-8.52A8.49,8.49,0,0,1,137.63,172.64Z"/><path class="87b2bf35-1d2c-4a5d-adf4-3c69074cf228" d="M160.5,169a14,14,0,0,1,2.88,2.5l1.2-1.32a15.37,15.37,0,0,0-3-2.4Z"/><path class="87b2bf35-1d2c-4a5d-adf4-3c69074cf228" d="M158.63,171.06a14.46,14.46,0,0,1,2.88,2.47l1.2-1.3a16.31,16.31,0,0,0-3-2.42Z"/><path class="87b2bf35-1d2c-4a5d-adf4-3c69074cf228" d="M158.89,172.43l-.34.36h-6.38a11,11,0,0,0,.58-1.3l.53-1.3c.46-.17.53-.24.53-.41s-.1-.24-.34-.31l-2.4-.79A19.14,19.14,0,0,1,149.2,173a21.58,21.58,0,0,1-5.18,6.22,7.34,7.34,0,0,1,1.9,1.8,25.72,25.72,0,0,0,5.16-6h6.74a16,16,0,0,1-3.43,7.29c-2,2.42-4.1,3.86-8.13,5.57a5.7,5.7,0,0,1,1.46,2.35c1.49-.7,2.09-1,3-1.49a19.77,19.77,0,0,0,6.29-5.45,20.77,20.77,0,0,0,3.48-8.54c.36-.14.48-.26.48-.43s0-.17-.22-.34Z"/><path class="87b2bf35-1d2c-4a5d-adf4-3c69074cf228" d="M174.28,174.1a30.42,30.42,0,0,0,1.46-3.91c.5-.17.58-.22.58-.38s-.12-.26-.34-.31l-2.59-.62a17.56,17.56,0,0,1-1.61,4.58,20.77,20.77,0,0,1-4.49,6,6.68,6.68,0,0,1,1.7,2,23.1,23.1,0,0,0,4-4.87h6a19.11,19.11,0,0,1-.38,3.12,9.42,9.42,0,0,1-3.67,6.07,19.73,19.73,0,0,1-4.46,2.42,7.58,7.58,0,0,1,1.54,2.21c3.7-1.78,5-2.64,6.43-4.27,2.06-2.38,2.83-4.7,3.14-9.55h3.24c1,0,2.47,0,3.36.07V174c-.89,0-2.38.07-3.36.07Z"/><path class="87b2bf35-1d2c-4a5d-adf4-3c69074cf228" d="M195.55,178.23c-1.1,0-2.53,0-3.43-.07v2.62c.91,0,2.33-.07,3.43-.07h11c1,0,2.53,0,3.46.07v-2.62c-.93,0-2.46.07-3.46.07Z"/><path class="87b2bf35-1d2c-4a5d-adf4-3c69074cf228" d="M229.61,172.33l-.36.43h-6.48c.31-.65.46-1,1.08-2.62.43-.17.5-.22.5-.38s-.07-.22-.31-.31l-2.42-.84a19.5,19.5,0,0,1-7.68,10.68,6.1,6.1,0,0,1,1.8,1.94,25.61,25.61,0,0,0,5.81-6.17h6.82a16.64,16.64,0,0,1-2.76,6.12,5.59,5.59,0,0,1-.72-.67,19.94,19.94,0,0,0-4.22-2.9l-1.49,1.92a22.75,22.75,0,0,1,4.73,3.79c-1.44,1.73-4.22,3.48-8,5.09a6.27,6.27,0,0,1,1.54,2.23c4.54-2.09,7.2-4,9.31-6.55,1.9-2.33,3.12-4.9,4.27-9.17.36-.17.53-.34.53-.53s0-.12-.26-.36Z"/><path class="87b2bf35-1d2c-4a5d-adf4-3c69074cf228" d="M250.63,169.69l-2.9-.24a17,17,0,0,1,.19,3.65v4.85c0,3.82-.48,5.5-2,7.15a12.24,12.24,0,0,1-5.26,3,6.94,6.94,0,0,1,1.49,2.35c4-1.66,6.31-3.53,7.37-6,.77-1.73,1-3.41,1-6.84V173.1c0-1.39,0-1.78,0-2.54.38-.22.5-.36.5-.55S250.87,169.71,250.63,169.69Z"/><path class="87b2bf35-1d2c-4a5d-adf4-3c69074cf228" d="M238.94,182.07h2.66c0-.86,0-1.9,0-3.5v-4.8c0-.89,0-1.51,0-2.74.31-.22.46-.34.46-.48s-.17-.22-.43-.24l-2.66-.14c0,.65.07,1.68.07,3.6v4.8C239,180.15,239,181.26,238.94,182.07Z"/><path class="87b2bf35-1d2c-4a5d-adf4-3c69074cf228" d="M274.13,172.64a35.46,35.46,0,0,1-2.33,3.91,25.9,25.9,0,0,1-5.18,5.33,35.69,35.69,0,0,1-8,4.51l1.56,2.35a.62.62,0,0,0,.41.29c.17,0,.26-.14.36-.48a38.61,38.61,0,0,0,8.28-5.38,27.18,27.18,0,0,0,6.67-8.52A8.49,8.49,0,0,1,274.13,172.64Z"/><path class="87b2bf35-1d2c-4a5d-adf4-3c69074cf228" d="M262.34,176.82l2-2.11a21,21,0,0,0-5.28-4.15l-1.61,2A21.48,21.48,0,0,1,262.34,176.82Z"/><path class="87b2bf35-1d2c-4a5d-adf4-3c69074cf228" d="M298.05,167.75,297,169a14,14,0,0,1,2.88,2.5l1.2-1.32A15.37,15.37,0,0,0,298.05,167.75Z"/><path class="87b2bf35-1d2c-4a5d-adf4-3c69074cf228" d="M295.39,172.43l-.34.36h-6.38a11,11,0,0,0,.58-1.3l.53-1.3c.46-.17.53-.24.53-.41s-.1-.24-.34-.31l-2.4-.79A19.14,19.14,0,0,1,285.7,173a21.58,21.58,0,0,1-5.18,6.22,7.34,7.34,0,0,1,1.9,1.8,25.72,25.72,0,0,0,5.16-6h6.74a16,16,0,0,1-3.43,7.29c-2,2.42-4.1,3.86-8.13,5.57a5.7,5.7,0,0,1,1.46,2.35c1.49-.7,2.09-1,3-1.49a19.77,19.77,0,0,0,6.29-5.45,20.77,20.77,0,0,0,3.48-8.54c.36-.14.48-.26.48-.43s0-.17-.22-.34Z"/><path class="87b2bf35-1d2c-4a5d-adf4-3c69074cf228" d="M295.13,171.06a14.46,14.46,0,0,1,2.88,2.47l1.2-1.3a16.31,16.31,0,0,0-3-2.42Z"/><polygon class="87b2bf35-1d2c-4a5d-adf4-3c69074cf228" points="28.02 40.17 28.43 39.55 27.88 39.61 28.02 40.17"/><path class="87b2bf35-1d2c-4a5d-adf4-3c69074cf228" d="M20.7,69.7h.69l.55-.34h.55L23.6,69l2-1.1v-.48h.62l1-.35.83-.76.48-1,.48-.07.9-.55.55-.9.07-.41.9-.62.9-1.24.41-.28.07-.62.9-1.17V58.8l.9-1.24,1.24-3,.55-.83-.14-.55.35-.28.21-.48v-1.1l.48-.28.28-.55.07-.55-.21-.55.35-.28.21-.41.35-1.73.34-.69-.14-.48.41-.35.69-2.28.48-.41-.28-.62-.62-.76.41-.14.48.21.35-1.52.14-1.38.76-.62.41-2.42,1-1.93.28-1-.07-1.1.48-.83.28-1.79-2.14-1-1,.35L38.44,28,38,27.81l-3,.28-.83.28-.62.62-.41,1-.07,1.1-.14.41-.41.41.07.55-.62.83v1.1l.14.41-1,1.24-.28,1,.14.48-.62.07-.48.21-.21.48,1.24.14L33,39l.28-.76-1-.76L32,37l.41-.28.35.62.55.14.55.9.14,1-.21,1.1.55.07.62-.21L35,41l-.21.41-.41-.14-.34.07.21.41-.21.62-.41.35.83,1.17.48.21.07-.41-.35-.35-.14-.48,1,.14.55-.28.35.14L35.2,44.51l-.41-.14-.35.48,1.1.48.41.41-.28.55-.48.35-.07.69-.28.48-.41.35-.14.9-.69-.9.9-1.52-.14-.48-.76-.83L33.47,45l.14-.48-.76.48-.48.14-.14-.62-.35.35-.21-.55V43.13l-.21-.55-.07.48-.28.28-.69-.76.48-.28h.55l.35-.48.07-1-.9-.14v-.48l-.48.07-.28.21-.14-.69.55.07.55-.69-.48-.41-.55-.21h-.55l-.48.21-.35.48-.14.69.83.28-.41.21-.34.41-.55.28-.62-.9-1.1.14-.28.34.76.55-.76.21-.55-.48-.55.21-.35.41-1-.21-2.28.28H20.22l-1-.34-.48-.35-.83.14-3.45-2.55-.55.07-.35.21L13,38.3l-.07-.55.35.35.48.07.28-.41-.62-.48-.35-1-.55-.76-1-3.24L11.59,31l-.35-.76.21-.48-.21-1.17.21-.9-.14-1L11.8,25l-.07-.76.35-.83v-1l.55-.55L12.35,21l1.59-2.69.35-1.1.62-.55v-.9l.55-.14.35-.28.28-.48.14-.62,3.24-2.9,1.79-1.31h.55l1.86-.76L26,8.7l.48.14L27,8.49l.55-.07.35-.48.28.35.76.28.62-.14.28-.9.35.28.41-.14-.14-.9.9.69L32.09,7,32,5.24l.48-.34.69-.14.28.48L32.64,6l.14.41.35.21L32.64,7l-.21.48.07.48-1.31-.28L30.92,8l-.21,1,1,.21.07-.48.28-.28.35.28.21.41-.35.28-.21.48,1.24.35.41.28v1.1l-.21,1,.41.21.28.41.41.28-.48.21-.76-.55-.48.14-.28.35h.62v.62L32.71,14l-.35-.48-.14.48L31,15.67v.48l.21.55-.28.41-.34,1v.69l.41.76-.07.55,1.31,2.14,2.21,1.45,1.1.35h1.17l1.17-.21L40,23.05l.9-.48.14-.62.48.14.21-.48,1.38-1.86.48-1,.07-.55-.14-.62.35-.35.55-2.55-.28-.48.07-1.31-.69-.76-.21-3-.76-.62V8.07l-1-1.17-.28-.55L40.17,4.9h-.69l-.28-.62-.83-.76-.62-.21-1.17-1-.83-.48-1.1-.14-1-.48L31.33.41l-.62.76H30.3l.14-.76L29.88.28,27.81.21,27.26,0l-1,.55L25.47,0l-.55.21L22.29.35l-1,.21L19,1.31h-.62l-.48.76-1.24.07L14.77,3l-.35.62-.55-.14L12.15,4.76l-1.79,1.1-.28.76-.9.62L7,9.59,4.49,13v.76l-.83.76-.28.55-.07.69L2.9,16l-.21.35-.14,1.38-1,1.79-.35,1L1,21.74l-.28.62.21.35.07.48-.35.41-.41,1.1v1.24l.21.48-.28.48v.69L0,28.16l.28,5,.55,1.73-.07.62.28.35.55,1.45.34.35v.62l.62.55-.28.62.9,1.45,1.38,1.73.83.76.21.76,1,.14.14.76,1.45.83,1.73,1.24,1.1.41.69.07,1,.76,1.38-.14.62.55.55-.41,1,.41,2.28.21,2.35-.07.62-.55.41.21,1.45-.35h.55l.14-.62.28-.48.48-.28v.76l.69-.07.41-.35.55-.83.55.14.48.35.28.48-.21,1.1L25.74,53.9l-1.17,1.93-.35,1v.55l-.48.28-1,1.17-.55,1-.48.35L20.15,61.7l-.55.21L17.87,63l-1,.21-1-.41-2.28-.48-.48-.9-1.1-1-.21-.48.21-1.59-.21-1-.28-.41.76-1.31.28-1.17V53l-.76-.69L9,50.73l-.55.07-1.31-.9-.69-.07L6,49.21l-1.31-.14-.83.48-.48.9-.69,2.14-.55.83.41.9-.35.34-.14.48.07,1.73-.21.48.48.9-.14.62.28.55L2.48,60l.21.9.41.9.21,1.1.48.35.28.55-.14.35,2,2,.69,1,.69.14.48.35.34.48H8.9l.41.76,6.07,1.59L17,70.12l2.28.14ZM40.93,33.54l.35.28.14.48L40.93,34ZM37.47,44.38l.48-.48-.14.62ZM38,45.62,38,45l.55.62Zm.69-2.9-.14-.48.41.35Zm.07-7.18.35-.28.62.21-.41.41-.21.62-.41.48h-.21l.35-1h-.48Zm.69,2.69h-.35V38Zm-1.1.55-.28.55-.48.07.21-.48Zm-.9-3.59.35.28h-.35Zm-.28,2.14.48.34-.07.55-.41-.35Zm0,2.21-.14.48-.48-.14-.28-.35.41-.07Zm-.35-1.24-.41.34L36.3,38l-.48-.28.14-.48.48-.21.28-.35.35.41-.62.14Zm.07-3.73v.21l-.35-.21Zm-.83-.14v.69l.48.48-.35.35-.41-.21-.41-1Zm-.41,3.66-.14.55-.62-.28.28-.21Zm-1.79-3.45L34,34h.41l-.14.62.21.41-.35.28-.41-.28Zm-.14,3-.21-.48.69-.07.21-.48.76.14-.55,1.38Zm1.73,2-.21.41-.41-.14-.07-.48.55.07.35-.14.28.34Zm.41,2.21-.35-.41H36l.41-.21.48.14.28-.41.14-.48H38l.41.35.62-.21.28.21-.48.41-.21.48-.48-.62-.48.28.62,1.38h-.48l-.41-.35Zm1.17,2.9-.14.9-.35.28.14-.55-.21-.41-.07-.55ZM32.51,17.39l-.41-.28.41-.55.21.34Zm1.86-5.31.28-.35-.21-.55v-.69l.48.14.21.34h1l-.28.55h-.55l-.62.9Zm.28,8.07.14-.14.41.55Zm.41-.69-.28-.35.48.14.14.41Zm2.9.83h-.21V20H38Zm.07-1.1-.28-.28-.62.14L36.72,19l-.41-.35-.35.28H35.4l.14-.48.9-.41.41.21.07-.35-.21-.41H36l-.48.21-.21.55-.21.14L34.85,18l.14-.48.35-.35.48.07L35.4,17l.28-.14-.55-.14-1,.55-.14-.9h-.76l-.48-1,.62-.14v.55l1-.41.07.48-.21.28.48.28.14-.55h.62l.62-.21.14.34.35-.14h1.1l.14.69-.41.35.28.48V18.5l.76.62Zm1.38-.28-.55-.28-.48-.21L38,18l-.21-.55.55.14.62-.14.07.62.35.14Zm-.69-2.21.48-.07.41.07-.48.41ZM40,20l-.41-.14.62-.21Zm-.28-3.8.76-.14.28.76Zm.41-1-.9.48-.07.07-.28.07-.21-.55.69-.07.28-.41.14-.55.35-.35-.35-.48L39.75,13l-.41.28-.62-.07L38.58,13l.35-.21h.48l.21-.41.41.07.35.28-.07.55.48,1.86Zm-1.45-.69.14-.62h.41l-.07.48Zm.21-2.42.07-.41.41.55Zm1.1,0-.14-.62h.69l.21.48Zm1.24,6.35L40.86,18l.07-.55.35.55Zm1.17-8.56.35.28h-.35Zm-.62,6,.07-.48.28.48Zm.07-7,.14.48-.35.35L41.2,10h-.55l-.48-.28.55-.28ZM40.24,7.59l.14.48H40l-.21-.55ZM39.61,7H39.2l-.07-.41ZM39,10.15v.48l-.41-.14.28-.62ZM35.82,7l.41.14L36.65,7l.28.41.55-.14-.14.48-.62-.28-.28.28-.14.41L35.61,8l-.21-.48Zm-.21,1.79,1.1.07.48.21.07-.48.28-.35L38,8.21l-.21-.69L36.92,6l.41.21.35.48L38.1,7l.41-.35.21.35.07.55-.28,1L38,8.42l-.41.83-.07.69.76.41-.14.48-.35.41-.48.21-.83.62-.21.41-.07.69.76.35.14-.35-.28-.41.07-.48.48.07.41-.48.48-.28.07.55-.14.69.35.41-.28.28h-.48v.55l.62.83v.55l-.76-.76-.55.14.14.62-.55-.28L36,14.08l-.55-.14.28-.69L35.34,13l-.41.14-.14-.48.14-.55.28.28.48-.34.9-1L36,10.63l.35-1-.41-.14-.41.07-.28.41h-.9l.14-.48.62-.14L35,8.83l-.35-.14.62-.28Zm-.83-3,.14.62-.41-.28-.21-.48ZM33.61,3.45l.41.28h-.41Zm.48,3.66.83-.34-.28.62-.35.41-.48-.21-.21-.41ZM32,1.17l.35.14.07.48-.48-.14Zm.41,2.07L32,3.59l-.28-.35Zm-1,1.24.28.21-.28.21Zm-1,.07.35.21-.14.35-.48-.35ZM28.64,6.14l.14-.62.14.41ZM29.81,6l-.28,1.45-.62-.28.28-.55L29.47,6Zm-.48-2.42-.14.55-.41.21-.21-.76ZM27.67,1l.21.41h-.21Zm-.83,2.48.41.14.14.55-.35-.28-.55-.07Zm-.21,1,.35.28-.14.35h-.48l-.21-.76Zm-.35,1.79.28.14L27,6.07l.21-.48.48-.48.28.41-.55.83-.14.41-.76-.21H26Zm-3.59,2-.41-.21.55-.14Zm2-5.11.55-.07v.62h-.69l-.07-.28Zm-.48,2.07.28.14-.14.28-.28-.14Zm-.55.41.62.28.21.62-.62-.14-.35-.35Zm-.76.9.41.62-.62-.28Zm-.76-2.83h.28L22,4Zm-.9,1.52.41.55h-.41Zm-2,4.07-.41-.48h.41ZM20.5,8.7h-.35l.21-.41Zm-1-4.49.14.41-.41-.14L19,4.14Zm-.35.9v.55l-.35-.28ZM19,6.42l.48.28.69.83-.41.35-.48-.21-.41-.41-.48-.07-.21-.41-.21-.35Zm-1-1.31-.28.28-.35-.28ZM17,3.24l.35.07-.14.28H17Zm-.9,4.55.35.14-.48.35Zm-1.45.41-.41.14L14,7.94Zm-1.86,2.55.35.35h-.35Zm-.14,1.38.35.28h-.35Zm-10.56,16,.21.9-.35-.28Zm.76,3.73-.55.28.21-.48.34-.28Zm9-16.63-.35-.07.55-.28Zm-.07-4.49.35.14v.48l-.48.14-.07-.41Zm-2.42.76.34.35-.48.28Zm.28,17.81-.21.55L8.76,30l-.14-.48-.28-.41.21-.35.48.41ZM8.21,36l.21.48-.62-.35Zm-1-.28V35.2l.48.07.07.41Zm.41-4.83.14.41-.55.35-.07-.48L6.63,31l.48-.62-.48-.21-.48.35.21-1.17.48.21.83-.35.14.55v1L7.25,31ZM6.49,25l.41.07L7,25.4Zm.76-1.66.48.07.07.48-.41-.14Zm.41,1.31.48-.07.28.41-.48.07Zm.28-3.11v-.21l.35.21Zm.14,6,.35-.21.28.48L7.94,28Zm.21,4.83.48-.07v.48Zm-.14-9.52.41-.48.14.48Zm.14-3.45.28.28-.41.21Zm.14.76v.28l-.35-.21Zm-1-4.21.41.41-.55.14Zm.14,1.31.48.14-.28.35-.48-.14Zm-.9,1,.41.14-.55.41Zm-.35,2.69.21.55.35-.35.28-.35.41.14-.62.9-.55.14-.07-.41-.41-.07ZM5.8,22.77,6,22.43l.14.55H5.45ZM5.38,24l.35.9.41.21v.76l-.55-.28-.35-.55L5,24Zm0,2H4.9l-.07-.35Zm-.69-.9.28.21-.28.21Zm-.35-2.42.14.48H3.93ZM3.93,35.82l-.35-.35h.35Zm.9-5.45-.62-.21-.28-.55.28-.41.62.14Zm-.21-2.69.21-.48.48-.35H5.8L6,27.4H5.45l-.35.21Zm1,3H5.18l.07-.48Zm-.14,4.21.14-.48.21.28Zm-.21-1.38-.07-.62.21-.62.9.07L6.42,32l-.07-.55.55.21v.41l.48.07.76,1.24-.21.14-.55-.28v-.62H6.28Zm1.24.9L6.35,34l.14-.41H6.9l.55.21.35.41Zm.83,4.69H7.8l-.69.28Zm1.1,1-.55.21-.48-.07.28-.76h.62l.41.21ZM8.28,39l.14-.35.48.48Zm.21-1.1-.21.35L7.8,38.1,8,37.75l.41-.14.48.14Zm.76,3.59L9,41.06,9,40.58h.41l.14,1.24Zm-.07-4.21v-.69l.48.14Zm.48-20H9.45V17h.21Zm0-.76v-.55l.55.28.21.48Zm1.17-1.59-.41-.07.14-1,.48-.07.07-.69.48.35Zm.48,22.71-.14-.55.41-.83.48.14-.35,1Zm1,4.21h-.48v-.55l.48-.35ZM12,39.68l.07-.55.41.21.28.34-.41.14Zm.62,1v-.21l.35.21ZM14,46.93h-.28v-.28H14Zm-.07-1.59-.41.21-.14-.41.14-.41.48.14Zm-.83-2.9V42l.35-.28.48-.14.48.21Zm1.1-2.35-.62.14-.35-.48.41-.14,1,.07Zm1.73,2.62.07-.55.69.07-.28.35ZM17,48H16.7l.14-.41H17Zm1.24-2.14-.48-.28L17.74,45l.9.41Zm.21-1.45.14-.48L19,44Zm1.38,2.21-.28-.21.41-.07Zm1.38-1.45-.35-.41h.48Zm.41-2.28.62-.14-.28.41Zm1.24,4.69-.48.14-.41-.9h.62l1,.14Zm.14-1.79.41-.48.41.21.21.41Zm.62-2,.48-.21.07.41ZM24.85,43l-.48-.41.48-.14Zm.69,1.31-.41-.41.48-.07.41.28ZM28,57.42l-.14-.55.48.21.21.55Zm.07-1.31.35-.14-.28.48Zm1.38,3.17-.28.35-.41-.07L28.57,59l.21-.34.69.21Zm-.9-5.38.28-.35.48.14-.14.48-.55.14Zm1,4.35L29.19,58v-.62h.62l.07.48Zm.28-1.38-.48-.14-.07-.41.28-.35.35.35Zm-.14-1.73-.62.21.14-.76.9.07Zm.62-3.86-.07-.69.76.14-.07.48.21.28-.41.21Zm0-1.31.69-.28.14.41Zm1,3.17v.48l-.35.21-.07-.55Zm-.21,5.25.07-.48h.55Zm-.28-1,.48-.48.14.48Zm.62-2.21-.35,1.1-.28-.35.28-.41-.28-.55.07-.55.28-.48.76.28Zm.62.41.28-.48.14.48ZM32.37,54l-.14-.21.28-.55.35.28Zm.76-1.66-1.38.41-.07-.69.07-.62.35.9.41-.21.14-.55.48.28Zm-1.52-1.79v-.35l.62-.14.41.62-.55.14ZM33,48.86h.55l.07.76-.55-.28Zm.55,5.31.21-.34.28.48Zm.34-3h-.41l.07-.41.07.28ZM32.64,46l.48-.34.41.28.62.76-.48.07-.41-.35-.28.41-.48-.28Zm-.35,1.17.41.28.28.41-.35.41-.28.62L32,48.66l-1.24.21v-1l.41.07.48.41L32,48l-.21-.55-.41-.35Zm-1.1-3.38v.48l-.9.28.28.48.76.76.76-.21.07.55-.35.41-.48.28-.41-.14-.34-.9-.35.14-.55,1-.48-.14.28-.62-.69-.28.41-.9.55.76.48.14L30,45.27l-.69-1,.21-.9Zm.21,1.17-.28.21v-.41ZM29.75,41l.35-.41.48.07-.21.35.07,1-.55.14-.21.48h-.62l-.41-1.17Zm-2.83,4.49-.41.14v-.48h.62Zm-.28-2.28.21-.62.35-.35.55-.07,1,.41-.35.48.21.55-.55-.21-.35-.35-.07-.48Zm1,2,.48-.48.35.35-.07.55-.55.14ZM28,52.66l-.14.48-.21-.28Zm-.48,5.73-.55.48-.07-.48Zm-.07,1.73.41-.07v.28l-.28.55-.48.35-.21-1Zm-1.66,3.45-.07-.48h.41l.07.55Zm-.07-4.76h.41l-.14.35-.41.14Zm-.9,1.79.55.07.35.41-.55.07-.34-.35-.35-.21-.14-.41Zm-2.14,2.62-.28.55L22,63.22Zm-13.94-5v.41l-.35-.41Zm.69,4.35L9,62.18l-.21-.62.48.14.28.48Zm.48-2.83-.35-.48h.48Zm3.45,9.59h-.28v-.41h.41Z"/><polygon class="87b2bf35-1d2c-4a5d-adf4-3c69074cf228" points="32.58 42.93 33.54 42.72 33.61 41.69 32.85 41.34 33.4 41.06 33.2 40.58 32.51 39.75 32.51 40.3 32.64 40.79 32.51 41.2 32.99 41.96 32.23 42.58 32.58 42.93"/><polygon class="87b2bf35-1d2c-4a5d-adf4-3c69074cf228" points="29.68 8.7 30.23 8.83 30.02 8.56 29.68 8.7"/><polygon class="87b2bf35-1d2c-4a5d-adf4-3c69074cf228" points="33.54 39.27 32.78 39.13 32.85 39.89 33.54 40.03 33.54 39.27"/><polygon class="87b2bf35-1d2c-4a5d-adf4-3c69074cf228" points="100.33 18.29 100.88 18.08 101.22 17.74 101.22 17.32 100.88 17.53 100.46 17.74 100.33 18.29"/><polygon class="87b2bf35-1d2c-4a5d-adf4-3c69074cf228" points="102.88 18.43 102.88 18.98 103.29 18.98 102.88 18.43"/><polygon class="87b2bf35-1d2c-4a5d-adf4-3c69074cf228" points="98.05 23.53 98.19 24.16 98.81 24.16 98.88 23.6 98.6 23.26 98.05 23.53"/><polygon class="87b2bf35-1d2c-4a5d-adf4-3c69074cf228" points="206.03 46.45 205.76 46.45 205.62 46.72 206.03 46.45"/><path class="87b2bf35-1d2c-4a5d-adf4-3c69074cf228" d="M230.53,8.07l.21,1,.48.35,1,1.52.76-.07.14.48.35.28,2.28.28.55-.21.48.28.83-.28.48.14,1.93-1.31.48-.07.21-.62.83-.76.35-2.28-.14-.55.41-.28-.28-.62V4.76l-.76-.62.14-1-.55-.35-.69-.14.35-.69-.48-.28-.69.07.14.9-.9-.14.55-.76V1.17L238.88,1,237.7.55,236,.35l-1.59.28-.9.41-.83.69-.55.14-.48.35-.76.9-.07.9-.69,1.24.28.76Zm4.76,2.14-.48-.14.14-.48h.62l.14.41Zm-.76-3.8.62-.28-.14.28Zm1,2.28V8.07l.35.14ZM237.84,11h-.28v-.21h.28Zm-.48-.62.14-1.1.35.07-.07.62.21.41ZM238,9.11l.14-.55.21.35Zm2.83-1.66-.41.48-.35-.35-.48.28-.21.48-.62-.14-.14-.62.55-.28.35-.55.83.62ZM239.08,4.9l.07-.41.62-.21.35.48-.62.14.41,1-.55.14-.55-.14-.41-.28ZM237.77,7l-.62-.28-.35-.41.14-.48,1,.41.28.35.14.62Zm.48-3.59-.28.48-.14-.48Zm-1.79,1.31.28-.28.55-.07.48.14.35.41-.76-.07-.9.41Zm-.14,2.21.28.48V7.8l.55.62.07.55-.69-.14L236,8.42l.41-.35-.35-.34-.28-.41V6.69Zm-.48-5.45h-.28l-.14-.14Zm-1.66,2.69h.35l.28.62.62-.28.62.14-.35.55-.41.35-.62.28-.21-.62-.35-.48ZM234,5.8,233.7,6l-.21-.35Zm-1.66,1.1.14-.14-.14.41Zm-1.45-1h.28v.21h-.28Z"/><polygon class="87b2bf35-1d2c-4a5d-adf4-3c69074cf228" points="304.91 51.48 305.19 51.28 304.91 51.07 304.91 51.48"/><polygon class="87b2bf35-1d2c-4a5d-adf4-3c69074cf228" points="304.43 46.38 304.91 46.65 305.32 46.24 304.77 46.1 304.43 46.38"/><polygon class="87b2bf35-1d2c-4a5d-adf4-3c69074cf228" points="304.7 44.93 304.15 45.27 304.01 45.69 304.77 45.48 304.7 44.93"/><polygon class="87b2bf35-1d2c-4a5d-adf4-3c69074cf228" points="308.64 49 308.84 49.41 308.77 48.66 308.64 49"/><polygon class="87b2bf35-1d2c-4a5d-adf4-3c69074cf228" points="307.88 48.66 307.46 48.66 307.32 49.28 308.01 49.41 307.88 48.66"/><polygon class="87b2bf35-1d2c-4a5d-adf4-3c69074cf228" points="307.88 49.69 307.74 50.31 308.29 50.59 308.77 50.45 308.43 49.97 307.88 49.69"/><polygon class="87b2bf35-1d2c-4a5d-adf4-3c69074cf228" points="306.29 48.31 305.81 48.38 305.94 48.93 306.22 49.28 306.7 49 306.84 48.38 306.29 48.31"/><polygon class="87b2bf35-1d2c-4a5d-adf4-3c69074cf228" points="306.98 50.59 307.32 50.79 307.46 50.17 306.84 50.17 306.98 50.59"/><path class="87b2bf35-1d2c-4a5d-adf4-3c69074cf228" d="M330.79,32.09l-.48-.14-.41-.62-1.24-.07-.9.48-.48,1-.07.62-.76.41-1,2.14L324,38.3l-1.31,1.79-.07.69-.28.41-1,.41-.28.55-.76.9-.21.62-.83.76-1.86,1.38-1.66,1.52-.62.07-.76.48.14.9-.69.14-.21-3,.35-.34.21-.48.21-1.1-.62.07-.14.41-.41.21.28-1.31.35.21.55.07.69-1.31.34-1,.21-1.73.76-1,.07-1,1-2.62.07-1,.41-.28v-.69l.14-.48L318,32l.55-.48.21-1.17.83-2.14V27.4l.35-.55,1.17-4v-1.1l.35-.41.41-1L322,19l.35-.41.14-.55-.07-.55-.55-1-.41-.28h-7.66l-1.38,1.17v.48L312,19.46l-.28.41-.41.28-.9.14-.55-.28-.48-1-.76-.76-2.9-1.59-.83-.69-.62.07-1-.35-1,.14-.48-.41-4.35.62-.55.48-.55.07-.48.34h-.69L293,18.7l-.55-.14L291,20.15l-.83.62-.48.21-2.83,3.31-.35,1-.55.9-.14.48-.41.28-.48.9L284.27,30l-1,1.93-.14.55L283,34.37l-.35.48-.14.55,0,.18-.09.16.2.45,0,.17h-.64l-1.93,3.31-1.31,1.73-1.59,1.45-.21.62-.41.41-1,.35-.9.55-1,.14-.48-.21-.69-.83-.48-.28-.14-1,.14-1.24.62-.62.28-1.66,1-2.9v-.69l-.14-.48.69-.28-.07-.41-.07-.48.48-.48-.14-.48.21-.9.48-.9.34-1V29.4l.62-.9-.07-.55.28-3.45-.07-1-.48-.76.14-.41-.07-.55-.41-1.17-.07-.69L275,19.6l-.35-.55v-.62l-1.52-1.52L272,16.63l-.69-.76L269,15.53h-1.1l-1,.35-.62-.28-1,.48-.55-.07-1.79.9-.41.35h-.55l-.41.21-1.31,1.1-.48.21-.62-.76-.14-.48.21-.48-.83-.55-1-.28-2.21-.14-2.21.28-.34-.21H251l-1,.14-.28.41-.48.35-.21,1.1-.48.9-.07.41.14.48-.34.34-.55,1.45-.48.62v.76l-.28.41.14.62-.62,1-.14.55.21.62-.62.83-.62,2.28-.28.48.55.48-.55.35-.35.48.13.47-.08.36-.26.13-.48.76,0,.3-.87,1.22-.35,1v.62l-.62.28-.69,1.45-1.86,2.62-.48.9-.55.28-.62,1-.62.28-.76.9-.69.21-.48.41-.55-.07-1,.48h-1.1l-.55-.14-1.17-1-.41-1.45.28-2.62.41-.48-.14-.69.41-.35.21-.55-.14-.55.07-.55,1-1.79.14-1.66,1.38-3.11.21-1-.07-.55.35-.41.55-1.66V24.36l.41-.35.69-1.45.35-.35-.14-.9.48-.9.07-.62-.21-1,.55-.21.35-.41-.28-.55.28-.62-.35-.35-.41-.28-1.59-.21-1.1.21-.62-.41-.62.21L232,16l-.55.21-1-.21-.35.35-1-.28-.41.28-.62.83-.48.21V18l-.9,2.69v1l.21.48-.41.28-.48.9-.35,1.1-.48.9v.48l-.35,1.1-.35.35-.14,1.17-.69,2.14-.07,1.1-.35.48-.23.54-.11.15-1.31,2.48-.07.62-.83.76-.62.9-1,2.14-1.24,1-.69.83L216,43.41l-1,.55-.41.41-.62.07-1,.48-.28-.21-.48-.07.14.9-.41-.28-.21-.41.14-.48-.76-.21.07-.48-.35-1,.55-2.14.76-2.21.48-1V36.16l1.24-3.93v-1.1l.28-.41.14-.55-.07-1.66-.35-2.14-.41-1.17-.55-.9-1.31-1.52-1-.28-1-1.31-.55.07-.83-.55h-.55l-.9-.9-.9.14-.28-.48-.55-.35-.62-.14-.62.07-.41-1.45.83-3.73v-1.1l-.14-.62-.41-.21-.48-.14-.62-.9-1-.55-1-.28L199.27,10l-3.31.76-1.31,1.52-1.17,1.86-.35,1.1-.14,1.1.35,1.1-.07.55.62.76v.55l.21.48,1.17,1.73.14.55-1.1,2.35v.62l-.55.62L193.33,28l-.28.35-.55.21.14,1-.48.34-.55,1-.14.48,0,.6L190,34.78h-.41v.9l-.48.21-.69,1.38-.41.28-.55.14-.21.55-.76.9-1.73,1.52-.28.48-.62.14-.48.9-.9.62-1.93.9-.48-.14-1.24.69-2.14.62-2.28.07-1,.35-1.79-.21-.55-.48h-.62l-.62-.55-.9-.14-1-.76-.48-.21-.48-.9h-.55l-.34-.28.34-.14.28-.34-.69-.9.14-1,.35-.41.55-.28h1l1.31-.62.48.07.48-.21.55.35.28-.35.48.48,2.83-.55.9-.35.35-.35,1.1-.14,1.59-.83,1.1-.35.35-1,.41-.28v.62l.69-.14.28-.55.07-.55.55-.07,1.52-1-.21-.55.07-.48.35.21.41-.07,1.52-2.21.76-2.42.14-1.1-.41-.55.41-1.1-.28-.62V22.91l-1-2-.35-1-.48-.28-1.1-1.17-.9-.55-.69-.07-.69-.76-.83-.62-.48.07-1.45-.55-.48-.07-.55.14-.41-.35-1-.28H174.5l-2.62.62-.41-.21h-.55l-.83.48-.76-.28-1.17.62H167l-.9.55-1,.35-.41.76-1,.41-1.73,1.17-.69.76-.48.21-.76.69-.9,1.31-.76.69v.76l-1,1.17-.55.9-.07.48-.41.28v1l-.76.48v.62l-.9,2.48-.21,1,.21,1-.21.48h0l-.06.07-.69,1.86-.69.62-.62,1.31-1.93,2.83-.83.69v.62l-1.38,1L146,44.65l-.41.14-.62-.14-.76-.62-.48-.14-.55-1.1.28-.48.14-1.79.69-1.59-.21-.62.62-.35v-.62l.62-1.52.07-.48-.14-.55.48-.9.41-.28.14-1.24,1.1-3.24-.28-.76.55-1,.14-.62L147.73,25l-.21-.41.21-.48.07-.62-.28-1.24-.28-.35.07-.55-.21-1-1-1.86h-.55l-.76-.48v-.48l-2.28-1.52-1-.28-1.24.21-.41-.28-1.66-.21-.9.76-.9-.35-1.38.83-3,1.31.28.76-.55.21-.76.69-.28-.41-.21-1-.69.07.07-.41-.14-.35-.28.35-.41.21-.35-.48-.55-.07-.07-.76-.28.28-.21-.41.21-.48.28.21h.48l.41.21-.55.34L129,17l1.1.48V16.29l.62-.21.41-.41L131,14.49l.41-.41.48-2.21.28-.48.21-1-.07-.48.55-.76.41-1,1.17-4.28L134,3.52l-.55-.28-4.21-.41-.83.35-1.1-.28-2.07.48-.41-.07-.76,1.38-.55,1.52-.9,3.24-.83,2.14-.07.69L121,14.35l-.07,1.17-.48.76v1.66l-.41.41-.48,1-.41,2.35-1.24,3.24-.14,1.17-.48.62-.69,1.93-.32,2.73-.29.24-.48,1L115,34.09l-.27.27,0,.39L114,35l-.14.62-.9,1.17-.14.62-.76.55-.28.41-.21,1.1-.76.14-1,1.24L107.37,43l-1,.62-2.07,1-2.28.14-1-.35-.28-.41-.76.14.07-.55-.48-.35-.14-.9-.62-1.52.35-.28.21-.48.35-2.28.41-.55v-.76l.48-1,.21-1.24.35-1.1.35-.48.07-1.17.21-.55.35-.41V30l-.14-.35.62-.9.69-2.21-.41-.62.9-.28-.21-1.24,2.07-.55,1.1-.14,1.1.21.48-.21,1.17-.07.41-.28.76.55,1.79-.14.62-.35.48-.76.76-2.35.14-1.66.69-.76V16.63l-.9-.62-1,.41-1-.41-1,.07-.48.21-1.17-.35-1.1.21-.48-.28-.62-.14-.35-.35.07-1.73,1.45-4.07.28-2.21.55-.83.14-.48-.14-1.17L109,4.83l-1-.07-.55.14-.76.69-.9-.41-1,.48-3.38,1-2.14.76-.14.55-.62.83-.07.62-.76,1.93-.07.48.14.62-.48.83-.28,1v.62l-1.45,1L95,16H93.42l-1,.35-.62.83-.21.55L91.56,19l-.62.69-.35,1-.21,2.48,1,.48,2.14.55-.69,3.45-.62,2.07.28.76-.41.28-.34,1-.41.41v.25l-.2.16L91,33h0v.05l-.12.5L90.05,35l-.35,1.1-1.38,1.73-1,2.07L86.12,41l-1.24,1.73-.55.14-.28.41-.83.69-1.45.55-1.1.21-1.17-.83-.28-.41V41.55l.55-2.07L79.63,39l1.17-1.52-.07-1.1-.21-.83.62-.14,1.38-4.69-.21-.62.62-.76.14-.48-.14-.55.41-.28.07-.48.28-.28-.28-.76.69-.34v-.62l1.1-3.38.48-1,.28-1-.07-1,.48-1.59v-.69L86,16.43l-1-.34-3,.07-1.1-.21-.41.21-1-.07-.48.34-.69.28-1.1-.35-.83,1.31-.21,1.17-.41.28-.35,1,.41.48.07.41-.48-.14-.28-.28L75,20.15l-.9-.62-2.35-2.21-1-.62-1.1-.41-1.31-.21-1.1-.55-.9.28L66,15.53l-.55-.07-1.66.41-1-.07.14.76-.48-.62h-.62l-.83.48-1.17.21-1.59.55-.76.9-1,.48-.62.69-.41.28-.55.14-1,1.38-.83.76-1,.62-.48,1-1.93,2.83-.41,1-.21,1.1-.62.48v1.17l-.69.48-.14,1.1-.69,2.07-.14.9V36l-.34,1.1-.07,1.1.28.55-.21.55.34,1.52-.14,1.52.62,2.48.41.83.21,1L50,48.79l.35.76,2.07,1.38,1,.35,4.28.83h1.1l.55-.28.55-.07.69.14.76-.55.9.14,1.79-1,.28-.41,2-.9,2.69-1.79,1.24,1.17v.48l.69.76,3,2.07.9-.55.21.41.41.21.76-.21L77.7,52l1-.07,1-.35.83-.55,1-.35h.55l.83-.34,1.24-1.1,1-.55.48-.14.21-.76,1-.48,1.38-1.59.9-.62.14-.55.2-.23v.23L90,46.17l.35.41.14,1,.62.62.14.55,2,1.59,2,1,2.35.62h2.42l1.79-.48h.55l.62.28,1.66-.62,1.45-.9h.62l.76-.9h.41l.9-.35.48-.41.9-1.17.48-.14.48-.62h.22l-.3.9-.35.41.21.76-.48.41-.21.48v.55l.28.48.9.69.55.14.62-.07.55-.28.55.21,1.17.14.55-.07.48-.28,1,.21,2.28-.07.41-.35.62-.83v-.9l.76-1.52.76-2.21.55-1L122.2,44l-.28-.34,1.59-3.59.28-1.1.07-1.17,1-2.62.35-.34-.07-.55.76-2.21v-.62l-.21-.55.9-.9.55-1.73L129,26.36l-.14-.55.07-.35.35.35,1.31-1,.48-.21.62.14.55-.9.62.34.55-.21h1.24l1.1.35,1,.69.69.76-.34.41v.55l.48.9-.35.41-.07.69-.21.55.48.55-.41.41.07.55-.55.21-.35.34.14,1-.35.41-.69,2.55-.62,1v1.1l-.76,1.93v1l-.41.83-.07,1.1-.21,1,.55,3.8.35,1,.48.35.55,1,.14.62,2.42,1.38,1,.41.69-.14,1,.14.48-.28.41.55,1-.28,1.17-.14,2.21-.62.14-.62h.62l1.17-.28.21-.55.9-.76.55.14.21-.62.35-.41,1.45-1,.28-.55.55-.14.35-.35v-.9l.48-.21.83-.69.62-.83.65-.59.44.59,1,2.07,1.17,1.79,1,.55.07.48.28.41h.62l.28.41,1.45.9.35.34,1,.14.76.55,2.28.48,1,.35.76-.28.35.28,1,.34,1.1-.07.41-.28.14.41.41.21,1.59-.41,4.35-.55.9-.41,2.28-.55,1.86-1,.62-.76h.76L185,47.34l1-.48.35-.48,2.62-2.21.9-1.52.48-.28,1.1-1.31,1.31-1.86v-.76l.76-.69L195.14,35l.11-1,.5-.88.76-2.07.55-.9.14-1,.35-.48.28-1,.41-.48.28-1.31,1-1.24.14-.48,1,.21.35.21,1,.21.35.41.9.69,1.59.69-.48.62.28.48v.55l-.55,1.59-.07.55.21.55-.48,1L203.07,34l-.48,1v1.38l-.62.9.14.55-.41,1,.14.55-.41.35-.14.41v1.66l-.48.83.41,1.24-.14.48.07,1.59.9,3.17,1.24.9.21.48,1.79,1,1,.28.62-.07.55.21.48-.21.28-.41.14.62,1.79-.21.48.07,2.42-1.1,1.1-.21,3.52-2.07.35-.9.48-.28.76-.69,1.38-1.59.18-.13.16,1.37.69,2.14.9.28v1l.35.21h.55l.69.83,1.45.76L228,52l.48-.21.41.07.48.28,1-.41,1.17.14,2.69-.83,2-.9,1.52-1.31.62-.14.69-.9.83-.76.08,0-1,2.87v.62l.28.41.41.28,1,.35,1.17.14,1.24-.14,2.21-.62.48.62h1.17l1-.28.76-.62.21-.41.14-1.24.83-1.38.35-1-.14-.76.14-.62.69-1,.35-.9.14-1,.21-.41v-.76l-.14-.55.76-.62,1.17-4.21,1.38-4.07-.07-.55-.28-.48.35-.28v-.62l.48-.14.21-.35-.28-.41-.55-.21-.35-.41.69.07.48-.21.35-.48.62-.07.41-.35.48-.9.55-.07.48-.83h.76l.83-.69,1.59-.55,1.1-.07,1.1.21,1,.41,1,1.1.14.48.07,1.24.21.41-.41.69.55.21-1.17,2.48-.69,2.21-.48,1,.14.83-.28.48v.69l-.62.62.21.48-.07.41-.48.41-.62,2.62-.21,3.11.21,1.1-.07,1,.69.62L263,48.1l.48,1,.62.9,1.73,1.24h.55l.41.41.41.21,1.24-.07L269,52l.69-.35.48.28.62.07.55-.14.83-.62.55.21,1.1-.21,1.31-.9,1.1-.21.48-.28L278.76,48l1.45-.76.62-.9.14-.62,1.73-1.38.27-.39.28.39.9,2.07-.14.48,1,1.31,1.52,1.45,1.66,1.31.69.07.55.21.83.55.55.21.69-.48.48.62h2.9l1.73-.41L297,52l.41-.41,1.66-.76.69-.9.69.55.14-.62.48-.34.62-.07-.34.28.55.07.28.28L302,51.21h.76l.14.35-.48.28-.41.76.21.55-.62.21-1.1,1.31-.76-.28-5.45,1.31-2.07.76-.9.48-.69-.28-.62.62h-.62l-.69.62-.55.07-3,2.14-.14.55-.28.41-.83.41-1,3.73-.35,2.28.41.62.55,1.73,2,2.62.9.55,1,.35,2.07.48,1.1.55h1.79l.76-.28,1,.14,1.38-.41h.48l1.17-.28,2.14-.9,2-1.31.9-.76,1-.55,1-1.38,1.52-1.52.28-.62.48-.41.07-.55.55-.62-.07-.62.62-.14.14-.55,1.38-2.83.28-1v-.55l.76-1.45.76-2.35.55.07.83-.55.62-.83h.55l.48-.21,1.31-1.17.62-.07,1.1-1.1h.55L320,49.83l.21-.55,1-.55,1.66-1.59.62-1,1.24-.76.21-.55,1.31-1.52.14-.62.62-.83.41-.28v-.76l.83-.76,1.38-2.48.69-.9v-.76l.69-.76.48-2.42Zm-96.54-9.8h.28v.21h-.28ZM211.35,34l-.14.48L211,34Zm-.48,2.55.28.35-.41.28Zm-80.8-21V16l-.62-.21Zm-19.25,1.38.35.48-.41-.14Zm-2.21,1h.28v.21h-.28ZM48.3,36.72,48,36.3l.48-.21ZM79.22,31l-.76.14-.14-.69L78,30l-1.38.48.21.35v.48l-.35.07L75.9,31V30.5l.28-.41.41-.14.35.28.14-.41-.14-.48-.62.28v-.69l.62-.21-.07-.55L76.32,28l.62-.21v-.35l.55-.41-.41-.55h.28l.34.28v1l.28.35-.35.48.07.41.35.28h.69l-.21.41.21.48.48.21ZM75,38.23h-.48l-.14-.35.28-.14h.48Zm.14,3.17-.35,1-.28-.35.14-.48ZM73.9,33.68V33.4h.28v.28Zm.14,3.8h-.28l-.14-.14Zm2.28-9.18L76,28.5l-.41-.21-1,.14-1,.35.28-.48.48-.28v-.76l.55-.14.76-.76.28.28.07.41-.48.28-.28.48Zm-.41,4.07-.35-.14.21-.41.69-.07v.62Zm.55,2.83-.55-.14.41-.41Zm-2.21-5.59.55-.41.48-.41.41.55-.69.28-.07,1.1h-.41l.34.35.55.21-.28,1-.41-.35-.21-.55-.62.14L73.83,31l.69-.62L74.8,30Zm1.59,3.45-.34,1.31-.55.21.21-.55ZM73.9,31.88l.9.83.14.69-.41-.35-.28-.55H73.7l-.35-.28Zm.28,3.17.48.28L74,35.4Zm.62.9V35.4l.41.14.07.41Zm.62,3.31.35.41-.07.62-.48-.48Zm.69,2.28h.48l-.28.48-.41.28L75.77,42Zm.21-3.17V38l.35.14-.07.28Zm.28-4.83-.14-.41h1.1v.41Zm.76-2.07.07-.41.14-.35.35.35-.07.55Zm.9,1.45.35.35h-.9Zm.21-.9.28-.55.21.48-.21.55ZM79,27.4V28l-.55.35v-1Zm-.55-.76.14-.35h.28v.35ZM80.39,29l-.48.21-.14-.76,1.1-.41Zm-.76-4.07.35-.07v.28Zm1.66,1.45L80.74,26l.14-.55.41.28Zm.9-2.48.48,1-.48-.28-.35-.41-.21-.55Zm-.62-4,.35.41-.48.35-.14-.41Zm-.41,1.52.28.41-.62.14Zm-3-.55.28.21.07.69.41.41.55.28h.62l.41-.28.35.28V23h-.55l-.35.48-.48-.14-.14-.76-.62.28-.14-.55-.28.21-.48.07.21-.41-.28-.76-.07-.62Zm-1,1.1-.55.07-.28-.14-.07-.48Zm-1.73,2-1-.48.28-.76h.55l.69-.28.41,1.31.55-.07.35-.35L76.94,23l-.14-.55.48.28h.41l.14,1.1.9-.48-.07.55-.69.35.76.76v.48l-.48-.21-1.17-1.17-.9.55.35.48,1,.9-.55.21-.35-.48-.9.14-.14.48-.62-.07.28-.48-.07-.48L74.32,24l-.07-.41,1.17,1,.41-.14ZM73.7,25.33l.48-.35.48.41-.48,1.1-.83-.62ZM74,27.4l-.14.41-.48-.21-.14-.55Zm-.14,7.18-.28.48-.35-.48ZM72.73,28v-.21H73V28ZM73,32.64l-.14.35h-.28l.14-.35Zm-.48-7.38v-.41L73,25Zm-.41-5.38-.28.55-.21-.55Zm-.41,1.45.48.28.14,1,.21.48H72l-.35-.41L71.56,22Zm-.21,2.28.41.41-.41.35ZM72,25.88v.48l-.41-.07-.07-.41Zm-.62,17.46.48-.14-.07.48.21.55-.48.28-.14-.69ZM71.21,42l.62-.34-.14.48Zm.62-2.28-.35-.21.14-.41.35.21ZM70,21.95l.35.21-.35.28h-.28ZM67.9,19l1.31.69-.14.48-1.52-.48Zm0,3.73-.28-.14v-.28ZM67.76,21l.14-.48.35-.28.41.21-.35.41Zm.9,2.28-.35.35-.48-.07-.21-.41Zm-.28-.62.14-.35.41-.21v.55Zm-1.1,1.52h.28v.28h-.28Zm-.76-5.87.21.48h-.48ZM66.38,20v.41L66,20Zm-1.52,2.42h.21v.28h-.21Zm-.41-3.31.28.35-.14.41-.35-.62Zm-1.66,1.79.48.34-.48.28Zm-.21,1.38h.21v.28h-.21Zm-1-1.93.48.21.21.48-.55-.21-.48.07L61,20.29ZM61,25.26l.35-.41.21-.21.21.07v.69Zm.69,1-.41-.14-.14-.41.35.21Zm-.14-4.76-.14.55-.28-.55ZM61.14,23l.55-.14-.41.41-.48.07Zm-1.66-1,.41.35-.55.28ZM59,24.09l.48.14-.21.35-.41.07Zm.76,2.42-.21.48-.41.28.14-.35.07-.41Zm-1.45-1.1h.55l-.34.41-.69.07v-.41Zm-.62-1.93.28-.41.28.55ZM58,21.95l.28.35h-.48l-.28-.21Zm-1.17,1.38h.41l-.14.41h-.28Zm-.62,6.49-.35-.14-.14-.35ZM56,39.89l-.21.55-.48.21-.35-.28v-.76l.14-.35.35.41Zm-.14,3.45v.48l-.28-.48Zm-.69-6.63h-.21v-.28h.21Zm-.07-3-.28.41-.28-.41Zm-.55-7v.55l-.34-.35L54,26.36ZM54.23,37l.14.48L54,37.27l-.07-.55Zm.14,6.07-.07.62-.41-.07v-.69Zm-.62-4.42h-.48V38Zm-.14-4.76h-.21v-.21h.21Zm-.69-8,.55-.14-.21.48-.55.14Zm-1,5.66.28.35-.62-.14ZM51.34,43l.41-.41.41.35.07.69h-1Zm-.07-1.45.07-.48.41.21.07.55ZM51.2,28.78h.28v.28H51.2Zm.14,3.31-.41-.28.07-.48.28.28Zm-.62-2.28h.35l-.48.9-.28-.62Zm-.21,4.35.9-.21.69.07-.21.48-.48.28-.48.07-.21-.41-.28.21L50.09,34ZM50.16,36l-.07.28-.28-.14Zm-.41,4.69-.21-.34.62.21Zm.83-1.38-1-.41-.21-.48,1.38.41.55-.14-.28.9Zm.62,5.87v-.28l.28.41Zm1.1,0-.21-.28.55.14Zm.21-2.55L52.23,42l.41.07Zm.76.76-.41.14v-.55l.41.14Zm-.55-1.79-.21-.48.48-.14.41.28.48.07-.14.69Zm1.66,6.35-.62.14-.28-.55.14-.69,1.17.76Zm0-1.38L54.17,46l-.35-.41.07-.48.35.28.55.83Zm.41-3.45-.07-.35.41-.14Zm0-1v-.41l.41-.41.48.07-.28.55Zm.9,1.93h.48l-.07.55-.55.35-.07-.41Zm.62,2.42-.55-.28-.21-.62L56,45.2l.41-.35.62.14Zm.41-1.79V44.1h.35Zm1.86,2.07-.48.14L58,46.31l-.35-.83.62.28.41.48Zm9.18-5.59-2.62,1.59-.83.69L64,43.2l-2.62.41-.62-.14-1,.48L60,43.2l-.9-.55-1.31-1.59-.48.14-.41.35h-.35l.35-.48.55-.41-.28-.76.21-.9-.28-2.35.07-1.1.41-.62V33.68l.41-.9.07-.55.9-.9-.14-.62.41-.21.07-.55.48-.28.69-.9.14-.62.76-.21v-1l1.17-.28,1-.48-.35-.76.62.07,1.1-.14,1.38-.48,1,.07.55.21.48-.34.83.21.07.62.69.62.9.41v.55l.76,1.86.07,1.59-.14,1.1.07,1.1.21.55-1.1,2,.14.69-.35.41-.69,1.38-.62.83L68.8,39l-.14.76-.9.62Zm.9,5,.14-.69.28.41Zm.14-1.52-.28-.28.69.14Zm.14-1.93-.28-.28.62.14Zm1.24,2-.48-.21.48-.21.55.07.35.62-.21.41L70.45,45Zm1.66,1.93h-.9l-.35-.62.35-.07.41.07.28-.62.48.07Zm.83-5.25.21.41-.48-.07-.14-.34Zm0,6.69-.28-.28.35-.07.28.28Zm-.14-1,.41-.14.21.35Zm.62-10.63h.76l-.14.55-.62-.14ZM73.7,39l.41-.35.55-.14.14.21-.21.48-1,.41-.28-.21Zm-.21,1.38.41-.28,1-.07-.41.48-.62.28Zm2.42,6.35-.62.21-.21-.55-.83-1.17-.07-1,.28-.14.07.48.76,1.79H76Zm0-3.66.14-.21.28.07-.14.28Zm.28,2.21.07-.76.35-.41.14.48-.14.55.21.48Zm.9-8.07-.14-.62.35.28Zm.28,5.87.21-.21.35.21.21.41Zm1.1,1.52.14-.48.35.21.21.41ZM98.95,31.19l.14-.62.41.21ZM99.36,26l-.41.07-.14-.28.28-.14h.48Zm1-2.07-.21.48-.62-.14-.55.14-.35.35-.41-.28-1.1-.21-.28-.35.48-.76-.14-.55,2.21.14-.55.48.62-.07.55-.14.34.35Zm-3.66,6.63-.41.35-.62-.35.07-.48.55-.83v.41l-.21.48Zm-.07-2.48-.41.28.21-.76.55-.07.48.07-.21.41ZM97,30l.41-.14v.41h-.62Zm0,.9.41.41H97Zm.62,4,.21.35-.48.07-.21-.48Zm-.07-9.18-.62.21.14-.62.35-.55.41.48Zm.76-3.45V22l.14-.14Zm2.83,4.07.07-.55.28.55ZM104,21.53l-.35.48-.35-.28.14-1.79.41-.14.48.07.21.35-.48.41.28.35.48.14Zm2-.14-.76-.55-.14-.48h.41l.48.48Zm1.52-3.45v.41l-.55.21-.07-.28Zm-.62,1.52-.35.48.41.9h-.48L106,19.6l.35-.07Zm-1.79-8.56.62.76v.41l-.9-.62ZM105,18.56V19l1.17-.41-.35.48-.07.41-.62.14-.35-.55-.55-.35.28-.14Zm-.41-1-.76-.48.41-.55.48.41Zm-1.45-4.35.48-.14.62.14-1,.83-.35-.28Zm-1.73,1.24.28-.55.55.21.21.41-.41.62-.62-.28Zm.9,1.31.28.28-.35.48h-.69l.28.55-.28.34.62.41L101.91,19l-1.1.14-.34-.07-.21-.48h-.55l.07-.48.48-.14-.14-.28.21-.48-.28-.28-.07-.48.62-.14.14.62.55-.34Zm-2,4.07-.35-.14-.07-.48.14.28.14-.28Zm-.76-2.48.07-.41.28.35v.28Zm.76-4.35.41-.07.07.55h-.62ZM99.71,15l.14-.41.9.21-.14.48-.35.28-.55.07Zm-.48.69h.35l-.14.55-.28-.07Zm-1.59,1.38.55-.35-.14,1-.48.21-.28-.28ZM96.39,19l.69.69.21.41.76-.14.55.28.48-.41-.55-.21-.28-.41v-.62l.21-.62.62.34-.07,1,.21.35.48.14-.14,1.79.55-.35.35.21.14.41.62.28,1.31-.55-.35-.41-.21-.55h-.48l-.35.62-.83-.41.21-.48-.21-.28.28-.41.55-.21v.62l.48.35.48-.48.14-.55.28-.07.07-.55.48-.76-.07-.62.76-.21-.07,1.24.21.41-.76,1-.62.28.48,1.31-.48.76-.55.14.28.76-.9.48-.9-.76.41-.41-.55-.62L100,22H99.5l-.41-.28.14-.76-.55.14-.76.48-.35-1.1-.83-.69-.48-.21Zm-.21,1.66.48-.14.9.9-.35.48-.55.28L96.39,22v-.55l-.21-.35Zm.07,1.86.41.21.14.41-.62.14ZM96,23.81l.34.14-.14.48-.48-.28Zm-.76,1.38.62.41-.55.48L95,25.6ZM93.22,42l-.48.07v-.69l.62.14ZM94,43.55H93.7v-.41h.41Zm.76,2.76V46.1l.14-.14Zm.55-3.52.07-.28.28.41Zm-.14-5.11-.28-.14.28-.48.48.14Zm1-4.83h-.48l-.14-.48v-.48l.28-.35.62.76Zm.41,11.59.41.48h-.41Zm.14,2.42.35-.21.48.14.21.41Zm1.1-.9-.35.14v-.62l.48.07Zm.14-16.29v-.41l.28.21ZM98,25.95h.62v.62l-.41-.21ZM98.6,28h.21v.21H98.6Zm.14,4.21.21-.28.35.21-.07.55h-.55Zm18.7,9.52-.14-.35.14-.41.55.28Zm.41,1.66-.41.28.14-.28Zm-.41-3.31v-.62l.55.14Zm-3,4.07-.35-.28.48-.07Zm2.28,1.93v-.41l.28.21Zm1.24-.62-2.14-.69.41-.21h.48V44l1.17.9h.48l.14.62Zm.07-7v-.28h.35l.14.41Zm1,9.32v-.41l.28.21Zm.76-11.32.28-.28.21.48Zm9-23.74v.55l-.62-.07-.69-.48.41-.21Zm-.69-2.76-.28.35-.35-.28Zm-.76,1h.41l-.14,1.17-.34-.55Zm-1.59,2.83.48-.14.14.55-.48.14-.41-.14Zm-1-1.52.07-.14-.07.41Zm.35,3.31,1.79-1L127,14l.41-.14-.21.41.21,1-.21.28-.9-.28-1,1.31-.07.48-.9-.9Zm-.35,2-.14.9-.62-.14.28-.48Zm-.28,2.21-.35.41-.55.21-.07-.48.28-.35.41-.14Zm-.35-3.11h-.41l.35-.48Zm-.83-2.48.55-.14-.21.62h-.48Zm-.48,3.52.28.21-.28.21Zm0,2.55-.28.62-.14-.62Zm-2.07-3.93.41.28h-.41Zm.14,22.15h-.35l.14-.35h.21Zm-.14-1.52-.21-.48H121Zm1-3.8-.9-.41.07-.48.21-.28.35.34-.07.41H122l.21.41Zm-.9-5.25h.41l-.14.48Zm1-3-.62-.14-.28-.55.62-.14.35-.28.07-.48.62.14-.35.48Zm.48,1.86.21-.55.69-.69V26l-.34.41Zm.9,2.55-.14-.14.41.14Zm.07-6.21-.55.21.14-.35.14-.41h.48Zm.35-1.17-.62.28-.14-.62h-.62l.07-.55.14.41.41-.14,1.1.14Zm.35,5.87.28-.35.14.35Zm-.07-.9.07-.62.55-.28Zm.76-2.21.07-.48.41.55Zm0-1.1-.76-.62.35-.35.62-.14.41.21Zm.35-2.28-.48-.14-.14-.48,1.17.62.35-.41.35.28.14.41-.62.07-.48.28Zm.55-.9.35.28-.28.14Zm.21,5v-.48h.41Zm.62-1-.41-.41-.35.21-.14-.55.28-.62.55-.14.28.28.07,1.1Zm.28-3.66-.83-.62-.55-1-.14-.62.35-.35.55-1.45.48.28.28.41-.07.55-.35,1,.76.55.14.55.55.14v.69Zm1.17,3.31-.14-.14.34.14Zm1.86-4.62-.35.41-.28-.55Zm-.76-1,.14.69-.48-.14Zm1,4.49h-.69l-1-.35.07-.55-.21-.48.14-.55.48.35.14.69.41.41.41-.35.07-.55.41.28Zm-.14-2-.35-.34.35-.41.14-.41.41.14Zm7.18,16.43h-.41l.14-.41h.28Zm6.83-9.94V27l.41.28Zm.69-3.59-.55.21-.35-.48Zm-2.07-.55.41-.48.35.14-.28.55-.07.62-.55-.14Zm-1.52-5,.48.21.14.55-.62-.28Zm-1,1.1.55.14.21.41h.55l.76.35.14,1.17-.35.14h-.48l.28-.76-.62-.28-.14-.48-1.24-.41Zm-1.66.41h.28v.28h-.28Zm-.76-1h.28v.28h-.28Zm-.28-1.38v.48l-.48-.21Zm-3,1.1h.28v.28h-.28Zm-.35.41.28.28.07.48-.48.14-.07-.41Zm-2.62,2.76.07.41-.35-.14-.07-.48Zm.21,2.07-.69.14.21-.41.35-.28.48.07Zm.48-2.14.28-1.1V19l.48-.14.35.48.14.55-.48.07.07.55-.35.35.35.41.21.62-.62-.14Zm2.21,1.24-.28-.48-.55.28-.9.76-.14-.28.35-.41,1-.55.34-.35-.14-.55-.35-.41.55-.21.62-.07v.48l-.28.28.28.35.07.55.76.83.14.69Zm2-2.55-.35.41-.35-.14-.21-.48.14-.55.76-.21-.21.48-.41.35Zm.76,2.62-.55.07v-.62l.41-1.38.62.35.55-.35-.35-.55-.35-.48v-.55l.48.21,1,1.1.55.14v.69l-.41.28.14.48.28.35.35-.48.35-.9-.21-.55.9.62-.14.76,1.1.28.21.48-.62-.14-.48.48-.48.07-1.45-.55-.28-1.24-.55.14-.35.34.28,1.17Zm3.17,10.42.14.35H140Zm-.48-1.93v-.62l.48.14Zm.21-1.31.55-.48-.14.41Zm.21-3.52h-.55l.35-.62.55.34Zm-1.73-.76-.76-.69.41-.07.9,1Zm.14,1.52-.76-.14.14-.48.41.14Zm.62,1.52h-.35l.62-.41Zm.14,1.59-.48.35-.07-.55.41-.35Zm-.07-6.07-.55-.21v-.69l1.1.69Zm.83-.07.14-.55.41.48.07.69Zm-2.55,23.12-.14-.35h.41Zm.41-3.93.14-.21h.21Zm-.28-13.46.41-.14.21.21Zm.9,9,.14-.55H139l-.07.48Zm1,5.52-.35-.07.55-.28ZM139,42.65l.55.14-.28.35Zm.69-1.38h-.55l-.35-.28.35-.41h.55L140,41Zm.76-5.45-.41-.14.34-.28.41.14Zm.35-2.9-.28-.35.55-.21.14.62Zm.55-4.14-.14-.55v-.62l.21-.48.55-.28-.35,1.59Zm.35,19V47l.41.14Zm.28-13.39h-.28l.14-.35h.28Zm.14-1.45-.41-.48h.55Zm-.28-7-.14-.35v-.55l.41.14.28.35.48.07.14-.69.62-.21-.14.48.48.41-.41.07-.35-.21-.76.48Zm1.17.9v.28h-.28v-.28Zm-.07,2.62.48.35-.07.48-.9-.76Zm-.07,10.15.48.21L143,40Zm23.25-1.52-.35.07.35-.34Zm.83-1.1-.35.35h-.48l.69-.83h.35Zm.83,1.1h-.21v-.28h.21Zm.9-.69-.21-.21.35-.14Zm4.14,0-.07-.62.41.21.14.41ZM172.22,34l.48-.28v.35Zm1.38,2-.07-.55-.41.07.07-.55.69-.21.21,1Zm0-2.9.28-.28.48.14.28.34-.34.35-.48-.14Zm1,1.38-.34-.14v-.28l.07-.07.41.07Zm.55.48.21-.41.35-.35h.41l.14.55Zm1-2.07-.55.28.07-.55.69-.28Zm1,.28-.48-.21-.14-.55.62.21.41.35Zm1.38,1.93-.41-.28-.21-.48h.9l.07.41Zm.28-5-.28-.48H179Zm-.48-1.1v-.48l.41-.48.69-.07-.28.41Zm0-2.69h.35l.14.48-.41-.07Zm1.38,5.18-.14-.48.28.14Zm.14-1V30l.35.28Zm.07-1.45h-.69l.28-.55.69.07Zm1-1.38-.48-.35-.55-.14.14-.48.34-.28-.69-.14-.41-.41.41-.28h.48l.07.41h.41l.14-.62.48.28Zm1.73,3.59-.41-.21.07-.41.35.14Zm1.17-2.21-.14-.62.41.55Zm-.35-5,.48.07-.07.48-.41.07Zm-1-3.24h.21v.28h-.21Zm.48,1.45-.41-.07-.07-.35Zm-.48,3.52h.62l-.21.41-.41.14Zm.35,1.1.55.07-.14.62-.62.76-.55-.14v-.69l-.21-.62.21-.41Zm-.9-2.35-.62.9-.48-.21-.9-.35.14-.55.69-.9.41.07-.28.41-.48.21.55.28.35-.41.76-.07Zm-.07-3.45v.48l-.41-.21Zm-1,.07.48.07-.48.28-.41-.28Zm-.69,1.66-.35.21.14-.55Zm-.62-1.45v-.28l.41.28Zm.14-2.21.14.41-.55-.07-.35-.21-.14-.48ZM179,22.77l.28.55v.62l-.41-.41-.14-.62Zm.07,1.86.28.21-.28.48-.48.28-.48-.21-.41-.41-.48.07v-.35l.28-.41.76.76.35-.48Zm-.69-4.55-.35.07-.07-.41ZM178,22l.14.62-.48-.14-.28-.35-.41-.14.14-.62.35.21.07.55Zm-1-3.31-.07.48-.28-.48Zm-.07,1,.48.28.14.62-.62-.28-.28-.48Zm-1.31-1.93.28.14-.14.28-.28-.14Zm.21,1.86.55-.07.14.76-.41-.28-1.52.69.28-.48v-.48l-.28-.48.48-.21Zm-1.86,2.62.28-.69.62-.21h.62l-.14.34h-.62Zm.48,1.52-.48-.14.28-.41Zm.28-6,.21.55-.55.35-.07-.55Zm-1.52,1.93.41.14-.41.62-.14-.35ZM173.05,21l.35.28.35-.76.55.14-.21.62-.69.9-1,.28.62-.83-.28-.35L172,20.5l.07-.55.62.14Zm-3,1,1-.48-.35.21-.28.55.14.62h.48l.55.28.28-.35.48-.07-.14.62-.55-.07-1,.48-.28-.41-.14-.62-.48.76-.41-.21-.21-.41.41-.14.35.28.21-.48Zm1.79-2.42.21-.35.41.07-.21.41Zm.55-2,.21.35-.55-.28Zm-1.86-1.17.14.35h-.62Zm-.76,1.86.41.35.07.69.55.07.34-.28.14-1.17h.62l.14.9-.55.21-.62.76-.21,1.59-.76-.14.21-.34.07-1-.55-.14-.07-.48ZM169.53,21h.28v.28h-.28Zm-.35-.35.21.35H169l-.21-.48Zm0,4.69-.07-.62.55-.28-.14.9,1-.55,1.1-.35.14-.76,1.24-.14-.9.62,2.28.21,1-.07-.41-.83-.07-.55.9.76,1.24-.48.41.21-.21.55-1,.48.35,1.17.41.41.55.21-.07.41.28.21-.41.28-.21.41.14,1-.9.9.28.83v.55l-.69-.21-.28.48-1.38.9-2.28.48-.35.34v.55l-.69-.34-.41.28-1.59.35-.41.28-.41-.14-1.79.07-1.1.21-.07-.55.14-.55.35-.35-.21-.62.21-1.1,1-1.79.21-.9.41-.14.9-1.17.48-.28-.21-.83.76-.14-.35-.14-.41.14.14-.28Zm-1.24-.07.48.21-.28.35h-.48l-.14-.48-.55-.28.41-.48,1.17-.48.07.62h-.55l-.41.14Zm-.07,1.31-.35.14V26.5Zm-.76-1.24v.48l-1.1.14-.41-.41-.48-1.1.35-.35.34,1,.28.41.55-.41ZM167,27.61h-1l-.28-.55-.14-.69H166l.76.69Zm-2.14-4.21.41-.14.35.55Zm.28,4.35.21.28-.41.35-.48.14.35-.35Zm2.62-8.7.69.07.21.62-.69-.21-.69-.41Zm-2.14,1-.14.35-.21-.21Zm-.9,1.52h-.28l-.07-.07Zm-.28.14L165,22l.34.41h1.17v-.69l.14-.62.28-.35.55.83.55.14-.48-.34.41-.35.48.48-.21.48.35,1-.55-.28-.9,1.24v.41l-.9.48.14-.62,1-2-1,.21-.14.9-.41-.35-1-.41-.48-.34Zm.28,2.21-.07.41-.41.07-.14-.48Zm0,1.79-.35-.21-.14-.48h.35Zm-1,1.73.21-.62h.48l-.14.62-.35.41h-.48ZM163.46,33l.35.48h-.35Zm-.69,2.14.41.62-.48.14-.14-.62Zm-.48-2.55v-.35l.41.35Zm.62-5.87h-.21V26.5h.21Zm-.35-2.62-.55-.41.69-.14ZM160,33.4l.16-.27.55.07.55-.69.41-.28-.76,1.45-.41.41-.57-.44Zm1.27.7.48.21.07.55-.55-.21Zm.41-3.52V30l.48.41Zm.14,2.55.41.35-.41.28Zm-.14-10.84.48.14-.48.48Zm0,2.62.48.14-.07.41-.28.28-.28-.35Zm-.14,2.42.48.07-.41.28-.07.48-.35-.35Zm0,1.79.41.14-.14.62-.41-.21-.28-.41Zm-1,2.07.55-.28.41.14.14.41-.76.48-.41-.14-.48-.62Zm-2.48,6.35.13-.18.15.18Zm.76,2.07-.14-.41-.14-.48.14-.41h.41l.14,1Zm.41-4.75.47-.47.43.11L160,35.89l-.76-.14.07-.62Zm.14,3,.28-.41.69-.9.28.41v1l-.62.14Zm.35,2.28.07-.55.35-.41.48-.14.14.41V40l-.55.21Zm.9,2.07v-.41l.28.21Zm1.17,2.62-.41-.35-.14-.62h.55Zm.14-2.9-.14-.41H162Zm0-2.69.48-1.24-.76.14-.76-.76.21-.55.41-.34-.48-.55-.28.41h-.41l.28-.48,1.17-.41.35.48.9.69.41.48-.69.9.07.62-.48.69Zm1.93-.9.21.41-.76.28.14-.83Zm-1.45,3.93.21-.41.07-.55H163l.14.9Zm1.24-1.59-.14-.34-.21-1.1h.41Zm.28,3.24.48.14-.07.76-.48-.21Zm.48,1.93h-.21v-.35h.35Zm-.21-11.46-.55.14V34l.48-.14.41.14Zm.35-2.28.21-.41h.35Zm1.1,7.18-.41-.21.28-.21.35.14Zm1.1,8.83-.48-.14.07-.48h.41ZM197.2,16l-.14-.76.48.14.14.35Zm2.07,2.62-.55.07-.34-.41.62-.14h.55Zm.62-1.79.35-.28.41.07-.28.48-.62.28Zm.28,2.83.14-.48.21.62Zm.21-.76v-.76l.55.28Zm.55,1.38v-.21l.35.14Zm.28,4,.07-.69.55.28Zm.62-2.83-.55-.14.55-.48Zm-.28-4.21-.35.28-.07-.55.28-.62h.41Zm.48,2.28-.07-.62h.35Zm7.45,11.11.35-.35.62-.14L210,31.61l.28.41-.07.48-.41.21.07-.76-.41-.41.28-.48Zm-.14,13-.55-.14h-1.38l.21-.34L208,43l-.14-.9.48-.21.28-.28-.55-.28-.21-.62.48.07.28.28.28-.48.48.21.28.41-.28.48-.76.83Zm.48-9.18-.9.34-.48,1L208,35.4l-.21-.48-.21-1.1-.28-.48.28-.14.9,1.38.14-.48.35-.41.55-.14-.07.55Zm-1.1,2.69.48.28-.48.21h-.62l-.62-.28-.35-.48Zm-.14,1.17-.28.21-.28-.35Zm-.76,1.24-.14.28-.41-.28.14-.48ZM207.41,41l-.14.48-.76.48-.28-.21.14-.48.76-.55Zm1.66-5.66.41-.21.83.76-.48.07Zm-.41-2.83.41-.48.62.55-.35.35-.48.14-.55-.14Zm-.48-1.86-.14.41-.48.07-.14-.62ZM207,27.05l.28.41-.28-.14Zm0,9.8-.41.21-.41-.07.21-.48.28-.41Zm-.76-5.18.21.35H206ZM204,39.2l.28.48h-.62Zm.48,1.66-.07-.55H206l-.48-.28-.07-.41.14-1H206l.48-.9.83.48.07.55-.62.07-.55.83.55.28-.21.41-.41.21-.55-.14-.69.76-.55.14.35.28-.41.14-.48-.14Zm.07,2.76h-.41l.14-.48h.28Zm1.86,3.11-.9.21-.35-.48-.55-1.17.83.35.48.07-.28.48.9.14Zm.9-2.28-.55.14-.35.55L206,45l-.21-.48.41-.21,1-.28.41.21.28.41Zm3.11,1.24.48.35v1l-1-.14-.28.55-1.24-.41.35.48.14.69-.9-.21-.48.07.14-.55.48-.21-.21-.41v-.48l.55.07.69.34.48.07.34-.28.07-.41-.14-.55-.48-.41-1.17.55-.21-.48.21-.55.62.14.28-.35.07-.48.41-.21-.07,1h1l.35.35-.55-.14Zm2.14,3.8h-.28l.14-.35h.28Zm12.42-10.56-.29,0,.12-.11Zm.14,1.38-.55-1.17h.41l.28.9.35.28Zm1.38-.48-.41-.14-.14-.41.69-.14Zm.14-2.69-.35-.14-.21-.41.69.14Zm.62,3.31L226.8,40l.69-.14Zm.21-13-.28-.48H228Zm4.07-.9-.41-.07.14-.69.28.28Zm1.24-1.73-.48.07-.14-.41.28-.35.48.14Zm.14-1.52-.62.28v-.55l-.14-.41-.69-.07.28-.41.9-.34-.07.62.55.28ZM234.12,21l-.35.41-.28-.62Zm-.9-1.79.35.35-.14.35-.41-.14Zm-1,.69-.28.28-.41.07.14-.48Zm-.9-.76.14-.41.21.62Zm-.14-1.17.35.28-.35.07Zm.48,3,.48-.35h.69l-.69.62-1,.35-.28-.48Zm-.76.9-.14.55-.35-.28Zm-.76-2.76.14.35h-.48Zm-.76,1,.41.21.21.48-.21.21-.55-.35Zm.07,3.93h1.1l.62.28v.62h-.55l-.07-.62-.48.28v.55l-.21.48-.28-.41-.62-.83-.07-.55Zm-.69,3.59.21-.14.41,1H229V28Zm.14-4.55.07.48-.28.07-.48-.21Zm-.76,3.45.55.21-.69.41Zm0,2.28.76.48-.48.14Zm.55,13.32h.48l-.07.48Zm.48,5.45.14-.35.41.48Zm.28-14.15h-.62l.14-.62.55-.76.62.83Zm.83-4.14-.28-.48.48-.28.41-.48.55.48-.48.35-.07.28Zm13,16.91V46l.41.21Zm4.21-.21.14-.28.14.35Zm1.52-21.67v-.55h.41Zm.9-1.66-.28-.28.07-.48.21.28ZM255.09,19l.28.35-.14.41-.21-.34Zm.14,4.83-.14.41-.35-.28.07-.35Zm-.41-1.24v.48l-.35-.48ZM252.26,19l-.07.55-.21-.35Zm0,2.28.55-.28.35.41h-.69l-.55.28Zm-1.38,11.39h-.28v-.28h.28Zm-.14-3.31.14-.55.35.41Zm.28.9V30h.48Zm.62-5.66h.76l-.35.76-.35-.21Zm.76,5.52-.35-.28.35-.28Zm-.21-2.07.14-.41.21-.35.21.48Zm.76-1.52h-.62l-.28-.48,1.24.14Zm0-1.52v-.28h.21v.28Zm.83-1.38-.41.35-.62.14-1.17-.21-.41-.28.14-.69.35.28.14.48.55-.14.35-.34.41.28.83-.41Zm-.07-1.31.21-.35.21.35Zm.83,2.9-.21.07-.14-.48.14-.41.48.35Zm.69.14-.28-.48.48.07.28.35Zm2.14-8.76.21.35-.21.28Zm-.35,3.8-.35.34-.21-.34Zm-.9-1.66h.28v.41H256Zm.55,3.59L256.4,22l.41.07.35.55Zm.48-3.17-.14-.41.48.28Zm.35,2.69.28-.41.35.14.14.41Zm.35-.83-.35-.35.62-.21.55-.28-.14.76Zm.83,2.21.14-.35.21.35Zm.62-3.17-.14-.41.35.21.21.35Zm1.1,2.28-.62.28.07-.48.07-.41h.55ZM262.61,19v.41l-.41-.28Zm0,3.17-.69-.14-.07-.62,1,.28Zm1.79,17h-.28v-.28h.28Zm.62-1.52-.34-.14.07-.62.55-.14Zm5.11-5,.28-.28h1v.9l-.76.14.07-.55Zm-.41,3.8-.48.14-.21-.55-.55-.35.48-.28-.21-.21.41-.14.21-.41h.35l.14.62h-.76Zm-2.9-5.73.48-.76-.62-.28.21-.41.55-.07.21,1,.55,1h-.62Zm.28,7.52h-.41V38Zm.07-12.22.55-.14.14.48V28l.21.35-.35.35-.55-.07.28-1-.35-.35.28-.35V26.5Zm1,8.76-.14-.35.35-.48.55-.21Zm1.52-2.76-1,.55-.55-.07.21-.41.07-.41-.14-.48.55.28h1.24Zm1.17-6.69.9-.55.62-.21v.9l-.62-.14-.35.48-1,.69-.55-.07-.34-.41h1.1l-.21-.48-1-.14-.21-.41-.48.14-.41-.21-.14-.41.48-.07,1-.14.41.21-.28.48Zm-.41-4.14V21h.28v.28Zm.14,2.14H271l1,.48-.69.9-.48-.21Zm-1.31,4.28-.55.21-.28-.69,1.24.14Zm.21,1.31-.55.28.28-.55Zm.62-.14.48.9-.62.62-.28-1.24Zm-1.31-3,.28.48-.41.14-.41-.35-.07-.55Zm2.28,4.69L270.9,30h.41l.07-.48h.41l.07.41.41.21-.76.62ZM273,33.2h-.28v-.35l.35.07Zm.07-4.42-.48.35-.28-.76h-.55l-.28.35-.41.14v-.48l.28-.55.07-.48.48.14.41.07.28-.35.35.41.21.62Zm2.21-4.21h.35v.35h-.35ZM275,26.09l.28.35H275Zm-.35,3,.07-.14.41.14v.28l-.14.14-.35-.14Zm-.83-2.28v-.41l.69.41Zm-.07-1.31-.55-.21.41-.28.48-.14Zm-.83-2.69.69.07-.41.62.35.21-.07.55-.62-.55h-.55l.21-.48Zm-1.52-1.38.14-.48.62.21.28.41-.48.48-.41-.21-.9.14.28-.48Zm-1-1.66.35.28h-.35Zm-1-1,.35-.07v.76h-.35Zm-1.31,2.35.55.21.41.41h.34l.14.76,1-.28-.35.9.28.21-.41.28-.76.14.07-.48-.14-.55-.35-.48-.76.07-.55-.28-.21-.41.14-.35Zm-.48-1.52-.21.48.21.62-.28.14-.21-.48L267,19.6Zm-3-1.31v.41l-.55-.28Zm.35,5.31-.14.41-.41-.28-.14-.41.21-.41.35.21h.55Zm.62-3.17.69.9-.41.28h-.35l.14-.55Zm.62,4-.07-.76.76.35V23.4l-1-.62-.21-.55.55-.07.35-.28.35.41-.07.69.28.55.41.07.35.41-1,1-.48-.21Zm.28,14.84.14-.62.41.14v.69l-.76.21Zm.14,2.07-.48.28v-.34l.48-.28Zm.14,3.93v-.35l.48.28Zm.41-2.42v-.35l.21.35ZM267,41.48l.35-.21.28.34Zm.62-7.87-.41-.41v-.48h.55l.28.62ZM269.24,48l-.28-.35.55.07Zm0-3,.14-.48.14.62Zm-.07-3.38-.14-.55.07-.48.35.14.35.48.07.69Zm1.31,2.14-.07-.48.35.14Zm0-.9.14-.62.28.35Zm-.07-3.93-.48-.41-.41-.14-1.31.69-.14-.48.48-.35,1-.55.41-.41.41.28L270,38l.28.28.35-.62L271,38Zm.76-3.93-.55-.14-.48-.76.48.48.76-.35Zm.21,12.08v-.62l.48.35Zm.14-9,.62-.14-.28.62ZM273,46.45h-.21v-.28H273Zm25.25,10.63h.41l-.41.48Zm-3.66,12.08v-.28l.35.28Zm3.66-6.63L298,63.7l-1.17,1.73-.21.55-2.76,2.28-1.1.14-.35.28-1.66-.07L289.38,68l-.9-.9-.28-.55V65.43l.41-1,.76-.83,1.86-1.31,1.86-1.1,1.1-.14.9-.62.62.21.35-.28.62-.21,1.73-.14.28.48.35,1.79Zm1.45,5.38.07-.41.14.41ZM313.19,43.2h-.35l-.14.48-.55-.14.21-.55.41-.34.55-.14ZM311,42.72l1-1.31.76.14v.21l-.69.83-.62.21-.21.35-.41.14Zm-.55-.83-.14-.48.35-.14.14.62Zm.48-3.31v-1.1l-.41-.28.41-.41.55-.14.48.28-.41.76.28.28.35-.35-.07-.55.76.14-.28.55-.76.69v1.1l-.14.55-.48-.14.07-1.1Zm-.76-3.38.48-.07-.14-.9.69-.07.48.9v.48l-.35-.55-.55.14.14.55.41.14-.55.48-.35-.34-.14-.41-.69-.14-.35-.48Zm-1-5.8v-.21h.28v.21Zm.76-2.42.14-.48.41.48Zm3.86-1.66v.41h-.55Zm-.55-1.38h.55v.76l-.48-.21Zm.07,3.52.48.07-.14.48H313Zm-.55,4-.14-.55.76-.07-.14.48Zm.35,1.86-.62-.34h.48Zm-.62-7,.14-.48.28.48Zm.41,5.59-.41.34-.48-.34-.62-.14-.28-.21.14-.35.21-.35.62.21.34.48Zm-.69,1.17-.07.41-.41.48v-.55Zm1,6.63h-.69l-.14-.41.62-.14.55.28Zm2.14.35H315l.14-.35h.28Zm.14-5.94-.28.41-.48-.07.35-.41.41-.35L316,34l-.28.28Zm-.41-5.8v.55h-.48l-.14-.28Zm-.62-3.66v-.41l.28.21Zm1.52,6.42.14.48h-.69l-.48-.14.14-.62Zm.41,4.42h-.41v-.41h.41Zm-.55-11.32v-.41L316,24Zm-.21-2.76.21.28-.48-.07ZM315.12,27h-.28v-.34h.41Zm-.28-2.9-.62-.28.28-.48.28.28Zm-.21-1.93.07.48-.28-.28-.35-.21Zm-.55,7.11.28.41-.28-.14Zm.14,6.56.41.34-.14.69-.28.48-.55-.14-1.17-.83-.21-.48.48.21.55-.21.76.69Zm-.62-1.66v-.41H314l-.14.41Zm.35-5-.14.35-.62-.48Zm-.21-6.63-.35.48h-.69l-.14-.62Zm-1,1.79.21.48-.55-.07-.48-.41v-.55Zm-1-1.79.28.07-.14.28-.28-.14Zm.35,2.48.14.55-.41-.14-.21-.41Zm-.35,1.79.14.55.48.21-.28.55h-.62l.21-.48-.28-.48Zm-.41,2.9-.28,1-.48.14-.07-.48.41-.9.35-.28Zm-1.17-5.11.35-.28.21-.41h.55l-.35.48-.48.35-.21.55-.55-.48Zm-1.38,2.21.69.14-.28.41-.48-.14Zm-.07,7.32H309v.21h-.21Zm-.28,3h.62l.07.69.28.41.07.9,1.1-.21.28,1,.41.28.48.07v.76l-.62-.21-.55.21-.28-.83-.41-.28-.69-.14-.07-.62-.83-1.45.48.14v-.48Zm.48,3.45.9,2,.76.62-.14.55h.62l.35.21.21.41-.62.14-.41-.55-.14.28-1-.76-.28-.48v-.76l-.76-.69-.28.9h-.62L307,41.13l.9.28-.07-.55-.07-.62.55.28ZM307.12,39l.48.07.28.28v.55l-.62-.28Zm-2.69-17.6-.28.48-.35-.35Zm-3.24-1.24,1.17-.28.48.14.21.48-.62-.14-1.59.14Zm1.45,1.24v.28h-.28v-.28Zm-2.48-.21.55.21.14.62.41.41-.28.35-.41.07-.48-.21.14-.69-.14-.55-.48-.14Zm-1,1.45.28.41-.28-.14Zm-1.66-1.17.62-.83.76-.62.14.41-.14.48-.83.07v1l-.41.21-.28-.14Zm1.17,3.11h-.41v-.35Zm-1.31-1.52h.69l-.28.28-.41.07Zm-.62-3.17-.35.35-.28-.35Zm-.48,1.73.35-.21-.21,1-.28-.35Zm.35,1-.07.48-.28.35-.21-.48Zm-1.73-1.93.62-.14-.07.62-.48.28-.21-.14ZM294.49,22l.48.14-.07.41-.41.07Zm-.55,1.17.48.14.07.48.35-.35.28-.41.48.35.14.48-.14.55-.35.48-.41.28.62,1-.07.55-.41-.35-.21-.48-.28-.28.21-.34.07-.55-.9-.9Zm-.83,6.21-.14-.48.35-.28.28.62Zm.35.62-.28.14v-.35Zm0-7.87.28.41-.41.07-.35-.34Zm.41,3-.14.62-.62-.14.21-.55.41-.35Zm-.55,1.24.14.48-.48.41-.07-.55ZM292,24l.55-.07-.21.55-.55-.07Zm-.55,6.14-.69.28-.21-.48v-.76l.76.48Zm.35,3-.28.35-.48.14.21-.55Zm-.9,6,.14.48-.41-.14-.35-.28-.14-.48Zm-.76-1.45.48.41-.35.07Zm.48-13H291l-.14.35h-.28Zm-.9,3h.55l.28.35h-1.17ZM289.11,34l.28-.14v.48l-.28-.14Zm-.76,1.86.41.28.21.41-.48-.14-.41-.21-.21-.41Zm.07-6.69.21.48-.41-.07-.21-.35Zm-2.35,12.42v-.76l.62.14-.21.48Zm.76,1.86-.14-.55.35.28.21.48Zm.76-1.31h.28v.21h-.28Zm.55,2.14h-.28V44h.28Zm-.28-6.21.55.28.07.48-.35-.35Zm.83,7.59-.21-.35.41-.14.21.41ZM289,44.1l-.14-.55.48.48Zm.48-1.17-.48-.35-.28-.55.55.14.34.34Zm.14-5.59h-.41l-.07-.55.07-.34.41.41Zm.62,10H290v-.21h.28Zm.76,1-.28-.48h.55l.14.48Zm-.28-3.11-1,.21-.07-.55.14-.48.55.07,1.1.21Zm.76-.69-.07-.48.07-.41.9.28.41-.28.35.48-.41.41Zm1.79.21.28-.35.21.48-.62.28Zm.28,3.24-.35-.21-.14-1,.41-.07.41.07Zm0-1.79V46l.35.28Zm1,2.14-.28-.76.55.21.35.41Zm.55-3.24.07-.41.62.14-.69,1.24-.41.28-.28-.28.28-.35.48-.14Zm.9,2.21-.41.14-.41-.14V47l.35-.14h.55Zm.35,1-.07-.21.14-.41.21.28Zm-.21-2.28.07-.48.41.21.07.55Zm1,3.73-.35-.14.35-.35Zm.28-4.9L298,45l.34.48.21.62-.55-.28ZM298.84,49h-.41l.21-.69-.07-1,.48.21.76.62.14.48Zm.35-2.42.62-.07-.48.48Zm.07-3-1.17.35-3.59-1.59-.14-.62-.76-.9V39.61l-.41-.41.14-.41V35.54l.62-1.31-.21-.48.21-.48.69-1,.14-.48-.14-.48.9-1.66.76-.28.21-.55.69-1,.21-.55.69-.14,2.21-1.45,1.1-.41,1-.21h1.17l.55.14.41-.35.35.14-.14.48.35.28,1,.34.14.48,1,1.24.21.48.21,1.52.34.48-.21.48-.07,1.1-.28.48.14,1.1-.28.48-.48,1.73-.48,1-.41.41.41.76-.69.14-.07.55-.21.41-1.52,1.38L303,41.75l-.62.07-.83.55.14.69-.34-.41Zm7.11-2.48-.69.14.14-.76,1,.28Zm.21.76-.34-.28.21-.21Zm-1.79,1.17-.62.14-.14-.48v-1h.41l.07.48.21.35Zm-3.38.76v.48L301,44.1ZM300.7,48l-.14-.9.28-.14.76.62-.35.35ZM302,49.41l-.55-.28.76-.76-.48-.76.41-.21.21-.41-.28-.21-.48-.07-.07-.69.21-.55.41.28.69.76.28.48-.21.55v1Zm0,5.38.48-.14.62-.69.21.55-.07.41-.28.35-.48.14-.41-.14-.35.28Zm.9,1.59.14-.48.28.14.07.48Zm.83,2.55.41.21.28.41v.55l-1.31-.35.21-.62Zm-.69.14-.48.21-.21-.41h.55Zm-2.07.14.48.14-.07.48L301,59.7Zm.48,4.35-.35-.14.28-.62.41.28.21.48Zm.28-7,.48-.07.28.55v.55l-.48-.41Zm.41,3.73.21-.41.55-.07-.35.48Zm.76,1-.28-.28.41-.28.48.35.14.34-.62.35Zm.21,2.28.28-.41h.34l.28.41Zm.76-2.28h.55l.14.76Zm1.66-2.07-.62-.28.21-.35.41-.14.14.41Zm.69-2V56.8l.34.41Zm.62-.76-.76-.14.21-.48.28-.41V54.8l.28.07.07.48-.14.48Zm1.17-5-.55-.41-.55.07-.35-.21-.34.41.14.69.35.41h.48l.14.55.76-.41.28.76.48-.14.69-.48-.14-1,.62-.21.28.21-.41.76V53l-.35.14-.14.35H310l-.07.55.21.48-.62.28H309l-.35.83-.9-.07.34-.41v-.62l.48.21.41-.07-.48-1.17-1.17.41h-.48l.35-.69-.76-.9-.41.21-.21.35v1l-.48.14L304.7,54l.35.9.76.28-.14,1-.48,1-.83.62-.55.21.28-.48.48.07-.14-1.38L305,56l-.14-.41-1.1.14V55h.76l-.14-.41.14-.48h-.9v-1l.48.21.62-1,.41.21.35-.07-.28-.35-.83-.41-.41.41-.62.21-.28-.21.21-1.1-.55-.21.14-1.17.28-.41.48-.21-.14,1,.55.35-.07.55,1.31-.62v-1.1l-.28-.28v.9l-.35.21-.28-.35.35-.28-.62-.76.14-.76.41.14.76-.14.35-.55.55-.34-.83-.76-.14.28.07.48-1,.34-.69.62-.55.21.14-.55-.14-.48.9-.28-.28-.41-1-.35.35-.62-.48-.9-.41-.28.28-.48L303,44v.76l.48-.14,1.24-.76.14.76.48.28.35.48.48.28v-.48l-.76-.69-.28-.41.35-.55.48-.21.55.14-.07.55-.28.35.21.41.41.21-.07.41.41.28.55.07v.62l.28,1-.69-.14-.14-.55-.28-.41-.48-.21v.9l.55.21.62.83,1.24-.76h.55l-.28.48.14.55.41.35.07-.55.55-.83-.55.35-.21-.35v-1l-.62.14-.41.28-.62-.41.62-.48-.76-.14L307,44.31l.14-.48-.35-.48v-.55h1.38l.07.48-.21.41h.62l.28-.48.76,1.66.48-.21.41.14.28.41-.14.48.07,1,.35,1-.55.21-.62.83.48.76-.69.83-.14.55Zm.62.62-.55.14-.34-.55Zm2.28-1,.14-.62.34.48Zm.9,1.38-.35-.28-.07-.62,1.17.28Zm.55-2.69.07.69-.41-.28L311.4,50l.41-.9-.41-.21h-.55l-.35-.41h.41l.48.14v-.41l.69.69.48.21Zm-.55-2.14v-.35h.35l-.07.35Zm.76-2H312l-.48.21.07-.41.21-.35.62.21.62-.07Zm2.28,4.07-.21-.28.21-.28Z"/><polygon class="87b2bf35-1d2c-4a5d-adf4-3c69074cf228" points="308.5 44.17 308.36 44.86 308.77 44.58 308.5 44.17"/><polygon class="87b2bf35-1d2c-4a5d-adf4-3c69074cf228" points="308.5 45.34 308.98 45.2 308.5 44.93 308.5 45.34"/><polygon class="87b2bf35-1d2c-4a5d-adf4-3c69074cf228" points="23.53 99 23.6 99.35 24.01 98.86 23.53 99"/><polygon class="87b2bf35-1d2c-4a5d-adf4-3c69074cf228" points="123.17 88.93 123.17 89.48 123.58 89.48 123.17 88.93"/><polygon class="87b2bf35-1d2c-4a5d-adf4-3c69074cf228" points="120.61 88.79 121.16 88.58 121.51 88.24 121.51 87.82 121.16 88.03 120.75 88.24 120.61 88.79"/><polygon class="87b2bf35-1d2c-4a5d-adf4-3c69074cf228" points="118.33 94.03 118.47 94.66 119.09 94.66 119.16 94.1 118.89 93.76 118.33 94.03"/><polygon class="87b2bf35-1d2c-4a5d-adf4-3c69074cf228" points="186.3 116.95 186.02 116.95 185.88 117.22 186.3 116.95"/><path class="87b2bf35-1d2c-4a5d-adf4-3c69074cf228" d="M219.28,71.67l-.14-.21L218,71.05l-1.66-.21-1.59.28-.9.41-.83.69-.55.14-.48.35-.76.9-.07.9-.69,1.24.28.76.07,2.07.21,1,.48.35,1,1.52.76-.07.14.48.35.28,2.28.28.55-.21.48.28.83-.28.48.14,1.93-1.31.48-.07.21-.62.83-.76.35-2.28-.14-.55.41-.28-.28-.62v-.62l-.76-.62.14-1-.55-.35-.69-.14.35-.69-.48-.28-.69.07.14.9-.9-.14.55-.76Zm-7.8,5h-.28v-.21h.28Zm1.17,1V77.4l.14-.14Zm5.87-3.8-.28.48-.14-.48Zm-1.79,1.31.28-.28.55-.07L218,75l.35.41-.76-.07-.9.41Zm-.62-3.24h-.28l-.14-.14ZM214,76.5l-.21-.35.55.14Zm.41-1.31.07-.55h.35l.28.62.62-.28.62.14-.35.55-.41.35-.62.28-.21-.62Zm1,1.45-.14.28h-.48Zm.14,4.07-.48-.14.14-.48h.62l.14.41Zm.28-1.52v-.62l.35.14Zm1,.14-.48-.41.41-.35-.34-.34-.28-.41v-.62l.48.21.28.48v.41l.55.62.07.55Zm1.31,2.14h-.28v-.21h.28Zm-.48-.62.14-1.1.35.07-.07.62.21.41Zm.62-1.24.14-.55.21.35ZM218,77.47l-.62-.28-.35-.41.14-.48,1,.41.28.35.14.62Zm3,.48-.41.48-.35-.35-.48.28-.21.48-.62-.14-.14-.62.55-.28.35-.55.83.62Zm-1.73-2.55.07-.41.62-.21.35.48-.62.14.41,1-.55.14-.55-.14-.41-.28Z"/><polygon class="87b2bf35-1d2c-4a5d-adf4-3c69074cf228" points="288.9 119.5 289.11 119.91 289.04 119.16 288.9 119.5"/><polygon class="87b2bf35-1d2c-4a5d-adf4-3c69074cf228" points="288.76 114.67 288.63 115.36 289.04 115.08 288.76 114.67"/><polygon class="87b2bf35-1d2c-4a5d-adf4-3c69074cf228" points="284.69 116.88 285.18 117.15 285.59 116.74 285.04 116.6 284.69 116.88"/><polygon class="87b2bf35-1d2c-4a5d-adf4-3c69074cf228" points="284.97 115.43 284.42 115.77 284.28 116.19 285.04 115.98 284.97 115.43"/><polygon class="87b2bf35-1d2c-4a5d-adf4-3c69074cf228" points="285.18 121.98 285.45 121.78 285.18 121.57 285.18 121.98"/><polygon class="87b2bf35-1d2c-4a5d-adf4-3c69074cf228" points="288.76 115.84 289.25 115.7 288.76 115.43 288.76 115.84"/><path class="87b2bf35-1d2c-4a5d-adf4-3c69074cf228" d="M310.57,102.45l-.41-.62-1.24-.07-.9.48-.48,1-.07.62-.76.41-1,2.14-1.52,2.42-1.31,1.79-.07.69-.28.41-1,.41-.28.55-.76.9-.21.62-.83.76-1.86,1.38L296,117.84l-.62.07-.76.48.14.9-.69.14-.21-3,.35-.34.21-.48.21-1.1-.62.07-.14.41-.41.21.28-1.31.35.21.55.07.69-1.31.35-1,.21-1.73.76-1,.07-1,1-2.62.07-1,.41-.28v-.69l.14-.48-.07-.48.55-.48.21-1.17.83-2.14V97.9l.35-.55,1.17-4v-1.1l.35-.41.41-1,.14-1.31.35-.41.14-.55-.07-.55-.55-1-.41-.28h-7.66l-1.38,1.17v.48L292.28,90l-.28.41-.41.28-.9.14-.55-.28-.48-1-.76-.76L286,87.13l-.83-.69-.62.07-1-.35-1,.14-.48-.41-4.35.62-.55.48-.55.07-.48.35h-.69l-2.14,1.79-.55-.14-1.45,1.59-.83.62-.48.21-2.83,3.31-.35,1-.55.9-.14.48-.41.28-.48.9-.62,2.14-1,1.93-.14.55-.07,1.86-.34.48-.14.55,0,.18-.09.16.2.45,0,.17h-.64l-1.93,3.31-1.31,1.73-1.59,1.45-.21.62-.41.41-1,.35-.9.55-1,.14-.48-.21-.69-.83-.48-.28-.14-1,.14-1.24.62-.62.28-1.66,1-2.9V106l-.14-.48.69-.28-.07-.41-.07-.48.48-.48-.14-.48.21-.9.48-.9.35-1V99.9l.62-.9-.07-.55.28-3.45-.07-1-.48-.76.14-.41-.07-.55-.41-1.17-.07-.69-.55-.35-.35-.55v-.62l-1.52-1.52-1.17-.28-.69-.76L249.23,86h-1.1l-1,.35-.62-.28-1,.48-.55-.07-1.79.9-.41.34h-.55l-.41.21-1.31,1.1-.48.21-.62-.76-.14-.48.21-.48L238.6,87l-1-.28-2.21-.14-2.21.28-.35-.21h-1.59l-1,.14-.28.41-.48.35-.21,1.1-.48.9-.07.41.14.48-.35.34L228,92.24l-.48.62v.76l-.28.41.14.62-.62,1-.14.55.21.62-.62.83-.62,2.28-.28.48.55.48-.55.35-.35.48.13.47-.08.36-.26.13-.48.76,0,.3-.87,1.22-.35,1v.62l-.62.28-.69,1.45-1.86,2.62-.48.9-.55.28-.62,1-.62.28-.76.9-.69.21-.48.41-.55-.07-1,.48H213l-.55-.14-1.17-1-.41-1.45.28-2.62.41-.48-.14-.69.41-.35L212,108l-.14-.55.07-.55,1-1.79.14-1.66,1.38-3.11.21-1-.07-.55.35-.41.55-1.66V94.86l.41-.35.69-1.45.35-.35-.14-.9.48-.9.07-.62-.21-1,.55-.21.35-.41-.28-.55.28-.62-.35-.35-.41-.28-1.59-.21-1.1.21-.62-.41-.62.21-1.1-.14-.55.21-1-.21-.35.35-1-.28-.41.28-.62.83-.48.21v.62l-.9,2.69v1l.21.48-.41.28-.48.9-.35,1.1-.48.9v.48l-.35,1.1-.34.35L204.51,99l-.69,2.14-.07,1.1-.35.48-.23.54-.11.15-1.31,2.48-.07.62-.83.76-.62.9-1,2.14-1.24,1-.69.83-1.1,1.79-1,.55-.41.41-.62.07-1,.48-.28-.21-.48-.07.14.9-.41-.28-.21-.41.14-.48-.76-.21.07-.48-.35-1,.55-2.14.76-2.21.48-1v-1.24l1.24-3.93v-1.1l.28-.41.14-.55L194.37,99,194,96.86l-.41-1.17-.55-.9-1.31-1.52-1-.28-1-1.31-.55.07-.83-.55h-.55l-.9-.9-.9.14-.28-.48-.55-.35-.62-.14-.62.07-.41-1.45.83-3.73v-1.1l-.14-.62-.41-.21-.48-.14-.62-.9-1-.55-1-.28-1.17-.07-3.31.76-1.31,1.52-1.17,1.86-.34,1.1-.14,1.1.35,1.1-.07.55.62.76v.55l.21.48L175.53,92l.14.55-1.1,2.35v.62l-.55.62-.41,2.35-.28.35-.55.21.14,1-.48.34-.55,1-.14.48,0,.6-1.55,2.78h-.41v.9l-.48.21-.69,1.38-.41.28-.55.14-.21.55-.76.9L165,111.15l-.28.48-.62.14-.48.9-.9.62-1.93.9-.48-.14-1.24.69-2.14.62-2.28.07-1,.35-1.79-.21-.55-.48h-.62l-.62-.55-.9-.14-1-.76-.48-.21-.48-.9h-.55l-.35-.28.35-.14.28-.34-.69-.9.14-1,.34-.41.55-.28h1l1.31-.62.48.07.48-.21.55.35.28-.35.48.48,2.83-.55.9-.35.35-.35,1.1-.14,1.59-.83,1.1-.35.35-1,.41-.28v.62l.69-.14.28-.55.07-.55.55-.07,1.52-1-.21-.55.07-.48.35.21.41-.07,1.52-2.21L166.5,98l.14-1.1-.41-.55.41-1.1-.28-.62V93.41l-1-2-.35-1-.48-.28-1.1-1.17-.9-.55-.69-.07-.69-.76-.83-.62-.48.07-1.45-.55-.48-.07-.55.14-.41-.35-1-.28h-1.17l-2.62.62-.41-.21h-.55l-.83.48-.76-.28-1.17.62h-1.17l-.9.55-1,.35-.41.76-1,.41-1.73,1.17-.69.76-.48.21-.76.69-.9,1.31-.76.69v.76l-1,1.17-.55.9-.07.48-.41.28v1l-.76.48v.62l-.9,2.48-.21,1,.21,1-.21.48-.09.64-.32.12-.14.62-.9,1.17-.14.62-.76.55-.28.41-.21,1.1-.76.14-1,1.24-2.42,2.14-1,.62-2.07,1-2.28.14-1-.35-.28-.41-.76.14.07-.55-.48-.35-.14-.9-.62-1.52.35-.28.21-.48.35-2.28.41-.55V107l.48-1,.21-1.24.35-1.1.34-.48.07-1.17.21-.55.35-.41v-.55l-.14-.35.62-.9.69-2.21-.41-.62.9-.28-.21-1.24,2.07-.55,1.1-.14,1.1.21.48-.21,1.17-.07.41-.28.76.55,1.79-.14.62-.35.48-.76.76-2.35.14-1.66.69-.76V87.13l-.9-.62-1,.41-1-.41-1,.07-.48.21-1.17-.34-1.1.21-.48-.28-.62-.14-.35-.35.07-1.73,1.45-4.07.28-2.21.55-.83.14-.48-.14-1.17-.48-.07-1-.07-.55.14-.76.69-.9-.41-1,.48-3.38,1-2.14.76-.14.55-.62.83-.07.62-.76,1.93-.07.48.14.62-.48.83-.28,1v.62l-1.45,1-.48.14h-1.59l-1,.35-.62.83-.21.55-.07,1.24-.62.69-.35,1-.21,2.48,1,.48,2.14.55-.69,3.45-.62,2.07.28.76-.41.28-.35,1-.41.41v.25l-.2.16-.13.54h0v.05l-.12.5-.76,1.38-.34,1.1-1.38,1.73-1,2.07-1.17,1.1-1.24,1.73-.55.14-.28.41-.83.69-1.45.55-1.1.21-1.17-.83L99.5,114V112l.55-2.07-.14-.48,1.17-1.52-.07-1.1-.21-.83.62-.14,1.38-4.69-.21-.62.62-.76.14-.48-.14-.55.41-.28.07-.48.28-.28-.28-.76.69-.34V96l1.1-3.38.48-1,.28-1-.07-1,.48-1.59v-.69l-.41-.41-1-.35-3,.07-1.1-.21-.41.21-1-.07-.48.35-.69.28-1.1-.35-.83,1.31-.21,1.17-.41.28-.35,1,.41.48.07.41-.48-.14-.28-.28-.14-.48L94.4,90,92,87.82l-1-.62L90,86.79l-1.31-.21L87.56,86l-.9.28L86.25,86,85.7,86,84,86.37l-1-.07.14.76-.48-.62h-.62l-.83.48-1.17.21-1.59.55-.76.9-1,.48-.62.69-.41.28-.55.14-1,1.38-.83.76-1,.62-.48,1L70,96.79l-.41,1-.21,1.1-.62.48v1.17l-.69.48-.14,1.1-.69,2.07-.14.9v.54l-4.34,5.74-.55.28-1.24,1.24-.62.14-.69.9-2.76,1.86-.34.41-1,.41-.35.35-.62-.07-.35.35-2.14.76-.41.28H50.51l-1.66.62-4.49.14-.76-.41-.14.55-.35.35-.55-.9h-.48l-.62-.21h-.76l-.9-.48-1.17-.28-.48-.28-.28-.41-.48.07-.9-.28-.14-.76-1.24-.69-.21-.48-1-1-.07-.48L33,112.6l-.41-1.17-.69-.21.14-.9-.69-1.38-.62-3.45-.48-.9.28-.41.14-.62-.21-.55-.07-1.24.14-1.17-.07-.48-.28-.48.41-.21.21-.48L31,96.59l.28-1,.55-.83L31.67,94l.9-2.21.35-.41L33.19,90l1-1.17,1-1.86,1.17-1,.83-1.38-.41-.07-.35-.35L37,84l.62.14,2.69-2.28h.62l1.93-1.38h.55l1.1-.76,1-.21.35-.35.41.21.48-.14.62.07.34-.41.48-.07,1.17.21.41-.62,1.79.76,1,.28h.62l.35.48,1,.62.21.55,1.17.48.35.41-.76.35-.62,1-.76.76v.62l-.62.21-.41.35L53,86l-.48,1.1.14.62-.21,1.17,1.31,3,.55.83.76.69.62.07,1.45.69,1.86.07,1-.21,1.17-.48h.62l1.79-1.38.14-.69L65,90.17l.14-.9.35-.48-.07-.69.41-.41.21-.55L66,86l.21-1.1L65.7,84l.21-.55V82.3l-.41-1.1-.55-.83.07-.62-.9-1.17L63.9,77.4l-1-.41-.35-.35-.21-.48.07-.48L62,75.47l-1.59-1.31L59.83,74l-.41-.83-.9-.35-.21-.41-.62-.07-1.86-.76-1-.07L54,71.05l-1.59-.41H50.79l-.55.14-.41-.21-1-.21-1.24-.07-1.24.14-1,.35-.76-.21-1.59.34-3.17,1-1.24.21-.76.76-1.1.14-1,.55-.83.69-.55.21L32.5,75.61,31,77.06l-.83.28-.14.76-1.38.9-1.52,1.45L25.94,82.3l-.41,1.1-.48.28-.76.76-1,2-.62.83.14.62-.9,1.17-.21,1.59-1,1.24-.21,1,.14.48-.41.41-.07.9-.41.76.14.48-.41.62v1.79l-.35.55.21.76-.28,1v.48l.21.55-.41,1.66.07,1.1.35,1-.28.9.28,1.1.41,3.31.69,1.93.07.62.48.9-.14.48.28.48.69.76.28,1.17.55.34,1.1,1.31v.69l4.07,4.21,1,.41,2.76,1.66,1,.35,1.31.21,3.17,1,2.28.14.69.41,1-.21,2.21-.07.55-.14.9.28.55-.28h1.1l.9-.41.9.14,2.21-.55.83-.34,1-.76,1.66-.21.41-.41,2.07-1,2.83-1.73,1.59-1.59,2.69-2.14,1-1.45.9-.55.55-1,1.24-1.49.34,1.35.41.83.21,1,2.07,2.14.34.76,2.07,1.38,1,.35,4.28.83H79l.55-.28.55-.07.69.14.76-.55.9.14,1.79-1,.28-.41,2-.9,2.69-1.79,1.24,1.17v.48l.69.76,3,2.07.9-.55.21.41.41.21.76-.21,1.52.28,1-.07,1-.35.83-.55,1-.35h.55l.83-.34,1.24-1.1,1-.55.48-.14.21-.76,1-.48,1.38-1.59.9-.62.14-.55.2-.23v.23l.55,1.59.35.41.14,1,.62.62.14.55,2,1.59,2,1,2.35.62h2.42l1.79-.48h.55l.62.28,1.66-.62,1.45-.9H127l.76-.9h.41l.9-.35.48-.41.9-1.17.48-.14.48-.62H132l.69-.83,2.48-3.38.62.82,1,2.07,1.17,1.79,1,.55.07.48.28.41h.62l.28.41,1.45.9.35.34,1,.14.76.55L146,122l1,.35.76-.28.35.28,1,.34,1.1-.07.41-.28.14.41.41.21,1.59-.41,4.35-.55.9-.41,2.28-.55,1.86-1,.62-.76h.76l1.66-1.45,1-.48.34-.48,2.62-2.21.9-1.52.48-.28,1.1-1.31L173,109.7v-.76l.76-.69,1.66-2.76.11-1,.5-.88.76-2.07.55-.9.14-1,.35-.48.28-1,.41-.48.28-1.31,1-1.24.14-.48,1,.21.35.21,1,.21.35.41.9.69,1.59.69-.48.62.28.48v.55l-.55,1.59-.07.55.21.55-.48,1-.69,2.07-.48,1v1.38l-.62.9.14.55-.41,1,.14.55-.41.35-.14.41v1.66l-.48.83.41,1.24-.14.48.07,1.59.9,3.17,1.24.9.21.48,1.79,1,1,.28.62-.07.55.21.48-.21.28-.41.14.62,1.79-.21.48.07,2.42-1.1,1.1-.21,3.52-2.07.35-.9.48-.28.76-.69,1.38-1.59.18-.13.16,1.37.69,2.14.9.28v1l.35.21h.55l.69.83,1.45.76,2.42.62.48-.21.41.07.48.28,1-.41,1.17.14,2.69-.83,2-.9,1.52-1.31.62-.14.69-.9.83-.76.08,0-1,2.87V121l.28.41.41.28,1,.35,1.17.14,1.24-.14,2.21-.62.48.62h1.17l1-.28.76-.62.21-.41.14-1.24.83-1.38.35-1-.14-.76.14-.62.69-1,.35-.9.14-1,.21-.41v-.76l-.14-.55.76-.62,1.17-4.21,1.38-4.07-.07-.55-.28-.48.35-.28v-.62l.48-.14.21-.35-.28-.41-.55-.21-.35-.41.69.07.48-.21.35-.48.62-.07.41-.35.48-.9.55-.07.48-.83h.76l.83-.69,1.59-.55,1.1-.07,1.1.21,1,.41,1,1.1.14.48.07,1.24.21.41-.41.69.55.21-1.17,2.48-.69,2.21-.48,1,.14.83-.28.48V107l-.62.62.21.48-.07.41-.48.41-.62,2.62-.21,3.11.21,1.1-.07,1,.69.62.07,1.17.48,1,.62.9,1.73,1.24h.55l.41.41.41.21,1.24-.07.55.21.69-.35.48.28.62.07.55-.14.83-.62.55.21,1.1-.21,1.31-.9,1.1-.21.48-.28,2.07-1.93,1.45-.76.62-.9.14-.62,1.73-1.38.27-.39.28.39.9,2.07-.14.48,1,1.31,1.52,1.45,1.66,1.31.69.07.55.21.83.55.55.21.69-.48.48.62h2.9l1.73-.41.48.28.41-.41,1.66-.76.69-.9.69.55.14-.62.48-.34.62-.07-.35.28.55.07.28.28-.21,1.17H283l.14.35-.48.28-.41.76.21.55-.62.21-1.1,1.31-.76-.28-5.45,1.31-2.07.76-.9.48-.69-.28-.62.62h-.62l-.69.62-.55.07-3,2.14-.14.55-.28.41-.83.41-1,3.73-.35,2.28.41.62.55,1.73,2,2.62.9.55,1,.35,2.07.48,1.1.55h1.79l.76-.28,1,.14,1.38-.41h.48l1.17-.28,2.14-.9,2-1.31.9-.76,1-.55,1-1.38,1.52-1.52.28-.62.48-.41.07-.55.55-.62-.07-.62.62-.14.14-.55,1.38-2.83.28-1v-.55l.76-1.45.76-2.35.55.07.83-.55.62-.83h.55l.48-.21,1.31-1.17.62-.07,1.1-1.1h.55l2.35-1.73.21-.55,1-.55,1.66-1.59.62-1,1.24-.76.21-.55,1.31-1.52.14-.62.62-.83.41-.28v-.76l.83-.76L310,108l.69-.9v-.76l.69-.76.48-2.42-.76-.62Zm-96.05-9.66h.28V93h-.28Zm-22.91,11.66-.14.48-.21-.48Zm-.48,2.55.28.35-.41.28Zm-60-19.6.34.48-.41-.14Zm-2.21,1h.28v.21h-.28ZM55.76,88h-.28v-.28h.28Zm8-3.24.35.14-.48.41ZM57.83,84l-.07-.62h.41l.07.48.41.28-.48.14Zm1.31-1.52-.83-.21.07-.62-.21-.41.48-.62.76,1.1Zm.28,2.21-.28.76-.35-.35-.07-.48.21-.48Zm-1,.9.55.07-.55.28Zm.41,1.24v-.48l.41.14.07.48Zm2.28,2.42.28-.34.14.34Zm.76-6.63-.48-.14.48-.21ZM62,80.16l.35.35-.76-.14Zm-.69-.55v.21L61,79.61Zm-.48,1.79.55-.14.28.48-1.1.14Zm0,2.21.48.34-.28.14L60.59,84Zm-.35,3.59.28.55-.21.14-.35-.28L60,87.27Zm-.41-1.38.07.55-.35.21-.28-.35-.14-.55.28-.07Zm-.41-5.59.14.62-.34-.14-.21-.35Zm-1-1.31.21.28-.55-.14Zm-.21-3.8-.35.07L58,74.78ZM57,79.26l.28-.35.35.14-.21.48-.41.28Zm.48,3.17.41.07-.21.48h-.55L57,82.51ZM56.1,77.26v-.48l.41.14-.14.55-.41.21Zm-.62,1,.14-.21.14-.14Zm-.34-2.55.07-.48.35.35.28,1-.76-.35Zm-1.79.83-.55.21.14-.48v-.62l.35.14.28.35ZM53,74l.48-.21.35.41h-.48l.14.62.62-.07-.35.35h-1l-.21-.55Zm-1.45,4.14.28.21-.28.21Zm-.41-2.48.14.35H51Zm-.35,1.1.41.34-.55.28Zm-.28-.48L50,76.23l-.14-.48.48.07Zm-.21-2.76-.07.48-.35-.21-.14-.48Zm-2.83.55.62.69-.9-.41Zm-.14,1.45.34.14L47.2,76Zm-1.66-2.42.35.21.14.55-.55-.21ZM44.44,74.5l.21-.41.14.41-.55.35Zm-.21,3.8-.55.14-.28-.35.48-.14Zm-.76-1.38.28.21-.28.21Zm-.07-3-.41.48L42.85,74Zm-1.66,5.18.07-.34.14.34Zm.62-3.66v.48l-1,.28.14-.48.34-.21Zm-.62-.76-.14.48-.41.14-.14-.48ZM40,80.44,39.68,80l.48.14.28.28Zm.21-1.66-.35-.07-.14-.55.76.28Zm-.76-1.59.41.21H39.4Zm-.76-.55.41-.14-.28.28.28.14-.41.14Zm-.9.83.41-.14-.41.48ZM36.5,79.75l.55.21.48.41-1,.48-.07-.48Zm-3,5.73-.21-.35.34-.21Zm.41-1.1-.48-.07-.14-.41.14-.62.76.69Zm.62-1v-.28l.14-.07Zm.55-2.21.21-.48.48.21.28.35-.55.83-.41.28.14-.35-1,.14v-.62l.35-.55ZM34,78.71h.69v.48l-1,.14-.14-.48Zm-.69,3.17.21.48h-.35Zm-.41,4.21h.55l-.55.28Zm-.28,28.78.28.62-.28-.14Zm-1.1-.62.35.62-.62-.14Zm-1-26.92V87h.41Zm-.62-2.42.41-.21.48.07.35.35.14.55Zm.76-.48.14-.62.76.48Zm1.24.69-.48.21.21-.48.41-.14-.14-.41L31.53,84l.35-.35.55.76Zm.69-1.73-1-.34-.14-.55.28-.14h.48l.41.55ZM31.4,81.75l.21-.41.41-.21L31.81,80l.48-.21-.28.62.62.35-.21.34-.41.07.14.76-1,.28Zm-.76.14.14.48.35.41.14.62-.48-.76-.55-.28-.07-.76Zm-.9.41.41.07-.28.69-.41-.28Zm-.41-.83L29,82l-.14-.62Zm-.48,3.93.48.14.41-.21L29.6,86l-1-.14-.21-.34Zm-.14,26.43H29V112h-.28Zm-.35-.35.21-.41.28.62Zm.55-2.42h-.55l-.28-.41.9.07Zm-.83,1.31-.55-.21-.35-.41.35-.48.48.14.28.41ZM29,115l-.21.41-.41.21-.41-.28-.35-.28-.14-.48.55.07Zm-3.31-10.08-.55-.14-.21-.41.28-.48.35.35.28.48.41.35h.48v.35l-.41.9-.62-.21.14-.55Zm-3-3,.48-.14.62.28-.28-.48-.76-.76-.48-1,.48.21.28.41.41.28v-.41l-.21-.55-.35-.41.28-.76,1.52-.21.55.07-.35.35-.21.55.41.28.35-.48.14-.69.69.14.48.76.62-.14-.48-.76.28-.55-.21-.62-.76.41-.48-.62-.55.28-.62-.07.34-.62.35-.48.48.28.62-.07.69.83.9.41.62.07-.14.62L27.81,98l-.21.28.28.35.07.48-.14.55-1,.28.28.48.35.28h.9l-.14.62-.48-.14-1.59.14-.07-.62-.21-.35.07-.55-1.52,1-.28.41.48.62-.62.76.55.07.62.28.83-.9v.9l.9-.07.28.48v.48l-.62-.21-2.21-.28L24,104l-.62-.21h-.55l.21-.48.35-.35Zm.07.76-.35.41-.28-.41Zm-.48-5,.41-.14.21,1h-.62l.28-.48Zm3-3v.21l-.48.41.14-.62ZM25,93.21l.41.21-.07.35Zm4.28-1.1-.21.48-.35.21-1.1.28-.07-.55V92l.55.28ZM28.22,88l.55-.21.55-.14.28.35-.76.07v.69l-.28.48-.28-.21Zm.69,6.35-.41.28-.14-.55.41-.07Zm-1-.14-.21.48.21.48.41.41-.41.55-.55-.28-.48.14-.07-.28.62-.21-.07-.48-.21-.35H26.7l.14-.48ZM26.84,94l-.55-.35L26,93l.48-.14L27,93Zm1.52,5.87-.14.41-.41-.14v-.28l.14-.14Zm-3,1.45-.14.35H25v-.35Zm-.62,5.59.14.41-.41.21Zm.48,1.86V109l-.35-.21Zm1.45-2.14-.28.48-.62.28.07-.48.14-.41Zm-.14,1.52,1.1-1.1,1,.21.07.55-.28.48-1.31-.62-.28,1.24h-1l-.14-.76Zm2.14-4.9-.62-.07v-.76l.69.14.48.41Zm.28-10h.48v.55Zm-.41-1.79.35-.28.55-.07.28.35Zm0-8.28-.35.41-.14-.41Zm-1.1,5.66.41.14.21.34h-.62Zm.14,2.14-.28.41-.41.21-.07-.62.62-.28Zm-.83-3,.28.48-.21.48-.41-.35L26.29,88Zm.41,1.73-.28.62h-.76l.14-.48-.48-.41Zm-1.45.69.55.21-.62.07L25.39,90Zm-.48,1.38-.14.48-.35.41-.41-.21.28-.55.28-.48Zm-.62-3.11-.35.28-.55-.14.41-.48Zm-.9-1.45v.41l-.35-.14Zm-.21,7.87.48-.41.48.21-.14.41.55.21-1,.41-.55-.14Zm-.83,1.59.83.14-.14,1-.69-.14.21-.41Zm-.55-.55.48.83-.69-.14-.14-.41-.07-.48Zm-.55.83.34.62-.62-.28Zm-.76,2.14H21v.28h-.21Zm-.21,4.28-.21-.55.55-.07.48.21-.28.41Zm.83,1.24.14-.48.34-.21.35.14.07.55ZM22.63,108l-.41-.14v-.48h.41Zm.07-2.42-.55.07-.28-.41.48-.14L23,105l.41-.35.28,1.1.35.35-.35.35-.41-.07-.41-.35ZM23,114v-.34l.55-.14-.14.76Zm.9.9-.35-.21.35-.07Zm-.48-3.66.21-.55.41.41Zm.76-2.69-.55-.14.55-.28Zm.21,9.52-.07-.14.35.14Zm1-7.25-.48.48v-.48l.62-1.38.48-.07.28.28v.55h-.48l-.14.34.48.28-.35.14Zm.9.83.55-.14.55.14.41.35.14.62-.41-.07-1-.48h-.55Zm1.1,2.35-.07.62-1.17-.21.21-.48.48-1,.41.41ZM26,116.26h.41l.41.28.07.48-.55-.28Zm.69,1.66.14-.62.21.62ZM26,115.5l.35-.41.55.07.14.62Zm1.31.76.48.41-.62.14Zm.83,2.83-.69-.41,1.24.28Zm.41-2.55.28-.62.48.14.14.48-.41.14Zm1.17,3.93-.41.28-.07-.55.48-.35Zm0-6.21-.41-.41h.41Zm-.14-1.52-.76.76h-.48l.69-.76.55-.07.41.21.28-.41.07-.48.55.35-.41.55-.48.35Zm1.66,3.45-.07.55-.28.35-.41.21v-1ZM31.4,123v-.21l.14-.14Zm0-3.66-.9-.62v-.55l.41.14.21.28.41-.28.28-.41-.28-.48.48-.14-.14,1.17Zm2.14,3.45-.48-.28-1,.14.21-.62.55-.07.28-.21.41-.14-.21.55.69.21Zm0-2.35v.41h-.28l-.07-.55Zm-.21-1.1v-.55h.34l.14.69Zm1.1,5.31h-.21v-.21h.21Zm.41-5.73v-.35h.28l.35.35-.48.55Zm.9,2.69-.55-.41.55-.07Zm.35-3.11-.35.28-.62-.76-.14-.21-1.1.28-1.24-.21.55-1.1.35.28.21.41.55.07.55-.76.28.48v.76h1.1Zm.76,6.69h-.21V125h.21Zm.76-3.86h-.35l.14-.35h.21Zm-.35-1.86-.14-.69.41.21.21.34Zm6,.83.14-.21h.21Zm2.55,3.24.21-.48.28.48ZM99.5,101.49l-.76.14-.14-.69-.35-.48-1.38.48.21.35v.48l-.35.07-.55-.34V101l.28-.41.41-.14.35.28.14-.41-.14-.48-.62.28v-.69l.62-.21-.07-.55-.55-.14.62-.21V98l.55-.41L97.36,97h.28l.35.28v1l.28.35-.34.48.07.41.35.28H99l-.21.41.21.48.48.21Zm-4.21,7.25h-.48l-.14-.35.28-.14h.48Zm.14,3.17-.35,1-.28-.35.14-.48Zm-1.24-7.73v-.28h.28v.28Zm.14,3.8h-.28l-.14-.14ZM96.6,98.8l-.35.21-.41-.21-1,.14-1,.35.28-.48.48-.28v-.76l.55-.14.76-.76.28.28.07.41-.48.28-.28.48Zm-.41,4.07-.35-.14.21-.41.69-.07v.62Zm.55,2.83-.55-.14.41-.41Zm-2.21-5.59.55-.41.48-.41.41.55-.69.28-.07,1.1h-.41l.35.35.55.21-.28,1-.41-.35-.21-.55-.62.14-.07-.48.69-.62.28-.41Zm1.59,3.45-.35,1.31-.55.21.21-.55Zm-1.93-1.17.9.83.14.69-.41-.35-.28-.55H94l-.35-.28Zm.28,3.17.48.28-.62.07Zm.62.9v-.55l.41.14.07.41Zm.62,3.31.35.41-.07.62-.48-.48ZM96.4,112h.48l-.28.48-.41.28-.14-.35Zm.21-3.17v-.41l.35.14-.07.28Zm.28-4.83-.14-.41h1.1V104Zm.76-2.07.07-.41.14-.35.35.35-.07.55Zm.9,1.45.35.35H98Zm.21-.9L99,102l.21.48L99,103Zm.55-4.62v.55l-.55.35v-1Zm-.55-.76.14-.35h.28v.35Zm1.93,2.35-.48.21-.14-.76,1.1-.41Zm-.76-4.07.35-.07v.28Zm1.66,1.45-.55-.35.14-.55.41.28Zm.9-2.48.48,1-.48-.28-.35-.41-.21-.55Zm-.62-4,.35.41-.48.35-.14-.41Zm-.41,1.52.28.41-.62.14Zm-3-.55.28.21.07.69.41.41.55.28h.62l.41-.28.35.28v.55h-.55l-.34.48-.48-.14-.14-.76-.62.28-.14-.55-.28.21-.48.07.21-.41-.28-.76L98,91.27Zm-1,1.1-.55.07-.28-.14-.07-.48Zm-1.73,2-1-.48.28-.76h.55l.69-.28.41,1.31.55-.07.35-.35-.41-.35-.14-.55.48.28H98l.14,1.1.9-.48-.07.55-.69.35.76.76V96l-.48-.21-1.17-1.17-.9.55.35.48,1,.9-.55.21-.35-.48-.9.14-.14.48-.62-.07.28-.48-.07-.48-.83-1.31-.07-.41,1.17,1,.41-.14ZM94,95.83l.48-.35.48.41L94.46,97l-.83-.62Zm.35,2.07-.14.41-.48-.21-.14-.55Zm-.14,7.18-.28.48-.35-.48ZM93,98.52v-.21h.28v.21Zm.28,4.62-.14.35h-.28l.14-.35Zm-.48-7.38v-.41l.48.14Zm-.41-5.38-.28.55-.21-.55ZM92,91.83l.48.28.14,1,.21.48h-.55l-.35-.41-.07-.62Zm-.21,2.28.41.41-.41.35Zm.48,2.28v.48l-.41-.07-.07-.41Zm-.62,17.46.48-.14-.07.48.21.55-.48.28-.14-.69Zm-.14-1.31.62-.34-.14.48Zm.62-2.28-.35-.21.14-.41.35.21ZM90.26,92.45l.35.21-.35.28H90Zm-2.07-3,1.31.69-.14.48-1.52-.48Zm0,3.73-.28-.14v-.28ZM88,91.55l.14-.48.35-.28.41.21-.34.41Zm.9,2.28-.34.35-.48-.07-.21-.41Zm-.28-.62.14-.35.41-.21v.55Zm-1.1,1.52h.28V95h-.28Zm-.76-5.87.21.48h-.48Zm-.14,1.66v.41l-.41-.41Zm-1.52,2.42h.21v.28h-.21Zm-.41-3.31L85,90l-.14.41-.35-.62Zm-1.66,1.79.48.34-.48.28Zm-.21,1.38h.21v.28h-.21Zm-1-1.93.48.21.21.48L82,91.34l-.48.07-.28-.62Zm-.62,4.9.35-.41.21-.21.21.07v.69Zm.69,1-.41-.14-.14-.41.34.21ZM81.84,92l-.14.55L81.42,92Zm-.41,1.45.55-.14-.41.41-.48.07Zm-1.66-1,.41.35-.55.28Zm-.48,2.14.48.14-.21.35-.41.07ZM80,97l-.21.48-.41.28.14-.35.07-.41Zm-1.45-1.1h.55l-.35.41-.69.07V96ZM78,94l.28-.41.28.55Zm.28-1.52.28.35H78l-.28-.21Zm-1.17,1.38h.41l-.14.41h-.28Zm-.62,6.49-.35-.14L76,99.83Zm-.21,10.08-.21.55-.48.21-.35-.28v-.76l.14-.35.35.41Zm-.14,3.45v.48l-.28-.48Zm-.69-6.63h-.21v-.28h.21Zm-.07-3-.28.41-.28-.41Zm-.55-7v.55l-.35-.35-.14-.55Zm-.28,10.28.14.48-.41-.21-.07-.55Zm.14,6.07-.07.62-.41-.07v-.69ZM74,109.15h-.48v-.69Zm-.14-4.76h-.21v-.21h.21Zm-.69-8,.55-.14-.21.48-.55.14Zm-2,5.65,0-.19.28.28v0Zm.79,9.74.07.55-.55-.28.07-.48Zm-.41,1.73.41-.41.41.35.07.69h-1ZM72.24,102l.28.35-.62-.14Zm-.76-2.76h.28v.28h-.28Zm-.48,1h.35l-.48.9-.28-.62Zm-1,10.84-.21-.34.62.21Zm.83-1.38-.78-.34,0-.15.22-.22.73.22.55-.14-.28.9Zm.62,5.87v-.28l.28.41Zm1.1,0-.21-.28.55.14Zm.21-2.55-.28-.62.41.07Zm.76.76-.41.14v-.55l.41.14ZM73,112l-.21-.48.48-.14.41.28.48.07-.14.69Zm1.66,6.35-.62.14-.28-.55.14-.69,1.17.76Zm0-1.38-.21-.48-.35-.41.07-.48.34.28.55.83Zm.41-3.45-.07-.35.41-.14Zm0-1v-.41l.41-.41.48.07-.28.55Zm.9,1.93h.48l-.07.55-.55.35-.07-.41Zm.62,2.42L76,116.6l-.21-.62.48-.28.41-.35.62.14Zm.41-1.79v-.48h.35Zm1.86,2.07-.48.14-.07-.48L78,116l.62.28.41.48ZM88,111.56l-2.62,1.59-.83.69-.28-.14-2.62.41-.62-.14-1,.48.28-.76-.9-.55-1.31-1.59-.48.14-.41.35h-.35l.35-.48.55-.41-.28-.76.21-.9-.28-2.35.07-1.1.41-.62v-1.24l.41-.9.07-.55.9-.9-.14-.62.41-.21.07-.55.48-.28.69-.9.14-.62.76-.21v-1l1.17-.28,1-.48-.35-.76.62.07,1.1-.14,1.38-.48,1,.07.55.21.48-.34.83.21.07.62.69.62.9.41v.55l.76,1.86.07,1.59-.14,1.1.07,1.1.21.55-1.1,2,.14.69-.35.41-.69,1.38-.62.83-.41.28-.14.76-.9.62Zm.9,5,.14-.69.28.41Zm.14-1.52-.28-.28.69.14Zm.14-1.93-.28-.28.62.14Zm1.24,2-.48-.21.48-.21.55.07.35.62-.21.41-.41-.28ZM92.12,117h-.9l-.35-.62.35-.07.41.07.28-.62.48.07Zm.83-5.25.21.41-.48-.07-.14-.34Zm0,6.69-.28-.28.35-.07.28.28Zm-.14-1,.41-.14.21.35Zm.62-10.63h.76l-.14.55-.62-.14Zm.55,2.69.41-.35.55-.14.14.21-.21.48-1,.41-.28-.21Zm-.21,1.38.41-.28,1-.07-.41.48-.62.28Zm2.42,6.35-.62.21-.21-.55-.83-1.17-.07-1,.28-.14.07.48.76,1.79h.76Zm0-3.66.14-.21.28.07-.14.28Zm.28,2.21.07-.76.35-.41.14.48-.14.55.21.48Zm.9-8.07-.14-.62.35.28Zm.28,5.87.21-.21.35.21.21.41Zm1.1,1.52.14-.48.35.21.21.41Zm20.49-13.39.14-.62.41.21Zm.41-5.18-.41.07-.14-.28.28-.14h.48Zm1-2.07-.21.48-.62-.14-.55.14-.35.35-.41-.28-1.1-.21-.28-.35.48-.76-.14-.55,2.21.14-.55.48.62-.07.55-.14.35.35ZM117,101.07l-.41.35-.62-.35.07-.48.55-.83v.41l-.21.48Zm-.07-2.48-.41.28.21-.76.55-.07.48.07-.21.41Zm.41,1.93.41-.14v.41h-.62Zm0,.9.41.41h-.41Zm.62,4,.21.35-.48.07-.21-.48Zm-.07-9.18-.62.21.14-.62.35-.55.41.48Zm.76-3.45v-.28l.14-.14Zm2.83,4.07.07-.55.28.55ZM124.27,92l-.35.48-.35-.28.14-1.79.41-.14.48.07.21.35-.48.41.28.35.48.14Zm2-.14-.76-.55-.14-.48h.41l.48.48Zm1.52-3.45v.41l-.55.21-.07-.28ZM127.17,90l-.35.48.41.9h-.48l-.48-1.24.34-.07Zm-1.79-8.56.62.76v.41l-.9-.62Zm-.14,7.66v.41l1.17-.41-.35.48L126,90l-.62.14-.35-.55-.55-.35.28-.14Zm-.41-1-.76-.48.41-.55.48.41Zm-1.45-4.35.48-.14.62.14-1,.83-.35-.28Zm-1.73,1.24.28-.55.55.21.21.41-.41.62-.62-.28Zm.9,1.31.28.28-.35.48h-.69l.28.55-.28.35.62.41-.21,1.17-1.1.14-.35-.07-.21-.48H120l.07-.48.48-.14-.14-.28.21-.48-.28-.28-.07-.48.62-.14.14.62.55-.35Zm-2,4.07-.35-.14-.07-.48.14.28.14-.28Zm-.76-2.48.07-.41.28.34V88Zm.76-4.35.41-.07L121,84h-.62ZM120,85.55l.14-.41.9.21-.14.48-.35.28-.55.07Zm-.48.69h.35l-.14.55-.28-.07Zm-1.59,1.38.55-.35-.14,1-.48.21-.28-.28Zm-1.24,1.86.69.69.21.41.76-.14.55.28.48-.41-.55-.21-.28-.41v-.62l.21-.62.62.34-.07,1,.21.35.48.14-.14,1.79.55-.35.34.21.14.41.62.28,1.31-.55-.35-.41-.21-.55h-.48l-.34.62-.83-.41.21-.48-.21-.28.28-.41.55-.21v.62l.48.35.48-.48.14-.55.28-.07.07-.55.48-.76-.07-.62.76-.21L124,88.93l.21.41-.76,1-.62.28.48,1.31-.48.76-.55.14.28.76-.9.48-.9-.76.41-.41-.55-.62-.35.28h-.48l-.41-.28.14-.76-.55.14-.76.48-.35-1.1-.83-.69-.48-.21Zm-.21,1.66L117,91l.9.9-.35.48-.55.28-.28-.14V92l-.21-.35Zm.07,1.86.41.21.14.41-.62.14Zm-.21,1.31.35.14-.14.48-.48-.28Zm-.76,1.38.62.41-.55.48-.35-.48Zm-2.07,16.77-.48.07v-.69l.62.14Zm.76,1.59H114v-.41h.41Zm.76,2.76v-.21l.14-.14Zm.55-3.52.07-.28.28.41Zm-.14-5.11-.28-.14.28-.48.48.14Zm1-4.83h-.48l-.14-.48v-.48l.28-.35.62.76Zm.41,11.59.41.48h-.41Zm.14,2.42.35-.21.48.14.21.41Zm1.1-.9-.35.14V116l.48.07Zm.14-16.29v-.41l.28.21Zm.14-3.73H119v.62l-.41-.21Zm.55,2.07h.21v.21h-.21Zm.14,4.21.21-.28.35.21-.07.55H119Zm27.32,5.87-.35.07.35-.34Zm.83-1.1-.34.35h-.48L147,107h.35Zm.83,1.1h-.21v-.28H148Zm.9-.69-.21-.21.35-.14Zm4.14,0-.07-.62.41.21.14.41Zm-.55-3.38.48-.28v.35Zm1.38,2-.07-.55-.41.07.07-.55.69-.21.21,1Zm0-2.9.28-.28.48.14.28.34-.34.35-.48-.14Zm1,1.38-.34-.14v-.28l.07-.07.41.07Zm.55.48.21-.41.35-.35h.41l.14.55Zm1-2.07-.55.28.07-.55.69-.28Zm1,.28-.48-.21-.14-.55.62.21.41.35Zm1.38,1.93-.41-.28-.21-.48h.9l.07.41Zm.28-5-.28-.48h.41Zm-.48-1.1v-.48l.41-.48.69-.07-.28.41Zm0-2.69H159l.14.48-.41-.07ZM160,102l-.14-.48.28.14Zm.14-1v-.55l.35.28Zm.07-1.45h-.69l.28-.55.69.07Zm1-1.38-.48-.35-.55-.14.14-.48.35-.28-.69-.14-.41-.41.41-.28h.48l.07.41h.41L161,96l.48.28Zm1.73,3.59-.41-.21.07-.41.35.14Zm1.17-2.21-.14-.62.41.55Zm-.34-5,.48.07-.07.48-.41.07Zm-1-3.24h.21v.28h-.21Zm.48,1.45-.41-.07-.07-.35Zm-.48,3.52h.62l-.21.41-.41.14Zm.35,1.1.55.07-.14.62-.62.76-.55-.14V98l-.21-.62.21-.41Zm-.9-2.35-.62.9-.48-.21-.9-.35.14-.55L161,94l.41.07-.28.41-.48.21.55.28.35-.41.76-.07Zm-.07-3.45v.48l-.41-.21Zm-1,.07.48.07L161,92l-.41-.28Zm-.69,1.66-.35.21.14-.55Zm-.62-1.45v-.28l.41.28Zm.14-2.21.14.41-.55-.07-.35-.21-.14-.48Zm-.62,3.59.28.55v.62l-.41-.41-.14-.62Zm.07,1.86.28.21-.28.48-.48.28-.48-.21-.41-.41-.48.07v-.35l.28-.41.76.76.35-.48Zm-.69-4.55-.35.07-.07-.41Zm-.41,1.93.14.62-.48-.14-.28-.35-.41-.14.14-.62.35.21.07.55Zm-1-3.31-.07.48-.28-.48Zm-.07,1,.48.28.14.62-.62-.28-.28-.48Zm-1.31-1.93.28.14-.14.28-.28-.14Zm.21,1.86.55-.07.14.76-.41-.28-1.52.69.28-.48v-.48l-.28-.48.48-.21Zm-1.86,2.62.28-.69.62-.21h.62l-.14.34h-.62Zm.48,1.52-.48-.14.28-.41Zm.28-6,.21.55-.55.35-.07-.55Zm-1.52,1.93.41.14-.41.62-.14-.35Zm-.07,1.24.35.28L154,91l.55.14-.21.62-.69.9-1,.28.62-.83-.28-.35-.69-.76.07-.55.62.14Zm-3,1,1-.48-.35.21-.28.55.14.62h.48l.55.28.28-.35.48-.07-.14.62-.55-.07-1,.48-.28-.41-.14-.62-.48.76-.41-.21-.21-.41.41-.14.35.28.21-.48Zm1.79-2.42.21-.35.41.07-.21.41Zm.55-2,.21.35-.55-.28Zm-1.86-1.17.14.34h-.62Zm-.76,1.86.41.35.07.69.55.07.35-.28.14-1.17h.62l.14.9-.55.21-.62.76L151,91.89l-.76-.14.21-.34.07-1-.55-.14-.07-.48Zm-.28,2.69h.28v.28h-.28Zm-.35-.35.21.35h-.41L149,91Zm0,4.69-.07-.62.55-.28-.14.9,1-.55,1.1-.35.14-.76,1.24-.14-.9.62,2.28.21,1-.07-.41-.83-.07-.55.9.76,1.24-.48.41.21-.21.55-1,.48.34,1.17.41.41.55.21-.07.41.28.21-.41.28-.21.41.14,1-.9.9.28.83v.55l-.69-.21-.28.48-1.38.9-2.28.48-.35.34v.55l-.69-.34-.41.28-1.59.35-.41.28-.41-.14-1.79.07-1.1.21-.07-.55.14-.55.35-.35-.21-.62.21-1.1,1-1.79.21-.9.41-.14.9-1.17.48-.28-.21-.83.76-.14-.35-.14-.41.14.14-.28Zm-1.24-.07.48.21-.28.35h-.48l-.14-.48-.55-.28.41-.48,1.17-.48.07.62h-.55l-.41.14Zm-.07,1.31-.35.14V97Zm-.76-1.24v.48l-1.1.14-.41-.41-.48-1.1.34-.35.35,1,.28.41.55-.41Zm-.14,2.28h-1l-.28-.55-.14-.69h.41l.76.69Zm-2.14-4.21.41-.14.35.55Zm.28,4.35.21.28-.41.35-.48.14.35-.35Zm2.62-8.7.69.07.21.62-.69-.21-.69-.41Zm-2.14,1-.14.35-.21-.21ZM145,92.1h-.28l-.07-.07Zm-.28.14.55.28.35.41h1.17v-.69l.14-.62.28-.35.55.83.55.14-.48-.34.41-.35.48.48-.21.48.35,1-.55-.28-.9,1.24v.41l-.9.48.14-.62,1-2-1,.21-.14.9-.41-.35-1-.41-.48-.34Zm.28,2.21-.07.41-.41.07-.14-.48Zm0,1.79-.35-.21-.14-.48h.34ZM144,98l.21-.62h.48l-.14.62-.35.41h-.48Zm-.28,5.52.35.48h-.35Zm-.69,2.14.41.62-.48.14-.14-.62Zm-.48-2.55v-.35l.41.35Zm.62-5.87H143V97h.21Zm-.35-2.62-.55-.41L143,94ZM140.15,104h.06l.21-.35.55.07.55-.69.41-.28-.76,1.45-.41.41-.62-.48-.08.07Zm1.37.63.48.21.07.55-.55-.21Zm.41-3.52v-.55l.48.41Zm.14,2.55.41.35-.41.28Zm-.14-10.84.48.14-.48.48Zm0,2.62.48.14-.07.41-.28.28-.28-.35Zm-.14,2.42.48.07-.41.28-.07.48-.35-.35Zm0,1.79.41.14-.14.62-.41-.21-.28-.41Zm-1,2.07.55-.28.41.14.14.41-.76.48-.41-.14-.48-.62ZM138.34,108V108l.1-.15.17.22Zm.76,2.07-.14-.41-.14-.48.14-.41h.41l.14,1Zm.48-4.44.15-.18v-.62l0-.08.1.08.55.14-.14,1.38-.76-.14Zm.07,2.65.28-.41.69-.9.28.41v1l-.62.14Zm.35,2.28.07-.55.35-.41.48-.14.14.41v.55l-.55.21Zm.9,2.07v-.41l.28.21Zm1.17,2.62-.41-.35-.14-.62h.55Zm.14-2.9-.14-.41h.21Zm0-2.69.48-1.24-.76.14-.76-.76.21-.55.41-.35-.48-.55-.28.41h-.41l.28-.48,1.17-.41.35.48.9.69.41.48-.69.9.07.62-.48.69Zm1.93-.9.21.41-.76.28.14-.83Zm-1.45,3.93.21-.41.07-.55h.35l.14.9Zm1.24-1.59-.14-.34-.21-1.1H144Zm.28,3.24.48.14-.07.76-.48-.21Zm.48,1.93h-.21V116h.34Zm-.21-11.46-.55.14v-.48l.48-.14.41.14Zm.34-2.28.21-.41h.35Zm1.1,7.18-.41-.21.28-.21.35.14Zm1.1,8.83-.48-.14.07-.48H147Zm30.43-32.09-.14-.76.48.14.14.35Zm2.07,2.62-.55.07-.34-.41.62-.14h.55Zm.62-1.79.35-.28.41.07-.28.48-.62.28Zm.28,2.83.14-.48.21.62Zm.21-.76v-.76l.55.28Zm.55,1.38v-.21l.35.14Zm.28,4,.07-.69.55.28Zm.62-2.83-.55-.14.55-.48Zm-.28-4.21-.35.28-.07-.55.28-.62h.41ZM182.3,90l-.07-.62h.35Zm7.45,11.11.35-.35.62-.14-.41,1.45.28.41-.07.48-.41.21.07-.76-.41-.41.28-.48Zm-.14,13-.55-.14h-1.38l.21-.34.41-.14-.14-.9.48-.21.28-.28-.55-.28-.21-.62.48.07.28.28.28-.48.48.21.28.41-.28.48-.76.83Zm.48-9.18-.9.34-.48,1-.48-.35-.21-.48-.21-1.1-.28-.48.28-.14.9,1.38.14-.48.35-.41.55-.14-.07.55Zm-1.1,2.69.48.28-.48.21h-.62l-.62-.28-.35-.48Zm-.14,1.17-.28.21-.28-.35Zm-.76,1.24-.14.28-.41-.28.14-.48Zm-.41,1.45-.14.48-.76.48-.28-.21.14-.48.76-.55Zm1.66-5.66.41-.21.83.76-.48.07Zm-.41-2.83.41-.48.62.55-.35.35-.48.14-.55-.14Zm-.48-1.86-.14.41-.48.07-.14-.62Zm-1.17-3.59.28.41-.28-.14Zm0,9.8-.41.21-.41-.07.21-.48.28-.41Zm-.76-5.18.21.35h-.41Zm-2.28,7.52.28.48h-.62Zm.48,1.66-.07-.55h1.66l-.48-.28-.07-.41.14-1h.41l.48-.9.83.48.07.55-.62.07-.55.83.55.28-.21.41-.41.21-.55-.14-.69.76-.55.14.35.28-.41.14-.48-.14Zm.07,2.76h-.41l.14-.48h.28Zm1.86,3.11-.9.21-.35-.48-.55-1.17.83.35.48.07-.28.48.9.14Zm.9-2.28-.55.14-.35.55-.41-.14L186,115l.41-.21,1-.28.41.21.28.41Zm3.11,1.24.48.35v1l-1-.14-.28.55-1.24-.41.35.48.14.69-.9-.21-.48.07.14-.55.48-.21-.21-.41v-.48l.55.07.69.34.48.07.34-.28.07-.41-.14-.55-.48-.41-1.17.55-.21-.48.21-.55.62.14.28-.35.07-.48.41-.21-.07,1h1l.34.35-.55-.14Zm2.14,3.8h-.28l.14-.35h.28Zm12.42-10.56-.29,0,.12-.11Zm.14,1.38-.55-1.17h.41l.28.9.35.28Zm1.38-.48-.41-.14-.14-.41.69-.14Zm.14-2.69-.35-.14-.21-.41.69.14Zm.62,3.31-.41-.41.69-.14Zm.21-13-.28-.48h.83Zm4.07-.9-.41-.07.14-.69.28.28ZM213,95.35l-.48.07-.14-.41.28-.35.48.14Zm.14-1.52-.62.28v-.55l-.14-.41-.69-.07.28-.41.9-.34-.07.62.55.28Zm1.24-2.35-.35.41-.28-.62Zm-.9-1.79.34.35-.14.35-.41-.14Zm-1,.69-.28.28-.41.07.14-.48Zm-.9-.76.14-.41.21.62Zm-.14-1.17.35.28-.35.07Zm.48,3,.48-.35h.69l-.69.62-1,.35-.28-.48Zm-.76.9-.14.55-.35-.28Zm-.76-2.76.14.35h-.48Zm-.76,1,.41.21.21.48-.21.21-.55-.35Zm.07,3.93h1.1l.62.28v.62h-.55l-.07-.62-.48.28v.55l-.21.48-.28-.41-.62-.83-.07-.55Zm-.69,3.59.21-.14.41,1h-.41v-.48Zm.14-4.55.07.48-.28.07-.48-.21ZM208.45,97l.55.21-.69.41Zm0,2.28.76.48-.48.14ZM209,112.6h.48l-.07.48Zm.48,5.45.14-.35.41.48Zm.28-14.15h-.62l.14-.62.55-.76.62.83Zm.83-4.14-.28-.48.48-.28.41-.48.55.48-.48.35-.07.28Zm13,16.91v-.21l.41.21Zm4.21-.21.14-.28.14.35Zm1.52-21.67v-.55h.41Zm.9-1.66-.28-.28.07-.48.21.28Zm5.11-3.59.28.35-.14.41-.21-.34Zm.14,4.83-.14.41-.35-.28.07-.35Zm-.41-1.24v.48l-.35-.48Zm-2.55-3.59-.07.55-.21-.35Zm0,2.28.55-.28.35.41h-.69l-.55.28Zm-1.38,11.39h-.28v-.28h.28ZM231,99.9l.14-.55.35.41Zm.28.9v-.28h.48Zm.62-5.66h.76l-.35.76-.34-.21Zm.76,5.52-.35-.28.35-.28Zm-.21-2.07.14-.41.21-.35.21.48Zm.76-1.52h-.62l-.28-.48,1.24.14Zm0-1.52v-.28h.21v.28Zm.83-1.38-.41.35-.62.14-1.17-.21-.41-.28.14-.69.35.28.14.48.55-.14.35-.34.41.28.83-.41ZM234,92.86l.21-.35.21.35Zm.83,2.9-.21.07-.14-.48.14-.41.48.35Zm.69.14-.28-.48.48.07.28.35Zm2.14-8.76.21.35-.21.28Zm-.34,3.8-.35.34-.21-.34Zm-.9-1.66h.28v.41h-.41Zm.55,3.59-.28-.35.41.07.35.55Zm.48-3.17-.14-.41.48.28Zm.35,2.69L238,92l.35.14.14.41Zm.35-.83-.35-.35.62-.21.55-.28-.14.76Zm.83,2.21.14-.35.21.35Zm.62-3.17-.14-.41.35.21.21.35Zm1.1,2.28-.62.28.07-.48.07-.41h.55Zm2.21-3.31V90l-.41-.28Zm0,3.17-.69-.14-.07-.62,1,.28Zm1.79,17h-.28v-.28h.28Zm.62-1.52L245,108l.07-.62.55-.14Zm5.11-5,.28-.28h1v.9l-.76.14.07-.55ZM250,107l-.48.14-.21-.55-.55-.35.48-.28-.21-.21.41-.14.21-.41H250l.14.62h-.76Zm-2.9-5.73.48-.76-.62-.28.21-.41.55-.07.21,1,.55,1h-.62Zm.28,7.52H247v-.28Zm.07-12.22.55-.14.14.48v1.59l.21.35-.34.35-.55-.07.28-1-.35-.35.28-.35V97Zm1,8.76-.14-.35.35-.48.55-.21Zm1.52-2.76-1,.55-.55-.07.21-.41.07-.41-.14-.48.55.28h1.24Zm1.17-6.69.9-.55.62-.21V96l-.62-.14-.35.48-1,.69-.55-.07-.35-.41h1.1l-.21-.48-1-.14-.21-.41-.48.14-.41-.21-.14-.41L249,95l1-.14.41.21-.28.48Zm-.41-4.14v-.28H251v.28Zm.14,2.14h.41l1,.48-.69.9-.48-.21Zm-1.31,4.28-.55.21-.28-.69,1.24.14Zm.21,1.31-.55.28.28-.55Zm.62-.14.48.9-.62.62L250,99.62Zm-1.31-3,.28.48-.41.14-.41-.35-.07-.55Zm2.28,4.69-.21-.48h.41l.07-.48h.41l.07.41.41.21-.76.62Zm1.86,2.69H253v-.35l.35.07Zm.07-4.42-.48.35-.28-.76H252l-.28.35-.41.14v-.48l.28-.55.07-.48.48.14.41.07.28-.35.35.41.21.62Zm2.21-4.21h.35v.35h-.35Zm-.28,1.52.28.35h-.28Zm-.35,3,.07-.14.41.14v.28l-.14.14-.35-.14Zm-.83-2.28v-.41l.69.41ZM254,96l-.55-.21.41-.28.48-.14Zm-.83-2.69.69.07-.41.62.35.21-.07.55-.62-.55h-.55l.21-.48ZM251.64,92l.14-.48.62.21.28.41-.48.48-.41-.21-.9.14.28-.48Zm-1-1.66.35.28h-.35Zm-1-1,.35-.07V90h-.35Zm-1.31,2.35.55.21.41.41h.35l.14.76,1-.28-.35.9.28.21-.41.28-.76.14.07-.48-.14-.55-.35-.48-.76.07-.55-.28-.21-.41.14-.35Zm-.48-1.52-.21.48.21.62-.28.14-.21-.48-.14-.76Zm-3-1.31v.41l-.55-.28Zm.35,5.31-.14.41-.41-.28-.14-.41.21-.41.34.21h.55Zm.62-3.17.69.9-.41.28h-.35l.14-.55Zm.62,4-.07-.76.76.35V93.9l-1-.62-.21-.55.55-.07.35-.28.35.41-.07.69.28.55.41.07.35.41-1,1-.48-.21Zm.28,14.84.14-.62.41.14V110l-.76.21Zm.14,2.07-.48.28v-.34l.48-.28Zm.14,3.93v-.35l.48.28Zm.41-2.42V113l.21.35Zm-.14-1.38.35-.21.28.34Zm.62-7.87-.41-.41v-.48H248l.28.62Zm1.66,14.35-.28-.35.55.07Zm0-3,.14-.48.14.62Zm-.07-3.38-.14-.55.07-.48.35.14.35.48.07.69Zm1.31,2.14-.07-.48.35.14Zm0-.9.14-.62.28.35Zm-.07-3.93-.48-.41-.41-.14-1.31.69-.14-.48.48-.35,1-.55.41-.41.41.28-.41.48.28.28.35-.62.34.35Zm.76-3.93-.55-.14-.48-.76.48.48.76-.35Zm.21,12.08v-.62l.48.35Zm.14-9,.62-.14-.28.62Zm1.52,8.42h-.21v-.28h.21Zm25.25,10.63H279l-.41.48Zm-3.66,12.08v-.28l.35.28Zm3.66-6.63-.28,1.17-1.17,1.73-.21.55-2.76,2.28-1.1.14-.35.28L271,139.1l-1.38-.55-.9-.9-.28-.55v-1.17l.41-1,.76-.83,1.86-1.31,1.86-1.1,1.1-.14.9-.62.62.21.34-.28.62-.21,1.73-.14.28.48.35,1.79Zm1.45,5.38.07-.41.14.41Zm13.46-24.71h-.35l-.14.48-.55-.14.21-.55.41-.34.55-.14Zm-2.21-.48,1-1.31.76.14v.21l-.69.83-.62.21-.21.35-.41.14Zm-.55-.83-.14-.48.34-.14.14.62Zm.48-3.31V108l-.41-.28.41-.41.55-.14.48.28-.41.76.28.28.35-.35-.07-.55.76.14-.28.55-.76.69V110l-.14.55-.48-.14.07-1.1Zm-.76-3.38.48-.07-.14-.9.69-.07.48.9V106l-.35-.55-.55.14.14.55.41.14-.55.48-.35-.35-.14-.41-.69-.14-.35-.48Zm-1-5.8v-.21h.28v.21Zm.76-2.42.14-.48.41.48ZM294,95.83v.41h-.55Zm-.55-1.38H294v.76l-.48-.21Zm.07,3.52L294,98l-.14.48h-.62Zm-.55,4-.14-.55.76-.07-.14.48Zm.35,1.86-.62-.34h.48Zm-.62-7,.14-.48.28.48Zm.41,5.59-.41.34-.48-.34-.62-.14-.28-.21.14-.35.21-.35.62.21.35.48Zm-.69,1.17-.07.41-.41.48V104Zm1,6.63h-.69l-.14-.41.62-.14.55.28Zm2.14.35h-.28l.14-.35h.28Zm.14-5.94-.28.41-.48-.07.34-.41.41-.35.62.28-.28.28Zm-.41-5.8v.55h-.48l-.14-.28Zm-.62-3.66v-.41l.28.21Zm1.52,6.42.14.48h-.69l-.48-.14.14-.62Zm.41,4.42h-.41v-.41h.41ZM296,94.72v-.41l.28.21ZM295.8,92l.21.28-.48-.07Zm-.41,5.52h-.28v-.34h.41Zm-.28-2.9-.62-.28.28-.48.28.28Zm-.21-1.93.07.48-.28-.28-.35-.21Zm-.55,7.11.28.41-.28-.14Zm.14,6.56.41.34-.14.69-.28.48-.55-.14-1.17-.83-.21-.48.48.21.55-.21.76.69Zm-.62-1.66v-.41h.35l-.14.41Zm.35-5-.14.35-.62-.48ZM294,93.07l-.35.48H293l-.14-.62Zm-1,1.79.21.48-.55-.07-.48-.41v-.55Zm-1-1.79.28.07-.14.28-.28-.14Zm.35,2.48.14.55-.41-.14-.21-.41Zm-.35,1.79.14.55.48.21-.28.55h-.62l.21-.48-.28-.48Zm-.41,2.9-.28,1-.48.14-.07-.48.41-.9.35-.28Zm-1.17-5.11.35-.28.21-.41h.55l-.35.48-.48.35-.21.55-.55-.48Zm-1.38,2.21.69.14-.28.41-.48-.14Zm-.07,7.32h.21v.21H289Zm-.28,3h.62l.07.69.28.41.07.9,1.1-.21.28,1,.41.28.48.07v.76l-.62-.21-.55.21-.28-.83-.41-.28-.69-.14-.07-.62-.83-1.45.48.14V108Zm.48,3.45.9,2,.76.62-.14.55h.62l.35.21.21.41-.62.14-.41-.55-.14.28-1-.76-.28-.48v-.76l-.76-.69-.28.9h-.62l-.62-1.38.9.28-.07-.55-.07-.62.55.28Zm-1.86-1.66.48.07.28.28v.55l-.62-.28Zm-2.69-17.6-.28.48-.35-.35Zm-3.24-1.24,1.17-.28.48.14.21.48-.62-.14L281.1,91Zm1.45,1.24v.28h-.28v-.28Zm-2.48-.21.55.21.14.62.41.41-.28.35-.41.07-.48-.21.14-.69-.14-.55-.48-.14Zm-1,1.45.28.41-.28-.14ZM277.79,92l.62-.83.76-.62.14.41-.14.48-.83.07v1l-.41.21-.28-.14ZM279,95.07h-.41v-.35Zm-1.31-1.52h.69l-.28.28-.41.07ZM277,90.38l-.35.35-.28-.35Zm-.48,1.73.35-.21-.21,1-.28-.35Zm.35,1-.07.48-.28.35-.21-.48Zm-1.73-1.93.62-.14-.07.62-.48.28-.21-.14Zm-.41,1.38.48.14-.07.41-.41.07Zm-.55,1.17.48.14.07.48.35-.35.28-.41.48.35.14.48-.14.55-.34.48-.41.28.62,1-.07.55-.41-.35-.21-.48-.28-.28.21-.34.07-.55-.9-.9Zm-.83,6.21-.14-.48.35-.28.28.62Zm.35.62-.28.14v-.35Zm0-7.87.28.41-.41.07-.35-.34Zm.41,3-.14.62-.62-.14.21-.55.41-.35Zm-.55,1.24.14.48-.48.41-.07-.55Zm-1.31-2.35.55-.07-.21.55-.55-.07Zm-.55,6.14-.69.28-.21-.48v-.76l.76.48Zm.35,3-.28.35-.48.14.21-.55Zm-.9,6,.14.48-.41-.14-.35-.28-.14-.48Zm-.76-1.45.48.41-.35.07Zm.48-13h.41l-.14.35h-.28Zm-.9,3h.55l.28.35h-1.17Zm-.62,6.35.28-.14v.48l-.28-.14Zm-.76,1.86.41.28.21.41-.48-.14-.41-.21-.21-.41Zm.07-6.69.21.48-.41-.07-.21-.35Zm-2.35,12.42v-.76l.62.14-.21.48Zm.76,1.86-.14-.55.35.28.21.48Zm.76-1.31h.28v.21h-.28Zm.55,2.14h-.28v-.28h.28Zm-.28-6.21.55.28.07.48-.35-.35Zm.83,7.59-.21-.35.41-.14.21.41Zm.35-1.59-.14-.55.48.48Zm.48-1.17-.48-.35-.28-.55.55.14.35.34Zm.14-5.59h-.41l-.07-.55.07-.35.41.41Zm.62,10h-.28v-.21h.28Zm.76,1-.28-.48h.55l.14.48Zm-.28-3.11-1,.21-.07-.55.14-.48.55.07,1.1.21Zm.76-.69-.07-.48.07-.41.9.28.41-.28.35.48-.41.41Zm1.79.21.28-.35.21.48-.62.28Zm.28,3.24-.34-.21-.14-1,.41-.07.41.07Zm0-1.79v-.28l.35.28Zm1,2.14-.28-.76.55.21.35.41Zm.55-3.24.07-.41.62.14-.69,1.24-.41.28-.28-.28.28-.35.48-.14Zm.9,2.21-.41.14-.41-.14v-.34l.34-.14h.55Zm.35,1-.07-.21.14-.41.21.28Zm-.21-2.28.07-.48.41.21.07.55Zm1,3.73-.35-.14.35-.35Zm.28-4.9.48.07.35.48.21.62-.55-.28Zm1.31,4.07h-.41l.21-.69-.07-1,.48.21.76.62.14.48Zm.35-2.42.62-.07-.48.48Zm.07-3-1.17.35-3.59-1.59-.14-.62-.76-.9v-1.24l-.41-.41.14-.41V106l.62-1.31-.21-.48.21-.48.69-1,.14-.48-.14-.48.9-1.66.76-.28.21-.55.69-1,.21-.55.69-.14,2.21-1.45,1.1-.41,1-.21h1.17l.55.14.41-.35.35.14L285,96l.35.28,1,.34.14.48,1,1.24.21.48.21,1.52.35.48-.21.48-.07,1.1-.28.48.14,1.1-.28.48-.48,1.73-.48,1-.41.41.41.76-.69.14-.07.55-.21.41-1.52,1.38-.83,1.45-.62.07-.83.55.14.69-.35-.41Zm7.11-2.48-.69.14.14-.76,1,.28Zm.21.76-.35-.28.21-.21ZM285,113.56l-.62.14-.14-.48v-1h.41l.07.48.21.35Zm-3.38.76v.48l-.41-.21Zm-.69,4.21-.14-.9.28-.14.76.62-.35.35Zm1.31,1.38-.55-.28.76-.76-.48-.76.41-.21.21-.41-.28-.21-.48-.07-.07-.69L282,116l.41.28.69.76.28.48-.21.55v1Zm0,5.38.48-.14.62-.69.21.55-.07.41-.28.35-.48.14-.41-.14-.35.28Zm.9,1.59.14-.48.28.14.07.48Zm.83,2.55.41.21.28.41v.55l-1.31-.35.21-.62Zm-.69.14-.48.21-.21-.41h.55Zm-2.07.14.48.14-.07.48-.35-.14Zm.48,4.35-.35-.14.28-.62.41.28.21.48Zm.28-7,.48-.07.28.55v.55l-.48-.41Zm.41,3.73.21-.41.55-.07-.34.48Zm.76,1-.28-.28.41-.28.48.35.14.34-.62.35Zm.21,2.28.28-.41H284l.28.41Zm.76-2.28h.55l.14.76Zm1.66-2.07-.62-.28.21-.35.41-.14.14.41Zm.69-2v-.41l.35.41Zm.62-.76-.76-.14.21-.48.28-.41v-.62l.28.07.07.48-.14.48Zm1.17-5-.55-.41-.55.07-.35-.21-.35.41.14.69.35.41h.48l.14.55.76-.41.28.76.48-.14.69-.48-.14-1,.62-.21.28.21-.41.76v.55l-.35.14-.14.35h.62l-.07.55.21.48-.62.28h-.55l-.35.83-.9-.07.35-.41V125l.48.21.41-.07-.48-1.17-1.17.41h-.48l.35-.69-.76-.9-.41.21-.21.35v1l-.48.14-.62-.07.35.9.76.28-.14,1-.48,1-.83.62-.55.21.28-.48.48.07-.14-1.38.62-.14-.14-.41-1.1.14v-.76h.76l-.14-.41.14-.48h-.9v-1l.48.21.62-1,.41.21.35-.07-.28-.35-.83-.41-.41.41-.62.21-.28-.21.21-1.1-.55-.21.14-1.17.28-.41.48-.21-.14,1,.55.35-.07.55,1.31-.62v-1.1l-.28-.28v.9l-.35.21-.28-.35.34-.28-.62-.76.14-.76.41.14.76-.14.34-.55.55-.34-.83-.76-.14.28.07.48-1,.34-.69.62-.55.21.14-.55-.14-.48.9-.28-.28-.41-1-.35.35-.62-.48-.9-.41-.28.28-.48.41.14v.76l.48-.14,1.24-.76.14.76.48.28.35.48.48.28v-.48l-.76-.69-.28-.41.35-.55.48-.21.55.14-.07.55-.28.35.21.41.41.21-.07.41.41.28.55.07v.62l.28,1-.69-.14-.14-.55-.28-.41-.48-.21v.9l.55.21.62.83,1.24-.76h.55l-.28.48.14.55.41.35.07-.55.55-.83L290,118l-.21-.35v-1l-.62.14-.41.28-.62-.41.62-.48L288,116l-.69-1.17.14-.48-.35-.48v-.55h1.38l.07.48-.21.41H289l.28-.48.76,1.66.48-.21.41.14.28.41-.14.48.07,1,.35,1-.55.21-.62.83.48.76-.69.83-.14.55Zm.62.62-.55.14-.35-.55Zm2.28-1,.14-.62.35.48Zm.9,1.38-.35-.28-.07-.62,1.17.28Zm.55-2.69.07.69-.41-.28-.62-.14.41-.9-.41-.21h-.55l-.35-.41h.41l.48.14v-.41l.69.69.48.21Zm-.55-2.14v-.35h.35l-.07.35Zm.76-2h-.55l-.48.21.07-.41.21-.35.62.21.62-.07Zm2.28,4.07-.21-.28.21-.28Z"/><polygon class="87b2bf35-1d2c-4a5d-adf4-3c69074cf228" points="287.25 121.09 287.59 121.29 287.73 120.67 287.11 120.67 287.25 121.09"/><polygon class="87b2bf35-1d2c-4a5d-adf4-3c69074cf228" points="288.14 120.19 288.01 120.81 288.56 121.09 289.04 120.95 288.7 120.47 288.14 120.19"/><polygon class="87b2bf35-1d2c-4a5d-adf4-3c69074cf228" points="286.56 118.81 286.07 118.88 286.21 119.43 286.49 119.78 286.97 119.5 287.11 118.88 286.56 118.81"/><polygon class="87b2bf35-1d2c-4a5d-adf4-3c69074cf228" points="288.14 119.16 287.73 119.16 287.59 119.78 288.28 119.91 288.14 119.16"/></g></g></svg>