<svg xmlns="http://www.w3.org/2000/svg" width="374.2" height="49.72" viewBox="0 0 374.2 49.72"><defs><style>.\38 0ce52dd-5f15-44fb-b51c-31eca4afbda9{fill:#1c264a;}</style></defs><title>アセット 3</title><g id="9f7f3c24-6ed3-4cc1-b5cc-7cbadc04593e" data-name="レイヤー 2"><g id="a51a55e5-17e9-4836-a165-5331eef74af8" data-name="レイヤー 1"><path class="80ce52dd-5f15-44fb-b51c-31eca4afbda9" d="M283.15,23.46l-1.91.07v-.66c0-.53,0-2.11,0-2.55.29-.15.4-.26.4-.4s-.13-.22-.33-.24l-2.53-.22a24.89,24.89,0,0,1,.18,3.68v.44l-6.05.18c-.51,0-2.69.07-3.15.07-.18,0-.44,0-.79,0l0,2.29c.92-.07,2.62-.13,3.94-.18l4.86-.15c-.2.29-.84,1.1-1.32,1.65a30.56,30.56,0,0,1-8.39,6.4,6.16,6.16,0,0,1,1.36,2.07,32.37,32.37,0,0,0,3.63-2.33,27.6,27.6,0,0,0,5.48-5.33l.37-.55V35c0,.66-.13.75-1.34.75-.35,0-.81,0-1.72-.13A9.62,9.62,0,0,1,276.4,38a13.6,13.6,0,0,0,3.65-.24c.88-.24,1.21-.75,1.21-1.85,0-.68,0-1.34,0-2V25.69l2-.07c.48,0,2.49,0,3.15,0h.79l0-2.29C286.1,23.35,284.54,23.42,283.15,23.46Z"/><path class="80ce52dd-5f15-44fb-b51c-31eca4afbda9" d="M294.24,27.67c-1,0-2.32,0-3.15-.07V30c.83,0,2.14-.07,3.15-.07H304.3c.91,0,2.32,0,3.17.07V27.6c-.85,0-2.26.07-3.17.07Z"/><path class="80ce52dd-5f15-44fb-b51c-31eca4afbda9" d="M317.3,26.35V24.41c0-2.66,0-3.94,0-4.4.29-.18.37-.29.37-.42s-.11-.2-.33-.22l-2.6-.15c.09.53.11,2.31.11,5.19V33.3c0,2.18,0,4-.13,5.15h2.62c0-1.08-.09-2.82-.09-5.15V27.2a23.44,23.44,0,0,1,6.76,4.42l1.61-2.11A31,31,0,0,0,318.05,25Z"/><path class="80ce52dd-5f15-44fb-b51c-31eca4afbda9" d="M322.8,20.14a12.79,12.79,0,0,1,2.66,2.27l1.1-1.19a14.19,14.19,0,0,0-2.8-2.2Z"/><path class="80ce52dd-5f15-44fb-b51c-31eca4afbda9" d="M323.75,24.32l1.1-1.21a14.85,14.85,0,0,0-2.8-2.2l-1,1.12A13.51,13.51,0,0,1,323.75,24.32Z"/><path class="80ce52dd-5f15-44fb-b51c-31eca4afbda9" d="M346.06,21.7l-.33.37-7,.18c-1.28,0-2,0-2.88,0-1.76,0-2.95,0-4.42-.07l.15,2.51c1.21-.07,1.76-.09,2.66-.11,1.32,0,2.84-.11,4.58-.15l6.12-.18a17.27,17.27,0,0,1-2.55,5.61c-1.89,2.69-4.58,4.6-9,6.49a5,5,0,0,1,1.47,2.16A32.45,32.45,0,0,0,338,37a20.86,20.86,0,0,0,6.21-5.26A23.49,23.49,0,0,0,347.51,24c.33-.13.44-.22.44-.37a.38.38,0,0,0-.18-.29Z"/><path class="80ce52dd-5f15-44fb-b51c-31eca4afbda9" d="M347.23,19.08a13.37,13.37,0,0,1,2.66,2.27l1.1-1.19a14.86,14.86,0,0,0-2.8-2.2Z"/><path class="80ce52dd-5f15-44fb-b51c-31eca4afbda9" d="M345.71,20.8a13.51,13.51,0,0,1,2.66,2.29l1.1-1.21a14.86,14.86,0,0,0-2.8-2.2Z"/><path class="80ce52dd-5f15-44fb-b51c-31eca4afbda9" d="M373.41,27.82a22.11,22.11,0,0,1-6.84,5.52V24.74c0-1.69,0-2,0-2.49.31-.2.42-.31.42-.44s-.13-.2-.37-.22l-2.44-.15c0,.59.07,1.56.07,3.3v6.69a14.88,14.88,0,0,1-.26,4.09l1.74.9a1.12,1.12,0,0,0,.33.13c.15,0,.26-.13.35-.44,3.15-1.61,4.31-2.47,7.79-5.72Q373.64,28.75,373.41,27.82Z"/><path class="80ce52dd-5f15-44fb-b51c-31eca4afbda9" d="M361.65,21.66l-2.51-.2c0,.7.07,1,.07,1.78,0,1.45,0,2.86-.11,3.7-.2,2.82-.84,4.58-2.18,6.05a13.38,13.38,0,0,1-3.35,2.4,8.29,8.29,0,0,1,1.54,1.89c1-.59,1.36-.81,1.85-1.17a9.35,9.35,0,0,0,3.68-4.73c.68-1.89.86-3.68.86-9.11.26-.11.44-.29.44-.42S361.79,21.66,361.65,21.66Z"/><polygon class="80ce52dd-5f15-44fb-b51c-31eca4afbda9" points="68.33 31.06 68.53 31.26 68.78 31.01 68.13 30.81 68.33 31.06"/><polygon class="80ce52dd-5f15-44fb-b51c-31eca4afbda9" points="55.42 20.56 55.12 20.56 55.12 20.86 55.32 20.86 55.42 20.56"/><polygon class="80ce52dd-5f15-44fb-b51c-31eca4afbda9" points="14.96 30.26 14.51 30.46 14.86 30.51 14.96 30.26"/><polygon class="80ce52dd-5f15-44fb-b51c-31eca4afbda9" points="66.08 31.91 65.83 32.21 66.03 32.46 66.58 32.11 66.38 31.76 66.08 31.91"/><polygon class="80ce52dd-5f15-44fb-b51c-31eca4afbda9" points="66.83 32.56 67.08 32.46 67.13 32.11 66.83 32.01 66.83 32.56"/><polygon class="80ce52dd-5f15-44fb-b51c-31eca4afbda9" points="100.06 27.21 100.16 26.76 99.76 26.76 99.81 27.06 100.06 27.21"/><polygon class="80ce52dd-5f15-44fb-b51c-31eca4afbda9" points="93.75 31.71 93.7 31.91 93.95 32.01 93.75 31.71"/><polygon class="80ce52dd-5f15-44fb-b51c-31eca4afbda9" points="97.56 22.96 97.31 22.76 97.46 23.31 97.56 22.96"/><polygon class="80ce52dd-5f15-44fb-b51c-31eca4afbda9" points="100.71 25.26 100.71 25.56 100.91 25.71 100.96 25.26 100.71 25.26"/><polygon class="80ce52dd-5f15-44fb-b51c-31eca4afbda9" points="100.76 26.86 101.06 27.01 101.01 26.56 100.61 26.46 100.76 26.86"/><polygon class="80ce52dd-5f15-44fb-b51c-31eca4afbda9" points="97.46 30.61 97.86 30.56 97.96 30.16 97.56 30.21 97.46 30.61"/><polygon class="80ce52dd-5f15-44fb-b51c-31eca4afbda9" points="98.31 28.86 98.66 29.21 98.76 28.96 98.31 28.86"/><polygon class="80ce52dd-5f15-44fb-b51c-31eca4afbda9" points="101.36 30.06 101.16 30.26 101.71 30.26 101.46 29.71 101.36 30.06"/><polygon class="80ce52dd-5f15-44fb-b51c-31eca4afbda9" points="143.15 13.91 143.15 14.31 143.45 14.31 143.15 13.91"/><polygon class="80ce52dd-5f15-44fb-b51c-31eca4afbda9" points="141.3 13.81 141.7 13.66 141.95 13.41 141.95 13.11 141.7 13.26 141.4 13.41 141.3 13.81"/><polygon class="80ce52dd-5f15-44fb-b51c-31eca4afbda9" points="139.65 17.61 139.75 18.06 140.2 18.06 140.25 17.66 140.05 17.41 139.65 17.61"/><path class="80ce52dd-5f15-44fb-b51c-31eca4afbda9" d="M157.8,6.4l.15.75.35.25.75,1.1.55,0,.1.35L160,9l1.65.2.4-.15.35.2.6-.2.35.1,1.4-1,.35,0,.15-.45.6-.55.25-1.65-.1-.4.3-.2-.2-.45V4l-.55-.45.1-.75-.4-.25-.5-.1L165,2l-.35-.2-.5,0,.1.65-.65-.1.4-.55V1.4l-.1-.15L163,1,161.8.8l-1.15.2-.65.3-.6.5-.4.1-.35.25-.55.65,0,.65-.5.9.2.55ZM161.25,8l-.35-.1.1-.35h.45l.1.3ZM160.7,5.2l.45-.2-.1.2Zm.75,1.65V6.4l.25.1ZM163.1,8.5h-.2V8.35h.2Zm-.35-.45.1-.8.25,0,0,.45.15.3Zm.45-.9.1-.4.15.25ZM165.25,6l-.3.35-.25-.25-.35.2-.15.35-.45-.1-.1-.45.4-.2.25-.4.6.45ZM164,4.1l0-.3.45-.15.25.35-.45.1.3.75-.4.1-.4-.1-.3-.2Zm-1,1.5-.45-.2-.25-.3.1-.35.75.3.2.25.1.45ZM163.4,3l-.2.35L163.1,3Zm-1.3,1,.2-.2.4,0,.35.1.25.3-.55-.05-.65.3Zm-.1,1.6.2.35v.3l.4.45,0,.4-.5-.1-.35-.3.3-.25-.25-.25-.2-.3V5.4Zm-.35-4h-.2l-.1-.1Zm-1.2,2h.25l.2.45.45-.2.45.1-.25.4-.3.25-.45.2-.15-.45L160.4,4Zm-.1,1.2-.25.15L160,4.65Zm-1.2.8.1-.1-.1.3Zm-1.05-.7h.2V5h-.2Z"/><polygon class="80ce52dd-5f15-44fb-b51c-31eca4afbda9" points="178.65 33.81 179.05 33.96 179.05 33.56 178.6 33.41 178.65 33.81"/><polygon class="80ce52dd-5f15-44fb-b51c-31eca4afbda9" points="184.3 17.26 184.5 16.86 184.25 16.76 184.3 17.26"/><polygon class="80ce52dd-5f15-44fb-b51c-31eca4afbda9" points="180.15 33.56 180.35 33.11 180 33.11 180.15 33.56"/><path class="80ce52dd-5f15-44fb-b51c-31eca4afbda9" d="M248,24.06l-1.25-.75-.8-.25h-.45l-1,1.35-1,1.8,0,.45-.6.55-.45.65-.7,1.55-.9.7-.5.6-.8,1.3-.75.4-.3.3-.45,0-.75.35-.2-.15-.35,0,.1.65-.3-.2-.15-.3.1-.35-.55-.15.05-.35-.25-.7.4-1.55.55-1.6.35-.7v-.9l.9-2.85v-.8l.2-.3.1-.4,0-1.2L238,19.66l-.3-.85-.4-.65-1-1.1-.75-.2-.7-1-.4,0-.6-.4h-.4l-.65-.65-.65.1-.2-.35-.4-.25-.45-.1-.45.05-.3-1.05.6-2.7V9.8l-.1-.45-.3-.15-.35-.1-.45-.65-.7-.4-.75-.2-.85,0-2.4.55-1,1.1-.85,1.35-.25.8-.1.8.25.8,0,.4.45.55v.4l.15.35.85,1.25.1.4-.8,1.7v.45l-.4.45-.3,1.7-.2.25-.4.15.1.75-.35.25-.4.7-.1.35,0,.44-1.12,2h-.3v.65l-.35.15-.5,1-.3.2-.4.1-.15.4-.55.65L216.91,30l-.2.35-.45.1-.35.65-.65.45-1.4.65-.35-.1-.9.5-1.55.45-1.65,0-.7.25-1.3-.15-.4-.35h-.45l-.45-.4-.65-.1-.75-.55-.35-.15L204,31h-.4l-.25-.2.25-.1.2-.25-.5-.65.1-.7.25-.3.4-.2h.75l1-.45.35.05.35-.15.4.25.2-.25.35.35,2.05-.4.65-.25.25-.25.8-.1,1.15-.6.8-.25.25-.7.3-.2v.45l.5-.1.2-.4,0-.4.4,0,1.1-.7-.15-.4,0-.35.25.15.3-.05,1.1-1.6.55-1.75.1-.8-.3-.4.3-.8-.2-.45v-.85l-.75-1.45-.25-.75-.35-.2-.8-.85-.65-.4-.5,0-.5-.55-.6-.45-.35.05-1.05-.4-.35,0-.4.1-.3-.25-.7-.2h-.85l-1.9.45-.3-.15h-.4l-.6.35-.55-.2-.85.45h-.85l-.65.4-.7.25-.3.55-.75.3L200.4,15l-.5.55-.35.15-.55.5-.65,1-.55.5v.55L197,19l-.4.65,0,.35-.3.2V21l-.55.35v.45l-.65,1.8-.15.7.15.75-.15.35,0,.27,0,0-.3,1.35-.35.35-.45.2-.2.75-.6.5-1,1.1-.4.15-.25.65-.75.4-1.35,1-.45.15,0,.45-.25-.3-.4,0-1.3.25v-.35l-.65.25-.5-.4-.35-.1-.9-.05-.25-.25-.75-.1-.2-.35-.35-.2-.9-.1-.9-.55-.4-.1-.65.25v-.45l.4-1.05.5-.6,1.25-1,1.1-1.1.35-.7.45-.2.3-.3.35-.65.65.1.85-.8.45-.65.75-.45,1.2-1.15,1.05-1.25.4,0,1.05-1.2,1.25-1.05.75-.4.15-.4.6-.45,0-.45.4-.65,0-.4-.55-1.65-1.05-1.2-.65-.3-.8-.05-.85.3-.25-.2-.35-.1-1.2.15-1.65-.2-.8.15-.55-.2-.4.15-1.1.1-.35.15-.25-.25-.85-.05-.4.1-.25.2-.4-.15-.9,0-.35-.2-.3,0-1.5.25-2.35-.25-.7.15-.35.2-.55-.3-1.65.25-.65.5v.65l-.35.25-.2.3-.3,1.25-.2.4.3.35-.35.1-.75,1.7v.45l-.25.2-.15.35-.1.75-.65,1.25-.15.85-.4.55-.4,1.1-.3.2V24l0,.08-1,1.42-.25.75v.45l-.45.2L165.7,28l-1.35,1.9-.35.65-.4.2-.45.7-.45.2-.55.65-.5.15-.35.3-.4,0-.7.35h-.8l-.4-.1-.85-.75-.3-1.05.2-1.9.3-.35-.1-.5.3-.25.15-.4-.1-.4,0-.4.7-1.3.1-1.2,1-2.25.15-.75-.05-.4.25-.3.4-1.2v-1.3l.3-.25.5-1.05.25-.25-.1-.65.35-.65,0-.45-.15-.75.4-.15.25-.3-.2-.4.2-.45-.25-.25-.3-.2-1.15-.15-.8.15-.45-.3-.45.15-.8-.1-.4.15-.75-.15-.25.25-.75-.2-.3.2-.45.6-.35.15v.45l-.65,2v.75l.15.35-.3.2-.35.65-.25.8-.35.65v.35l-.25.8-.25.25-.1.85-.5,1.55,0,.62-.1.08-.35.7-.5,1.55-.55.2-.1.45-.65.85-.1.45-.55.4-.2.3-.15.8-.55.1-.75.9-1.75,1.55-.7.45-1.5.75-1.65.1-.75-.25-.2-.3-.55.1.05-.4-.35-.25-.1-.65-.45-1.1.25-.2.15-.35.25-1.65.3-.4V27l.35-.7.15-.9.25-.8.25-.35,0-.85.15-.4.25-.3v-.4l-.1-.25.45-.65.5-1.6-.3-.45.65-.2-.15-.9,1.5-.4.8-.1.8.15.35-.15.85,0,.3-.2.55.4,1.3-.1.45-.25.35-.55.55-1.7.1-1.2.5-.55v-1l-.65-.45-.75.3-.7-.3-.7.05-.35.15-.85-.25-.8.15-.35-.2-.45-.1-.25-.25,0-1.25,1.05-3,.2-1.6.4-.6L148,5l-.1-.85-.35-.05-.75,0-.4.1-.55.5-.65-.3-.7.35-2.45.7-1.55.55-.1.4-.45.6,0,.45-.55,1.4,0,.35.1.45-.35.6-.2.7v.45l-1.05.75-.35.1H136.3l-.7.25-.45.6-.15.4-.05.9-.45.5-.25.7-.15,1.8.7.35,1.55.4-.5,2.5-.45,1.5.2.55-.3.2-.25.7-.3.3v.45l-.25.25,0,.33-.51.92h-.3v.65l-.35.15-.5,1-.3.2-.4.1-.15.4-.55.65L130.16,30l-.2.35-.45.1-.35.65-.65.45-1.4.65-.35-.1-.9.5-1.55.45-1.65,0-.7.25-1.3-.15-.4-.35h-.45l-.45-.4-.65-.1-.75-.55-.35-.15-.35-.65h-.4l-.25-.2.25-.1.2-.25-.5-.65.1-.7.25-.3.4-.2h.75l1-.45.35.05.35-.15.4.25.2-.25.35.35,2.05-.4.65-.25.25-.25.8-.1,1.15-.6.8-.25.25-.7.3-.2v.45l.5-.1.2-.4,0-.4.4,0,1.1-.7-.15-.4,0-.35.25.15.3-.05,1.1-1.6.55-1.75.1-.8-.3-.4.3-.8-.2-.45v-.85l-.75-1.45-.25-.75-.35-.2-.8-.85-.65-.4-.5,0-.5-.55-.6-.45-.35.05-1.05-.4-.35,0-.4.1-.3-.25-.7-.2h-.85l-1.9.45-.3-.15h-.4l-.6.35-.55-.2-.85.45h-.85l-.65.4-.7.25-.3.55-.75.3-1.25.85-.5.55-.35.15-.55.5-.65,1-.55.5v.55l-.75.85-.4.65-.05.35-.3.2V21l-.55.35v.45l-.65,1.8-.15.7.15.75-.15.35,0,.35-.64.55-.8,1.3-.4.1-1.55.9-.75.15-.35-.1-.35-.3.1-.35-.1-.3-.65.2-.2.25-.65-.25-.4,1.1h-.35l.4-.75-.4,0-.35.25-.25-.2,0-.35h.55v-.6l-.45,0-.35.15.1.3v.25l-.4-.45-.25.35-.25,0-.25-.25-.35-.15-.85.55.4.05.25-.2.2.15.35-.1.55.75v.4l-.15.45-.65-.2v.3l.15.3-.15.25-.7-.85H98l.7,1.3-.8.3-.5-.05.3.25.45.15.3.25-1.1.3-.3-.55.1-.4-.6-.6-.4-.2,0-.3.4-.65.3.15.9-.5h.45v-.25l-.55-.5.15-.3.6-.5.25-.4-.45-.15.4-.2.25-.35.1-.35.25-.3.4-.2-.1.4.1.35.55-.5-.35-.8,0-.4.35.1,0,.4.8-.4.4.75v.85l.35.05.35-.15,0,.45-.4,1.2.2-.05.25-.25h.4l.55-.35.25.25.3,0v-.8l.3-.15-.1-.5.45-.7-.1-.55.3-.75v-3.2l.15-1-.25-.55,0-.4-.35-.7-.1-.85-.3-.7-.8-1.15-.1-.6-.65-.45-1.1-1.15-.45-.1-.35-.2-.55-.5-3.2-.6h-.8l-1.35.5h-.65l-.45.1-1.4.9-1.05.2-.25.25-.45-.5-.1-.4-.6-.4-.7-.25-.4.15-1.5,0-.4.1-.65-.2-.35.15-1.5,0-.6.5-.4.15-.7,2-.25.3.1.55-.2.35-.55,2.05-.45.65,0,1-.6,1.35.1.55-.35.35-.15.9-.25.75v.26l-.32.14,0,.45-.7.85-.35.85-1,.75-.25.35h-.4l-.25.3-1.25,1-.25.35-.25-.3-.75,0-.3-.2.3-.65.1-.7-.1-.9.55-.05v-.85l.45-1.3-.1-.55L75,23l-.1-.45.2-.55-.25-1.75-.15-2.35-.35-.6v-.5l-.3-.35-.65-1.5-.25-.35-1.5-1.3-.7-.1-.5-.65-.65-.25L68.23,12l-1.65-.15H65l-.3.55-.7,0-2.5,1.1-.75,0-.3-.25-.65-.85-1.25-.15H57l-.35.15-.7-.2-1.6.2-.75-.1-.3.75-.3.25-.3,1.2v.45l-.45.65-.3.8.1.5-.5,1.05-.05.35.1.35-.3.3L50.77,20v.75l-.7,2.15-.05.9-.55.35.2.55-.5,1-.85,3.05-.3.65.2.4L47.57,31l.25.55-.75.8v.3l-.5,1.4-.15.8-.4.55-.2.75-.55.4-.2.25.1.35-.55.1-.2.4-.3.25-.4.15-1.2,1-.7.4-.7-.15-.7.05-.55-.5-.25-.8-.1-1.65.65-1,.3-.8.15-.9v-.85l.3-.4.6-1.8.05-.85.35-.65.35-1.5.4-.35.15-.75v-.85l.3-.3.2-.4-.1-.5.3-.25.5-1.85.2-.3-.2-.45.65-1,.15-.8.35-.6v-.85l.6-1.5.15-.8,0-.45.7-1.05.15-.4v-.7l.1-.35-.3-.3-.7-.4-.35.1-1.7-.1-.35.25-.4-.25h-.8l-.4-.2-.15-.8L41.77,9l-.15-1.45-.3-.65-.25-.3.05-.4-.25-.8-.45-.7-.55-.6V3.65l-.35-.15-.35-.1-.5-.85-.9-.35-.2-.4-.75-.15-.5-.45-.4-.2-.8-.15-.4,0-1-.5-.8-.15h-.8l-.35.1-.3-.2L30.71,0l-1.6.2-.7.25L28.21.3,27.86.25,27.31.7,26.06.85l-1.55.55-1.45.7-1.2.35-.2.4-1.45.9L20,4.1l-.75.25-.75.75-.6.4-.5.5-.45.7-.6.55-.45.6-.15.45-.7.45-.5.65-.4.75-.55.6v.65l-.35.2-.65,1.1-.3.3-.15.9-.85,1.3.15.3,0,.25-.3.15-.15.3.15.55-.6.9-.3.7v.8l-.5.65-.35.3L9,20l-.75-.45-.45-1.1-.35-.6v-.35l-.5-.75-.1-.4.1-.8-.35-.7.3-.7.05-.9.35-.7.05-.5.4-.55-.05-.35.5-.45.2-.35,0-.4L9.65,9l.15-.35V8.3L9.3,6.9,9,6.7,7,4.4l-.6-.5L5.6,3.55,3.8,5.15l-.5.65L3,6l-.55.5-.1.4L1.2,8.5l-.1.8-.55.45.1.65-.4,1L0,13v3.1l.2.35.15,1.15.25.7.8,1.4,0,.4.5.15-.1.25v.35l1,1.15.4.65.6.45.4.15.15.35.65.5.2.35.4.05.85.6.4,0,.6.55,1.15.5.2.35.1.75.25.25.3.75-.15,1.15.45,2.1,0,.9.25.3.45,1.2.45.65-.1.45.45.2.55.9.1.45,2.1,2.15.55.15.2.4.55.15.4.4h.45l1,.6.45,0,.3.25.75.25.85.15.35.2.7-.3.35.25.4.1L24,41l1.6-.4,1.45-.5.7-.35,1.75-1.25.35,0,.2-.35.65-.4.25-.25V37l1.3.1.2.35-.3.65.45,1.2.3,2.1.8,1,.5.45.75.2.45.65h.5l.35.1.6.4,2.35-.1v-.45l.6.25h.5l.35-.35.4.15.3-.3.75-.4.8-.15.45.05.2.35v.8l-.4,1.15v.55l-.85,2.8.2.5,1.2.6.65-.2.45.2.2-.2.35-.1,1.2.15,1.7.05.7-.15.5-.35.35-1.35.45-.75-.1-.55.5-1v-.6l.55-1.1V42.62l.55-.35.2-1.3.4-1.55,1.15-2.9-.15-.4.15-.8.5-.65.65-.3h.3l.45.5,0,.55.3.1.3-.1.25.35.15.5.75.55.25.35.45-.1.5.6,2.25.5.8,0,2.5-.3L65,37.47l.6-.4.3.1.35-.1.85-.7.35-.15,1.25-.9.1-.55.85-.35.15-.3.85-.75.75-.35,1.2-.25.85.1L75.78,32h.4l.91-.63-.09.18-.3,1.55-.3.45-.25,1.1-.2.3v.45l-.3,1.1-.35.55-.1,1-.2.3-.7,2.2-.75,3-.3.35-.15.4.2.55-1,2.1-.45,1.8.2.3.55.5,4.9.2.3-.2.9-.05.1-.4.6-.85.1-.35-.1-.45.4-.55-.1-.35.2-.25.25-.65v-.4l.25-.3.15-.4.15-.9L81.3,42l-.1-.35.45-.6.2-.85v-.5l.2-.25.45-1.05-.1-.4.65-1.5L83,36l.4-.55.1-.9.55-.2.65.45.5.55.15.4.3.2.4.5.4.25.8.3.55.6.3.15h.55l1.7.55h.45L91.2,38l.75.15,1.55-.05.9-.6,1.2-.45.3-.25h.65l.1-.55.8-.15.35-.2.65-.6.4-.75,2.3-1.65.65.3.55-.4,1.3-.1.8-.2,3-1.25.25-.35.76-.51.08.21v.75l.45.6.7,1.5.85,1.3.7.4,0,.35.2.3h.45l.2.3,1.05.65.25.25.75.1.55.4,1.65.35.75.25.55-.2.25.2.75.25.8-.05.3-.2.1.3.3.15,1.15-.3,3.15-.4.65-.3,1.65-.4,1.35-.7.45-.55h.55l1.2-1.05.7-.35.25-.35,1.9-1.6.24-.4v.7l.4,1.15.25.3.1.75.45.45.1.4,1.45,1.15,1.45.75,1.7.45h1.75l1.3-.35h.4l.45.2,1.2-.45L145.5,37H146l.55-.65h.3l.65-.25.35-.3.65-.85.35-.1.35-.45h.4l.5-.6.66-.9.13,1.1.5,1.55.65.2v.75l.25.15h.4l.5.6,1.05.55,1.75.45.35-.15.3.05.35.2.75-.3.85.1,2-.6,1.45-.65,1.1-1,.45-.1.5-.65.6-.55.4-.2.45-.65,2.15-2.4.15-.75.3-.25L169.5,28l.5-.65V26l.65-.1.2-.8V25l1.2-2.15.1-.85.65-.9.2-.85.35-.7,1.3-.55.55.25,1.55-.25.75.15,1.6-.2,1,.2.85,0,1.65-.2.65-.75v.3l-.45.55,1.4.45.2.25,0,.4-.35-.15L183.5,20l-.4.85-.4.1-.3.2-.45.55-.6.4v.5l-.8.15-.1.5-1,.8-.75.45-.5.7-.7.45-.3.45-.9.55-.1.45-.2.3-1,.65-.15.35h-.55l-.15.4-1.05.75-.2.4h-.45l-.1.4-.4.55-.4.1-.75,1-.45.15-.3.25-.5.65-.7.4-.5.5-.25.75,1.1,1.55.35.2.8.7.45.1.35-.25.75-.5h.55l.35-.25.8-.1.9-.25.35.1.3-.05,0-.25.35.2.25.35,1.9.2.85.6.35.1.4-.15.3.25.3,0,.3-.2.25.25,1.25.35.45.3h1.3l1.35.3.85-.3.55.2.45-.3.5,0,.45-.1,1-.45.45-.05.65-.55,1.15-.6.25-.3.65-.25.55-.55.1-.4.65-.2.2-.45.3-.25,0-.4.4-.2.6-.55.74-1.17.35.47.7,1.5.85,1.3.7.4,0,.35.2.3h.45l.2.3,1.05.65.25.25.75.1.55.4,1.65.35.75.25.55-.2.25.2.75.25.8-.05.3-.2.1.3.3.15,1.15-.3,3.15-.4.65-.3,1.65-.4,1.35-.7.45-.55h.55l1.2-1.05.7-.35.25-.35,1.9-1.6.65-1.1.35-.2.8-1,1-1.35v-.55l.55-.5,1.2-2,.08-.72.36-.63.55-1.5.4-.65.1-.75.25-.35.2-.7.3-.35.2-1,.7-.9.1-.35.75.15.25.15.75.15.25.3.65.5,1.15.5-.35.45.2.35V21l-.4,1.15,0,.4.15.4-.35.7-.5,1.5-.35.75v1l-.45.65.1.4-.3.75.1.4-.3.25-.1.3v1.2l-.35.6.3.9-.1.35,0,1.15.65,2.3.9.65.15.35,1.3.7.7.2.45,0,.4.15.35-.15.2-.3.1.45,1.3-.15.35,0,1.75-.8.8-.15,2.55-1.5L241,35l.35-.2.55-.5,1-1.15.6-.45.1-.65.85-.7.2-.35,0-.45.55-.45.4-1.1.7-.65-.15-.45.55-.3.15-.85.3-.65.6-.85.2-.7Zm-11.76,1.1-.1.35-.15-.35ZM235.85,27l.2.25-.3.2ZM191.16,17l.3.1.05.45h-.45Zm-.1.85-.1.25-.15-.35Zm-.85-2.8.1.4-.35-.3Zm-29.71,1.7h.2v.15h-.2Zm-11.6-3.9.25.35-.3-.1Zm-1.6.75h.2v.15h-.2ZM102.56,24.41l.1,0,.25,0-.1.3-.25-.1Zm-58.74-2.3,0,.4-.25-.25,0-.4ZM5.7,6.25l.2.45-.35-.25ZM3,11.35l.25-.2.15.3-.1.4L3,11.7Zm.45,1-.3.15.1-.45ZM2.9,14.41l0-.3.25.1.15.25Zm.7-1.15-.25-.15-.1-.3.4-.15.3-.3.15.3L3.9,13Zm.45,3.5v-.35l.3.2L4.4,17Zm.2-3.4L4.05,13l.35.1.1.35Zm.35-4,.3-.2.7.25.25-.25.35-.1L6,9.85l-.4-.2-.35.1-.2-.3-.55.3ZM5,13.66l.25-.35.2.35Zm.6,4.85H5.45v-.15H5.6Zm.2-2.4H5.55l.05-.25h.2Zm.45-3.35-.15.3-.4.2,0-.5.35-.55L6,11.85h.35Zm.45,9.75-.15-.4.35,0,.1.25Zm2,2.85.1-.1.3.4Zm31.06.2-.2-.3.45.1Zm.9-.5v-.15l.3.15Zm1.1.5.2-.3.1.3Zm.65-7.75-.45-.3v-.35l.45.1ZM42,19.16h-.2l-.1-.1Zm-.45-1.7-.2-.2.25-.1.2.25Zm1.35,2-.35,0,.15-.25.3-.15Zm0-1.35-.35.1-.1-.35.35,0Zm-.15-1.55-.5-.1.4-.35ZM41.42,15l.75-.4.2.4-.4.2-.25.25,0,.3.25.35-.65.4L41,15.21Zm-.75-1.3H41l-.15.35-.25.2-.2-.45Zm-.3-3.5.05.3h-.15Zm-.3,4.55h.35l-.25.35.6.9.25.75-.35.15-.25.25-.3-.3-.15-.6.05-.35-.15-.8Zm.15,2.85H41l.3.2.25.35.1.35-1.75-.65Zm-.7-.35.3.35-.4-.3Zm.2.8.25.45-.65.1V19l-.15.3-.55-.2-.2.1.2.3.6.4.2.25.45-.3-.25-.55.3-.3.45-.25.05.35-.25.3.85.3-.5.6h.35l.6-.25.35.65-.45.1.1.35-.1.3.4-.25.5,0-.45.45-.4-.15-.35.15-.5-.55-.4-.65h-.45l-.4-.25v.55l-.7-.1.25-.45-.2-.3-.35-.2,0-.45-.4-.55.45.1.3-.25Zm0,3.4h-.25l-.2.3-.35.25-.35.1-.4-.15-.55.1.3-.3.65-.15.25-.3.35.1.6-.45.45,0-.15.3Zm.15,1.15v.25l-.3-.25Zm-.6.25v.4l-.3-.2.05-.3ZM39,29l-.35,0,.15-.55.4.1v.25Zm.2.4-.3.2.1-.2Zm-.3-1.7-.25-.6H39l.2.4v.35Zm-1.45,3.85,0-.35.35-.2.15-.3.25.1-.65.75Zm.1,1.15-.2.15v-.3Zm.1-2.7-.35.1-.25.4-.2-.45.4-.15.3-.25.1-.45-.05-.45.3-.1L38,29l-.15.35.25.3.3.75Zm-1.05,3.65h-.35l-.2-.2-.45,1-.2.8.4,0,.3-.35.15-.45.15.3-.15,1.05-1.05-.05-.35.15.3-.3.15-.5-.4.15-.45,0,.2-.5.55.1.1-.45,0-.45.15-.4-.55-.65.1-.35.25-.25.3,0,.35.1-.15.3h-.4l.15.45.3.3.35-.3.2-.85.4.15.25.65.2.15Zm.1,2.6-.2-.1V36Zm-2.55-1.75.15.25-.3.1-.15-.25Zm-.65-.1-.3.2-.1-.45.65-.5.15.2Zm.5-1.1.1-.3.1.3Zm.1-2.8.35-.2.4-.15L35,31l-.4.05-.35-.2Zm.65-1.1h.2l.1.1-.2.3Zm.1,5.2-.3-.2-.1-.35.35.2Zm.45-3,.25-.1h.4V32l-.4-.1Zm1.3-.65.35-.1.1.45-.35,0Zm0-1.7v-.15l.25.15Zm.9-8.45.55.45-.25.15-.35,0-.25-.25-.05-.4Zm-.35-.75.1-.4.2.35-.1.4ZM37.87,28l-.4-.2-.15-.45.35.25Zm-.1-2,.35-.1.2.3-.2.25h-.25Zm2.3-4.1.35,0-.1.25-.35.1Zm-1.65-9.55.3.15.2.25.05.35L38.62,13l-.2-.25Zm.1,1.45-.5-.1.25-.15Zm-.85-9.3.35.1-.35.15Zm0,8.3H38l-.35.2Zm.2,2.6.15.45.5-.2.2.35-.05.4-.65-.1-.35.65.65.3-.2.55-.8-.4v-.35l.25-.1-.15-.45-.3-.3.15-.35.3-.3ZM37.32,14l.15.3h-.35L37,14Zm0,4.45.45.1-.2.4v.75l-.25-.25-.4-.15.15-.4-.35-1,0-.45Zm-.5-1.15h-.55l.1.45h-.45l.15-.45.2-.4.45,0Zm-.25,1-.1.35-.25-.35ZM35,5.9l-.6.05-.2-.2-.05-.35Zm-.9-1.4.3.2-.3.3-.35-.2,0-.4Zm-1-.55-.4.25-.1-.15Zm-2.35.55v.25l-.25,0-.1-.3Zm-3.1-1.3.35.35-.35.1Zm-1.3,2.7.35.15-.15.3-.25-.2Zm-1-2,.25.15h-.25Zm-.1,1,.4,0,.15-.3.15.25-.35.2L26,5.5l-.1.4-.25.35-.3-.2-.1-.35Zm-.85.1.1.25h-.2Zm-.3,1,.2-.15.6.45-.15.35-.7-.35Zm-.6-2,.3.15L24,4.6l-.45.15ZM23.71,7l.2-.5.1.35Zm.25.85-.35.25-.1-.35.1-.3h.3ZM23.61,5.6l.1.55-.45.1V5.8L23,5.6l-.1-.35Zm-1,.2.4-.1-.25.55.25-.2,0,.35-.1.2-.35-.2-.5,0,.25-.3Zm.25,2.3-.2.25-.2-.25Zm-.85-3.7.3.1-.2.25-.3.1Zm-.2.55.2.3-.25-.1Zm-.05.75.2.2,0,.35-.25-.2Zm.05,1.35-.25.15-.45-.05.25-.25Zm-.7-1.45.15.35-.25.4L20.81,6Zm-.3.85V6.6l-.2-.15Zm-.1.9.25.3.15.45h-.3l-.25-.2-.2-.75Zm-2.3,1.3.4-.2.7-.45.3-.35.25.25v.45l.65.5-.1.25-.35.1-.1-.35-.3-.05-.25-.25h-.5l-.8.35Zm2.2,1.1-.15.55-.15-.2.05-.35Zm-1.75,1-.3.15-.15-.35Zm-.45-1.15.1-.45h.25l0,.35.45.5-.45.15L18.61,10Zm.65,3.25.2.1v.45l-.4-.25Zm0-.45-.1-.5h.35l.1.35ZM19.41,9l.15-.1.25.25-.05.4-.3-.15Zm.45.65.1.25-.2.15Zm-1.6.4v.25L18,10.05Zm-.1,1.3.2.25H18Zm-.1,8.6.15-1.35.5-.45.6-1.85.5-.55.75-1.35.5-.6v-.4l.3-.45.35-.15.2-.4,1.45-1.9.75-.45.45-.65L25,9.3l.1-.55h.35l.9-.55.4-.1L27,7.8l1.35-.55L28.61,7H29l.75-.2.35.1.25-.4.8.15,1.5,0,1.3.6.75.15L36,9.1l.15.75.2.2-.15.55.25.4.1.5-.75,1.75-.25.2.1.3,0,.25-.55.55-.55,1.1-.55.55.1.4-.65.25-1.1,1.3-.55.3-.85.85-3.1,2h-.45l-.7.3-.3.25-.7.35h-.55l-3.7,1.1-.55-.05-1.55.35-1.85-.2-.15-.75.2-1.1Zm17.46,1.15-.6-.45.35-.3Zm-1.15-1-.45.05-.2-.45.45,0ZM17.71,15.46l-.45,0-.25.3-.2.8-.4-.2.1-.4.2-.25-.3-.3-.15.35-.3.25.2-.85v-.45l-.3-.2v-.3l.2.3.3-.15.3.2.4.6.25-.1,0-.35.3.3Zm-2.85,11.3.15-.4h.4v.4Zm.55.45v.25l-.25-.25Zm-2.75,2.4L13,30l-.35.1Zm0-3.25-.25.1-.1-.55.4.1Zm.2-.8-.35-.3-.2-.45.55.1.3.25Zm-.35-2.9.55-.5.1-.4.75.25.55.4.25.75v.55l-.4-.15-.25.25-.35-.2.15-.2-.4-.55h-.3l-.1.4-.45.05.05-.3Zm-.35-1,.05-.4.2-.4.85.1-.15.35-.65.4-.15.35Zm.1,1-.2.5v.45l-.3-.2-.15-.35.25,0v-.35Zm-.2-1.9v-.2l.1-.1Zm1.2,4.9.15-.35.3-.65.25-.25.7-.25.25.75v.35l-.75-.45-.3.2-.25.65.4-.2h.45l-1,.55-.3-.15,0-.4Zm1.3,2.3v.15l-.3-.25Zm-1.3.1-.1-.5.45-.1-.15-.2.35-.35-.2-.25-.1-.4.45.1.35.2,0,.45-.55.3.35.45-.25.35-.35.1Zm.05,1.25L13,29.16l.2-.4Zm.15.85.15-.45.35.05.1.3h.4l.55-.2.1.35-.1.7-.45-.15-1.2-.15Zm.7-.55v-.45h.3l.1.25Zm.65-.2,0-.4-.2-.3-.5-.1.4-.2,0-.1.25.15.55.6v.35Zm.15-7.85.2-.3.4-.05-.15.45-.4.2Zm.4,4.1v-.3l.2.15Zm.1-1.85.25-.2.2.25Zm-.1-1.05.25-.3.4-.15,0,.3-.15.25Zm1.1-1.3-.1.4L16,22l.1-.35Zm0-3.5v-.35l.3.1,0,.35Zm-.45,7.3.25-.25.15.4,0,.4-.35-.15Zm.15,9.1.3-.25-.3.65Zm.2-1.7.35-.2.2.1v.2Zm.75.75.05.25-.35.1Zm.45-19.71-.2.3h-.4l-.15-.3.35-.1Zm-.55-1.65.35.3-.1.25-.45-.15Zm-.2-.65.3-.25.15.25-.35.2ZM17.06,10l.3.1-.45.25-.1-.25Zm-.35.8.1.5-.2-.2Zm-.45,1.75.3.15.15.4-.1.4-.4,0-.35.25-.1-.4Zm-.4,4.05.2.2-.35.15-.2-.4Zm-.65-1-.15-.45.4-.15.25.2v.4Zm0-3.6.5-.45v.85h-.55ZM15,13.81l.25-.1.3.1.15.4-.35.1-.4,0Zm-.35-.8.2.2-.1.6-.35-.65Zm-.25,1.25.35.3-.45.2Zm0,1.55.85-.15-.35.65-.75-.25Zm-1.4-.3.25-.4.3,0,0,.3-.25.3-.4.1Zm-.25,2.05.2-.3.45,0,.15-.3-.1-1.15.2.2.25,1.1.45-.1-.1-.35.35.3,0,.4h.25v-.45l.75.2v.55h-.45l-.3.1-.2.25.3.2.7.25.15.4-.25.15-.35,0,.3.65-.45.15.55.4-.3.45-.35-.2-.55.55.15.45-.15.4-.25-.25.05-.4-.25.25h-.4v-.6l.25,0,.3.1.4-.55L14,19.81l-.1.3-.3.25-.35-.25.25-.45h.4l.1-.25v-.35l.55.4.7-.75-.15-.35-.55.15-.3-.7h-.45l.25-.3-.3,0-.4.15-.2.25.2.5-.45-.15-.2-.3Zm.75,1.35.15-.3.35-.1,0,.5Zm-1-1.1.1.25-.45-.1Zm-.35,1.65.35-.1-.2-.65.5-.1.35.2-.1.9h-.4l-.2.2-.3.1-.2-.35Zm-.55-3.7.25-.65-.25.85Zm.15,6.3-.25.25-.2-.25Zm-1.45-1.85.1-.1-.1.25Zm-.7,1.45.25-.25h.35l-.35.65L9.3,22Zm.75,1.9-.9-.15.15-.2.3,0,.1-.55.25.2.15.35.55-.2.45.8.35.3.35.05.35-.15.25-.25.3.15.15.4-.4.1-.25.25-.65-.45-.3.2-.5.55-.4-.1-.25-.2v-.25l.25,0,.3.2.15-.25V24Zm1.6,3-.15.3H11v-.4Zm-.7-.65.4-.1-.25.45Zm-.8-.2.15-.25.35-.1v.45ZM11,32.16l0-.45.15.55Zm-.15-4.4.2-.45.4.1,1-.2-.2.4.1.45-.35.05Zm1.4,3.5-.35-.15v-.35l.35-.15Zm.35-2.3h-.2l-.1-.1Zm-.2,4.35v-.45l.45.15Zm.55-2,.4,0,.35,0v.35h-.45Zm.7,3.85-.3-.15v-.45l.45.25-.1.2.2.1ZM14,32.56l.35-.1-.25-.35-.4-.2.3-.2.9.1.35-.15L15,31l.4-.1h.45l-.2.3-.3,1.25-.45-.2-.2.3-.55.45Zm1.35.9-.35,0-.3-.25v-.35l.5.15ZM15,35.06l-.55.1.2-.4.25.2.45-.65-.1-.2-.55.3-.4-.1L14.11,34h1.05l.15-.3h.3l-.2.7.2.4-.35.4Zm.55,1.45-.2-.35.55.05.65.25v.6l-.3-.15-.25-.4Zm.6,2-.25-.2.5-.15,0,.25ZM17,38l-.4.15-.1-.3.2-.25h.35Zm0-1.9-.4-.1-.55-.45.2-.3.9.05ZM17.16,33l.1-.25h.2V33Zm1.05,4.8H18v-.35h.2Zm.45-2-.25-.2h.25Zm-.1-1.1-.3.2-.2.3,0,.4.1.45.2.2h.35l-.25.3-.75-.1-.4,0,.15-.4.5-.6-.15-.35.25-.65.45.1.2-.3.3,0,.05.3Zm.2,3.4.15-.25.2.25Zm.7-1.05-.3-.1.05-.35h.25Zm.85,1.2v-.35l.35.1Zm-.1-2.2.4.45-.3-.1Zm1.1,1.5-.35.1.05-.3.4-.2Zm.5-.55-.25-.2h.25Zm.9-.4.3-.25.25.25Zm.75.3-.1-.2.25-.15.3.05Zm4.05-.6-.3.2,0-.4-.2-.3v-.5h.25v.4l.4.25Zm1.9,1.4-.5.1.15-.35.25-.25.3-.05.2.3ZM29,35.87l.25-.05.35.55-.35-.2Zm1.65.5-.2-.2.3-.2Zm0-.55-.3.05.4-.35Zm1.35.65-.15-.3.35.05.1.25Zm.4-5.2H32l-.5.6-.15.35-.35.15-1,.7-.4.15-.3.25-.25.4-.4,0-.6.5-1.4.15-1.65.3-1.65,0-.85-.15-2.3-.9L20,33.51l-.75-.5-.2-.35-.65-.45,0-.45-.5-1-.45.1,0-.45.2-.3-.15-.35-.15-1.25-.25-.35.6-.45.75-.2,1.25-.1.75-.25,1.1.2.8-.15.65-.35.55.2,1.4-.35.45-.3,1.15-.1,1-.55.65-.1.55-.35.9-.25.3-.3.85-.25,2.35-1.35.4-.55.35-.1.55-.45h.3l.25-.3.65-.45.85-.25-.25,1.55,0,.4-.2.2,0,.8-.5.65.1.35-.2.35-.3,1.15-.2.35.15.5-.5.6-.3.2v.45l-.85.9-.2.4-.7.5Zm.3,5.35-.1-.4.05-.4h.85l.1.3.45,0-.2.55h-.65l.1.9-.25.15v-.35Zm.9,3.15-.3-.35.3-.5.25.5Zm.8-.75h-.15v-.15h.15Zm-.6-1.1.05-.25h.4l.3-.25,0-.35.4.2-.15.35-.3.2Zm.9.85.3-.15.25.3Zm1.2,2.5.3-.3,0,.35Zm.65-.5-.35-.1v-.4l.15-.3.2.35Zm-.1-1.65-.35.1.15-.35.1-.4h.4Zm.3-1.8-.15.25-.4.1-.1-.6-.35,0-.2.25-.3.1V37l.2-.3.65-.3.8.1Zm1-1.6-.35.15v.3l-.35-.25-.25-.3-.05-.45.4.2.8.05Zm.8-1.2-.35.15-.45-.2-.3-.4h.4l.8.05Zm0-2.25-.2-.25h.35Zm.65-.7-.4-.25-.15-.4L39,31l.25.25Zm0-5-.4-.25.25-.15h.4Zm.05-3.1.35-.25.85.15.3-.25.45.1-.85.85-.05.5-.35.25-.4,0,.25-.3.4-.15-.1-.35.1-.3h-.7Zm4.9,17.91-.35-.1.1-.35.25.1ZM73.18,22.71l0,.35-.45-.2-.2.25v.3l-.35-.1-.3-.55.35-.2.45.1.3-.15Zm-.35,1.65,0,.3-.4,0,.1-.2Zm0-2.5-.4-.15-.4-.2-.25-.3v-.35l.9.6Zm-1.15-2.8.2.25-.25.15Zm0,1.2h-1l.1-.35.35,0,.3-.25.2.25Zm-.7,5.4.25-.3.4.1Zm.55,1.1-.1.45-.2-.3Zm-1.1-.3-.3.85-.25.35.25.55-.4-.05-.45.5-.3-.2-.15-.4.65.05L69.48,27l.15-.5h-.3l-.1.1-.2-.05-.15-.4-.25-.3.05-.35.5.45.3.15.4-.15v-.2l-.2-.2-.35-.15.15-.3.7-.15,0-.4.25-.25.25.1-.25,1.35-.2.3Zm-1.75.4.35.05.05.35.2.3-.4-.3Zm.55-2.9,0-.45.65.45-.05.4Zm1.05-3,.4,0,.3-.25.15.35-.4.1-.35.25L70,21.31Zm-.15-.4v-.2h.2v.2Zm1.3.85.1.35h-.55l.1-.45Zm-1.2.8.1-.35.25.1Zm.25.55h-.25v-.15Zm.3,5.2H71l.05.45-.35.25-.15-.3Zm.45-8.3.1-.3.1.3Zm0-.55h-.4l-.3.15,0-.45.4.05.25-.35.25.1Zm-.05-1.3-.3.3-.4.15-.1-.45.45,0ZM70,15.06l.15-.4.4,0,.15.3h-.3l-.2.3-.35.1Zm0,.9.45.55-.25-.05-.35-.25Zm-.15,6.8-.3-.15-.45-1.05.65.4Zm-1.05-3.4.45-.05.4.25-.2.4-.2.15-.3.05-.4-.15-.25-.85.15-.35-.4-.3.2-.45.65.1.2.75-.45.1Zm-.45,9.05.3.25-.35.15-.3-.35-.4-.25v-.35l-.45-.2.2.75-.4-.1-.25-.2.3-.3.15-.5.45,0,.25.2.15.4.2-.2.05-.35.4.15-.2.35-.3.25ZM66.83,26l.35-.15.25.4-.4-.05Zm1.4-3.1.3.05-.2.15-.35,0Zm-.55-3.05-.1-.3h.55l-.15.3Zm.2,6,.45.1-.1.35-.25-.1Zm.65-12L69,14l-.15.2h-.3Zm.25,1.25v.35l-.35-.4Zm-.45,2.2.45-.2.1.3-.1.35-.45-.1-.25.05-.3.3-.15-.75-.3-.25.2-.3.6-.35-.15.85ZM68,15.46h.15v.2H68Zm-.5-1.55h.2v.2h-.2Zm-.75,1.25.85-.25v.2l-.3.1,0,.25-.4.1-.35-.1Zm.4,2.5-.35-.05.2-.25.35-.1Zm.15.55-.05.25-.3-.4Zm-2.35-3.1.25.2h-.25Zm-.3.2.1-.1-.1.25Zm-2.1.85v.35l-.3-.45Zm-.65-1.5.1.25h-.2Zm.15.65-.05.35-.2-.2ZM62,18.76l.25-.8.45.1.4-.1.55-.45.45.1.65-.35h.35l-.25.35.15.25.35,0,.7-.4-.2.4.65.85.55.5.3,1.4.55.65-.4.75.1.35-.1.8.1.5.45.3.2.25-.15.1h-.3v.45l-.3,0-.25-.2-.35,1.05-.65,1.35v1.2l-.5-.3-.2.3-.7.35v-.35l-1.35-.75-1.15-1.1V26l-.45-.55-.15-.4.05-.45-.2-.25-.45-1.05-.1-.8.1-.4-.3-.55.25-.25.15-.4,0-.4-.25-.3.3-.1Zm3.2,12,.3.2-.4.55-.35-.4Zm-1.5.1,0-.35.5.55.4.15-.25.4-.25-.25Zm0,.35v.2h-.2v-.2Zm.2-1.85.15-.35.4.2.1.3-.15.35-.35-.2ZM62.53,33l-.1-.25.45.25Zm.1.4v.25l-.3-.1.1-.15Zm-.1-1.5.15-.45.65.35-.4.25Zm.4-3.3-.05.35-.55-.3.1-.45.35.1Zm-.8-2.15-.4-.15L61,26l-.1-.3.3.1.2.25h.4l.25.1Zm-2.55-7.35-.2-.3.45.1Zm.25,7-.2.4-.35.05.15-.25.15-.3Zm-.65-8.05v-.25l.2.15Zm.55.1.1-.3.45.1-.2.25Zm.5.75.35.15.2.25.05.4-.45-.1-.3-.35Zm.8.45.3-.35.1.35Zm.1-4.45.25.25-.25.15Zm-.45,1.75-.1-.25.25.35-.35.1Zm0,.5.8.1-.6.3-.4-.3-.35.25.2-.25Zm-2.85-1.75.4,0,.7-.15.15-.3.35.3,0,.35h.8l-.25.2-.55-.1-.4.1-.25-.1-.3.3-.7-.1ZM57,14.11l.2.25-.2-.1Zm.1.75.25-.1.4.15-.1.4-.7-.15-.15-.25Zm-.3,1.2.55.25.1-.45.45.2-.1.3.1.3.55.1.3-.1.75.6-.2.35-1.3.75-.25-.25-.5.15,0-.45.55-.1.15.25.2-.25h-.25v-.4l-.45-.45-.15-.35-.45-.3Zm1.55,5.3.4-.05-.35.15v.6L58,22l-.25-.2-.3,0v-.75l.3-.2.35-.1.2-.25.4.1.25.25-.3.3h-.45Zm-.45-1.65.4.2v.35l-.3-.15Zm.4-.35.2-.35.35-.2.2.35-.1.45-.3.2-.1-.3Zm.8,3-.1.25-.15-.15Zm-1-3.6-.25.15-.3-.15.2-.35Zm-1.35-1.6.35,0-.1.35h-.35Zm-.4,1.35.35.15-.15.4.3.1.7-.2,0,.4.4.05-.55.45-.35.1-.4-.1,0-.55-.4.2-.4-.1-.3-.3-.1-.45-.3.05-.65-.3.1-.3.45.1.3-.2.35-.65.85.2-.3,1-.3.1,0,.25Zm.2,1.25-.3.4v-.25Zm-1.05-.05-.2.25-.5-.35.35-.15Zm.4-2.8.25-.15.2.25Zm.1-2,.15.4-.35-.05-.2-.35Zm-1,1,.1-.4.25.15.1.35-.15.35h-.4Zm-.9,1.2.25.35.4-.25,0,.45H54Zm-.55,1.3.2.15,0,.4-.45-.1Zm0,3.7.75-.3-.25-.55.35-.3L54,20.86l-.2.35-.25-.45.35-.25.45-.15-.15-.3v-.25l.8.3.25-.15-.05,0,.75.35.15-.1.3.25.35.65.45.25.1.45-.35-.1-.25-.2-.4-.1-.6,1-.3.7-.5.1.05-.4.3-.35.6-.45-.15-.4.25-.45-.2-.2-.25.3-1,.15-.1.45-.35.7-.45,0-.3-.25Zm.2,3.5v.25l-.35-.15Zm-.2-1.75.4.25-.3.05Zm.25,2.35.4-.2.4.05-.15.2-.45.15-.25.3Zm.7-1.7.15-.35.2-.3.15.25,0,.4Zm.25.5.2-.35.65.45-.35.2h-.5Zm-2.15-6.45H53l.15.3-.35.1-.3-.1Zm-.15,5.1-.15.25-.3-.15ZM51.87,25l.35,0,.15-.4.25.1-.2.3-.1.4-.35.65-.25.2,0-.3.3-.4-.35-.65Zm.75,6.1-.35.2-.25-.6-.3-.15.2-.2.7-.25-.1.35Zm-.8,1.2,0-.4,0-.4.35.1v.9ZM52,33h-.35l.2-.45Zm-.3-4.8,0-.35.2.25,0,.4Zm0,3.35h-.2l-.1-.1Zm-1.1-1.5.35.1-.2.25-.35,0Zm.25,1.5v.35l-.45-.25Zm-.85-3,.3.35H50Zm0,5.15.35-.2.1.55.65-.25,0,.4.7.5h-.25l-.25-.25-.4.1-.45,0-.15-.35H50Zm.15,1,.35.2.2.3v.35l-.7-.45Zm-.35,2.05-.4-.85-.25-.8.45-.1.1.85.2.3.55.05-.25.35Zm.25.9-.2.4-.35.25,0-.4.25-.3Zm-.65-5.05.5.1-.3.3-.45,0ZM49,33.91l.35.2-.2.25-.35,0-.4-.25.4-.1-.1-.4-.1-.35.3.2Zm-.6,3.75.3-.2H49v.45Zm.4,3.5H49l-.1.55h-.35l-.35.15-.1-.45.35-.05Zm-.55-4.65.35,0,.35.15-.4.25Zm.15-4.05.2.3h-.4l-.15-.2Zm-.2,3,.3-.15-.1.35-.35,0Zm-.4,2.6.45-.15-.1.5-.2.35-.35-.4Zm-.5,1.8.35-.1.4.1-.2.1-.1.25-.45-.1Zm-.35-2.6.15-.1.1.4-.25-.1Zm-.4,2.85.25.15.05.3.2-.15h.9l.2.55-.4.05-.85-.15-.1-.2-.4-.05Zm.75,3-.65-.7.3-.2.35.1-.15.4Zm-1,.85.2.15-.2.15Zm0-2.05h-.4l.15-.05.1-.3.35.2Zm-.5-3.6.15.5h-.45Zm0,1.45,0-.5H46l.1.45-.2.35-.35.05Zm.3,5.4,0-.35-.2-.2.25-.1.05.3.4.1.3-.3.35,0,.3.3Zm1.5-.75V44l.35.25Zm.65,1.6.15-.3.3,0,.1.35Zm.25-2.4-.8.25,0-.35.3-.2.4-.1.45.1Zm.3-1.3H49v.45h-.35Zm.1,2.1,0-.25.3.35Zm.65-4.45-.5.15.2-.1.1-.5.45.1Zm1-.65-.75.05.2-.35.8.05Zm.1-2.55.35-.15.35.15-.3.15Zm.55,2.2.3-.25.15.35Zm.35-1.1-.2-.45.2-.1.3.3.15.45Zm1-1.1-.4-.25.4-.2Zm.35.65h-.2v-.2h.2Zm-.2-1.65-.65-.1.2-.25.3-.15.35.05Zm.2-15.51.35,0-.3.25Zm.55,7-.2.35-.25-.25Zm-.2,2.4v-.3h.3v.3Zm.6,2.25-.3-.2.3-.1.35.1ZM54,31l-.4-.2.1-.45.4-.1-.15.3Zm-.15-1.9-.4,0-.1-.4.45-.15h.4Zm.5,1.4v-.25l.2.15Zm.45-3.6-.35-.1-.2-.25,1.2.1-.3.2Zm.4,6.1.1-.25h.15l.1.15Zm-.3-4.35.25-.2.4,0,.2.45Zm1.1,3.8h-.15v-.35H56Zm.2-7.85-.3-.1,0-.35h.25Zm0-2,.1-.4.5-.05.4,0,.3.1.2.25.15.4-.35.15-.45,0-.45-.4ZM57,35.87l-.2-.2.15-.35.35.4Zm-.15-3,.2-.3.3.15-.15.2Zm.35,1.55.2-.35.2.35Zm.15-4-.25-.35,0-.55-.45-.35,0-.45-.1-1.6.2-1.45.2-.3v-.7l.2-.3-.15-.3L57,23.71l.35.2.5-.1.45.75.35.25-.15.35.1.25.25.25-.15.35.1.35.45.65,0,.4.8.85.15.4,1.35,1.15.15.35.5.55.3-.3.15-.4.4-.15-.1.45-.35.75-.8.15-.3.2-.2.3-.85.1-2-.35-.15-.3Zm4.75,2.5-.3.2-.4.1v-.85l.45.15Zm-2.55-.8v.15h-.2v-.15Zm-1,1.1-.35-.3.25-.15.4.1Zm1.1,2.5-.35.25-.1-.35.45-.55.2.2Zm0-2.5-.15-.35H60l.7-.1-.2.3-.35.2Zm.5,1.3.45.15-.3.15Zm.35,1.3v-.3l.25.3Zm.65-1-.45-.1.25-.35.35-.65,0-.45.35.25Zm2.75.2.35-.1.2.35Zm1.1.35.1-.15h.2ZM67.33,34h-.2v-.3h.3Zm1.1-1.7-.2.4h-.55l.35-.45h.4l.2.15Zm.25-.65-.45,0-.15-.25-.75-.25.2.35.35.2.45.1-.2.3-.5,0-.2,1.1-.4.25-.5-.45-.15-.3-1.2.25L65,32.26l-.65.85.15,1,.35-.25.15-.4,0,.25.2-.25-.1-.4.65.2-.15.35.15,1.05-1-.35-.45.15-.5-.55-.3.25-.35.1-.25.4.2.3.05.25-.4-.15-.4.15-.4-.5v.5L61.78,35l-.1-.35.25-.2,0-.4.35.15.3.3v-.45l.25-.3.45.2.3-.4-.25-.2-.2-.35.4.2.3.35.5-.7-.2-.4-.65.1-.3-.35.85-.65.55.65.1-.55h.45l.15.4.3.2.4-1,.25-.25-.35-.45.25-.35.85.2v-.3l.35.1.15.3.25.15.55-.55.8.3.3.25.2.35Zm-1.1-1.45.1-.35H68l-.1.3Zm3.2-.55-.25-.2-.2.3v.4l.15.35.25.15.2-.2.35,0v.35l-.25.2-.4-.2-.25.1-.3-.25-.65-1.05-.35.35-.4-.05-.25-.2-.45,0-.75.25-.85.15.15-.25.05-.4-.75-.55-.1.3h-.35l.2-.35.05-.5.85.1.55.9.35-.15,1.6-.1.45-.3.25.35.4,0,.3.15.35-.55.7.5.15.45Zm.85-1.4-.1-.35-.05-.3.1-.35.45.55-.15.3Zm.6,2.5H72v-.25l.25.05Zm.45-1.85.3-.25,0,.65Zm.35-2.3-.3-.2-.25-.7-.25.25.05-.35.55-.1.3.35.15.4Zm.4-5.55h.15v.4h-.15ZM96,29.11v.5l-.4.1-.2-.8.3-.25-.1-.35.2-.35.45,0Zm.75-.05-.1-.3.45-.1Zm.4-1.15L97,27.56l.45.2Zm1.5-1.8-.45-.1-.25.25-.4-.2-.25-.35.45-.05.35.25.35-.1h.2Zm-1.1-.75.1-.4.3.1Zm1.1-.3-.25-.1-.1-.35.35.15Zm-.35-5.8L98.06,19l-.1-.4.35.25Zm.1,1.65.1-.3.25-.15.1.3Zm1.4,3.3-.3,0-.1-.5-.25-.3.35-.2v.45l.5,0,.4.2Zm-.6-4.3.2-.35.15.2.05.35Zm.85,2.2-.3-.25,0-.5H100l.2.35Zm.3.2-.1.3-.3.05-.1-.15Zm.6,2.05.1-.2.1.25Zm-.1-1-.35-.1.85-.35-.2-.45.4,0,.2.25.1.35,0,.35Zm.7-1.65.15-.3.2.4Zm.15,1.85.2-.1V24Zm.2,1-.1-.1.3.1Zm.4-3.75.15.25-.35-.1Zm-.4-.75v-.3l.25.3Zm0-1.45.15.3-.45-.15Zm-.5,2.35-.3.1.1-.3.4,0Zm-.4-3.15.2.4-.35-.2Zm-.8-.75.45-.15-.25.75-.4-.2Zm.35.85-.25,1.2L100,19v-.35l.25-.75Zm-.5,1.6.35,0,.15-.35h.4l.1.8-.05.4-.25.4-.45.15-.1.2h-.55l.1-.45h.4l.25-.35.35-.05-.1-.45-.55,0-.35-.15Zm-1.1-3.05-.25-.3.4.05.65.25-.15.4-.7.3-.2-.25.5-.2Zm-.6,1.25.35.2.5.5.15.35-.3-.2-.3-.35,0-.3-.5.15-.4-.15.35,0Zm-.85-1.55.35.15-.25.6-.1-.4Zm-.35,1.5.1-.4.25.4Zm.2.8-.1-.15-.3-.2h.35Zm-.3-4.6.2.2v.45l-.35-.2Zm-.2,1.7.2-.2.35-.1-.1.3.1.35-.25.05L96.66,16Zm-.7-.5,0,.35-.4.1-.2.4-.3-.25Zm-2.05,1.2v.25l-.35-.15Zm-2.4-1.5.65.2-.35.45-.3-.1Zm0,2.15.2.25h-.3Zm-.45-.65.1.3-.4,0Zm-.45,4,.45-.7.1-.5.65-.35-.3-.45L91.9,18l.35-.55,0-.4.25.1,0,.45-.3.25.45.2.3-.55.65.35.4-.15.8.15.65.4L96,18l.5,1.45.3.2.45-.05.3.15-.3.25-.2.75.3.75-.25.85.15.3.5.05-.15-.45L97.36,22l.5-.1.15.45,0,.45.35.55-.25,0-.3-.15.1.35.35.05-.1.4-.35.15-.15-.45-.25-.3-.2.2-.15.75.1.35-.45.2v.85l-.3.25.45,1h-.5l-.35.15-.25.3-.1.4-1.4.3-.45-.05,0-.35-1-.8-.2-.4-1-1-.25-.75-.5-.65.2-.4L90.7,23l-.1-.8,0-.75.25-.7-.35,0-.3-.1-.15-.45Zm4.6,8.6-.3-.15-.15-.3.35-.1Zm-2.2,1.3h.4l.15.3v.4l-.2.4-.65-.2.35-.5Zm0-1,.25,0h-.2Zm0-.75.1-.4.6.45.15.4-.35-.1-.15-.25Zm-.55-.85-.35-.35.3,0Zm-1.1,1.3v.3H91.3l0-.3Zm-1-1.25-.35.25.1-.5Zm-2.35-5.85.2-.35.15-.4.85.35-.25.25-.3-.15Zm.55,2.1-.2.3L88.3,24l-.25-.25.35-.05Zm.3-3.7-.2.3-.3-.05-.2.25-.2-.25-.35-.15.3-.25.4-.1,1.1,0,.35-.15v.45Zm-1.4.75,0,.2-.15.2-.2-.3Zm-.4-.4-.25-.4.2-.3.25-.25.2.35v.9Zm.4,2,.25.35-.35-.2Zm2.1-4.25-.3-.2-.15-.35.3.1,0,.25h.65l-.1.35ZM90,16.11l.3-.1v.5H89.9Zm-1-3.3h.2V13H89Zm0,2.1.45,0,.3.15-.25.2-.5,0Zm-.35,1.3.25-.15.3.15-.15.3-.4,0ZM89,18h.2v.2H89Zm-.15-.85.25-.15-.1.35Zm-.45,0v.4l.35-.15.1.25V18l-.4.1.15.35.7.75-.2-.2h-.3l-.25-.2-.1-.4-.4.1-.15.35-.65-.2.25-.25.3-.65.2.15.2-.25-.65-.3.1-.3.4,0Zm-.5-1.5-.35.2-.1-.4Zm-1.05.75.4-.2L87,17l-.4-.3Zm-1.15,7.45-.45-.25.25-.1h.4Zm.2,1.4-.4-.2.25-.15ZM85,23.06v.55l-.35.15-.35-.1-.15-.45h.5l.2-.25,0-.4.45,0,.3-.2.45-.55.25.15.2.3-.3.3Zm-.1,1.1-.1.25v-.15Zm-1.35-1.65.1-.35.15-.2.15.35Zm.25,1.1h-.35l.15-.4Zm0-2.25V21l.45.1.55-.2.1.2-.35.35.2.25.7.15-.3.25-.3-.1-.7-.5Zm.75,1.2-.3.2.1-.2Zm.2,2.4-.5-.05-.1-.3.35,0Zm1.65-7.75.35.1.1.35-.1.3H86.4l0-.35Zm.2,3.7,0-.35.2.35-.2.85-.4-.1L86,21.31l.65-.1Zm.1-1.65-.05-.35.3.2v.35Zm-.15.35.1.35-.15.4-.4-.1L86,19.91l.2-.25.15-.3Zm.4,3.45.05.35-.45.1,0-.55Zm-1-6.65L86,16l0-.3.5.85-.4.2-.25.35.15.45h-.25l0-.35-.25-.6Zm-.55,2.2h.2v.2h-.2Zm0,2.05.4.1-.4.15Zm.1.65-.2.15v-.15Zm-.35-3.8.15.2-.25.15Zm.1,3v.2h-.4l.2-.3ZM84.75,18l.25-.2-.15.25-.3.05Zm-.3-1.85-.2.45,0-.3ZM83.9,19l.2.4-.35-.15-.2-.25Zm-.35,2-.3.3-.1-.4Zm-1.82,6h0Zm-.13,3.5v-.35l.35-.3v.45L81.7,31h-.25l-.15-.35Zm.2-2.9,0-.4.8.1.25.25-.25.15-.35,0-.25.2Zm-2.5,6.15v.2h-.2v-.2ZM77.15,43l.25-.2.05.3Zm.45-2.25-.15-.4.3.1.15.25Zm1.5-6.6.2.45-.4-.05Zm0,5.45.3-.1.15.2Zm.6-.8-.3.15-.3-.1.3-.25.35-.2Zm-.35-1.15.3.2v.45l-.25-.2Zm.1-1.45V36l.3.2Zm.4-1.2-.25,0-.05-.35h.3Zm-.2-3.8.2-.35.1.45Zm1.65,3.4h-.15v-.15h.15Zm-.1-1.65.3-.1.2.3h-.35Zm.55,1.65-.25-.25h.6l.25.25Zm.6-5h-.3v-.3h.3Zm0-.75-.25-.35h.25Zm.5,1.75-.25-.15-.05-.3.2-.1.15.2ZM83,19.26l-.25-.45.35.1Zm.2,7.2.1-.4.35-.2.4,0ZM84,28h-.45l.15-.5.4.1Zm.3-1.85-.2-.3.35,0,.2-.3H85l.35-.1.15.25-.35-.05-.3.1-.15.35Zm.9,1.65L85,28l-.2-.25Zm.1,6.65,0-.4.3.3Zm.85-3.5-.3.15-.15-.4.15-.4.45.35Zm1.15,4-.15-.25.05-.3.2.25Zm-.15-1.5.05-.15h.2Zm.2-1.2-.4.1.05-.35.2-.3.3.1Zm2.45,2.25-.35.1-.1-.35.1-.7.35.1-.25.35.35.2Zm.45.9.1-.2h.2Zm.3-1.45.1-.2.15.25Zm.55.8h-.2v-.15h.2Zm0-2.7-.75-.05-.45.1-.3-.3-.55.3-.2-.35-.35-.2H88l.25.2.15.35-.5.15-.15-1.1-.2-.25-.35-.1L86.9,30l-.4-.1-.3.3-.2-.35-.35-.2-.3.55-.55-.55.3-.2.85-.1.35.4.2-.1-.15-.4-.05-.8-.35-.2-.3.2v.45l-.4-.15,0-.4.2-.45,0-.5.4,0,.15.45.3-.2.2-3.05.3-.2,0-.35.4.05.7.25.2.6.65-.05.15.45-.45.1-.45-.2,1,2.35.5.6.75.35-.1.5.35.3.8,1.05.35-.15H92l-.9,1.45.25.1Zm.9,0-.1.5-.35.2v-.75l.4-.1Zm.1,3.9,0-.35.15-.3.2.35Zm.55-1.55H92.4l.1-.3h.15ZM93,34l-.3-.35H92.2l-.25.45-.35-.3-.05-.5.3-.3.35.35.65-.35,0,.55.25.35Zm.25-2,.55-.5.4,0,.45-.65-.65-1-.35-.15.2-.2.7.2.2.4.35.15.3-.2.55.3-.15.5L95,31l0,.4.2.25,0,.4-.9.15-.2.35-.5.5-.45-.2.2-.4Zm.05,2.45.2-.45.4-.15v.65l-.35.25Zm.65,1.6-.2-.3h.45Zm.8-1.1h-.2v-.4h.2Zm.85-.1-.35-.1-.15-.35.5-.1ZM97,34.41l0-.4,0-.45h.2l.1.1-.1.2.35,0Zm.2-1.55-.1.5h-.4l-.25.25V34H96l-.35-.15-.5-.45-.35-.1-.1.7-.35-.1v-.4l-.2-.7.35-.15h.4l0,.45.85-.1-.1.35.3.2.35-.1.4-.55-1.05-.1.45-.15v-.5l-.65.25-.45-.05.35-.25.4-1,.7.4.55.45.7.25Zm1,.8-.25-.2.45-.1Zm.55-2.5.1-.25.3.15Zm1.1,2.05h-.15V33h.15Zm2.25-2.4h-.4l-.1.35-.4-.15-.2-.75-.4-.2-.15.4.35.25-.3.45-.75.1.2.55-.55-.2-.25-.25.15-.25.75-.4-.55-.45.55-.2-.1-.9.45-.25.4.15-.4.6.1.3.3-.1.45.1.1-.25-.1-.3.35.1.1-.2.4-.1Zm14.54-2.65-.25.05.25-.25Zm.6-.8-.25.25h-.35l.5-.6h.25Zm.6.8h-.15V28h.15Zm.65-.5-.15-.15.25-.1Zm3,0,0-.45.3.15.1.3Zm-.4-2.45.35-.2v.25Zm1,1.45-.05-.4-.3,0,0-.4.5-.15.15.75Zm0-2.1.2-.2.35.1.2.25-.25.25-.35-.1Zm.75,1-.25-.1v-.2l0-.05.3.05Zm.4.35.15-.3.25-.25h.3l.1.4Zm.75-1.5-.4.2.05-.4.5-.2Zm.7.2-.35-.15-.1-.4.45.15.3.25Zm1,1.4-.3-.2-.15-.35h.65l0,.3Zm.2-3.6-.2-.35h.3Zm-.35-.8v-.35l.3-.35.5-.05-.2.3Zm0-2h.25l.1.35-.3,0Zm1,3.75-.1-.35.2.1Zm.1-.7v-.4l.25.2Zm0-1.05h-.5l.2-.4.5,0Zm.7-1-.35-.25-.4-.1.1-.35.25-.2-.5-.1-.3-.3.3-.2h.35l.05.3h.3l.1-.45.35.2Zm1.25,2.6-.3-.15,0-.3.25.1Zm.85-1.6-.1-.45.3.4ZM129.26,18l.35.05,0,.35-.3,0Zm-.75-2.35h.15v.2h-.15Zm.35,1.05-.3-.05-.05-.25Zm-.35,2.55H129l-.15.3-.3.1Zm.25.8.4,0-.1.45-.45.55-.4-.1v-.5l-.15-.45.15-.3Zm-.65-1.7-.45.65-.35-.15-.65-.25.1-.4.5-.65.3,0-.2.3-.35.15.4.2.25-.3.55,0Zm-.05-2.5v.35l-.3-.15Zm-.75,0,.35,0-.35.2L127,16Zm-.5,1.2-.25.15.1-.4Zm-.45-1.05v-.2l.3.2Zm.1-1.6.1.3-.4,0-.25-.15-.1-.35Zm-.45,2.6.2.4v.45l-.3-.3-.1-.45Zm.05,1.35.2.15-.2.35-.35.2-.35-.15-.3-.3-.35,0v-.25l.2-.3.55.55.25-.35Zm-.5-3.3-.25,0-.05-.3Zm-.3,1.4.1.45-.35-.1-.2-.25-.3-.1.1-.45.25.15,0,.4Zm-.75-2.4-.05.35-.2-.35Zm-.05.75.35.2.1.45-.45-.2-.2-.35Zm-1-1.4.2.1-.1.2-.2-.1Zm.15,1.35.4-.05.1.55-.3-.2-1.1.5.2-.35v-.35l-.2-.35.35-.15Zm-1.35,1.9.2-.5.45-.15h.45l-.1.25h-.45Zm.35,1.1-.35-.1.2-.3Zm.2-4.35.15.4-.4.25,0-.4Zm-1.1,1.4.3.1-.3.45-.1-.25Zm0,.9.25.2.25-.55.4.1-.15.45-.5.65-.75.2.45-.6-.2-.25-.5-.55,0-.4.45.1Zm-2.15.75.7-.35-.25.15-.2.4.1.45h.35l.4.2.2-.25.35,0-.1.45-.4,0-.7.35-.2-.3-.1-.45-.35.55-.3-.15-.15-.3.3-.1.25.2.15-.35Zm1.3-1.75.15-.25.3,0-.15.3Zm.4-1.45.15.25-.4-.2Zm-1.35-.85.1.25h-.45Zm-.55,1.35.3.25.05.5.4.05.25-.2.1-.85h.45l.1.65-.4.15-.45.55L120,16.06l-.55-.1.15-.25,0-.75-.4-.1-.05-.35Zm-.2,2h.2V16h-.2Zm-.25-.25.15.25h-.3l-.15-.35Zm0,3.4,0-.45.4-.2-.1.65.7-.4.8-.25.1-.55.9-.1-.65.45,1.65.15.75,0-.3-.6,0-.4.65.55.9-.35.3.15-.15.4-.7.35.25.85.3.3.4.15,0,.3.2.15-.3.2-.15.3.1.7-.65.65.2.6v.4l-.5-.15-.2.35-1,.65-1.65.35-.25.25v.4l-.5-.25-.3.2-1.15.25-.3.2-.3-.1-1.3.05-.8.15,0-.4.1-.4.25-.25-.15-.45.15-.8.75-1.3.15-.65.3-.1.65-.85.35-.2-.15-.6.55-.1-.25-.1-.3.1.1-.2Zm-.9-.05.35.15-.2.25h-.35l-.1-.35-.4-.2.3-.35.85-.35.05.45h-.4l-.3.1Zm0,1-.25.1v-.15Zm-.55-.9v.35l-.8.1-.3-.3-.35-.8.25-.25.25.7.2.3.4-.3Zm-.1,1.65h-.7l-.2-.4-.1-.5h.3l.55.5Zm-1.55-3.05.3-.1.25.4Zm.2,3.15.15.2-.3.25-.35.1.25-.25Zm1.9-6.3.5,0,.15.45-.5-.15-.5-.3Zm-1.55.75-.1.25-.15-.15Zm-.65,1.1h-.2l-.05,0Zm-.2.1.4.2.25.3H117v-.5l.1-.45.2-.25.4.6.4.1-.35-.25.3-.25.35.35-.15.35.25.75-.4-.2-.65.9v.3l-.65.35.1-.45.75-1.45-.75.15-.1.65-.3-.25-.7-.3-.35-.25Zm.2,1.6-.05.3-.3,0-.1-.35Zm0,1.3-.25-.15-.1-.35h.25Zm-.7,1.25.15-.45h.35l-.1.45-.25.3h-.35Zm-.2,4,.25.35h-.25Zm-.5,1.55.3.45-.35.1-.1-.45Zm-.35-1.85v-.25l.3.25Zm.45-4.25h-.15v-.15h.15ZM114.1,18l-.4-.3.5-.1Zm-1.79,6.85,0-.3.39,0,.4-.5.3-.2L112.9,25l-.3.3-.35-.27Zm.84.4.35.15.05.4-.4-.15Zm.3-2.55v-.4l.35.3Zm.1,1.85.3.25-.3.2Zm-.1-7.85.35.1-.35.35Zm0,1.9.35.1,0,.3-.2.2-.2-.25Zm-.1,1.75.35,0-.3.2,0,.35-.25-.25Zm0,1.3.3.1-.1.45-.3-.15-.2-.3Zm-.7,1.5.4-.2.3.1.1.3-.55.35-.3-.1-.35-.45Zm-1.8,4.6v-.23h0l.19.24Zm.55,1.5-.1-.3-.1-.35.1-.3h.3l.1.75Zm.34-3.29.22-.37.06-.13.33.08-.1,1-.55-.1,0-.45Zm.06,2,.2-.3.5-.65.2.3v.75l-.45.1Zm.25,1.65.05-.4.25-.3.35-.1.1.3v.4l-.4.15Zm.65,1.5v-.3l.2.15Zm.85,1.9-.3-.25-.1-.45h.4Zm.1-2.1-.1-.3h.15Zm0-2,.35-.9-.55.1-.55-.55.15-.4.3-.25-.35-.4-.2.3h-.3l.2-.35.85-.3.25.35.65.5.3.35-.5.65,0,.45L114,29Zm1.4-.65.15.3-.55.2.1-.6ZM114,31.16l.15-.3,0-.4h.25l.1.65Zm.9-1.15-.1-.25-.15-.8h.3Zm.2,2.35.35.1-.05.55-.35-.15Zm.35,1.4h-.15v-.25h.25Zm-.15-8.3-.4.1v-.35l.35-.1.3.1Zm.25-1.65.15-.3H116Zm.8,5.2-.3-.15.2-.15.25.1Zm.8,6.4-.35-.1.05-.35h.3ZM140.3,23.16l.1-.45.3.15Zm.3-3.75-.3,0-.1-.2.2-.1h.35Zm.7-1.5-.15.35-.45-.1-.4.1-.25.25-.3-.2-.8-.15-.2-.25.35-.55L139,17l1.6.1-.4.35.45,0,.4-.1.25.25Zm-2.65,4.8-.3.25-.45-.25.05-.35.4-.6v.3l-.15.35Zm0-1.8-.3.2.15-.55.4-.05.35.05-.15.3Zm.3,1.4.3-.1v.3h-.45Zm0,.65.3.3h-.3Zm.45,2.9.15.25-.35.05-.15-.35Zm0-6.65-.45.15.1-.45.25-.4.3.35Zm.55-2.5v-.2l.1-.1Zm2.05,3,0-.4.2.4Zm2.05-3.5-.25.35-.25-.2.1-1.3.3-.1.35,0,.15.25-.35.3.2.25.35.1Zm1.45-.1-.55-.4-.1-.35h.3l.35.35Zm1.1-2.5v.3l-.4.15,0-.2Zm-.45,1.1-.25.35.3.65h-.35l-.35-.9.25,0Zm-1.3-6.2.45.55v.3l-.65-.45Zm-.1,5.55v.3l.85-.3-.25.35-.05.3-.45.1-.25-.4-.4-.25.2-.1Zm-.3-.75-.55-.35.3-.4.35.3ZM143.3,10.1l.35-.1.45.1-.75.6-.25-.2Zm-1.25.9.2-.4.4.15.15.3-.3.45-.45-.2Zm.65,1,.2.2-.25.35h-.5l.2.4-.2.25.45.3-.15.85-.8.1-.25,0-.15-.35h-.4l0-.35.35-.1-.1-.2.15-.35-.2-.2-.05-.35.45-.1.1.45.4-.25Zm-1.45,3-.25-.1,0-.35.1.2.1-.2Zm-.55-1.8,0-.3.2.25v.2Zm.55-3.15.3,0,0,.4h-.45Zm-.4,1.5.1-.3.65.15-.1.35-.25.2-.4,0Zm-.35.5h.25l-.1.4-.2,0Zm-1.15,1,.4-.25-.1.7-.35.15-.2-.2Zm-.9,1.35.5.5.15.3.55-.1.4.2.35-.3-.4-.15-.2-.3V14l.15-.45.45.25,0,.75.15.25.35.1-.1,1.3.4-.25.25.15.1.3.45.2,1-.4-.25-.3-.15-.4h-.35l-.25.45-.6-.3.15-.35-.15-.2.2-.3.4-.15v.45l.35.25.35-.35.1-.4.2-.05,0-.4.35-.55,0-.45.55-.15-.05.9.15.3-.55.7-.45.2.35,1-.35.55-.4.1.2.55-.65.35-.65-.55.3-.3-.4-.45-.25.2h-.35l-.3-.2.1-.55-.4.1-.55.35-.25-.8-.6-.5-.35-.15Zm-.15,1.2.35-.1.65.65-.25.35-.4.2-.2-.1v-.4l-.15-.25Zm.05,1.35.3.15.1.3-.45.1Zm-.15,1,.25.1-.1.35-.35-.2Zm-.55,1,.45.3-.4.35-.25-.35Zm-1.52,4.5h-.07v-.05Zm0,7.65-.35.05v-.5l.45.1Zm.55,1.15h-.2v-.3h.3Zm.55,2V34l.1-.1Zm.4-2.55,0-.2.2.3Zm-.1-3.7-.2-.1.2-.35.35.1Zm.7-3.5h-.35l-.1-.35v-.35l.2-.25.45.55Zm.3,8.4.3.35h-.3Zm.1,1.75.25-.15.35.1.15.3Zm.8-.65-.25.1v-.45l.35,0Zm.1-11.81v-.3l.2.15Zm.1-2.7h.45v.45l-.3-.15Zm.4,1.5h.15V21h-.15Zm.1,3.05.15-.2.25.15,0,.4h-.4Zm13.7,5.85-.32-.68.13-.17h.09l.2.65.25.2Zm1-.35-.3-.1-.1-.3.5-.1Zm.1-2-.25-.1-.13-.25,0,0,.45.09Zm.45,2.4-.3-.3.5-.1Zm.15-9.4-.2-.35h.6Zm3-.65-.3-.05.1-.5.2.2Zm.9-1.25-.35,0-.1-.3.2-.25.35.1Zm.1-1.1-.45.2v-.4L159,17l-.5-.05.2-.3.65-.25,0,.45.4.2Zm.9-1.7-.25.3-.2-.45Zm-.65-1.3.25.25-.1.25-.3-.1Zm-.7.5-.2.2-.3,0,.1-.35Zm-.65-.55.1-.3.15.45Zm-.1-.85.25.2-.25,0Zm.35,2.2.35-.25h.5L159,16l-.7.25-.2-.35Zm-.55.65-.1.4-.25-.2Zm-.55-2,.1.25h-.35Zm-.55.7.3.15.15.35-.15.15-.4-.25ZM157,18h.8l.45.2v.45h-.4l0-.45-.35.2v.4l-.15.35-.2-.3-.45-.6,0-.4Zm-.5,2.6.15-.1.3.75h-.3v-.35Zm.1-3.3,0,.35-.2.05-.35-.15Zm-.55,2.5.4.15-.5.3Zm0,1.65.55.35-.35.1Zm.4,9.65h.35l0,.35Zm.35,4,.1-.25.3.35Zm.2-10.25h-.45l.1-.45.4-.55.45.6Zm.6-3-.2-.35.35-.2.3-.35.4.35-.35.25-.05.2ZM173.15,19l-.3.1v-.5l.3.1Zm.6-2.55-.25-.05.4-.2Zm2.45-1.9.2.25-.1.3L176,15l0-.35Zm.25,2-.4-.1-.15-.35.35-.1.5,0,.1.45Zm.75,1,.2-.35.2.35Zm.4-2.5-.2,0v-.4l.25-.2Zm.8,3.7h-.35l-.1-.35.3-.1.25.2Zm-.1-3.7v-.35l.4.1-.1.45Zm.55,2.6h-.15v-.2h.15Zm.2-4.1-.35.15-.1-.3.25-.25.3.05Zm1,1.6v.2l-.2.1-.1-.4Zm-.1,3.25-.1-.4.25.15.1.25Zm.1-2.05v-.45l.15.35Zm4.6,4.45h-.2v-.2h.2Zm.65-1.3-.3-.35h.4Zm1.4.55h-.3l.45-.2Zm.75-.7-.35-.25-.05-.35h-.4l-.25-.1.05-.45,0-.35.25.25.65.2-.15.2.15.15.1-.25.6.4.15.35-.35.2ZM186.56,17l.35-.1.75.55-.3.75-.2-.35-.5-.45Zm1.55,3.15-.1-.4h.3Zm1-4.6.4.35-.25.4-.5.15.15-.45Zm-.7-1.4.3.1.15.25-.65.1Zm-.4.8.35.1-.05.5-.3-.15Zm-.3,1.3,0,.4-.2-.25-.1-.3Zm-.85-3.45.4,0-.2.35-.4,0Zm-.1,1.55h.35l-.05.2.15.35-.65-.4Zm-.3.6.25.2.3-.1-.1.65-.25.2-.2-.35-.3-.2Zm0,4.65-.35.15h-.75l.15-.35.35-.05.3.05-.1.1Zm-1.75-5.7.35-.05-.25.25-.3-.05Zm0,1.5.1.3.65-.25.35.15.25.25,0,.3-.45-.35v.35l-.3.2-.65-.35-.25.25-.15-.3.25-.7Zm-1.1-.75.35-.1.3.15-.15.3-.3.15-.35-.1-.1-.15Zm-1.25-1.7.25.1-.2.25h-.15Zm0,.65.3.25-.45.2Zm-.8.65h.25l-.1.45-.25.35-.3-.1Zm-.85,2.1h-.15v-.2h.15Zm1.1,1.5v-.4h.3Zm1.15-.1-.6-.4L182.3,17l.3.2.45.1Zm1,.4-.1.35-.2-.35.15-.4.25-.3-.75-.25,0-.65-.15-.3-.2.15-.15-.3-.45.35-.45-.25-.4.15-.55-.4-.15-.35.05-.35.25.15,0,.35.25.15.1-.2v-.35l.4-.05.2-.2.3-.05.15.4.5.55,1.1.55.85.2-.2.2v.4l.85-.15,0,.35.25.2-.3.45-.55-.35-.3.15Zm-3.15,8.55h.3V27l-.3-.05Zm-.45-2.75h.2v.15h-.2ZM172.8,34h-.2v-.2h.2Zm.35-.8-.35,0L173,33l.25-.1Zm.65.7-.35.2.1-.35-.1-.3,0-.3.45.1-.2.3Zm8-2.6.45.2-.3.55-.3-.3Zm-.9.7.15-.5.25.35.2.5-.7.1-.3-.3Zm-1-.85-.45,0,.05-.35.4-.2-.15.3Zm-.5-5.05.1.3-.35-.25Zm-.4,4.3.5-.1-.15.35-.4.1Zm-2.15.55.2-.3.45.2-.1.2.25.25-.4-.05-.2.35-.2-.25Zm-.55-1.65.45.05-.2.3-.35-.1Zm.25,1.1.1.15-.25.3-.2-.35Zm-.45.35v.45l-.25.2,0-.35-.05-.3Zm-.25-1-.3.2-.2-.3ZM175.2,31l.25.1v.35l-.25-.15Zm-.65,1.55,0-.3.25-.25.35-.1-.15.4Zm3.85,2.05-.45-.1.1-.35.35-.1Zm1.3,1.85v-.3l.2.15Zm-.65-.75.45-.2.25.2.3.2Zm.1-1-.9-1.15.25-.65-.75.2.1.45-.35.55.25.3-.25.35.2.2.05.35h-.45l.3-.25-.3-.1-.1.2-.45-.1.15-.2h.4l-.45-.65.25-.45-.55-.25-.8.3-.4.25-.25-.25v-.45l.15-.35-.1-.45.15-.35h.45l.1.45.45-.05.25-.25.5.4V32l.35,0,.25.15-.15-.85.3.35.45.2.15-.55-.35-.9.2-.65.35.1-.05.5-.15.3.45.4-.15.2v.35l.9-.1v.3l-.15.45h-.4l-.2.15.45.2.2.35.35-.15.2-.25.3-.15.35.65-.25.45.35.55Zm1.65,2.2-.2-.3.15-.3.5-.5.3.25Zm.2-1.5.35-.15-.25.45Zm.35-.6-.25.2-.45.05.15-.4.2-.4.35-.3.3.25.1.5Zm.2-2.5H182l.3.6v.4l-.45-.3v-.4Zm.5,1.85,0-.3.35-.1h.3l-.35.55Zm.5,3.1-.1-.4,0-.4.35.15.1.4Zm-.25-2.1.25.1-.15.35Zm-.1-.45.25-.3.4-.2.2.2Zm.7-.85-.15-.35.45-.1.1.55Zm3,.25-.2.4,0-.25Zm.1.8-.4.8-.25-.1-.2.25-.1.65-.2-.25,0-.65.25.1.15-.25,0-.3.35-.1.4-.55Zm.55.25-.1-.1.25.1Zm2.1.2-.2-.3.4.1Zm14.74-7.2-.25.05.25-.25Zm.6-.8-.25.25h-.35l.5-.6h.25Zm.6.8h-.15V28h.15Zm.65-.5-.15-.15.25-.1Zm3,0,0-.45.3.15.1.3Zm-.4-2.45.35-.2v.25Zm1,1.45-.05-.4-.3,0,0-.4.5-.15.15.75Zm0-2.1.2-.2.35.1.2.25-.25.25-.35-.1Zm.75,1-.25-.1v-.2l0-.05.3.05Zm.4.35.15-.3.25-.25h.3l.1.4Zm.75-1.5-.4.2,0-.4.5-.2Zm.7.2-.35-.15-.1-.4.45.15.3.25Zm1,1.4-.3-.2-.15-.35h.65l0,.3Zm.2-3.6-.2-.35h.3Zm-.35-.8v-.35l.3-.35.5-.05-.2.3Zm0-2h.25l.1.35-.3,0Zm1,3.75-.1-.35.2.1Zm.1-.7v-.4l.25.2Zm0-1.05H213l.2-.4.5,0Zm.7-1-.35-.25-.4-.1.1-.35.25-.2-.5-.1-.3-.3.3-.2h.35l0,.3h.3l.1-.45.35.2Zm1.25,2.6-.3-.15,0-.3.25.1Zm.85-1.6-.1-.45.3.4ZM216,18l.35.05,0,.35-.3,0Zm-.75-2.35h.15v.2h-.15Zm.35,1.05-.3-.05-.05-.25Zm-.35,2.55h.45l-.15.3-.3.1Zm.25.8.4,0-.1.45-.45.55L215,21v-.5l-.15-.45.15-.3Zm-.65-1.7-.45.65-.35-.15-.65-.25.1-.4.5-.65.3,0-.2.3-.35.15.4.2.25-.3.55,0Zm0-2.5v.35l-.3-.15Zm-.75,0,.35,0-.35.2-.3-.2Zm-.5,1.2-.25.15.1-.4Zm-.45-1.05v-.2l.3.2Zm.1-1.6.1.3-.4,0-.25-.15-.1-.35Zm-.45,2.6.2.4v.45l-.3-.3-.1-.45Zm0,1.35.2.15-.2.35-.35.2L212.1,19l-.3-.3-.35,0v-.25l.2-.3.55.55.25-.35Zm-.5-3.3-.25,0-.05-.3Zm-.3,1.4.1.45-.35-.1-.2-.25-.3-.1.1-.45.25.15.05.4Zm-.75-2.4-.05.35-.2-.35Zm-.05.75.35.2.1.45-.45-.2L211,15Zm-1-1.4.2.1-.1.2-.2-.1Zm.15,1.35.4-.05.1.55-.3-.2-1.1.5.2-.35v-.35l-.2-.35.35-.15Zm-1.35,1.9.2-.5.45-.15h.45l-.1.25h-.45Zm.35,1.1-.35-.1.2-.3Zm.2-4.35.15.4-.4.25-.05-.4Zm-1.1,1.4.3.1-.3.45-.1-.25Zm0,.9.25.2.25-.55.4.1-.15.45-.5.65-.75.2.45-.6-.2-.25-.5-.55,0-.4.45.1Zm-2.15.75.7-.35-.25.15-.2.4.1.45H207l.4.2.2-.25.35,0-.1.45-.4,0-.7.35-.2-.3-.1-.45-.35.55-.3-.15-.15-.3.3-.1.25.2.15-.35Zm1.3-1.75.15-.25.3,0-.15.3Zm.4-1.45.15.25-.4-.2Zm-1.35-.85.1.25h-.45Zm-.55,1.35.3.25,0,.5.4.05.25-.2.1-.85h.45l.1.65-.4.15-.45.55-.15,1.15-.55-.1.15-.25.05-.75-.4-.1-.05-.35Zm-.2,2h.2V16h-.2Zm-.25-.25.15.25h-.3l-.15-.35Zm0,3.4-.05-.45.4-.2-.1.65.7-.4.8-.25.1-.55.9-.1-.65.45,1.65.15.75,0-.3-.6,0-.4.65.55.9-.35.3.15-.15.4-.7.35.25.85.3.3.4.15-.05.3.2.15-.3.2-.15.3.1.7-.65.65.2.6v.4l-.5-.15-.2.35-1,.65-1.65.35-.25.25v.4l-.5-.25-.3.2-1.15.25-.3.2L205,25l-1.3.05-.8.15,0-.4.1-.4.25-.25-.15-.45.15-.8.75-1.3.15-.65.3-.1L205,20l.35-.2-.15-.6.55-.1-.25-.1-.3.1.1-.2Zm-.9-.05.35.15-.2.25h-.35l-.1-.35-.4-.2.3-.35.85-.35,0,.45h-.4l-.3.1Zm-.05,1-.25.1v-.15Zm-.55-.9v.35l-.8.1-.3-.3-.35-.8.25-.25.25.7.2.3.4-.3Zm-.1,1.65h-.7l-.2-.4-.1-.5h.3l.55.5Zm-1.55-3.05.3-.1.25.4Zm.2,3.15.15.2-.3.25-.35.1.25-.25Zm1.9-6.3.5,0,.15.45-.5-.15-.5-.3Zm-1.55.75-.1.25-.15-.15Zm-.65,1.1h-.2l-.05,0Zm-.2.1.4.2.25.3h.85v-.5l.1-.45.2-.25.4.6.4.1-.35-.25.3-.25.35.35-.15.35.25.75-.4-.2-.65.9v.3l-.65.35.1-.45.75-1.45-.75.15-.1.65-.3-.25-.7-.3-.35-.25Zm.2,1.6,0,.3-.3,0-.1-.35Zm0,1.3-.25-.15-.1-.35h.25Zm-.7,1.25.15-.45h.35l-.1.45-.25.3h-.35Zm-.2,4,.25.35h-.25ZM201,26l.3.45-.35.1-.1-.45Zm-.35-1.85v-.25l.3.25Zm.45-4.25h-.15v-.15h.15Zm-.25-1.9-.4-.3.5-.1ZM199,24.78l.13-.22.4.05.4-.5.3-.2L199.65,25l-.3.3-.41-.32Zm.93.48.35.15.05.4-.4-.15Zm.3-2.55v-.4l.35.3Zm.1,1.85.3.25-.3.2Zm-.1-7.85.35.1-.35.35Zm0,1.9.35.1-.05.3-.2.2-.2-.25Zm-.1,1.75.35,0-.3.2,0,.35-.25-.25Zm0,1.3.3.1-.1.45-.3-.15-.2-.3Zm-.7,1.5.4-.2.3.1.1.3-.55.35-.3-.1-.35-.45Zm-1.67,4.6,0-.05,0,.05Zm.42,1.5L198,29l-.1-.35.1-.3h.3l.1.75Zm.33-3.07.33-.48,0-.21.25.06-.1,1-.55-.1Zm.07,1.77.2-.3.5-.65.2.3v.75l-.45.1Zm.25,1.65.05-.4.25-.3.35-.1.1.3v.4l-.4.15Zm.65,1.5v-.3l.2.15Zm.85,1.9-.3-.25-.1-.45h.4Zm.1-2.1-.1-.3h.15Zm0-2,.35-.9-.55.1-.55-.55.15-.4.3-.25-.35-.4-.2.3h-.3l.2-.35.85-.3.25.35.65.5.3.35-.5.65,0,.45-.35.5Zm1.4-.65.15.3-.55.2.1-.6Zm-1.05,2.85.15-.3,0-.4h.25l.1.65Zm.9-1.15-.1-.25-.15-.8h.3Zm.2,2.35.35.1-.05.55-.35-.15Zm.35,1.4H202v-.25h.25Zm-.15-8.3-.4.1v-.35l.35-.1.3.1Zm.25-1.65.15-.3h.25Zm.8,5.2-.3-.15.2-.15.25.1Zm.8,6.4-.35-.1,0-.35h.3Zm22-23.26-.1-.55.35.1.1.25Zm1.5,1.9-.4.05-.25-.3.45-.1h.4Zm.45-1.3.25-.2.3,0-.2.35-.45.2Zm.2,2.05.1-.35.15.45Zm.15-.55v-.55l.4.2Zm.4,1v-.15l.25.1Zm.2,2.9.05-.5.4.2Zm.45-2.05-.4-.1.4-.35Zm-.2-3.05-.25.2,0-.4.2-.45h.3Zm.35,1.65,0-.45h.25Zm5.4,8.05.25-.25.45-.1-.3,1.05.2.3,0,.35-.3.15,0-.55-.3-.3.2-.35Zm-.1,9.4-.4-.1h-1l.15-.25.3-.1-.1-.65.35-.15.2-.2-.4-.2-.15-.45.35,0,.2.2.2-.35.35.15.2.3-.2.35-.55.6Zm.35-6.65-.65.25-.35.7-.35-.25-.15-.35-.15-.8-.2-.35.2-.1.65,1,.1-.35.25-.3.4-.1-.05.4Zm-.8,2,.35.2-.35.15h-.45l-.45-.2-.25-.35Zm-.1.85-.2.15-.2-.25Zm-.55.9-.1.2-.3-.2.1-.35Zm-.3,1.05-.1.35-.55.35-.2-.15.1-.35.55-.4Zm1.2-4.1.3-.15.6.55-.35,0Zm-.3-2.05.3-.35.45.4-.25.25-.35.1-.4-.1Zm-.35-1.35-.1.3-.35,0-.1-.45Zm-.85-2.6.2.3-.2-.1Zm0,7.1-.3.15-.3,0,.15-.35.2-.3Zm-.55-3.75.15.25h-.3ZM230.85,29l.2.35h-.45Zm.35,1.2-.05-.4h1.2l-.35-.2-.05-.3.1-.7h.3l.35-.65.6.35,0,.4-.45,0-.4.6.4.2-.15.3-.3.15-.4-.1-.5.55-.4.1.25.2-.3.1-.35-.1Zm0,2H231l.1-.35h.2Zm1.35,2.25-.65.15-.25-.35-.4-.85.6.25.35,0-.2.35.65.1Zm.65-1.65-.4.1-.25.4-.3-.1-.15-.35.3-.15.75-.2.3.15.2.3Zm2.25.9.35.25v.75l-.75-.1-.2.4-.9-.3.25.35.1.5-.65-.15-.35.05.1-.4.35-.15-.15-.3v-.35l.4,0,.5.25.35.05.25-.2.05-.3-.1-.4-.35-.3-.85.4-.15-.35.15-.4.45.1.2-.25.05-.35.3-.15,0,.75h.75l.25.25-.4-.1Zm1.55,2.75h-.2l.1-.25h.2Z"/><polygon class="80ce52dd-5f15-44fb-b51c-31eca4afbda9" points="232.35 34.21 232.15 34.21 232.05 34.41 232.35 34.21"/></g></g></svg>