<svg xmlns="http://www.w3.org/2000/svg" width="242.27" height="34.48" viewBox="0 0 242.27 34.48"><defs><style>.b09b557d-1eb3-4614-b64a-aae03233afa6{fill:#fff;}</style></defs><title>アセット 1</title><g id="0ba0fae2-0574-4b50-acf9-39baac38ae69" data-name="レイヤー 2"><g id="bb36e967-1b99-4b96-bc20-90a39676966e" data-name="レイヤー 1"><path class="b09b557d-1eb3-4614-b64a-aae03233afa6" d="M176,12.45l-.29.34-9.27.11-1.18,0c-2.79,0-3.64,0-4.87-.08l.13,2.27c1.72-.13,3.15-.15,5.93-.19l8.09-.13-.46.69a14,14,0,0,1-1.47,1.89,23.48,23.48,0,0,1-2.29,2A5.33,5.33,0,0,1,172,21.15a20.25,20.25,0,0,0,4.45-5.25c.32-.55.53-.95.78-1.34.38-.13.46-.19.46-.34a.47.47,0,0,0-.17-.34Z"/><path class="b09b557d-1eb3-4614-b64a-aae03233afa6" d="M169.71,16.61l-2.27-.15c0,.25,0,.44,0,.57a16.19,16.19,0,0,1-1.05,5.82c-.88,1.87-2.52,3.13-5.63,4.43a8.21,8.21,0,0,1,1.34,1.89,17.52,17.52,0,0,0,2.31-1.24c2.61-1.62,3.93-3.24,4.58-5.65a25.8,25.8,0,0,0,.67-5c.23-.19.32-.29.32-.44S169.88,16.63,169.71,16.61Z"/><path class="b09b557d-1eb3-4614-b64a-aae03233afa6" d="M195.46,14l-.29.32h-5.59a9.64,9.64,0,0,0,.5-1.13l.46-1.13c.4-.15.46-.21.46-.36s-.08-.21-.29-.27l-2.1-.69A16.76,16.76,0,0,1,187,14.53,18.89,18.89,0,0,1,182.43,20a6.43,6.43,0,0,1,1.66,1.58,22.52,22.52,0,0,0,4.52-5.23h5.9a14,14,0,0,1-3,6.39c-1.74,2.12-3.59,3.38-7.12,4.87a5,5,0,0,1,1.28,2.06c1.3-.61,1.83-.88,2.58-1.3a17.3,17.3,0,0,0,5.51-4.77,18.19,18.19,0,0,0,3-7.48c.32-.13.42-.23.42-.38s0-.15-.19-.29Z"/><path class="b09b557d-1eb3-4614-b64a-aae03233afa6" d="M218.33,15.37c-.4.27-.53.32-2.25.61l-6.45,1.11.06-2.79c0-.32,0-.46,0-2.14.36-.15.48-.27.48-.42s-.13-.27-.36-.29l-2.44-.23c0,.44,0,.71,0,1.09,0,.63,0,3.66,0,5.06-2.84.42-3,.44-4.69.61l.4,2.31c.67-.15,2.67-.53,4.29-.82,0,2,0,4.75,0,6.07s.32,2.19,1.18,2.67,1.58.5,4.33.5a47.57,47.57,0,0,0,7.06-.44l-.13-2.19a43.34,43.34,0,0,1-6.72.57c-1.77,0-2.79-.15-3.17-.46s-.38-.48-.38-2.56c0-.9,0-1.83,0-2.73l0-1.77,7.59-1.34a8.8,8.8,0,0,1-.82,1.81,14.75,14.75,0,0,1-2,2.82,8.46,8.46,0,0,1,1.77,1.53,18.62,18.62,0,0,0,3.42-6.47c.42-.17.53-.25.53-.44a.51.51,0,0,0-.25-.38Z"/><path class="b09b557d-1eb3-4614-b64a-aae03233afa6" d="M235.4,20.94a22.67,22.67,0,0,0,3.19-6.07c.27-.08.38-.17.38-.29s0-.13-.15-.21l-1.55-1.43-.32.4-4.12.13c-2,.06-3,.08-6.09.11l.29,2.21,3.26-.19c1.18-.06,2.1-.1,2.65-.15l3.21-.19a19.18,19.18,0,0,1-2.73,4.66,21.13,21.13,0,0,1-8.8,6.6,4.31,4.31,0,0,1,1.45,2,23.92,23.92,0,0,0,8-6,23.54,23.54,0,0,1,6.45,5.93l1.74-1.74A24.91,24.91,0,0,0,235.4,20.94Z"/><path class="b09b557d-1eb3-4614-b64a-aae03233afa6" d="M35.3,9.75,35,9.87l-.58-.16H33.11l-.39-.43-.2-.55,0-.62.08-2-.31-.43.08-.27L32.06,5,32,4.45,31,2.85l-.23-.16L30,1.87l-.51-.31-.31-.08L28.08.78l-.43.08L27.38.51,27,.59l-.9-.31-.27.08L24.65.16l-.31.12L23.91,0,23.6,0l-.86.27L22.31.2,21.18.51,20.83.43l-.31.12-.59.39L19.5.9,19.15,1l-.86.43-.27,0-.23.23L17.24,2,17,2.22l-.66.2L15,3.63l-.62.23L14,4.37l-.12.35-.51.08-.51.74L11.31,7.41v.35l-.62.62-.31.55-.23.62-.43.23v.55l-.39.35L9,11.86l-.23.23L8.42,13l-.2.27.08.59.12.19-.31.16-.2.23.27.08.16.27-.19.2-.51.31.27.43-.66-.12-.35,0-.58-.16-.2-.27L6.36,15l-.27-.51-.39-.43-.16-1-.35-.43.27-.16v-.27l-.12-.31-.16-.2.2-.66,0-.35.27-.78.08-.62.16-.55L7.64,6.9l0-.27.12-.31-.47-.78L5.62,3.78V3.51l-1-.62-.31,0L4,3.16H3.67l-.31.51-.74.51-.12.31-.7.7-.08.43L1.29,6l-.08.43L.74,6.9v.35L0,9.87l.12,1.29,0,.62.23.31-.08.62.16,1,.2.66.27.59.31.47-.08.35.43.08-.08.31.12.23.51.47.2.27.12.35.66.16-.16.27.27.12.59.7.23.16.35,0,.35.51.23.12.35,0,.2.2,1.25.82.35.51,0,.31.27.55-.12.66.12,1,.51,1.13-.08.62.23.16.23.55,0,.31.51.78,0,.39.23.23.74,1.09.23.2.31.12-.08.35,1.44,1.13.66.2.35.43,2.89.94.27-.12.39,0,.51.23L17.2,32h1.17l.35-.16h.58l.7-.27h.43l.55-.35,1.09-.55.47-.31h.27l.59-.66.51-.16.35-.51.23.08.59-.08,0,.39.27,1.21,0,.35.59,1.68.51.2.12.35.2.23,1.13.7.39,0,.62.27.35-.16.35.08,1.05,0,.62-.12h.55L32,34l1.25-.55L33.7,33l.51-.27.51-.39.31-.51,0-.27L35,31.32l-.35-.39-.16-.35-.27-.27L34,30.19h-.23l-.2.12-1.17.31-.2.2-.58-.31h-.35L31,30l0-.31-.2-.55.23-.43-.08-.27.2-.27.35-1,.2-.27-.12-.23,0-.35.39-.74L32.1,25l0-.7.23-.2.2-.82.12-.23-.2-.43.43-.08-.08-.78.39-.51.35-.86.47-2V17.9l.39-.12,0-.35.2-.51-.12-.31.31-.51.27-1.21.23-.51.2-.23-.08-.51.2-.2.12-.31,0-.35.16-.55v-.31l.23-.16.16-.27,0-.27L36.15,11l.16-.2.12-.66-.51-.31ZM2.11,9.13,2,9,2,8.7l.16.16Zm1.36,2.22v.16H3.32v-.16Zm-.86.23,0-.23h.12Zm.2-3L3,8.27l.27.08.08.27L3,8.54l-.23.23ZM2.89,14v-.23l.27.27Zm.35-1.36.31.2-.23.23-.12-.2Zm0,1.72.08-.31L3.43,14Zm.51-.31h-.2v-.19h.2ZM4,8.78H3.67l.08-.35H4Zm.7-1.6-.16.16,0-.23Zm-.35,4.33-.08-.23.27,0,.08.2Zm.35-1.87L4.41,9.4l.35,0ZM7.49,21.29l0-.27.27,0Zm24.34-9.13h-.2l0-.31Zm-.51-1.29.31-.08-.12.27-.27.16Zm-.62.35.2.27h-.27Zm.35.62-.23.51-.16-.23,0-.39.2-.08Zm-.58.86.23.23h-.23Zm.23.59-.16.35-.23-.12-.12-.23Zm-1-2.89h.12l-.12.12Zm.27.94-.16-.08v-.12Zm-.47,1.37h.31l-.08.35.35.66,0,.31-.35,0-.23-.12.16-.35-.43-.59Zm0,5.11-.16.31L29.17,18Zm-.7-12,.2.16h-.2Zm.35,8.07h-.23l-.12-.27Zm-.23,9.79-.27.08,0-.27.2,0Zm-.12,3.47-.16.12-.23-.08Zm-.31-7V20l.23.12Zm.08-4.88.08-.08.12,0Zm-.08-2.3h.16v.16h-.16Zm-3-10,.16.12-.16.12ZM16,7l.47.43.27.12-.2.23-.27-.16-.23-.2-.31-.59Zm-.82,3.16h.12l-.2.16Zm-.31-1.6h.16V8.7H14.9Zm.08.74-.27.12-.39-.12.08-.43.35.16Zm-.62-2.65.2-.12.23.16-.59.23Zm0,1.37.27-.08-.19.23-.23,0Zm-.2.82-.39,0,.12-.31.39-.08Zm0,2.11-.16.2-.16-.2ZM13.69,8,14,7.92l-.35.35Zm0,8.35.43-1.13.12-.62L14,14.31h.27l.31-.47.23-.59,0-.31.43-.27.2-.66.66-.94v-.35l.47-.35.12-.27V9.71l.27,0,.82-.74V8.54L18.68,8l.19-.23L19,7.41h.47l.16-.23.47-.35.35-.43.35,0,.27-.12.2-.2.27-.12.35,0,.47-.31.58-.23,1.36-.2.62.08.43-.12.35.12h.35l.39.39.2-.12.31,0,.47.78.74.59.2,1.83,0,.31-.23.59v.59l-.27.27-.08.39-.23.2v.51l-.86.78-.08.35-.27.16-.16.35-.62.43-.35.47-.74.51-.16.35-.27.08-.27.2-.16.23-.66.2-.94.74h-.27l-.27.12-.78.55-.27.08-.35,0-.55.51-.27-.08-.55.27-.94,0-.27.12-.23.23-.9-.12-.58.16-.51.23-.27-.12-.27,0-.27.16-.55-.31-.2-.23-.08-.94-.12-.23Zm.39,3.08-.12.23-.2.16-.27,0V19.5l.27,0Zm-.59-1.17.08.27-.35,0Zm-1.48-1.79-.66.51-.08-.27.31-.16.12-.35h.43Zm.12,1.21-.08.31H11.7l-.23-.27.27,0H12l0-.27Zm-.51-1.83.23-.08V16Zm.35-.59L11.66,15l-.23.2-.27.08-.27-.12.23-.16.12-.27L12,15l0-.23-.19-.23.27.08.31.27Zm.59,2.89h-.16l0-.08Zm-.08-2,.31.08,0,.27-.2.08Zm-.12,3,.27.19-.27.08Zm0-.35.2-.2h.23l.23.12-.16.2Zm.59.55.23.08-.2.16-.23-.16Zm.08,3.55.23.2-.12.23-.2.08,0-.23Zm.12-5.34-.31.16,0-.35L13.1,17l.23.08Zm-.27-2-.12-.2.12-.23.16.23Zm-.2-1.44.08-.27.12.16ZM12.68,9h.23l-.08.39-.16.27-.08-.35Zm0,4.13h.23v.35l-.74.08V13.3h.31Zm-.35-4.52.12.35-.23-.12-.12-.27Zm-.74,3.51.2.12,0,.23.58-.16v.66l-.2-.23h-.62l-.08-.31Zm-.2-.08-.16.16-.16-.08Zm-.35.51L11,13.1l-.19-.16-.12-.27.12-.16Zm-.47-1.17.16.23-.16-.08Zm.31,3.24-.16.27-.2-.2Zm-.12,2.57.12.31-.35-.16L10.45,17Zm-.31.51.27.23-.51.16-.12-.27ZM9.83,18l-.31-.16.51,0Zm.2.66L9.56,19l-.27,0,.16-.27.2-.2.08-.31.23.16Zm-.51-3.24.27-.16v.23Zm.27.86v.2h-.2l0-.2Zm.2,1.13-.27,0L9.95,17l.2.16ZM10.3,15l-.16.08v-.2Zm-.35-.86.2.16-.08.35,0,.35H9.87l-.23.16V14.9Zm-.43-1.21.12,0,0,.66.12.31L9.59,14l-.23-.23ZM9.28,15.6l.08.31L9.17,16H8.85l-.08-.43Zm-.62.86.12.31h-.2Zm.16.78.39,0-.2.16-.35,0-.27-.16L8.27,17Zm.27.55-.16.2-.27.08v-.31l.12-.2Zm-.59.47-.16.08v-.2Zm-.39-.31L8,17.63h.23l0,.59Zm.16,1.76.27,0,0,.2Zm.31-1h.2v.2Zm.08,1.64,0-.23.23,0v-.35l.16-.23.35.27L9,20.28Zm.86,2.11-.31-.08.16-.31h.23Zm.08-1.87H9.36v-.23h.23Zm0,.47.08-.27.59.12.23,0,.12-.23-.23,0-.27.12.16-.35-.16-.23-.35.23-.2-.59,0-.35.31.16h.55l.31.08-.12-.27-.16-.16.2-.27.31-.2-.23-.2.23-.2.35-.12v.62l.08.27.2.19-.23.12L11,19.15v.51l-.16.35-.43-.16L10.3,20l.2.2.08.31H11l-.16.55h-.35l.08.39-.59.08-.23.12Zm2.61.59-.23.12V22h-.27l-.08-.23.23,0,.08-.55.2.2-.16.2Zm-.47.58.31.16-.16.2-.27.08.08.27-.16.23-.39,0-.43-.27-.39,0,.16-.27L10.45,22l.51.08-.08.39Zm-.51,2.3.2-.23.23-.12.27.2-.47.51-.35-.08Zm-.2-1h.23l.08.35-.23-.08Zm0,1.44-.43-.16.08-.35.23-.27.12.16-.2.27Zm-.86-3v.31l-.35,0L9.79,22Zm-.43,2.07-.08-.23L10,24Zm.51,1.48h-.16v-.16h.16Zm-.08-.66.16-.2.08.2Zm.35.23.31-.08.35.16v.35L11,25.47l-.16-.23Zm.58,2-.2-.51.23-.08h.31l.39.51-.2.12Zm.94,1.4-.19-.2h.19Zm0-1.72-.12-.2h.27Zm.23-.59-.31,0,0-.31h.35Zm.08-1.79-.23-.2.27-.08Zm-.12-4.52-.2.27v.66l-.31-.12-.2-.23-.27-.59.31.12.59-.47.31-.08.08.35Zm.62,9-.23.12v-.31l.35-.08Zm.2-.39-.16-.27-.31-.16,0-.23h.59l.35.12.23.23Zm.62-1.68,0-.27.23.08,0,.27Zm.82.74.08-.31.23.2Zm11.9-5.11-.12.35-.55.78-.27.59-.51.23-.35.43-.08.27-.39.08-1.17.9L21.33,27l-1.25.39-1,0-.23-.16-1,0L17,27l-.59-.27-1.56-1.05,0-.35-.27-.2-.82-1.48-.23-.2.31-.23-.16-.27-.27-.9.31-.16.2-.31,1.29,0,.51-.27.66.12.27.12.27-.16L17,21l.66.2H18l.35-.27.58-.08.51-.2.35,0,.58-.23,1.29-.31,1.17-.51.39-.39.39.08.23-.19,1.37-.62.47-.31.31-.51.35.08.23-.2.9-.82.59-.08.35.16-.74,3-.82,2.18Zm1.87,0v.12h-.16v-.12Zm-.39,3.59v.16h-.12v-.16Zm-1.05,1.64.23.12.12.27L26.87,28ZM27,30l.08.23h-.12Zm.31.94-.23-.12.23-.08Zm.12-4.37-.2-.31h.2Zm.16-1.05.16.2h-.31Zm.08,2.42-.12-.16,0-.27.16.16Zm.51-.59L27.69,27l-.12-.31.31-.12.35.12Zm.12,2.26.08-.23.08.27Zm.39-.55-.08-.31v-.27l.23-.12,0,.27.16.23Zm.51-6.16L29,22.74l.08-.23.16.16Zm.12-.23.23-.35.16.2-.08.31Zm.23,2.73.23.16h-.23Zm.16,6-.08-.2.51.08Zm.43-5.62v-.2l.12.2ZM30.23,14l.23.08v.12l-.16.08Zm.27,9.63-.12-.16.23,0Zm.12-8.7-.12-.2.12-.23h.2l0,.27Zm.27,3.67h-.16v-.16h.16ZM31,18.1l-.23-.27h.31ZM31,17.43l-.2-.12,0-.27.31.12.12.23Zm.31-1.52L31,16l-.08-.27v-.35l.2.23.31.12Zm0-1.09-.16-.23V14l-.31.2-.23-.12,0-.31h.35l.59.16-.12.27.2.74Zm.27-2.3H31.4v-.16h.16Zm.2,6.12v-.31l.31.08ZM31.63,14l.12-.31.31-.12,0,.35ZM32,11.43l.27,0,.08.2H32.1Zm.27,4.29-.08-.31.31.12.08.31Zm1-2L33,13.61v-.39l.39-.08,0,.31.12.2Z"/><path class="b09b557d-1eb3-4614-b64a-aae03233afa6" d="M138.68,18.68l-.82-.62-.31,0-.31.08-.27.23-.35.16-.82,1.79-.39.47v.51l-.51.27-.23.66-.27.2-1.17,1.52-.51.2h-.35l-.08.23-.2.08.12-.66-.35-.59L132,23l.12-.23,0-1.91-.23-.31v-.39l-.23-.94-.55-1.05.08-.43-.59-1.09v-.35l-.23-.27-.78-1.68-.43-.51-.39-.9-.27-.23,0-.35-.66-1.76-.35-.2-.08-.59-.12-.27-.35-.43-.27-.16-.66,0-.27-.23-.35,0-.51-.19-.35.08-.59-.27-.62-.12-.59.12-.23.2,0,.35-.47.74.08.35-.43.66-.2.55-.08.66-.55.66-.2.62-.2,1.21-.39.08v.35l-.35.39,0,.35-.47.51.08.43-.23.19-.43.82-.35.51h-1l-1.56,1.13-.12.35-.2.27-.27.2v.39l-.35.9,0,1-.12.35.12.2v.36l-.62.81-.51.2h-.35l-.08.23-.2.08.12-.66-.35-.59L113,23l.12-.23,0-1.91-.23-.31v-.39l-.23-.94-.55-1.05.08-.43-.59-1.09v-.35l-.23-.27-.78-1.68-.43-.51-.39-.9-.27-.23,0-.35-.66-1.76-.35-.2-.08-.59-.12-.27L108,9.09l-.27-.16-.66,0-.27-.23-.35,0-.51-.19-.35.08-.59-.27-.62-.12-.59.12-.23.2,0,.35-.47.74.08.35-.43.66-.2.55-.08.66-.55.66-.2.62-.2,1.21-.39.08v.35l-.35.39,0,.35-.47.51.08.43-.23.19-.43.82-.35.51h-1l-1.56,1.13-.12.35-.19.27-.27.2v.39l-.35.9,0,1-.12.35.07.11-.46.32-.78.82-.27.12-.16.31-.47.39-1.17.59-.27-.08-.7.39-1.17.35-1.25,0-.58.2h-.66L87.48,26l-.31-.27h-.35l-.35-.31L86,25.31,85.6,25l-.51-.2-.27-.47-.23-.12.08-.35-.27-.27-.16-.31.16-.51.51-.31,1.68-.35.23-.12.12.2.2.08,1.79-.2,1.25-.55.62-.2,1.09-.51.43-.35h.27l.2-.08L92.9,20l.2-.23.59-.35.39-.43,0-.31.43-.08.12-.27.23-.16.39-.86.43-1.21.12-.66L95.59,15l.23-.51-.12-.55,0-.7-.55-.82-.23-.66-.27-.16L94,10.92l-.51-.31-.39,0-.16-.23-.7-.55-.39.08-.2-.2-1.21-.23-.51-.23H88.84l-.51.23-.59-.08-1.33.12-.62.16-.51.27h-.47l-.78.47-.23,0-.12.27-.2.16-.82.39-1.4,1.05-.82,1.05-.47.47v.43l-.23.2-.7.9v.27l-.27.47,0,.39-.23.16-.12.23-.08.62-.47,1.21,0,.58.08.31-.12.27,0,.3-.27.2-.12.31-.74,1-.27.58-.55.35-1.25,1.37L74.1,24l-.47.43-1.13.62-.51.39-.2-.08h-.31l-.59.35-.31.08-.31-.12-.31.12H69l-.86.31-.82-.51h-.74l-1-.7-.27-.12-1-1.25-.08-.66-.35-.47-.12-.27.08-.62-.16-1.68.27-.51v-1l.23-.12.12-.23.08-.66.23-.12.31-.55.2-.7.27-.12.55-.7.23-.55.39-.08.7-.62h.27l1.25-.35.7-.08.23.27.12.27-.12.55-.31.59-.2.7.12.62,0,.39.27.39-.08.31.23.2.27.59.27.12.59.55.35,0,1,.31h.35l2-.74.43-.27.2-.7.43-.31.16-.2.39-1.79,0-.55-.2-.55,0-.58L75.78,13l0-.39-.51-.47-.55-.82-1-.82-1.05-.74-.39.12L72,9.71l-.94-.27-.31-.16-.39.2-.2-.27L69.89,9l-.27.12h-1l-.27.12L68,9.13l-.82.23-1.25.12-1.4.66-1.05.59-.2.2-.9.47-1,.78-.35.51-.47.39-.27.59-.62.55-.12.27,0,.35-.39.51-.31.59-.12.62-.23.23,0,.35-.35.59-.08,1-.31.47v.74l-.12.27h0l-.2.15-.12.31-.74,1-.27.58-.55.35-1.25,1.37-.43.08-.47.43-1.13.62-.51.39-.2-.08h-.31l-.59.35-.31.08-.31-.12-.31.12H49l-.86.31-.82-.51h-.74l-1-.7-.27-.12-1-1.25-.08-.66-.35-.47-.12-.27.08-.62-.16-1.68.27-.51v-1l.23-.12L44.3,18l.08-.66.23-.12.31-.55.19-.7.27-.12.55-.7.23-.55.39-.08.7-.62h.27l1.25-.35.7-.08.23.27.12.27-.12.55-.31.59-.19.7.12.62,0,.39.27.39-.08.31.23.2.27.59.27.12.58.55.35,0,1,.31h.35l2-.74.43-.27.2-.7.43-.31.16-.2.39-1.79,0-.55-.2-.55,0-.58L55.73,13l0-.39-.51-.47-.55-.82-1-.82-1.05-.74-.39.12L52,9.71l-.94-.27-.31-.16-.39.2-.2-.27L49.84,9l-.27.12h-1l-.27.12L48,9.13l-.82.23-1.25.12-1.4.66-1.05.59-.2.2-.9.47-1,.78-.35.51-.47.39-.27.59-.62.55-.12.27,0,.35-.39.51-.31.59-.12.62-.23.23,0,.35-.35.59-.08,1-.31.47v.74l-.12.27.16.23,0,.27-.16.59L37.75,23l-.08.27.16.23.08.7.43.62.51,1.37.9,1,.12.27.9.7,1,.59,1.09.47L44,29.6l1.29.23,1.33.12,1.4,0,.39-.12.35.08.82-.31.31.08.59-.27.35,0,.9-.23,1.48-.9.35.08,1.25-.94.59-.31,1.33-1.37,1-.86.08-.43.19-.14.39.57.51,1.37.9,1,.12.27.9.7,1,.59,1.09.47,1.21.35,1.29.23,1.33.12,1.4,0,.39-.12.35.08.82-.31.31.08.59-.27.35,0,.9-.23,1.48-.9.35.08,1.25-.94.59-.31,1.33-1.37,1-.86.08-.43.18-.14v.21l.35.47.55,1.17.66,1,.55.31,0,.27.16.23.31,0,.23.16.31.39.51.16.16.2.39,0,.74.39,1.25.23.51.2.43-.16.2.16L86,30l.62,0,.23-.16.08.23.23.12.55-.2L89,29.88l.66-.12L91,29.37h.51l1.37-.62.31,0,.51-.62h.51l.43-.43,2-1.56.31-.34v0l.27.2.66,1.09,2.38,1.68,1.09.51.66.2.7.08.23.2.35.08.35,0,.66.19.7-.23.55.23.58,0,2.54-.31h.59l.55-.35.31-.08.35,0,.27-.16,1.25-.39.43-.39.35-.08.78-.51.39,0,.62-.66,1-.7.41-.54.21.15.66,1.09,2.38,1.68,1.09.51.66.2.7.08.23.2.35.08.35,0,.66.19.7-.23.55.23.59,0,2.54-.31h.58l.55-.35.31-.08.35,0,.27-.16,1.25-.39.43-.39.35-.08.78-.51.39,0,.62-.66,1-.7.74-1,.51-.35.08-.31.31-.47.78-.86.2-.59.23-.16.35-.43V21.8l.43-.27.16-.66.58-1.13.12-.94ZM92.43,15.09l-.16.12-.2-.12Zm-.59-3.67H92v.16h-.16Zm-.35,3.16h.23l-.23.23ZM74.72,16.46l-.08.31-.2-.12v-.31Zm-.86-2.07.43-.27.16.27-.16.2-.43.31-.08-.23Zm-1.52,2.07h-.2l.08-.2h.12Zm.86-.9.31-.16,0,.27-.27.23Zm-.51-3-.2.16-.16-.23Zm-.62-.39-.08.23-.16-.27Zm.59.86.35.08-.23.31-.35.12V14l-.2.12-.12-.35-.27-.2Zm-.9,1.76.35-.12.31,0,.23.27-.43,0-.23.35-.43-.23Zm-.47-2.18.16.12-.16.12Zm-.94-.55h.2v.2h-.27ZM54.68,16.46l-.08.31-.2-.12v-.31Zm-.86-2.07.43-.27.16.27-.16.2-.43.31-.08-.23ZM52.3,16.46h-.2l.08-.2h.12Zm.86-.9.31-.16,0,.27-.27.23Zm-.51-3-.2.16-.16-.23ZM52,12.21l-.08.23-.16-.27Zm.58.86.35.08-.23.31-.35.12V14l-.2.12-.12-.35-.27-.2Zm-.9,1.76.35-.12.31,0,.23.27-.43,0-.23.35-.43-.23Zm-.47-2.18.16.12-.16.12Zm-.94-.55h.19v.2h-.27ZM39.7,22.39l-.08-.23.31-.08Zm.94-1.79.31,0L41,21l-.27-.2-.16-.31Zm.43,2.15-.35-.08.16-.27.27.08Zm1.09-2.61.16.12-.16.12ZM42.32,25l-.23-.2v-.31l.27.08.08.23Zm.12-3.2-.27.31-.59-.23-.16-.27.16,0,.43.27.27-.16.23-.2Zm.62-6.4.12.23-.31-.16Zm0,11.31,0-.27.2.16.08.27Zm.55-1.05h-.16v-.31h.16Zm16.15-3.24-.08-.23.31-.08Zm.94-1.79.31,0L61,21l-.27-.2-.16-.31Zm.43,2.15-.35-.08.16-.27.27.08Zm1.09-2.61.16.12-.16.12ZM62.36,25l-.23-.2v-.31l.27.08.08.23Zm.12-3.2-.27.31-.59-.23-.16-.27.16,0,.43.27.27-.16.23-.2Zm.62-6.4.12.23-.31-.16Zm0,11.31,0-.27.2.16.08.27Zm.55-1.05h-.16v-.31h.16Zm19.27-9.56.31-.08-.08.47-.23-.12Zm0,3.08.2.27h-.2Zm.27.86H83l.12-.23Zm-.66.35.31.23-.23.27-.16-.23Zm-.27-1.64.16.2h-.16Zm-.35.74.08-.23.2.12-.08.23Zm.08.74-.31-.12v-.31l.27.12Zm-.08-2.42v-.31l.27.23Zm-.08-.39L81.63,17l.23,0,.2.12ZM81.67,16l.27-.12-.16.12v.39l-.2-.16Zm-.16,2,.35.16-.12.23-.31,0Zm-.61,1.37.1-.12.31,0,.2-.27.08.27-.39.51-.34-.26Zm.29-1.88.16.2-.23.2Zm0,.43-.08.39-.2-.16Zm-1.36,3.82v-.08l.06,0,.09.12Zm.43,1.17-.08-.23-.08-.27.08-.23h.23l.08.59Zm.21-2.55.26-.33,0-.06L81,20l-.16.78-.35-.08Zm.1,1.54.16-.23.39-.51.16.23V22l-.35.08ZM81,23.21l-.27,0,0-.31.2-.23.27-.08.08.23v.31Zm.23,1.13V24.1l.16.12Zm.39-3.47-.31-.08.23-.2.35-.08.16.31.78.62-.16.27-.23.19-.31.08-.55-.16-.2-.23.16-.31.27-.2Zm.27,5-.23-.2-.08-.35h.31ZM82,24.18l-.08-.23h.12Zm0-1.44,0-.27.2-.16.27.08-.12.23Zm.23,1.64.12-.23,0-.31h.2l.08.51Zm.47-2.07.12-.23.35.16-.2.23-.31.12Zm.16,1-.12-.62H83l.12.31-.12.51Zm.23,2,.27.08,0,.43-.27-.12Zm.27,1.09H83.3v-.2h.2Zm7-15.33.2.27-.35.08Zm-6.12,2.38.2.16-.27.27Zm.12,1.33v-.23l.12.23.2.12-.16.2-.27.08-.08-.27Zm-.35,7.29h-.2v-.2h.2Zm-.2-2.5.23-.9,0-.62.47-.82.74-1.05L87,14.39l1.6-.16.62,0,.31.12.23-.08h.31l.12.35.55.86-.12.35,0,.66-.12.27-.66.59-.23.59-.31.12-.16.27-.23.2-.7.12-.51.27-.16.27-.43-.08-.23.16-.86.2-.23.16-.27-.08Zm.86,8.11-.27-.08,0-.27h.23Zm22.74-13.14.12.2h-.12Zm-1.64-.31.2,0-.31.2ZM98.43,24.1l0-.08.17-.2h0l.16.23Zm1.17-1.72-.19-.06v-.1l.15-.14.12,0ZM100,24.8l-.08-.2.27.08Zm7,3v-.2l.2.2Zm0-3.94-.23.43.08.43-1.17.9-.27.12-.08.35H105l-.23-.16-.27.16h-.9L103,26l-.58,0-.16-.27-.9-.78-.27-.47,0-.31.08-.27.74-1,.08-.43.47-.78-.08-.62,0-.55-.27-.51-.2-.62v-.62l.16-.59.35-.47,0-.35.12-.35.43-.39.43-.82.16-.66.59-.86h.43l.74,1.37.2.7.58.66-.16.23.27.47.08.59.43.43v.43l.47,1.48.12,2.11-.08.66Zm.43,2.77-.16-.27.35,0,.08.43Zm.59-.39h-.16v-.16H108Zm-.16-2.22-.27-.23.16-.2.27-.08Zm.27,1.36v-.23l.16.12Zm3.63-1.33-.08.08-.2-.2,0-.31Zm-.31-3.67v.35l-.2.16-.08-.35Zm-.66.94,0,.31-.31.12.08-.35-.16-.27,0-.23.31.12Zm-.39-1.05-.27,0-.12-.27Zm-.39,2.3v.27l.2.23.12.35-.16.27-.27.16,0-.27.23-.51-.27-.2-.35-.12.08-.31.27,0Zm-.27,3.55-.16.23-.27-.27.08-.27.16-.23.2-.12.27,0-.08.23-.27.08ZM109,24.84l-.2-.23.27-.08.55,0,.19.2-.31.27-.27-.16Zm.39-4.68.12-.23.2.2-.16.23h-.23Zm-.16.74.08.35-.2-.2-.12-.31ZM109.12,23l.16.2H109Zm0,.9.31,0,.08.27-.66.08-.27-.08.2-.2Zm-.51-6,.12.23-.35-.12Zm.9,9.67h-.62l-.23-.08-.2-.27.31-.08.55.19.35,0,.16.35Zm.51-.58-.2-.12h.2Zm.31-3,.35-.2v.74l-.31,0-.35-.31ZM111,26l-.12.23h-.27l-.16-.51.16-.27-.23.12-.16-.27.2-.12.35,0,.27.23Zm.7.66h-.16l.08-.23h.12Zm-.2-1.37-.27-.2-.12-.31h.31l.27.2.12.31Zm1.4.86h-.23l.08-.2h.16Zm.35.51h-.12V26.4h.2Zm13.18-12.09.12.2h-.12Zm-1.64-.31.2,0-.31.2Zm-7.41,9.87,0-.11.16-.18h0l.16.23Zm1.16-1.72v0Zm.4,2.42-.08-.2.27.08Zm7,3v-.2l.2.2Zm0-3.94-.23.43.08.43-1.17.9-.27.12-.08.35H124l-.23-.16-.27.16h-.9L122,26l-.59,0-.16-.27-.9-.78-.27-.47,0-.31.08-.27.74-1,.08-.43.47-.78-.08-.62,0-.55-.27-.51-.2-.62v-.62l.16-.59.35-.47,0-.35.12-.35.43-.39.43-.82.16-.66.59-.86h.43l.74,1.37.2.7.59.66-.16.23.27.47.08.59.43.43v.43l.47,1.48.12,2.11-.08.66Zm.43,2.77-.16-.27.35,0,.08.43Zm.58-.39h-.16v-.16H127Zm-.16-2.22-.27-.23.16-.2.27-.08Zm.27,1.36v-.23l.16.12Zm3.63-1.33-.08.08-.2-.2,0-.31Zm-.31-3.67v.35l-.19.16-.08-.35Zm-.66.94,0,.31-.31.12.08-.35-.16-.27,0-.23.31.12Zm-.39-1.05-.27,0-.12-.27Zm-.39,2.3v.27l.2.23.12.35-.16.27-.27.16,0-.27.23-.51-.27-.2-.35-.12.08-.31.27,0Zm-.27,3.55-.16.23-.27-.27.08-.27.16-.23.2-.12.27,0-.08.23-.27.08ZM128,24.84l-.2-.23.27-.08.55,0,.2.2-.31.27-.27-.16Zm.39-4.68.12-.23.2.2-.16.23h-.23Zm-.16.74.08.35-.2-.2-.12-.31ZM128.11,23l.16.2H128Zm0,.9.31,0,.08.27-.66.08-.27-.08.19-.2Zm-.51-6,.12.23-.35-.12Zm.9,9.67h-.62l-.23-.08-.2-.27.31-.08.55.19.35,0,.16.35Zm.51-.58-.2-.12h.2Zm.31-3,.35-.2v.74l-.31,0-.35-.31ZM130,26l-.12.23h-.27l-.16-.51.16-.27-.23.12-.16-.27.19-.12.35,0,.27.23Zm.7.66h-.16l.08-.23h.12Zm-.2-1.37-.27-.2-.12-.31h.31l.27.2.12.31Zm1.4.86h-.23l.08-.2h.16Zm.35.51h-.12V26.4h.2Z"/></g></g></svg>