<svg xmlns="http://www.w3.org/2000/svg" width="211.08" height="97.19" viewBox="0 0 211.08 97.19"><defs><style>.ecd805eb-e373-4376-9619-3f79f3da2eac{fill:#bba277;}</style></defs><title>ttl-blog</title><g id="1d96c21e-82ff-4cff-a896-b9686f78310f" data-name="レイヤー 2"><g id="db4e13b0-2993-4b3e-893b-41c12cd82a79" data-name="レイヤー 1"><path class="ecd805eb-e373-4376-9619-3f79f3da2eac" d="M67.4,15.84l.09-.72L67,14.58,66,12.06,65.15,11l-.54-.36L64,9.27l-1.8-2.16h-.9l-.81-1.17L59.21,5.4,55.52,3.33l-1.35-.54-2.07-.36-1.17-.54-.45-.45-.72.09-4-1.08L43.29.54,41.76.18,40.68.27,38.07,0,36.45.18l-.72.27L32.94.09,31.5.27,30.42.63,29.61.27l-.54.36L27.54.81l-.63.36L25.38,1l-1.26.45H22.77l-1.17.72-2.79.63L16.47,4l-.63-.18-2.7,2.16-.63-.18L10.44,7.65l-1.26.63-4,4.14L3.6,14.85,3,16.2l-.45,1.53-.81,1v.9l-.9,2v1.35l-.27.63v2L0,28.26l.45.54.18.72v2.16l.36.54.72.36-.36,1.8L2.7,37.8l1.44,2.52,1,1L6.3,42l2.16-1.08,1-1.08.81-.18,1.53-1.53L11.7,36.9l.27-.54-.63-2.16-2-5.31.36-.45-.36-1.35.36-.54L9.54,25l-.36-.63.72-1.26L10,21.42l-.18-.72,1-.45v-.9l.81-1.89-.27-.81v-.72l.36.45.63.18.18-.72.63-1.26,1.17-.72L16.38,12l.72-1.17.72-.09,1-.63.9-.09.72-.36L21,9.09l.81-.18,1.17-.81.81.18,1.62-.54.54-.45.63.36,1.26.27h1.26l-.54,1.35.27,1.35L27.63,11l-.18,1.53L26.55,15,26,17.64l.09.81h-.63l.09,1.17-1,1.26-.09.9L24,22.95l.09.81-.63,1-.09.81L22.95,27l-.63,1.26-.09,1.53-1,2.07.36,1L20.88,34l-.54,1.53-.18,2.34-.63.18-.36.45.09.81.36.72-1.17.9-.18.81.18.9-.63,1,.18.72L16.47,47.7v1.08l-.81,2.07v.81l-.72.63-.18.72.09,2-.72,1v1.17l-.45.54L12.6,61.37,12,62.63,11.88,64l-.45,1.44-.27,1.71.36.54,1.26.45h4.77l.54.27,1.17-.27,1.8,1.17,1.08,1,.27.63,1.35.63,1.17.9h1l1.71,1.17.63.18,2.16.09,1.53,1,.72-.18.63.18,1.08.72,1.35-.36,2.7.72,2.88.09,1.35-.18,1.26-.45.45.27,1.35.09.81-.72.72.09,2-.36,1.26-.45L52,74.24l.81-1,2.16-1,1.17-.81,1.35-.63,2.79-3.06L61.46,67l2-3.42.36-1.35v-.9l1-1.8L65.15,58l.36-4.5-.54-1,.27-.36.09-.63L65,50.94l-.45-1.44.09-.72L64,48V46.8l-1.08-2L62,43.56l-1-1-.72-.36L60,41.4l-1.53-1.71h-.81l-.81-1.35-1.71-.18,1-.45.18-1.17,1.26-.72.9-1h.72l.81-.27.18-.63.27-.36,1.35-.18L63.71,31l1.08-1,.45-1.35.9-.81.09-.72,1.08-2.79-.18-1,.54-1,.09-1.8-.27-1.35.36-.63ZM4.5,31.68H4l.09-.45H4.5Zm-.27-1.35-.36-.63.45-.18.54.45.18.72Zm0-2.88-.72.09-.36-.63L4,27l.36-.63.63.45.09.9ZM5,26.1l-.63-.36L4,25.2,5,25ZM7,36.18H6.48l-.18-.45ZM7.2,37.8l-.72.09-.18-.36.63-.27.72.09Zm2.79-26-.36-.72.72-.09.27,1.08Zm2.16-.72v-.45l.81.18-.27.36Zm.63,1.71.18-.72.36.45ZM14.31,8.1l-.63-.36.63-.09Zm2.52,54.18-.72-.36.72-.18Zm0-5.67.27-.45.36.45ZM62.18,53l.27.45v.72l-.63-.45Zm-.54,5.13h.54v.63l-.54.18ZM60.47,45.36h.36v.27h-.36Zm-.09,11.34.45.63L60.2,57l-.36-.63Zm-.27-2.88-.63.18-.18-.54.54-.18Zm-1-10.44h.36v.27h-.36Zm-.45,6.75H59v.36h-.36Zm1,7-.54.27-1.26-.63.27-.63ZM57.86,45l.27.54-.63.27ZM57.5,62.45l.36.36-.18.63-.27-.36Zm-.54-4,.36,1.44-.45-.63-.36-.81Zm-.27,4.95.81.18-1,.63ZM51,6.3l.18.45-.36-.09ZM46.89,3.15l.45.18V4l-.45-.36Zm-2.52-.36-.18.45L43.92,3Zm-4.68,2,.36.18-.45.18Zm-1.44-3.6.27.45h-.63ZM36.9,11l-.63-.72.27-.36.27.45ZM35.1,5.49l.27-.54.54.18V6l.18.63.45.45-.63.63-.81-.45-.81.36-.54.45V5.94l1.17.18ZM27.9,28.71l.54-.09.45.27-.09.81L29,31l-.09.63-.63-.27-.09-.63.18-1.62ZM31,15.12l-.54,1.17.27.63-.72.18-.63-.63-.18-.72.72-.09.45-.45ZM31,14.4v-.27h.27v.27Zm-.54,7-.18,1L29.79,22v-.63Zm-.81,4.77-.18.9h-.54l.09-.63ZM29,34.11l.54-.27.09-.63h.45l-.27.72-.36.45-.63.36Zm.81-3.6.27-.09h.54l-.36.45Zm.45-4v-.63l.81-.18.18.36-.63.81Zm.54-2.34.63-.18v.54Zm.45-3.69-.63.18.09-.72.72-.27ZM31,17.1v-.72l.45.72Zm-.18-5.49.09-.72-.27-.54-.81-.09.36-.72.45-.09,1.62,2.61L31.59,12Zm.45-2.7.36-.36.54-.27L32,8.91ZM32.31,8l-.18-.72.45-.36.36.63v.72Zm.45,5.22-.18.54-.72-.18L31.77,13Zm-.9,4.68.45-.72.81-.27-.27.81-.45.54-.63.27Zm1.08-5.49.18-.45.54.09.09.54Zm.9,1.62.54-.27-.27.54-.72.09Zm.09-2.43L34,11l.36-.36-1-.72-.27-.63.81-.09,1.35.9L35,10.8l-.45.54ZM32.58,4l-.18.45-.27-.27Zm-.63,1.62,1.26-1-.09-1h.63l.45.54-.36.63-1,1-.27.72h-.63L31.32,6,31,5.49ZM30.15,7l.63-.18.81.27-.09.81-.36.54-.54.36.36-.9-.45-.36-.45.09Zm-.9-2.25.54.45-.18.54-.45-.36Zm-.18,16.29.09.9-.72.27-.09-.81Zm-.81-6.66.36-.18.18.54-.54.54Zm-.18,9.18.18.45-.63.18-.18-.63Zm-.18,8.1L27.81,33l-.9-.45.54-.9Zm-1-10.08.36.63-.54.54-.09-.63Zm0,2.61.09.63-.27.54-.63-.18-.36-.36-.18-.63Zm-1.8,2.34.27.54-.63.27Zm.45.81.54.36-.63,1.17-.54-.27-.18-.72Zm0,3.15v-.45l.54.45Zm.54,1h-.54v-.63Zm-.63,5.22v.81H24.3l.27-.63Zm-1.62-2.34.63-.09.45.27-.45.54-.9-.09ZM23.58,46.8h.36v.36h-.36Zm-.27-1.26h-1V45l.63-.09Zm-2-3.87L22,41.4l.36.63-1.17.27Zm.18,7.47-.09.81,2.07-.09-.54.54-1.35-.09-.63.18-.18-.72.09-.63.36-.45Zm.45,6h-.54v-.54ZM20.7,46.71l.27.63-.63-.09L20,46.53ZM18.27,61.91l-.45-.27.18-.72.45.18Zm.18-9.9.72.09-.54.36Zm.81,4.41H19v-.27h.27Zm0-4.59.36-.54.72-.09.45-.54h.45l-.18.63-.54.45-.63.18Zm1,11v-.72h.54Zm.36-1.71.45-.45.72-.18.36.81-.63-.36Zm17.1,13.14v-.36l.18-.18Zm4.86-4.32-.81-.18L42.3,69l.72.27Zm2,2.61.36-.45.27.45Zm4.32,1.17h-.36v-.27h.36Zm2.52-4.95v-.36l.45.36Zm4.41-6.48h-.27v-.36h.27Zm-.27-8-.27,2.16-.72,1v.9l-.9,1.17-.72,1.35-.09.9-2.7,2.07L49.32,65l-.81-.36-.45.63-1.89,1.53-.81-.18-.45.27L38.7,67.94,37,68l-1.53-.18-.54-.27-.72.27H32.85L31,67l-1,.27-.45-.45L26.1,65.24l-1-.81-1.44-.72-.54-.63-1.35.18.45-.63.72-.36L22.59,61V58.94l.81-1.08.63-2.7.27-.54L24.21,54l-.27-.36.54-.36.54-2,.54-.36-.45-1.26,1.17-.36.27-1.53.81-2.88,1.89-5.4-.18-.9.27-.72,1.08-1-.36-.9.63.18-.09.54,1.62.09,4.23,1,.81-.09.54.36,1.35.27,3.06.09,1.35.45.72-.27h.63l1.71.81,1.62.27,4.59,4.14.63,1.53.9,1.17L55,47l-.09.81.36,1.53.45.54-.27,1.35ZM49,36.72l.18-.72.81-.18Zm4.5-2,.27-.9.36.72Zm2,6.48-.18.63-.54-.18-.09-.45Zm0-6.48-.45-.36.09-.54.45.36Zm1.62-9.9-.45.45-.54,1.44-.72.27-.63,1.35-.63.18-1,1L52,30.33,49.5,31.68h-.72l-.54.18h-.72l-.45.36-.18.63-.63-.27-1.44.27-.63.36-.54-.27H40l-1.17-.54-1,.45-1-.27-.81.18-1.26-.36L34.29,32l-1.17-.18-.36-.63-.54-.45-.27-.54.45-1.89v-1l.72-.63L33.21,25l.54-1.8-.18-.63.54-.18.18-.81.81-1.35v-.72L35.46,18l.9-2.07-.09-.81.27-.63.54-.36-.18-1,.36-.63.54-2.25.09-1.62,1-.72L38.7,6.75l.72-.09.63.27,1.26-.54,1.89.09,1.08.81,3.6.45.81.27,1.8,1.17,1,.9.9.09.72.36L55.52,13l.63.36v1L57,15.57,57.59,17l.27,1.44-.18.63.27.54-.09,1.44.27.54-.45,1.17-.36.45.27.63.27.72Zm1,5.67-.36-.36.18-.63.54.18Zm1.17-4.77H59V25h.27ZM61,22l-.36-.54.18-.63.36.54Zm-.54-2.16.18-.63.63.45Zm1,7.2v-1l.54.54ZM62,17.91l-.36.63-.27-.36.09-.72.63-.09.36.18Zm.81.45v-.63l.54.36.09.63Z"/><path class="ecd805eb-e373-4376-9619-3f79f3da2eac" d="M209.55,43.29l-.63-.27-1.71,1.26-.81,1.17-.18,1.35-.72.36-1.35,2.7-.54.45v1.35L203,52l-1,.9-.9,1.17-1.35,2.52-1,.18-.81,1.35-.18.63L196,60.11,194,62.18l-2.34,1.44-2.16,1.62-.81-.18-.54-.45.72-3.42,1.08-2.61-.36-1,.45-.36.81-1.71.45-2.88.9-1.89,3.6-11.07v-1l.9-2.88.45-.63-.18-.81.45-.45.54-1.26V31.23l.63-1.08-.18-.81.81-1.08.72-3.87-.54-.36-3-.45-.63-.36-1.35.27H193l-1.35.27-1.08,1.71-1.08,2.61-.36,1.44-1,.63-.72.09v-.9l-1.62-1.62-1.35-.81V26l-2.25-1.62-1.35-.63h-1l-1.08-.9-.63.18-1-.45-1,.18-1.89-.27-1.26.36-2.88.36-.63.36h-1.17l-1.71,1.08-.45.54h-1l-.45.54-1.35.81-1,1h-.72l-.9,1.17-1.89,2L158.25,32l-1.17.81-.9,1.08-1.08,2.7-.63,1.17-.9,1.08-.45,1.44-.36.54-.45,1.44.09,1-.36.45-.54,1.35-.13,1.34-.88,1-.09.9-1,.54-.72,1.26-3.42,2.52h-.72l-1,.63-.63.18-.18,1-.54-.36-.54-.09-.72.18-.27-.9V51.84l-.27-.63.63-.54-.09-.81.81-1.08.45-2.07.54-1.17L142.22,44l.45-.45.27-.63-.27-1.44-.45-1.26h.72v-.9l-.81-2.88-.36-2.7L141.5,33l-1.35-1.8L139.43,30l-.18-.72L136.73,27l-1.26-.63-.54-1-.81-.18L133,24.39l-.9.09-.63-.36L131,23.4l-1.17.18-.54-.36-2.07-.36-1.26-.45-.63.45-.63.09-2-.36-.63.09-.54.45-.9-.36L120,23l-1.35-.09L115,24.12l-2.43,1.17-1.17.27-.63.81-1.89,1.08-.18.63-2.25,1.71-.9,1.08-.27.72-.63.27-1.89,1.71v1.17l-.63.27-.09.9L101.1,37l-.18.72-.63.18-.36.45-.18,2.52-.81.18v.81L99.21,43l-.72,1.08-.81,2.61.05.79-.17.2-.63.27-.36,1.44L94,53.28l-.36,1.44-2.43,2.43-1.71,2.25-3.78,2.34H84.51l-1.17.81-.63-.27-.36-.54-.9-.09-.72-.27L79.2,59,79,58.4l.09-2.07.54-2.79V52.11l.72-.81L80,50.4l1-.81-.18-1.17.45-.54.45-1.26.18-1.44.45-1.26.45-.45-.27-1.17.63-.18L84.51,38l-.18-.81.45-.72.36-2,.72-1.17-.36-.81.45-.54,1.44-4.41.45-.54-.36-1.17.63-.18L88.2,25l.63-1.08.18-.63V21.15l.45-.09.09-.81.54-1,.18-1.44.9-1.08-.36-1.08.63-1v-.81l.72-.81.09-1.26,1-2.61-.09-1.44.45-.81L93.42,6l-.63-.27L90.9,5.13l-1.62.09-.63-.45L87.93,5H86.31L84.15,6.93v.9l-.63,1.35v.9l.27.63-.45.36-.72,1.08-.45,1.35L81.9,15,82,16.56l-.54.36-.72,1.17-.18.72.09.72-.54,1.08-.27,2.07-.45.36-.18,1.17-.9,1.17v2.25l-.81,1.17v1.71l-1,1v.9l-.9,2.79.09.81-.81,1.44.09.63-.54,1.8.09.72-.81.54v.81l-.45,1.17.09.63-.72,1.17-.27,1.53L71.73,48l-.36,1.62v.81l-.81,1.35v.9l-.45.72-.18.72.27.63.36-.45-.72,1-.09.9.18,1.44-.36,1.26,1.26,5.85,1.35.63v.72l1.53,1.17,2.61,1.17,1.53.36,1.53.09,2.25-.45,1,.45L85,67.67l1.53-.27,1-1,2.7-1.35.45-1.17h.81l.27-.63.45-.45.63-.27.63-1.35,1.53-1.35.81-1.17.18-.81.72-.09,1.63-2.54.2.74-.09.81,2.52,4.32,2,1.89,1.35,2,.72.09L107,66.59l1-.18.45.54,2.07,1.17.63-.18.72.18.45.45,1.62-.09,1.44.18,1.44-.27,1.17.36,1.44-.27,1.53.09,3.33-1.17.54-.45,1.71-.27,1.35-.54,3.33-2.43,1.35-.63,1-1.26,1.71-1.08,2.52-1.17,1.44-.18,1.53.09.54-.36,1.44-.45h1l1-1.08.81.18,1.53-1.44,1.53-.54,2.21-1.8.05,1.89,1.08,4,.63,1.35.45.45-.27.63,1.62,2.25,1.35.54v.72l.63.18.81,1,.81.18,1.26.81h1.26l.9.63,1.71.18H166l1.35.18.54-.72.45.27.72.09L172.83,67l1.35-.09.36-.63,1.8-1.44H178l-.45,1.44v.9l1.17.72.63-.54.63.18-.63.45-2.16.54-.63,2.07-1,.72h-.9l-.45.54-2.61.72-1.26.63-.72-.18-1.89.54-.72-.09-2.61,1.35-1.53-.09-.63.18-2.16,1.44-.81-.18-.9.9-.63.36-.81.09-1,.9L153.75,80l-.18,1.17h-.72l-1.53,4-.27,1.44.27,1.26-.27.63.9,2,.27,1.35,1.8,1.44.63,1.17,1,.81,1.26.54,2.88.81,1.26.54.81-.27.81.27,1-.72.36.72.63-.27,5.49-1.26.36-.54.9-.81,1.44-.27,1.17-.9,2-2.07,1.71-2.43,1.08-.45.18-.63V86.21l.72-.09.45-.27.36-1.53,1.17-1,.54-1.44-.09-.81.54-.54.63-1.53V78.2l.81-1,.54-1.35.18-2.16,1-.27.36-1,6.48-4.23,2.61-1.35,1.17-.9,3.06-3.06,2.25-1.8.27-.63,1.35-1.53.54-1.35,1-.45.18-.81,1.26-1.71.09-.81,1.44-1.53.72-2.34.54-.36.81-1,.54-1.26.63-3ZM195.33,29.16l.63-.09-.27.36-.63.09Zm-.9,1.53h-.36v-.36h.36Zm-.54-2.52.36.54-.36-.18Zm-.81,5.67.36-.18.45.45-.18.54-.45.36-.18-.45ZM87.84,12.24l.18.45-.72-.45Zm-3.06,7.11h.36v.36h-.36ZM84.87,23l.81-1v.63l-.36.72-.54.45ZM82.35,40.5l-1-1.17.54-.54.63.27.27.72Zm-.54-5.67.54.36v.63l-.27.63-.54.36v-.54Zm-.27-1V33.3H82V34Zm2.16-6.48h.45l.18.63Zm0-7,.45.36H83.7Zm0,1,.81-.18-.36.18-.18.45-.45.27Zm.09,2.16-.45.54L83,23.49ZM83,29h.36v.36H83Zm.18,8.82v.54L82.62,38Zm-1.44-6.3.81.36-.72.09-.63-.27Zm-1.08,2.79.54.18-.36.54-.36-.36Zm0,4.68-.09.54L80,39.6l.09-.54Zm-.81-11.61h.36V28h-.36ZM80.37,40l.45.81-.63-.63-.72.18Zm-1.71-.54h.54L79,40h-.36Zm-.45-6.93-.18.63-.54-.27Zm-1.35,8.82v.45l-.72-.27Zm-1.35,6.93,1.17-.63-.09-.54.09-.63.63.18v.81l-.54.27-.36.45-.72.09.18.63-.72.09Zm1.71,6-.18.45-.72-.63Zm-2.07-3.69.18.54h-.27ZM75,52.47l.72.09-.27.63-.72.18-.36-.63Zm-.54,2,.45-.27.63.27-.45.81L74.34,55Zm.27,1.26-.27.45-.27-.27Zm-1.35-.81.54.72h-.72Zm-1.26.27.09.72-.54-.27-.27-.54Zm.63,5.4-.63-.09-.54.27L71.46,60l.54-.36h.72l.45.54Zm.18-1.17.63-.63-.27-.63.27-1.44.63.36v.81l-.45,1.08.18.63Zm1.62,1.17.09.63-.27.72-.27-.45-.18-1.26Zm-.36,4L74,64.07l.63.09.09.54ZM75,58.13l-.27-.54.36-.36.72.54.27.63-.63.09ZM76,60.38V60l.45.36Zm1.17.81-.36-.45.45-.54.18.54Zm0-3.51-.54.09.18-.72.63.18Zm-.09-8.1.09-.63.45.63ZM78,46l-.36-.72h.81l.36.81Zm-.54-3.24-.27-.36v-.63l.72-.09.54.36.36.63Zm60.41-6.66.36.81-.45-.27Zm.54,3v.27l-.45-.27Zm-1.62-2.7.27.54-.81.18-.18-.9Zm-.72-6.12.63.18-.09.54-.72.09Zm.54,11.25-.36.45-.54-.09Zm.27,3.24-.18.63-.9-.18-.54-.45ZM135.47,47l1.26.45.36.54-.63-.27-.54-.09-.63.27ZM134.3,32.22h.27v.54h-.45Zm0,16.29.45.45-.63.18Zm-3.78-20-.09.72-.54-.27-.09-.72Zm-10.26-1.89.09.45-.72-.54ZM117.83,26l.18.54-.54-.18-.18-.63Zm-7.11,3.06.36.27-.36.27Zm-8,10.44.18-.18.45.18-.09.54-.54-.18Zm.36,4,.27-.63.54.09-.18.45Zm-1-.54.45.54h-.45Zm-.18,7.65h-.54v-.54h.54Zm.63-3.33h-.28l.18-.36h.1Zm.81-.45h.54l-.36.45Zm.72,8.28h-.36v-.36h.36Zm.18-14-.36-.72.63.09.36.36Zm0-3.06-.72-.27-.18-.63.72.09.54.27h.81l-.45.36Zm1.26.27.54.72-.81-.18Zm.36,1.71v.45l-.45-.45ZM106,62.27l-.54-.09-.09-.54h.81Zm.45-2.79h-.27v-.36h.27Zm5.67,4.95L112,63.8l.72.18Zm10.53-2.16h-.36v-.36h.36Zm4.77,2.88-.36-.45-.27-.63.81.54Zm.54-6.66.09-.72.45.27.09.63Zm.36-5.4-.27-.63h.54l.18.36Zm.9,4.86-.36-.27.09-.54.45.27Zm.36-2h-.45l.09-.54h.36Zm-.18-3.33v-.36l.18-.09Zm1.71,4.95-.36.18-.45-.54.27-.63.54.27Zm-.81-2.43.09-.72.45.36.09.63ZM130,48.78l-1.53.18-1.35.54-.81,1.17-1.35.81-.18.72-.45,2.34.36,1.44.45.54-.81,2-1.17,1h-.81l-3,1.44-.72.09-2.79-.27-1.17.54-2.07-1.53-1.26-.54-.81-.09L109,56.78l-1-1-.09-.45.27-.54-.81-1.44-.09-1.44-.63-3.06.54-1.53-.09-.72.27-1.44.54-1.35.09-1.44,1-.9.54-2.16L111,38.07l.18-.9,1.8-2.25.36-.72,1.35-.45,1.08-.9,2.7-1.44L120,31l1.53-.72.63.18.72-.27.81.45.9-.09.72.36,1.17-.27.72.27,2.25,1.53,2.16,1.8-.18.81.81,1,.45,1.26.45,3,.45,1.26-.09.63-.36.45-.18.81-.09,2.43-.27,1.35-.72,1Zm3,10.35.18-.81.27.45Zm1-1.8-.36-.54-1.26.63-.72-.27v-.36l1-1.17-.81-.81.81-.36-.81-.45.18-.63.45-.36.45.27-.09.54,1.35.36-.18.81-.81-.36-.54.36.45.63.9.18.27.81Zm1-2.7.36-.18.18.9Zm0-.81-.72-.27-1.26-.9.63-.63-.18-.54-.45-.27.54-.27.81-.09-.18,1.35.45.45.72-.18.09-1.35.54-.09.09.72Zm1.8-3-.18-.45.18-.54-.36-.36-.45.18.27-.63.54-.72.9,1.35.18.81Zm1.89-7-.18.54-.63-.54Zm-.18,11.79.18-.81.45.45ZM138.26,49l-.09-.63.27-.45.63.54Zm.81-5.85-.45.36-.36-.54.36-.63.63.18Zm.18-4.32.72-.36-.09.81-.63.18Zm1,13.41-.63-.09.27-.45.54.09Zm.36,4v-.54l.36.27ZM173,73.52h.45l-.45.54Zm.36,2.7.27.54-.72.09-.27-.81Zm.27,4.14-.9,1.35-.09.81-.54.36-.72,1.17-.09.81-.45.45-.54,1.35-3.78,3.69-.81.18-1,.81-.63-.09-1.26.45-2.34-.27-2.61-1.08-.27-.63-1.44-1.35.27-.72.27-2.16,1.62-3.15,2.07-.9L161,81l.36-.63.9-.09,1.26-.72h.81l.72-.27,1.08-.72,2.88-.27,1.17-.45.45-.45.81.27.72-.45.63.36,1.35.63Zm2.52-3.78.45-.54.18.54Zm-.36-2,.63-.18.54.81Zm2-4.68h.72l-.72.36Zm-.09,1.17.27.54-.45.45Zm.45,1.62-.18.81-.27-.27Zm-.27,7.65-.54-.18.36-.63.45.27Zm.63-1.17-.72-.18-.45-.45.27-.63.54-.18.54.27Zm9.63-21.42v-.36l.45.36ZM190.65,39l-.36-.45h-.72l.36-.81.72.45Zm.45,7h-.36v-.54l.54.18Zm-.18-16.47.36.27-.36.27Zm0,1.89,1.35-1.53v.72l-.45.81-.18.81h-.81l-.54-.54Zm-1.44,2.34.09-.54.72.18.81,1h-1.62Zm.81,9.27-.54.63-.81.36.18-.63ZM189,37.35l.09.63-.72-.54-.81-.09-.18-.45v-.72l1.26.63ZM188.49,35l-.72.36.18-.45Zm-2.07-1.35.45-.45.09-.72.72.45.45.72-1.44.36-.63-.09-.27-.54ZM186.33,46l-.36-.63.81.09Zm.09,9.81-.45.36v-.72Zm.54.9.36.45h-.72Zm-.81-22,.18.54h-.54Zm-1.53.36.54.72h-.54Zm-4.5-9.27.54.27h-.54Zm0,3.51.72-.36-.18.72-.54.27Zm-.63-2.7.45.18-.09.81-.54-.36Zm-7.83-1,.27.54-.45.27Zm-1.8,2.16.18.81-.63-.45-.09-.72ZM168.42,31l.45.54h-1Zm-9.09,26-.63.45h-.81l.36-.54.81-.27-.27-.9-.54-.54.45-.18.63.45.9.18Zm1.17,2.61-.45.36-1-1.53.54-.45.45.27Zm-2.43-4,.45.18-.27.63Zm1.26-14.76v-.54l.54.54Zm0-4.41.36.72h-.63l-.36-.63Zm-1.08,1.08.45.18-.63.45Zm-.18,4.5.63.18-.18.63-.63.18Zm-3.69,7.65-.14.08.06-.08Zm2-3.53.13.2.18.81-.55.12Zm.67,3.8-.36-.54.09-.72.54-.54.18.45-.45.18.81,1.17Zm.27,2.7-.63.36-.54-.54.72-.18Zm-.18-8.91.63.54-.09.72-.63-.36-.45-.45-.27-.72Zm-1.08-2.61.45.18-.18.54h-.45Zm-1.71,11-.18-.81.72.54Zm1.35,9.63v-.27l.36.45Zm.45-6.93.18-1h.9l.45-.54.54.18-.81.9-.27.63-.54-.27Zm1.53,3v.36h-.36v-.36Zm-.54,6-.45-.18v-.36l.18-.18.45.18Zm1.08-1.71-.63-.09-.27-.36.9-.18Zm.27-1.8.81.45-.81.54-.27-.72Zm.36,2.43-.54-.45,1.71-.18-.27.63Zm1.26,2.52-.45-.36.45-.27.54.45Zm2.07.54-.54-.36.72-.18Zm1.08-3.33-.45.54-.63.27-.18-.63-1-1-.18-.9.72.18,1.08.81h.9Zm-1.08-2v-.36l.45.36Zm2.34,3.15-.18-.54.81.18-.18.63Zm1.53,3h-.54l-.36-.63.54-.09.63.09Zm11.25-9.27L177,58l-.81.18-2.07,1.71-.9.09-.72.81-.63-.36-.81-.09-.72.18-1.26.81-1.17-.63-.63-.09-.54.18-.72-.63-.72-.18L164,59.21l-2.34-2.43v-.72l-.63-.9.18-1.08-.18-.72-.63-1.08.27-.63-.27-.36.63-2.07V47.79l.36-.63.09-1.71.45-1.44,1.44-2.7-.18-1,1-.45.18-.81,1.44-1.53.18-.81,2.34-1.8.81-1.26.54-.36,2.61-1,1.17-.63,1,.18.45-.27L175,31l2.07.54,1.44.09,1.35.63,1.89,1.26,1.08,1,.18.72.81.9.09,1.53.72,2-.09,1.89L184.8,43l-.45.54-.27,2.07L183.72,47l-.45.54.36.63-1.17,2-.18.63.18.72-1.08.9L181,53l-.18,1.44-1.26.45-.36.54-.09,1h-.81ZM185,52.11l-.36.45-.36-.45Zm-1.89,11.7.63.27.09.72-.81-.36Zm-.63-.9v-.63l.54.36.09.63Zm1.17-1.44-.18-.54.81-.18ZM183.9,60l-.81.27-.09-.54.45-.27.81.09Zm-1.8,7-.45-.36.36-.45Zm-2.34-6.57.09-.72.54.45.36.72v.72l-.45.63-.81.18-.18-.54.81-.81Zm-.18,5.58-.63.18-.63-.18.54-.45h1Zm.27-1.44v-.45l.27-.54.36.54Zm-.54,7.47-.54-.72h.72ZM180,71l-.54-.45,1.35-.18-.18-1,.81-.27-.18.72.18.72-.63.36Zm1.62,4.68h-.36v-.27h.36Zm.27-4.5-.63-.27.63-.18.72.18Zm2.7-2.07-.18.63-.36-.63-.09-.9-1.17-.63V67l.63-.18-.18.45,1.53-.45Zm-.45-3.06v-.27l.45.27Zm0-1.8.09-.54-.45-.81h.45l-.09.36.36.36.27.63Zm.27-4.77-.27-.9.63-.27.36-.72,1,1,.54-.18.72.27.36.63-1.53-.54h-.81l-.36.54Zm1,6.57-.27-.45.27-.36.72.54Zm.36,5,.18-.54.45.18ZM187,62.27h.36v.36H187Zm1,5.13-.63-.18.09-.63.18-.54h.54l-.54.36Z"/></g></g></svg>