<svg xmlns="http://www.w3.org/2000/svg" width="44" height="10.031" viewBox="0 0 44 10.031">
  <metadata><?xpacket begin="﻿" id="W5M0MpCehiHzreSzNTczkc9d"?>
<x:xmpmeta xmlns:x="adobe:ns:meta/" x:xmptk="Adobe XMP Core 5.6-c140 79.160451, 2017/05/06-01:08:21        ">
   <rdf:RDF xmlns:rdf="http://www.w3.org/1999/02/22-rdf-syntax-ns#">
      <rdf:Description rdf:about=""/>
   </rdf:RDF>
</x:xmpmeta>
                                                                                                    
                                                                                                    
                                                                                                    
                                                                                                    
                                                                                                    
                                                                                                    
                                                                                                    
                                                                                                    
                                                                                                    
                                                                                                    
                                                                                                    
                                                                                                    
                                                                                                    
                                                                                                    
                                                                                                    
                                                                                                    
                                                                                                    
                                                                                                    
                                                                                                    
                                                                                                    
                           
<?xpacket end="w"?></metadata>
<defs>
    <style>
      .cls-1 {
        fill: #1c264a;
        fill-rule: evenodd;
      }
    </style>
  </defs>
  <path id="シェイプ_11" data-name="シェイプ 11" class="cls-1" d="M10.2,17.235H8.909a0.4,0.4,0,0,0-.345.2L5.74,22.3,3.016,17.438a0.4,0.4,0,0,0-.348-0.2H1.391a0.4,0.4,0,0,0-.4.393v8.78a0.4,0.4,0,0,0,.4.393H2.656a0.4,0.4,0,0,0,.4-0.393V21.769l2.333,4.113a0.477,0.477,0,0,0,.347.2,0.4,0.4,0,0,0,.345-0.2L8.5,21.734v4.673a0.4,0.4,0,0,0,.4.393h1.3a0.4,0.4,0,0,0,.4-0.393v-8.78A0.4,0.4,0,0,0,10.2,17.235Zm7.989-.26a5.021,5.021,0,1,0-.012,10.037A5.021,5.021,0,1,0,18.187,16.975Zm3.1,4.984a3.005,3.005,0,0,1-3.1,2.973,3.016,3.016,0,0,1-3.122-2.89,2.95,2.95,0,0,1,3.11-2.985A2.98,2.98,0,0,1,21.285,21.958Zm13.344-1.742a2.9,2.9,0,0,0-3.2-2.982H26.152a0.4,0.4,0,0,0-.4.393v8.78a0.4,0.4,0,0,0,.4.393h1.3a0.4,0.4,0,0,0,.4-0.393V23.163h2.67L32.2,26.579a0.4,0.4,0,0,0,.358.221h1.468a0.4,0.4,0,0,0,.338-0.186,0.389,0.389,0,0,0,.019-0.381l-1.642-3.27A2.77,2.77,0,0,0,34.629,20.216Zm-2.085-.07a0.9,0.9,0,0,1-1.117.949H27.851v-1.8h3.576C32.544,19.291,32.544,19.912,32.544,20.146Zm12.062,4.586H38.751V22.881h2.633a0.4,0.4,0,0,0,.4-0.393V21.217a0.4,0.4,0,0,0-.4-0.393H38.751V19.314h5.628a0.4,0.4,0,0,0,.4-0.393V17.627a0.4,0.4,0,0,0-.4-0.393H37.053a0.4,0.4,0,0,0-.4.393v8.78a0.4,0.4,0,0,0,.4.393h7.553a0.4,0.4,0,0,0,.4-0.393V25.125A0.4,0.4,0,0,0,44.606,24.732Z" transform="translate(-1 -16.969)"/>
</svg>
