<svg xmlns="http://www.w3.org/2000/svg" width="59" height="13" viewBox="0 0 59 13">
  <metadata><?xpacket begin="﻿" id="W5M0MpCehiHzreSzNTczkc9d"?>
<x:xmpmeta xmlns:x="adobe:ns:meta/" x:xmptk="Adobe XMP Core 5.6-c140 79.160451, 2017/05/06-01:08:21        ">
   <rdf:RDF xmlns:rdf="http://www.w3.org/1999/02/22-rdf-syntax-ns#">
      <rdf:Description rdf:about=""/>
   </rdf:RDF>
</x:xmpmeta>
                                                                                                    
                                                                                                    
                                                                                                    
                                                                                                    
                                                                                                    
                                                                                                    
                                                                                                    
                                                                                                    
                                                                                                    
                                                                                                    
                                                                                                    
                                                                                                    
                                                                                                    
                                                                                                    
                                                                                                    
                                                                                                    
                                                                                                    
                                                                                                    
                                                                                                    
                                                                                                    
                           
<?xpacket end="w"?></metadata>
<defs>
    <style>
      .cls-1 {
        fill: #fff;
        fill-rule: evenodd;
      }
    </style>
  </defs>
  <path id="シェイプ_11" data-name="シェイプ 11" class="cls-1" d="M671.333,4271.34h-1.728a0.538,0.538,0,0,0-.463.26l-3.786,6.31-3.652-6.3a0.55,0.55,0,0,0-.467-0.27h-1.712a0.523,0.523,0,0,0-.534.51v11.38a0.523,0.523,0,0,0,.534.51h1.7a0.523,0.523,0,0,0,.533-0.51v-6.01l3.129,5.33a0.646,0.646,0,0,0,.466.26,0.552,0.552,0,0,0,.462-0.25l3.244-5.38v6.05a0.523,0.523,0,0,0,.534.51h1.744a0.523,0.523,0,0,0,.533-0.51v-11.38A0.523,0.523,0,0,0,671.333,4271.34Zm10.713-.33c-3.841,0-6.965,2.85-6.965,6.36A6.978,6.978,0,1,0,682.046,4271.01Zm4.155,6.46a4.189,4.189,0,0,1-8.342.1,3.9,3.9,0,0,1,4.171-3.87A3.946,3.946,0,0,1,686.2,4277.47Zm17.892-2.26c0-2.35-1.685-3.87-4.294-3.87h-7.072a0.523,0.523,0,0,0-.533.51v11.38a0.523,0.523,0,0,0,.533.51h1.744a0.524,0.524,0,0,0,.534-0.51v-4.2h3.58l2.254,4.42a0.531,0.531,0,0,0,.48.29h1.968a0.541,0.541,0,0,0,.454-0.24,0.482,0.482,0,0,0,.024-0.49l-2.2-4.24A3.6,3.6,0,0,0,704.093,4275.21Zm-2.795-.09c0,0.3,0,1.23-1.5,1.23h-4.794v-2.34H699.8C701.3,4274.01,701.3,4274.81,701.3,4275.12Zm16.174,5.94h-7.851v-2.4h3.53a0.523,0.523,0,0,0,.534-0.51v-1.64a0.517,0.517,0,0,0-.534-0.51h-3.53v-1.96h7.546a0.523,0.523,0,0,0,.534-0.51v-1.68a0.523,0.523,0,0,0-.534-0.51h-9.824a0.523,0.523,0,0,0-.533.51v11.38a0.523,0.523,0,0,0,.533.51h10.129a0.523,0.523,0,0,0,.533-0.51v-1.66A0.523,0.523,0,0,0,717.472,4281.06Z" transform="translate(-659 -4271)"/>
</svg>
