<svg xmlns="http://www.w3.org/2000/svg" width="249.813" height="32.437" viewBox="0 0 249.813 32.437">
  <metadata><?xpacket begin="﻿" id="W5M0MpCehiHzreSzNTczkc9d"?>
<x:xmpmeta xmlns:x="adobe:ns:meta/" x:xmptk="Adobe XMP Core 5.6-c138 79.159824, 2016/09/14-01:09:01        ">
   <rdf:RDF xmlns:rdf="http://www.w3.org/1999/02/22-rdf-syntax-ns#">
      <rdf:Description rdf:about=""/>
   </rdf:RDF>
</x:xmpmeta>
                                                                                                    
                                                                                                    
                                                                                                    
                                                                                                    
                                                                                                    
                                                                                                    
                                                                                                    
                                                                                                    
                                                                                                    
                                                                                                    
                                                                                                    
                                                                                                    
                                                                                                    
                                                                                                    
                                                                                                    
                                                                                                    
                                                                                                    
                                                                                                    
                                                                                                    
                                                                                                    
                           
<?xpacket end="w"?></metadata>
<defs>
    <style>
      .cls-1 {
        fill: #1c264a;
        fill-rule: evenodd;
      }
    </style>
  </defs>
  <path id="ケータリングを_" data-name="ケータリングを。" class="cls-1" d="M196.446,834.165a27.835,27.835,0,0,1-.528,4.419,13.414,13.414,0,0,1-5.052,8.6,26.991,26.991,0,0,1-6.142,3.433,10.759,10.759,0,0,1,2.114,3.127c5.084-2.515,6.9-3.739,8.848-6.051,2.84-3.365,3.9-6.662,4.326-13.529h4.457c1.354,0,3.4.034,4.623,0.1V830.63c-1.222.068-3.269,0.1-4.623,0.1H189.908a43.773,43.773,0,0,0,2.014-5.541c0.694-.238.793-0.306,0.793-0.544a0.5,0.5,0,0,0-.462-0.442l-3.566-.884a25.349,25.349,0,0,1-2.213,6.493,29.338,29.338,0,0,1-6.174,8.464,9.374,9.374,0,0,1,2.344,2.788,32.526,32.526,0,0,0,5.481-6.9h8.321Zm47.776,2.312c-1.42.068-3.764,0.1-5.283,0.1H222.166c-1.684,0-3.863-.034-5.25-0.1v3.705c1.387-.068,3.566-0.1,5.25-0.1h16.773c1.519,0,3.863.034,5.283,0.1v-3.705Zm15.385,1.937a31.53,31.53,0,0,1,6.5,5.371c-1.982,2.448-5.812,4.929-11.061,7.207a8.91,8.91,0,0,1,2.113,3.161c6.24-2.957,9.905-5.677,12.811-9.28,2.608-3.3,4.292-6.935,5.877-12.985a0.984,0.984,0,0,0,.726-0.748,0.82,0.82,0,0,0-.363-0.51l-2.245-2.414-0.5.612H264.56c0.429-.918.627-1.393,1.486-3.7,0.594-.238.693-0.306,0.693-0.544a0.482,0.482,0,0,0-.429-0.442l-3.335-1.19c-1.849,6.323-4.887,10.708-10.566,15.127a8.538,8.538,0,0,1,2.476,2.754c4.359-3.807,5.581-5.133,7.991-8.736h9.377a23.91,23.91,0,0,1-3.8,8.668,7.842,7.842,0,0,1-.991-0.952,27.412,27.412,0,0,0-5.811-4.113Zm41.6-14.277a24.746,24.746,0,0,1,.264,5.167v6.867c0,5.4-.661,7.784-2.807,10.13-1.651,1.8-3.731,3.059-7.231,4.317a9.862,9.862,0,0,1,2.047,3.331c5.481-2.345,8.684-5,10.137-8.43,1.056-2.448,1.387-4.827,1.387-9.688V829.3c0-1.971,0-2.515.066-3.6a0.986,0.986,0,0,0,.693-0.782,0.528,0.528,0,0,0-.561-0.442Zm-12.085,1.02c0.066,0.918.1,2.38,0.1,5.1v6.8c0,2.243-.033,3.807-0.1,4.963h3.665c-0.066-1.224-.066-2.686-0.066-4.963v-6.8c0-1.258,0-2.142.033-3.875a1.111,1.111,0,0,0,.627-0.68,0.549,0.549,0,0,0-.594-0.34Zm27.834,3.433a29.858,29.858,0,0,1,6.669,5.983l2.807-2.991a29.114,29.114,0,0,0-7.264-5.881Zm3.731,22.878a0.852,0.852,0,0,0,.561.408c0.231,0,.363-0.2.5-0.68,5.58-3.026,8.222-4.793,11.391-7.615,3.929-3.5,6.043-6.288,9.179-12.067a11.913,11.913,0,0,1-2.476-2.856,50.492,50.492,0,0,1-3.2,5.541,36.22,36.22,0,0,1-7.132,7.547,48.737,48.737,0,0,1-10.962,6.39Zm52.927-28.011a19.41,19.41,0,0,1,3.962,3.536l1.651-1.87a21.252,21.252,0,0,0-4.161-3.4Zm-2.576,2.958a20.071,20.071,0,0,1,3.962,3.5l1.651-1.836a22.587,22.587,0,0,0-4.16-3.433Zm-0.1,2.447h-8.783a15.885,15.885,0,0,0,.793-1.835l0.726-1.836c0.627-.238.727-0.34,0.727-0.578a0.5,0.5,0,0,0-.463-0.442l-3.3-1.122a27.5,27.5,0,0,1-2.575,6.187,30.371,30.371,0,0,1-7.132,8.8,10.229,10.229,0,0,1,2.609,2.55c3.929-3.807,4.556-4.555,7.1-8.464h9.278A22.943,22.943,0,0,1,365.2,842.46c-2.741,3.433-5.646,5.472-11.193,7.886a8.12,8.12,0,0,1,2.014,3.331c2.047-.986,2.873-1.427,4.061-2.107a27.448,27.448,0,0,0,8.651-7.717,29.9,29.9,0,0,0,4.787-12.1,0.766,0.766,0,0,0,.661-0.612,0.712,0.712,0,0,0-.3-0.476l-2.477-2.312Zm26.248-6.424a18.757,18.757,0,0,1-2.08,4.793,21.385,21.385,0,0,1-2.311.1,26.871,26.871,0,0,1-4.457-.272l-0.132,3.195a23.015,23.015,0,0,0,2.971.17c0.694,0,1.057,0,2.41-.068-3.1,4.555-4.556,6.289-7.627,8.974l2.873,2.516c2.443-3.468,5.415-5.609,7.726-5.609,1.552,0,2.113.646,2.41,2.549-3.8,2.006-5.249,2.992-6.57,4.487a6.483,6.483,0,0,0-1.816,4.521,4.949,4.949,0,0,0,2.806,4.827c1.486,0.68,3.236.918,6.868,0.918a61.818,61.818,0,0,0,10.038-.782,6.235,6.235,0,0,1-.066-1.019,24.022,24.022,0,0,1,.2-2.686,45.512,45.512,0,0,1-10.632,1.088c-4.259,0-5.778-.646-5.778-2.482a4.559,4.559,0,0,1,1.816-3.3,16.617,16.617,0,0,1,3.3-2.175v5.1h3.236v-6.459c3.8-1.734,5.514-2.448,8.552-3.569h0.429a0.379,0.379,0,0,0,.462-0.306,0.746,0.746,0,0,0-.2-0.476l-2.344-2.414c-2.774,1.394-5.547,2.72-7.132,3.366a4.213,4.213,0,0,0-4.424-3.842,7.081,7.081,0,0,0-3.071.646c0.627-.884,1.783-2.753,2.476-3.977a76.44,76.44,0,0,0,9.84-1.122l-0.793-3.059a37.743,37.743,0,0,1-7.429,1.054,23.235,23.235,0,0,0,1.486-3.06c0.5-.2.627-0.34,0.627-0.544a0.392,0.392,0,0,0-.33-0.374Zm27.932,21.177a5.187,5.187,0,1,0,5.019,5.167A5.1,5.1,0,0,0,425.121,843.615Zm0,2.448a2.737,2.737,0,1,1-2.674,2.719A2.69,2.69,0,0,1,425.121,846.063Z" transform="translate(-180.312 -821.719)"/>
</svg>
