<svg xmlns="http://www.w3.org/2000/svg" width="273.375" height="31.907" viewBox="0 0 273.375 31.907">
  <metadata><?xpacket begin="﻿" id="W5M0MpCehiHzreSzNTczkc9d"?>
<x:xmpmeta xmlns:x="adobe:ns:meta/" x:xmptk="Adobe XMP Core 5.6-c138 79.159824, 2016/09/14-01:09:01        ">
   <rdf:RDF xmlns:rdf="http://www.w3.org/1999/02/22-rdf-syntax-ns#">
      <rdf:Description rdf:about=""/>
   </rdf:RDF>
</x:xmpmeta>
                                                                                                    
                                                                                                    
                                                                                                    
                                                                                                    
                                                                                                    
                                                                                                    
                                                                                                    
                                                                                                    
                                                                                                    
                                                                                                    
                                                                                                    
                                                                                                    
                                                                                                    
                                                                                                    
                                                                                                    
                                                                                                    
                                                                                                    
                                                                                                    
                                                                                                    
                                                                                                    
                           
<?xpacket end="w"?></metadata>
<defs>
    <style>
      .cls-1 {
        fill: #1c264a;
        fill-rule: evenodd;
      }
    </style>
  </defs>
  <path id="今ここにしかない" class="cls-1" d="M202.257,782.324l-4,10.945,3.433,0.918,4.359-12.373c0.66-.238.858-0.374,0.858-0.68a0.589,0.589,0,0,0-.264-0.442l-2.41-2.278-0.5.714H189.083c-1.387,0-3.335-.068-4.623-0.1v3.4c1.288-.068,3.236-0.1,4.623-0.1h13.174ZM202.521,774a44.644,44.644,0,0,0,7.231,4.317,12.817,12.817,0,0,1,2.047-3.229c-7.165-3.127-11.061-6.017-14.165-10.5,0.528-.136.727-0.272,0.727-0.544a0.831,0.831,0,0,0-.562-0.68l-3.07-1.087a26.14,26.14,0,0,1-6.406,7.92,41.258,41.258,0,0,1-8.32,5.473,10.174,10.174,0,0,1,1.651,3.3,43.2,43.2,0,0,0,7.66-5v2.346c0.66-.034,1.981-0.034,2.608-0.034h7.957c0.628,0,1.948,0,2.642.034V774Zm-10.6-.85c-0.561,0-1.09,0-1.651-.034a26.142,26.142,0,0,0,5.481-6.22,23.94,23.94,0,0,0,5.613,6.22c-0.5.034-.99,0.034-1.486,0.034h-7.957Zm29.847,6.969c-1.485,2.006-1.915,3.127-1.915,4.929a5.89,5.89,0,0,0,2.345,4.827c2.113,1.462,5.481,2.108,10.8,2.108a53.907,53.907,0,0,0,9.079-.646c-0.033-.578-0.033-0.816-0.033-1.224,0-.85.033-1.8,0.1-2.923a35.714,35.714,0,0,1-9.179,1.087c-3.566,0-6.307-.408-7.859-1.155a2.812,2.812,0,0,1-1.651-2.618,3.984,3.984,0,0,1,.958-2.651Zm0.958-9.654c4.028,0.17,5.877.2,8.254,0.2,3.5,0,5.547-.068,9.245-0.34l-0.2-3.637a65.652,65.652,0,0,1-8.452.476c-2.939,0-6.406-.1-8.717-0.238Zm31.63,9.654c-1.486,2.006-1.915,3.127-1.915,4.929a5.892,5.892,0,0,0,2.344,4.827c2.114,1.462,5.481,2.108,10.8,2.108a53.919,53.919,0,0,0,9.08-.646c-0.033-.578-0.033-0.816-0.033-1.224,0-.85.033-1.8,0.1-2.923a35.7,35.7,0,0,1-9.179,1.087c-3.566,0-6.306-.408-7.858-1.155a2.81,2.81,0,0,1-1.651-2.618,3.984,3.984,0,0,1,.958-2.651Zm0.958-9.654c4.028,0.17,5.877.2,8.254,0.2,3.5,0,5.547-.068,9.245-0.34l-0.2-3.637a65.662,65.662,0,0,1-8.452.476c-2.939,0-6.406-.1-8.717-0.238Zm30.606-5.2a21.064,21.064,0,0,1-.165,2.651,117.516,117.516,0,0,0-.858,13.632,40.1,40.1,0,0,0,1.188,10.334,22.543,22.543,0,0,1,3.665-1.02,34.193,34.193,0,0,1-1.353-10.64,86.775,86.775,0,0,1,1.056-13.223c0.561-.272.727-0.408,0.727-0.68a0.519,0.519,0,0,0-.529-0.476Zm9.377,6.765c1.816,0.068,3.929.136,6.175,0.136a77.769,77.769,0,0,0,8.221-.476l-0.1-3.468a51.786,51.786,0,0,1-7.957.544c-2.873,0-4.16-.034-6.208-0.2Zm-1.783,9.416c0,0.2.033,0.612,0.033,1.937a8.444,8.444,0,0,0,1.42,4.963c1.387,1.87,4,2.618,9.344,2.618a52.506,52.506,0,0,0,6.7-.442,14.356,14.356,0,0,1,.5-3.739,47.494,47.494,0,0,1-6.636.578c-7.033,0-8.156-.85-8.189-5.983Zm29.253-16.9c0.033,2.312.066,3.5,0.066,5.609,0,2.278-.033,3.433-0.165,7.92-0.066,2.176-.1,4.25-0.1,5.983,0,3.977.726,6.221,2.443,7.717,1.255,1.121,2.972,1.631,5.382,1.631a14.447,14.447,0,0,0,9.972-3.637,18.51,18.51,0,0,0,4.061-5.269,35.662,35.662,0,0,1-2.906-2.889c-1.684,3.535-2.938,5.1-5.25,6.526a10.613,10.613,0,0,1-5.514,1.632q-3.368,0-4.16-2.244c-0.4-1.189-.5-2.107-0.5-5,0-1.054.033-2.754,0.1-4.963,0.1-3.2.165-5.779,0.2-7.513,0.066-2.583.1-3.161,0.1-4.147a0.8,0.8,0,0,0,.628-0.714,0.581,0.581,0,0,0-.628-0.442Zm38.961-.748a45.614,45.614,0,0,1-1.387,7.071c-1.882.2-4.92,0.476-7.594,0.68l0.693,3.705c1.09-.17,1.123-0.2,2.08-0.374,1.816-.34,1.882-0.306,4.128-0.646a48.146,48.146,0,0,1-1.915,5.813,46.179,46.179,0,0,1-4.986,10.062,10.263,10.263,0,0,1,2.938,1.87A56.558,56.558,0,0,0,361,780.658c0.826-2.278,1.816-5.337,2.213-6.833a18.29,18.29,0,0,1,2.938-.17c2.212,0,2.642.714,2.642,4.657,0,0.85-.066,1.938-0.166,3.094-0.264,2.923-.66,4.691-1.386,5.949a2.767,2.767,0,0,1-2.675,1.325,14.95,14.95,0,0,1-2.839-.306,17.873,17.873,0,0,1,.3,3.706c0.561,0.068,1.783.136,2.74,0.136,2.477,0,4.26-.85,5.283-2.516,1.42-2.311,2.08-6.391,2.08-12.645,0-3.3-.594-4.759-2.311-5.745a7.116,7.116,0,0,0-3.665-.782c-0.759,0-1.882.034-2.443,0.068,0.627-2.346.759-2.923,1.221-5.133,0.562-.306.661-0.408,0.661-0.646a0.482,0.482,0,0,0-.5-0.442Zm9.74,5.745a27.446,27.446,0,0,1,7.924,9.212l2.873-2.413c-3.071-4.487-5.019-6.561-8.552-9.076Zm26.38-6.934a36.344,36.344,0,0,1-1.552,5.37l-0.132.408c-1.254.034-1.981,0.068-2.377,0.068-1.024,0-2.575-.068-3.533-0.17l-0.033,3.366c1.948,0.068,2.08.1,2.41,0.1,0.463,0,1.882-.068,2.477-0.1a63.985,63.985,0,0,1-6.934,13.189,7.751,7.751,0,0,1,3.17,1.8,93,93,0,0,0,7.264-15.195c0.66-.068,1.353-0.17,2.014-0.238a26.929,26.929,0,0,0,4.16-.816l-0.5-3.127a24.192,24.192,0,0,1-3.83.815c-0.3.034-.628,0.1-0.76,0.1,0.132-.34.231-0.543,0.33-0.815,0.43-1.19.529-1.428,1.09-2.72a0.68,0.68,0,0,0,.561-0.578,0.456,0.456,0,0,0-.4-0.408Zm9.972,9.042a22.892,22.892,0,0,1,8.155,3.365l1.618-3.093a20.7,20.7,0,0,0-8.651-3.332Zm0.1,2.345a5.773,5.773,0,0,0-2.18,4.283,19.544,19.544,0,0,0,.232,2.686l0.4,2.651a14,14,0,0,0-3.5-.476c-3.467,0-5.877,2.006-5.877,4.895,0,3.094,2.773,5.269,6.8,5.269,3.17,0,4.821-.748,5.613-2.515a8.5,8.5,0,0,0,.529-2.686,38,38,0,0,1,5.316,3.638,7.274,7.274,0,0,1,1.849-3.06,39.415,39.415,0,0,0-7.165-4.011c-0.1-.884-0.165-1.394-0.331-2.413a28.383,28.383,0,0,1-.5-3.944A2.824,2.824,0,0,1,410.3,775.9Zm-1.255,13.122c0,2.243-.793,3.161-2.741,3.161-2.311,0-3.632-.816-3.632-2.244,0-1.155,1.09-1.9,2.807-1.9a9.867,9.867,0,0,1,3.566.714v0.272Zm18.819-20.4c0.1,0.612.231,3.467,0.231,5.643,0,2,.232,5.778.5,8.09a17.318,17.318,0,0,0,2.443,7.342c1.321,2.04,2.741,2.958,4.557,2.958a3.744,3.744,0,0,0,2.377-.884,11.687,11.687,0,0,0,2.311-3.637c0.33-.816.462-1.19,0.66-1.632a17.163,17.163,0,0,1-2.872-2.175c-0.991,3.093-1.849,4.589-2.642,4.589-0.726,0-1.683-1.224-2.443-3.128a33.678,33.678,0,0,1-1.387-10.062v-3.433c0-.748.033-1.02,0.1-1.938a0.934,0.934,0,0,0,.661-0.747,0.746,0.746,0,0,0-.727-0.544Zm17.665,4.181a25.07,25.07,0,0,1,4.292,5.881,31.183,31.183,0,0,1,2.543,6.968l3.4-1.563a26.419,26.419,0,0,0-7.693-13.258Z" transform="translate(-180 -762.281)"/>
</svg>
