<svg xmlns="http://www.w3.org/2000/svg" width="539.26" height="58.94" viewBox="0 0 539.26 58.94"><defs><style>.d2ec4a09-8ae5-4930-bfa1-4820f02a4156{fill:#1c264a;}</style></defs><title>アセット 1</title><g id="e6f8f717-27b8-493f-b69b-b040cfa90e73" data-name="レイヤー 2"><g id="5a805221-73a3-413e-a234-255091c0259f" data-name="レイヤー 1"><path class="d2ec4a09-8ae5-4930-bfa1-4820f02a4156" d="M45.87,22.45l-.24-5.21-.8-3.77L43.46,9.86,42.18,7.7,39,4h-.88l-.4-.48-3-2.08h-.48L31,.56,29.83.48l-.64.24L27.26.16,25.34.4,24.7.32,23.58.56l-1,.48-1.28.24-.8-.08-1,1-.64.08-1.44.88-1.2.24-.24.72-.64.32-.88,1L11.87,7l-.32.72L11,8l-.88.88-2.25,3v.88l-.56.32-.72,1.12-.48.4L5.69,16l-1,1.52-.16.64.24.88-.88.4.16,1-.88.8-.72,2.57L1.92,25l.16,1-1,1.68L1,28.39,1,29.91l-.48,1.2L0,35.2l.48.72-.48.8.16,1v2.89l.16,1.2.32.72L.8,44.42l.56.88L1,45.87l2.65,5.37.8,1,1,.8,1.12,1.52.88.88,1.12.64,1.36.32.4.56,3.37,1.36,1.36.24,1.36-.08.72.32.88-.32.8.48.56-.32h2.65l3.37-1,2.89-1.36.4-.56.8.16,1.36-1.2.64-.16.8-1L36,50V49l.88-.32L36.73,48l.88-.32,1.44-2.17,1-2.57.56-.48.64-1.28.4-1.44L42.82,38l-.16-.72.8-1.52.72-2.49.24-3,.56-1,.4-3.37.4-1.44-.64-1,.4-.48ZM3.85,34.8l-.32-.4-.08-.48.72.24Zm.72,3.37H4.33v-.32h.24Zm1,1-.32.4-.4-.32.24-.48.56-.24ZM32,7.38h.32l-.48.32ZM30.47,5.29l.48.32h-.48Zm-.08,3.13.32.24-.32.24Zm-7.86-1.2L23.09,7l.16-.32.24.16-.24.72-.64.16-.56-.16Zm-3.45-.4.64-.16-.16,1-.48-.4ZM13.63,17.72v.48l-.32-.32h-.56l.24-.16ZM12.27,12l.32.4H12l-.32-.48Zm-1.76,6.9.32.4-.16.48-.32-.4ZM9.3,16.84l-.08.32L8.9,16.6Zm-.88,9.94.32.32-.4.24ZM8.18,28h.24v.24H8.18Zm-1-2.25h.24l-.08.48H7ZM6.9,32.8l1.52-.08-.08.4-1,.48L7.14,33l-.32.32Zm-1,4-.16-.48.16-.48,1.2.88L6.66,37Zm1,9.46-.24-.4L7.3,46Zm.56-1.44-.56-.24-.24-.48,1.2.4Zm-.08-6.66.32-.88.48.16L8,38.33Zm1.2,1.76-.4-.72.56.24ZM8.9,31l-.72-.4.72.72-.48.48-.56-.48-.48-1.28L8.1,30l1.12.32Zm-.48-1.76v-.72l.64.16.24.56Zm1.52-6-.32.4-.32-.4Zm.16,3.29-.48.24.32-.72Zm-.48,18.6v-.32h.64Zm1-19.41-.56.16v-.64l.16-.4.4.32Zm0-3.53.16-.48.48.08.08.56Zm.48-1.2.08-.72.64.24ZM12,16.28l.64.24.24.64-.64-.32ZM28.15,49.4l-.32-.56.64.48Zm1.76-2.65h-.32v-.32h.32Zm.56,2.49L30.23,49l.4-.16Zm0-4.57.32-.48h.72l.48.32Zm1.84-17.4-.48,1.12.24.48.24.56L31.43,31l.08.72-.24,1.12-.88,2.33v.72l-.4.64.08.64-1,.8-.24.56.16.72-.48.48L27.83,41l-.16.72-.48.32-1,1.52-.48,1.12-1.2,1.28-.08.48-1.2.56-1.76,1.68-.72-.4-.72.32-.64.08-2.65-.32-1-.72L15,47.39l-.32-1.12-1.12-1.6-.48-1.12L13,41.06l-.32-1.2.08-1.28.32-.72-.4-.4-.08-.56L13.07,35V34.4l-.16-.48.48-1.28.4-2,.32-.56V28.23l.4-.72v-.88l1.2-2.49.4-2,.32-.56-.08-.64.88-1.36-.08-.64.88-.64.64-1L18.92,16l1.52-1.44.32-1.36.56-.24L23.82,11l1-.64,2.08.08,2.25.4,1.2.4,1.68,2.57,1,2.33v1.2l.24.56L33,19.08l.24,1.76-.4,1.2.32.88-.24.64ZM33.6,41.86l-.4-.16.08-.24h.32Zm.32-3.69-.32-.24v-.48l.48.24Zm6.33-22.61h.32l-.16.4h-.32ZM39,22.45v.48l-.48.16Zm-.8-6.5h-.4v-.4Zm-1,10.5.32.72L37.13,27ZM37,17.32l.24-.48.32.16v.32Zm.32,2.17-.24-.72h.8ZM37.93,24l.24.32-.4.24Zm-.16-10.1-.32.16v-.4Zm-3-3h.48l-.48.64Zm-.08,29.19.4-.08.16.56h-.8Zm1.12,2.81-.48-.24-.24-.48.32-.24.56.24Zm-.16-14.27.48-.24L36,29Zm.88,9-.4-.32.24-.56h.48Zm-.32-5.77.16-.64.48.16Zm0-8.34v-.24h.32v.24Zm.08-5.21L36,17.8l-.48-.32.56-.16.8,1.2Zm.4-7.78h.72l-.56.4Zm1,23.5H37l.32-.48.56.08Zm.56-8.18.64-.08-.4.24-.08.48h-.56Zm.4,5.29-.24-.48.72.4Zm.8-2.17-.32-.56.8.32Zm1-6.5-.48.16V22l.08-.56.48.4Zm0-5,.24-.48.16.72Zm.24,8.26-.08-.4L41,25l.24.32Zm.56-10.1.56.16.08.64-.48-.24ZM42,33.44l-.4-.16L42,33Zm.32-3.13H42v-.4h.48Z"/><path class="d2ec4a09-8ae5-4930-bfa1-4820f02a4156" d="M95.18,25.1l-.24-.64.32-.56.08-1.84.16-.56-.56-1.28.32-.64-.16-.72.24-.72-.16-1.36L94.38,15l-.08-1.2-.48-1.84-.56-1.12-.4-.4V9.7l-.48-.4-.08-.64-.88-.88-.72-1.12-.16-.72L88.37,4.57l-.24-.64-.64-.16-1.12-.88h-.72l-.8-.8L83.8,2l-.72-.64h-.88L81.31.8,77.54.24h-1.2L74.49.8,73.77.32l-1,.48L71.85.64,69,1.68h-.72l-1.92.8-3.45,2-.56.88-.64.16-.88.8-.72,1L59.26,8,58.7,9.38l-1,.88-1.92,4.89v1.28l-.4,1.84-.08,1.44.16.72-.24.56-.08,1.92.24,1.36L56,26l-.24.72.16.56,1.2,1.68-.08.72,1,.88.72,1.28,1,.16.16.88.64.32,1.44,1.28.72.08.88.8,2.65.72,1.12.56,6.5-.4,1.12-.4,1-.56.56.16.56-.32.48-1.6.72.88,1.52-.8.56.08.08,1.52.24,1.12-.48.32-.24.64-.48.32-.32,1.84-.48.08-.4.32L78,41.14l-.48,1.12-.72.88-.56.24L75.06,45l-1.84,1.84-.64.16L71,48.91l-.72-.16-.48.4-1.28.48L68,50,66.56,50l-.64.32-2.65-.56-.32-.72-.56-.48.32-.56.16-.72.4-.64.16-2.25-.16-.72-.64-1-.08-1-.8-.56-.8-1-1-.88-1,.16-.88-.64H55.49l-.64-.16-.48.48-1.12.64-.32.56-.72.24-.56.4-.4.56-.24,1-.56.24-.24.48-.08,2.73-.32.72.08,1.36,1,3.53,3.21,4,.64.16.48.32.56-.08,1,.8,4.65,2.08,1-.16.56.4.64-.16H66.8l1-.24.88.16,3.13-.8.56.16,2.17-1.12.64-.08.4-.4,1.12-.56.72-.08,3.93-3,1.12-.64,2.08-3,.88-.08.24-.56.48-1,.4-.48,1-.64v-.72l1-.56.08-.64.24-.48L89,43.3l.56-.32.48-1.2.48-.32,1-2v-1l.72-1.28.08-.72.72-1-.16-.88.56-.48-.24-.72.72-.88.72-2.41v-2l.4-1.2ZM59.74,16.6l-.32-.4H60ZM60,22.37l.16-.88.4.24.16.48Zm.88-3-.16-.56.48.56Zm0-2.81-.32-.4.08-.72.56.16.16.72Zm3.85-5.77.24.4-.4.24ZM63.43,9.7l.24.56h-.4Zm-.32,1.44h.56v.64l-.56.4Zm-.48,6.33-.4-.32.16-.56.48.32Zm.16-4.25-.56-.16.24-.56.48-.16.08.4Zm.32,11.87.32-.16.08.48Zm.56-.64h-.24v-.32h.24Zm0-6.5h-.4v-.48h.4Zm0-2.33-.08-.48.56.56Zm.8-1.52.24.4-.4-.08Zm.8,13.55-.56.08L65,27.1h.56Zm.48-7.06h-.24v-.32h.24ZM56.29,46.35,56,47l-.08-.4Zm-.16,1.92-.24-.4h.56l.16.24Zm1.36-2.49-.72.16.24-.72h.48Zm.56,6.5-.4-.16.56-.32.48.48Zm1-4.89.32.24-.32.24Zm0,1,.64.16v.72L59.1,49Zm1,3.69-.4-.16V51.4l.48.32Zm8.34,2.81-.48.16.16-.72h.4Zm7.06-6-.4-.48.56-.16.4.64Zm2.41,2.49-.32-.4.88.24Zm.56-4.17L78.18,47l.48-.16Zm1-7.86.4-.24.24.4-.24.4-.56-.08Zm0,4.49.4.16-.08.56Zm1,5.45-.48-.16-.16-.56.72.16Zm10-37.85.4.88.4.4-.32.48h-.56l-.16-.56Zm-.08,5.93-.56.08-.72.8-.64.24.08-.72-.24-.64.16-.72,1.52.4ZM89.17,29.91,89,29.19l.56.16Zm.32,1.2-.32.48-.24-.48Zm-1.2-11.39.4-.56.32.56Zm.48-6,.24.4L88.29,14Zm-.48-3.77H88l-.16-.16Zm-.72.48.72.4L87.65,12l-.48-.32-.08-.88ZM87.81,27l-.4-.24.16-.56Zm-.24-7.3H88l.16,1.2-.4-.48Zm.24,9.22.48.08-.24.48-.48.32ZM86.52,14.83l.32.24-.32.24Zm.4,1.76-.24.64-.16-.4ZM84.12,35,84,34.24l.72-.08,1-.4.32.48-.72.16Zm.32.16-.32.32.16-.32Zm-1.76-5.61v.72L82,29.91l-.48-.48-.24-.64.72.08.48-.4.64.4.4.64Zm.88,1.76h-.64l-.08-.16Zm-1.2.32v.56l-.56-.4Zm-.88-1.44-.48.24.16-.56Zm.4-2.25.64.4H82ZM83.4,26V25.5l.32.24Zm.16-13.79v-.32l.4.32Zm2.08,9.14.32-.08.08.56Zm.4,2.81-.16.48-.4-.32Zm-.72-4.57v-.24h.32v.24Zm-.16-3.13.32-.24.24.4Zm.16,12.91.08.64.64.24-.64.4-.64.08-.64.4.08-.56.64-.32v-.88ZM85.16,33l-.16.64-.64-.16-.08-.64Zm-.72-18.6L84.12,14l.56.08.32.24Zm0,8.42.16.4h-.48Zm.16,1.76L84,25.1l.16-.64Zm1.12,7.54-.08-.72.56-.16h.56l-.32.64Zm.64-14,.32.4h-.32ZM86.2,28.31l-.32-.72.48.16ZM85.72,9.54h.48v.72l-.72.32-.56,1.28-.08.64-.4-.24-.16-.48v-.64l.64-.4ZM85,8.66l.48.08-.16.64-.56-.32Zm-.72,1-.56.08-.32-.4.4-.24.48.08ZM82.67,7l.72.16L84.12,7l-.24.56-1,.48-.4-.48Zm.24,3.61.32.24-.64.24-.4-.64Zm-1.6-1.92L81,9l-.24-.48Zm-11-3.77v.64l-.4-.32Zm-1.6,2.73.48.24h-.48Zm1.2,22.29v-.4l.32.4Zm1.2-1.12-.32-.4.48-.24Zm1.12,3.37-.24-.4.56.16.16.56Zm3.45-.56L75,32l.08-.64.64-.48Zm2.65,1.92L78.18,33l.16-.48.4.16.08,1.12Zm1.2-2.41h-1l-.88-.88L78.1,30l.88.64.56-.08ZM77.3,27l-.64-.08-2.17.16-1.28.32-.64-.08-2.41-.88-1.28-.24V25.5l-.24-.4-1.2-.16.4-.8L67,22.45l-.32-1.28-.08-1.36.4-2.49L67,16.2l.88-.8L68,14.27l2.65-3h.8l1-.64,1.76-.24,1-.48.16-.24.8.08,1,.8.88-.16,3.61,2.33,1.28,2.81-.08.64L83,17.32l-.16.64.24.64.08,1.2.24.64-.8.8-.64,1-.08.72-.8.88Zm4,12.11-.16-.64.56.32Zm.32,7.54v-.48l.32.24Zm.56-3.37h-.32V43h.32Zm.16-6.09-.4.56h-.64l.24-.64L82,36l.4.48Zm.16-3.45-.16-.24-.48.24-.56-.08L81,33.2l.72-.16.48-.24.32.32Zm.16.48v-.56l.24-.48.16,1.36Zm.56,8.1h.48V43l-.48.16ZM84,47.15l.16-.48.16.48Zm0-1-.56-.08.4-.8.48.24.16.4Zm.64-5.85-.16.56-.4-.48-.24-.64.08-.72.24-.48.64-.08-.24.56Zm.88-2.41h-.32v-.32h.32Zm-.32-1.6V35.6l.24-.4.64-.08-.32,1Zm.56.4v-.24l.48.24Zm.72-4.17.24-.56,1.92.64-1.6.64-.64-.08Zm.08,8.82.16-.32h.24Zm.56-4.17-.16-.48.48.08.16.56Zm1.68,2.73-.8-.08.56-.48.64.08Zm1-3.93-.4-.72L88.85,35l-.24-.56,1.12.24-.24.64Zm.16-9.3v-.32l.32.48Zm.48,1.6-.16-.56.32-.16.24.32Zm.48-2.49-.08-.48.4.24.24.4Zm.8-1.92-.56.24.16-.72.72.64Z"/><path class="d2ec4a09-8ae5-4930-bfa1-4820f02a4156" d="M144.5,16.68V16l-.4-2,.24-.56-.88-1.2.08-.72-1-1.68-.48-1.44-.48-.4-1.28-2-2.49-1.84L136,2.49,132,1,126.7.16l-.4.24-1.2.16-.48-.32-1.76.24-.56-.24-1.2.4-1.2.08-.48.4-1.2.32-.56.32-1.28.16-1.92.88-.64.88-1.92.88-.88.88-.72,1.2L109.7,7l-.88.88-.72,1-.56,1.2-.8,1-.24,1.44-1.12,3.13.24,1.2v2.57l.48,1v.64l.32.56.16.72.48.24L108.17,24l.72.32,1,1,.56.24,1.28.24.64.32.48-.24,1.12.08.72-.48.8-.08,1.68-.88L119,22.77v-.56l.48-1.76v-.72l-.32-.64.4-.72-1-2.57-.8-1,.08-.72.24-.56v-.72l.48-.4.8-1,.48-.4.8-.16,1-1,2-.32,1.12.08.56.32.48-.24,1.36.16,1,.88.56.32.8.08.16.64.88.72L132,15.64l-.24,4-.72,1-.64,2-.64,1.12-3.21,4-.56.32-1.68,1.6-1,.72-.32.88-1.28.48-2.57,2-1.2.64-.72,1h-.72l-.88.88-1.12.72-.64.24-2.17,1.36-.4.48-1.76,1-.88.88-1,.56H107L105.21,43l-2.33,1.36-1.2.48-.24.56-.32.32-.64.08-1.2.56L97.11,48l-.72.16-.88,1L95,50.28l.16.72,1,1.84.08,1.52,1.36,2.89,2,.32,1.2-.08.64-.24.56.24,1.92.16,1-.4,1.76.56,4-.4,1.2.4h.56l1.12-.4,1.2.32,2.49-.32,2.16.32.8-.32.88.32h2.08l.88-.32,3.85.32,1.28-.48.48.4,1.28.08,1.44-.32h.64l1.36-2.25.4-1.28-.08-.72.4-.48,1-3,.4-.4.08-.72-.4-1.2L136,47l-1-.4-1.2-.08-1.36.24-1.6-.4-1.6.24-2-.24-.88.24-1.44-.24-.72.24-2.41.16L120,46.27l-.32-.56.48-.48,1-.8,3.45-1.92,1.92-1.68,1.12-.4,2.25-1.52,1-.88,1.12-.64,2.08-1.6,3.85-3.53v-.72l1.36-.72.16-.48.72-.88.72-1.6,1-.88.32-.88.56-.8.16-1,1.2-2.33.16-.64.16-2.49.24-.64-.4-1Zm-35-.56V15.8l.16-.16Zm2.81,2.41V18l.4.48Zm3.37-6.25.48-.56.32.4ZM105,51.48h-.32v-.24H105Zm1-.64-.56.08.16-.48.56-.16Zm.16-1.76-.72-.24.56-.16.64.16Zm9.78-3.37.24.64-.32.72h-.64l.48-.64Zm0,2.81-.72-.16.4-.24Zm-1.2-4.89.8.16-.16.4-.64.08Zm.16,4.33-.16.32h-.24l-.16-.32Zm-.8-2.57.56.16-.48.24-.72.08-.4-.24L112.9,45l.72.08Zm-1-1.76.64-.24-.32.72h-.64Zm.16,2.73.16,1h-.64l-.08-.64.08-.72Zm-1.84-3.29.08.48-.64-.48Zm.16,2.81.24.56h-.64L111,46Zm-1-1.36h.24v.32h-.24Zm-1.2,1.92.24.32-.56.16Zm-1.92-1.6.56.32.32.56-.56.24-.48-.16-.16-.48Zm0,1.76-.16-.56.48.32Zm.16,2.25v.32h-.32v-.32Zm-.48,1.36-.16-.48.48-.08.56.24.16.56h-.56Zm1.2.88-.16-.48.64-.16Zm1.36,3h-.32v-.32h.32Zm-.32-4.49-1-.4.24-.56-.8-.8.4-.08.64-.08.32.56.08,1.12,1.2-.16Zm1.76,1.36-.32.56-.24-.32V50.6l.56-.32ZM110.58,49v-.32h.24V49Zm0-1.12-.4.56-.64.24.24-.56.64-.32.4-.4.48.56Zm1,4.65-.16-.16.4.16Zm.16-10.18-.08-.64h.64Zm.24.56.64.16-.32.48Zm.72,8.58-.24-.24.24-.48-.24-.56v-.8l.56.32.32.48ZM114.59,53l-.4-.24.08-.56.4.32Zm.08-1,.32-.88.64.48.08.64Zm1-1.52-.8-.4-.88.72.08-.64-.64-1.28H114l.56.48.72-.08,1,.32Zm1.84,1.92h-.56V52l.72-.16Zm-.4-3.13-.32-.56h.56l.32.48Zm1,.48-.32-.32.64-.08Zm8.9,1.52.24.32-.4.24Zm-7.7-.48.4.32h-.4Zm.24,3.69h-.24l.16-.4h.24Zm1.68.32-.72-.72-.64-.16.16-.72.48.16.72.72Zm-.88-3.13.4.56h-.56l-.48-.4Zm-.16-12.27-.64-.16.24-.64.56-.24Zm4.73-5.53-.32-.56h.56l.32.64Zm3.53-.08.16-.16.24.08Zm11.39-17.48.16.56-.64-.08-.08-.64Zm-1.52-2.65.24.4-.56.08-.24-.64ZM137.2,8.42V9l-.56-.4Zm-1,5.45h.64l-.32.8h-.64Zm-.4,3.29-.48-.16v-.32l.16-.08.4.08Zm.08,2.49h-.24v-.4Zm-.08-3.85.24-.48.32.48Zm-.24-6.17.24.4-.64-.16Zm-.24,1.6h.48l-.64.32Zm.32,1.2.4.32-.4.24-.48-.16-.16-.56ZM133,24v.56l-.4-.56ZM131.27,7.86l.32.24-.32.16Zm.32,1.92V9.14h.56v.72Zm-.32,18.36-.4.08.08-.48.48-.08Zm2.08-1.76-1,.8-.64.16-.08-.4,1.36-.88.64-.16Zm.16-17.8.56.16-.32.24Zm.4,7.54V15.8l.48.32Zm1.28,5.93,1.28.24.56.32-1.28.64-.4-.48-.64-1.12ZM135,24.3l.16-.64.4.32.08.56-.32.16Zm.8,2-.32-.24.56.16Zm1.6.16h-.48l-.08-.64.24-.56.32.64Zm1-4.89-.64-.08-.24-.64.88-.16Zm1.6-.4-.4-.24.4-.08Zm-.56-1.44-.64.24-.24-.64-.48-.48-.32-.64.32-.16.32.48,1.52.72.24.56Z"/><path class="d2ec4a09-8ae5-4930-bfa1-4820f02a4156" d="M176.81,28.39l-.16-.72-.4-.48-1.2-.64h-.72l-.64.24-.72-.4-1.12.4L169,26.7l-.64.24-.64-.48-2.65.16-5.21-.16-.72.64-1.84-.64-1-.08-2.65.4h-1.28l-1.12.24-.4.32-.08.72-.64,1.6.24.64-.8,1-.32,1.92.24,2.08.88-.32.32.48.56.32.88-.48.64.24,1.36-.08,1.28-.32,1,.32h.64l1.12-.32,1.2.64,1.28-.8,1.36.48,1-.32,2.41.24,1.28-.24.64.32.72.08,1.92-.24,2.57.24,1.12-.24.56-.32.32-.4,1-2.49-.16-.8.56-1.12-.16-.56.08-.48Zm-24.3,1.92h-.32v-.4h.48Zm6,2.17.08-.48.4.4Zm7.54-3.85-.56-.48.8-.16.4.56Zm2.17-.08.16-.16.4.8Z"/><path class="d2ec4a09-8ae5-4930-bfa1-4820f02a4156" d="M223.4,18.52l3-3.53.64-1.2,2.33-2,.8-1,.4-1.2.08-1.36L229,4.49V3.21l-.24-.48-1-.88-.64-.32h-2l-.8-.32-3.69.48-1.68-.32h-2.57L215,1.68l-1.44-.48-1,.48-1.92-.32h-7.14l-.88.48L202,1.52l-1.36-.08-.72.16-1.36-.08L198,1.2l-.8.32L196,1.28l-1.36.08-1.28.32-1.44,1,.08.72-.16.56.08.64-.72.8-.48,1.12L190.52,8l-.72,1.76-.48,2.65-.4,1.2-.72,1L188,16l-.48,1.12-.24,1.2.08.64-.4.56-.08.72.16.64.72.88,1,.08,1.36-.24,1.28.16,1.2-.32,2.65.32,1-1.6-.08-.8.88-1.6.16-.56-.08-.64.56-.4v-.8l.56-1.68.8-.8.56-.32,3.93-.24,1.12.24.72-.24,1.12.32h1.28l2.33-.48,3.77.56.56.24.4.4-.64,1.12-1.84,1.84-.56,1.12-.08.64-.4-.32-1,.72-.72.88-.16.48h-.64l-1.12,1.6-1.76,1.84-.64,1.12-.72.16-2,2.41-1,1.6-.56.32-.88.88L197.9,33l-1,.88-.24.72-.8,1-.16.64-.48.24-.72.8-.56.24.16.8-.88.88-3.13,4.09v.88l-.56.32-.88,1.6-.48.48v1l-.48.4-.64,1.28-.48.4v.64l-1,1.68v.8l-1.36,2.17.16,2.25,1.2.48,2.81-.08.56.16,1-.4,1.12.32,1.84-.16.56.24,3.61-.4.24-.56,1-2.41.24-1.52.72-.24.08-.56.72-.8.56-1.84.72-1,.16-1,.8-1,2-3.21.56-.4.72-1.12.16-.72.64-1.12L208.73,37v-.72l1-.48v-.72l.56-.32,1.28-1.52L213.06,31l1-.8,1.28-2.17,1.6-1.84,1-.72.24-.64,1.44-2L221.32,21l1.36-2.17Zm3.69-6.9.32.4-.4-.16Zm-1.92-4.49.48.32V8l-.72-.16Zm-28.39.72-.56-.08.24-.32.32.16Zm2.81-1.28-.88-.16.56-.32.32.16Zm0-1h-.32V5.05h.48Zm1.36,3.61-.32-.48.32-.48.4.56.16.8Zm.48-1.84-.24-.48.8.32Zm1.84,1.6-.56-.24.56-.16Zm.08-3-.48-.32.48-.32.56.64Zm.4-.48.16-.72.16.4Zm1,4.17-.32-.64.56.32.32.48Zm1.44-4.65.32.16v.32l-.88-.16Zm1,3.37-1-.8.48-.24.64.24.4.72Zm1.28.8-.32-.72.4.24Zm1.2-.88.08-.72.48.32Zm.08-1.2.32-.72.24.48ZM192.21,50l.16-.32h.24Zm1.12-4.33-.08-.72.56.16Zm2.08,2.81v-.32l.48.32Zm.4-3.13-.4.32-.4-.4-.16-.64,1,.16Zm1.36,0-.32.08-.24-.56v-.64h.56Zm4.89-11.71.64-.08-.48.88-.48-.16-.24-.48ZM200.63,35l.4.16.16.48-.56.08Zm-3,7.46-.24-.48.16-.48.48.4.16.64Zm.64-3.85-.32.48v.56l.32.56-.72.16-.16-.64.32-1.28-.16-.64,1.2.48Zm.48,5v-.48l.4-.56.64-.16.32.64Zm1-2.17v-.64l.4.32Zm1.2-3.29-.48-.32.56-.24Zm.24-2.08.48-.16v.48Zm.64,2.89-.32-.4.56-.08.32.56Zm.88-2.57.16-.48.08.48Zm.88-4.17-.48-.72h.48Zm2.33,3.53h-.56v-.4l.32-.48.24.32ZM208,31.59l-.24-.64.4.16Zm0-4.65-.16-.4.64.48Zm.88,1h-.24v-.4h.4Zm.8-4.73h-.32v-.4h.4Zm.56.8v-.32l.4.32Zm3.29-3.77.08-.4.16.4Zm6.74-12.43.32.24-.32.24Zm-.88-1.6h.32v.32h-.32Zm-.08.88h.56l-.08.4-.64.24Zm.24,1.92V9.7l-.4-.32Zm-2.81-3.85.24.4-.4.32Zm-.88,4.33-.24.56-.64.16-.16-.72.56-.16Zm.32,4.73.4,1.2-.48.08-.4-.56v-.72Zm-5.37-8.74h.64l-.64.56Zm.64,1.92,1.28.32.16.56L211.61,8Zm1.28,3.85-.56-.16.48-.32.56.32Zm.64-5.37.32-.24.56.24H215V6.5l.32.48-.64-.08-.8-.72Zm1.36,6.25-.64.16.16-.64.72-.08Zm.24,7.06-.16-.4.48-.08.24.56Zm.72-1.44-.24-.4.56.08Zm1.36.56-.64-.08-.08.4-.24-.24.24-.48h.72Zm0-4.41-.48-.16.16-.24h.32Zm-.08-.8-.24-.24.48-.16Zm.72-2-.08.72-.4-1L217.07,9l.16-.64L216.67,8l-.64.16.32-.48.56.16.64-.08.72.24-.16.64-.48.4.72,1Zm1.44,5.37-.48-.16.32-.64.56.16.16.48Zm0-4-.48-.48-.16-.72,1.36.4.4-.08.08.48Zm1.6,1.76-.32-.16.16-.32.32.16Zm.32-3.45-.32-.4.32-.4.56-.24Zm1.28-4.41h.48v.4h-.48Z"/><path class="d2ec4a09-8ae5-4930-bfa1-4820f02a4156" d="M266.54,36.16l-1.36.08-.88-.8-.16-1.12.64-2.49v-.64l1.6-4.41.48-2.57.08-1.28-1.28-.16-1.68.48-2.25,1-.64.08-.8,1-.56.32-.56-.56-.48.4-1.28.64-1.36.4-1.6,1-.08.56L253.23,31l-.72,2.65v.72l-1.36,1.36-.56.24-1.84.16-.72.32-1-.32-.88.32L244,36.24l-1.28.32-.56-.32-2.57-.32-.48-.4L239,34.16l.88-.16.32-.56.88-.88,1.12-.72.24-.56.4-.4.56-.24.08-.8.32-.56.8.16,1.84-1.92.64-1.2,1.2-.64,1-.8.88-1,.72-1.12,1-.72.24-.64,1.6-1,.88-.88.64-1,1.2-.64L260,14.19l1.12-.72.16-1,.72-.4.48-.48.56-.16.48-.4.88-1.12.72-1.92-.72-.8-.16-.64-1.44-1.36-1.68-2-1-.72-.88-.88-.48-.24-.64-.08-1.2.48-2.08,2.41-3.29,2.57-.56,1-2.33,2.17-.16.64-1.2,1.28-1,.32-2.41,2.81-.24.64-.72.24-1.2,1.68-.48-.32-.8,1.2L238.24,20l-2.33,3.13-.72.16-.24.56-1.2,1.36-2,1.44-.16.88-3.45,2.89-.56.24-.08.88L226,32.64l-3.29,3.93.08.8.4,1.2,1,2,.08,1.28,1,1.76.88,1,1.28-.24,2.17.16,1.28-.08.48-.24,1,.48,1.2-.08,1.2-.4,1.76.24,1.2-.24.56.24,1.36.24,1-.48,1.44.56.8-.32h4.57l1.2,1.36L247.3,50l-.56,2.65-.48.48.16.88-.72.72-.16,1.76.16.48,3.21.72,1.68-.48,1,.48,1-.32.88.48,2.49-.72,1.12-.56.72-1,.32-2,.24-.56.48-.56-.08-.8.64-1.84-.16-.72.64-.88-.16-.88,1-1.28.16-.64,1-1h4.65l1.36-.24,1.12-2.33.24-1.28.56-1,.32-2.89-1.12-.32Zm-8-25.26.32.48-.48.4ZM255,10h.32v.32H255Zm-.48,2.81.48.32v.56l-.56-.24Zm-4.57,6.41-.56.56-.16-.4Zm-2.17-1.92.24.4-.56.08-.32-.48Zm-2.25,2.41.24.56-.72-.32Zm-.88,2.08.24-1.12,1,.48-.72,1-.56.24Zm-3.45,2,.88-.56.08.56-.24.56-.56-.16-.64.08-.24-.48Zm-2.08,4.57.48.16-.16.32h-.32Zm-6.66.88.4.4-.4.48-.08-.24Zm-.24,11.07-.16-.64.64.24.24.72Zm2.65-8.1-.48-.32.16-.56.48.32Zm.88-2.81h-.32v-.32h.32Zm.56,3.53-.08-.4.24-.48.32.48Zm1.12-1.6L237,31l-.16-.56,1,.48.16.56Zm-.08-1.44.32-.4.32.4Zm.4-2.08-.56-.16.4-.32.48.16Zm21.65,2.33h.32v.32h-.32Zm-.88,4.49.56.32-.08.56-.56-.32Zm-.56-1,.16.4h-.48Zm.16,4.17-.64-.48H258Zm-.32-1.84-.32.64-.4-.64Zm-.32,2.73h-.72l.4-.4Zm-.72-4.33h.48l-.16.56Zm.56-1-.48.24L256.6,33Zm-7.94,6.42.56.08-.56.48Zm.88,3.37-.32-.48.72.16Zm2.25-3.13-1.36.48-.08-.64L251,38.65l.48.24.24.48h.72l.48.16Zm.72,6.09.16-.48.08.48Zm.24-3.53-.08-.48.56-.16ZM254,35l.48-.32.4-.4.48.56-.4.4h-.48Zm1.68,13.23-.48.08v-.72h.56Zm.24-7.86-1.2-.32.4-.48,1.12-.56-.64-1.28.32-.64.56-.32.16.64-.16,1.2.32.16-.8,1ZM257,43l-.56.08.08-.48.4-.24.4.24Zm2.16-1.36-.8-.24-.56.24-.4-.48-.56-.32-.24-.56.32-.16,1.76,1h.48Zm.24-2.25h-.56l.16-.64.48.32.08.72Zm.24-2.41-.64-.4.48-.24.64.08.16.56Zm.56-2.81L260,34l.4.16Zm.24-1.44-.24-.64.56-.08.56.08-.32.4Zm.88,3.69-.56-.16.4-.4.64.24Zm1.76-3.69h-.4l.16-.48h.24Z"/><rect class="d2ec4a09-8ae5-4930-bfa1-4820f02a4156" x="293.33" y="14.83" width="0.32" height="0.32"/><path class="d2ec4a09-8ae5-4930-bfa1-4820f02a4156" d="M306.8,1.52l-.8-.08-1.12.4-.4-.56-1.92.24-2.81-.16-.8.16L297,2.25l-1.68,2-3.21,2.49-.08.64-.32.4-1,.24-.88,1.36-.72.16-4,4.17-.64.16-1,.72-.24.88-1.2.64-1.2,1.52-1.36,1-.64,1-.16,1.36.72.16.08.56.64,1,1.76,1.68,1.36-.08,1.2-.32,1.2-1.6,2-1.84h.64l.24-.88h.64l.72-.24.56.72-.8,2.49L289.32,24v1.36l.16.64h-.88l-1.76,5.93.16.72-.64.88-.4,1.12-.32,2-.4.4-.24.56-.32,2.17-.24.56-.4.4V42.1l-1.76,5.13-.16,1.36-.88,1.84-.32,1.28v.56l-.56,1v.56l-.64,1.6.24.48-.24,1.2,2.25.56,2.57.16,3.93-.48.56.24,1.2-.08.8-1,.56-.4.16-1.84.4-1.2.64-1,.32-1.6.08-1.2.64-.88.08-1.28.32-1-.88-.72,1,.16,1-2.33,1-3.61L296,39l.88-.4,1-4.49.4-.4.32-.64.56-2.25-.16-.64.8-.8.24-1.44.4-1.28.32-.48-.08-.64,1-2.41v-.8l.32-.4.4-1.12.16-1.28.32-.56.32-1.2-.08-.64.56-.88-.08-1.2.4-.48.48-1.36.4-.48-.16-.64.08-.64,1.12-2.17.08-.56L305.75,8l.64-.56-.08-.64L307,5.53l.16-.64-.32-.72.48-.16.24-.4-.4-1.68Zm-21,51.4h-.32v-.48l.48.16Zm2.81-12.75.48-.56.4.56Zm.72-4.73.08-.56.56-.32V34l-.56.16-.32-.08,1-.72v1.2l-.32.56Zm.8,11-.16-.8.56.32Zm8-38.57.4.08-.64.4Zm-.24,5.61.48-.24.32.72-.32.64-.48-.48Zm.32,2.41-.4.4-.48,1.12-.32-.56.32-.8.48-.4Zm-.4-1.12-.48.4-.56.16-.16-.72Zm-2.17-1.92.08.4-.64-.4Zm-.56-1.2-.24.56-.4-.24-.08-.48Zm0,5.05v.24h-.24v-.24Zm-1.92-3.29.56.4,1.12,1.84-.64.32-.64-.08-.56-.4.24-.72.08-.64Zm-.08,9.38.72.08-.16.64-.4.16-.48-.24Zm.88,2.17-.32.4-.32-.4Zm-1.68-7.86h.32v.56h-.32Zm-.88,30.71-.56.08v-.56l.72.16Zm.24-29.11-.24-.24.48-.16Zm1,17.32.08-.48.48-.08Zm.72-3.37-.4-.24.4-.08Zm.16-4.09.56.24-.08.4h-.8l.32-.24-.48-.32Zm-.48-.24v-.24h.32v.24Zm.64,1.92.48.08.08.4Zm.4-3.29v-.56l-.48.32-.24.56H292l-.16-.56.16-.56.72.4.24-.48.48-.24h.72l.16,1.36Zm.16-7.78-.16-.48-.88-.56v-.56l1.6.8.16.64Zm1.12,2.33.24-.72h.56l-.56,1.2Zm.48,1.44-.24-.48.16-.48.56.32.16.72Zm.08-3.37-.08-.64.64.08Zm1.44,7.22-.24-.4.24-.56.4.24.16.48Zm-.48-6.9h.64l.32.72-.64-.16Zm1.36-1.52-1.36.32L295.33,18l-.24-.56.8-.08,1.12.8,1-.56.56.32.32.56Zm.72-6.58-.56-.16-.16-.64h.88Zm.16-3.13-.24-.48.24-.72.32.48Zm.72,1.68-.24-.24.4-.16ZM301,15.4l-.32-.24.48-.16Z"/><path class="d2ec4a09-8ae5-4930-bfa1-4820f02a4156" d="M337.11,28.39l-.16-.72-.4-.48-1.2-.64h-.72l-.64.24-.72-.4-1.12.4-2.81-.08-.64.24-.64-.48-2.65.16-5.21-.16-.72.64-1.84-.64-1-.08-2.65.4h-1.28l-1.12.24-.4.32-.08.72-.64,1.6.24.64-.8,1-.32,1.92.24,2.08.88-.32.32.48.56.32.88-.48.64.24,1.36-.08,1.28-.32,1,.32h.64l1.12-.32,1.2.64,1.28-.8,1.36.48,1-.32,2.41.24,1.28-.24.64.32.72.08,1.92-.24,2.57.24,1.12-.24.56-.32.32-.4,1-2.49-.16-.8.56-1.12-.16-.56.08-.48Zm-24.3,1.92h-.32v-.4H313Zm6,2.17.08-.48.4.4Zm7.54-3.85-.56-.48.8-.16.4.56Zm2.17-.08.16-.16.4.8Z"/><polygon class="d2ec4a09-8ae5-4930-bfa1-4820f02a4156" points="378.16 39.93 378.08 39.93 377.84 40.09 378.16 39.93"/><path class="d2ec4a09-8ae5-4930-bfa1-4820f02a4156" d="M380.73,29.27l2-1.44.8-.88.88-.32,3.93-5.05.64-1.2V18.92l.56-1,.32-4.89-.64-1.84.08-.64-1-1-.08-.56L387.62,8V7.38l-1.68-1.6-.64-1-1.76-1-1-.88-2.49-.72-.88-.56L377.92,1,376.64.8l-.8.08-1-.48-1.68.48-.56-.4-.4-.32L371.51,0l-1.44.56L368,.24l-.88.32h-1.68l-2.49.64-2.08,1H360l-2.81,2.08-.88.16-.4.48-2,1.52-.24.64-.64.16-.16.64-1.6,2.08-.32.64-.24,1.68-.48.72-.32,1-.24,2.57.56,4.65,1.76,3,.8,1,.56.4-.08.64.24.72-1.28,1.36-1.12.64-.72.16-2.25,2.25-.64.16L345.77,33l.16.72-.8.32-.56,1L343.2,37l-.48,1.12-.08,1.52-.32.56V41l-.56,1-.08,1.92.32,2.65,1,2.08.16,1.44.88,1.2.24.56.88.16L347,54.61h.8l.32.56,2.73,1.76,1-.16,1.6,1,1.2.48,1-.16.72.32,2.73.16.64.24,2.41-.4.72.24,2-.24.64.16.72-.8.4.4.56.24,1.92-.64,2.65-.4,1.28-1,2.41-.48,1.36-1.12.72-.32.72-.72,1-.48L381,51.16l.56-.4v-.64l1.76-1.92.24-1.2-.08-1.28.32-.4.32-1.12.4-.4-.08-3.13L384.26,38l-.72-1-1.12-2.33-.72-1-1-.8-.64-.24-.08-.72-.48-1.2.32-.56Zm3.69-15.4h.24v.32h-.24Zm-37.21,31-.4-.48-.16-.56-.72-.32.24-.72.72.24.4.48.08.64Zm1.28-.72-.4-.4.16-.48.64.24.24.64Zm1.2,5.29-.4-.56.56.08.32.64Zm.24-8.82v-.64l.24.56Zm.88,10.58-.48-.56.56.16Zm0-14.51-.48.32-.32-.32-.08-.56.56-.08.56.08ZM381,43.94l-.4.56-.16-.4Zm-20.13-17-.56-.48h.48Zm0,2.89-.56-.08.16-.48h.24ZM359.72,26l-1-.32-.64.24.24-.56.24-.48,1.28.64.48.48Zm-.8,2.08.08-.48.64.08Zm.16.64v.24l-.56.48V29l.24-.48Zm.24-2,.48-.4-.16.88Zm-1.12.8-.56-.48.08-.08Zm.72-4,.32-.4h.88l-.16.64-1,.56-.4.4-.72-.48-.16.72-.4.48-.08-.8.16-.64.48-.24.64.24ZM357,33l.48.64-.64-.48Zm-.4-2.08v-.56l.4.56Zm1.28-7.78-1,.24.08-.72-.24-1,1.52,1.2Zm-1.2-4.49V18H357v.56Zm.8-3.13v.64l-.48.4-.16-.64Zm-1-3.93H357l-.32.72-.24-.24Zm-1.12,3.85.64-.32v1.2l-.72-.24Zm.24,10.5-.32.56-.32-.32Zm-1-6.5.64-.08-.32.48h-.56ZM353,18l.8-.32-.16.56Zm5.53,33.6.08-.64.24.4Zm4.41,3.21-.32-.32v-.72l.48.56Zm9.7-3.37-.4.16v-.32l.64-.16Zm-.24-6.25-1.76,2.08-.72.16-.88.72-.48.16-.88.88-4.17.72-.64-.16-2.08-.16-1.36.08-.64-.72-.56-.08-2.41-1.12-.08-.72-.4-.4-1.12-2.17-.88-4,.56-1,.8-1v-.64L356.11,35l1.2-.56.8-.88L360,32.08h.8l2,.32,1,.72.4.48.64.16,3.45,2,.64.16L370,37.37l1.84,1.68.48,1.76.56,1Zm-11.31-17.4.64-.8.08.56-.24.56-.4.24Zm.8-3.77.24-.48.48.08Zm.88,1.92-.56-.24V25h.4Zm.88,4.17-.16.48-.4-.16v-.32l.16-.16Zm-.4-1.76.24-.72.24.4Zm1.12-1.2V26.7l.16-.56.32-.4.72.72Zm1,4.33-.32.24-.24-.4Zm-1-7.7-.4.4-.08-.64.64-.4Zm1.6,4.57.24-.56.64.24.32.56-.24.64-.56-.4Zm5.21,4.33-.88.88-.56-.16-1,.16v-.48l.32-.4.48.32ZM370.06,30l.08-.72.4.4.08.64Zm1.44-.72h.72l-.4,1-.48.32.24-.56Zm.72,3.53-.88.16.24-.48.4-1.12.32.32Zm.48,2.41-.24.56-.48.32.16-.64Zm-1.76-8.42.16-.32h.24Zm-1.76,1.12-.64-.4.64-.32ZM369,29.75l.08.48-.4.64-.88.16.16-.72.4-.32Zm-.48,4.41v.32h-.32v-.32ZM368,32.72h-.48v-.64Zm5-8.82-.56.4-.4.56-1.84.24L369,25l-.64-.32-.48-.56-1.12-.72-.72.08-.24-.56-.8-.88-1.2-.48-.24-.72-.4-.56-1.12-.8-.16-.56V17.48l-.16-.64-.4-.48.56-1,.16-2.08.48-.32L364,11.07l.72-.16.88-.88,3.21-.64,2.73-.24.4.32,1.36.16,2.49,1.84.8,1,.48,1.12.24,1.52.24.56.32.48-.16.8-.4.64-.08,1.36-.56,1-1.44,2-.56,1.12-.64.16-.24.56ZM374.79,38l-.16-.72.56-.08.32-.4.16.4Zm.16.72-.24.64-.4.32-.56-.08.4-.4.32-.64Zm-.32-4.25L375,34l.24.48-.4.4Zm.32-1.92-.48.16-.4-.4.08-.56.64.4.64.08.48.48Zm-.32-2.25-.48.48-.48-.24-.08-.56Zm-.48-1.92.24-.48.48-.24.48.16-.48.64Zm1.68,2.41-.32-.56.24-.24.56.32.4.72Zm-2.41,5.13.16-.4.4.4h.64l-.64.88v.48l-.56-.16.08-.72Zm.16,8.18.16-.32.24-.32.56.24.4.4-.56.16Zm1.2,3.53-.32-.4.72-.16Zm.88,1.2-.16-.8h.4l.16.56Zm.4-3-.56-.24-.32-.48.56-.16.48.24Zm.4-1.76-.56.24.24-.56.56-.16Zm.24-5.05-.16-.72-.72.4.24.56.48.32L375.68,41l-.64-.32.8-1.2-.48-.48-.16-.8.88-.08.48-.4.32.48.56-.16.32.88Zm.4,10.18h-.24V49h.24Zm0-5.45h.48l.16.4Zm.24-2.08.08-.56.56-.32v.72l-.24.64Zm1.12,4-.72-.16.16-.64.72-.24Zm.32-5.21h-1.36l-.16-.4.48-.24.32.08.24-.16h.56Zm.4,3.61v-.48l.48.48Zm.48-8.18.24.32-.16.72-.4-.32Zm1.6-27.66.4.32-.08.56L381,9Zm-1,4.49.64-.08-.32.56-.24,1.68-.4-.32-.16-.64.08-.64Zm-.8-3.45.56.4-.4.08Z"/><path class="d2ec4a09-8ae5-4930-bfa1-4820f02a4156" d="M438.3,16.68V16l-.4-2,.24-.56-.88-1.2.08-.72-1-1.68-.48-1.44-.48-.4-1.28-2-2.49-1.84L429.8,2.49l-4-1.44L420.5.16l-.4.24-1.2.16-.48-.32-1.76.24-.56-.24-1.2.4-1.2.08-.48.4-1.2.32-.56.32-1.28.16-1.92.88-.64.88-1.92.88-.88.88-.72,1.2L403.5,7l-.88.88-.72,1-.56,1.2-.8,1-.24,1.44-1.12,3.13.24,1.2v2.57l.48,1v.64l.32.56.16.72.48.24L402,24l.72.32,1,1,.56.24,1.28.24.64.32.48-.24,1.12.08.72-.48.8-.08,1.68-.88,1.84-1.68v-.56l.48-1.76v-.72l-.32-.64.4-.72-1-2.57-.8-1,.08-.72.24-.56v-.72l.48-.4.8-1,.48-.4.8-.16,1-1,2-.32,1.12.08.56.32.48-.24,1.36.16,1,.88.56.32.8.08.16.64.88.72,1.44,3.21-.24,4-.72,1-.64,2-.64,1.12-3.21,4-.56.32-1.68,1.6-1,.72-.32.88-1.28.48-2.57,2-1.2.64-.72,1h-.72l-.88.88-1.12.72-.64.24-2.17,1.36-.4.48-1.76,1-.88.88-1,.56h-.72L399,43l-2.33,1.36-1.2.48-.24.56-.32.32-.64.08-1.2.56L390.91,48l-.72.16-.88,1-.48,1.2L389,51l1,1.84.08,1.52,1.36,2.89,2,.32,1.2-.08.64-.24.56.24,1.92.16,1-.4,1.76.56,4-.4,1.2.4h.56l1.12-.4,1.2.32,2.49-.32,2.17.32.8-.32.88.32h2.08l.88-.32,3.85.32,1.28-.48.48.4,1.28.08,1.44-.32H427l1.36-2.25.4-1.28-.08-.72.4-.48,1-3,.4-.4.08-.72-.4-1.2-.32-.4-1-.4-1.2-.08-1.36.24-1.6-.4-1.6.24-2-.24-.88.24-1.44-.24-.72.24-2.41.16-1.76-.48-.32-.56.48-.48,1-.8,3.45-1.92,1.92-1.68,1.12-.4,2.25-1.52,1-.88,1.12-.64,2.08-1.6,3.85-3.53v-.72l1.36-.72.16-.48.72-.88.72-1.6,1-.88.32-.88.56-.8.16-1L438,22l.16-.64.16-2.49.24-.64-.4-1Zm-35-.56V15.8l.16-.16Zm2.81,2.41V18l.4.48Zm3.37-6.25.48-.56.32.4ZM398.77,51.48h-.32v-.24h.32Zm1-.64-.56.08.16-.48.56-.16Zm.16-1.76-.72-.24.56-.16.64.16Zm9.78-3.37.24.64-.32.72H409l.48-.64Zm0,2.81-.72-.16.4-.24Zm-1.2-4.89.8.16-.16.4-.64.08Zm.16,4.33-.16.32h-.24l-.16-.32Zm-.8-2.57.56.16-.48.24-.72.08-.4-.24-.08-.64.72.08Zm-1-1.76.64-.24-.32.72h-.64Zm.16,2.73.16,1h-.64l-.08-.64.08-.72Zm-1.84-3.29.08.48-.64-.48Zm.16,2.81.24.56h-.64l-.16-.4Zm-1-1.36h.24v.32h-.24Zm-1.2,1.92.24.32-.56.16Zm-1.92-1.6.56.32.32.56-.56.24-.48-.16-.16-.48Zm0,1.76L401.1,46l.48.32Zm.16,2.25v.32h-.32v-.32Zm-.48,1.36-.16-.48.48-.08.56.24.16.56h-.56Zm1.2.88L402,50.6l.64-.16Zm1.36,3h-.32v-.32h.32Zm-.32-4.49-1-.4.24-.56-.8-.8.4-.08.64-.08.32.56.08,1.12,1.2-.16Zm1.76,1.36-.32.56-.24-.32V50.6l.56-.32ZM404.38,49v-.32h.24V49Zm0-1.12-.4.56-.64.24.24-.56.64-.32.4-.4.48.56Zm1,4.65-.16-.16.4.16Zm.16-10.18-.08-.64h.64Zm.24.56.64.16-.32.48Zm.72,8.58-.24-.24.24-.48-.24-.56v-.8l.56.32.32.48ZM408.39,53l-.4-.24.08-.56.4.32Zm.08-1,.32-.88.64.48.08.64Zm1-1.52-.8-.4-.88.72.08-.64-.64-1.28h.64l.56.48.72-.08,1,.32Zm1.84,1.92h-.56V52l.72-.16Zm-.4-3.13-.32-.56h.56l.32.48Zm1,.48-.32-.32.64-.08Zm8.9,1.52.24.32-.4.24Zm-7.7-.48.4.32h-.4Zm.24,3.69h-.24l.16-.4h.24Zm1.68.32-.72-.72-.64-.16.16-.72.48.16L415,54Zm-.88-3.13.4.56H414l-.48-.4ZM414,39.37l-.64-.16.24-.64.56-.24Zm4.73-5.53-.32-.56H419l.32.64Zm3.53-.08.16-.16.24.08Zm11.39-17.48.16.56-.64-.08-.08-.64Zm-1.52-2.65.24.4-.56.08-.24-.64ZM431,8.42V9l-.56-.4Zm-1,5.45h.64l-.32.8h-.64Zm-.4,3.29-.48-.16v-.32l.16-.08.4.08Zm.08,2.49h-.24v-.4Zm-.08-3.85.24-.48.32.48Zm-.24-6.17.24.4-.64-.16Zm-.24,1.6h.48l-.64.32Zm.32,1.2.4.32-.4.24-.48-.16-.16-.56ZM426.84,24v.56l-.4-.56ZM425.07,7.86l.32.24-.32.16Zm.32,1.92V9.14H426v.72Zm-.32,18.36-.4.08.08-.48.48-.08Zm2.08-1.76-1,.8-.64.16-.08-.4,1.36-.88.64-.16Zm.16-17.8.56.16-.32.24Zm.4,7.54V15.8l.48.32ZM429,22.05l1.28.24.56.32-1.28.64-.4-.48-.64-1.12Zm-.24,2.25.16-.64.4.32.08.56-.32.16Zm.8,2-.32-.24.56.16Zm1.6.16h-.48l-.08-.64.24-.56.32.64Zm1-4.89-.64-.08-.24-.64.88-.16Zm1.6-.4-.4-.24.4-.08Zm-.56-1.44-.64.24-.24-.64-.48-.48-.32-.64.32-.16.32.48,1.52.72.24.56Z"/><path class="d2ec4a09-8ae5-4930-bfa1-4820f02a4156" d="M487.22,10.5l-1-1-.08-.56L485.53,8V7.38l-1.68-1.6-.64-1-1.76-1-1-.88L478,2.17l-.88-.56L475.83,1,474.55.8l-.8.08-1-.48L471,.88l-.56-.4-.4-.32L469.42,0,468,.56,465.89.24,465,.56h-1.68l-2.49.64-2.08,1h-.88l-2.81,2.08-.88.16-.4.48-2,1.52-.24.64-.64.16-.16.64-1.6,2.08-.32.64-.24,1.68-.48.72-.32,1-.24,2.57.56,4.65,1.76,3,.8,1,.56.4-.08.64.24.72-1.28,1.36-1.12.64-.72.16L446,31.35l-.64.16L443.67,33l.16.72L443,34l-.56,1L441.11,37l-.48,1.12-.08,1.52-.32.56V41l-.56,1-.08,1.92.32,2.65,1,2.08.16,1.44.88,1.2.24.56L443,52,445,54.61h.8l.32.56,2.73,1.76,1-.16,1.6,1,1.2.48,1-.16.72.32,2.73.16.64.24,2.41-.4.72.24,2-.24.64.16.72-.8.4.4.56.24,1.92-.64,2.65-.4,1.28-1,2.41-.48,1.36-1.12.72-.32.72-.72,1-.48L479,51.16l.56-.4v-.64l1.76-1.92.24-1.2-.08-1.28.32-.4.32-1.12.4-.4-.08-3.13L482.17,38l-.72-1-1.12-2.33-.72-1-1-.8-.64-.24-.08-.72-.48-1.2.32-.56.88-.8,2-1.44.8-.88.88-.32,3.93-5.05.64-1.2V18.92l.56-1,.32-4.89-.64-1.84Zm-42.1,34.32-.4-.48-.16-.56-.72-.32.24-.72.72.24.4.48.08.64Zm1.28-.72-.4-.4.16-.48.64.24.24.64Zm1.2,5.29-.4-.56.56.08.32.64Zm.24-8.82v-.64l.24.56Zm.88,10.58-.48-.56.56.16Zm0-14.51-.48.32-.32-.32-.08-.56.56-.08.56.08Zm30.15,7.3-.4.56-.16-.4Zm-20.13-17-.56-.48h.48Zm0,2.89-.56-.08.16-.48h.24ZM457.63,26l-1-.32-.64.24.24-.56.24-.48,1.28.64.48.48Zm-.8,2.08.08-.48.64.08Zm.16.64v.24l-.56.48V29l.24-.48Zm.24-2,.48-.4-.16.88Zm-1.12.8-.56-.48.08-.08Zm.72-4,.32-.4H458l-.16.64-1,.56-.4.4-.72-.48-.16.72-.4.48-.08-.8.16-.64.48-.24.64.24ZM454.9,33l.48.64-.64-.48Zm-.4-2.08v-.56l.4.56Zm1.28-7.78-1,.24.08-.72-.24-1,1.52,1.2Zm-1.2-4.49V18h.32v.56Zm.8-3.13v.64l-.48.4-.16-.64Zm-1-3.93h.56l-.32.72-.24-.24Zm-1.12,3.85.64-.32v1.2l-.72-.24Zm.24,10.5-.32.56-.32-.32Zm-1-6.5.64-.08-.32.48h-.56ZM450.89,18l.8-.32-.16.56Zm5.53,33.6.08-.64.24.4Zm4.41,3.21-.32-.32v-.72l.48.56Zm9.7-3.37-.4.16v-.32l.64-.16Zm-.24-6.25-1.76,2.08-.72.16-.88.72-.48.16-.88.88L461.4,50l-.64-.16-2.08-.16-1.36.08-.64-.72-.56-.08-2.41-1.12-.08-.72-.4-.4-1.12-2.17-.88-4,.56-1,.8-1v-.64L454,35l1.2-.56.8-.88,1.84-1.52h.8l2,.32,1,.72.4.48.64.16,3.45,2,.64.16,1.12,1.44,1.84,1.68.48,1.76.56,1ZM459,27.83l.64-.8.08.56-.24.56-.4.24Zm.8-3.77.24-.48.48.08Zm.88,1.92-.56-.24V25h.4Zm.88,4.17-.16.48-.4-.16v-.32l.16-.16Zm-.4-1.76.24-.72.24.4Zm1.12-1.2V26.7l.16-.56.32-.4.72.72Zm1,4.33-.32.24-.24-.4Zm-1-7.7-.4.4-.08-.64.64-.4Zm1.6,4.57.24-.56.64.24.32.56-.24.64-.56-.4Zm5.21,4.33-.88.88-.56-.16-1,.16v-.48l.32-.4.48.32ZM468,30l.08-.72.4.4.08.64Zm1.44-.72h.72l-.4,1-.48.32.24-.56Zm.72,3.53-.88.16.24-.48.4-1.12.32.32Zm.48,2.41-.24.56-.48.32.16-.64Zm-1.76-8.42.16-.32h.24Zm-1.76,1.12-.64-.4.64-.32Zm-.16,1.84.08.48-.4.64-.88.16.16-.72.4-.32Zm-.48,4.41v.32h-.32v-.32Zm-.56-1.44h-.48v-.64Zm5-8.82-.56.4-.4.56-1.84.24L466.93,25l-.64-.32-.48-.56-1.12-.72-.72.08-.24-.56-.8-.88-1.2-.48-.24-.72-.4-.56-1.12-.8-.16-.56V17.48l-.16-.64-.4-.48.56-1,.16-2.08.48-.32,1.44-1.92.72-.16.88-.88,3.21-.64,2.73-.24.4.32,1.36.16,2.49,1.84.8,1,.48,1.12.24,1.52.24.56.32.48-.16.8-.4.64-.08,1.36-.56,1-1.44,2-.56,1.12-.64.16-.24.56ZM472.7,38l-.16-.72.56-.08.32-.4.16.4Zm.16.72-.24.64-.4.32-.56-.08.4-.4.32-.64Zm-.32-4.25.32-.48.24.48-.4.4Zm.32-1.92-.48.16-.4-.4.08-.56.64.4.64.08.48.48Zm-.32-2.25-.48.48-.48-.24L471.5,30Zm-.48-1.92.24-.48.48-.24.48.16-.48.64Zm1.68,2.41-.32-.56.24-.24.56.32.4.72Zm-2.41,5.13.16-.4.4.4h.64l-.64.88v.48l-.56-.16.08-.72Zm.16,8.18.16-.32.24-.32.56.24.4.4-.56.16Zm1.2,3.53-.32-.4.72-.16Zm.88,1.2-.16-.8h.4l.16.56Zm.4-3-.56-.24-.32-.48.56-.16.48.24Zm.4-1.76-.56.24.24-.56.56-.16Zm.24-5.05-.16-.72-.72.4.24.56.48.32L473.59,41l-.64-.32.8-1.2-.48-.48-.16-.8.88-.08.48-.4.32.48.56-.16.32.88Zm.4,10.18h-.24V49H475Zm0-5.45h.48l.16.4Zm.24-2.08.08-.56.56-.32v.72l-.24.64Zm1.12,4-.72-.16.16-.64.72-.24Zm.32-5.21h-1.36l-.16-.4.48-.24.32.08.24-.16h.56Zm.4,3.61v-.48l.48.48Zm.48-8.18.24.32-.16.72-.4-.32Zm0-26.14-.16-.48.56.4Zm1,3.45-.24,1.68-.4-.32-.16-.64.08-.64.4-.56.64-.08Zm1-4.09L478.88,9l.32-.72.4.32Zm3,5.05h-.24v-.32h.24Z"/><polygon class="d2ec4a09-8ae5-4930-bfa1-4820f02a4156" points="476.07 39.93 475.99 39.93 475.75 40.09 476.07 39.93"/><path class="d2ec4a09-8ae5-4930-bfa1-4820f02a4156" d="M537.57,4.49V3.21l-.24-.48-1-.88-.64-.32h-2l-.8-.32-3.69.48-1.68-.32h-2.57l-1.36.32L522.1,1.2l-1,.48-1.92-.32H512l-.88.48-.56-.32-1.36-.08-.72.16-1.36-.08-.56-.32-.8.32-1.2-.24-1.36.08-1.28.32-1.44,1,.08.72-.16.56.08.64-.72.8-.48,1.12L499.08,8l-.72,1.76-.48,2.65-.4,1.2-.72,1L496.52,16,496,17.16l-.24,1.2.08.64-.4.56-.08.72.16.64.72.88,1,.08,1.36-.24,1.28.16,1.2-.32,2.65.32,1-1.6-.08-.8.88-1.6.16-.56-.08-.64.56-.4v-.8l.56-1.68.8-.8.56-.32,3.93-.24,1.12.24.72-.24,1.12.32h1.28l2.33-.48,3.77.56L523,13l.4.4-.64,1.12-1.84,1.84-.56,1.12-.08.64-.4-.32-1,.72-.72.88-.16.48h-.64l-1.12,1.6-1.76,1.84-.64,1.12-.72.16L511,27l-1,1.6-.56.32-.88.88L506.46,33l-1,.88-.24.72-.8,1-.16.64-.48.24-.72.8-.56.24.16.8-.88.88-3.13,4.09v.88l-.56.32-.88,1.6-.48.48v1l-.48.4-.64,1.28-.48.4v.64l-1,1.68v.8l-1.36,2.17.16,2.25,1.2.48,2.81-.08.56.16,1-.4,1.12.32,1.84-.16.56.24,3.61-.4.24-.56,1-2.41L507.1,53l.72-.24.08-.56.72-.8.56-1.84.72-1,.16-1,.8-1,2-3.21.56-.4.72-1.12.16-.72.64-1.12L517.29,37v-.72l1-.48v-.72l.56-.32,1.28-1.52L521.62,31l1-.8,1.28-2.17,1.6-1.84,1-.72.24-.64,1.44-2L529.88,21l1.36-2.17.72-.32L535,15l.64-1.2,2.33-2,.8-1,.4-1.2.08-1.36ZM505.34,7.86l-.56-.08.24-.32.32.16Zm2.81-1.28-.88-.16.56-.32.32.16Zm0-1h-.32V5.05h.48Zm1.36,3.61-.32-.48.32-.48.4.56.16.8ZM510,7.3l-.24-.48.8.32Zm1.84,1.6-.56-.24.56-.16Zm.08-3-.48-.32.48-.32.56.64Zm.4-.48.16-.72.16.4Zm1,4.17L513,8.9l.56.32.32.48Zm1.44-4.65.32.16v.32l-.88-.16Zm1,3.37-1-.8.48-.24.64.24.4.72Zm1.28.8-.32-.72.4.24Zm1.2-.88.08-.72.48.32Zm.08-1.2.32-.72.24.48ZM500.77,50l.16-.32h.24Zm1.12-4.33-.08-.72.56.16ZM504,48.43v-.32l.48.32Zm.4-3.13-.4.32-.4-.4-.16-.64,1,.16Zm1.36,0-.32.08-.24-.56v-.64h.56Zm4.89-11.71.64-.08-.48.88-.48-.16-.24-.48ZM509.19,35l.4.16.16.48-.56.08Zm-3,7.46-.24-.48.16-.48.48.4.16.64Zm.64-3.85-.32.48v.56l.32.56-.72.16-.16-.64.32-1.28-.16-.64,1.2.48Zm.48,5v-.48l.4-.56.64-.16.32.64Zm1-2.17v-.64l.4.32Zm1.2-3.29-.48-.32.56-.24Zm.24-2.08.48-.16v.48Zm.64,2.89-.32-.4.56-.08L511,39Zm.88-2.57.16-.48.08.48Zm.88-4.17-.48-.72h.48Zm2.33,3.53h-.56v-.4l.32-.48.24.32Zm2.08-4.09-.24-.64.4.16Zm0-4.65-.16-.4L517,27Zm.88,1h-.24v-.4h.4Zm.8-4.73h-.32v-.4h.4Zm.56.8v-.32l.4.32Zm3.29-3.77.08-.4.16.4Zm6.74-12.43.32.24-.32.24ZM528,6.25h.32v.32H528Zm-.08.88h.56l-.08.4-.64.24Zm.24,1.92V9.7l-.4-.32Zm-2.81-3.85.24.4-.4.32Zm-.88,4.33-.24.56-.64.16-.16-.72.56-.16Zm.32,4.73.4,1.2-.48.08-.4-.56v-.72Zm-5.37-8.74H520l-.64.56ZM520,7.46l1.28.32.16.56L520.17,8Zm1.28,3.85-.56-.16.48-.32.56.32Zm.64-5.37.32-.24.56.24h.72V6.5l.32.48-.64-.08-.8-.72Zm1.36,6.25-.64.16.16-.64.72-.08Zm.24,7.06-.16-.4.48-.08.24.56Zm.72-1.44-.24-.4.56.08Zm1.36.56-.64-.08-.08.4-.24-.24.24-.48h.72Zm0-4.41-.48-.16.16-.24h.32Zm-.08-.8-.24-.24.48-.16Zm.72-2-.08.72-.4-1L525.63,9l.16-.64L525.23,8l-.64.16.32-.48.56.16.64-.08.72.24-.16.64-.48.4.72,1Zm1.44,5.37-.48-.16.32-.64.56.16.16.48Zm0-4-.48-.48-.16-.72,1.36.4.4-.08.08.48Zm1.6,1.76-.32-.16.16-.32.32.16Zm.32-3.45-.32-.4.32-.4.56-.24Zm1.76-4h-.48v-.4h.48ZM534.21,8l-.72-.16.24-.72.48.32Zm1.36,3.85.08-.24.32.4Z"/></g></g></svg>