<svg xmlns="http://www.w3.org/2000/svg" width="156.063" height="31.782" viewBox="0 0 156.063 31.782">
  <metadata><?xpacket begin="﻿" id="W5M0MpCehiHzreSzNTczkc9d"?>
<x:xmpmeta xmlns:x="adobe:ns:meta/" x:xmptk="Adobe XMP Core 5.6-c138 79.159824, 2016/09/14-01:09:01        ">
   <rdf:RDF xmlns:rdf="http://www.w3.org/1999/02/22-rdf-syntax-ns#">
      <rdf:Description rdf:about=""/>
   </rdf:RDF>
</x:xmpmeta>
                                                                                                    
                                                                                                    
                                                                                                    
                                                                                                    
                                                                                                    
                                                                                                    
                                                                                                    
                                                                                                    
                                                                                                    
                                                                                                    
                                                                                                    
                                                                                                    
                                                                                                    
                                                                                                    
                                                                                                    
                                                                                                    
                                                                                                    
                                                                                                    
                                                                                                    
                                                                                                    
                           
<?xpacket end="w"?></metadata>
<defs>
    <style>
      .cls-1 {
        fill: #1c264a;
        fill-rule: evenodd;
      }
    </style>
  </defs>
  <path id="世界中で_" data-name="世界中で、 " class="cls-1" d="M205.492,714.879c1.882,0,4.161.034,5.68,0.1v-3.365c-1.453.068-3.732,0.1-5.68,0.136v-6.9a1.011,1.011,0,0,0,.628-0.68,0.484,0.484,0,0,0-.529-0.34l-3.433-.238c0.1,1.054.165,3.23,0.165,7.071v1.088H197.5V710.6c0-3.841.033-5.2,0.033-5.847a0.924,0.924,0,0,0,.627-0.646c0-.2-0.2-0.306-0.528-0.34l-3.434-.238c0.1,1.054.165,3.2,0.165,7.071v1.156h-5.679c0-5.915,0-6.017.033-7.1a0.93,0.93,0,0,0,.595-0.646,0.467,0.467,0,0,0-.5-0.34l-3.6-.238c0.133,0.952.2,3.74,0.2,8.329-1.651-.034-3.533-0.1-4.755-0.136v3.365c1.255-.034,3.137-0.068,4.755-0.1v9.382c0,4.385-.033,7.717-0.133,9.926h3.4v-1.734h16.08c1.981,0,4.887.034,6.571,0.136v-3.4c-1.684.068-4.59,0.136-6.571,0.136h-16.08V714.879h5.679v4.963c0,3.093-.066,5.439-0.132,6.969H197.5v-2.346h4.821v1.5h3.268c-0.066-1.6-.1-3.807-0.1-6.969v-4.113Zm-3.169,0v6.459H197.5v-6.459h4.821Zm40.016,2.482v0.883h3.236c-0.033-.781-0.066-1.937-0.066-3.535v-7.478c0-1.088.033-2.38,0.066-2.992-1.156.034-2.146,0.034-3.632,0.034h-16.08c-1.486,0-2.476,0-3.632-.034,0.033,0.612.066,1.9,0.066,2.992v7.886c0,1.666-.033,2.787-0.066,3.569h3.236v-1.325H228.8c-2.741,2.685-6.075,4.521-10.8,6.05a9.672,9.672,0,0,1,1.354,3.026,33.051,33.051,0,0,0,7.3-3.638c0.33-.237.66-0.441,0.957-0.679a9.49,9.49,0,0,1,.033.985c0,2.822-.3,3.978-1.023,4.963-1.024,1.36-2.279,2.074-5.415,3.06-0.3.1-.727,0.238-1.321,0.408a8.562,8.562,0,0,1,1.321,2.889c3.632-.952,6.042-2.175,7.561-3.841,1.552-1.734,1.948-3.3,2.08-7.717a0.9,0.9,0,0,0,.627-0.577,0.632,0.632,0,0,0-.594-0.442l-2.575-.2a30.279,30.279,0,0,0,4.49-4.283h2.41a18.716,18.716,0,0,0,1.519,2,18.2,18.2,0,0,0,2.476,2.346l-2.212-.136c0.066,0.952.1,2.413,0.1,5.1v2.515c0,2.244-.033,3.807-0.1,4.963h3.434c-0.066-.986-0.066-2.719-0.066-4.963v-6.357l0.165-.1a24.006,24.006,0,0,0,7.5,3.57c0.4-.952.529-1.292,0.661-1.53l0.957-1.6a26.166,26.166,0,0,1-7.3-2.821,16.559,16.559,0,0,1-3.83-2.991h3.83Zm0-2.924h-6.868v-2.209h6.868v2.209Zm0-5.065h-6.868v-2.107h6.868v2.107Zm-10.1-2.107v2.107h-6.769v-2.107h6.769Zm-6.769,4.963h6.769v2.209h-6.769v-2.209Zm43.451,9.756v2.277c0,4.385-.067,7.717-0.166,9.926h3.7c-0.132-2.175-.165-5.473-0.165-9.926v-2.277h7.561v1.5h3.467c-0.066-.782-0.1-1.937-0.1-3.535V712.33c0-1.088.033-2.38,0.1-2.992-1.155.034-2.179,0.034-3.632,0.034h-7.4c0.033-2.379.033-4.317,0.066-5.507a0.924,0.924,0,0,0,.628-0.646,0.467,0.467,0,0,0-.5-0.34l-3.764-.237c0.1,0.917.165,3.195,0.2,6.73h-7.43c-1.452,0-2.476,0-3.631-.034,0.066,0.612.1,1.9,0.1,2.992v8.77c0,1.665-.033,2.787-0.1,3.6h3.466v-2.719h7.6Zm0-3.128h-7.6V712.5h7.6v6.356Zm3.367,0V712.5h7.561v6.356h-7.561Zm42.3-5.2a19.388,19.388,0,0,1,4,3.536l1.618-1.87a21.241,21.241,0,0,0-4.16-3.4Zm-2.576,2.958a19.159,19.159,0,0,1,3.963,3.5l1.65-1.87a21.255,21.255,0,0,0-4.16-3.4Zm-19.777-4.725c1.452-.374,5.084-0.884,17.136-2.346-5.646,3.637-8.056,7.275-8.056,12.136a9.66,9.66,0,0,0,4,8.26c2.278,1.666,4.82,2.482,9.806,3.093a11.152,11.152,0,0,1,1.156-3.7,33.618,33.618,0,0,1-6.109-1.156c-3.6-1.223-5.183-3.229-5.183-6.7a8.694,8.694,0,0,1,.957-4.215,15.033,15.033,0,0,1,5.118-5.541c2.575-1.8,4.49-2.89,5.316-2.992,0.957-.136,1.023-0.136,1.023-0.476a0.74,0.74,0,0,0-.231-0.509l-1.684-2.244c-1.089.578-2.146,0.816-5.117,1.122-5.481.544-14.429,1.088-18.193,1.088H291.8Zm35.459,14.379a39.838,39.838,0,0,1,6.043,7.682l3-2.345a44.491,44.491,0,0,0-6.471-7.649Z" transform="translate(-180.656 -702.656)"/>
</svg>
